<?xml version="1.0" encoding="UTF-8" standalone="no"?><!DOCTYPE svg PUBLIC "-//W3C//DTD SVG 1.1//EN" "http://www.w3.org/Graphics/SVG/1.1/DTD/svg11.dtd"><svg width="100%" height="100%" viewBox="0 0 256 256" version="1.1" xmlns="http://www.w3.org/2000/svg" xmlns:xlink="http://www.w3.org/1999/xlink" xml:space="preserve" xmlns:serif="http://www.serif.com/" style="fill-rule:evenodd;clip-rule:evenodd;stroke-linejoin:round;stroke-miterlimit:2;"><g id="Alert"><path d="M173.011,54.516c1.729,-12.973 -2.225,-26.062 -10.847,-35.909c-8.622,-9.847 -21.073,-15.494 -34.162,-15.494c-0.001,-0 -0.003,-0 -0.004,-0c-13.089,-0 -25.54,5.647 -34.162,15.494c-8.622,9.847 -12.576,22.936 -10.847,35.909c3.904,29.304 8.653,64.948 11.914,89.422c2.21,16.586 16.358,28.973 33.09,28.973c0.005,0 0.009,0 0.014,0c16.732,0 30.88,-12.387 33.09,-28.973c3.261,-24.474 8.01,-60.118 11.914,-89.422Z" style="fill:#fff;"/><ellipse cx="125.944" cy="223.761" rx="29.219" ry="29.126" style="fill:#fff;"/></g></svg>