<?xml version="1.0" encoding="UTF-8" standalone="no"?><!DOCTYPE svg PUBLIC "-//W3C//DTD SVG 1.1//EN" "http://www.w3.org/Graphics/SVG/1.1/DTD/svg11.dtd"><svg width="100%" height="100%" viewBox="0 0 256 256" version="1.1" xmlns="http://www.w3.org/2000/svg" xmlns:xlink="http://www.w3.org/1999/xlink" xml:space="preserve" xmlns:serif="http://www.serif.com/" style="fill-rule:evenodd;clip-rule:evenodd;stroke-linejoin:round;stroke-miterlimit:2;"><g id="Alert"><path id="Ellipse" d="M109.163,26.365c-0,-10.31 8.343,-18.668 18.635,-18.668c10.292,0 18.635,8.358 18.635,18.668c-0,10.31 -8.343,18.668 -18.635,18.668c-10.292,-0 -18.635,-8.358 -18.635,-18.668Z" style="fill:#fff;"/><path id="Composite-Path" serif:id="Composite Path" d="M30.068,210.967c2,0.365 69.216,0.41 93.579,0.415l3.727,-182.943c-0,0 0.218,-0.013 0.627,-0.025c-6.446,-0.185 -60.62,0.006 -66.461,58.517c-5.233,52.428 -0.414,65.959 -4.555,72.597c-4.141,6.637 -26.74,28.921 -28.573,34.431c-2.071,6.223 -2.899,16.179 1.656,17.008Zm98.558,-182.528c0,0 -0.216,-0.013 -0.625,-0.025c-0.409,0.012 -0.627,0.025 -0.627,0.025l-3.727,182.943l8.706,0l-3.727,-182.943Zm0,0l3.727,182.943c24.36,-0.005 91.578,-0.05 93.579,-0.415c4.555,-0.829 3.727,-10.785 1.656,-17.008c-1.833,-5.51 -24.432,-27.794 -28.573,-34.431c-4.141,-6.638 0.678,-20.169 -4.555,-72.597c-5.841,-58.511 -60.013,-58.702 -66.459,-58.517c0.409,0.012 0.625,0.025 0.625,0.025Z" style="fill:#fff;"/><path id="Path" d="M94.661,221.753c3.397,15.195 16.943,26.55 33.137,26.55c16.193,-0 29.74,-11.355 33.137,-26.55l-66.274,0Z" style="fill:#fff;"/></g></svg>