<?xml version="1.0" encoding="UTF-8" standalone="no"?><!DOCTYPE svg PUBLIC "-//W3C//DTD SVG 1.1//EN" "http://www.w3.org/Graphics/SVG/1.1/DTD/svg11.dtd"><svg width="100%" height="100%" viewBox="0 0 256 256" version="1.1" xmlns="http://www.w3.org/2000/svg" xmlns:xlink="http://www.w3.org/1999/xlink" xml:space="preserve" xmlns:serif="http://www.serif.com/" style="fill-rule:evenodd;clip-rule:evenodd;stroke-linejoin:round;stroke-miterlimit:2;"><g id="Arrow-Thin---Right" serif:id="Arrow Thin - Right"><path id="Path" d="M204.492,113.955l-139.651,-93.287c-2.105,-2.201 -4.446,-3.354 -7.018,-3.354c-3.883,0 -7.206,1.572 -9.918,4.664c-2.761,3.093 -4.117,6.813 -4.117,11.164c0,5.66 2.386,10.271 7.206,13.836l119.999,81.022l-119.999,81.023c-4.82,3.563 -7.206,8.176 -7.206,13.836c0,4.402 1.356,8.121 4.117,11.215c2.712,3.091 6.035,4.612 9.918,4.612c2.572,-0 4.913,-1.101 7.018,-3.354l139.651,-93.287c5.145,-3.616 7.72,-8.28 7.72,-14.045c-0,-5.713 -2.575,-10.377 -7.72,-14.045Z" style="fill:#fff;"/></g></svg>