<?xml version="1.0" encoding="UTF-8" standalone="no"?><!DOCTYPE svg PUBLIC "-//W3C//DTD SVG 1.1//EN" "http://www.w3.org/Graphics/SVG/1.1/DTD/svg11.dtd"><svg width="100%" height="100%" viewBox="0 0 256 256" version="1.1" xmlns="http://www.w3.org/2000/svg" xmlns:xlink="http://www.w3.org/1999/xlink" xml:space="preserve" xmlns:serif="http://www.serif.com/" style="fill-rule:evenodd;clip-rule:evenodd;stroke-linejoin:round;stroke-miterlimit:2;"><g id="Chat"><path id="Composite-Path" serif:id="Composite Path" d="M56.944,127.472c-0,-8.462 6.859,-15.321 15.32,-15.321c8.462,0 15.321,6.859 15.321,15.321c0,8.461 -6.859,15.32 -15.321,15.32c-8.461,0 -15.32,-6.859 -15.32,-15.32Zm55.999,-0c0,-8.462 6.86,-15.321 15.321,-15.321c8.462,0 15.321,6.859 15.321,15.321c-0,8.461 -6.859,15.32 -15.321,15.32c-8.461,0 -15.321,-6.859 -15.321,-15.32Zm56,-0c0,-8.462 6.859,-15.321 15.321,-15.321c8.461,0 15.321,6.859 15.321,15.321c-0,8.461 -6.86,15.32 -15.321,15.32c-8.462,0 -15.321,-6.859 -15.321,-15.32Zm-161.659,-3.132c-0,54.582 54.045,98.829 120.716,98.829c66.671,0 120.716,-44.247 120.716,-98.829c0,-54.583 -54.045,-98.83 -120.716,-98.83c-66.671,-0 -120.716,44.247 -120.716,98.83Z" style="fill:#fff;"/><path id="Path" d="M42.819,180.291l-29.264,50.199l105.561,-19.87l-76.297,-30.329Z" style="fill:#fff;"/></g></svg>