<?xml version="1.0" encoding="UTF-8" standalone="no"?><!DOCTYPE svg PUBLIC "-//W3C//DTD SVG 1.1//EN" "http://www.w3.org/Graphics/SVG/1.1/DTD/svg11.dtd"><svg width="100%" height="100%" viewBox="0 0 256 256" version="1.1" xmlns="http://www.w3.org/2000/svg" xmlns:xlink="http://www.w3.org/1999/xlink" xml:space="preserve" xmlns:serif="http://www.serif.com/" style="fill-rule:evenodd;clip-rule:evenodd;stroke-linejoin:round;stroke-miterlimit:2;"><path d="M77.812,101.923c-6.721,-10.189 -17.657,-16.826 -29.797,-18.084c-12.141,-1.258 -24.205,2.996 -32.872,11.59c-0.001,0 -0.001,0.001 -0.002,0.001c-13.798,13.683 -14.713,35.691 -2.097,50.471c21.128,24.898 41.882,50.971 62.692,78.709c4.726,6.315 12.011,10.207 19.887,10.625c7.876,0.418 15.532,-2.682 20.899,-8.461c39.748,-42.986 79.395,-86.228 118.912,-115.408c16.793,-12.396 22.295,-35.041 13.062,-53.76c0.011,-0.006 0.011,-0.007 0.011,-0.007c-6.396,-12.969 -18.536,-22.161 -32.754,-24.8c-14.218,-2.639 -28.847,1.584 -39.472,11.394c-28.446,26.328 -54.402,56.982 -74.157,94.587c-0,-0 -11.921,-18.072 -24.312,-36.857Z" style="fill:#fff;"/></svg>