<?xml version="1.0" encoding="UTF-8" standalone="no"?><!DOCTYPE svg PUBLIC "-//W3C//DTD SVG 1.1//EN" "http://www.w3.org/Graphics/SVG/1.1/DTD/svg11.dtd"><svg width="100%" height="100%" viewBox="0 0 256 256" version="1.1" xmlns="http://www.w3.org/2000/svg" xmlns:xlink="http://www.w3.org/1999/xlink" xml:space="preserve" xmlns:serif="http://www.serif.com/" style="fill-rule:evenodd;clip-rule:evenodd;stroke-linejoin:round;stroke-miterlimit:2;"><g id="Checkmark"><path id="Path" d="M101.196,229.164c-7.248,0 -14.045,-2.916 -19.144,-8.209l-70.607,-73.304c-10.554,-10.963 -10.554,-28.793 -0,-39.753l16.545,-17.179c5.098,-5.297 11.9,-8.21 19.146,-8.21c7.243,0 14.043,2.913 19.144,8.21l34.956,36.295l88.479,-91.964c5.105,-5.296 11.901,-8.214 19.147,-8.214c7.248,-0 14.047,2.918 19.148,8.211l16.544,17.177c10.555,10.959 10.555,28.795 0.001,39.754l-124.211,128.977c-5.104,5.293 -11.901,8.209 -19.148,8.209Z" style="fill:#fff;fill-rule:nonzero;"/></g></svg>