<?xml version="1.0" encoding="UTF-8" standalone="no"?><!DOCTYPE svg PUBLIC "-//W3C//DTD SVG 1.1//EN" "http://www.w3.org/Graphics/SVG/1.1/DTD/svg11.dtd"><svg width="100%" height="100%" viewBox="0 0 256 256" version="1.1" xmlns="http://www.w3.org/2000/svg" xmlns:xlink="http://www.w3.org/1999/xlink" xml:space="preserve" xmlns:serif="http://www.serif.com/" style="fill-rule:evenodd;clip-rule:evenodd;stroke-linejoin:round;stroke-miterlimit:2;"><g id="Crown"><circle cx="128" cy="40.925" r="26.925" style="fill:#fff;"/><path d="M128.071,209.669c57.087,-0 103.435,-0.897 103.435,10.92c0,11.817 -46.348,21.411 -103.435,21.411c-57.088,0 -103.436,-9.594 -103.436,-21.411c0,-11.817 46.348,-10.92 103.436,-10.92Z" style="fill:#fff;"/><path d="M24.635,167.504l0,-89.661l56.954,40.233l46.411,-77.151l46.411,77.151l56.954,-40.233l-0,142.746l-206.73,0l0,-35.33c0,11.817 46.316,21.411 103.365,21.411c57.049,-0 103.365,-9.594 103.365,-21.411l-0,-17.755l-45.611,0c-16.498,-2.308 -36.372,-3.656 -57.754,-3.656c-21.382,0 -41.256,1.348 -57.754,3.656l-45.611,0Zm0,17.755l0,0c0,0 0,0 0,0Z" style="fill:#fff;"/><ellipse cx="128" cy="167.504" rx="103.365" ry="21.411" style="fill:#fff;"/><circle cx="24.635" cy="77.433" r="21.826" style="fill:#fff;"/><circle cx="231.365" cy="77.433" r="21.826" style="fill:#fff;"/></g></svg>