<?xml version="1.0" encoding="UTF-8" standalone="no"?><!DOCTYPE svg PUBLIC "-//W3C//DTD SVG 1.1//EN" "http://www.w3.org/Graphics/SVG/1.1/DTD/svg11.dtd"><svg width="100%" height="100%" viewBox="0 0 256 256" version="1.1" xmlns="http://www.w3.org/2000/svg" xmlns:xlink="http://www.w3.org/1999/xlink" xml:space="preserve" xmlns:serif="http://www.serif.com/" style="fill-rule:evenodd;clip-rule:evenodd;stroke-linejoin:round;stroke-miterlimit:2;"><g id="Cup"><path d="M143.327,188.796c0,-7.035 -5.711,-12.746 -12.745,-12.746l-5.164,0c-7.034,0 -12.745,5.711 -12.745,12.746c-0,7.034 5.711,12.746 12.745,12.746l5.164,-0c7.034,-0 12.745,-5.712 12.745,-12.746Z" style="fill:#fff;"/><path d="M174.101,232.671c-0,-8.666 -7.036,-15.702 -15.702,-15.702l-60.798,0c-8.666,0 -15.702,7.036 -15.702,15.702c0,8.666 7.036,15.701 15.702,15.701l60.798,0c8.666,0 15.702,-7.035 15.702,-15.701Z" style="fill:#fff;"/><path d="M196.77,21.382c0,-7.591 -6.163,-13.754 -13.754,-13.754l-110.032,-0c-7.591,-0 -13.754,6.163 -13.754,13.754l-0,72.913c-0,37.955 30.815,68.77 68.77,68.77c37.955,-0 68.77,-30.815 68.77,-68.77l0,-72.913Z" style="fill:#fff;"/><g><path d="M49.089,25.392c27.093,-0 49.089,21.996 49.089,49.089c-0,27.092 -21.996,49.088 -49.089,49.088c-27.093,0 -49.089,-21.996 -49.089,-49.088c0,-27.093 21.996,-49.089 49.089,-49.089Zm-0,17.469c17.451,0 31.619,14.168 31.619,31.62c0,17.451 -14.168,31.619 -31.619,31.619c-17.452,0 -31.62,-14.168 -31.62,-31.619c0,-17.452 14.168,-31.62 31.62,-31.62Z" style="fill:#fff;"/><path d="M206.911,25.392c27.093,-0 49.089,21.996 49.089,49.089c0,27.092 -21.996,49.088 -49.089,49.088c-27.093,0 -49.089,-21.996 -49.089,-49.088c0,-27.093 21.996,-49.089 49.089,-49.089Zm0,17.469c17.452,0 31.62,14.168 31.62,31.62c-0,17.451 -14.168,31.619 -31.62,31.619c-17.451,0 -31.619,-14.168 -31.619,-31.619c-0,-17.452 14.168,-31.62 31.619,-31.62Z" style="fill:#fff;"/></g><rect id="Rectangle" x="118.443" y="131.266" width="19.114" height="96.667" style="fill:#fff;"/></g></svg>