<?xml version="1.0" encoding="UTF-8" standalone="no"?><!DOCTYPE svg PUBLIC "-//W3C//DTD SVG 1.1//EN" "http://www.w3.org/Graphics/SVG/1.1/DTD/svg11.dtd"><svg width="100%" height="100%" viewBox="0 0 256 256" version="1.1" xmlns="http://www.w3.org/2000/svg" xmlns:xlink="http://www.w3.org/1999/xlink" xml:space="preserve" xmlns:serif="http://www.serif.com/" style="fill-rule:evenodd;clip-rule:evenodd;stroke-linejoin:round;stroke-miterlimit:2;"><g id="Discord"><g><g id="Discord1" serif:id="Discord"><path d="M210.558,4.779l-165.116,0c-13.924,0 -25.26,11.336 -25.26,25.384l-0,166.594c-0,14.048 11.336,25.384 25.26,25.384l139.733,0l-6.532,-22.796l15.773,14.663l14.91,13.801l26.492,23.412l0,-221.058c0,-14.048 -11.336,-25.384 -25.26,-25.384Zm-47.563,160.927c-0,-0 -4.436,-5.299 -8.133,-9.981c16.142,-4.56 22.303,-14.663 22.303,-14.663c-5.052,3.327 -9.858,5.668 -14.17,7.27c-6.161,2.587 -12.076,4.313 -17.867,5.298c-11.83,2.218 -22.673,1.602 -31.914,-0.123c-7.024,-1.355 -13.062,-3.327 -18.114,-5.298c-2.834,-1.11 -5.915,-2.465 -8.995,-4.19c-0.37,-0.247 -0.74,-0.37 -1.109,-0.617c-0.246,-0.123 -0.37,-0.246 -0.493,-0.368c-2.218,-1.233 -3.45,-2.095 -3.45,-2.095c-0,-0 5.915,9.857 21.563,14.539c-3.696,4.683 -8.255,10.228 -8.255,10.228c-27.232,-0.863 -37.583,-18.73 -37.583,-18.73c0,-39.677 17.744,-71.838 17.744,-71.838c17.744,-13.308 34.625,-12.938 34.625,-12.938l1.232,1.479c-22.179,6.407 -32.407,16.142 -32.407,16.142c0,-0 2.711,-1.479 7.27,-3.573c13.185,-5.792 23.659,-7.394 27.972,-7.763c0.738,-0.124 1.355,-0.247 2.095,-0.247c7.516,-0.986 16.018,-1.232 24.89,-0.246c11.706,1.355 24.275,4.805 37.089,11.829c0,-0 -9.734,-9.241 -30.682,-15.649l1.725,-1.972c0,0 16.882,-0.37 34.625,12.938c0,0 17.745,32.161 17.745,71.838c-0,0 -10.475,17.867 -37.706,18.73Zm-57.298,-57.544c-7.024,-0 -12.569,6.161 -12.569,13.677c0,7.517 5.668,13.678 12.569,13.678c7.024,-0 12.568,-6.161 12.568,-13.678c0.124,-7.516 -5.544,-13.677 -12.568,-13.677m44.976,-0c-7.024,-0 -12.569,6.161 -12.569,13.677c-0,7.517 5.669,13.678 12.569,13.678c7.023,-0 12.568,-6.161 12.568,-13.678c0,-7.516 -5.545,-13.677 -12.568,-13.677" style="fill:#fff;fill-rule:nonzero;"/></g></g></g></svg>