<?xml version="1.0" encoding="UTF-8" standalone="no"?><!DOCTYPE svg PUBLIC "-//W3C//DTD SVG 1.1//EN" "http://www.w3.org/Graphics/SVG/1.1/DTD/svg11.dtd"><svg width="100%" height="100%" viewBox="0 0 256 256" version="1.1" xmlns="http://www.w3.org/2000/svg" xmlns:xlink="http://www.w3.org/1999/xlink" xml:space="preserve" xmlns:serif="http://www.serif.com/" style="fill-rule:evenodd;clip-rule:evenodd;stroke-linejoin:round;stroke-miterlimit:2;"><g id="Egual"><path id="Path" d="M43.83,25.51l168.34,-0c20.555,-0 37.217,16.662 37.217,37.217c0,20.555 -16.662,37.217 -37.217,37.217l-168.34,0c-20.555,0 -37.217,-16.662 -37.217,-37.217c-0,-20.555 16.662,-37.217 37.217,-37.217Z" style="fill:#fff;"/><path id="Path1" serif:id="Path" d="M43.83,156.056l168.34,-0c20.555,-0 37.217,16.662 37.217,37.217c0,20.555 -16.662,37.217 -37.217,37.217l-168.34,0c-20.555,0 -37.217,-16.662 -37.217,-37.217c-0,-20.555 16.662,-37.217 37.217,-37.217Z" style="fill:#fff;"/></g></svg>