<?xml version="1.0" encoding="UTF-8" standalone="no"?><!DOCTYPE svg PUBLIC "-//W3C//DTD SVG 1.1//EN" "http://www.w3.org/Graphics/SVG/1.1/DTD/svg11.dtd"><svg width="100%" height="100%" viewBox="0 0 256 256" version="1.1" xmlns="http://www.w3.org/2000/svg" xmlns:xlink="http://www.w3.org/1999/xlink" xml:space="preserve" xmlns:serif="http://www.serif.com/" style="fill-rule:evenodd;clip-rule:evenodd;stroke-linejoin:round;stroke-miterlimit:2;"><g id="Facebook"><g id="Icon"><path id="Path" d="M145.622,241.099c0.673,-18.198 0,-106.679 0,-106.679c0,0 27.849,-0.429 36.445,0c16.361,0.816 23.649,-40.798 5.457,-41.575c-9.739,-0.417 -41.902,0 -41.902,0l0,-26.545c0,-12.037 3.401,-20.239 20.971,-20.239c-0,-0 14.867,0.754 22.407,-0.011c17.837,-1.808 14.479,-37.837 -1.628,-38.475c-4.954,-0.195 -15.55,-0.348 -31.023,-0.348c-32.308,0 -55.966,19.375 -55.966,54.957l-0,30.661c-0,0 -25.452,0.229 -34.996,0c-13.827,-0.332 -13.827,40.727 -0,41.575c10.366,0.636 34.996,0 34.996,0c-0,0 0.445,91.074 0.087,104.571c-0.359,13.497 44.79,11.882 45.152,2.108Z" style="fill:#fff;fill-rule:nonzero;"/></g></g></svg>