<?xml version="1.0" encoding="UTF-8" standalone="no"?><!DOCTYPE svg PUBLIC "-//W3C//DTD SVG 1.1//EN" "http://www.w3.org/Graphics/SVG/1.1/DTD/svg11.dtd"><svg width="100%" height="100%" viewBox="0 0 256 256" version="1.1" xmlns="http://www.w3.org/2000/svg" xmlns:xlink="http://www.w3.org/1999/xlink" xml:space="preserve" xmlns:serif="http://www.serif.com/" style="fill-rule:evenodd;clip-rule:evenodd;stroke-linejoin:round;stroke-miterlimit:2;"><g id="Gift"><g id="Gift1" serif:id="Gift"><g><path d="M107.803,128.749l0,-38.489l-66.827,-0c-10.621,-0 -19.244,8.623 -19.244,19.244l-0,0.001c-0,5.103 2.027,9.998 5.636,13.607c3.609,3.609 8.504,5.637 13.608,5.637c25.37,-0 66.827,-0 66.827,-0Z" style="fill:#fff;"/><path d="M148.197,128.749l-0,-38.489l66.827,-0c10.621,-0 19.244,8.623 19.244,19.244l0,0.001c0,5.103 -2.027,9.998 -5.636,13.607c-3.609,3.609 -8.504,5.637 -13.608,5.637c-25.37,-0 -66.827,-0 -66.827,-0Z" style="fill:#fff;"/></g><path d="M68.129,84.084l119.742,0c2.43,-1.882 4.8,-3.963 7.077,-6.24c11.999,-11.999 18.538,-26.565 19.388,-38.907c0.731,-10.627 -2.496,-19.926 -9.096,-26.526l0,0c-6.599,-6.599 -15.898,-9.826 -26.525,-9.095c-12.342,0.849 -26.908,7.389 -38.907,19.387c-4.824,4.824 -8.765,10.062 -11.808,15.404c-3.043,-5.342 -6.984,-10.58 -11.808,-15.404c-11.999,-11.998 -26.565,-18.538 -38.907,-19.387c-10.627,-0.731 -19.926,2.496 -26.525,9.095c-6.6,6.6 -9.827,15.899 -9.096,26.526c0.85,12.342 7.389,26.908 19.388,38.907c2.277,2.277 4.647,4.358 7.077,6.24Zm118.376,-52.937c2.095,2.095 1.726,5.473 0.949,8.999c-1.394,6.322 -5.36,13.081 -11.241,18.962c-5.882,5.882 -12.64,9.848 -18.963,11.241c-3.525,0.777 -6.903,1.147 -8.999,-0.949c-2.095,-2.095 -1.726,-5.473 -0.949,-8.999c1.394,-6.322 5.36,-13.08 11.241,-18.962c5.882,-5.882 12.64,-9.848 18.963,-11.241c3.525,-0.777 6.904,-1.146 8.999,0.949Zm-117.01,-0c2.095,-2.095 5.474,-1.726 8.999,-0.949c6.323,1.393 13.081,5.359 18.963,11.241c5.881,5.882 9.847,12.64 11.241,18.962c0.777,3.526 1.146,6.904 -0.949,8.999c-2.096,2.096 -5.474,1.726 -8.999,0.949c-6.323,-1.393 -13.081,-5.359 -18.963,-11.241c-5.881,-5.881 -9.847,-12.64 -11.241,-18.962c-0.777,-3.526 -1.146,-6.904 0.949,-8.999Z" style="fill:#fff;"/><g><path d="M107.803,252.786l0,-115.301l-73.83,0l-0,86.476c-0,15.909 12.916,28.825 28.825,28.825l45.005,-0Z" style="fill:#fff;"/><path d="M148.197,252.786l-0,-115.301l73.83,0l0,86.476c0,15.909 -12.916,28.825 -28.825,28.825l-45.005,-0Z" style="fill:#fff;"/></g></g></g></svg>