<?xml version="1.0" encoding="UTF-8" standalone="no"?><!DOCTYPE svg PUBLIC "-//W3C//DTD SVG 1.1//EN" "http://www.w3.org/Graphics/SVG/1.1/DTD/svg11.dtd"><svg width="100%" height="100%" viewBox="0 0 256 256" version="1.1" xmlns="http://www.w3.org/2000/svg" xmlns:xlink="http://www.w3.org/1999/xlink" xml:space="preserve" xmlns:serif="http://www.serif.com/" style="fill-rule:evenodd;clip-rule:evenodd;stroke-linejoin:round;stroke-miterlimit:2;"><g id="Glass"><path d="M186.879,228.328c0,-11.275 -9.153,-20.428 -20.428,-20.428l-76.902,-0c-11.275,-0 -20.428,9.153 -20.428,20.428c-0,11.274 9.153,20.427 20.428,20.427l76.902,0c11.275,0 20.428,-9.153 20.428,-20.427Z" style="fill:#fff;"/><path d="M145.524,146.894c-0,-9.672 -7.852,-17.524 -17.524,-17.524c-9.672,-0 -17.524,7.852 -17.524,17.524l0,78.48c0,9.672 7.852,17.524 17.524,17.524c9.672,0 17.524,-7.852 17.524,-17.524l-0,-78.48Z" style="fill:#fff;"/><path d="M214.813,20.761c0,-3.585 -1.424,-7.023 -3.958,-9.557c-2.535,-2.535 -5.973,-3.959 -9.558,-3.959c-32.398,-0 -114.196,-0 -146.594,-0c-3.585,-0 -7.023,1.424 -9.558,3.959c-2.534,2.534 -3.958,5.972 -3.958,9.557c-0,20.864 -0,58.534 -0,58.534c-0,47.913 38.899,86.813 86.813,86.813c47.914,0 86.813,-38.9 86.813,-86.813c0,-0 0,-37.67 0,-58.534Z" style="fill:#fff;"/></g></svg>