<?xml version="1.0" encoding="UTF-8" standalone="no"?><!DOCTYPE svg PUBLIC "-//W3C//DTD SVG 1.1//EN" "http://www.w3.org/Graphics/SVG/1.1/DTD/svg11.dtd"><svg width="100%" height="100%" viewBox="0 0 256 256" version="1.1" xmlns="http://www.w3.org/2000/svg" xmlns:xlink="http://www.w3.org/1999/xlink" xml:space="preserve" xmlns:serif="http://www.serif.com/" style="fill-rule:evenodd;clip-rule:evenodd;stroke-linejoin:round;stroke-miterlimit:2;"><g id="Home"><path id="Composite-Path" serif:id="Composite Path" d="M177.771,239.034l-100.061,-0c-5.187,-0 -10.174,-1.04 -14.762,-3.596c-9.656,-5.355 -15.121,-13.505 -16.278,-24.531c-0.12,-1.318 -0.16,-2.677 -0.16,-3.995l-0,-42.03c-0,-1.478 -0,-1.478 -1.476,-1.478c-15.002,-0.16 -28.605,-11.866 -30.88,-26.689c-1.715,-11.106 1.276,-20.734 9.256,-28.765c27.009,-27.087 54.06,-54.135 81.07,-81.222c5.547,-5.553 12.089,-8.869 19.869,-9.588c10.493,-0.96 19.59,2.038 27.129,9.628c18.593,18.698 37.263,37.356 55.936,56.012c8.179,8.151 16.358,16.301 24.497,24.451c2.753,2.757 5.146,5.753 6.902,9.23c5.944,11.785 4.228,25.889 -4.469,35.836c-6.224,7.151 -14.163,10.867 -23.658,11.067c-1.078,0.04 -1.237,0.399 -1.237,1.359c0.04,14.782 0.079,29.564 -0,44.346c-0.079,14.223 -11.132,27.087 -25.135,29.444c-2.156,0.36 -4.349,0.521 -6.543,0.521Zm-30.881,-47.783c-0,-3.436 -0.039,-6.873 -0,-10.269c0.041,-4.354 -1.555,-8.069 -4.588,-11.026c-5.944,-5.793 -13.086,-7.151 -20.826,-4.754c-7.62,2.357 -12.327,8.669 -12.408,16.18c-0.039,6.553 -0.039,13.104 0,19.656c0.04,4.396 1.517,8.23 4.589,11.386c6.383,6.593 17.075,7.912 24.976,3.037c5.425,-3.355 8.417,-8.15 8.298,-14.703c-0.08,-3.195 -0.041,-6.352 -0.041,-9.507Z" style="fill:#fff;"/><path id="Path" d="M186.646,27.427l12.089,0c7.789,0 14.104,6.364 14.104,14.215l-0,52.273c-0,7.851 -6.315,14.215 -14.104,14.215l-12.089,0c-7.789,0 -14.103,-6.364 -14.103,-14.215l-0,-52.273c-0,-7.851 6.314,-14.215 14.103,-14.215Z" style="fill:#fff;"/></g></svg>