<?xml version="1.0" encoding="UTF-8" standalone="no"?><!DOCTYPE svg PUBLIC "-//W3C//DTD SVG 1.1//EN" "http://www.w3.org/Graphics/SVG/1.1/DTD/svg11.dtd"><svg width="100%" height="100%" viewBox="0 0 256 256" version="1.1" xmlns="http://www.w3.org/2000/svg" xmlns:xlink="http://www.w3.org/1999/xlink" xml:space="preserve" xmlns:serif="http://www.serif.com/" style="fill-rule:evenodd;clip-rule:evenodd;stroke-linejoin:round;stroke-miterlimit:2;"><g id="Info"><path d="M166.064,201.484c0,13.055 -1.881,26.062 -9.173,35.909c-7.291,9.847 -17.821,15.494 -28.889,15.494c-0.001,0 -0.003,0 -0.004,0c-11.068,0 -21.598,-5.647 -28.889,-15.494c-7.292,-9.847 -9.173,-22.854 -9.173,-35.909c-0,-32.206 1.706,-64.948 4.967,-89.422c2.21,-16.586 16.358,-28.973 33.09,-28.973c0.005,-0 0.009,-0 0.014,-0c16.732,-0 30.88,12.387 33.09,28.973c3.261,24.474 4.967,61.014 4.967,89.422Z" style="fill:#fff;"/><ellipse cx="125.944" cy="32.239" rx="29.219" ry="29.126" style="fill:#fff;"/></g></svg>