<?xml version="1.0" encoding="UTF-8" standalone="no"?><!DOCTYPE svg PUBLIC "-//W3C//DTD SVG 1.1//EN" "http://www.w3.org/Graphics/SVG/1.1/DTD/svg11.dtd"><svg width="100%" height="100%" viewBox="0 0 256 256" version="1.1" xmlns="http://www.w3.org/2000/svg" xmlns:xlink="http://www.w3.org/1999/xlink" xml:space="preserve" xmlns:serif="http://www.serif.com/" style="fill-rule:evenodd;clip-rule:evenodd;stroke-linejoin:round;stroke-miterlimit:2;"><path id="Instagram" d="M207.88,242.814l-159.76,-0c-20.052,-0 -36.309,-16.074 -36.309,-35.88l0,-157.868c0,-19.806 16.257,-35.88 36.309,-35.88l159.76,0c20.052,0 36.309,16.074 36.309,35.88l-0,157.868c-0,19.806 -16.257,35.88 -36.309,35.88Zm-79.88,-153.085c-21.388,-0 -38.73,17.126 -38.73,38.271c0,21.145 17.342,38.271 38.73,38.271c21.388,0 38.73,-17.126 38.73,-38.271c-0,-21.145 -17.342,-38.271 -38.73,-38.271Zm87.142,-33.488c-0,-7.941 -6.507,-14.351 -14.524,-14.351l-9.682,-0c-8.017,-0 -14.524,6.41 -14.524,14.351l0,9.568c0,7.942 6.507,14.352 14.524,14.352l9.682,-0c8.017,-0 14.524,-6.41 14.524,-14.352l-0,-9.568Zm-0,52.623l-22.512,0c1.849,6.124 3.147,12.439 3.147,19.136c-0,37.027 -30.345,66.975 -67.777,66.975c-37.432,-0 -67.777,-29.948 -67.777,-66.975c0,-6.697 1.298,-13.012 3.147,-19.136l-22.512,0l0,90.895c0,7.941 6.507,14.351 14.524,14.351l145.236,0c8.017,0 14.524,-6.41 14.524,-14.351l-0,-90.895Z" style="fill:#fff;"/></svg>