<?xml version="1.0" encoding="UTF-8" standalone="no"?><!DOCTYPE svg PUBLIC "-//W3C//DTD SVG 1.1//EN" "http://www.w3.org/Graphics/SVG/1.1/DTD/svg11.dtd"><svg width="100%" height="100%" viewBox="0 0 256 256" version="1.1" xmlns="http://www.w3.org/2000/svg" xmlns:xlink="http://www.w3.org/1999/xlink" xml:space="preserve" xmlns:serif="http://www.serif.com/" style="fill-rule:evenodd;clip-rule:evenodd;stroke-linejoin:round;stroke-miterlimit:2;"><g id="Lens"><path d="M128,7.697c48.041,0 87.044,39.004 87.044,87.045c0,48.041 -39.003,87.044 -87.044,87.044c-48.041,0 -87.044,-39.003 -87.044,-87.044c-0,-48.041 39.003,-87.045 87.044,-87.045Zm0,30.059c31.451,0 56.986,25.535 56.986,56.986c-0,31.451 -25.535,56.986 -56.986,56.986c-31.451,-0 -56.986,-25.535 -56.986,-56.986c0,-31.451 25.535,-56.986 56.986,-56.986Z" style="fill:#fff;"/><path d="M148.113,175.035c0,-11.101 -9.012,-20.113 -20.113,-20.113c-11.101,0 -20.113,9.012 -20.113,20.113l-0,53.154c-0,11.101 9.012,20.114 20.113,20.114c11.101,-0 20.113,-9.013 20.113,-20.114l0,-53.154Z" style="fill:#fff;"/></g></svg>