<?xml version="1.0" encoding="UTF-8" standalone="no"?><!DOCTYPE svg PUBLIC "-//W3C//DTD SVG 1.1//EN" "http://www.w3.org/Graphics/SVG/1.1/DTD/svg11.dtd"><svg width="100%" height="100%" viewBox="0 0 256 256" version="1.1" xmlns="http://www.w3.org/2000/svg" xmlns:xlink="http://www.w3.org/1999/xlink" xml:space="preserve" xmlns:serif="http://www.serif.com/" style="fill-rule:evenodd;clip-rule:evenodd;stroke-linejoin:round;stroke-miterlimit:2;"><g id="Level"><path id="Ellipse" d="M3.639,42.211c0,-13.863 11.238,-25.101 25.1,-25.101c13.862,0 25.1,11.238 25.1,25.101c0,13.862 -11.238,25.099 -25.1,25.099c-13.862,0 -25.1,-11.237 -25.1,-25.099Z" style="fill:#fff;"/><path id="Path" d="M112.991,17.326l114.354,0c13.816,0 25.016,11.366 25.016,25.388c-0,14.022 -11.2,25.388 -25.016,25.388l-114.354,0c-13.816,0 -25.016,-11.366 -25.016,-25.388c0,-14.022 11.2,-25.388 25.016,-25.388Z" style="fill:#fff;"/><path id="Ellipse1" serif:id="Ellipse" d="M3.639,213.002c0,-13.863 11.238,-25.1 25.1,-25.1c13.862,0 25.1,11.237 25.1,25.1c0,13.862 -11.238,25.1 -25.1,25.1c-13.862,0 -25.1,-11.238 -25.1,-25.1Z" style="fill:#fff;"/><path id="Path1" serif:id="Path" d="M112.991,188.114l114.354,0c13.816,0 25.016,11.366 25.016,25.388c-0,14.022 -11.2,25.388 -25.016,25.388l-114.354,-0c-13.816,-0 -25.016,-11.366 -25.016,-25.388c0,-14.022 11.2,-25.388 25.016,-25.388Z" style="fill:#fff;"/><path id="Ellipse2" serif:id="Ellipse" d="M3.639,129.913c0,-13.862 11.238,-25.099 25.1,-25.099c13.862,0 25.1,11.237 25.1,25.099c0,13.863 -11.238,25.101 -25.1,25.101c-13.862,0 -25.1,-11.238 -25.1,-25.101Z" style="fill:#fff;"/><path id="Path2" serif:id="Path" d="M112.991,105.022l114.354,0c13.816,0 25.016,11.366 25.016,25.388c-0,14.022 -11.2,25.388 -25.016,25.388l-114.354,0c-13.816,0 -25.016,-11.366 -25.016,-25.388c0,-14.022 11.2,-25.388 25.016,-25.388Z" style="fill:#fff;"/></g></svg>