<?xml version="1.0" encoding="UTF-8" standalone="no"?><!DOCTYPE svg PUBLIC "-//W3C//DTD SVG 1.1//EN" "http://www.w3.org/Graphics/SVG/1.1/DTD/svg11.dtd"><svg width="100%" height="100%" viewBox="0 0 256 256" version="1.1" xmlns="http://www.w3.org/2000/svg" xmlns:xlink="http://www.w3.org/1999/xlink" xml:space="preserve" xmlns:serif="http://www.serif.com/" style="fill-rule:evenodd;clip-rule:evenodd;stroke-linejoin:round;stroke-miterlimit:2;"><g id="List"><path d="M254.235,36.356c0,-13.713 -11.133,-24.846 -24.846,-24.846l-202.778,0c-13.713,0 -24.846,11.133 -24.846,24.846c-0,13.713 11.133,24.846 24.846,24.846l202.778,0c13.713,0 24.846,-11.133 24.846,-24.846Z" style="fill:#fff;"/><path d="M254.235,128c0,-13.713 -11.133,-24.846 -24.846,-24.846l-202.778,-0c-13.713,-0 -24.846,11.133 -24.846,24.846c-0,13.713 11.133,24.846 24.846,24.846l202.778,0c13.713,0 24.846,-11.133 24.846,-24.846Z" style="fill:#fff;"/><path d="M254.235,219.644c0,-13.713 -11.133,-24.846 -24.846,-24.846l-202.778,-0c-13.713,-0 -24.846,11.133 -24.846,24.846c-0,13.713 11.133,24.846 24.846,24.846l202.778,-0c13.713,-0 24.846,-11.133 24.846,-24.846Z" style="fill:#fff;"/></g></svg>