<?xml version="1.0" encoding="UTF-8" standalone="no"?><!DOCTYPE svg PUBLIC "-//W3C//DTD SVG 1.1//EN" "http://www.w3.org/Graphics/SVG/1.1/DTD/svg11.dtd"><svg width="100%" height="100%" viewBox="0 0 256 256" version="1.1" xmlns="http://www.w3.org/2000/svg" xmlns:xlink="http://www.w3.org/1999/xlink" xml:space="preserve" xmlns:serif="http://www.serif.com/" style="fill-rule:evenodd;clip-rule:evenodd;stroke-linejoin:round;stroke-miterlimit:2;"><g id="Lock"><path d="M196.129,77.22c-0,-37.602 -30.528,-68.129 -68.129,-68.129c-37.601,-0 -68.129,30.527 -68.129,68.129c0,-0 0,95.54 0,95.54c0,37.602 30.528,68.129 68.129,68.129c37.601,0 68.129,-30.527 68.129,-68.129c-0,0 -0,-95.54 -0,-95.54Zm-26.667,-0l0,95.54c0,22.884 -18.578,41.463 -41.462,41.463c-22.884,-0 -41.462,-18.579 -41.462,-41.463l-0,-95.54c-0,-22.884 18.578,-41.463 41.462,-41.463c22.884,0 41.462,18.579 41.462,41.463Z" style="fill:#fff;"/><g><path d="M222.402,136.426c0,-20.326 -16.502,-36.828 -36.828,-36.828l-115.148,-0c-20.326,-0 -36.828,16.502 -36.828,36.828l-0,73.655c-0,20.326 16.502,36.828 36.828,36.828l115.148,0c20.326,0 36.828,-16.502 36.828,-36.828l0,-73.655Zm-84.887,46.205c7.801,-3.604 13.219,-11.499 13.219,-20.65c0,-12.548 -10.187,-22.734 -22.734,-22.734c-12.547,-0 -22.734,10.186 -22.734,22.734c-0,9.151 5.418,17.046 13.219,20.65l-0,15.114c-0,5.252 4.263,9.515 9.515,9.515c5.252,0 9.515,-4.263 9.515,-9.515l0,-15.114Z" style="fill:#fff;"/></g></g></svg>