<?xml version="1.0" encoding="UTF-8" standalone="no"?><!DOCTYPE svg PUBLIC "-//W3C//DTD SVG 1.1//EN" "http://www.w3.org/Graphics/SVG/1.1/DTD/svg11.dtd"><svg width="100%" height="100%" viewBox="0 0 256 256" version="1.1" xmlns="http://www.w3.org/2000/svg" xmlns:xlink="http://www.w3.org/1999/xlink" xml:space="preserve" xmlns:serif="http://www.serif.com/" style="fill-rule:evenodd;clip-rule:evenodd;stroke-linejoin:round;stroke-miterlimit:2;"><path id="Mail" d="M13.505,59.607c1.343,1.677 2.79,3.295 4.343,4.848c-0,-0 68.72,68.721 68.72,68.721c22.867,22.866 59.997,22.866 82.864,-0c-0,-0 68.72,-68.721 68.72,-68.721c1.553,-1.553 3,-3.171 4.343,-4.848c4.183,6.827 6.594,14.853 6.594,23.438l0,89.91c0,24.812 -20.144,44.956 -44.955,44.956l-152.268,-0c-24.811,-0 -44.955,-20.144 -44.955,-44.956l-0,-89.91c-0,-8.585 2.411,-16.611 6.594,-23.438Zm14.157,-14.443c6.987,-4.477 15.295,-7.075 24.204,-7.075l152.268,0c8.909,0 17.217,2.598 24.204,7.075c-1.269,1.808 -2.712,3.533 -4.328,5.149l-68.721,68.721c-15.061,15.061 -39.517,15.061 -54.578,-0c-0,-0 -68.721,-68.721 -68.721,-68.721c-1.616,-1.616 -3.059,-3.341 -4.328,-5.149Z" style="fill:#fff;"/></svg>