<?xml version="1.0" encoding="UTF-8" standalone="no"?><!DOCTYPE svg PUBLIC "-//W3C//DTD SVG 1.1//EN" "http://www.w3.org/Graphics/SVG/1.1/DTD/svg11.dtd"><svg width="100%" height="100%" viewBox="0 0 256 256" version="1.1" xmlns="http://www.w3.org/2000/svg" xmlns:xlink="http://www.w3.org/1999/xlink" xml:space="preserve" xmlns:serif="http://www.serif.com/" style="fill-rule:evenodd;clip-rule:evenodd;stroke-linejoin:round;stroke-miterlimit:2;"><g id="Menu"><path id="Ellipse" d="M9.456,88.252c-0,-17.231 13.968,-31.2 31.2,-31.2c17.231,0 31.2,13.969 31.2,31.2c-0,17.232 -13.969,31.2 -31.2,31.2c-17.232,0 -31.2,-13.968 -31.2,-31.2Z" style="fill:#fff;"/><path id="Ellipse1" serif:id="Ellipse" d="M97.77,88.252c-0,-17.231 13.969,-31.2 31.2,-31.2c17.232,0 31.201,13.969 31.201,31.2c-0,17.232 -13.969,31.2 -31.201,31.2c-17.231,0 -31.2,-13.968 -31.2,-31.2Z" style="fill:#fff;"/><path id="Ellipse2" serif:id="Ellipse" d="M184.145,88.252c0,-17.231 13.968,-31.2 31.199,-31.2c17.231,0 31.2,13.969 31.2,31.2c0,17.232 -13.969,31.2 -31.2,31.2c-17.231,0 -31.199,-13.968 -31.199,-31.2Z" style="fill:#fff;"/><path id="Ellipse3" serif:id="Ellipse" d="M9.456,167.748c-0,-17.231 13.968,-31.2 31.2,-31.2c17.231,-0 31.2,13.969 31.2,31.2c-0,17.232 -13.969,31.2 -31.2,31.2c-17.232,-0 -31.2,-13.968 -31.2,-31.2Z" style="fill:#fff;"/><path id="Ellipse4" serif:id="Ellipse" d="M97.77,167.748c-0,-17.231 13.969,-31.2 31.2,-31.2c17.232,-0 31.201,13.969 31.201,31.2c-0,17.232 -13.969,31.2 -31.201,31.2c-17.231,-0 -31.2,-13.968 -31.2,-31.2Z" style="fill:#fff;"/><path id="Ellipse5" serif:id="Ellipse" d="M184.145,167.748c0,-17.231 13.968,-31.2 31.199,-31.2c17.231,-0 31.2,13.969 31.2,31.2c0,17.232 -13.969,31.2 -31.2,31.2c-17.231,-0 -31.199,-13.968 -31.199,-31.2Z" style="fill:#fff;"/></g></svg>