<?xml version="1.0" encoding="UTF-8" standalone="no"?><!DOCTYPE svg PUBLIC "-//W3C//DTD SVG 1.1//EN" "http://www.w3.org/Graphics/SVG/1.1/DTD/svg11.dtd"><svg width="100%" height="100%" viewBox="0 0 256 256" version="1.1" xmlns="http://www.w3.org/2000/svg" xmlns:xlink="http://www.w3.org/1999/xlink" xml:space="preserve" xmlns:serif="http://www.serif.com/" style="fill-rule:evenodd;clip-rule:evenodd;stroke-linejoin:round;stroke-miterlimit:2;"><g id="Pause"><path id="Path" d="M57.914,7.697c22.827,0 41.333,18.476 41.333,41.267l-0,157.891c-0,22.791 -18.506,41.267 -41.333,41.267c-22.828,-0 -41.333,-18.476 -41.333,-41.267l-0,-157.891c-0,-22.791 18.505,-41.267 41.333,-41.267Z" style="fill:#fff;"/><path id="Path1" serif:id="Path" d="M198.086,7.878c22.828,0 41.333,18.476 41.333,41.267l0,157.891c0,22.791 -18.505,41.267 -41.333,41.267c-22.827,-0 -41.333,-18.476 -41.333,-41.267l0,-157.891c0,-22.791 18.506,-41.267 41.333,-41.267Z" style="fill:#fff;"/></g></svg>