<?xml version="1.0" encoding="UTF-8" standalone="no"?><!DOCTYPE svg PUBLIC "-//W3C//DTD SVG 1.1//EN" "http://www.w3.org/Graphics/SVG/1.1/DTD/svg11.dtd"><svg width="100%" height="100%" viewBox="0 0 256 256" version="1.1" xmlns="http://www.w3.org/2000/svg" xmlns:xlink="http://www.w3.org/1999/xlink" xml:space="preserve" xmlns:serif="http://www.serif.com/" style="fill-rule:evenodd;clip-rule:evenodd;stroke-linejoin:round;stroke-miterlimit:2;"><g id="Pencil"><path d="M236.189,85.179c8.043,-8.044 8.043,-21.105 -0,-29.148l-36.22,-36.22c-8.043,-8.043 -21.104,-8.043 -29.148,0l-83.395,90.466l58.297,58.297l90.466,-83.395Z" style="fill:#fff;"/><path d="M104.941,209.356l-58.297,-58.297l29.386,-29.385l58.296,58.296l-29.385,29.386Z" style="fill:#fff;"/><path d="M14.275,228.461c-1.195,3.761 -0.193,7.876 2.598,10.666c2.79,2.791 6.905,3.793 10.666,2.598c25.215,-8.012 66.005,-20.973 66.005,-20.973l-58.296,-58.296c-0,-0 -12.961,40.79 -20.973,66.005Z" style="fill:#fff;"/></g></svg>