<?xml version="1.0" encoding="UTF-8" standalone="no"?><!DOCTYPE svg PUBLIC "-//W3C//DTD SVG 1.1//EN" "http://www.w3.org/Graphics/SVG/1.1/DTD/svg11.dtd"><svg width="100%" height="100%" viewBox="0 0 256 256" version="1.1" xmlns="http://www.w3.org/2000/svg" xmlns:xlink="http://www.w3.org/1999/xlink" xml:space="preserve" xmlns:serif="http://www.serif.com/" style="fill-rule:evenodd;clip-rule:evenodd;stroke-linejoin:round;stroke-miterlimit:2;"><g id="Photo"><path id="Composite-Path" serif:id="Composite Path" d="M204.67,70.917c0,-6.449 5.237,-11.676 11.696,-11.676c6.459,-0 11.695,5.227 11.695,11.676c0,6.449 -5.236,11.676 -11.695,11.676c-6.459,0 -11.696,-5.227 -11.696,-11.676Zm-139.912,73.084c-0,-34.871 28.314,-63.138 63.242,-63.138c34.928,0 63.242,28.267 63.242,63.138c0,34.87 -28.314,63.137 -63.242,63.137c-34.928,-0 -63.242,-28.267 -63.242,-63.137Zm-30.322,-97.695c-18.571,0.889 -33.354,16.204 -33.354,34.964l0,114.218c0,19.331 15.697,35.002 35.061,35.002l183.714,0c19.364,0 35.061,-15.671 35.061,-35.002l-0,-114.218c-0,-19.332 -15.697,-35.003 -35.061,-35.003l-135.174,0l0,2.498c0,3.276 -2.66,5.933 -5.942,5.933l-38.362,-0c-3.282,-0 -5.943,-2.657 -5.943,-5.933l0,-2.459Z" style="fill:#fff;"/><path id="Ellipse" d="M80.785,144.433c-0,-26.033 21.138,-47.137 47.215,-47.137c26.077,0 47.215,21.104 47.215,47.137c0,26.033 -21.138,47.137 -47.215,47.137c-26.077,-0 -47.215,-21.104 -47.215,-47.137Z" style="fill:#fff;"/><path id="Composite-Path1" serif:id="Composite Path" d="M40.379,34.586l38.362,0c3.282,0 5.942,2.656 5.942,5.933l0,8.246c0,3.276 -2.66,5.933 -5.942,5.933l-38.362,-0c-3.282,-0 -5.943,-2.657 -5.943,-5.933l0,-8.246c0,-3.277 2.661,-5.933 5.943,-5.933Zm-2.56,-9.076c-8.328,-0 -15.078,6.74 -15.078,15.053l-0,20.922c-0,8.314 6.75,15.054 15.078,15.054l43.481,-0c8.328,-0 15.079,-6.74 15.079,-15.054l-0,-20.922c-0,-8.313 -6.751,-15.053 -15.079,-15.053l-43.481,-0Z" style="fill:#fff;"/></g></svg>