<?xml version="1.0" encoding="UTF-8" standalone="no"?><!DOCTYPE svg PUBLIC "-//W3C//DTD SVG 1.1//EN" "http://www.w3.org/Graphics/SVG/1.1/DTD/svg11.dtd"><svg width="100%" height="100%" viewBox="0 0 256 256" version="1.1" xmlns="http://www.w3.org/2000/svg" xmlns:xlink="http://www.w3.org/1999/xlink" xml:space="preserve" xmlns:serif="http://www.serif.com/" style="fill-rule:evenodd;clip-rule:evenodd;stroke-linejoin:round;stroke-miterlimit:2;"><g id="Plus"><path id="Path" d="M118.916,7.699l16.626,-0c16.278,-0 29.474,13.195 29.474,29.473l-0,181.656c-0,16.278 -13.196,29.473 -29.474,29.473l-16.626,0c-16.278,0 -29.474,-13.195 -29.474,-29.473l-0,-181.656c-0,-16.278 13.196,-29.473 29.474,-29.473Z" style="fill:#fff;"/><path id="Path1" serif:id="Path" d="M248.301,118.916l0,16.626c0,16.278 -13.195,29.474 -29.473,29.474l-181.656,-0c-16.278,-0 -29.473,-13.196 -29.473,-29.474l-0,-16.626c-0,-16.278 13.195,-29.474 29.473,-29.474l181.656,-0c16.278,-0 29.473,13.196 29.473,29.474Z" style="fill:#fff;"/></g></svg>