<?xml version="1.0" encoding="UTF-8" standalone="no"?><!DOCTYPE svg PUBLIC "-//W3C//DTD SVG 1.1//EN" "http://www.w3.org/Graphics/SVG/1.1/DTD/svg11.dtd"><svg width="100%" height="100%" viewBox="0 0 256 256" version="1.1" xmlns="http://www.w3.org/2000/svg" xmlns:xlink="http://www.w3.org/1999/xlink" xml:space="preserve" xmlns:serif="http://www.serif.com/" style="fill-rule:evenodd;clip-rule:evenodd;stroke-linejoin:round;stroke-miterlimit:2;"><path id="Question-Mark---Border" serif:id="Question Mark - Border" d="M111.223,172.079c-14.485,-0 -21.727,-1.831 -21.727,-5.492l0,-10.984c0,-8.671 6.876,-19.751 20.627,-33.239c5.134,-5.01 9.855,-10.695 14.164,-17.054c4.309,-6.359 6.463,-12.139 6.463,-17.342c0,-9.635 -5.271,-14.452 -15.814,-14.452c-10.543,-0 -21.131,3.661 -31.766,10.983c-6.967,-7.322 -11.826,-15.608 -14.576,-24.857c-1.1,-3.083 -1.65,-5.829 -1.65,-8.238c-0,-2.408 0.458,-4.673 1.375,-6.792c1.467,-5.01 8.297,-9.731 20.489,-14.163c12.193,-4.432 25.074,-6.648 38.642,-6.648c20.535,-0 35.937,4.625 46.205,13.874c10.267,9.249 15.401,21.871 15.401,37.864c0,7.323 -1.696,14.5 -5.088,21.534c-3.392,7.033 -7.517,13.199 -12.376,18.498c-4.859,5.299 -9.672,10.261 -14.439,14.886c-11.551,11.561 -17.327,20.329 -17.327,26.303l0,8.671c0,2.312 -3.392,3.998 -10.176,5.058c-6.784,1.06 -12.926,1.59 -18.427,1.59Zm26.953,58.386c0,1.156 -7.563,1.734 -22.69,1.734c-15.126,0 -22.69,-0.482 -22.69,-1.445l0,-45.379c0,-1.542 7.564,-2.313 22.69,-2.313c15.127,0 22.69,0.482 22.69,1.445l0,45.958Z" style="fill:#fff;fill-rule:nonzero;stroke:#fff;stroke-width:36.63px;"/></svg>