<?xml version="1.0" encoding="UTF-8" standalone="no"?><!DOCTYPE svg PUBLIC "-//W3C//DTD SVG 1.1//EN" "http://www.w3.org/Graphics/SVG/1.1/DTD/svg11.dtd"><svg width="100%" height="100%" viewBox="0 0 256 256" version="1.1" xmlns="http://www.w3.org/2000/svg" xmlns:xlink="http://www.w3.org/1999/xlink" xml:space="preserve" xmlns:serif="http://www.serif.com/" style="fill-rule:evenodd;clip-rule:evenodd;stroke-linejoin:round;stroke-miterlimit:2;"><g id="Ranking"><path id="Path" d="M37.389,74.248c16.964,-0 30.716,13.751 30.716,30.715l-0,112.624c-0,16.964 -13.752,30.716 -30.716,30.716c-16.964,-0 -30.715,-13.752 -30.715,-30.716l-0,-112.624c-0,-16.964 13.751,-30.715 30.715,-30.715Z" style="fill:#fff;"/><path id="Path1" serif:id="Path" d="M128,7.697c16.964,0 30.716,13.752 30.716,30.716l-0,179.174c-0,16.964 -13.752,30.716 -30.716,30.716c-16.964,-0 -30.716,-13.752 -30.716,-30.716l0,-179.174c0,-16.964 13.752,-30.716 30.716,-30.716Z" style="fill:#fff;"/><path id="Path2" serif:id="Path" d="M218.611,111.106c16.964,0 30.715,13.752 30.715,30.716l0,75.765c0,16.964 -13.751,30.716 -30.715,30.716c-16.964,-0 -30.716,-13.752 -30.716,-30.716l0,-75.765c0,-16.964 13.752,-30.716 30.716,-30.716Z" style="fill:#fff;"/></g></svg>