<?xml version="1.0" encoding="UTF-8" standalone="no"?><!DOCTYPE svg PUBLIC "-//W3C//DTD SVG 1.1//EN" "http://www.w3.org/Graphics/SVG/1.1/DTD/svg11.dtd"><svg width="100%" height="100%" viewBox="0 0 256 256" version="1.1" xmlns="http://www.w3.org/2000/svg" xmlns:xlink="http://www.w3.org/1999/xlink" xml:space="preserve" xmlns:serif="http://www.serif.com/" style="fill-rule:evenodd;clip-rule:evenodd;stroke-linejoin:round;stroke-miterlimit:2;"><g id="Ranking--Numbers-" serif:id="Ranking (Numbers)"><path id="Composite-Path" serif:id="Composite Path" d="M57.594,125.047c0.72,1.704 1.132,3.508 1.132,5.412c-0,1.402 -0.309,2.705 -0.72,3.908c-0.515,1.202 -1.132,2.405 -1.956,3.407c-0.823,1.002 -1.749,2.004 -2.779,2.906c-1.028,0.902 -2.161,1.703 -3.188,2.405l8.128,-0l-0.617,10.422l-24.082,-0.802l0,-9.119c0.825,-0.301 1.854,-0.701 2.883,-1.102c1.029,-0.401 1.955,-0.802 2.985,-1.403c0.924,-0.601 1.851,-1.202 2.675,-1.904c0.824,-0.602 1.646,-1.403 2.262,-2.205c0.619,-0.802 1.236,-1.704 1.648,-2.706c0.412,-0.902 0.617,-1.904 0.617,-3.106c-0,-0.602 -0.205,-1.103 -0.411,-1.603c-0.206,-0.502 -0.514,-0.902 -0.927,-1.203c-0.41,-0.301 -0.927,-0.501 -1.44,-0.702c-0.619,-0.199 -1.132,-0.3 -1.749,-0.3c-0.516,-0 -1.03,0.101 -1.545,0.2c-0.616,0.1 -1.13,0.201 -1.646,0.401c-0.514,0.201 -1.029,0.501 -1.44,0.802c-0.412,0.3 -0.823,0.601 -1.133,0.902l-2.263,-9.821c0.617,-0.601 1.338,-1.102 2.161,-1.503c0.823,-0.401 1.646,-0.701 2.572,-1.002c0.824,-0.201 1.749,-0.401 2.778,-0.602c0.927,-0.1 1.854,-0.2 2.778,-0.2c2.06,0 3.912,0.401 5.661,1.103c1.751,0.801 3.293,1.803 4.529,3.006c1.235,1.202 2.264,2.705 3.087,4.409Zm-25.364,-20.99c-9.276,0 -16.796,7.322 -16.796,16.355l-6.584,50.665c-0,9.034 7.519,16.355 16.793,16.355l36.458,0c9.276,0 16.795,-7.321 16.795,-16.355l2.401,-50.665c0,-9.033 -7.52,-16.355 -16.795,-16.355l-32.272,0Z" style="fill:#fff;"/><path id="Composite-Path1" serif:id="Composite Path" d="M123.318,80.177l11.732,0.501l-1.544,35.675l-11.215,-0.501l0.616,-23.75l-4.116,2.806l-3.808,-8.618l8.335,-6.113Zm-12.054,-13.105c-9.275,0 -16.795,7.322 -16.795,16.354l-4.802,89.147c0,9.032 7.519,16.355 16.794,16.355l44.277,-0c9.274,-0 16.795,-7.323 16.795,-16.355l-7.203,-89.147c-0,-9.032 -7.519,-16.354 -16.795,-16.354l-32.271,0Z" style="fill:#fff;"/><path id="Composite-Path2" serif:id="Composite Path" d="M223.002,156.884c0.103,0.702 0.206,1.403 0.206,2.104c0,2.206 -0.412,4.21 -1.133,5.813c-0.823,1.603 -1.853,3.007 -3.087,4.008c-1.339,1.103 -2.881,1.904 -4.63,2.405c-1.852,0.502 -3.809,0.802 -5.969,0.802c-1.029,-0 -1.955,-0.1 -2.985,-0.3c-1.029,-0.201 -2.057,-0.401 -3.086,-0.703c-1.031,-0.3 -2.058,-0.701 -2.986,-1.101c-0.925,-0.401 -1.749,-0.902 -2.571,-1.504l0.925,-10.022c0.618,0.402 1.339,0.803 2.161,1.204c0.823,0.4 1.647,0.802 2.471,1.103c0.823,0.3 1.749,0.501 2.675,0.701c0.824,0.2 1.75,0.3 2.574,0.3c0.411,-0 0.925,-0 1.438,-0.1c0.516,0 1.031,-0.2 1.443,-0.4c0.41,-0.201 0.719,-0.402 1.029,-0.802c0.204,-0.402 0.409,-0.902 0.409,-1.504c0,-0.401 -0.205,-0.701 -0.514,-1.002c-0.411,-0.3 -0.823,-0.601 -1.233,-0.802l-1.545,-0.601c-0.513,-0.1 -0.926,-0.2 -1.234,-0.2c-0.309,0 -0.617,0.1 -0.926,0.1c-0.411,-0 -0.721,0.1 -1.03,0.1c-0.411,0.1 -0.72,0.201 -1.029,0.201c-0.308,0.1 -0.514,0.2 -0.617,0.301l0.103,-7.115c0.206,-0 0.514,0.1 0.823,0.1l0.823,-0c0.618,-0 1.236,-0 1.955,-0.1c0.619,-0.101 1.338,-0.301 1.956,-0.602c0.618,-0.3 1.131,-0.701 1.543,-1.202c0.411,-0.401 0.618,-1.103 0.618,-1.904c0,-0.502 -0.207,-0.902 -0.513,-1.303c-0.31,-0.301 -0.722,-0.601 -1.133,-0.802c-0.515,-0.2 -1.029,-0.301 -1.544,-0.4c-0.515,-0 -0.927,-0.101 -1.338,-0.101c-1.44,0 -2.882,0.301 -4.219,0.702c-1.338,0.501 -2.47,1.202 -3.5,2.104l-2.16,-9.12c1.544,-1.201 3.292,-2.204 5.35,-2.905c2.059,-0.602 4.117,-1.002 6.176,-1.002c1.851,-0 3.601,0.301 5.351,0.801c1.647,0.602 3.19,1.403 4.527,2.406c1.236,1.002 2.266,2.304 3.088,3.808c0.722,1.503 1.132,3.206 1.132,5.11c-0,0.602 -0.103,1.202 -0.308,1.804c-0.207,0.601 -0.413,1.102 -0.618,1.704c-0.309,0.601 -0.618,1.102 -1.028,1.502c-0.413,0.502 -0.825,0.902 -1.237,1.203c0.617,0.401 1.237,0.801 1.751,1.303c0.411,0.601 0.823,1.203 1.132,1.804c0.205,0.701 0.411,1.403 0.514,2.104Zm-31.504,-33.587c-9.276,0 -16.796,7.322 -16.796,16.355l3.602,31.425c0,9.034 7.519,16.355 16.795,16.355l35.257,0c9.275,0 16.794,-7.321 16.794,-16.355l-6.584,-31.425c0,-9.033 -7.521,-16.355 -16.796,-16.355l-32.272,0Z" style="fill:#fff;"/></g></svg>