<?xml version="1.0" encoding="UTF-8" standalone="no"?><!DOCTYPE svg PUBLIC "-//W3C//DTD SVG 1.1//EN" "http://www.w3.org/Graphics/SVG/1.1/DTD/svg11.dtd"><svg width="100%" height="100%" viewBox="0 0 256 256" version="1.1" xmlns="http://www.w3.org/2000/svg" xmlns:xlink="http://www.w3.org/1999/xlink" xml:space="preserve" xmlns:serif="http://www.serif.com/" style="fill-rule:evenodd;clip-rule:evenodd;stroke-linejoin:round;stroke-miterlimit:2;"><g id="Rate"><path id="Composite-Path" serif:id="Composite Path" d="M194.26,154.844c16.136,-15.824 24.274,-35.956 24.274,-60.54c-0,-14.058 -2.806,-26.844 -8.419,-38.358c-5.612,-11.515 -12.767,-20.627 -21.326,-27.409c-17.96,-13.846 -36.34,-20.84 -55.282,-20.84l-69.872,0c-13.751,0 -22.169,2.967 -25.186,8.83c-1.754,3.25 -2.807,6.146 -3.087,8.619c-0.352,2.543 -0.491,6.287 -0.491,11.232l-0,180.631c-0,7.628 0.631,13.28 1.965,16.953c2.525,8.054 11.365,12.01 26.518,12.01c13.75,-0 22.168,-2.897 25.185,-8.76c1.684,-3.25 2.736,-6.075 3.086,-8.618c0.28,-2.473 0.491,-6.217 0.491,-11.232l0,-36.805l40.76,0l9.962,-0.635c14.662,35.179 23.08,54.817 25.255,58.915c1.264,2.189 3.228,4.309 5.963,6.357c2.666,2.049 6.104,3.109 10.313,3.109c4.21,-0 9.751,-1.554 16.695,-4.592c13.331,-5.651 20.065,-12.574 20.065,-20.839c0,-3.461 -1.683,-9.113 -4.91,-16.884c-9.962,-22.605 -17.258,-39.629 -21.959,-51.144Zm-102.144,-89.503l40.76,-0c6.594,-0 13.049,2.472 19.363,7.347c6.243,4.874 9.4,12.079 9.4,21.616c0,9.607 -3.157,16.742 -9.4,21.546c-6.314,4.803 -12.557,7.134 -18.732,7.134l-41.391,0l0,-57.643Z" style="fill:#fff;"/></g></svg>