<?xml version="1.0" encoding="UTF-8" standalone="no"?><!DOCTYPE svg PUBLIC "-//W3C//DTD SVG 1.1//EN" "http://www.w3.org/Graphics/SVG/1.1/DTD/svg11.dtd"><svg width="100%" height="100%" viewBox="0 0 256 256" version="1.1" xmlns="http://www.w3.org/2000/svg" xmlns:xlink="http://www.w3.org/1999/xlink" xml:space="preserve" xmlns:serif="http://www.serif.com/" style="fill-rule:evenodd;clip-rule:evenodd;stroke-linejoin:round;stroke-miterlimit:2;"><g id="Repeat"><path id="Path" d="M175.059,30.81c0,-0 21.034,-28.427 36.135,-22.228c15.101,6.2 31.623,88.134 21.681,100.024c-9.941,11.891 -92.661,15.053 -101.178,3.704c-8.516,-11.348 43.362,-81.5 43.362,-81.5Z" style="fill:#fff;"/><path id="Path1" serif:id="Path" d="M19.803,136.443c0,61.779 49,111.86 109.446,111.86c52.432,-0 96.248,-37.679 106.948,-87.99c-0,0 -2.597,-11.178 -18.544,-14.457c-15.948,-3.28 -24.74,4.548 -24.74,4.548c-6.203,27.662 -27.828,55.959 -66.087,54.644c-33.626,-1.155 -66.315,-26.278 -66.315,-68.323c-0,-44.452 35.093,-69.166 68.738,-69.166c16.509,-0 31.485,8.92 42.456,19.819l62.188,16.182c-13.738,-45.733 -55.394,-78.978 -104.644,-78.978c-60.446,0 -109.446,50.081 -109.446,111.861Z" style="fill:#fff;"/></g></svg>