<?xml version="1.0" encoding="UTF-8" standalone="no"?><!DOCTYPE svg PUBLIC "-//W3C//DTD SVG 1.1//EN" "http://www.w3.org/Graphics/SVG/1.1/DTD/svg11.dtd"><svg width="100%" height="100%" viewBox="0 0 256 256" version="1.1" xmlns="http://www.w3.org/2000/svg" xmlns:xlink="http://www.w3.org/1999/xlink" xml:space="preserve" xmlns:serif="http://www.serif.com/" style="fill-rule:evenodd;clip-rule:evenodd;stroke-linejoin:round;stroke-miterlimit:2;"><g id="Settings"><path id="Settings1" serif:id="Settings" d="M152.441,8.86c-0.238,-1.982 -1.748,-3.574 -3.715,-3.916c-13.721,-2.308 -27.731,-2.308 -41.452,0.003c-1.965,0.343 -3.473,1.933 -3.711,3.913c-1.264,10.797 -1.574,21.63 -0.932,32.499c-13.856,4.057 -26.538,11.379 -36.98,21.35c-9.092,-5.99 -18.628,-11.138 -28.609,-15.445c-1.835,-0.786 -3.969,-0.274 -5.249,1.258c-8.858,10.73 -15.864,22.863 -20.723,35.901c-0.686,1.873 -0.063,3.974 1.533,5.171c8.719,6.493 17.946,12.177 27.679,17.055c-3.415,14.029 -3.415,28.673 0,42.702c-9.733,4.878 -18.96,10.562 -27.68,17.053c-1.598,1.197 -2.222,3.3 -1.535,5.175c4.862,13.036 11.868,25.169 20.729,35.896c1.279,1.531 3.411,2.043 5.245,1.258c9.982,-4.304 19.518,-9.452 28.61,-15.442c10.442,9.971 23.124,17.293 36.98,21.35c-0.642,10.869 -0.332,21.702 0.928,32.499c0.238,1.982 1.748,3.574 3.715,3.916c13.721,2.308 27.731,2.308 41.452,-0.003c1.965,-0.343 3.473,-1.933 3.711,-3.913c1.264,-10.797 1.574,-21.63 0.932,-32.499c13.856,-4.057 26.538,-11.379 36.98,-21.35c9.092,5.99 18.628,11.138 28.609,15.445c1.835,0.786 3.969,0.274 5.249,-1.258c8.858,-10.73 15.864,-22.863 20.723,-35.901c0.686,-1.873 0.063,-3.974 -1.533,-5.171c-8.719,-6.493 -17.946,-12.177 -27.679,-17.055c3.415,-14.029 3.415,-28.673 -0,-42.702c9.733,-4.878 18.96,-10.562 27.68,-17.053c1.598,-1.197 2.222,-3.3 1.535,-5.175c-4.862,-13.036 -11.868,-25.169 -20.729,-35.896c-1.279,-1.531 -3.411,-2.043 -5.245,-1.258c-9.982,4.304 -19.518,9.452 -28.61,15.442c-10.442,-9.971 -23.124,-17.293 -36.98,-21.35c0.642,-10.869 0.332,-21.702 -0.928,-32.499Zm-28.364,82.912c21.363,-2.314 40.465,12.041 42.631,32.036c2.165,19.995 -13.421,38.107 -34.785,40.42c-21.363,2.314 -40.465,-12.041 -42.631,-32.036c-2.165,-19.995 13.421,-38.107 34.785,-40.42Z" style="fill:#fff;"/></g></svg>