<?xml version="1.0" encoding="UTF-8" standalone="no"?><!DOCTYPE svg PUBLIC "-//W3C//DTD SVG 1.1//EN" "http://www.w3.org/Graphics/SVG/1.1/DTD/svg11.dtd"><svg width="100%" height="100%" viewBox="0 0 256 256" version="1.1" xmlns="http://www.w3.org/2000/svg" xmlns:xlink="http://www.w3.org/1999/xlink" xml:space="preserve" xmlns:serif="http://www.serif.com/" style="fill-rule:evenodd;clip-rule:evenodd;stroke-linejoin:round;stroke-miterlimit:2;"><g id="Sharing"><path d="M203.711,100.571c5.572,10.964 8.704,23.318 8.704,36.382c-0,45.473 -37.915,82.226 -84.415,82.226c-46.5,0 -84.415,-36.753 -84.415,-82.226c0,-13.064 3.132,-25.418 8.704,-36.382c3.668,-7.216 0.787,-16.053 -6.43,-19.72c-7.216,-3.667 -16.052,-0.786 -19.72,6.43c-7.607,14.969 -11.887,31.836 -11.887,49.672c0,61.48 50.879,111.559 113.748,111.559c62.869,0 113.748,-50.079 113.748,-111.559c-0,-17.836 -4.28,-34.703 -11.887,-49.672c-3.668,-7.216 -12.504,-10.097 -19.72,-6.43c-7.217,3.667 -10.098,12.504 -6.43,19.72Z" style="fill:#fff;"/><path id="Layer-3" serif:id="Layer 3" d="M128.191,7.488c24.47,-0.188 59.183,66.295 48.985,72.976c-9.134,5.984 -23.543,6.003 -23.543,6.003c-0,-0 11.104,43.854 5.736,53.322c-4.563,8.048 -54.051,11.198 -61.819,-0.229c-6.933,-10.196 5.326,-53.69 5.326,-53.69c0,0 -16.971,0.387 -24.584,-5.894c-8.94,-7.376 25.661,-72.302 49.899,-72.488Z" style="fill:#fff;"/></g></svg>