<?xml version="1.0" encoding="UTF-8" standalone="no"?><!DOCTYPE svg PUBLIC "-//W3C//DTD SVG 1.1//EN" "http://www.w3.org/Graphics/SVG/1.1/DTD/svg11.dtd"><svg width="100%" height="100%" viewBox="0 0 256 256" version="1.1" xmlns="http://www.w3.org/2000/svg" xmlns:xlink="http://www.w3.org/1999/xlink" xml:space="preserve" xmlns:serif="http://www.serif.com/" style="fill-rule:evenodd;clip-rule:evenodd;stroke-linejoin:round;stroke-miterlimit:2;"><g id="Share"><g><g><path d="M220.739,35.118c11.05,19.139 4.483,43.647 -14.656,54.697c-19.138,11.05 -43.647,4.483 -54.697,-14.656c-11.049,-19.138 -4.482,-43.647 14.656,-54.697c19.139,-11.05 43.648,-4.482 54.697,14.656Z" style="fill:#fff;"/><path d="M186.697,45.241l-110.417,63.749l8.255,14.297l110.416,-63.748l-8.254,-14.298Z" style="fill:#fff;"/></g><g><path d="M220.739,220.882c11.05,-19.139 4.483,-43.647 -14.656,-54.697c-19.138,-11.05 -43.647,-4.483 -54.697,14.656c-11.049,19.138 -4.482,43.647 14.656,54.697c19.139,11.05 43.648,4.482 54.697,-14.656Z" style="fill:#fff;"/><path d="M186.697,210.759l-110.417,-63.749l8.255,-14.297l110.416,63.748l-8.254,14.298Z" style="fill:#fff;"/></g></g><circle cx="57.936" cy="128" r="40.041" style="fill:#fff;"/></g></svg>