<?xml version="1.0" encoding="UTF-8" standalone="no"?><!DOCTYPE svg PUBLIC "-//W3C//DTD SVG 1.1//EN" "http://www.w3.org/Graphics/SVG/1.1/DTD/svg11.dtd"><svg width="100%" height="100%" viewBox="0 0 256 256" version="1.1" xmlns="http://www.w3.org/2000/svg" xmlns:xlink="http://www.w3.org/1999/xlink" xml:space="preserve" xmlns:serif="http://www.serif.com/" style="fill-rule:evenodd;clip-rule:evenodd;stroke-linejoin:round;stroke-miterlimit:2;"><g id="Shop"><path id="Ellipse" d="M68.146,217.261c0,-17.784 14.417,-32.2 32.201,-32.2c17.783,0 32.199,14.416 32.199,32.2c0,17.784 -14.416,32.2 -32.199,32.2c-17.784,0 -32.201,-14.416 -32.201,-32.2Z" style="fill:#fff;"/><path id="Ellipse1" serif:id="Ellipse" d="M178.862,215.729c-0,-17.784 14.414,-32.2 32.199,-32.2c17.782,-0 32.198,14.416 32.198,32.2c0,17.783 -14.416,32.2 -32.198,32.2c-17.785,-0 -32.199,-14.417 -32.199,-32.2Z" style="fill:#fff;"/><path d="M37.658,42.276l-19.618,-10.697c-6.46,-3.523 -8.845,-11.629 -5.322,-18.09c3.523,-6.46 11.628,-8.845 18.089,-5.322l24.776,13.51c3.286,1.792 5.668,4.883 6.563,8.517l28.555,115.939l139.84,0c7.359,0 13.334,5.975 13.334,13.334c-0,7.358 -5.975,13.333 -13.334,13.333l-150.288,-0c-6.136,-0 -11.479,-4.187 -12.947,-10.145l-29.648,-120.379Z" style="fill:#fff;"/><path d="M244.278,46.029c1.24,-3.673 0.635,-7.718 -1.626,-10.868c-2.26,-3.149 -5.899,-5.016 -9.776,-5.016l-131.296,-0c-3.699,-0 -7.192,1.7 -9.473,4.611c-2.281,2.911 -3.097,6.71 -2.212,10.301l18.448,74.905c1.324,5.377 6.147,9.156 11.685,9.156l87.554,0c5.162,0 9.75,-3.293 11.402,-8.184l25.294,-74.905Z" style="fill:#fff;"/></g></svg>