<?xml version="1.0" encoding="UTF-8" standalone="no"?><!DOCTYPE svg PUBLIC "-//W3C//DTD SVG 1.1//EN" "http://www.w3.org/Graphics/SVG/1.1/DTD/svg11.dtd"><svg width="100%" height="100%" viewBox="0 0 256 256" version="1.1" xmlns="http://www.w3.org/2000/svg" xmlns:xlink="http://www.w3.org/1999/xlink" xml:space="preserve" xmlns:serif="http://www.serif.com/" style="fill-rule:evenodd;clip-rule:evenodd;stroke-linejoin:round;stroke-miterlimit:2;"><g id="Sound-Off" serif:id="Sound Off"><g><path id="Path" d="M31.693,85.738l52.602,0c13.552,0 24.537,10.974 24.537,24.512l0,35.5c0,13.538 -10.985,24.512 -24.537,24.512l-52.602,-0c-13.551,-0 -24.537,-10.974 -24.537,-24.512l0,-35.5c0,-13.538 10.986,-24.512 24.537,-24.512Z" style="fill:#fff;"/><path d="M158.606,46.454c-0,-10.727 -8.71,-19.437 -19.438,-19.437c-10.727,0 -19.437,8.71 -19.437,19.437l-0,163.092c-0,10.727 8.71,19.437 19.437,19.437c10.728,-0 19.438,-8.71 19.438,-19.437l-0,-163.092Z" style="fill:#fff;"/><path id="Path1" serif:id="Path" d="M69.576,86.638l55.655,-53.727l-0,190.178l-55.506,-53.672l-0.149,-82.779Z" style="fill:#fff;"/></g><g><path id="Path2" serif:id="Path" d="M246.808,94.756c2.722,2.645 2.714,7.01 -0.021,9.742l-56.702,56.643c-2.665,2.662 -6.949,2.648 -9.567,-0.026c-2.612,-2.667 -2.58,-6.979 0.07,-9.637l56.379,-56.557c2.719,-2.727 7.124,-2.805 9.841,-0.165Z" style="fill:#fff;"/><path id="Path3" serif:id="Path" d="M180.787,94.756c-2.746,2.645 -2.769,7.01 -0.048,9.742l56.41,56.643c2.651,2.662 6.943,2.648 9.585,-0.026c2.636,-2.667 2.635,-6.979 -0.002,-9.637l-56.086,-56.557c-2.705,-2.727 -7.118,-2.805 -9.859,-0.165Z" style="fill:#fff;"/></g></g></svg>