<?xml version="1.0" encoding="UTF-8" standalone="no"?><!DOCTYPE svg PUBLIC "-//W3C//DTD SVG 1.1//EN" "http://www.w3.org/Graphics/SVG/1.1/DTD/svg11.dtd"><svg width="100%" height="100%" viewBox="0 0 256 256" version="1.1" xmlns="http://www.w3.org/2000/svg" xmlns:xlink="http://www.w3.org/1999/xlink" xml:space="preserve" xmlns:serif="http://www.serif.com/" style="fill-rule:evenodd;clip-rule:evenodd;stroke-linejoin:round;stroke-miterlimit:2;"><g id="Sound-On" serif:id="Sound On"><g><path id="Path" d="M32.692,85.738l52.602,0c13.552,0 24.537,10.974 24.537,24.512l0,35.5c0,13.538 -10.985,24.512 -24.537,24.512l-52.602,-0c-13.552,-0 -24.537,-10.974 -24.537,-24.512l-0,-35.5c-0,-13.538 10.985,-24.512 24.537,-24.512Z" style="fill:#fff;"/><path d="M159.604,46.454c0,-10.727 -8.709,-19.437 -19.437,-19.437c-10.728,0 -19.437,8.71 -19.437,19.437l-0,163.092c-0,10.727 8.709,19.437 19.437,19.437c10.728,-0 19.437,-8.71 19.437,-19.437l0,-163.092Z" style="fill:#fff;"/><path id="Path1" serif:id="Path" d="M70.574,86.638l55.656,-53.727l-0,190.178l-55.506,-53.672l-0.15,-82.779Z" style="fill:#fff;"/></g><path id="Volume-Medium-Icon" serif:id="Volume Medium Icon" d="M218.707,201.068c-1.697,1.729 -4.014,2.709 -6.437,2.72c-2.423,0.011 -4.75,-0.946 -6.463,-2.659c-0.055,0.051 -0.057,0.049 -0.059,0.047c-3.377,-3.379 -3.395,-8.849 -0.04,-12.25c15.119,-15.831 24.394,-37.249 24.394,-60.873c0,-23.589 -9.252,-44.985 -24.28,-60.864c-3.353,-3.403 -3.332,-8.873 0.045,-12.251c-0.061,-0.061 -0.061,-0.061 -0.061,-0.061c1.713,-1.715 4.041,-2.675 6.465,-2.665c2.424,0.01 4.744,0.988 6.443,2.717c18.001,19.118 29.131,44.794 29.131,73.124c0,28.306 -11.108,53.96 -29.138,73.015Zm-24.809,-25.301c-1.718,1.798 -4.088,2.828 -6.575,2.856c-2.486,0.029 -4.879,-0.946 -6.638,-2.704c-0.1,0.095 -0.102,0.093 -0.104,0.091c-3.334,-3.337 -3.377,-8.731 -0.095,-12.12c8.809,-9.357 14.13,-21.963 14.13,-35.837c-0,-13.878 -5.332,-26.499 -14.043,-35.968c-3.21,-3.31 -3.17,-8.583 0.091,-11.843c-0.111,-0.112 -0.11,-0.112 -0.11,-0.113c1.794,-1.795 4.237,-2.791 6.775,-2.761c2.537,0.029 4.956,1.081 6.708,2.918c11.339,12.696 18.322,29.412 18.322,47.767c0,18.38 -6.997,35.116 -18.461,47.714Z" style="fill:#fff;"/></g></svg>