<?xml version="1.0" encoding="UTF-8" standalone="no"?><!DOCTYPE svg PUBLIC "-//W3C//DTD SVG 1.1//EN" "http://www.w3.org/Graphics/SVG/1.1/DTD/svg11.dtd"><svg width="100%" height="100%" viewBox="0 0 256 256" version="1.1" xmlns="http://www.w3.org/2000/svg" xmlns:xlink="http://www.w3.org/1999/xlink" xml:space="preserve" xmlns:serif="http://www.serif.com/" style="fill-rule:evenodd;clip-rule:evenodd;stroke-linejoin:round;stroke-miterlimit:2;"><g id="Sound"><path id="Path" d="M76.812,85.738l52.602,0c13.552,0 24.537,10.974 24.537,24.512l0,35.5c0,13.538 -10.985,24.512 -24.537,24.512l-52.602,-0c-13.551,-0 -24.537,-10.974 -24.537,-24.512l0,-35.5c0,-13.538 10.986,-24.512 24.537,-24.512Z" style="fill:#fff;"/><path d="M203.725,46.454c-0,-10.727 -8.71,-19.437 -19.438,-19.437c-10.727,0 -19.437,8.71 -19.437,19.437l0,163.092c0,10.727 8.71,19.437 19.437,19.437c10.728,-0 19.438,-8.71 19.438,-19.437l-0,-163.092Z" style="fill:#fff;"/><path id="Path1" serif:id="Path" d="M114.695,86.638l55.655,-53.727l0,190.178l-55.506,-53.672l-0.149,-82.779Z" style="fill:#fff;"/></g></svg>