<?xml version="1.0" encoding="UTF-8" standalone="no"?><!DOCTYPE svg PUBLIC "-//W3C//DTD SVG 1.1//EN" "http://www.w3.org/Graphics/SVG/1.1/DTD/svg11.dtd"><svg width="100%" height="100%" viewBox="0 0 256 256" version="1.1" xmlns="http://www.w3.org/2000/svg" xmlns:xlink="http://www.w3.org/1999/xlink" xml:space="preserve" xmlns:serif="http://www.serif.com/" style="fill-rule:evenodd;clip-rule:evenodd;stroke-linejoin:round;stroke-miterlimit:2;"><path id="Star" d="M128,9.914c29.858,-0 48.776,60.865 48.776,60.865c-0,0 63.733,-0.816 72.959,27.58c9.227,28.397 -42.814,65.198 -42.814,65.198c0,-0 20.471,60.361 -3.684,77.911c-24.156,17.55 -75.237,-20.572 -75.237,-20.572c-0,0 -51.081,38.122 -75.237,20.572c-24.155,-17.55 -3.684,-77.911 -3.684,-77.911c-0,-0 -52.041,-36.801 -42.814,-65.198c9.226,-28.396 72.959,-27.58 72.959,-27.58c0,0 18.918,-60.865 48.776,-60.865Z" style="fill:#fff;"/></svg>