<?xml version="1.0" encoding="UTF-8" standalone="no"?><!DOCTYPE svg PUBLIC "-//W3C//DTD SVG 1.1//EN" "http://www.w3.org/Graphics/SVG/1.1/DTD/svg11.dtd"><svg width="100%" height="100%" viewBox="0 0 256 256" version="1.1" xmlns="http://www.w3.org/2000/svg" xmlns:xlink="http://www.w3.org/1999/xlink" xml:space="preserve" xmlns:serif="http://www.serif.com/" style="fill-rule:evenodd;clip-rule:evenodd;stroke-linecap:round;stroke-linejoin:round;stroke-miterlimit:1.5;"><path id="Sticker-Star---Border" serif:id="Sticker Star - Border" d="M128,9.829l23.641,14.595l27.631,-2.892l14.967,23.406l26.151,9.384l3.329,27.582l19.489,19.801l-8.968,26.295l8.968,26.295l-19.489,19.801l-3.329,27.582l-26.151,9.384l-14.967,23.406l-27.631,-2.892l-23.641,14.595l-23.641,-14.595l-27.631,2.892l-14.967,-23.406l-26.151,-9.384l-3.329,-27.582l-19.489,-19.801l8.968,-26.295l-8.968,-26.295l19.489,-19.801l3.329,-27.582l26.151,-9.384l14.967,-23.406l27.631,2.892l23.641,-14.595Z" style="fill:#fff;stroke:#fff;stroke-width:16.73px;"/></svg>