<?xml version="1.0" encoding="UTF-8" standalone="no"?><!DOCTYPE svg PUBLIC "-//W3C//DTD SVG 1.1//EN" "http://www.w3.org/Graphics/SVG/1.1/DTD/svg11.dtd"><svg width="100%" height="100%" viewBox="0 0 256 256" version="1.1" xmlns="http://www.w3.org/2000/svg" xmlns:xlink="http://www.w3.org/1999/xlink" xml:space="preserve" xmlns:serif="http://www.serif.com/" style="fill-rule:evenodd;clip-rule:evenodd;stroke-linejoin:round;stroke-miterlimit:2;"><g id="Twitter"><path d="M225.356,77.316c0.092,2.219 0.123,4.438 0.123,6.657c-0,67.276 -50.516,144.941 -142.891,144.941c-28.376,0 -54.761,-8.472 -76.993,-22.896c3.93,0.404 7.921,0.706 11.973,0.706c23.528,0 45.198,-8.17 62.387,-21.887c-21.976,-0.303 -40.533,-15.13 -46.933,-35.303c3.072,0.606 6.237,0.908 9.472,0.908c4.563,0 8.993,-0.605 13.239,-1.815c-22.997,-4.64 -40.318,-25.216 -40.318,-49.928l-0,-0.605c6.777,3.732 14.535,6.052 22.772,6.354c-13.494,-9.178 -22.364,-24.812 -22.364,-42.463c-0,-9.28 2.47,-18.055 6.818,-25.62c24.763,30.865 61.784,51.138 103.522,53.256c-0.858,-3.732 -1.297,-7.665 -1.297,-11.599c0,-28.141 22.487,-50.936 50.23,-50.936c14.443,-0 27.488,6.153 36.644,16.037c11.463,-2.219 22.201,-6.455 31.918,-12.305c-3.767,11.902 -11.718,21.887 -22.109,28.141c10.166,-1.211 19.863,-3.934 28.856,-7.968c-6.747,10.187 -15.24,19.164 -25.049,26.325Z" style="fill:#fff;"/></g></svg>