<?xml version="1.0" encoding="UTF-8" standalone="no"?><!DOCTYPE svg PUBLIC "-//W3C//DTD SVG 1.1//EN" "http://www.w3.org/Graphics/SVG/1.1/DTD/svg11.dtd"><svg width="100%" height="100%" viewBox="0 0 256 256" version="1.1" xmlns="http://www.w3.org/2000/svg" xmlns:xlink="http://www.w3.org/1999/xlink" xml:space="preserve" xmlns:serif="http://www.serif.com/" style="fill-rule:evenodd;clip-rule:evenodd;stroke-linejoin:round;stroke-miterlimit:2;"><g id="Users"><path d="M38.7,165.597c15.083,12.022 34.188,19.211 54.959,19.211c19.777,0 38.044,-6.517 52.77,-17.521c9.496,6.087 17.926,13.695 24.944,22.477c9.469,11.774 11.341,27.938 4.814,41.564c-6.528,13.627 -20.297,22.298 -35.406,22.298c-30.487,-0 -68.686,-0 -99.173,-0.024c-15.1,-0 -28.86,-8.666 -35.383,-22.284c-6.524,-13.619 -4.653,-29.772 4.81,-41.539c7.678,-9.624 17.052,-17.836 27.665,-24.182Z" style="fill:#fff;"/><circle cx="93.659" cy="96.527" r="65.212" style="fill:#fff;"/><path d="M173.539,155.646c17.352,-1.225 33.326,-7.473 46.476,-17.299c9.497,6.086 17.926,13.694 24.944,22.476c9.469,11.774 11.341,27.938 4.814,41.565c-6.528,13.626 -20.297,22.297 -35.406,22.297l-1.556,0c2.373,-14.854 -1.531,-30.305 -11.254,-42.394c-8.074,-10.104 -17.506,-19.079 -28.018,-26.645Zm-43.861,-141.355c10.624,-7.507 23.585,-11.917 37.568,-11.917c35.991,0 65.211,29.221 65.211,65.212c0,33.008 -24.576,60.321 -56.415,64.622c4.749,-10.937 7.383,-23.004 7.383,-35.681c-0,-36.737 -22.115,-68.348 -53.747,-82.236Z" style="fill:#fff;"/></g></svg>