<?xml version="1.0" encoding="UTF-8" standalone="no"?><!DOCTYPE svg PUBLIC "-//W3C//DTD SVG 1.1//EN" "http://www.w3.org/Graphics/SVG/1.1/DTD/svg11.dtd"><svg width="100%" height="100%" viewBox="0 0 256 256" version="1.1" xmlns="http://www.w3.org/2000/svg" xmlns:xlink="http://www.w3.org/1999/xlink" xml:space="preserve" xmlns:serif="http://www.serif.com/" style="fill-rule:evenodd;clip-rule:evenodd;stroke-linejoin:round;stroke-miterlimit:2;"><g id="User---Plus" serif:id="User - Plus"><path d="M187.914,225.648c-7.347,8.454 -18.1,13.508 -29.635,13.508c-30.487,-0 -68.685,-0 -99.172,-0.025c-15.1,0 -28.86,-8.665 -35.384,-22.284c-6.523,-13.618 -4.652,-29.771 4.811,-41.538c7.678,-9.624 17.051,-17.837 27.664,-24.182c15.084,12.022 34.189,19.211 54.96,19.211c1.515,-0 3.021,-0.038 4.515,-0.114c7.63,31.792 36.262,55.447 70.375,55.447c0.623,0 1.245,-0.007 1.866,-0.023Z" style="fill:#fff;"/><path d="M113.934,147.21c-0.923,0.039 -1.848,0.058 -2.776,0.058c-35.992,0 -65.212,-29.22 -65.212,-65.212c-0,-35.991 29.22,-65.212 65.212,-65.212c35.833,0 64.955,28.964 65.21,64.735c-33.392,4.473 -59.603,31.75 -62.434,65.631Z" style="fill:#fff;"/><path d="M186.048,103.225c27.64,-0 50.079,22.439 50.079,50.079c0,27.639 -22.439,50.079 -50.079,50.079c-27.639,-0 -50.079,-22.44 -50.079,-50.079c0,-27.64 22.44,-50.079 50.079,-50.079Zm7.361,42.718l0,-12.503c0,-4.063 -3.298,-7.361 -7.361,-7.361c-4.062,-0 -7.361,3.298 -7.361,7.361l0,12.503l-12.502,-0c-4.063,-0 -7.361,3.298 -7.361,7.361c-0,4.062 3.298,7.36 7.361,7.36l12.502,0l0,12.503c0,4.063 3.299,7.361 7.361,7.361c4.063,0 7.361,-3.298 7.361,-7.361l0,-12.503l12.503,0c4.063,0 7.361,-3.298 7.361,-7.36c0,-4.063 -3.298,-7.361 -7.361,-7.361l-12.503,-0Z" style="fill:#fff;"/></g></svg>