<?xml version="1.0" encoding="UTF-8" standalone="no"?><!DOCTYPE svg PUBLIC "-//W3C//DTD SVG 1.1//EN" "http://www.w3.org/Graphics/SVG/1.1/DTD/svg11.dtd"><svg width="100%" height="100%" viewBox="0 0 256 256" version="1.1" xmlns="http://www.w3.org/2000/svg" xmlns:xlink="http://www.w3.org/1999/xlink" xml:space="preserve" xmlns:serif="http://www.serif.com/" style="fill-rule:evenodd;clip-rule:evenodd;stroke-linejoin:round;stroke-miterlimit:2;"><g id="User"><path d="M75.493,151.127c15.083,12.022 34.189,19.211 54.959,19.211c19.777,-0 38.044,-6.518 52.77,-17.521c9.496,6.087 17.926,13.694 24.944,22.477c9.469,11.774 11.341,27.937 4.814,41.564c-6.528,13.627 -20.297,22.298 -35.406,22.298c-30.487,-0 -68.686,-0 -99.172,-0.025c-15.101,0 -28.86,-8.665 -35.384,-22.284c-6.524,-13.618 -4.653,-29.771 4.811,-41.538c7.677,-9.624 17.051,-17.837 27.664,-24.182Z" style="fill:#fff;"/><circle cx="130.452" cy="82.056" r="65.212" style="fill:#fff;"/></g></svg>