<?xml version="1.0" encoding="UTF-8" standalone="no"?><!DOCTYPE svg PUBLIC "-//W3C//DTD SVG 1.1//EN" "http://www.w3.org/Graphics/SVG/1.1/DTD/svg11.dtd"><svg width="100%" height="100%" viewBox="0 0 256 256" version="1.1" xmlns="http://www.w3.org/2000/svg" xmlns:xlink="http://www.w3.org/1999/xlink" xml:space="preserve" xmlns:serif="http://www.serif.com/" style="fill-rule:evenodd;clip-rule:evenodd;stroke-linejoin:round;stroke-miterlimit:2;"><g id="X-Icon---Rounded" serif:id="X Icon - Rounded"><path d="M231.254,71.06c12.781,-12.781 12.781,-33.533 0,-46.314c-12.781,-12.781 -33.533,-12.781 -46.314,-0l-160.194,160.194c-12.781,12.781 -12.781,33.533 -0,46.314c12.781,12.781 33.533,12.781 46.314,0l160.194,-160.194Z" style="fill:#fff;"/><path d="M24.746,71.06c-12.781,-12.781 -12.781,-33.533 -0,-46.314c12.781,-12.781 33.533,-12.781 46.314,-0l160.194,160.194c12.781,12.781 12.781,33.533 0,46.314c-12.781,12.781 -33.533,12.781 -46.314,0l-160.194,-160.194Z" style="fill:#fff;"/></g></svg>