<?xml version="1.0" encoding="UTF-8" standalone="no"?><!DOCTYPE svg PUBLIC "-//W3C//DTD SVG 1.1//EN" "http://www.w3.org/Graphics/SVG/1.1/DTD/svg11.dtd"><svg width="100%" height="100%" viewBox="0 0 256 256" version="1.1" xmlns="http://www.w3.org/2000/svg" xmlns:xlink="http://www.w3.org/1999/xlink" xml:space="preserve" xmlns:serif="http://www.serif.com/" style="fill-rule:evenodd;clip-rule:evenodd;stroke-linejoin:round;stroke-miterlimit:2;"><g id="X-Icon" serif:id="X Icon"><path d="M232.323,80.647c4.119,-4.106 6.267,-9.789 5.896,-15.593c-0.372,-5.804 -3.227,-11.166 -7.835,-14.715c-11.651,-8.971 -26.53,-20.428 -37.264,-28.694c-8.042,-6.192 -19.43,-5.455 -26.607,1.722c-31.262,31.262 -112.452,112.452 -145.172,145.172c-7.765,7.765 -7.904,20.311 -0.313,28.246c9.572,10.006 22.338,23.351 32.04,33.493c3.753,3.924 8.928,6.171 14.358,6.235c5.43,0.064 10.656,-2.061 14.501,-5.895c33.44,-33.345 115.375,-115.049 150.396,-149.971Z" style="fill:#fff;"/><path d="M23.677,80.647c-4.119,-4.106 -6.267,-9.789 -5.896,-15.593c0.372,-5.804 3.227,-11.166 7.835,-14.715c11.651,-8.971 26.53,-20.428 37.264,-28.694c8.042,-6.192 19.43,-5.455 26.607,1.722c31.262,31.262 112.452,112.452 145.172,145.172c7.765,7.765 7.904,20.311 0.313,28.246c-9.572,10.006 -22.338,23.351 -32.04,33.493c-3.753,3.924 -8.928,6.171 -14.358,6.235c-5.43,0.064 -10.656,-2.061 -14.501,-5.895c-33.44,-33.345 -115.375,-115.049 -150.396,-149.971Z" style="fill:#fff;"/></g></svg>