<?xml version="1.0" encoding="UTF-8" standalone="no"?><!DOCTYPE svg PUBLIC "-//W3C//DTD SVG 1.1//EN" "http://www.w3.org/Graphics/SVG/1.1/DTD/svg11.dtd"><svg width="100%" height="100%" viewBox="0 0 256 256" version="1.1" xmlns="http://www.w3.org/2000/svg" xmlns:xlink="http://www.w3.org/1999/xlink" xml:space="preserve" xmlns:serif="http://www.serif.com/" style="fill-rule:evenodd;clip-rule:evenodd;stroke-linejoin:round;stroke-miterlimit:2;"><g id="Youtube"><g id="Youtube---White" serif:id="Youtube - White"><path d="M107.148,213.085c-46.259,-0.852 -62.059,-1.617 -71.77,-3.619c-6.571,-1.329 -12.281,-4.281 -16.467,-8.562c-3.236,-3.24 -5.809,-8.183 -7.805,-15.043c-1.713,-5.714 -2.38,-10.468 -3.331,-22.082c-1.455,-26.209 -1.802,-47.638 0,-71.581c1.487,-13.222 2.208,-28.918 12.087,-38.075c4.664,-4.286 10.09,-7.044 16.183,-8.184c9.517,-1.807 50.067,-3.236 92.045,-3.236c41.883,0 82.523,1.429 92.05,3.236c7.611,1.429 14.75,5.71 18.941,11.23c9.013,14.178 9.17,31.807 10.085,45.597c0.378,6.571 0.378,43.88 0,50.45c-1.424,21.794 -2.568,29.505 -5.804,37.499c-2.001,5.048 -3.709,7.711 -6.665,10.663c-4.636,4.541 -10.548,7.564 -16.945,8.661c-40.031,3.01 -74.023,3.663 -112.604,3.046Zm61.303,-87.57c-22.271,-11.902 -43.597,-22.938 -65.395,-34.362l0,68.346c22.938,-12.47 47.121,-23.894 65.489,-34.079l-0.094,0.095Z" style="fill:#fff;fill-rule:nonzero;"/></g></g></svg>