<?xml version="1.0" encoding="UTF-8" standalone="no"?><!DOCTYPE svg PUBLIC "-//W3C//DTD SVG 1.1//EN" "http://www.w3.org/Graphics/SVG/1.1/DTD/svg11.dtd"><svg width="100%" height="100%" viewBox="0 0 256 256" version="1.1" xmlns="http://www.w3.org/2000/svg" xmlns:xlink="http://www.w3.org/1999/xlink" xml:space="preserve" xmlns:serif="http://www.serif.com/" style="fill-rule:evenodd;clip-rule:evenodd;stroke-linejoin:round;stroke-miterlimit:2;"><g id="Zzz"><g transform="matrix(0.992756,-0.120147,0.120147,0.992756,-51.9193,-508.425)"><text x="-11.166px" y="629.881px" style="font-family:'LilitaOne', 'Lilita One';font-size:129.186px;fill:#fff;">z</text></g><path d="M190.781,157.548c-0.629,-0.333 0.08,-2.432 2.125,-6.296c5.566,-10.516 9.203,-15.322 10.911,-14.418l43.005,22.764c0.629,0.333 0.976,3.047 1.04,8.144c0.064,5.096 -0.035,7.891 -0.297,8.386c-0.262,0.494 -0.461,0.762 -0.599,0.805l-43.565,19.05l24.314,10.799c1.438,0.761 0.468,4.332 -2.91,10.714c-1.284,2.426 -2.984,5.094 -5.098,8.001c-2.114,2.908 -3.711,4.077 -4.789,3.506l-43.141,-22.835c-1.348,-0.714 -1.776,-3.817 -1.285,-9.31c0.491,-5.493 0.986,-8.711 1.486,-9.655c0.499,-0.943 0.887,-1.457 1.162,-1.542l41.662,-16.434l-24.021,-11.679Z" style="fill:#fff;fill-rule:nonzero;"/><path d="M93.222,68.656c-1.11,-0.163 -1.164,-3.652 -0.164,-10.467c2.72,-18.543 5.586,-27.594 8.598,-27.152l75.837,11.127c1.11,0.163 3.055,4.01 5.835,11.542c2.781,7.531 4.107,11.733 3.979,12.605c-0.128,0.872 -0.282,1.375 -0.464,1.51l-54.632,51.241l41.785,3.216c2.535,0.372 2.978,6.185 1.327,17.437c-0.628,4.28 -1.745,9.135 -3.352,14.566c-1.606,5.431 -3.36,8.006 -5.262,7.727l-76.075,-11.162c-2.378,-0.349 -4.649,-4.729 -6.815,-13.142c-2.165,-8.413 -3.126,-13.452 -2.882,-15.116c0.244,-1.664 0.548,-2.631 0.912,-2.902l53.186,-46.352l-41.813,-4.678Z" style="fill:#fff;fill-rule:nonzero;"/></g></svg>