<svg t="1659665538556" class="icon" viewBox="0 0 1040 1024" version="1.1" xmlns="http://www.w3.org/2000/svg" p-id="17339" width="512" height="512"><path d="M995.155045 597.676311C949.782671 304.637232 860.250542 20.487613 562.470485 20.487613 16.832364 20.425192 0 900.704906 0 900.704906l201.912639 0c0 0 146.614196 101.053534 245.172909 101.053534 98.553597 0 72.127737-101.053534 72.127737-101.053534l100.922551 0c0 0-7.234775 101.053534 72.059176 101.053534 115.38596 0 230.708476-84.157725 245.172909-101.053534 14.462387-16.832364 86.590124 0 86.590124 0S1025.044796 790.9502 995.155045 597.676311L995.155045 597.676311zM621.541859 754.727207c-248.694105 0-273.972838-145.338133-273.972838-324.658218S470.251154 105.347327 621.541859 105.347327c176.570461 0 273.972838 145.400554 273.972838 324.720639S882.843096 754.727207 621.541859 754.727207L621.541859 754.727207zM621.541859 754.727207" p-id="17340"></path><path d="M447.849958 354.680998c0 39.83117 32.295544 72.127737 72.127737 72.127737s72.127737-32.295544 72.127737-72.127737-32.295544-72.126714-72.127737-72.126714S447.849958 314.849828 447.849958 354.680998L447.849958 354.680998 447.849958 354.680998zM447.849958 354.680998" p-id="17341"></path><path d="M620.962667 636.075877c0 19.936051 19.370163 36.097126 43.263339 36.097126 23.895223 0 43.264363-16.161075 43.264363-36.097126 0-19.930935-19.370163-36.09201-43.264363-36.09201C640.33283 599.98489 620.962667 616.144942 620.962667 636.075877L620.962667 636.075877zM620.962667 636.075877" p-id="17342"></path><path d="M707.491393 354.680998c0 39.83117 29.05064 72.127737 64.891939 72.127737 35.837206 0 64.892963-32.295544 64.892963-72.127737s-29.055756-72.126714-64.892963-72.126714C736.542033 282.555308 707.491393 314.849828 707.491393 354.680998L707.491393 354.680998zM707.491393 354.680998" p-id="17343"></path></svg>
