<?xml version="1.0" standalone="no"?><!DOCTYPE svg PUBLIC "-//W3C//DTD SVG 1.1//EN" "http://www.w3.org/Graphics/SVG/1.1/DTD/svg11.dtd"><svg t="1658456149798" class="icon" viewBox="0 0 1024 1024" version="1.1" xmlns="http://www.w3.org/2000/svg" p-id="8839" data-darkreader-inline-fill="" width="512" height="512" xmlns:xlink="http://www.w3.org/1999/xlink"><defs><style type="text/css"></style></defs><path d="M247.808 561.152c-8.704 0-16.896 1.536-24.576 4.096-28.16 10.24-48.128 36.864-48.128 68.096v0.512c0 31.232 19.968 57.856 48.128 68.096 7.68 2.56 15.872 4.096 24.576 4.096 39.936 0 72.192-32.256 72.704-72.192v-0.512c-0.512-39.936-32.768-72.192-72.704-72.192z m24.064 72.704c0 13.312-10.752 24.064-24.064 24.064s-24.064-10.752-24.064-24.064v-0.512c0-13.312 10.752-24.064 24.064-24.064s24.064 10.752 24.064 24.576c0-0.512 0 0 0 0z" fill="#2F2960" p-id="8840" data-darkreader-inline-fill="" style="--darkreader-inline-fill:#9e98d3;"></path><path d="M877.056 555.52c-25.6-40.96-71.68-68.096-123.904-68.096-7.68 0-15.36 0.512-23.04 2.048-70.144 10.752-123.392 71.68-123.392 144.384v0.512h73.728v-0.512c0-39.936 32.256-72.704 72.704-72.704 39.936 0 72.704 32.256 72.704 72.704v0.512h73.728v-0.512c0.512-29.184-8.192-55.808-22.528-78.336z" fill="#BB32FF" p-id="8841" data-darkreader-inline-fill="" style="--darkreader-inline-fill:#7400ae;"></path><path d="M753.664 561.152c-39.936 0-72.704 32.256-72.704 72.704v0.512c0 39.936 32.768 72.192 72.704 72.192 39.936 0 72.192-32.256 72.704-72.192v-0.512c-0.512-40.448-32.768-72.704-72.704-72.704z m24.064 72.704c0 13.312-10.752 24.064-24.064 24.064s-24.064-10.752-24.064-24.064v-0.512c0-13.312 10.752-24.064 24.064-24.064s24.064 10.752 24.064 24.576c0-0.512 0 0 0 0z" fill="#2F2960" p-id="8842" data-darkreader-inline-fill="" style="--darkreader-inline-fill:#9e98d3;"></path><path d="M944.64 480.256c-16.896-5.632-135.68-31.744-135.68-31.744s-108.032-61.44-181.76-98.304c-17.92 8.192-35.328 17.92-51.2 28.672-27.136 18.944-51.712 42.496-71.168 69.12-18.944 25.6-34.304 54.784-45.056 86.016-10.24 31.232-16.384 64.512-16.384 99.328v0.512h163.328v-0.512c0-73.216 53.248-133.632 123.392-144.384 7.68-1.024 15.36-2.048 23.04-2.048 52.224 0 97.792 27.136 123.904 68.096 14.336 22.528 22.528 49.152 22.528 77.824v0.512h7.68c20.992 0 36.352-4.608 47.104-11.264 10.24-6.144 16.384-14.848 18.944-23.04 13.312-41.472 4.096-108.032-28.672-118.784z" fill="#FFB634" p-id="8843" data-darkreader-inline-fill="" style="--darkreader-inline-fill:#ad6f00;"></path><path d="M562.688 323.584H355.328c-15.872 0-31.232 4.608-46.08 12.288-16.896 25.088-31.744 51.712-44.032 79.872-20.992 46.592-35.328 97.28-41.984 150.016 7.68-2.56 15.872-4.096 24.576-4.096 39.936 0 72.704 32.256 72.704 72.704v0.512h123.392v-0.512c0-34.816 5.632-68.096 16.384-99.328 10.24-31.232 25.6-59.904 45.056-86.016 19.968-26.624 44.032-50.176 71.168-69.12 15.872-11.264 33.28-20.992 51.2-28.672-31.744-16.384-56.832-27.648-65.024-27.648z" fill="#3378FE" p-id="8844" data-darkreader-inline-fill="" style="--darkreader-inline-fill:#013bad;"></path><path d="M177.152 442.88c4.096 51.2-14.336 120.832-126.976 156.16V496.128c0-14.336 9.728-27.136 22.528-31.232l91.648-12.288c4.096-3.072 8.704-6.144 12.8-9.728z" fill="#5F4DFE" p-id="8845" data-darkreader-inline-fill="" style="--darkreader-inline-fill:#6150fe;"></path></svg>