<svg t="1659665617376" class="icon" viewBox="0 0 1024 1024" version="1.1" xmlns="http://www.w3.org/2000/svg" p-id="3354" width="512" height="512"><path d="M891.306667 256a135.68 135.68 0 0 0-78.506667-23.466667h-104.106667V183.04c0-59.733333-26.88-85.333333-85.333333-85.333333H402.773333a85.333333 85.333333 0 0 0-65.28 24.32 89.173333 89.173333 0 0 0-21.76 61.013333v49.92H213.333333c-57.173333 0-114.773333 31.573333-114.773333 92.16v437.76A107.946667 107.946667 0 0 0 128 838.826667a105.386667 105.386667 0 0 0 71.68 31.146666 98.133333 98.133333 0 0 0 177.493333 0h270.08a98.56 98.56 0 0 0 88.746667 56.32 97.28 97.28 0 0 0 88.32-56.746666 106.666667 106.666667 0 0 0 102.826667-107.093334V325.12A81.493333 81.493333 0 0 0 891.306667 256z m-512-72.96c0-20.906667 7.68-23.04 24.746666-23.04h213.333334c17.066667 0 24.746667 0 24.746666 23.04v49.92H380.16zM407.466667 682.666667c0 12.8-14.506667 23.466667-32 23.466666s-32-10.24-32-23.466666V393.386667c0-13.226667 14.506667-23.893333 32-23.893334s32 10.666667 32 23.893334zM682.666667 682.666667c0 12.8-14.506667 23.466667-32 23.466666s-32-10.24-32-23.466666V393.386667c0-13.226667 14.08-23.893333 32-23.893334s32 10.666667 32 23.893334z" p-id="3355"></path></svg>
