<?xml version="1.0" standalone="no"?><!DOCTYPE svg PUBLIC "-//W3C//DTD SVG 1.1//EN" "http://www.w3.org/Graphics/SVG/1.1/DTD/svg11.dtd"><svg t="1658458216095" class="icon" viewBox="0 0 1024 1024" version="1.1" xmlns="http://www.w3.org/2000/svg" p-id="40469" data-darkreader-inline-fill="" xmlns:xlink="http://www.w3.org/1999/xlink" width="512" height="512"><defs><style type="text/css"></style></defs><path d="M960 160v704c0 35.3-28.7 64-64 64H128c-35.3 0-64-28.7-64-64V160c0-35.3 28.7-64 64-64h768c35.3 0 64 28.7 64 64z" fill="#3D5AFE" p-id="40470" data-darkreader-inline-fill="" style="--darkreader-inline-fill:#011aa7;"></path><path d="M704 512c0-188.6-116.5-349.9-281.4-416H128c-35.3 0-64 28.7-64 64v704c0 35.3 28.7 64 64 64h294.6C587.5 861.9 704 700.6 704 512z" fill="#536DFE" p-id="40471" data-darkreader-inline-fill="" style="--darkreader-inline-fill:#01189a;"></path><path d="M101.7 922.3c8 3.6 16.9 5.7 26.3 5.7h768c9.4 0 18.3-2 26.3-5.7L512 512 101.7 922.3z" fill="#8C9EFF" p-id="40472" data-darkreader-inline-fill="" style="--darkreader-inline-fill:#001378;"></path><path d="M702 447.8c0-106-86-192-192-192s-192 86-192 192c0 56.9 24.7 107.9 64 143.1l128 128 128-128c39.3-35.2 64-86.3 64-143.1z m-192 64c-35.3 0-64-28.7-64-64s28.7-64 64-64 64 28.7 64 64-28.7 64-64 64z" fill="#FFEA00" p-id="40473" data-darkreader-inline-fill="" style="--darkreader-inline-fill:#998c00;"></path></svg>