<?xml version="1.0" standalone="no"?><!DOCTYPE svg PUBLIC "-//W3C//DTD SVG 1.1//EN" "http://www.w3.org/Graphics/SVG/1.1/DTD/svg11.dtd"><svg t="1659524127771" class="icon" viewBox="0 0 1024 1024" version="1.1" xmlns="http://www.w3.org/2000/svg" p-id="9191" xmlns:xlink="http://www.w3.org/1999/xlink" width="512" height="512"><defs><style type="text/css"></style></defs><path d="M505.64 612.66c-146.2 0-265.14-118.94-265.14-265.14V226.08c0-12.54 10.17-22.72 22.72-22.72h484.84c12.55 0 22.72 10.18 22.72 22.72v121.44c0.01 146.2-118.93 265.14-265.14 265.14zM285.95 248.8v98.72c0 121.14 98.55 219.7 219.7 219.7s219.7-98.55 219.7-219.7V248.8h-439.4z" fill="#040000" p-id="9192"></path><path d="M706.4 506.15c-12.55 0-22.72-10.18-22.72-22.72s10.17-22.72 22.72-22.72c53.52 0 107.85-27.77 129.62-66.13 12.2-27.25 7-51.88-2.01-65.93-6.99-10.9-17-17.16-27.48-17.16H748.2c-12.55 0-22.72-10.18-22.72-22.72s10.17-22.72 22.72-22.72h58.33c26.26 0 50.22 13.88 65.74 38.08 19.87 31.01 21.67 73.23 4.7 110.21-0.24 0.52-0.5 1.04-0.78 1.54-29.48 53.14-99.29 90.27-169.79 90.27z m149.91-101.31h0.15-0.15zM300.3 506.28c-69.55 0-136.42-36.33-166.41-90.42-0.27-0.5-0.53-1.02-0.78-1.54-16.98-36.98-15.18-79.2 4.7-110.21 15.52-24.2 39.48-38.08 65.74-38.08h58.33c12.55 0 22.72 10.18 22.72 22.72s-10.17 22.72-22.72 22.72h-58.33c-10.47 0-20.49 6.26-27.48 17.16-9.02 14.05-14.22 38.7-2.01 65.93 22.11 39.05 73.87 66.26 126.24 66.26 12.55 0 22.72 10.18 22.72 22.72 0 12.56-10.17 22.74-22.72 22.74zM679.58 873.23H331.71c-12.55 0-22.72-10.18-22.72-22.72v-41.29c0-74.8 60.85-135.64 135.65-135.64h122.02c74.8 0 135.65 60.85 135.65 135.64v41.29c-0.01 12.54-10.18 22.72-22.73 22.72z m-325.15-45.45h302.42v-18.57c0-49.74-40.47-90.2-90.2-90.2H444.64c-49.74 0-90.2 40.46-90.2 90.2v18.57z" fill="#040000" p-id="9193"></path><path d="M505.64 719.02c-12.55 0-22.72-10.18-22.72-22.72V589.94c0-12.54 10.17-22.72 22.72-22.72 12.55 0 22.72 10.18 22.72 22.72V696.3c0.01 12.55-10.16 22.72-22.72 22.72z" fill="#040000" p-id="9194"></path></svg>