<svg t="1659665850566" class="icon" viewBox="0 0 1024 1024" version="1.1" xmlns="http://www.w3.org/2000/svg" p-id="11944" width="512" height="512"><path d="M884.789425 332.920392c0-75.865875-47.616484-139.482775-111.086028-155.262156L773.703397 63.224973 246.705821 63.224973l0 114.433262c-63.47159 15.778358-111.085004 79.395258-111.085004 155.262156 0 83.500762 57.676607 152.172795 130.693598 158.541853 39.35431 95.997378 133.717468 163.623591 243.890706 163.623591s204.535373-67.624167 243.890706-163.623591C827.111794 485.093187 884.789425 416.421154 884.789425 332.920392L884.789425 332.920392zM166.370145 332.920392c0-58.432831 33.995255-107.860567 80.335676-123.284861l0 181.952029c0 23.174815 3.003404 45.64662 8.621355 67.059302C204.64282 446.783673 166.370145 394.918421 166.370145 332.920392L166.370145 332.920392zM601.020476 469.356784l-90.816378-47.746444-90.817402 47.746444 17.34504-101.126188-73.472362-71.618131 101.536534-14.753005 45.409213-92.007507 45.409213 92.007507 101.536534 14.753005-73.472362 71.618131L601.020476 469.356784 601.020476 469.356784zM765.081019 458.645838c5.618974-21.412682 8.623401-43.88551 8.623401-67.059302L773.70442 209.633484c46.339398 15.425318 80.335676 64.853054 80.335676 123.284861C854.040097 394.920468 815.765375 446.783673 765.081019 458.645838L765.081019 458.645838zM633.661897 819.694871l-71.741951 0L561.919946 703.131085 458.490296 703.131085l0 116.563786-71.743998 0c-14.687514 0-26.595728 11.907191-26.595728 26.595728l-13.299911 84.714404c0 14.688537 11.907191 26.595728 26.595728 26.595728l273.513374 0c14.688537 0 26.596751-11.907191 26.596751-26.595728l-13.299911-84.71338C660.258649 831.602062 648.350434 819.694871 633.661897 819.694871L633.661897 819.694871z" p-id="11945"></path></svg>
