<svg t="1659665731523" class="icon" viewBox="0 0 1024 1024" version="1.1" xmlns="http://www.w3.org/2000/svg" p-id="6437" width="512" height="512"><path d="M672 53.333333a53.333333 53.333333 0 0 1 0 106.666667H576v26.496c187.562667 30.592 330.666667 193.322667 330.666667 389.504a394.666667 394.666667 0 0 1-789.333334 0c0-196.181333 143.146667-358.912 330.666667-389.504V160H352a53.333333 53.333333 0 1 1 0-106.666667h320z m-44.970667 339.626667l-4.010666 3.541333-94.293334 94.165334a106.666667 106.666667 0 1 0 63.573334 67.370666l-2.645334-7.509333 93.696-93.696a42.666667 42.666667 0 0 0-56.32-63.872z" p-id="6438"></path></svg>
