<?xml version="1.0" standalone="no"?><!DOCTYPE svg PUBLIC "-//W3C//DTD SVG 1.1//EN" "http://www.w3.org/Graphics/SVG/1.1/DTD/svg11.dtd"><svg t="1658456395192" class="icon" viewBox="0 0 1024 1024" version="1.1" xmlns="http://www.w3.org/2000/svg" p-id="16296" data-darkreader-inline-fill="" xmlns:xlink="http://www.w3.org/1999/xlink" width="512" height="512"><defs><style type="text/css"></style></defs><path d="M181.8 839.7c0-166.4 147.8-301.3 330.1-301.3S842 673.3 842 839.7" fill="#45B2B7" p-id="16297" data-darkreader-inline-fill="" style="--darkreader-inline-fill:#378e92;"></path><path d="M399.7 545.6l60.7 97.5 51.4-68.2 42.2 63.6 63.2-92.9z" fill="#FFFFFF" p-id="16298" data-darkreader-inline-fill="" style="--darkreader-inline-fill:#e8e6e3;"></path><path d="M512 315.8m-251.5 0a251.5 251.5 0 1 0 503 0 251.5 251.5 0 1 0-503 0Z" fill="#F0CDAF" p-id="16299" data-darkreader-inline-fill="" style="--darkreader-inline-fill:#5b3311;"></path><path d="M262.3 285S289 95 478 65c0 0 237.3-31.9 283.7 220 0 0-238.5 15.9-313.6-157 0 0-32.4 97.1-185.8 157z" fill="#AB6026" p-id="16300" data-darkreader-inline-fill="" style="--darkreader-inline-fill:#894d1e;"></path></svg>