<?xml version="1.0" standalone="no"?><!DOCTYPE svg PUBLIC "-//W3C//DTD SVG 1.1//EN" "http://www.w3.org/Graphics/SVG/1.1/DTD/svg11.dtd"><svg t="1658629547116" class="icon" viewBox="0 0 1024 1024" version="1.1" xmlns="http://www.w3.org/2000/svg" p-id="1473" xmlns:xlink="http://www.w3.org/1999/xlink" width="200" height="200"><defs><style type="text/css"></style></defs><path d="M409.6 128c113.152 0 204.8 93.056 204.8 208S522.752 544 409.6 544c-113.152 0-204.8-93.056-204.8-208S296.448 128 409.6 128z m0 475.456c136.704 0 409.6 68.224 409.6 203.712V960H0v-152.832C0 671.68 272.896 603.52 409.6 603.52zM887.488 960v-168c0-115.456-133.12-197.248-276.288-214.464 24.832-3.008 74.368 0 94.592 0 136.704 0 318.208 78.976 318.208 214.464V960h-136.512zM576 532.16a207.808 207.808 0 0 0 136.512-196.16c0-90.624-56.96-167.68-136.512-196.16 21.376-7.68 44.352-11.84 68.288-11.84 113.152 0 204.8 93.056 204.8 208s-91.648 208-204.8 208c-23.936 0-46.912-4.16-68.288-11.84z" fill="#cdcdcd" p-id="1474"></path></svg>