<svg t="1659666228612" class="icon" viewBox="0 0 1024 1024" version="1.1" xmlns="http://www.w3.org/2000/svg" p-id="22719" width="512" height="512"><path d="M426.666667 106.666667h170.666666a85.333333 85.333333 0 0 1 85.333334 85.333333v85.333333h170.666666a85.333333 85.333333 0 0 1 85.333334 85.333334v469.333333a85.333333 85.333333 0 0 1-85.333334 85.333333H170.666667a85.333333 85.333333 0 0 1-85.333334-85.333333v-469.333333a85.333333 85.333333 0 0 1 85.333334-85.333334h170.666666v-85.333333a85.333333 85.333333 0 0 1 85.333334-85.333333m170.666666 170.666666v-85.333333h-170.666666v85.333333h170.666666m-85.333333 128l-213.333333 213.333334h128v170.666666h170.666666v-170.666666h128l-213.333333-213.333334z" p-id="22720"></path></svg>
