<?xml version="1.0" encoding="UTF-8" standalone="no"?><!DOCTYPE svg PUBLIC "-//W3C//DTD SVG 1.1//EN" "http://www.w3.org/Graphics/SVG/1.1/DTD/svg11.dtd"><svg width="100%" height="100%" viewBox="0 0 256 256" version="1.1" xmlns="http://www.w3.org/2000/svg" xmlns:xlink="http://www.w3.org/1999/xlink" xml:space="preserve" xmlns:serif="http://www.serif.com/" style="fill-rule:evenodd;clip-rule:evenodd;stroke-linejoin:round;stroke-miterlimit:2;"><g id="Apple"><path id="Path" d="M130.439,79.96c-11.443,4.35 -87.991,-42.528 -112.119,17.734c-24.129,60.263 34.988,140.335 64.263,149.102c29.275,8.768 40.156,-2.824 48.539,-1.97c8.384,0.854 24.432,7.49 43.755,4.598c30.36,-4.545 92.361,-106.516 58.733,-153.967c-26.273,-37.074 -73.081,-26.935 -103.171,-15.497Z" style="fill:#d63657;"/><path id="Path1" serif:id="Path" d="M129.05,244.52c0.512,-0 1.258,0.115 2.207,0.318c8.421,0.911 24.4,7.462 43.62,4.586c25.924,-3.881 74.92,-78.798 67.748,-130.15c-0.96,-5.339 -2.438,-10.655 -4.506,-15.908l-0.121,-0.306c-1.229,-2.661 -2.686,-5.202 -4.388,-7.603c-26.273,-37.074 -73.081,-26.935 -103.171,-15.497c-4.552,1.73 -19.412,-4.65 -37.173,-9.164l-1.105,-0.194c0,0 -1.303,7.864 24.761,13.106c26.064,5.242 78.191,-20.969 96.436,17.037c18.245,38.007 -12.688,125.233 -38.752,131.786c-26.064,6.553 -31.221,-0 -45.556,-0c-14.335,-0 -43.002,18.411 -77.914,-10.704l1.235,1.608c10.742,12.297 21.73,20.821 30.212,23.361c5.075,1.52 9.596,2.426 13.648,2.893c20.48,0.624 27.931,-5.169 32.819,-5.169Z" style="fill:#ae3640;"/><path id="Ellipse" d="M33.29,145.798c-0,-34.316 11.956,-73.885 64.084,-42.432c32.829,19.809 82.101,-5.483 82.101,28.833c0,34.315 -38.579,75.731 -76.864,75.731c-38.285,0 -69.321,-27.817 -69.321,-62.132Z" style="fill:#ed5c89;"/><path id="Ellipse1" serif:id="Ellipse" d="M37.434,88.435c11.073,-9.87 25.515,-11.131 32.26,-2.818c6.744,8.313 3.236,23.053 -7.836,32.923c-11.073,9.87 -25.516,11.131 -32.26,2.819c-6.745,-8.313 -3.236,-23.054 7.836,-32.924Z" style="fill:#fff;"/><path id="Ellipse2" serif:id="Ellipse" d="M114.315,85.674c0,-2.534 6.71,-4.587 14.987,-4.587c8.277,0 14.987,2.053 14.987,4.587c-0,2.533 -6.71,4.587 -14.987,4.587c-8.277,-0 -14.987,-2.054 -14.987,-4.587Z" style="fill:#ae3640;"/><path id="Path2" serif:id="Path" d="M121.652,60.354c-0.998,2.304 -46.193,9.072 -67.608,-13.767c-21.09,-22.49 -21.337,-33.314 -20.547,-34.844c0.789,-1.53 25.26,-13.49 51.873,1.807c27.033,15.538 38.541,41.585 36.282,46.804Z" style="fill:#5da24b;"/><path id="Path3" serif:id="Path" d="M41.507,22.436c-0.239,6.398 15.559,21.983 25.325,27.345c20.713,11.372 45.737,11.654 44.633,6.525c-1.102,-5.119 -69.573,-44.116 -69.958,-33.87Z" style="fill:#90c566;"/><path id="Path4" serif:id="Path" d="M52.313,13.673c-3.618,1.483 59.626,34.772 61.025,33.817c4.359,-2.977 -35.844,-44.139 -61.025,-33.817Z" style="fill:#90c566;"/><path id="Path5" serif:id="Path" d="M59.415,41c4.195,3.226 7.638,6.359 11.358,1.599c3.734,-4.779 -14.512,-15.888 -17.563,-13.578c-3.054,2.313 -0.089,7.138 6.205,11.979Z" style="fill:#9dd76f;"/><path id="Path6" serif:id="Path" d="M84.132,51.272c4.752,2.832 8.473,-2.76 3.967,-6.166c-4.494,-3.396 -14.045,0.161 -3.967,6.166Z" style="fill:#9dd76f;"/><path id="Path7" serif:id="Path" d="M68.559,18.818c3.114,5.073 9.237,8.009 11.323,6.254c2.086,-1.755 -17.769,-16.754 -11.323,-6.254Z" style="fill:#c6e985;"/><path id="Path8" serif:id="Path" d="M92.008,32.683c4.52,2.177 4.006,-4.224 -0.301,-6.684c-4.295,-2.454 -6.77,3.28 0.301,6.684Z" style="fill:#c6e985;"/><path id="Path9" serif:id="Path" d="M120.742,83.388c-1.059,-6.388 -7.9,-60.454 -5.803,-64.292c2.098,-3.838 19.257,-3.883 23.107,3.884c3.852,7.767 -3.543,55.883 -4.602,60.674c-1.058,4.79 -11.644,6.121 -12.702,-0.266Z" style="fill:#503124;"/><path id="Ellipse3" serif:id="Ellipse" d="M119.197,50.233c-0.955,-11.982 0.981,-21.694 4.325,-21.694c3.344,-0 5.321,9.282 6.276,21.263c0.956,11.982 0.528,22.125 -2.816,22.125c-3.344,0 -6.83,-9.713 -7.785,-21.694Z" style="fill:#78422a;"/></g></svg>