<?xml version="1.0" encoding="UTF-8" standalone="no"?><!DOCTYPE svg PUBLIC "-//W3C//DTD SVG 1.1//EN" "http://www.w3.org/Graphics/SVG/1.1/DTD/svg11.dtd"><svg width="100%" height="100%" viewBox="0 0 256 256" version="1.1" xmlns="http://www.w3.org/2000/svg" xmlns:xlink="http://www.w3.org/1999/xlink" xml:space="preserve" xmlns:serif="http://www.serif.com/" style="fill-rule:evenodd;clip-rule:evenodd;stroke-linejoin:round;stroke-miterlimit:2;"><g id="Arrow---Left" serif:id="Arrow - Left"><g><path id="Path" d="M106.654,58.912c25.896,10.162 20.336,126.345 4.566,137.809c-15.769,11.464 -93.111,-38.922 -93.111,-67.526c-0,-28.604 62.648,-80.445 88.545,-70.283Z" style="fill:none;stroke:#07a;stroke-width:15.88px;"/><path id="Path1" serif:id="Path" d="M78.989,155.266c0,-0 131.793,22.715 147.008,15.008c15.215,-7.707 17.457,-73.933 -2.871,-86.026c-20.327,-12.093 -139.917,19.131 -139.917,19.131l-4.22,51.887Z" style="fill:none;stroke:#07a;stroke-width:15.88px;"/></g><g><path id="Path2" serif:id="Path" d="M106.654,58.912c25.896,10.162 20.336,126.345 4.566,137.809c-15.769,11.464 -93.111,-38.922 -93.111,-67.526c-0,-28.604 62.648,-80.445 88.545,-70.283Z" style="fill:#0097e3;"/><path id="Path3" serif:id="Path" d="M78.989,155.266c0,-0 131.793,22.715 147.008,15.008c15.215,-7.707 17.457,-73.933 -2.871,-86.026c-20.327,-12.093 -139.917,19.131 -139.917,19.131l-4.22,51.887Z" style="fill:#0097e3;"/><path id="Path4" serif:id="Path" d="M102.755,60.647c18.143,6.757 20.932,106.089 3.795,115.521c-17.138,9.432 -77.36,-32.239 -77.36,-56.605c-0,-24.365 55.423,-65.672 73.565,-58.916Z" style="fill:#00c8ff;"/><path id="Path5" serif:id="Path" d="M88.192,143.118c0,0 117.62,15.704 130.957,12.268c13.337,-3.436 9.768,-63.975 -2.557,-70.317c-12.326,-6.342 -124.641,15.638 -124.641,15.638l-3.759,42.411Z" style="fill:#00c8ff;"/><path d="M100.907,87.128c-1.263,-6.664 -0.297,-14.881 2.732,-15.296c3.03,-0.414 6.983,7.131 8.246,13.795c1.263,6.665 -0.639,9.941 -3.668,10.355c-3.03,0.414 -6.047,-2.19 -7.31,-8.854Z" style="fill:#fff;"/><path d="M208.373,113.952c-0.688,-10.018 1.779,-21.92 5.819,-21.989c4.039,-0.069 8.132,11.722 8.819,21.739c0.688,10.018 -2.289,14.493 -6.328,14.562c-4.04,0.069 -7.623,-4.295 -8.31,-14.312Z" style="fill:#fff;"/></g></g></svg>