<?xml version="1.0" encoding="UTF-8" standalone="no"?><!DOCTYPE svg PUBLIC "-//W3C//DTD SVG 1.1//EN" "http://www.w3.org/Graphics/SVG/1.1/DTD/svg11.dtd"><svg width="100%" height="100%" viewBox="0 0 256 256" version="1.1" xmlns="http://www.w3.org/2000/svg" xmlns:xlink="http://www.w3.org/1999/xlink" xml:space="preserve" xmlns:serif="http://www.serif.com/" style="fill-rule:evenodd;clip-rule:evenodd;stroke-linejoin:round;stroke-miterlimit:2;"><g id="Arrow---Right" serif:id="Arrow - Right"><g><path id="Path" d="M149.346,58.912c-25.896,10.162 -20.336,126.345 -4.566,137.809c15.769,11.464 93.111,-38.922 93.111,-67.526c0,-28.604 -62.648,-80.445 -88.545,-70.283Z" style="fill:none;stroke:#07a;stroke-width:15.88px;"/><path id="Path1" serif:id="Path" d="M177.011,155.266c-0,-0 -131.793,22.715 -147.008,15.008c-15.215,-7.707 -17.457,-73.933 2.871,-86.026c20.327,-12.093 139.917,19.131 139.917,19.131l4.22,51.887Z" style="fill:none;stroke:#07a;stroke-width:15.88px;"/></g><g><path id="Path2" serif:id="Path" d="M149.346,58.912c-25.896,10.162 -20.336,126.345 -4.566,137.809c15.769,11.464 93.111,-38.922 93.111,-67.526c0,-28.604 -62.648,-80.445 -88.545,-70.283Z" style="fill:#0097e3;"/><path id="Path3" serif:id="Path" d="M177.011,155.266c-0,-0 -131.793,22.715 -147.008,15.008c-15.215,-7.707 -17.457,-73.933 2.871,-86.026c20.327,-12.093 139.917,19.131 139.917,19.131l4.22,51.887Z" style="fill:#0097e3;"/><path id="Path4" serif:id="Path" d="M153.245,60.647c-18.143,6.757 -20.932,106.089 -3.795,115.521c17.138,9.432 77.36,-32.239 77.36,-56.605c0,-24.365 -55.423,-65.672 -73.565,-58.916Z" style="fill:#00c8ff;"/><path id="Path5" serif:id="Path" d="M167.808,143.118c-0,0 -117.62,15.704 -130.957,12.268c-13.337,-3.436 -9.768,-63.975 2.557,-70.317c12.326,-6.342 124.641,15.638 124.641,15.638l3.759,42.411Z" style="fill:#00c8ff;"/><path d="M183.616,87.502c5.464,4.019 13.291,6.7 14.974,4.147c1.683,-2.553 -3.412,-9.379 -8.876,-13.398c-5.464,-4.02 -9.241,-3.72 -10.924,-1.167c-1.682,2.553 -0.638,6.399 4.826,10.418Z" style="fill:#fff;"/><path d="M72.831,103.758c9.983,1.08 21.973,-0.917 22.2,-4.951c0.228,-4.034 -11.393,-8.586 -21.376,-9.666c-9.983,-1.08 -14.571,1.718 -14.799,5.752c-0.227,4.034 3.992,7.785 13.975,8.865Z" style="fill:#fff;"/></g></g></svg>