<?xml version="1.0" encoding="UTF-8" standalone="no"?><!DOCTYPE svg PUBLIC "-//W3C//DTD SVG 1.1//EN" "http://www.w3.org/Graphics/SVG/1.1/DTD/svg11.dtd"><svg width="100%" height="100%" viewBox="0 0 256 256" version="1.1" xmlns="http://www.w3.org/2000/svg" xmlns:xlink="http://www.w3.org/1999/xlink" xml:space="preserve" xmlns:serif="http://www.serif.com/" style="fill-rule:evenodd;clip-rule:evenodd;stroke-linejoin:round;stroke-miterlimit:2;"><g id="Arrow---Up" serif:id="Arrow - Up"><g><path id="Path" d="M58.912,106.654c10.162,25.896 126.345,20.336 137.809,4.566c11.464,-15.769 -38.922,-93.111 -67.526,-93.111c-28.604,-0 -80.445,62.648 -70.283,88.545Z" style="fill:none;stroke:#07a;stroke-width:15.88px;"/><path id="Path1" serif:id="Path" d="M155.266,78.989c-0,0 22.715,131.793 15.008,147.008c-7.707,15.215 -73.933,17.457 -86.026,-2.871c-12.093,-20.327 19.131,-139.917 19.131,-139.917l51.887,-4.22Z" style="fill:none;stroke:#07a;stroke-width:15.88px;"/></g><g><path id="Path2" serif:id="Path" d="M58.912,106.654c10.162,25.896 126.345,20.336 137.809,4.566c11.464,-15.769 -38.922,-93.111 -67.526,-93.111c-28.604,-0 -80.445,62.648 -70.283,88.545Z" style="fill:#0097e3;"/><path id="Path3" serif:id="Path" d="M155.266,78.989c-0,0 22.715,131.793 15.008,147.008c-7.707,15.215 -73.933,17.457 -86.026,-2.871c-12.093,-20.327 19.131,-139.917 19.131,-139.917l51.887,-4.22Z" style="fill:#0097e3;"/><path id="Path4" serif:id="Path" d="M69.926,102.755c6.756,18.143 106.088,20.932 115.52,3.795c9.432,-17.138 -32.239,-77.36 -56.605,-77.36c-24.365,-0 -65.672,55.423 -58.915,73.565Z" style="fill:#00c8ff;"/><path id="Path5" serif:id="Path" d="M151.219,88.192c0,0 15.704,117.62 12.268,130.957c-3.436,13.337 -63.975,9.768 -70.317,-2.557c-6.342,-12.326 15.638,-124.641 15.638,-124.641l42.411,-3.759Z" style="fill:#00c8ff;"/><path d="M160.025,51.214c-5.38,-7.024 -14.225,-13.216 -17.285,-10.612c-3.06,2.603 0.817,13.023 6.197,20.047c5.379,7.024 10.237,8.009 13.296,5.405c3.06,-2.604 3.171,-7.816 -2.208,-14.84Z" style="fill:#fff;"/><path d="M159.354,186.352c-0.657,-9.091 -4.373,-19.478 -7.995,-19.028c-3.621,0.45 -5.784,11.566 -5.127,20.658c0.657,9.092 3.886,12.738 7.507,12.288c3.622,-0.45 6.272,-4.826 5.615,-13.918Z" style="fill:#fff;"/></g></g></svg>