<?xml version="1.0" encoding="UTF-8" standalone="no"?><!DOCTYPE svg PUBLIC "-//W3C//DTD SVG 1.1//EN" "http://www.w3.org/Graphics/SVG/1.1/DTD/svg11.dtd"><svg width="100%" height="100%" viewBox="0 0 256 256" version="1.1" xmlns="http://www.w3.org/2000/svg" xmlns:xlink="http://www.w3.org/1999/xlink" xml:space="preserve" xmlns:serif="http://www.serif.com/" style="fill-rule:evenodd;clip-rule:evenodd;stroke-linecap:round;stroke-linejoin:round;stroke-miterlimit:1.5;"><g id="Balloon---Heart" serif:id="Balloon - Heart"><path d="M128.456,176.828c-0,26.748 -12.531,28.437 -9.626,61.741" style="fill:none;stroke:#fff;stroke-width:3.94px;"/><path d="M128.456,176.828l-0,76.817" style="fill:none;stroke:#fff;stroke-width:3.94px;"/><path d="M120.874,177.167c-0.376,0.191 -0.634,0.583 -0.634,1.034c-0,0.64 0.519,1.159 1.159,1.159l13.202,-0c0.64,-0 1.159,-0.519 1.159,-1.159c0,-0.451 -0.258,-0.843 -0.634,-1.034l0.556,-0c0.64,-0 1.159,-0.519 1.159,-1.159c0,-0.64 -0.519,-1.159 -1.159,-1.159l-15.364,-0c-0.64,-0 -1.159,0.519 -1.159,1.159c-0,0.64 0.519,1.159 1.159,1.159l0.556,-0Z" style="fill:#fff;stroke:#c92a2a;stroke-width:5.33px;"/><g id="Heart--Big----Red" serif:id="Heart (Big) - Red"><path id="Ellipse" d="M23.569,64.906c-7.323,-50.895 57.34,-93.188 104.977,-24.684c48.764,-62.819 108.02,-31.543 104.288,21.633c-3.647,51.976 -60.004,110.827 -105.134,110.827c-46.227,-0 -97.517,-61.811 -104.131,-107.776Z" style="fill:none;stroke:#bf232d;stroke-width:5.33px;"/><path id="Ellipse1" serif:id="Ellipse" d="M23.569,64.906c-7.323,-50.895 57.34,-93.188 104.977,-24.684c48.764,-62.819 108.02,-31.543 104.288,21.633c-3.647,51.976 -60.004,110.827 -105.134,110.827c-46.227,-0 -97.517,-61.811 -104.131,-107.776Z" style="fill:#ff2b39;"/><path id="Path" d="M53.695,24.976c33.301,-31.24 73.09,25.166 73.09,25.166c0,-0 44.084,-57.324 80.011,-29.432c46.694,36.252 -10.35,103.452 -68.333,110.474c-57.984,7.022 -119.431,-73.691 -84.768,-106.208Z" style="fill:#ff6183;fill-opacity:0.61;"/><path id="Ellipse2" serif:id="Ellipse" d="M54.015,106.098c2.624,-2.116 8.533,0.723 13.153,6.268c4.56,5.472 6.168,11.557 3.638,13.66c-2.541,2.112 -8.334,-0.545 -12.986,-6.005c-4.714,-5.533 -6.438,-11.799 -3.805,-13.923Z" style="fill:#ff6183;fill-opacity:0.61;"/><path id="Ellipse3" serif:id="Ellipse" d="M108.881,30.371c1.753,-4.146 -5.291,-11.614 -15.733,-16.681c-10.441,-5.066 -20.328,-5.812 -22.081,-1.665c-1.753,4.146 6.918,6.887 17.36,11.953c10.442,5.067 18.701,10.54 20.454,6.393Z" style="fill:#f7f7f7;"/><path id="Ellipse4" serif:id="Ellipse" d="M222.37,52.569c2.142,-0.865 2.966,-4.477 2.08,-7.63c-0.765,-2.724 -2.624,-4.354 -4.306,-3.941c-1.757,0.431 -3.018,3.008 -2.704,6.132c0.369,3.667 2.659,6.357 4.93,5.439Z" style="fill:#f7f7f7;"/><path id="Ellipse5" serif:id="Ellipse" d="M178.404,14.6c2.194,-5.264 14.007,-5.494 25.142,1.158c11.19,6.686 18.729,17.268 12.587,20.339c-4.923,2.462 -7.227,-2.917 -18.426,-9.651c-11.143,-6.702 -21.401,-6.809 -19.303,-11.846Z" style="fill:#fff;"/></g><path d="M123.304,180.579c1.269,-1.918 2.908,-3.075 4.696,-3.075c1.788,0 3.427,1.157 4.696,3.075c2.736,1.546 5.645,4.082 8.062,7.23c4.788,6.234 5.848,12.522 2.367,14.033c-2.268,0.985 -5.906,-0.299 -9.49,-3.035c-1.336,2.919 -3.365,4.783 -5.635,4.783c-2.27,-0 -4.299,-1.864 -5.635,-4.783c-3.584,2.736 -7.222,4.02 -9.49,3.035c-3.481,-1.511 -2.421,-7.799 2.367,-14.033c2.417,-3.148 5.326,-5.684 8.062,-7.23Z" style="fill:none;stroke:#bf232d;stroke-width:5.33px;"/><path d="M123.304,180.579l9.392,0c2.736,1.546 5.645,4.082 8.062,7.23c4.788,6.234 5.848,12.522 2.367,14.033c-2.268,0.985 -5.906,-0.299 -9.49,-3.035c-1.336,2.919 -3.365,4.783 -5.635,4.783c-2.27,-0 -4.299,-1.864 -5.635,-4.783c-3.584,2.736 -7.222,4.02 -9.49,3.035c-3.481,-1.511 -2.421,-7.799 2.367,-14.033c2.417,-3.148 5.326,-5.684 8.062,-7.23Z" style="fill:#ff2b39;"/><path d="M120.874,176.99c-0.376,0.192 -0.634,0.583 -0.634,1.034c-0,0.64 0.519,1.159 1.159,1.159l13.202,0c0.64,0 1.159,-0.519 1.159,-1.159c0,-0.451 -0.258,-0.842 -0.634,-1.034l0.556,0c0.64,0 1.159,-0.519 1.159,-1.159c0,-0.639 -0.519,-1.159 -1.159,-1.159l-15.364,0c-0.64,0 -1.159,0.52 -1.159,1.159c-0,0.64 0.519,1.159 1.159,1.159l0.556,0Z" style="fill:#fff;"/><path d="M132.749,185.503c-2.272,0.669 -2.248,4.39 0.054,8.306c2.302,3.915 6.016,6.551 8.289,5.882c2.273,-0.668 2.249,-4.39 -0.053,-8.306c-2.303,-3.915 -6.017,-6.551 -8.29,-5.882Z" style="fill:#ff6183;"/><ellipse cx="128.576" cy="197.8" rx="1.887" ry="3.362" style="fill:#ff6183;"/></g></svg>