<?xml version="1.0" encoding="UTF-8" standalone="no"?><!DOCTYPE svg PUBLIC "-//W3C//DTD SVG 1.1//EN" "http://www.w3.org/Graphics/SVG/1.1/DTD/svg11.dtd"><svg width="100%" height="100%" viewBox="0 0 256 256" version="1.1" xmlns="http://www.w3.org/2000/svg" xmlns:xlink="http://www.w3.org/1999/xlink" xml:space="preserve" xmlns:serif="http://www.serif.com/" style="fill-rule:evenodd;clip-rule:evenodd;stroke-linecap:round;stroke-linejoin:round;stroke-miterlimit:1.5;"><g id="Balloons"><g><g><path d="M117.143,118.182c-0,17.935 -8.402,19.067 -6.454,41.398" style="fill:none;stroke:#fff;stroke-width:2.64px;"/></g><path d="M117.143,244.014l-0,10.219" style="fill:none;stroke:#fff;stroke-width:2.64px;"/><path d="M117.143,143.505l-0,94.237" style="fill:none;stroke:#fff;stroke-width:2.72px;stroke-linecap:butt;"/><path d="M113.808,117.233c0.818,-1.237 1.876,-1.983 3.029,-1.983c1.154,-0 2.211,0.746 3.029,1.983c1.765,0.997 3.642,2.633 5.201,4.664c3.088,4.021 3.772,8.077 1.526,9.052c-1.462,0.635 -3.809,-0.193 -6.121,-1.958c-0.862,1.883 -2.17,3.085 -3.635,3.085c-1.464,0 -2.773,-1.202 -3.635,-3.085c-2.312,1.765 -4.658,2.593 -6.121,1.958c-2.246,-0.975 -1.562,-5.031 1.526,-9.052c1.56,-2.031 3.436,-3.667 5.201,-4.664Z" style="fill:none;stroke:#1971c2;stroke-width:5.11px;"/><circle cx="116.837" cy="61.81" r="53.877" style="fill:none;stroke:#1971c2;stroke-width:5.11px;"/><path d="M113.808,117.233c0.818,-1.237 1.876,-1.983 3.029,-1.983c1.154,-0 2.211,0.746 3.029,1.983c1.765,0.997 3.642,2.633 5.201,4.664c3.088,4.021 3.772,8.077 1.526,9.052c-1.462,0.635 -3.809,-0.193 -6.121,-1.958c-0.862,1.883 -2.17,3.085 -3.635,3.085c-1.464,0 -2.773,-1.202 -3.635,-3.085c-2.312,1.765 -4.658,2.593 -6.121,1.958c-2.246,-0.975 -1.562,-5.031 1.526,-9.052c1.56,-2.031 3.436,-3.667 5.201,-4.664Z" style="fill:#339af0;"/><circle cx="116.837" cy="61.81" r="53.877" style="fill:#18b1e8;"/><path d="M108.829,19.884c-4.257,8.827 2.292,20.819 14.616,26.763c12.324,5.944 25.786,3.603 30.043,-5.224c4.257,-8.826 -2.292,-20.818 -14.616,-26.762c-12.324,-5.944 -25.786,-3.604 -30.043,5.223Z" style="fill:#41ccfc;"/><path d="M101.226,48.444c-1.504,3.118 0.81,7.355 5.164,9.456c4.355,2.1 9.111,1.273 10.615,-1.846c1.505,-3.119 -0.809,-7.356 -5.164,-9.456c-4.354,-2.1 -9.111,-1.273 -10.615,1.846Z" style="fill:#41ccfc;"/><path d="M125.752,21.868c-2.251,3.813 0.078,9.362 5.197,12.384c5.119,3.021 11.102,2.379 13.353,-1.434c2.251,-3.813 -0.078,-9.362 -5.197,-12.384c-5.119,-3.021 -11.102,-2.379 -13.353,1.434Z" style="fill:#fff;"/><path d="M92.069,73.447c-1.833,1.833 -1.253,5.389 1.294,7.936c2.548,2.547 6.104,3.127 7.937,1.294c1.833,-1.833 1.253,-5.389 -1.294,-7.936c-2.547,-2.548 -6.104,-3.127 -7.937,-1.294Z" style="fill:#fff;"/><path d="M119.938,120.084c-1.064,0.462 -0.74,2.385 0.724,4.291c1.464,1.906 3.516,3.079 4.581,2.617c1.064,-0.462 0.74,-2.385 -0.724,-4.291c-1.464,-1.907 -3.516,-3.079 -4.581,-2.617Z" style="fill:#a5d8ff;"/><path d="M121.416,115.963c0,-0.331 -0.269,-0.6 -0.6,-0.6l-7.958,-0c-0.331,-0 -0.6,0.269 -0.6,0.6c0,0.331 0.269,0.6 0.6,0.6l7.958,0c0.331,0 0.6,-0.269 0.6,-0.6Z" style="fill:#fff;"/><path d="M120.857,117.099c-0,-0.331 -0.269,-0.601 -0.601,-0.601l-6.838,0c-0.331,0 -0.6,0.27 -0.6,0.601c-0,0.331 0.269,0.6 0.6,0.6l6.838,0c0.332,0 0.601,-0.269 0.601,-0.6Z" style="fill:#fff;"/></g><g><path d="M146.978,144.802c-13.077,19.962 -29.835,99.212 -29.835,99.212" style="fill:none;stroke:#fff;stroke-width:2.72px;"/><path d="M144.976,142.05c1.242,-0.62 2.448,-0.73 3.383,-0.19c0.935,0.54 1.443,1.64 1.527,3.025c0.964,1.635 1.72,3.839 2.033,6.215c0.622,4.705 -0.722,8.313 -2.999,8.052c-1.482,-0.17 -2.997,-1.939 -4.045,-4.452c-1.58,1.123 -3.204,1.485 -4.391,0.8c-1.187,-0.685 -1.685,-2.272 -1.503,-4.202c-2.699,0.349 -4.989,-0.079 -5.878,-1.278c-1.364,-1.841 1.089,-4.809 5.474,-6.623c2.215,-0.917 4.501,-1.365 6.399,-1.347Z" style="fill:none;stroke:#d72d6c;stroke-width:5.31px;"/><path d="M198.584,54.868c24.104,13.916 32.375,44.784 18.459,68.888c-13.917,24.104 -44.785,32.375 -68.888,18.458c-24.104,-13.916 -32.375,-44.784 -18.459,-68.888c13.916,-24.103 44.784,-32.374 68.888,-18.458Z" style="fill:none;stroke:#d72d6c;stroke-width:5.31px;"/><path d="M144.976,142.05c1.242,-0.62 2.448,-0.73 3.383,-0.19c0.935,0.54 1.443,1.64 1.527,3.025c0.964,1.635 1.72,3.839 2.033,6.215c0.622,4.705 -0.722,8.313 -2.999,8.052c-1.482,-0.17 -2.997,-1.939 -4.045,-4.452c-1.58,1.123 -3.204,1.485 -4.391,0.8c-1.187,-0.685 -1.685,-2.272 -1.503,-4.202c-2.699,0.349 -4.989,-0.079 -5.878,-1.278c-1.364,-1.841 1.089,-4.809 5.474,-6.623c2.215,-0.917 4.501,-1.365 6.399,-1.347Z" style="fill:#ff6fa2;"/><path d="M198.584,54.868c24.104,13.916 32.375,44.784 18.459,68.888c-13.917,24.104 -44.785,32.375 -68.888,18.458c-24.104,-13.916 -32.375,-44.784 -18.459,-68.888c13.916,-24.103 44.784,-32.374 68.888,-18.458Z" style="fill:#ff6fa2;"/><path d="M162.237,59.245c-10.924,10.924 -8.824,30.763 4.687,44.274c13.512,13.512 33.35,15.612 44.275,4.687c10.924,-10.924 8.824,-30.763 -4.687,-44.274c-13.512,-13.511 -33.35,-15.612 -44.275,-4.687Z" style="fill:#ff9ec1;"/><path d="M154.153,109.129c-3.819,2.3 -4.498,8.19 -1.514,13.143c2.984,4.953 8.507,7.107 12.326,4.806c3.82,-2.301 4.498,-8.19 1.515,-13.143c-2.984,-4.954 -8.507,-7.107 -12.327,-4.806Z" style="fill:#ff9ec1;"/><path d="M185.294,64.282c-3.546,3.547 -2.615,10.238 2.079,14.932c4.694,4.694 11.384,5.625 14.931,2.078c3.547,-3.546 2.616,-10.237 -2.078,-14.931c-4.694,-4.694 -11.385,-5.625 -14.932,-2.079Z" style="fill:#fff;"/><path d="M165.545,87.762c-1.157,1.11 -0.844,3.317 0.698,4.924c1.543,1.608 3.734,2.012 4.891,0.902c1.157,-1.11 0.844,-3.316 -0.698,-4.924c-1.543,-1.607 -3.734,-2.011 -4.891,-0.902Z" style="fill:#fff;"/><path d="M148.61,147.23c-1.079,-0.124 -1.716,1.587 -1.421,3.817c0.294,2.23 1.409,4.142 2.489,4.265c1.079,0.124 1.716,-1.586 1.421,-3.817c-0.294,-2.23 -1.41,-4.141 -2.489,-4.265Z" style="fill:#faa2c1;"/><path d="M144.753,141.198c-0.205,-0.011 -0.408,0.09 -0.517,0.28c-0.156,0.268 -0.063,0.612 0.205,0.768l5.543,3.2c0.269,0.155 0.613,0.063 0.768,-0.206c0.109,-0.189 0.096,-0.416 -0.016,-0.588l0.234,0.135c0.268,0.155 0.612,0.063 0.767,-0.206c0.155,-0.268 0.063,-0.612 -0.205,-0.767l-6.451,-3.724c-0.269,-0.156 -0.613,-0.063 -0.768,0.205c-0.155,0.269 -0.063,0.613 0.206,0.768l0.234,0.135Z" style="fill:#fff;"/></g><g><path d="M102.696,171.841l14.447,72.173" style="fill:none;stroke:#fff;stroke-width:2.72px;"/><path d="M99.021,171.262c0.481,-1.44 1.328,-2.457 2.468,-2.762c1.14,-0.306 2.382,0.152 3.519,1.158c2.008,0.518 4.296,1.638 6.375,3.232c4.117,3.156 5.867,6.984 3.906,8.542c-1.278,1.015 -3.816,0.818 -6.568,-0.314c-0.354,2.089 -1.329,3.624 -2.776,4.012c-1.447,0.388 -3.059,-0.454 -4.41,-2.087c-1.817,2.357 -3.917,3.797 -5.531,3.556c-2.477,-0.368 -2.876,-4.558 -0.888,-9.35c1.003,-2.421 2.424,-4.534 3.905,-5.987Z" style="fill:none;stroke:#b18502;stroke-width:5.31px;"/><path d="M73.069,62.436c29.389,-7.874 59.641,9.592 67.516,38.98c7.874,29.389 -9.592,59.641 -38.98,67.516c-29.388,7.874 -59.641,-9.592 -67.516,-38.98c-7.874,-29.388 9.592,-59.641 38.98,-67.516Z" style="fill:none;stroke:#b18502;stroke-width:5.31px;"/><path d="M99.021,171.262c0.481,-1.44 1.328,-2.457 2.468,-2.762c1.14,-0.306 2.382,0.152 3.519,1.158c2.008,0.518 4.296,1.638 6.375,3.232c4.117,3.156 5.867,6.984 3.906,8.542c-1.278,1.015 -3.816,0.818 -6.568,-0.314c-0.354,2.089 -1.329,3.624 -2.776,4.012c-1.447,0.388 -3.059,-0.454 -4.41,-2.087c-1.817,2.357 -3.917,3.797 -5.531,3.556c-2.477,-0.368 -2.876,-4.558 -0.888,-9.35c1.003,-2.421 2.424,-4.534 3.905,-5.987Z" style="fill:#ffd43b;"/><path d="M73.069,62.436c29.389,-7.874 59.641,9.592 67.516,38.98c7.874,29.389 -9.592,59.641 -38.98,67.516c-29.388,7.874 -59.641,-9.592 -67.516,-38.98c-7.874,-29.388 9.592,-59.641 38.98,-67.516Z" style="fill:#ffd43b;"/><path d="M58.973,78.769c-9.188,15.914 -0.818,37.974 18.679,49.231c19.498,11.257 42.787,7.476 51.976,-8.439c9.188,-15.914 0.818,-37.974 -18.68,-49.231c-19.498,-11.257 -42.787,-7.476 -51.975,8.439Z" style="fill:#fffb89;"/><path d="M87.7,78.106c-2.553,4.421 0.477,10.956 6.761,14.585c6.285,3.628 13.459,2.984 16.011,-1.437c2.553,-4.421 -0.477,-10.956 -6.761,-14.584c-6.285,-3.629 -13.459,-2.985 -16.011,1.436Z" style="fill:#fff;"/><path d="M74.747,109.559c-1.327,2.297 0.188,5.658 3.38,7.501c3.192,1.843 6.861,1.474 8.187,-0.823c1.326,-2.297 -0.189,-5.658 -3.381,-7.501c-3.192,-1.843 -6.86,-1.474 -8.186,0.823Z" style="fill:#fff;"/><path d="M56.917,137.585c-2.373,4.11 0.338,10.125 6.049,13.423c5.712,3.297 12.276,2.638 14.649,-1.473c2.373,-4.11 -0.337,-10.125 -6.049,-13.422c-5.712,-3.298 -12.276,-2.638 -14.649,1.472Z" style="fill:#fffb89;"/><path d="M105.834,172.456c-0.93,0.739 -0.1,2.553 1.851,4.05c1.952,1.496 4.291,2.111 5.221,1.373c0.93,-0.739 0.1,-2.553 -1.852,-4.05c-1.951,-1.496 -4.29,-2.111 -5.22,-1.373Z" style="fill:#fffb89;"/><path d="M98.189,170.775c-0.166,0.15 -0.245,0.386 -0.183,0.617c0.088,0.327 0.425,0.522 0.753,0.434l6.758,-1.811c0.327,-0.088 0.522,-0.425 0.434,-0.752c-0.062,-0.231 -0.248,-0.396 -0.467,-0.442l0.285,-0.077c0.328,-0.087 0.522,-0.425 0.435,-0.752c-0.088,-0.327 -0.425,-0.522 -0.753,-0.434l-7.864,2.107c-0.328,0.088 -0.523,0.425 -0.435,0.752c0.088,0.328 0.425,0.522 0.753,0.435l0.284,-0.077Z" style="fill:#fff;"/></g></g></svg>