<?xml version="1.0" encoding="UTF-8" standalone="no"?><!DOCTYPE svg PUBLIC "-//W3C//DTD SVG 1.1//EN" "http://www.w3.org/Graphics/SVG/1.1/DTD/svg11.dtd"><svg width="100%" height="100%" viewBox="0 0 256 256" version="1.1" xmlns="http://www.w3.org/2000/svg" xmlns:xlink="http://www.w3.org/1999/xlink" xml:space="preserve" xmlns:serif="http://www.serif.com/" style="fill-rule:evenodd;clip-rule:evenodd;stroke-linecap:round;stroke-linejoin:round;stroke-miterlimit:1.5;"><g id="Balloon---Pink---Bunny" serif:id="Balloon - Pink - Bunny"><path d="M128.456,176.828c-0,26.748 -12.531,28.437 -9.626,61.741" style="fill:none;stroke:#fff;stroke-width:3.94px;"/><path d="M128.456,176.828l-0,76.817" style="fill:none;stroke:#fff;stroke-width:3.94px;"/><path d="M131.83,67.861l0.4,-29.074c0,-29.869 10.6,-33.822 23.656,-33.822c13.056,0 23.655,6.79 23.655,33.822l-1.342,47.445c11.503,10.394 18.549,24.355 18.549,39.696c-0,32.099 -30.851,58.16 -68.85,58.16c-37.999,-0 -68.849,-26.061 -68.849,-58.16c-0,-13.434 5.403,-25.81 14.471,-35.659l0.708,-51.482c0,-29.869 10.6,-33.822 23.656,-33.822c13.056,0 23.655,6.79 23.655,33.822l-0.828,29.294c2.36,-0.207 4.759,-0.314 7.187,-0.314c1.319,0 2.629,0.032 3.932,0.094Z" style="fill:none;stroke:#d6336c;stroke-width:5.33px;"/><path d="M124.028,186.064c1.045,-1.581 2.396,-2.535 3.87,-2.535c1.474,0 2.825,0.954 3.871,2.535c2.255,1.274 4.653,3.364 6.646,5.96c3.946,5.138 4.82,10.322 1.951,11.568c-1.869,0.811 -4.868,-0.247 -7.822,-2.503c-1.102,2.407 -2.775,3.943 -4.646,3.943c-1.871,-0 -3.543,-1.536 -4.645,-3.943c-2.954,2.256 -5.953,3.314 -7.822,2.503c-2.87,-1.246 -1.996,-6.43 1.95,-11.568c1.993,-2.596 4.391,-4.686 6.647,-5.96Z" style="fill:none;stroke:#d6336c;stroke-width:5.33px;"/><ellipse cx="127.898" cy="125.928" rx="68.849" ry="58.16" style="fill:#ff659b;"/><g><path d="M97.884,4.965c13.056,0 23.655,6.79 23.655,33.822l-2.099,74.218l-46.233,0l1.021,-74.218c0,-29.869 10.6,-33.822 23.656,-33.822Z" style="fill:#ff659b;"/><path d="M98.758,13c7.131,-0 12.921,5.053 12.921,15.087c-0,12.792 -0.945,21.274 -12.921,21.274c-11.976,-0 -12.921,-8.953 -12.921,-21.274c0,-10.034 5.79,-15.087 12.921,-15.087Z" style="fill:#ff8eb7;"/><path d="M99.476,14.633c-2.465,2.465 -2.098,6.834 0.819,9.751c2.917,2.917 7.286,3.284 9.751,0.819c2.464,-2.465 2.098,-6.834 -0.819,-9.751c-2.917,-2.917 -7.286,-3.284 -9.751,-0.819Z" style="fill:#fff;"/></g><g><path d="M155.886,4.965c13.056,0 23.655,6.79 23.655,33.822l-2.099,74.218l-46.233,0l1.021,-74.218c0,-29.869 10.6,-33.822 23.656,-33.822Z" style="fill:#ff659b;"/><path d="M156.76,13c7.131,-0 12.921,5.053 12.921,15.087c-0,12.792 -0.945,21.274 -12.921,21.274c-11.976,-0 -12.921,-8.953 -12.921,-21.274c0,-10.034 5.79,-15.087 12.921,-15.087Z" style="fill:#ff8eb7;"/><path d="M157.478,14.633c-2.465,2.465 -2.098,6.834 0.819,9.751c2.917,2.917 7.286,3.284 9.751,0.819c2.464,-2.465 2.098,-6.834 -0.819,-9.751c-2.917,-2.917 -7.286,-3.284 -9.751,-0.819Z" style="fill:#fff;"/></g><path d="M100.241,82.015c-18.067,15.262 -15.303,42.379 6.168,60.516c21.471,18.138 53.571,20.472 71.638,5.21c18.067,-15.262 15.303,-42.378 -6.168,-60.516c-21.471,-18.137 -53.571,-20.472 -71.638,-5.21Z" style="fill:#ff8eb7;"/><path d="M153.753,98.928c-5.416,5.416 -4.61,15.016 1.799,21.424c6.408,6.409 16.008,7.215 21.424,1.799c5.416,-5.416 4.61,-15.015 -1.799,-21.424c-6.409,-6.408 -16.008,-7.214 -21.424,-1.799Z" style="fill:#fff;"/><path d="M108.421,129.368c-2.343,2.342 -1.602,6.887 1.653,10.142c3.255,3.255 7.8,3.996 10.142,1.653c2.343,-2.342 1.602,-6.887 -1.653,-10.142c-3.255,-3.255 -7.8,-3.996 -10.142,-1.653Z" style="fill:#fcc2d7;"/><path d="M83.401,145.223c-3.384,3.384 -2.313,9.949 2.389,14.652c4.703,4.703 11.268,5.773 14.652,2.389c3.385,-3.384 2.314,-9.949 -2.389,-14.652c-4.702,-4.703 -11.268,-5.773 -14.652,-2.389Z" style="fill:#ff8eb7;"/><path d="M124.028,186.064c1.045,-1.581 2.396,-2.535 3.87,-2.535c1.474,0 2.825,0.954 3.871,2.535c2.255,1.274 4.653,3.364 6.646,5.96c3.946,5.138 4.82,10.322 1.951,11.568c-1.869,0.811 -4.868,-0.247 -7.822,-2.503c-1.102,2.407 -2.775,3.943 -4.646,3.943c-1.871,-0 -3.543,-1.536 -4.645,-3.943c-2.954,2.256 -5.953,3.314 -7.822,2.503c-2.87,-1.246 -1.996,-6.43 1.95,-11.568c1.993,-2.596 4.391,-4.686 6.647,-5.96Z" style="fill:#ff659b;"/><path d="M131.054,189.849c-1.36,0.59 -0.946,3.047 0.925,5.483c1.871,2.437 4.494,3.935 5.854,3.344c1.361,-0.59 0.946,-3.047 -0.924,-5.483c-1.871,-2.436 -4.494,-3.935 -5.855,-3.344Z" style="fill:#faa2c1;"/><path d="M133.75,184.441c-0,-0.424 -0.344,-0.767 -0.767,-0.767l-10.169,-0c-0.424,-0 -0.768,0.343 -0.768,0.767c0,0.423 0.344,0.767 0.768,0.767l10.169,-0c0.423,-0 0.767,-0.344 0.767,-0.767Z" style="fill:#fff;"/><path d="M133.035,185.892c-0,-0.423 -0.344,-0.767 -0.768,-0.767l-8.738,-0c-0.423,-0 -0.767,0.344 -0.767,0.767c-0,0.424 0.344,0.767 0.767,0.767l8.738,0c0.424,0 0.768,-0.343 0.768,-0.767Z" style="fill:#fff;"/></g></svg>