<?xml version="1.0" encoding="UTF-8" standalone="no"?><!DOCTYPE svg PUBLIC "-//W3C//DTD SVG 1.1//EN" "http://www.w3.org/Graphics/SVG/1.1/DTD/svg11.dtd"><svg width="100%" height="100%" viewBox="0 0 256 256" version="1.1" xmlns="http://www.w3.org/2000/svg" xmlns:xlink="http://www.w3.org/1999/xlink" xml:space="preserve" xmlns:serif="http://www.serif.com/" style="fill-rule:evenodd;clip-rule:evenodd;stroke-linecap:round;stroke-linejoin:round;stroke-miterlimit:1.5;"><g id="Balloon---Green" serif:id="Balloon - Green"><path d="M128.456,176.828c-0,26.748 -12.531,28.437 -9.626,61.741" style="fill:none;stroke:#fff;stroke-width:3.94px;"/><path d="M128.456,176.828l-0,76.817" style="fill:none;stroke:#fff;stroke-width:3.94px;"/><path d="M120.874,177.167c-0.376,0.191 -0.634,0.583 -0.634,1.034c-0,0.64 0.519,1.159 1.159,1.159l13.202,-0c0.64,-0 1.159,-0.519 1.159,-1.159c0,-0.451 -0.258,-0.843 -0.634,-1.034l0.556,-0c0.64,-0 1.159,-0.519 1.159,-1.159c0,-0.64 -0.519,-1.159 -1.159,-1.159l-15.364,-0c-0.64,-0 -1.159,0.519 -1.159,1.159c-0,0.64 0.519,1.159 1.159,1.159l0.556,-0Z" style="fill:none;stroke:#51800b;stroke-width:5.33px;"/><path d="M123.304,180.579c1.269,-1.918 2.908,-3.075 4.696,-3.075c1.788,0 3.427,1.157 4.696,3.075c2.736,1.546 5.645,4.082 8.062,7.23c4.788,6.234 5.848,12.522 2.367,14.033c-2.268,0.985 -5.906,-0.299 -9.49,-3.035c-1.336,2.919 -3.365,4.783 -5.635,4.783c-2.27,-0 -4.299,-1.864 -5.635,-4.783c-3.584,2.736 -7.222,4.02 -9.49,3.035c-3.481,-1.511 -2.421,-7.799 2.367,-14.033c2.417,-3.148 5.326,-5.684 8.062,-7.23Z" style="fill:none;stroke:#51800b;stroke-width:5.33px;"/><circle cx="128" cy="88.62" r="83.522" style="fill:none;stroke:#51800b;stroke-width:5.33px;"/><path d="M123.304,180.579l9.392,0c2.736,1.546 5.645,4.082 8.062,7.23c4.788,6.234 5.848,12.522 2.367,14.033c-2.268,0.985 -5.906,-0.299 -9.49,-3.035c-1.336,2.919 -3.365,4.783 -5.635,4.783c-2.27,-0 -4.299,-1.864 -5.635,-4.783c-3.584,2.736 -7.222,4.02 -9.49,3.035c-3.481,-1.511 -2.421,-7.799 2.367,-14.033c2.417,-3.148 5.326,-5.684 8.062,-7.23Z" style="fill:#5dba42;"/><circle cx="128" cy="88.62" r="83.522" style="fill:#5dba42;"/><path d="M120.874,176.99c-0.376,0.192 -0.634,0.583 -0.634,1.034c-0,0.64 0.519,1.159 1.159,1.159l13.202,0c0.64,0 1.159,-0.519 1.159,-1.159c0,-0.451 -0.258,-0.842 -0.634,-1.034l0.556,0c0.64,0 1.159,-0.519 1.159,-1.159c0,-0.639 -0.519,-1.159 -1.159,-1.159l-15.364,0c-0.64,0 -1.159,0.52 -1.159,1.159c-0,0.64 0.519,1.159 1.159,1.159l0.556,0Z" style="fill:#fff;"/><path d="M91.758,25.699c-22.843,22.843 -20.242,62.535 5.805,88.582c26.047,26.046 65.739,28.647 88.582,5.805c22.843,-22.843 20.241,-62.535 -5.805,-88.582c-26.047,-26.047 -65.739,-28.648 -88.582,-5.805Z" style="fill:#a8eb5a;"/><path d="M71.624,112.007c-4.351,4.351 -2.609,13.158 3.889,19.655c6.497,6.497 15.304,8.24 19.655,3.889c4.351,-4.351 2.609,-13.159 -3.889,-19.656c-6.497,-6.497 -15.304,-8.239 -19.655,-3.888Z" style="fill:#a8eb5a;"/><path d="M132.749,185.503c-2.272,0.669 -2.248,4.39 0.054,8.306c2.302,3.915 6.016,6.551 8.289,5.882c2.273,-0.668 2.249,-4.39 -0.053,-8.306c-2.303,-3.915 -6.017,-6.551 -8.29,-5.882Z" style="fill:#a8eb5a;"/><ellipse cx="128.576" cy="197.8" rx="1.887" ry="3.362" style="fill:#a8eb5a;"/><path d="M141.272,35.762c-6.57,6.57 -5.592,18.215 2.182,25.99c7.775,7.774 19.42,8.752 25.99,2.182c6.57,-6.57 5.592,-18.216 -2.182,-25.99c-7.775,-7.774 -19.42,-8.752 -25.99,-2.182Z" style="fill:#fff;"/><path d="M98.704,92.516c-1.954,1.953 -1.336,5.743 1.379,8.457c2.714,2.715 6.504,3.333 8.457,1.379c1.954,-1.953 1.336,-5.743 -1.379,-8.457c-2.714,-2.715 -6.504,-3.333 -8.457,-1.379Z" style="fill:#fff;"/></g></svg>