<?xml version="1.0" encoding="UTF-8" standalone="no"?><!DOCTYPE svg PUBLIC "-//W3C//DTD SVG 1.1//EN" "http://www.w3.org/Graphics/SVG/1.1/DTD/svg11.dtd"><svg width="100%" height="100%" viewBox="0 0 256 256" version="1.1" xmlns="http://www.w3.org/2000/svg" xmlns:xlink="http://www.w3.org/1999/xlink" xml:space="preserve" xmlns:serif="http://www.serif.com/" style="fill-rule:evenodd;clip-rule:evenodd;stroke-linejoin:round;stroke-miterlimit:2;"><g id="Bolt---Yellow" serif:id="Bolt - Yellow"><path id="Path" d="M229.793,10.796c0,0 0.605,24.501 -0.233,33.557c-2.585,4.342 -82.329,68.316 -80.165,70.727c2.163,2.411 15.523,31.051 15.523,31.051c0,0 7.056,25.681 4.809,28.669c-2.489,3.311 -109.602,73.647 -115.913,75.584c-1.622,-6.044 -4.049,-15.657 -4.329,-27.697c14.339,-19.839 19.745,-39.955 19.745,-39.955c-0,0 -34.398,-34.35 -40.083,-43.051c-0.37,-2.919 -3.43,-26.447 -2.825,-30.085c3.171,-1.529 203.471,-98.8 203.471,-98.8Z" style="fill:url(#_Linear1);"/><path id="Path1" serif:id="Path" d="M66.147,10.527c20.31,-6.102 158.639,-6.98 163.413,-0c4.774,6.98 -83.897,81.752 -83.249,86.102c0.648,4.351 9.612,22.186 18.5,49.202c-21.713,17.037 -100.34,69.454 -115.196,76.878c7.049,-22.48 27.796,-51.351 25.781,-55.352c-2.015,-4.001 -47.904,-50.477 -49.332,-58.427c-1.428,-7.95 19.771,-92.3 40.083,-98.403Z" style="fill:url(#_Linear2);"/><path id="Path2" serif:id="Path" d="M70.992,15.33c17.121,-5.142 141.131,-6.673 145.156,-0.793c4.024,5.881 -80.846,77.192 -80.3,80.857c0.547,3.666 17.287,38.477 15.614,46.284c-1.673,7.807 -74.468,57.874 -86.991,64.128c11.153,-22.863 22.331,-37.337 20.633,-40.708c-1.699,-3.371 -48.426,-54.084 -49.63,-60.782c-1.203,-6.697 18.397,-83.845 35.518,-88.986Z" style="fill:#ffefbf;fill-opacity:0.21;"/><path id="Path3" serif:id="Path" d="M188.824,21.787c-0.812,-5.684 -112.703,-6.614 -117.41,0.402c-4.707,7.016 -28.616,70.969 -28.133,78.224c0.558,8.364 46.028,56.258 50.187,61.34c4.685,5.725 -12.801,24.542 -11.152,25.093c3.296,1.103 59.666,-43.782 59.666,-49.629c0,-12.208 -26.766,-47.957 -24.535,-50.187c5.914,-5.915 73.049,-53.533 71.377,-65.243Z" style="fill:#ffffbf;fill-opacity:0.14;"/><path id="Ellipse" d="M50.013,55.948c-3.715,-5.019 8.555,-35.622 16.703,-39.154c9.342,-4.05 37.056,-7.059 40.77,-2.041c3.714,5.019 -13.805,10.336 -29.675,21.711c-15.871,11.376 -24.084,24.502 -27.798,19.484Z" style="fill:#fff;"/><path id="Ellipse1" serif:id="Ellipse" d="M42.197,72.663c0.606,-2.879 3.221,-4.773 5.844,-4.31c2.612,0.461 4.361,3.104 3.907,5.984c-0.469,2.969 -3.091,5.072 -5.856,4.611c-2.778,-0.463 -4.52,-3.316 -3.895,-6.285Z" style="fill:#fff;"/><path id="Ellipse2" serif:id="Ellipse" d="M128.297,158.656c-1.07,-1.377 0.971,-4.72 4.421,-7.386c3.319,-2.565 6.778,-3.592 7.849,-2.367c1.084,1.239 -0.623,4.379 -3.94,7.093c-3.452,2.824 -7.245,4.055 -8.33,2.66Z" style="fill:#fff;"/></g><defs><linearGradient id="_Linear1" x1="0" y1="0" x2="1" y2="0" gradientUnits="userSpaceOnUse" gradientTransform="matrix(4.06532e-05,239.782,-239.782,4.06532e-05,69.2878,10.1751)"><stop offset="0" style="stop-color:#d48b00;stop-opacity:1"/><stop offset="1" style="stop-color:#d96211;stop-opacity:1"/></linearGradient><linearGradient id="_Linear2" x1="0" y1="0" x2="1" y2="0" gradientUnits="userSpaceOnUse" gradientTransform="matrix(91.5345,186.807,-186.807,91.5345,3.77041,8.82685)"><stop offset="0" style="stop-color:#fff844;stop-opacity:1"/><stop offset="1" style="stop-color:#fca200;stop-opacity:1"/></linearGradient></defs></svg>