<?xml version="1.0" encoding="UTF-8" standalone="no"?><!DOCTYPE svg PUBLIC "-//W3C//DTD SVG 1.1//EN" "http://www.w3.org/Graphics/SVG/1.1/DTD/svg11.dtd"><svg width="100%" height="100%" viewBox="0 0 256 256" version="1.1" xmlns="http://www.w3.org/2000/svg" xmlns:xlink="http://www.w3.org/1999/xlink" xml:space="preserve" xmlns:serif="http://www.serif.com/" style="fill-rule:evenodd;clip-rule:evenodd;stroke-linecap:round;stroke-linejoin:round;stroke-miterlimit:1.5;"><g id="Bolt---Yellow--Border-" serif:id="Bolt - Yellow (Border)"><path d="M74.443,25.32c1.838,-5.811 7.23,-9.761 13.324,-9.761c19.784,0 64.051,0 95.118,0c6.913,-0 13.298,3.693 16.746,9.685c3.447,5.992 3.431,13.369 -0.044,19.345c-12.526,21.546 -28.146,48.414 -32.429,55.782c-0.727,1.249 -0.95,2.728 -0.626,4.137c2.394,10.385 12.603,54.668 15.578,67.577c0.499,2.161 -0.305,4.414 -2.057,5.773c-11.82,9.164 -57.08,44.255 -78.946,61.208c-2.066,1.602 -4.885,1.823 -7.175,0.564c-2.291,-1.259 -3.615,-3.758 -3.37,-6.36c1.731,-18.378 4.516,-47.955 5.248,-55.722c0.117,-1.245 -0.179,-2.493 -0.842,-3.552c-4.559,-7.283 -23.329,-37.268 -35.1,-56.074c-6.198,-9.901 -7.74,-22.024 -4.218,-33.162c5.662,-17.908 14.243,-45.047 18.793,-59.44Z" style="fill:none;stroke:#d86a0e;stroke-width:25.33px;"/><path d="M74.443,25.32c1.838,-5.811 7.23,-9.761 13.324,-9.761c19.784,0 64.051,0 95.118,0c6.913,-0 13.298,3.693 16.746,9.685c3.447,5.992 3.431,13.369 -0.044,19.345c-12.526,21.546 -28.146,48.414 -32.429,55.782c-0.727,1.249 -0.95,2.728 -0.626,4.137c2.394,10.385 12.603,54.668 15.578,67.577c0.499,2.161 -0.305,4.414 -2.057,5.773c-11.82,9.164 -57.08,44.255 -78.946,61.208c-2.066,1.602 -4.885,1.823 -7.175,0.564c-2.291,-1.259 -3.615,-3.758 -3.37,-6.36c1.731,-18.378 4.516,-47.955 5.248,-55.722c0.117,-1.245 -0.179,-2.493 -0.842,-3.552c-4.559,-7.283 -23.329,-37.268 -35.1,-56.074c-6.198,-9.901 -7.74,-22.024 -4.218,-33.162c5.662,-17.908 14.243,-45.047 18.793,-59.44Z" style="fill:#fab005;"/><path d="M80.611,36.011c2.45,-7.749 9.64,-13.017 17.767,-13.017c16.84,0 46.009,0 68.615,0c6.631,0 12.762,3.524 16.1,9.252c3.339,5.729 3.381,12.8 0.113,18.569c-11.2,19.765 -25.01,44.135 -29.46,51.99c-0.936,1.651 -1.219,3.594 -0.792,5.443c2.367,10.272 10.423,45.219 13.387,58.077c0.673,2.918 -0.434,5.96 -2.826,7.762c-10.247,7.72 -38.142,28.738 -55.113,41.525c-2.4,1.809 -5.641,2.03 -8.264,0.564c-2.624,-1.465 -4.135,-4.341 -3.853,-7.333c1.2,-12.746 2.728,-28.97 3.311,-35.161c0.156,-1.659 -0.238,-3.324 -1.122,-4.736c-4.128,-6.594 -16.815,-26.863 -26.767,-42.762c-8.265,-13.204 -10.321,-29.369 -5.625,-44.222c4.711,-14.902 10.638,-33.647 14.529,-45.951Z" style="fill:#ffd43b;"/><path id="Ellipse" d="M79.416,57.508c-1.033,0.767 -2.443,0.777 -3.485,0.024c-1.043,-0.752 -1.479,-2.093 -1.077,-3.315c2.175,-6.606 5.137,-15.605 7.323,-22.245c1.763,-5.358 6.766,-8.978 12.406,-8.978c6.746,0 15.761,0 22.384,0c1.272,0 2.401,0.816 2.801,2.024c0.399,1.208 -0.021,2.536 -1.042,3.295c-10.225,7.594 -28.918,21.477 -39.31,29.195Z" style="fill:#fff;"/><path id="Ellipse1" serif:id="Ellipse" d="M67.118,86.266c1.077,-3.75 3.252,-5.957 4.881,-5.036c1.62,0.918 2.159,4.631 1.182,8.399c-1.006,3.885 -3.236,6.368 -4.958,5.433c-1.731,-0.939 -2.215,-4.929 -1.105,-8.796Z" style="fill:#fff;"/><path id="Ellipse2" serif:id="Ellipse" d="M137.812,183.364c-1.773,-2.279 1.606,-7.814 7.318,-12.228c5.494,-4.245 11.219,-5.945 12.993,-3.918c1.795,2.051 -1.032,7.249 -6.523,11.742c-5.715,4.675 -11.993,6.713 -13.788,4.404Z" style="fill:#fff;"/></g></svg>