<?xml version="1.0" encoding="UTF-8" standalone="no"?><!DOCTYPE svg PUBLIC "-//W3C//DTD SVG 1.1//EN" "http://www.w3.org/Graphics/SVG/1.1/DTD/svg11.dtd"><svg width="100%" height="100%" viewBox="0 0 256 256" version="1.1" xmlns="http://www.w3.org/2000/svg" xmlns:xlink="http://www.w3.org/1999/xlink" xml:space="preserve" xmlns:serif="http://www.serif.com/" style="fill-rule:evenodd;clip-rule:evenodd;stroke-linejoin:round;stroke-miterlimit:2;"><g id="Bomb-Black---White-Bubbles" serif:id="Bomb Black - White Bubbles"><g id="Layer-9" serif:id="Layer 9"><path id="Layer-3" serif:id="Layer 3" d="M92.055,24.739c17.411,-8.207 34.104,-9.443 37.255,-2.758c3.151,6.684 -8.426,18.774 -25.836,26.981c-17.411,8.207 -34.104,9.443 -37.255,2.758c-3.151,-6.684 8.426,-18.774 25.836,-26.981Z" style="fill-opacity:0.04;"/><path id="Layer-4" serif:id="Layer 4" d="M85.046,7.705c18.117,-8.54 39.297,4.875 39.276,17.619c-0.024,14.68 -36.421,32.531 -50.681,23.89c-12.011,-7.277 -6.713,-32.968 11.405,-41.509Z" style="fill:#b2b2b2;"/><path id="Layer-5" serif:id="Layer 5" d="M87.412,8.602c15.382,-7.251 33.283,3.965 33.221,14.692c-0.072,12.355 -30.976,27.505 -43.03,20.283c-10.152,-6.083 -5.573,-27.724 9.809,-34.975Z" style="fill:#d0d0d0;"/><path id="Layer-6" serif:id="Layer 6" d="M90.39,10.71c7.91,-3.729 16.742,-1.644 19.71,4.653c2.968,6.296 -1.044,14.436 -8.955,18.165c-7.91,3.729 -16.742,1.644 -19.71,-4.653c-2.968,-6.297 1.044,-14.437 8.955,-18.165Z" style="fill:#e6e6e6;"/><path id="Layer-7" serif:id="Layer 7" d="M95.076,10.191c1.22,-2.833 5.327,-3.668 9.166,-1.865c3.839,1.804 5.965,5.568 4.744,8.4c-1.22,2.833 -5.327,3.668 -9.165,1.865c-3.839,-1.804 -5.965,-5.568 -4.745,-8.4Z" style="fill:#fff;"/><path id="Layer-8" serif:id="Layer 8" d="M80.425,34.192c0.774,-0.365 1.699,-0.033 2.064,0.741c0.365,0.774 0.033,1.699 -0.741,2.064c-0.775,0.365 -1.7,0.033 -2.065,-0.741c-0.365,-0.775 -0.032,-1.699 0.742,-2.064Z" style="fill:#fff;"/></g><g id="Layer-17" serif:id="Layer 17"><path id="Layer-11" serif:id="Layer 11" d="M23.623,137.533c-4.982,-18.592 -3.231,-35.239 3.907,-37.152c7.139,-1.913 16.978,11.629 21.96,30.22c4.982,18.592 3.231,35.239 -3.907,37.152c-7.139,1.913 -16.979,-11.629 -21.96,-30.22Z" style="fill-opacity:0.04;"/><path id="Layer-12" serif:id="Layer 12" d="M5.615,141.403c-5.184,-19.347 11.781,-37.805 24.319,-35.52c14.442,2.633 25.539,41.623 14.501,54.12c-9.296,10.527 -33.636,0.747 -38.82,-18.6Z" style="fill:#b2b2b2;"/><path id="Layer-13" serif:id="Layer 13" d="M6.918,139.233c-4.402,-16.426 9.818,-32.047 20.362,-30.08c12.146,2.267 21.562,35.371 12.312,45.949c-7.791,8.91 -28.273,0.557 -32.674,-15.869Z" style="fill:#d0d0d0;"/><path id="Layer-14" serif:id="Layer 14" d="M9.521,136.678c-2.264,-8.447 1.358,-16.768 8.082,-18.57c6.724,-1.801 14.021,3.594 16.284,12.041c2.264,8.447 -1.358,16.768 -8.082,18.57c-6.724,1.802 -14.021,-3.594 -16.284,-12.041Z" style="fill:#e6e6e6;"/><path id="Layer-15" serif:id="Layer 15" d="M9.843,131.974c-2.57,-1.704 -2.662,-5.894 -0.205,-9.351c2.457,-3.457 6.538,-4.88 9.109,-3.176c2.571,1.704 2.663,5.894 0.206,9.351c-2.457,3.457 -6.539,4.88 -9.11,3.176Z" style="fill:#fff;"/><path id="Layer-16" serif:id="Layer 16" d="M30.858,150.658c-0.222,-0.827 0.27,-1.678 1.096,-1.9c0.827,-0.221 1.678,0.27 1.9,1.097c0.222,0.827 -0.27,1.678 -1.097,1.899c-0.827,0.222 -1.678,-0.269 -1.899,-1.096Z" style="fill:#fff;"/></g><g id="Layer-25" serif:id="Layer 25"><path id="Layer-19" serif:id="Layer 19" d="M195.388,204.276c-12.474,14.658 -27.171,22.67 -32.799,17.88c-5.628,-4.789 -0.069,-20.578 12.405,-35.236c12.475,-14.658 27.172,-22.67 32.8,-17.88c5.628,4.789 0.069,20.578 -12.406,35.236Z" style="fill-opacity:0.04;"/><path id="Layer-20" serif:id="Layer 20" d="M208.8,216.901c-12.982,15.254 -37.809,11.77 -43.047,0.152c-6.034,-13.383 19.759,-44.657 36.313,-42.669c13.944,1.675 19.715,27.264 6.734,42.517Z" style="fill:#b2b2b2;"/><path id="Layer-21" serif:id="Layer 21" d="M206.274,217.061c-11.021,12.95 -31.954,10.117 -36.322,0.32c-5.032,-11.285 16.871,-37.834 30.83,-36.227c11.758,1.354 16.514,22.956 5.492,35.907Z" style="fill:#d0d0d0;"/><path id="Layer-22" serif:id="Layer 22" d="M202.693,216.369c-5.668,6.66 -14.574,8.404 -19.875,3.892c-5.301,-4.512 -5.004,-13.582 0.664,-20.241c5.668,-6.66 14.573,-8.404 19.875,-3.893c5.301,4.512 5.004,13.582 -0.664,20.242Z" style="fill:#e6e6e6;"/><path id="Layer-23" serif:id="Layer 23" d="M198.638,218.775c0.057,3.083 -3.34,5.539 -7.581,5.479c-4.241,-0.059 -7.73,-2.611 -7.787,-5.695c-0.057,-3.083 3.34,-5.538 7.58,-5.479c4.241,0.06 7.731,2.611 7.788,5.695Z" style="fill:#fff;"/><path id="Layer-24" serif:id="Layer 24" d="M202.084,190.868c-0.555,0.651 -1.535,0.73 -2.187,0.175c-0.652,-0.554 -0.73,-1.534 -0.176,-2.186c0.555,-0.652 1.535,-0.731 2.187,-0.176c0.652,0.555 0.73,1.535 0.176,2.187Z" style="fill:#fff;"/></g><g id="Layer-33" serif:id="Layer 33"><path id="Layer-27" serif:id="Layer 27" d="M223.283,92.017c0,19.247 -5.999,34.874 -13.39,34.874c-7.39,0 -13.389,-15.627 -13.389,-34.874c-0,-19.248 5.999,-34.875 13.389,-34.875c7.391,0 13.39,15.627 13.39,34.875Z" style="fill-opacity:0.04;"/><path id="Layer-28" serif:id="Layer 28" d="M241.679,92.939c0,20.03 -21.164,33.468 -32.683,28.015c-13.269,-6.281 -13.896,-46.814 -0,-56.029c11.704,-7.762 32.683,7.985 32.683,28.014Z" style="fill:#b2b2b2;"/><path id="Layer-29" serif:id="Layer 29" d="M239.859,94.697c0,17.006 -17.777,28.415 -27.453,23.785c-11.146,-5.332 -11.673,-39.746 -0,-47.57c9.831,-6.589 27.453,6.78 27.453,23.785Z" style="fill:#d0d0d0;"/><path id="Layer-30" serif:id="Layer 30" d="M236.684,96.492c-0,8.745 -5.652,15.845 -12.613,15.845c-6.962,-0 -12.614,-7.1 -12.614,-15.845c0,-8.745 5.652,-15.845 12.614,-15.845c6.961,-0 12.613,7.1 12.613,15.845Z" style="fill:#e6e6e6;"/><path id="Layer-31" serif:id="Layer 31" d="M235.155,100.952c2.042,2.312 1.046,6.383 -2.222,9.086c-3.268,2.703 -7.579,3.022 -9.621,0.71c-2.042,-2.311 -1.046,-6.382 2.222,-9.086c3.268,-2.703 7.579,-3.021 9.621,-0.71Z" style="fill:#fff;"/><path id="Layer-32" serif:id="Layer 32" d="M219.692,77.466c-0,0.856 -0.695,1.551 -1.551,1.551c-0.856,0 -1.551,-0.695 -1.551,-1.551c-0,-0.856 0.695,-1.551 1.551,-1.551c0.856,0 1.551,0.695 1.551,1.551Z" style="fill:#fff;"/></g><path id="Layer-34" serif:id="Layer 34" d="M127.459,14.718c59.122,0 107.122,47.999 107.122,107.121c-0,59.122 -48,107.122 -107.122,107.122c-59.122,-0 -107.121,-48 -107.121,-107.122c0,-59.122 47.999,-107.121 107.121,-107.121Z" style="fill:#272a2b;"/><path id="Layer-35" serif:id="Layer 35" d="M129.81,20.45c46.523,0 84.293,37.771 84.293,84.294c0,46.522 -37.77,84.293 -84.293,84.293c-46.523,0 -84.294,-37.771 -84.294,-84.293c0,-46.523 37.771,-84.294 84.294,-84.294Z" style="fill:#fff;fill-opacity:0.06;"/><path id="Layer-36" serif:id="Layer 36" d="M164.442,33.094c29.986,15.628 44.117,47.914 31.536,72.053c-12.58,24.139 -47.139,31.049 -77.126,15.421c-29.986,-15.628 -44.117,-47.914 -31.536,-72.053c12.58,-24.139 47.139,-31.049 77.126,-15.421Z" style="fill:#fff;fill-opacity:0.06;"/><path id="Layer-37" serif:id="Layer 37" d="M174.771,38.477c24.285,12.657 37.375,35.648 29.213,51.308c-8.161,15.661 -34.505,18.099 -58.79,5.442c-24.285,-12.657 -37.376,-35.647 -29.214,-51.307c8.162,-15.661 34.505,-18.1 58.791,-5.443Z" style="fill:#fff;fill-opacity:0.12;"/><g id="Layer-45" serif:id="Layer 45"><path id="Layer-39" serif:id="Layer 39" d="M176.186,27.72c16.669,9.624 27.202,22.634 23.507,29.034c-3.695,6.4 -20.228,3.782 -36.897,-5.842c-16.669,-9.623 -27.202,-22.633 -23.507,-29.033c3.695,-6.4 20.228,-3.782 36.897,5.841Z" style="fill-opacity:0.04;"/><path id="Layer-40" serif:id="Layer 40" d="M186.183,12.25c17.346,10.015 18.402,35.063 7.92,42.313c-12.074,8.35 -47.491,-11.373 -48.523,-28.015c-0.87,-14.017 23.257,-24.312 40.603,-14.298Z" style="fill:#b2b2b2;"/><path id="Layer-41" serif:id="Layer 41" d="M185.948,13.217c15.604,9.009 16.669,31.342 7.303,37.755c-10.789,7.387 -42.647,-10.362 -43.651,-25.202c-0.847,-12.499 20.743,-21.563 36.348,-12.553Z" style="fill:#d0d0d0;"/><path id="Layer-42" serif:id="Layer 42" d="M185.915,17.077c8.024,4.633 11.55,13.573 7.867,19.951c-3.682,6.379 -13.187,7.795 -21.212,3.162c-8.025,-4.633 -11.55,-13.572 -7.867,-19.951c3.682,-6.378 13.187,-7.795 21.212,-3.162Z" style="fill:#e6e6e6;"/><path id="Layer-43" serif:id="Layer 43" d="M189.199,20.841c3.201,-0.646 6.41,2.423 7.162,6.849c0.752,4.427 -1.237,8.545 -4.438,9.192c-3.201,0.646 -6.41,-2.423 -7.162,-6.85c-0.752,-4.426 1.237,-8.545 4.438,-9.191Z" style="fill:#fff;"/><path id="Layer-44" serif:id="Layer 44" d="M159.468,22.566c0.785,0.454 1.055,1.459 0.603,2.243c-0.453,0.784 -1.459,1.053 -2.244,0.599c-0.786,-0.453 -1.056,-1.458 -0.603,-2.243c0.453,-0.784 1.458,-1.052 2.244,-0.599Z" style="fill:#fff;"/></g><g id="Layer-53" serif:id="Layer 53"><path id="Layer-47" serif:id="Layer 47" d="M227.328,145.858c-5.627,18.406 -14.72,31.967 -20.292,30.264c-5.572,-1.704 -5.527,-18.031 0.1,-36.437c5.627,-18.407 14.719,-31.968 20.291,-30.265c5.572,1.704 5.528,18.031 -0.099,36.438Z" style="fill-opacity:0.04;"/><path id="Layer-48" serif:id="Layer 48" d="M250.068,153.774c-5.856,19.155 -30.024,25.818 -39.446,17.236c-10.852,-9.886 0.398,-48.832 16.381,-53.582c13.461,-4 28.921,17.192 23.065,36.346Z" style="fill:#b2b2b2;"/><path id="Layer-49" serif:id="Layer 49" d="M249.074,153.763c-5.268,17.231 -26.789,23.293 -35.145,15.609c-9.624,-8.851 0.503,-43.885 14.736,-48.202c11.988,-3.636 25.677,15.361 20.409,32.593Z" style="fill:#d0d0d0;"/><path id="Layer-50" serif:id="Layer 50" d="M245.305,154.598c-2.709,8.862 -10.627,14.308 -17.67,12.155c-7.043,-2.153 -10.562,-11.096 -7.853,-19.957c2.709,-8.861 10.626,-14.308 17.67,-12.154c7.043,2.153 10.562,11.095 7.853,19.956Z" style="fill:#e6e6e6;"/><path id="Layer-51" serif:id="Layer 51" d="M242.376,158.645c1.35,2.974 -0.918,6.791 -5.062,8.52c-4.144,1.728 -8.605,0.717 -9.954,-2.257c-1.35,-2.973 0.918,-6.791 5.062,-8.519c4.144,-1.728 8.604,-0.717 9.954,2.256Z" style="fill:#fff;"/><path id="Layer-52" serif:id="Layer 52" d="M234.007,130.065c-0.265,0.867 -1.184,1.356 -2.05,1.091c-0.866,-0.264 -1.354,-1.184 -1.089,-2.051c0.265,-0.867 1.184,-1.357 2.05,-1.092c0.866,0.265 1.354,1.184 1.089,2.052Z" style="fill:#fff;"/></g><g id="Layer-61" serif:id="Layer 61"><path id="Layer-55" serif:id="Layer 55" d="M37.284,67.989c-9.623,16.669 -12.241,33.202 -5.841,36.897c6.4,3.695 19.41,-6.838 29.033,-23.507c9.624,-16.669 12.242,-33.202 5.842,-36.897c-6.4,-3.695 -19.41,6.838 -29.034,23.507Z" style="fill-opacity:0.04;"/><path id="Layer-56" serif:id="Layer 56" d="M20.892,59.59c-10.015,17.346 1.595,39.566 14.297,40.604c14.631,1.194 35.442,-33.595 28.015,-48.523c-6.256,-12.574 -32.298,-9.427 -42.312,7.919Z" style="fill:#b2b2b2;"/><path id="Layer-57" serif:id="Layer 57" d="M21.578,60.309c-9.009,15.605 1.236,35.479 12.554,36.349c13.037,1.002 31.752,-30.297 25.202,-43.651c-5.517,-11.248 -28.746,-8.302 -37.756,7.302Z" style="fill:#d0d0d0;"/><path id="Layer-58" serif:id="Layer 58" d="M23.538,63.636c-4.633,8.025 -3.216,17.53 3.162,21.212c6.378,3.683 15.318,0.157 19.951,-7.867c4.633,-8.025 3.216,-17.53 -3.162,-21.212c-6.378,-3.683 -15.318,-0.158 -19.951,7.867Z" style="fill:#e6e6e6;"/><path id="Layer-59" serif:id="Layer 59" d="M22.575,68.538c-3.095,1.04 -4.34,5.303 -2.778,9.512c1.563,4.21 5.344,6.782 8.439,5.742c3.096,-1.041 4.341,-5.304 2.778,-9.513c-1.562,-4.209 -5.343,-6.782 -8.439,-5.741Z" style="fill:#fff;"/><path id="Layer-60" serif:id="Layer 60" d="M49.186,55.166c-0.454,0.786 -0.185,1.791 0.599,2.244c0.784,0.453 1.789,0.183 2.243,-0.603c0.453,-0.785 0.185,-1.791 -0.6,-2.243c-0.784,-0.453 -1.789,-0.183 -2.242,0.602Z" style="fill:#fff;"/></g><g id="Layer-69" serif:id="Layer 69"><path id="Layer-63" serif:id="Layer 63" d="M46.922,190.629c9.624,16.669 22.633,27.202 29.033,23.507c6.4,-3.695 3.783,-20.228 -5.841,-36.897c-9.624,-16.669 -22.633,-27.202 -29.033,-23.507c-6.4,3.695 -3.783,20.228 5.841,36.897Z" style="fill-opacity:0.04;"/><path id="Layer-64" serif:id="Layer 64" d="M31.452,200.626c10.014,17.346 35.062,18.402 42.312,7.92c8.35,-12.074 -11.373,-47.491 -28.015,-48.523c-14.017,-0.87 -24.312,23.257 -14.297,40.603Z" style="fill:#b2b2b2;"/><path id="Layer-65" serif:id="Layer 65" d="M32.418,200.391c9.009,15.604 31.342,16.669 37.755,7.302c7.387,-10.789 -10.362,-42.646 -25.202,-43.651c-12.499,-0.846 -21.562,20.744 -12.553,36.349Z" style="fill:#d0d0d0;"/><path id="Layer-66" serif:id="Layer 66" d="M36.278,200.358c4.633,8.024 13.573,11.55 19.952,7.867c6.378,-3.682 7.795,-13.187 3.162,-21.212c-4.633,-8.025 -13.573,-11.55 -19.952,-7.867c-6.378,3.682 -7.795,13.187 -3.162,21.212Z" style="fill:#e6e6e6;"/><path id="Layer-67" serif:id="Layer 67" d="M40.042,203.642c-0.646,3.201 2.423,6.41 6.849,7.162c4.427,0.752 8.546,-1.237 9.192,-4.438c0.646,-3.201 -2.423,-6.41 -6.849,-7.162c-4.427,-0.752 -8.545,1.237 -9.192,4.438Z" style="fill:#fff;"/><path id="Layer-68" serif:id="Layer 68" d="M41.767,173.911c0.454,0.785 1.459,1.055 2.243,0.603c0.784,-0.453 1.053,-1.459 0.6,-2.244c-0.454,-0.786 -1.459,-1.056 -2.243,-0.603c-0.785,0.453 -1.053,1.458 -0.6,2.244Z" style="fill:#fff;"/></g><g id="Layer-77" serif:id="Layer 77"><path id="Layer-71" serif:id="Layer 71" d="M124.896,228.179c19.247,0 34.874,-5.012 34.874,-11.185c0,-6.174 -15.627,-11.186 -34.874,-11.186c-19.248,0 -34.875,5.012 -34.875,11.186c0,6.173 15.627,11.185 34.875,11.185Z" style="fill-opacity:0.04;"/><path id="Layer-72" serif:id="Layer 72" d="M125.818,250.984c20.03,0 33.468,-21.164 28.015,-32.683c-6.281,-13.269 -46.815,-13.896 -56.029,-0c-7.762,11.704 7.985,32.683 28.014,32.683Z" style="fill:#b2b2b2;"/><path id="Layer-73" serif:id="Layer 73" d="M126.098,250.03c18.018,-0 30.107,-18.809 25.202,-29.046c-5.651,-11.791 -42.115,-12.349 -50.404,0c-6.982,10.401 7.183,29.046 25.202,29.046Z" style="fill:#d0d0d0;"/><path id="Layer-74" serif:id="Layer 74" d="M127.999,246.67c9.266,-0 16.789,-5.98 16.789,-13.345c0,-7.365 -7.523,-13.344 -16.789,-13.344c-9.266,-0 -16.789,5.979 -16.789,13.344c-0,7.365 7.523,13.345 16.789,13.345Z" style="fill:#e6e6e6;"/><path id="Layer-75" serif:id="Layer 75" d="M132.725,245.052c2.449,2.161 6.763,1.107 9.627,-2.35c2.865,-3.458 3.202,-8.019 0.753,-10.179c-2.449,-2.16 -6.763,-1.107 -9.627,2.35c-2.865,3.458 -3.202,8.019 -0.753,10.179Z" style="fill:#fff;"/><path id="Layer-76" serif:id="Layer 76" d="M107.84,228.693c0.907,-0 1.643,-0.735 1.643,-1.641c0,-0.906 -0.736,-1.641 -1.643,-1.641c-0.907,0 -1.643,0.735 -1.643,1.641c-0,0.906 0.736,1.641 1.643,1.641Z" style="fill:#fff;"/></g><g id="Layer-85" serif:id="Layer 85"><path id="Layer-79" serif:id="Layer 79" d="M108.486,39.772c17.479,-0 31.671,12.422 31.671,27.722c-0,15.3 -14.192,27.722 -31.671,27.722c-17.48,0 -31.671,-12.422 -31.671,-27.722c-0,-15.3 14.191,-27.722 31.671,-27.722Z" style="fill:#36393a;fill-opacity:0.18;"/><path id="Layer-80" serif:id="Layer 80" d="M109.221,40.975c15.228,-0 27.592,11.153 27.592,24.89c-0,13.738 -12.364,24.891 -27.592,24.891c-15.229,0 -27.593,-11.153 -27.593,-24.891c0,-13.737 12.364,-24.89 27.593,-24.89Z" style="fill:#b2b2b2;"/><path id="Layer-81" serif:id="Layer 81" d="M109.196,42.521c13.817,-0 25.035,9.691 25.035,21.628c-0,11.936 -11.218,21.627 -25.035,21.627c-13.818,0 -25.035,-9.691 -25.035,-21.627c-0,-11.937 11.217,-21.628 25.035,-21.628Z" style="fill:#d0d0d0;"/><path id="Layer-82" serif:id="Layer 82" d="M112.927,45.518c8.782,-0 15.911,7.082 15.911,15.806c-0,8.724 -7.129,15.807 -15.911,15.807c-8.781,-0 -15.911,-7.083 -15.911,-15.807c0,-8.724 7.13,-15.806 15.911,-15.806Z" style="fill:#e6e6e6;"/><path id="Layer-83" serif:id="Layer 83" d="M127.572,51.308c1.793,3.853 0.53,8.451 -2.82,10.261c-3.35,1.81 -7.525,0.151 -9.319,-3.703c-1.793,-3.853 -0.529,-8.451 2.82,-10.261c3.35,-1.81 7.526,-0.151 9.319,3.703Z" style="fill:#fff;"/><path id="Layer-84" serif:id="Layer 84" d="M94.723,65.045c1.421,-0 2.574,1.242 2.574,2.773c-0,1.53 -1.153,2.773 -2.574,2.773c-1.42,-0 -2.573,-1.243 -2.573,-2.773c0,-1.531 1.153,-2.773 2.573,-2.773Z" style="fill:#fff;"/></g><g id="Layer-93" serif:id="Layer 93"><path id="Layer-87" serif:id="Layer 87" d="M82.847,110.753c17.479,-0 31.67,12.422 31.67,27.722c0,15.3 -14.191,27.722 -31.67,27.722c-17.48,0 -31.671,-12.422 -31.671,-27.722c-0,-15.3 14.191,-27.722 31.671,-27.722Z" style="fill:#36393a;fill-opacity:0.18;"/><path id="Layer-88" serif:id="Layer 88" d="M83.581,111.956c15.229,-0 27.593,11.153 27.593,24.89c-0,13.738 -12.364,24.891 -27.593,24.891c-15.228,0 -27.592,-11.153 -27.592,-24.891c-0,-13.737 12.364,-24.89 27.592,-24.89Z" style="fill:#b2b2b2;"/><path id="Layer-89" serif:id="Layer 89" d="M83.557,113.502c13.817,-0 25.035,9.691 25.035,21.628c-0,11.936 -11.218,21.628 -25.035,21.628c-13.818,-0 -25.036,-9.692 -25.036,-21.628c0,-11.937 11.218,-21.628 25.036,-21.628Z" style="fill:#d0d0d0;"/><path id="Layer-90" serif:id="Layer 90" d="M87.288,116.499c8.781,-0 15.911,7.082 15.911,15.806c-0,8.724 -7.13,15.807 -15.911,15.807c-8.782,0 -15.911,-7.083 -15.911,-15.807c0,-8.724 7.129,-15.806 15.911,-15.806Z" style="fill:#e6e6e6;"/><path id="Layer-91" serif:id="Layer 91" d="M101.933,122.289c1.793,3.853 0.529,8.451 -2.82,10.261c-3.35,1.81 -7.525,0.151 -9.319,-3.703c-1.793,-3.853 -0.529,-8.451 2.82,-10.261c3.35,-1.81 7.525,-0.151 9.319,3.703Z" style="fill:#fff;"/><path id="Layer-92" serif:id="Layer 92" d="M69.084,136.026c1.421,-0 2.574,1.242 2.574,2.773c-0,1.53 -1.153,2.773 -2.574,2.773c-1.42,-0 -2.573,-1.243 -2.573,-2.773c-0,-1.531 1.153,-2.773 2.573,-2.773Z" style="fill:#fff;"/></g><g id="Layer-101" serif:id="Layer 101"><path id="Layer-95" serif:id="Layer 95" d="M174.35,77.282c17.48,-0 31.671,12.421 31.671,27.722c0,15.3 -14.191,27.722 -31.671,27.722c-17.479,-0 -31.671,-12.422 -31.671,-27.722c0,-15.301 14.192,-27.722 31.671,-27.722Z" style="fill:#36393a;fill-opacity:0.18;"/><path id="Layer-96" serif:id="Layer 96" d="M175.085,78.484c15.229,0 27.593,11.153 27.593,24.891c-0,13.738 -12.364,24.891 -27.593,24.891c-15.229,-0 -27.592,-11.153 -27.592,-24.891c-0,-13.738 12.363,-24.891 27.592,-24.891Z" style="fill:#b2b2b2;"/><path id="Layer-97" serif:id="Layer 97" d="M175.06,80.03c13.818,0 25.036,9.691 25.036,21.628c-0,11.937 -11.218,21.628 -25.036,21.628c-13.817,0 -25.035,-9.691 -25.035,-21.628c0,-11.937 11.218,-21.628 25.035,-21.628Z" style="fill:#d0d0d0;"/><path id="Layer-98" serif:id="Layer 98" d="M178.792,83.027c8.781,0 15.911,7.083 15.911,15.807c-0,8.724 -7.13,15.807 -15.911,15.807c-8.782,-0 -15.911,-7.083 -15.911,-15.807c-0,-8.724 7.129,-15.807 15.911,-15.807Z" style="fill:#e6e6e6;"/><path id="Layer-99" serif:id="Layer 99" d="M193.437,88.817c1.793,3.854 0.529,8.452 -2.82,10.261c-3.35,1.81 -7.526,0.151 -9.319,-3.702c-1.793,-3.854 -0.53,-8.451 2.82,-10.261c3.35,-1.81 7.525,-0.151 9.319,3.702Z" style="fill:#fff;"/><path id="Layer-100" serif:id="Layer 100" d="M160.588,102.554c1.42,0 2.574,1.243 2.574,2.773c-0,1.531 -1.154,2.773 -2.574,2.773c-1.42,0 -2.573,-1.242 -2.573,-2.773c-0,-1.53 1.153,-2.773 2.573,-2.773Z" style="fill:#fff;"/></g><g id="Layer-109" serif:id="Layer 109"><path id="Layer-103" serif:id="Layer 103" d="M154.964,150.317c17.48,0 31.671,12.422 31.671,27.722c-0,15.301 -14.191,27.723 -31.671,27.723c-17.48,-0 -31.671,-12.422 -31.671,-27.723c0,-15.3 14.191,-27.722 31.671,-27.722Z" style="fill:#36393a;fill-opacity:0.18;"/><path id="Layer-104" serif:id="Layer 104" d="M155.699,151.52c15.229,-0 27.592,11.153 27.592,24.891c0,13.737 -12.363,24.89 -27.592,24.89c-15.229,0 -27.593,-11.153 -27.593,-24.89c0,-13.738 12.364,-24.891 27.593,-24.891Z" style="fill:#b2b2b2;"/><path id="Layer-105" serif:id="Layer 105" d="M155.674,153.066c13.817,-0 25.035,9.691 25.035,21.628c0,11.937 -11.218,21.628 -25.035,21.628c-13.817,-0 -25.035,-9.691 -25.035,-21.628c-0,-11.937 11.218,-21.628 25.035,-21.628Z" style="fill:#d0d0d0;"/><path id="Layer-106" serif:id="Layer 106" d="M159.405,156.063c8.782,-0 15.911,7.083 15.911,15.807c0,8.724 -7.129,15.806 -15.911,15.806c-8.781,0 -15.91,-7.082 -15.91,-15.806c-0,-8.724 7.129,-15.807 15.91,-15.807Z" style="fill:#e6e6e6;"/><path id="Layer-107" serif:id="Layer 107" d="M174.05,161.853c1.794,3.853 0.53,8.451 -2.82,10.261c-3.349,1.81 -7.525,0.151 -9.318,-3.702c-1.793,-3.854 -0.53,-8.452 2.82,-10.262c3.35,-1.81 7.525,-0.15 9.318,3.703Z" style="fill:#fff;"/><path id="Layer-108" serif:id="Layer 108" d="M141.202,175.59c1.42,0 2.573,1.243 2.573,2.773c0,1.53 -1.153,2.773 -2.573,2.773c-1.42,-0 -2.574,-1.243 -2.574,-2.773c0,-1.53 1.154,-2.773 2.574,-2.773Z" style="fill:#fff;"/></g></g></svg>