<?xml version="1.0" encoding="UTF-8" standalone="no"?><!DOCTYPE svg PUBLIC "-//W3C//DTD SVG 1.1//EN" "http://www.w3.org/Graphics/SVG/1.1/DTD/svg11.dtd"><svg width="100%" height="100%" viewBox="0 0 256 256" version="1.1" xmlns="http://www.w3.org/2000/svg" xmlns:xlink="http://www.w3.org/1999/xlink" xml:space="preserve" xmlns:serif="http://www.serif.com/" style="fill-rule:evenodd;clip-rule:evenodd;stroke-linejoin:round;stroke-miterlimit:2;"><g id="Bomb"><g><path d="M83.435,34.729c13.723,-2.089 26.77,5.022 26.77,18c-0,11.408 25.333,11.116 25.333,-0c0,-28.389 -25.897,-47.615 -55.916,-43.044c-6.911,1.052 -11.668,7.517 -10.616,14.428c1.052,6.912 7.518,11.668 14.429,10.616Z" style="fill:none;stroke:#495057;stroke-width:8px;"/><circle cx="128" cy="158.095" r="81.279" style="fill:none;stroke:#222;stroke-width:12.35px;stroke-linecap:round;stroke-miterlimit:1.5;"/><path d="M150.943,72.064c-0,-15.212 -12.351,-23.652 -27.563,-23.652c-15.213,-0 -27.563,8.44 -27.563,23.652l-0,12.328c-0,15.212 12.35,21.639 27.563,21.639c15.212,-0 27.563,-6.427 27.563,-21.639l-0,-12.328Z" style="fill:none;stroke:#222;stroke-width:15.69px;stroke-linecap:round;stroke-miterlimit:1.5;"/><circle cx="128" cy="158.095" r="80.178" style="fill:url(#_Linear1);"/><path d="M152.776,68.835c0,-15.304 -13.337,-23.795 -29.765,-23.795c-16.429,0 -29.766,8.491 -29.766,23.795l-0,15.481c-0,15.304 13.337,18.69 29.766,18.69c16.428,-0 29.765,-3.386 29.765,-18.69l0,-15.481Z" style="fill:#2a292b;"/><path d="M85.592,96.205c25.787,-25.787 70.118,-23.329 98.934,5.487c28.816,28.816 31.275,73.147 5.487,98.935c-25.788,25.787 -70.119,23.329 -98.935,-5.487c-28.815,-28.816 -31.274,-73.147 -5.486,-98.935Z" style="fill:url(#_Linear2);"/><path d="M81.198,101.842c-1.921,-7.099 9.393,-16.347 25.251,-20.639c15.858,-4.292 30.292,-2.013 32.213,5.086c1.922,7.098 -9.393,16.346 -25.251,20.638c-15.857,4.292 -30.292,2.014 -32.213,-5.085Z" style="fill:#2a292b;"/><path d="M143.545,102.413c16.409,-9.23 39.586,0.797 51.724,22.376c12.138,21.579 8.67,46.592 -7.739,55.822c-16.41,9.23 -39.587,-0.796 -51.724,-22.375c-12.138,-21.579 -8.671,-46.593 7.739,-55.823Z" style="fill:url(#_Linear3);"/><path d="M164.986,103.268c7.932,-3.292 18.337,0.904 23.223,9.365c4.885,8.462 2.411,18.004 -5.521,21.296c-7.932,3.292 -18.337,-0.904 -23.222,-9.365c-4.885,-8.462 -2.412,-18.004 5.52,-21.296Z" style="fill:#868e96;"/><path d="M187.736,139.142c2.08,-1.577 5.103,-1.095 6.747,1.074c1.645,2.169 1.291,5.21 -0.789,6.786c-2.08,1.577 -5.103,1.095 -6.747,-1.074c-1.644,-2.169 -1.291,-5.21 0.789,-6.786Z" style="fill:#868e96;"/><path d="M101.233,172.068c4.986,-4.494 13.543,-3.14 19.098,3.022c5.554,6.162 6.016,14.813 1.03,19.307c-4.986,4.495 -13.543,3.141 -19.098,-3.021c-5.554,-6.162 -6.015,-14.814 -1.03,-19.308Z" style="fill:#48484a;"/><path d="M152.776,68.274c0,-13.688 -11.112,-24.8 -24.8,-24.8c-13.687,-0 -24.8,11.112 -24.8,24.8l0,15.782c0,13.687 11.113,18.089 24.8,18.089c13.688,0 24.8,-4.402 24.8,-18.089l0,-15.782Z" style="fill:url(#_Linear4);"/><path d="M143.39,70.325c2.77,-1.031 5.349,0.993 5.756,4.516c0.406,3.523 -1.512,7.22 -4.282,8.252c-2.769,1.031 -5.348,-0.993 -5.755,-4.516c-0.407,-3.523 1.512,-7.22 4.281,-8.252Z" style="fill:#5c5d5f;"/><path d="M97.509,56.524c0,-8.688 11.427,-15.742 25.502,-15.742c14.074,0 25.501,7.054 25.501,15.742c-0,8.687 -11.427,15.741 -25.501,15.741c-14.075,0 -25.502,-7.054 -25.502,-15.741Z" style="fill:#222;"/><path d="M103.037,55.674c0,-5.869 8.95,-10.634 19.974,-10.634c11.023,0 19.973,4.765 19.973,10.634c-0,5.868 -8.95,10.633 -19.973,10.633c-11.024,-0 -19.974,-4.765 -19.974,-10.633Z" style="fill:#323234;"/><path d="M114.874,52.337c-0,-3.092 4.474,-5.601 9.986,-5.601c5.511,-0 9.986,2.509 9.986,5.601c-0,3.091 -4.475,5.601 -9.986,5.601c-5.512,-0 -9.986,-2.51 -9.986,-5.601Z" style="fill:#222;"/><g><path d="M83.435,34.729c13.723,-2.089 26.77,5.022 26.77,18c-0,11.408 25.333,11.116 25.333,-0c0,-28.389 -25.897,-47.615 -55.916,-43.044c-6.911,1.052 -11.668,7.517 -10.616,14.428c1.052,6.912 7.518,11.668 14.429,10.616Z" style="fill:url(#_Linear5);"/><path d="M69.549,18.09c-0.647,1.875 -0.862,3.929 -0.543,6.023c1.052,6.912 7.518,11.668 14.429,10.616c13.723,-2.089 26.77,5.022 26.77,18c-0,8.244 13.231,10.378 20.57,6.731c-6.852,-0.428 -13.218,-3.694 -13.218,-9.901c-0,-15.285 -15.367,-23.66 -31.53,-21.2c-7.372,1.123 -14.313,-3.366 -16.478,-10.269Z" style="fill:url(#_Linear6);"/><path d="M114.221,49.19c0,-0 4.752,0.188 10.003,-1.645c2.924,-1.02 5.959,-2.527 8.36,-5.098c0.25,-0.205 0.285,-0.575 0.079,-0.824c-0.205,-0.249 -0.574,-0.284 -0.823,-0.079c-2.652,1.664 -5.603,2.281 -8.351,2.492c-4.636,0.357 -8.438,-0.788 -8.438,-0.788c-1.64,-0.229 -3.157,0.916 -3.386,2.556c-0.229,1.64 0.917,3.157 2.556,3.386Z" style="fill:url(#_Linear7);"/><path d="M109.424,38.843c-0,-0 3.928,-2.154 7.676,-6.429c1.949,-2.221 3.861,-4.892 5.103,-8.166c0.153,-0.284 0.046,-0.639 -0.238,-0.792c-0.285,-0.153 -0.64,-0.046 -0.793,0.238c-1.872,2.603 -4.187,4.521 -6.436,6.025c-3.995,2.673 -7.661,3.603 -7.661,3.603c-1.524,0.648 -2.234,2.411 -1.586,3.935c0.648,1.523 2.411,2.234 3.935,1.586Z" style="fill:url(#_Linear8);"/><path d="M99.276,32.334c-0,-0 0.873,-2.527 1.474,-7.57c0.344,-2.88 0.635,-6.492 0.629,-11.002c0.043,-0.32 -0.182,-0.615 -0.502,-0.657c-0.321,-0.043 -0.615,0.182 -0.658,0.503c-0.921,3.378 -1.868,6.154 -2.757,8.498c-1.987,5.238 -3.631,7.707 -3.631,7.707c-0.695,1.502 -0.04,3.287 1.462,3.983c1.503,0.695 3.287,0.04 3.983,-1.462Z" style="fill:url(#_Linear9);"/><path d="M83.739,32.079c-0,-0 0.835,-3.127 0.53,-8.696c-0.179,-3.263 -0.676,-7.31 -1.999,-12.118c-0.048,-0.319 -0.346,-0.54 -0.665,-0.492c-0.32,0.047 -0.541,0.345 -0.493,0.665c0.103,3.814 -0.171,7.039 -0.575,9.778c-0.855,5.8 -2.451,8.852 -2.451,8.852c-0.555,1.56 0.261,3.277 1.821,3.832c1.56,0.555 3.277,-0.261 3.832,-1.821Z" style="fill:url(#_Linear10);"/></g></g></g><defs><linearGradient id="_Linear1" x1="0" y1="0" x2="1" y2="0" gradientUnits="userSpaceOnUse" gradientTransform="matrix(-118.058,107.925,-107.925,-118.058,190.715,108.162)"><stop offset="0" style="stop-color:#353537;stop-opacity:1"/><stop offset="1" style="stop-color:#2b2b2d;stop-opacity:1"/></linearGradient><linearGradient id="_Linear2" x1="0" y1="0" x2="1" y2="0" gradientUnits="userSpaceOnUse" gradientTransform="matrix(-100.193,85.9416,-85.9416,-100.193,184.976,102.145)"><stop offset="0" style="stop-color:#424449;stop-opacity:1"/><stop offset="1" style="stop-color:#363538;stop-opacity:1"/></linearGradient><linearGradient id="_Linear3" x1="0" y1="0" x2="1" y2="0" gradientUnits="userSpaceOnUse" gradientTransform="matrix(-48.1099,45.721,-45.721,-48.1099,185.912,112.374)"><stop offset="0" style="stop-color:#5a5f67;stop-opacity:1"/><stop offset="1" style="stop-color:#48484a;stop-opacity:1"/></linearGradient><linearGradient id="_Linear4" x1="0" y1="0" x2="1" y2="0" gradientUnits="userSpaceOnUse" gradientTransform="matrix(-100.193,85.9416,-85.9416,-100.193,184.976,102.145)"><stop offset="0" style="stop-color:#424449;stop-opacity:1"/><stop offset="1" style="stop-color:#363538;stop-opacity:1"/></linearGradient><linearGradient id="_Linear5" x1="0" y1="0" x2="1" y2="0" gradientUnits="userSpaceOnUse" gradientTransform="matrix(-12.8262,27.2315,-27.2315,-12.8262,115.025,16.2425)"><stop offset="0" style="stop-color:#fff;stop-opacity:1"/><stop offset="1" style="stop-color:#ced4da;stop-opacity:1"/></linearGradient><linearGradient id="_Linear6" x1="0" y1="0" x2="1" y2="0" gradientUnits="userSpaceOnUse" gradientTransform="matrix(-10.7363,23.5839,-23.5839,-10.7363,110.713,19.89)"><stop offset="0" style="stop-color:#ccc;stop-opacity:1"/><stop offset="1" style="stop-color:#88858f;stop-opacity:1"/></linearGradient><linearGradient id="_Linear7" x1="0" y1="0" x2="1" y2="0" gradientUnits="userSpaceOnUse" gradientTransform="matrix(-10.7363,23.5839,-23.5839,-10.7363,110.713,19.89)"><stop offset="0" style="stop-color:#ccc;stop-opacity:1"/><stop offset="1" style="stop-color:#88858f;stop-opacity:1"/></linearGradient><linearGradient id="_Linear8" x1="0" y1="0" x2="1" y2="0" gradientUnits="userSpaceOnUse" gradientTransform="matrix(-10.7363,23.5839,-23.5839,-10.7363,110.713,19.89)"><stop offset="0" style="stop-color:#ccc;stop-opacity:1"/><stop offset="1" style="stop-color:#88858f;stop-opacity:1"/></linearGradient><linearGradient id="_Linear9" x1="0" y1="0" x2="1" y2="0" gradientUnits="userSpaceOnUse" gradientTransform="matrix(-10.7363,23.5839,-23.5839,-10.7363,110.713,19.89)"><stop offset="0" style="stop-color:#ccc;stop-opacity:1"/><stop offset="1" style="stop-color:#88858f;stop-opacity:1"/></linearGradient><linearGradient id="_Linear10" x1="0" y1="0" x2="1" y2="0" gradientUnits="userSpaceOnUse" gradientTransform="matrix(-10.7363,23.5839,-23.5839,-10.7363,110.713,19.89)"><stop offset="0" style="stop-color:#ccc;stop-opacity:1"/><stop offset="1" style="stop-color:#88858f;stop-opacity:1"/></linearGradient></defs></svg>