<?xml version="1.0" encoding="UTF-8" standalone="no"?><!DOCTYPE svg PUBLIC "-//W3C//DTD SVG 1.1//EN" "http://www.w3.org/Graphics/SVG/1.1/DTD/svg11.dtd"><svg width="100%" height="100%" viewBox="0 0 256 256" version="1.1" xmlns="http://www.w3.org/2000/svg" xmlns:xlink="http://www.w3.org/1999/xlink" xml:space="preserve" xmlns:serif="http://www.serif.com/" style="fill-rule:evenodd;clip-rule:evenodd;stroke-linecap:round;stroke-linejoin:round;stroke-miterlimit:1.5;"><g id="Bone"><path d="M184.341,114.223c4.45,-0.001 8.628,-10.309 11.234,-13.915c2.593,-3.521 5.755,-6.814 8.767,-9.826c11.385,-11.385 26.341,-8.409 36.066,1.316c9.416,9.416 7.706,24.875 -2.746,36.183c10.452,11.307 12.162,26.766 2.746,36.183c-9.725,9.725 -24.681,12.7 -36.066,1.316c-3.058,-3.058 -6.269,-6.405 -8.95,-9.94c-2.588,-3.614 -6.76,-13.959 -11.205,-13.959c-22.541,-0.053 -89.833,-0.053 -112.374,-0.053c-4.472,0.001 -8.669,10.329 -11.271,13.965c-2.615,3.582 -5.826,6.929 -8.884,9.987c-11.385,11.384 -26.341,8.409 -36.066,-1.316c-9.416,-9.417 -7.706,-24.876 2.746,-36.183c-10.452,-11.308 -12.162,-26.767 -2.746,-36.183c9.725,-9.725 24.681,-12.701 36.066,-1.316c3.012,3.012 6.174,6.305 8.829,9.781c2.593,3.585 6.748,13.909 11.172,13.909c22.542,0.051 90.14,0.051 112.682,0.051Z" style="fill:none;stroke:#6c747d;stroke-width:14.46px;"/><g><path d="M184.341,114.223c4.45,-0.001 8.628,-10.309 11.234,-13.915c2.593,-3.521 5.755,-6.814 8.767,-9.826c11.385,-11.385 26.341,-8.409 36.066,1.316c9.416,9.416 7.706,24.875 -2.746,36.183c10.452,11.307 12.162,26.766 2.746,36.183c-9.725,9.725 -24.681,12.7 -36.066,1.316c-3.058,-3.058 -6.269,-6.405 -8.95,-9.94c-2.588,-3.614 -6.76,-13.959 -11.205,-13.959c-22.541,-0.053 -89.833,-0.053 -112.374,-0.053c-4.472,0.001 -8.669,10.329 -11.271,13.965c-2.615,3.582 -5.826,6.929 -8.884,9.987c-11.385,11.384 -26.341,8.409 -36.066,-1.316c-9.416,-9.417 -7.706,-24.876 2.746,-36.183c-10.452,-11.308 -12.162,-26.767 -2.746,-36.183c9.725,-9.725 24.681,-12.701 36.066,-1.316c3.012,3.012 6.174,6.305 8.829,9.781c2.593,3.585 6.748,13.909 11.172,13.909c22.542,0.051 90.14,0.051 112.682,0.051Z" style="fill:url(#_Linear1);"/><path d="M189.884,116.807c3.143,-0.001 6.095,-8.135 7.937,-10.682c1.832,-2.488 4.066,-4.814 6.194,-6.942c8.044,-8.044 18.61,-5.942 25.482,0.929c6.652,6.653 5.444,17.575 -1.941,25.565c7.385,7.989 8.593,18.911 1.941,25.564c-6.872,6.871 -17.438,8.973 -25.482,0.93c-2.16,-2.161 -4.43,-4.526 -6.324,-7.023c-1.828,-2.553 -4.776,-4.068 -7.916,-4.068c-15.926,-0.06 -107.478,-4.981 -123.404,-4.981c-3.159,0.001 -6.124,6.446 -7.963,9.016c-1.847,2.53 -4.116,4.895 -6.277,7.056c-8.043,8.043 -18.61,5.941 -25.482,-0.93c-6.652,-6.653 -5.444,-17.575 1.941,-25.564c-7.385,-7.99 -8.593,-18.912 -1.941,-25.565c6.872,-6.871 17.439,-8.973 25.482,-0.929c2.128,2.128 4.362,4.454 6.238,6.91c1.832,2.533 4.768,10.678 7.893,10.678c15.927,0.036 107.695,0.036 123.622,0.036Z" style="fill:url(#_Linear2);"/><path d="M229.34,93.742c5.805,3.351 8.574,9.439 6.18,13.586c-2.394,4.146 -9.051,4.792 -14.856,1.44c-5.805,-3.351 -8.574,-9.439 -6.18,-13.586c2.394,-4.146 9.051,-4.792 14.856,-1.44Z" style="fill:#fff;"/><path d="M51.487,97.134c2.251,1.3 3.325,3.66 2.396,5.268c-0.928,1.608 -3.509,1.859 -5.761,0.559c-2.251,-1.3 -3.325,-3.66 -2.396,-5.269c0.928,-1.608 3.509,-1.858 5.761,-0.558Z" style="fill:#fff;"/><path d="M140.997,117.065c19.453,-0.161 35.267,-1.581 35.334,3.838c0.067,5.42 -15.706,4.261 -35.16,4.422c-19.453,0.161 -35.258,2.282 -35.334,-3.839c-0.075,-6.12 15.707,-4.26 35.16,-4.421Z" style="fill:#fff;"/><path d="M32.122,89.819c3.354,-1.618 6.981,-1.059 8.093,1.247c1.113,2.306 -0.708,5.492 -4.063,7.11c-3.355,1.618 -6.981,1.059 -8.093,-1.247c-1.113,-2.306 0.708,-5.492 4.063,-7.11Z" style="fill:#ced4da;"/><path d="M21.146,104.268c1.87,-0.812 3.902,-0.291 4.533,1.163c0.631,1.455 -0.375,3.295 -2.245,4.107c-1.871,0.812 -3.902,0.291 -4.534,-1.164c-0.631,-1.454 0.375,-3.294 2.246,-4.106Z" style="fill:#ced4da;"/><path d="M201.447,107.013c1.871,-0.812 3.902,-0.291 4.534,1.164c0.631,1.454 -0.375,3.294 -2.245,4.106c-1.871,0.813 -3.902,0.291 -4.534,-1.163c-0.631,-1.454 0.375,-3.294 2.245,-4.107Z" style="fill:#ced4da;"/><path d="M36.678,109.16c2.078,-0.902 4.448,-0.064 5.288,1.871c0.841,1.935 -0.165,4.239 -2.244,5.142c-2.078,0.902 -4.448,0.064 -5.288,-1.871c-0.841,-1.935 0.165,-4.239 2.244,-5.142Z" style="fill:#ced4da;"/><path d="M67.956,107.435c3.576,5.999 6.086,8.841 8.343,10.931" style="fill:none;stroke:#6c747d;stroke-width:5.54px;"/><path d="M67.318,149.434c2.518,-4.126 5.108,-8.12 8.343,-10.931" style="fill:none;stroke:#6c747d;stroke-width:5.54px;"/><path d="M187.587,107.922c-2.091,4.613 -4.77,8.399 -8.343,10.931" style="fill:none;stroke:#6c747d;stroke-width:5.54px;"/><path d="M188.171,148.88c-2.345,-4.359 -5.019,-8.179 -8.343,-10.931" style="fill:none;stroke:#6c747d;stroke-width:5.54px;"/></g></g><defs><linearGradient id="_Linear1" x1="0" y1="0" x2="1" y2="0" gradientUnits="userSpaceOnUse" gradientTransform="matrix(2.0771e-14,89.4706,-89.4706,2.0771e-14,31.8621,83.143)"><stop offset="0" style="stop-color:#f1f3f5;stop-opacity:1"/><stop offset="1" style="stop-color:#adb5bd;stop-opacity:1"/></linearGradient><linearGradient id="_Linear2" x1="0" y1="0" x2="1" y2="0" gradientUnits="userSpaceOnUse" gradientTransform="matrix(1.43132e-14,61.6537,-61.6537,1.43132e-14,45.3916,94.8497)"><stop offset="0" style="stop-color:#f1f3f5;stop-opacity:1"/><stop offset="1" style="stop-color:#bfc7ce;stop-opacity:1"/></linearGradient></defs></svg>