<?xml version="1.0" encoding="UTF-8" standalone="no"?><!DOCTYPE svg PUBLIC "-//W3C//DTD SVG 1.1//EN" "http://www.w3.org/Graphics/SVG/1.1/DTD/svg11.dtd"><svg width="100%" height="100%" viewBox="0 0 256 256" version="1.1" xmlns="http://www.w3.org/2000/svg" xmlns:xlink="http://www.w3.org/1999/xlink" xml:space="preserve" xmlns:serif="http://www.serif.com/" style="fill-rule:evenodd;clip-rule:evenodd;stroke-linejoin:round;stroke-miterlimit:2;"><g id="Box---Blue" serif:id="Box - Blue"><path id="Path" d="M235.385,106.357c-1.641,2.559 -10.043,95.133 -11.706,97.062c-1.663,1.929 -83.601,44.581 -88.112,44.438c-4.511,-0.142 -90.907,-40.248 -94.161,-42.281c-3.255,-2.034 -24.933,-89.864 -24.933,-89.864c-0,0 220.553,-11.914 218.912,-9.355Z" style="fill:#2c89af;"/><path id="Path1" serif:id="Path" d="M5.02,72.378c-0,0 78.579,-46.572 122.339,-64.141c6.123,-2.458 121.936,43.868 122.66,50.174c1.275,11.111 -3.983,41.389 -5.784,44.148c-1.8,2.761 -112.224,64.234 -112.224,64.234l-119.384,-48.94c0,0 -10.169,-31.645 -7.607,-45.475Z" style="fill:#c8e3ef;"/><path id="Path2" serif:id="Path" d="M9.566,75.157c-0.336,-1.663 113.241,-64.92 117.812,-64.355c4.571,0.565 122.746,46.829 122.174,50.786c-0.571,3.958 -110.279,69.54 -114.85,69.54c-4.571,0 -123.993,-50.317 -125.136,-55.971Z" style="fill:#fcfffe;"/><path id="Path3" serif:id="Path" d="M43.85,200.668c-0,-0 -24.57,-79.716 -20.571,-78.02c4,1.696 111.423,39.01 113.137,42.402c1.715,3.392 1.715,74.628 -0,78.02c-1.714,3.392 -89.709,-39.575 -92.566,-42.402Z" style="fill:#50c9e9;"/><path id="Path4" serif:id="Path" d="M235.839,109.079c-1.714,3.957 -14.285,91.024 -17.142,93.285c-2.857,2.261 -79.424,42.967 -82.281,40.706c-2.857,-2.261 -1.714,-84.805 1.715,-84.805c3.428,0 99.423,-53.143 97.708,-49.186Z" style="fill:#2c89af;"/><path id="Path5" serif:id="Path" d="M9.566,75.157c-0.571,2.827 5.142,40.141 8.571,44.099c3.428,3.957 113.136,46.925 116.565,47.49c3.429,0.565 3.282,-34.691 0.425,-36.387c-2.857,-1.696 -124.99,-58.029 -125.561,-55.202Z" style="fill:#c8e3ef;"/><path id="Path6" serif:id="Path" d="M136.416,166.746c-0,-0 -0.977,-22.544 -0.902,-36.418c2.856,-1.696 114.61,-72.697 115.753,-68.74c1.143,3.958 -5.714,40.141 -8.571,44.099c-2.857,3.957 -100.957,58.168 -106.28,61.059Z" style="fill:#7ba6c0;"/><path id="Path7" serif:id="Path" d="M130.022,206.684c1.674,0.368 2.109,28.86 -0.463,29.602c-2.571,0.742 -21.753,-7.175 -21.646,-10.461c0.107,-3.286 16.323,-20.413 22.109,-19.141Z" style="fill:#fff;fill-opacity:0.21;"/><path id="Path8" serif:id="Path" d="M129.559,136.216c1.357,1.037 0,23.746 0,23.746c0,-0 -15.96,-3.889 -14.461,-6.327c1.5,-2.438 12.104,-19.221 14.461,-17.419Z" style="fill:#fcfffe;fill-opacity:0.74;"/><path id="Path9" serif:id="Path" d="M234.125,112.471l-1.714,13.569l-95.995,52.579l-111.423,-45.795l-3.428,-10.176l113.137,44.098l99.423,-54.275Z" style="fill:#0a445a;fill-opacity:0.15;"/></g></svg>