<?xml version="1.0" encoding="UTF-8" standalone="no"?><!DOCTYPE svg PUBLIC "-//W3C//DTD SVG 1.1//EN" "http://www.w3.org/Graphics/SVG/1.1/DTD/svg11.dtd"><svg width="100%" height="100%" viewBox="0 0 256 256" version="1.1" xmlns="http://www.w3.org/2000/svg" xmlns:xlink="http://www.w3.org/1999/xlink" xml:space="preserve" xmlns:serif="http://www.serif.com/" style="fill-rule:evenodd;clip-rule:evenodd;stroke-linecap:round;stroke-linejoin:round;stroke-miterlimit:1.5;"><g id="Box---Collect" serif:id="Box - Collect"><ellipse cx="128" cy="88.086" rx="84.541" ry="66.016" style="fill:none;stroke:#f76707;stroke-width:17.33px;"/><path d="M218.354,109.927l-180.708,-0l0,93.003c0,17.11 13.891,31.001 31.001,31.001l118.706,-0c17.11,-0 31.001,-13.891 31.001,-31.001l-0,-93.003Z" style="fill:none;stroke:#c2255c;stroke-width:17.33px;"/><path d="M242.179,99.283c-0,18.628 -15.124,33.751 -33.751,33.751l-160.856,0c-18.627,0 -33.751,-15.123 -33.751,-33.751c0,-18.628 15.124,-33.751 33.751,-33.751l160.856,0c18.627,0 33.751,15.123 33.751,33.751Z" style="fill:none;stroke:#c2255c;stroke-width:17.33px;"/><ellipse cx="128" cy="88.086" rx="84.541" ry="66.016" style="fill:#ffff68;"/><path d="M218.354,109.927l-180.708,-0l0,93.003c0,17.11 13.891,31.001 31.001,31.001l118.706,-0c17.11,-0 31.001,-13.891 31.001,-31.001l-0,-93.003Z" style="fill:#e64980;"/><rect x="37.646" y="115.503" width="180.708" height="34.337" style="fill:#d6336c;"/><path d="M128,138.092c-0,-12.467 -10.122,-22.589 -22.588,-22.589l-45.177,0c-12.467,0 -22.589,10.122 -22.589,22.589l0,64.345c0,12.467 10.122,22.589 22.589,22.589l45.177,-0c12.466,-0 22.588,-10.122 22.588,-22.589l-0,-64.345Z" style="fill:#d6336c;"/><path d="M242.179,99.283c-0,18.628 -15.124,33.751 -33.751,33.751l-160.856,0c-18.627,0 -33.751,-15.123 -33.751,-33.751c0,-18.628 15.124,-33.751 33.751,-33.751l160.856,0c18.627,0 33.751,15.123 33.751,33.751Z" style="fill:#ff659b;"/><path d="M228.048,88.992c0,8.953 -7.268,16.22 -16.22,16.22l-112.785,0c-8.952,0 -16.22,-7.267 -16.22,-16.22c0,-8.952 7.268,-16.219 16.22,-16.219l112.785,-0c8.952,-0 16.22,7.267 16.22,16.219Z" style="fill:#ff96bc;"/></g></svg>