<?xml version="1.0" encoding="UTF-8" standalone="no"?><!DOCTYPE svg PUBLIC "-//W3C//DTD SVG 1.1//EN" "http://www.w3.org/Graphics/SVG/1.1/DTD/svg11.dtd"><svg width="100%" height="100%" viewBox="0 0 256 256" version="1.1" xmlns="http://www.w3.org/2000/svg" xmlns:xlink="http://www.w3.org/1999/xlink" xml:space="preserve" xmlns:serif="http://www.serif.com/" style="fill-rule:evenodd;clip-rule:evenodd;stroke-linejoin:round;stroke-miterlimit:2;"><g id="Box---Brown" serif:id="Box - Brown"><path id="Path" d="M235.301,106.356c-1.641,2.56 -10.044,95.133 -11.707,97.062c-1.663,1.929 -83.6,44.581 -88.111,44.438c-4.511,-0.142 -90.907,-40.248 -94.162,-42.281c-3.255,-2.034 -24.933,-89.863 -24.933,-89.863c0,-0 220.554,-11.915 218.913,-9.356Z" style="fill:#bd7342;"/><path id="Path1" serif:id="Path" d="M4.935,72.377c0,0 78.58,-46.572 122.34,-64.141c6.122,-2.458 123.319,44.631 124.042,50.937c1.276,11.111 -5.365,40.626 -7.166,43.386c-1.801,2.76 -112.225,64.233 -112.225,64.233l-119.383,-48.939c-0,-0 -10.17,-31.646 -7.608,-45.476Z" style="fill:#ccc;"/><path id="Path2" serif:id="Path" d="M9.482,75.156c-0.337,-1.663 113.24,-64.92 117.811,-64.355c4.572,0.565 122.746,46.829 122.175,50.786c-0.571,3.958 -110.28,69.54 -114.85,69.54c-4.572,0 -123.994,-50.317 -125.136,-55.971Z" style="fill:#fcfffe;"/><path id="Path3" serif:id="Path" d="M43.765,200.667c0,-0 -24.57,-79.716 -20.571,-78.02c4.001,1.696 111.424,39.01 113.138,42.402c1.714,3.392 1.714,74.629 -0,78.021c-1.714,3.391 -89.71,-39.576 -92.567,-42.403Z" style="fill:#e09f67;"/><path id="Path4" serif:id="Path" d="M235.755,109.078c-1.715,3.957 -14.285,91.024 -17.142,93.285c-2.857,2.261 -79.425,42.967 -82.281,40.707c-2.858,-2.262 -1.714,-84.805 1.714,-84.805c3.428,-0 99.423,-53.144 97.709,-49.187Z" style="fill:#bd7342;"/><path id="Path5" serif:id="Path" d="M9.482,75.156c-0.572,2.827 5.142,40.141 8.571,44.099c3.428,3.957 113.136,46.925 116.565,47.49c3.428,0.566 3.282,-34.691 0.425,-36.387c-2.857,-1.696 -124.99,-58.029 -125.561,-55.202Z" style="fill:#ccc;"/><path id="Path6" serif:id="Path" d="M136.332,166.745c-0,0 -0.978,-22.543 -0.903,-36.418c2.857,-1.696 114.61,-72.697 115.754,-68.74c1.142,3.958 -5.715,40.141 -8.572,44.099c-2.857,3.957 -100.957,58.169 -106.279,61.059Z" style="fill:#999;"/><path id="Path7" serif:id="Path" d="M129.938,206.683c1.673,0.368 2.108,28.86 -0.463,29.602c-2.572,0.742 -21.754,-7.175 -21.647,-10.461c0.108,-3.286 16.324,-20.413 22.11,-19.141Z" style="fill:#fff;fill-opacity:0.21;"/><path id="Path8" serif:id="Path" d="M129.475,136.215c1.356,1.037 -0,23.746 -0,23.746c-0,-0 -15.961,-3.889 -14.461,-6.327c1.5,-2.438 12.104,-19.22 14.461,-17.419Z" style="fill:#fcfffe;fill-opacity:0.74;"/><path id="Path9" serif:id="Path" d="M234.04,112.47l-1.714,13.569l-95.994,52.579l-111.423,-45.794l-3.428,-10.177l113.137,44.098l99.422,-54.275Z" style="fill:#0a445a;fill-opacity:0.15;"/><path id="Path10" serif:id="Path" d="M58.795,163.802l2.212,10.817l31.95,13.653l-1.571,-10.392l-32.591,-14.078Z" style="fill:#673d21;"/></g></svg>