<?xml version="1.0" encoding="UTF-8" standalone="no"?><!DOCTYPE svg PUBLIC "-//W3C//DTD SVG 1.1//EN" "http://www.w3.org/Graphics/SVG/1.1/DTD/svg11.dtd"><svg width="100%" height="100%" viewBox="0 0 256 256" version="1.1" xmlns="http://www.w3.org/2000/svg" xmlns:xlink="http://www.w3.org/1999/xlink" xml:space="preserve" xmlns:serif="http://www.serif.com/" style="fill-rule:evenodd;clip-rule:evenodd;stroke-linecap:round;stroke-linejoin:round;stroke-miterlimit:1.5;"><g id="Boy-2" serif:id="Boy 2"><path d="M116.201,16.988c-26.433,2.794 -45.365,13.527 -58.119,29.261c-17.632,4.87 -27.896,24.353 -27.896,24.353c-0.752,1.454 -0.648,3.203 0.272,4.557c0.92,1.354 2.508,2.096 4.136,1.932l7.909,-0.797c-3.725,12.174 -5.471,25.63 -5.471,39.78c-0,1.51 0.764,2.918 2.031,3.741c1.268,0.823 2.865,0.948 4.245,0.333c57.99,-25.843 115.979,-26.685 173.969,-0.022c1.381,0.635 2.99,0.523 4.27,-0.297c1.28,-0.82 2.054,-2.235 2.054,-3.755c-0,-7.238 -0.456,-14.293 -1.4,-21.086c0,0 11.791,1.187 11.791,1.187c1.781,0.18 3.497,-0.723 4.357,-2.292c0.861,-1.57 0.701,-3.502 -0.407,-4.907c-0,-0 -11.309,-14.234 -22.729,-20.944c-10.596,-26.302 -31.594,-45.435 -66.134,-50.462c2.364,-2.851 4.671,-4.989 6.998,-7.519c1.206,-1.312 1.516,-3.215 0.788,-4.842c-0.727,-1.626 -2.353,-2.663 -4.135,-2.638c0,0 -20.936,0.304 -36.529,14.417Zm1.943,4.29c14.427,-13.958 34.65,-14.247 34.65,-14.247c-3.862,4.2 -7.639,7.402 -11.719,14.123c37.743,3.069 60.024,22.515 70.572,49.994c11.227,5.921 22.792,20.589 22.792,20.589l-17.567,-1.768c1.537,8.296 2.269,17.054 2.269,26.105c-59.217,-27.227 -118.433,-26.389 -177.649,-0c0,-16.234 2.353,-31.526 7.49,-44.915l-14.834,1.494c-0,-0 9.707,-18.754 26.484,-22.444c12.318,-15.835 31.047,-26.467 57.512,-28.931Z" style="fill:#6c2f05;"/><g><path d="M176.117,216.354c-0,-27.08 -21.986,-49.066 -49.067,-49.066c-27.08,-0 -49.066,21.986 -49.066,49.066l-0,20.652c-0,3.173 1.26,6.216 3.504,8.459c2.243,2.243 5.286,3.504 8.458,3.504c18.871,-0 55.338,-0 74.208,-0c3.173,-0 6.215,-1.261 8.459,-3.504c2.243,-2.243 3.504,-5.286 3.504,-8.459c-0,-9.307 -0,-20.652 -0,-20.652Z" style="fill:#70a446;"/><clipPath id="_clip1"><path d="M176.117,216.354c-0,-27.08 -21.986,-49.066 -49.067,-49.066c-27.08,-0 -49.066,21.986 -49.066,49.066l-0,20.652c-0,3.173 1.26,6.216 3.504,8.459c2.243,2.243 5.286,3.504 8.458,3.504c18.871,-0 55.338,-0 74.208,-0c3.173,-0 6.215,-1.261 8.459,-3.504c2.243,-2.243 3.504,-5.286 3.504,-8.459c-0,-9.307 -0,-20.652 -0,-20.652Z"/></clipPath><g clip-path="url(#_clip1)"><path d="M135.971,172.088c-37.091,15.033 -28.307,29.065 -28.307,88.095l-33.122,-0c-1.758,-8.17 -46.912,-127.09 61.429,-88.095Z" style="fill:#5a8834;"/><path d="M119.589,172.088c37.09,15.033 28.307,29.065 28.307,88.095l33.121,-0c1.759,-8.17 46.912,-127.09 -61.428,-88.095Z" style="fill:#7ec246;"/></g><path d="M176.117,216.354c-0,-27.08 -21.986,-49.066 -49.067,-49.066c-27.08,-0 -49.066,21.986 -49.066,49.066l-0,20.652c-0,3.173 1.26,6.216 3.504,8.459c2.243,2.243 5.286,3.504 8.458,3.504c18.871,-0 55.338,-0 74.208,-0c3.173,-0 6.215,-1.261 8.459,-3.504c2.243,-2.243 3.504,-5.286 3.504,-8.459c-0,-9.307 -0,-20.652 -0,-20.652Z" style="fill:none;stroke:#3a5d28;stroke-width:5.04px;"/><path d="M168.062,222.583c0,-5.979 0,-13.265 0,-13.265c0,-6.931 -2.002,-13.397 -5.457,-18.853c-1.117,-1.762 -3.454,-2.287 -5.217,-1.171c-1.763,1.117 -2.287,3.454 -1.171,5.217c2.714,4.285 4.284,9.364 4.284,14.807c0,-0 0,7.286 0,13.265c0,2.086 1.694,3.78 3.781,3.78c2.086,0 3.78,-1.694 3.78,-3.78Z" style="fill:#a1dd6f;"/></g><ellipse cx="127.201" cy="180.232" rx="26.237" ry="18.545" style="fill:#7ec246;"/><ellipse cx="127.201" cy="178.283" rx="19.136" ry="14.631" style="fill:#5a8834;"/><circle cx="59.316" cy="128.917" r="21.902" style="fill:none;stroke:#6c2f05;stroke-width:8.92px;"/><circle cx="201.317" cy="128.917" r="21.902" style="fill:none;stroke:#6c2f05;stroke-width:8.92px;"/><g><path d="M130.316,61.142c39.036,-0 70.728,34.004 70.728,67.453c-0,33.448 -31.692,53.756 -70.728,53.756c-39.035,-0 -70.727,-20.308 -70.727,-53.756c-0,-33.449 31.692,-67.453 70.727,-67.453Z" style="fill:none;stroke:#6c2f05;stroke-width:8.92px;"/><g><g><circle cx="59.316" cy="128.921" r="21.902" style="fill:#e28363;"/><circle cx="201.317" cy="128.921" r="21.902" style="fill:#e28363;"/><path d="M205.289,123.814c0,0 1.745,3.022 1.313,7.559c-0.222,2.333 -0.944,5.011 -2.676,7.89c-0.215,0.3 -0.147,0.718 0.153,0.934c0.3,0.216 0.719,0.147 0.935,-0.153c2.42,-2.843 3.668,-5.662 4.334,-8.18c1.493,-5.648 -0.213,-9.832 -0.213,-9.832c-0.492,-1.061 -1.753,-1.523 -2.814,-1.031c-1.061,0.491 -1.523,1.752 -1.032,2.813Z" style="fill:#763f33;"/><path d="M217.451,126.057c0.304,-2.309 -1.291,-4.955 -4.476,-6.403c-1.458,-0.662 -3.271,-0.976 -5.378,-0.821c-1.2,0.089 -2.505,0.359 -3.859,0.887c-1.098,0.428 -2.225,1.036 -3.374,1.818c-1.137,0.774 -2.287,1.697 -3.451,2.834c-1.414,1.382 -2.797,3.003 -4.243,4.953c-0.229,0.235 -0.224,0.612 0.011,0.841c0.235,0.229 0.612,0.225 0.841,-0.011c1.502,-1.166 2.921,-2.096 4.284,-2.95c1.58,-0.989 3.048,-1.732 4.427,-2.366c1.052,-0.484 2.046,-0.839 2.973,-1.166c1.055,-0.372 2.018,-0.674 2.928,-0.853c1.567,-0.309 2.911,-0.393 4.075,-0.131c0.983,0.221 1.828,0.514 2.481,1.017c0.875,0.674 1.488,1.465 1.637,2.365c0.004,0.31 0.259,0.559 0.569,0.555c0.31,-0.004 0.558,-0.259 0.555,-0.569Z" style="fill:#763f33;"/><path d="M51.498,122.032c-0,0 -1.707,4.184 -0.213,9.832c0.666,2.518 1.914,5.337 4.334,8.18c0.216,0.3 0.634,0.369 0.934,0.153c0.301,-0.216 0.369,-0.634 0.153,-0.934c-1.732,-2.879 -2.453,-5.557 -2.676,-7.89c-0.432,-4.537 1.313,-7.559 1.313,-7.559c0.492,-1.061 0.03,-2.322 -1.031,-2.813c-1.062,-0.492 -2.323,-0.03 -2.814,1.031Z" style="fill:#763f33;"/><path d="M44.306,126.071c0.149,-0.9 0.762,-1.691 1.637,-2.365c0.653,-0.503 1.497,-0.796 2.481,-1.017c1.164,-0.262 2.508,-0.178 4.074,0.131c0.91,0.179 1.874,0.481 2.929,0.853c0.927,0.327 1.921,0.682 2.973,1.166c1.378,0.634 2.847,1.377 4.427,2.366c1.363,0.854 2.782,1.784 4.283,2.95c0.229,0.236 0.606,0.24 0.842,0.011c0.235,-0.229 0.239,-0.606 0.01,-0.841c-1.445,-1.95 -2.829,-3.571 -4.242,-4.953c-1.164,-1.137 -2.314,-2.06 -3.451,-2.834c-1.149,-0.782 -2.276,-1.39 -3.375,-1.818c-1.353,-0.528 -2.658,-0.798 -3.859,-0.887c-2.106,-0.155 -3.92,0.159 -5.377,0.821c-3.185,1.448 -4.78,4.094 -4.476,6.403c-0.004,0.31 0.245,0.565 0.555,0.569c0.31,0.004 0.565,-0.245 0.569,-0.555Z" style="fill:#763f33;"/></g><path d="M130.316,61.142c39.036,-0 70.728,34.004 70.728,67.453c-0,33.448 -31.692,53.756 -70.728,53.756c-39.035,-0 -70.727,-20.308 -70.727,-53.756c-0,-33.449 31.692,-67.453 70.727,-67.453Z" style="fill:url(#_Radial2);"/><path d="M130.316,45.336l83.297,63.725c-0,-0 -7.767,12.092 -14.415,9.739c-45.734,-16.186 -91.469,-15.8 -137.204,-0c-6.834,2.361 -17.477,-4.045 -17.477,-4.045l85.799,-69.419Z" style="fill:#c76352;"/><path d="M130.316,20.734c64.106,0 88.825,42.723 88.825,95.344c-59.217,-27.226 -118.433,-26.389 -177.649,0c0,-52.621 24.718,-95.344 88.824,-95.344Z" style="fill:#ad4a09;"/><path d="M60.221,132.202l-1.805,-29.672l14.447,-1.857l-12.642,31.529Z" style="fill:#211105;"/><g><path d="M95.502,118.402l14.593,10.761l-14.593,3.118" style="fill:none;stroke:#331f0f;stroke-width:5.8px;"/><path d="M163.172,118.402l-14.592,10.761l14.592,3.118" style="fill:none;stroke:#331f0f;stroke-width:5.8px;"/></g><g><path d="M119.746,106.622l-14.449,-11.863" style="fill:none;stroke:#4e270c;stroke-width:6.72px;"/><path d="M139.575,106.622l14.449,-11.863" style="fill:none;stroke:#4e270c;stroke-width:6.72px;"/></g><path d="M162.272,30.876c-21.767,13.638 -44.189,15.046 -68.205,-0c-14.126,8.367 -24.317,18.757 -29.082,29.688c38.96,-9.677 87.033,-12.485 130.663,-0c-3.379,-12.417 -15.813,-22.769 -33.376,-29.688Z" style="fill:#c2560d;"/><g><g><path d="M127.187,31.478l0,36.267c0,1.727 1.402,3.129 3.129,3.129c1.727,-0 3.129,-1.402 3.129,-3.129l0,-36.267c0,-1.727 -1.402,-3.13 -3.129,-3.13c-1.727,0 -3.129,1.403 -3.129,3.13Z" style="fill:#ad4a09;"/><path d="M108.904,29.209c-11.034,10.477 -19.673,23.01 -26.38,37.198c-0.738,1.561 -0.07,3.428 1.491,4.167c1.562,0.738 3.429,0.069 4.167,-1.492c6.369,-13.473 14.554,-25.386 25.031,-35.335c1.253,-1.19 1.304,-3.172 0.115,-4.424c-1.189,-1.252 -3.172,-1.304 -4.424,-0.114Z" style="fill:#ad4a09;"/><path d="M147.419,33.747c10.477,9.949 18.663,21.862 25.032,35.335c0.738,1.561 2.605,2.23 4.166,1.492c1.562,-0.739 2.23,-2.606 1.492,-4.167c-6.708,-14.188 -15.347,-26.721 -26.38,-37.198c-1.253,-1.19 -3.235,-1.138 -4.424,0.114c-1.189,1.252 -1.138,3.234 0.114,4.424Z" style="fill:#ad4a09;"/></g></g></g><g><path d="M130.978,81.288l3.764,15.845l-7.529,-0l3.765,-15.845Z" style="fill:#c76352;"/><path d="M184.587,91.157l5.97,14.959l-7.529,-2.639l1.559,-12.32Z" style="fill:#c76352;"/><path d="M76.5,91.743l-5.528,13.787l7.529,-1.254l-2.001,-12.533Z" style="fill:#c76352;"/><path d="M60.221,132.202l-1.805,-29.672l14.447,-1.857l-12.642,31.529Z" style="fill:#ad4a09;"/><path d="M201.02,132.202l1.805,-29.672l-14.448,-1.857l12.643,31.529Z" style="fill:#ad4a09;"/><ellipse cx="88.14" cy="149.115" rx="13.404" ry="10.744" style="fill:#c92a2a;fill-opacity:0.2;"/><ellipse cx="169.28" cy="149.828" rx="13.404" ry="10.744" style="fill:#c92a2a;fill-opacity:0.2;"/><path d="M116.282,146.455c-0.073,-0.834 0.207,-1.661 0.773,-2.278c0.565,-0.617 1.364,-0.969 2.201,-0.969c5.207,-0.014 15.602,-0.014 20.808,-0.014c0.842,0 1.644,0.353 2.213,0.973c0.568,0.621 0.85,1.451 0.777,2.289c-0.984,10.601 -6.609,18.746 -13.394,18.746c-6.784,-0 -12.409,-8.145 -13.378,-18.747Z" style="fill:#641e1e;"/><clipPath id="_clip3"><path d="M116.282,146.455c-0.073,-0.834 0.207,-1.661 0.773,-2.278c0.565,-0.617 1.364,-0.969 2.201,-0.969c5.207,-0.014 15.602,-0.014 20.808,-0.014c0.842,0 1.644,0.353 2.213,0.973c0.568,0.621 0.85,1.451 0.777,2.289c-0.984,10.601 -6.609,18.746 -13.394,18.746c-6.784,-0 -12.409,-8.145 -13.378,-18.747Z"/></clipPath><g clip-path="url(#_clip3)"><ellipse cx="129.66" cy="165.202" rx="9.603" ry="8.183" style="fill:#a83333;"/></g><path d="M117.908,21.512c14.443,-14.184 34.886,-14.476 34.886,-14.476c-5.122,5.569 -10.093,9.383 -15.82,21.976c0,-0 -19.066,-4.711 -19.066,-7.5Z" style="fill:#ad4a09;"/><path d="M204.459,68.768c12.81,1.197 29.98,22.974 29.98,22.974l-26.942,-2.713c0,0 -5.453,-18.866 -3.038,-20.261Z" style="fill:#ad4a09;"/><path d="M64.127,49.684c-18.916,1.599 -29.979,22.973 -29.979,22.973l26.941,-2.712c0,-0 5.454,-18.867 3.038,-20.261Z" style="fill:#ad4a09;"/></g></g></g><defs><radialGradient id="_Radial2" cx="0" cy="0" r="1" gradientUnits="userSpaceOnUse" gradientTransform="matrix(-3.42868e-16,60.6046,-60.6046,1.47828e-15,130.316,121.746)"><stop offset="0" style="stop-color:#ffd2b1;stop-opacity:1"/><stop offset="1" style="stop-color:#e28262;stop-opacity:1"/></radialGradient></defs></svg>