<?xml version="1.0" encoding="UTF-8" standalone="no"?><!DOCTYPE svg PUBLIC "-//W3C//DTD SVG 1.1//EN" "http://www.w3.org/Graphics/SVG/1.1/DTD/svg11.dtd"><svg width="100%" height="100%" viewBox="0 0 256 256" version="1.1" xmlns="http://www.w3.org/2000/svg" xmlns:xlink="http://www.w3.org/1999/xlink" xml:space="preserve" xmlns:serif="http://www.serif.com/" style="fill-rule:evenodd;clip-rule:evenodd;stroke-linejoin:round;stroke-miterlimit:2;"><g id="Calendar"><path id="Layer-2" serif:id="Layer 2" d="M66.733,84.567l136.306,-36.145c0,0 4.363,91.979 43.461,129.676c-5.93,2.633 -11.932,5.253 -17.958,7.855c-2.626,1.133 -10.252,-2.357 -10.252,-2.357c-0,-0 -3.082,8.07 -5.802,9.224c-50.639,21.492 -99.866,41.024 -118.58,53.351c-3.343,-3.319 -6.373,-6.867 -9.111,-10.595l-15.062,7.526c0,0 -0.946,-3.563 -2.262,-10.145l-8.648,3.224l-0.083,-0.673c-0.099,0.293 -0.232,0.432 -0.403,0.411c-0.632,-0.081 -2.56,-1.592 -5.262,-3.977c-1.048,-0.926 -2.26,-5.881 -2.26,-5.881c-0,-0 -4.134,-0 -4.798,-0.63c-12.267,-11.64 -29.117,-28.804 -29.117,-28.804l-1.179,-125.259l51.575,-0.101c-0,-0 0.588,3.797 -0.565,13.3Z" style="fill:none;stroke:#868e96;stroke-width:17.33px;"/><path id="Layer-7" serif:id="Layer 7" d="M12.807,42.216c4.91,-6.751 152.183,-34.111 156.839,-32.301c4.43,1.722 44.029,21.423 48.276,26.536c0.021,0.019 0.04,0.039 0.057,0.06c3.956,4.881 2.052,46.363 -0.254,50.894c-2.305,4.531 -135.322,45.788 -148.586,43.743l-0.001,0c-4.667,-0.324 -12.806,-3.266 -13.822,-7.524c-1.23,-5.159 0.864,-30.283 0,-33.906c-0.472,-1.981 -31.682,-19.45 -33.841,-17.627c-1.96,1.655 -0.913,19.529 -1.96,23.223c-1.047,3.693 -9.15,5.448 -9.752,-4.611c-0.273,-4.558 -1.139,-43.514 3.044,-48.487Z" style="fill:none;stroke:#b32c37;stroke-width:17.33px;"/><g><path id="Layer-21" serif:id="Layer 2" d="M205.078,91.826l11.001,85.733l-157.254,58.622l-15.6,-126.91l161.853,-17.445Z" style="fill:#bababa;"/><path id="Layer-3" serif:id="Layer 3" d="M60.383,118.474c-4.354,72.989 9.352,124.628 9.352,124.628l39.788,-19.882c-0,0 -42.508,-108.06 -49.14,-104.746Z" style="fill:#d1d1d1;"/><path id="Layer-4" serif:id="Layer 4" d="M15.723,71.368l1.179,125.259c-0,0 16.85,17.164 29.117,28.804c0.664,0.63 4.798,0.63 4.798,0.63c-0,-0 1.212,4.955 2.26,5.881c2.702,2.385 4.63,3.896 5.262,3.977c3.275,0.418 -7.496,-58.282 0.861,-115.776c10.034,-36.384 8.098,-48.876 8.098,-48.876l-51.575,0.101Z" style="fill:#e3e3e3;"/><path id="Layer-5" serif:id="Layer 5" d="M203.039,48.422c0,0 4.363,91.979 43.461,129.676c-5.93,2.633 -11.932,5.253 -17.958,7.855c-2.626,1.133 -10.252,-2.357 -10.252,-2.357c-0,-0 -3.082,8.07 -5.802,9.224c-50.639,21.492 -99.866,41.024 -118.58,53.351c-52.644,-52.266 -27.768,-161.447 -27.768,-161.447l136.899,-36.302Z" style="fill:#fdfdfd;"/><clipPath id="_clip1"><path id="Layer-51" serif:id="Layer 5" d="M203.039,48.422c0,0 4.363,91.979 43.461,129.676c-5.93,2.633 -11.932,5.253 -17.958,7.855c-2.626,1.133 -10.252,-2.357 -10.252,-2.357c-0,-0 -3.082,8.07 -5.802,9.224c-50.639,21.492 -99.866,41.024 -118.58,53.351c-52.644,-52.266 -27.768,-161.447 -27.768,-161.447l136.899,-36.302Z"/></clipPath><g clip-path="url(#_clip1)"><path id="Layer-6" serif:id="Layer 6" d="M204.176,46.702c-0,-0 0.782,15.312 5.49,50.338c-2.462,4.448 -136.122,42.233 -144.487,30.602c-0.445,-0.618 -2.516,-52.068 -0.307,-52.905c2.469,-0.935 134.773,-32.761 139.304,-28.035Z" style="fill-opacity:0.15;"/></g><path id="Layer-71" serif:id="Layer 7" d="M12.689,42.461c1.308,-6.304 152.242,-34.379 156.957,-32.546c4.715,1.833 49.265,24.03 48.637,27.331c-0.628,3.301 -142.998,57.96 -146.56,56.91c-3.562,-1.049 -59.611,-48.917 -59.034,-51.695Z" style="fill:#ff767e;"/><path id="Layer-8" serif:id="Layer 8" d="M9.763,90.703c-0.298,-4.97 -1.3,-50.838 4.306,-48.953c5.607,1.884 52.929,24.71 53.95,27.435c1.021,2.724 6.817,60.784 3.518,61.805c-3.298,1.021 -14.99,-2.207 -16.221,-7.366c-1.23,-5.159 0.864,-30.283 0,-33.906c-0.472,-1.981 -31.682,-19.45 -33.841,-17.627c-1.96,1.655 -0.913,19.529 -1.96,23.223c-1.047,3.693 -9.15,5.448 -9.752,-4.611Z" style="fill:#ed535a;"/><path id="Layer-9" serif:id="Layer 9" d="M217.979,36.511c3.956,4.881 2.052,46.363 -0.254,50.894c-2.305,4.531 -135.322,45.788 -148.586,43.743c-0.753,-0.116 1.169,-60.172 3.348,-61.085c2.435,-1.021 141.37,-38.638 145.492,-33.552Z" style="fill:#c5303b;"/><g transform="matrix(0.953699,-0.300761,0.300761,0.953699,164.859,-198.042)"><text x="-161.753px" y="364.171px" style="font-family:'FredokaOne-Regular', 'Fredoka One';font-size:70.757px;fill:#1b5a82;">30</text></g><path id="Layer-14" serif:id="Layer 14" d="M20.389,115.556c0.946,-12.005 6.842,-12.566 8.215,-16.547c2.348,-6.803 -2.375,-10.53 2.739,-13.356c3.9,-2.155 20.421,4.101 20.054,23.284c-0.108,5.685 -1.165,12.01 -2.083,27.249c-0.918,15.24 4.648,86.268 -0.368,84.848c-5.017,-1.42 -25.026,-21.522 -27.937,-25.693c-2.911,-4.171 -1.687,-66.237 -0.62,-79.785Z" style="fill:#fff;fill-opacity:0.53;"/></g></g></svg>