<?xml version="1.0" encoding="UTF-8" standalone="no"?><!DOCTYPE svg PUBLIC "-//W3C//DTD SVG 1.1//EN" "http://www.w3.org/Graphics/SVG/1.1/DTD/svg11.dtd"><svg width="100%" height="100%" viewBox="0 0 256 256" version="1.1" xmlns="http://www.w3.org/2000/svg" xmlns:xlink="http://www.w3.org/1999/xlink" xml:space="preserve" xmlns:serif="http://www.serif.com/" style="fill-rule:evenodd;clip-rule:evenodd;stroke-linejoin:round;stroke-miterlimit:2;"><g id="Camera---Teal" serif:id="Camera - Teal"><path id="Layer-2" serif:id="Layer 2" d="M136.139,51.901c0,-9.723 -7.894,-17.618 -17.618,-17.618l-64.087,0c-9.724,0 -17.618,7.895 -17.618,17.618l0,36.525c0,9.724 7.894,17.618 17.618,17.618l64.087,-0c9.724,-0 17.618,-7.894 17.618,-17.618l0,-36.525Z" style="fill:#287e85;"/><path id="Layer-3" serif:id="Layer 3" d="M214.068,38.493c0,-8.378 -6.802,-15.18 -15.18,-15.18l-30.931,0c-8.378,0 -15.18,6.802 -15.18,15.18l-0,53.65c-0,8.378 6.802,15.18 15.18,15.18l30.931,0c8.378,0 15.18,-6.802 15.18,-15.18l0,-53.65Z" style="fill:#287e85;"/><path id="Layer-4" serif:id="Layer 4" d="M251.153,85.558c-0,-22.515 -18.28,-40.794 -40.795,-40.794l-164.716,-0c-22.515,-0 -40.795,18.279 -40.795,40.794l0,81.589c0,22.515 18.28,40.795 40.795,40.795l164.716,-0c22.515,-0 40.795,-18.28 40.795,-40.795l-0,-81.589Z" style="fill:#4fb4ad;"/><path id="Layer-5" serif:id="Layer 5" d="M245.942,87.953c0,-21.227 -17.234,-38.461 -38.461,-38.461l-159.744,-0c-21.228,-0 -38.462,17.234 -38.462,38.461l0,76.923c0,21.227 17.234,38.461 38.462,38.461l159.744,-0c21.227,-0 38.461,-17.234 38.461,-38.461l0,-76.923Z" style="fill:#92eae4;"/><path id="Layer-6" serif:id="Layer 6" d="M66.472,73.616c-0,-5.024 -4.079,-9.102 -9.103,-9.102l-22.55,-0c-5.024,-0 -9.103,4.078 -9.103,9.102l0,1.69c0,5.024 4.079,9.103 9.103,9.103l22.55,0c5.024,0 9.103,-4.079 9.103,-9.103l-0,-1.69Z" style="fill:#287e85;"/><path id="Layer-7" serif:id="Layer 7" d="M219.226,62.19c4.294,-2.488 11.895,2.594 16.963,11.341c5.069,8.748 5.698,17.869 1.404,20.357c-4.294,2.488 -9.771,-6.402 -14.839,-15.15c-5.069,-8.747 -7.822,-14.06 -3.528,-16.548Z" style="fill:#fff;"/><path id="Layer-8" serif:id="Layer 8" d="M210.332,54.394c2.627,-0 4.76,2.133 4.76,4.76c-0,2.627 -2.133,4.759 -4.76,4.759c-2.627,0 -4.76,-2.132 -4.76,-4.759c0,-2.627 2.133,-4.76 4.76,-4.76Z" style="fill:#fff;"/><path id="Layer-9" serif:id="Layer 9" d="M27.247,176.448c2.182,-0.992 4.904,0.291 6.074,2.864c1.17,2.573 0.348,5.467 -1.834,6.46c-2.183,0.992 -4.904,-0.291 -6.074,-2.864c-1.17,-2.573 -0.348,-5.468 1.834,-6.46Z" style="fill:#fff;"/><path id="Layer-10" serif:id="Layer 10" d="M205.659,118.66c0,-0 23.46,35.848 10.547,87.001c-13.727,1.14 -31.191,-3.386 -31.191,-3.386l20.644,-83.615Z" style="fill:#59afa9;"/><path id="Layer-11" serif:id="Layer 11" d="M128,65.47c46.145,0 83.608,37.464 83.608,83.609c0,46.144 -37.463,83.608 -83.608,83.608c-46.145,-0 -83.608,-37.464 -83.608,-83.608c-0,-46.145 37.463,-83.609 83.608,-83.609Z" style="fill:#287e85;"/><path id="Layer-12" serif:id="Layer 12" d="M128,77.36c39.84,0 72.185,32.345 72.185,72.185c-0,39.84 -32.345,72.185 -72.185,72.185c-39.84,-0 -72.185,-32.345 -72.185,-72.185c0,-39.84 32.345,-72.185 72.185,-72.185Z" style="fill:#fff;"/><path id="Layer-13" serif:id="Layer 13" d="M199.487,158.921c-4.729,35.278 -34.979,62.521 -71.542,62.521c-36.563,-0 -66.814,-27.243 -71.542,-62.521l143.084,0Z" style="fill:#d9d7d6;"/><path id="Layer-14" serif:id="Layer 14" d="M191.313,65.095c4.117,-0 7.46,3.342 7.46,7.459c-0,4.117 -3.343,7.46 -7.46,7.46c-4.116,-0 -7.459,-3.343 -7.459,-7.46c0,-4.117 3.343,-7.459 7.459,-7.459Z" style="fill:#287e85;"/><path id="Layer-15" serif:id="Layer 15" d="M128,110.699c21.182,0 38.379,17.197 38.379,38.38c0,21.182 -17.197,38.379 -38.379,38.379c-21.182,-0 -38.379,-17.197 -38.379,-38.379c-0,-21.183 17.197,-38.38 38.379,-38.38Z" style="fill:#363636;"/><path id="Layer-16" serif:id="Layer 16" d="M138.381,121.154c6.937,0 12.568,5.632 12.568,12.568c0,6.937 -5.631,12.568 -12.568,12.568c-6.936,0 -12.568,-5.631 -12.568,-12.568c0,-6.936 5.632,-12.568 12.568,-12.568Z" style="fill:#fff;"/><path id="Layer-17" serif:id="Layer 17" d="M110.208,158.376c2.534,-0 4.591,2.057 4.591,4.59c-0,2.534 -2.057,4.591 -4.591,4.591c-2.533,-0 -4.59,-2.057 -4.59,-4.591c-0,-2.533 2.057,-4.59 4.59,-4.59Z" style="fill:#fff;"/><path id="Layer-18" serif:id="Layer 18" d="M160.997,78.596c1.707,-1.983 11.359,2.756 21.034,11.084c9.676,8.327 15.448,17.395 13.741,19.378c-1.706,1.983 -7.525,-8.274 -17.2,-16.601c-9.675,-8.327 -19.281,-11.879 -17.575,-13.861Z" style="fill:#6dc1bb;"/><path id="Layer-19" serif:id="Layer 19" d="M60.951,187.826c0.977,-0.749 3.354,0.71 5.305,3.255c1.95,2.546 2.741,5.22 1.764,5.968c-0.977,0.749 -3.353,-0.71 -5.304,-3.255c-1.951,-2.545 -2.741,-5.22 -1.765,-5.968Z" style="fill:#6dc1bb;"/></g></svg>