<?xml version="1.0" encoding="UTF-8" standalone="no"?><!DOCTYPE svg PUBLIC "-//W3C//DTD SVG 1.1//EN" "http://www.w3.org/Graphics/SVG/1.1/DTD/svg11.dtd"><svg width="100%" height="100%" viewBox="0 0 256 256" version="1.1" xmlns="http://www.w3.org/2000/svg" xmlns:xlink="http://www.w3.org/1999/xlink" xml:space="preserve" xmlns:serif="http://www.serif.com/" style="fill-rule:evenodd;clip-rule:evenodd;stroke-linejoin:round;stroke-miterlimit:2;"><g id="Camera---Eye" serif:id="Camera - Eye"><path id="Layer-2" serif:id="Layer 2" d="M253.316,71.469c0,-31.2 -25.33,-56.53 -56.53,-56.53l-137.572,-0c-31.2,-0 -56.53,25.33 -56.53,56.53l-0,113.062c-0,31.2 25.33,56.53 56.53,56.53l137.572,0c31.2,0 56.53,-25.33 56.53,-56.53l0,-113.062Z" style="fill:#4da0c1;"/><path id="Layer-3" serif:id="Layer 3" d="M246.261,74.558c-0,-29.367 -23.843,-53.21 -53.21,-53.21l-129.492,-0c-29.368,-0 -53.211,23.843 -53.211,53.21l0,106.421c0,29.368 23.843,53.211 53.211,53.211l129.492,-0c29.367,-0 53.21,-23.843 53.21,-53.211l-0,-106.421Z" style="fill:#77cce9;"/><path id="Layer-4" serif:id="Layer 4" d="M125.786,39.148c54.918,-0 99.505,44.587 99.505,99.505c-0,54.918 -44.587,99.505 -99.505,99.505c-54.918,-0 -99.505,-44.587 -99.505,-99.505c0,-54.918 44.587,-99.505 99.505,-99.505Z" style="fill:#4da0c1;"/><path id="Layer-5" serif:id="Layer 5" d="M127.673,29.106c54.918,-0 99.505,44.587 99.505,99.505c-0,54.918 -44.587,99.504 -99.505,99.504c-54.918,0 -99.505,-44.586 -99.505,-99.504c0,-54.918 44.587,-99.505 99.505,-99.505Z" style="fill:#307692;"/><path id="Layer-6" serif:id="Layer 6" d="M127.673,43.256c47.414,0 85.909,38.495 85.909,85.91c0,47.414 -38.495,85.909 -85.909,85.909c-47.415,0 -85.909,-38.495 -85.909,-85.909c-0,-47.415 38.494,-85.91 85.909,-85.91Z" style="fill:#fff;"/><path id="Layer-7" serif:id="Layer 7" d="M127.632,63.13c36.888,0 66.837,29.949 66.837,66.837c-0,36.888 -29.949,66.837 -66.837,66.837c-36.888,-0 -66.837,-29.949 -66.837,-66.837c0,-36.888 29.949,-66.837 66.837,-66.837Z" style="fill:#d7d7d7;"/><path id="Layer-8" serif:id="Layer 8" d="M212.752,140.325c-5.628,41.985 -41.63,74.407 -85.145,74.407c-43.515,0 -79.517,-32.422 -85.144,-74.407l170.289,-0Z" style="fill-opacity:0.13;"/><path id="Layer-9" serif:id="Layer 9" d="M40.657,37.558c4.319,-0 7.825,3.506 7.825,7.825c-0,4.319 -3.506,7.825 -7.825,7.825c-4.319,-0 -7.825,-3.506 -7.825,-7.825c-0,-4.319 3.506,-7.825 7.825,-7.825Z" style="fill:#4da0c1;"/><path id="Layer-10" serif:id="Layer 10" d="M127.673,82.934c25.209,0 45.676,20.467 45.676,45.677c0,25.209 -20.467,45.676 -45.676,45.676c-25.21,0 -45.677,-20.467 -45.677,-45.676c0,-25.21 20.467,-45.677 45.677,-45.677Z" style="fill:#363636;"/><path id="Layer-11" serif:id="Layer 11" d="M144.709,94.187c8.256,-0 14.958,6.702 14.958,14.957c-0,8.256 -6.702,14.958 -14.958,14.958c-8.255,-0 -14.957,-6.702 -14.957,-14.958c-0,-8.255 6.702,-14.957 14.957,-14.957Z" style="fill:#fff;"/><path id="Layer-12" serif:id="Layer 12" d="M106.499,139.676c3.015,-0 5.463,2.448 5.463,5.463c-0,3.015 -2.448,5.463 -5.463,5.463c-3.016,0 -5.464,-2.448 -5.464,-5.463c0,-3.015 2.448,-5.463 5.464,-5.463Z" style="fill:#fff;"/><path id="Layer-13" serif:id="Layer 13" d="M166.944,44.727c2.031,-2.36 13.518,3.281 25.033,13.191c11.515,9.911 18.384,20.704 16.353,23.063c-2.03,2.36 -8.955,-9.847 -20.47,-19.757c-11.515,-9.911 -22.947,-14.137 -20.916,-16.497Z" style="fill:#77cce9;"/><path id="Layer-14" serif:id="Layer 14" d="M47.876,174.725c1.163,-0.891 3.991,0.845 6.313,3.874c2.321,3.03 3.262,6.212 2.1,7.103c-1.163,0.891 -3.991,-0.845 -6.313,-3.874c-2.321,-3.029 -3.262,-6.212 -2.1,-7.103Z" style="fill:#77cce9;"/><path id="Layer-15" serif:id="Layer 15" d="M214.457,37.301c5.11,-2.961 14.156,3.087 20.188,13.498c6.032,10.411 6.781,21.267 1.671,24.227c-5.11,2.961 -11.629,-7.619 -17.661,-18.03c-6.032,-10.41 -9.308,-16.734 -4.198,-19.695Z" style="fill:#fff;"/><path id="Layer-16" serif:id="Layer 16" d="M203.872,28.023c3.126,0 5.664,2.538 5.664,5.665c0,3.126 -2.538,5.665 -5.664,5.665c-3.127,-0 -5.665,-2.539 -5.665,-5.665c-0,-3.127 2.538,-5.665 5.665,-5.665Z" style="fill:#fff;"/><path id="Layer-17" serif:id="Layer 17" d="M27.494,203.205c2.598,-1.181 5.837,0.346 7.229,3.408c1.393,3.062 0.415,6.507 -2.183,7.688c-2.597,1.181 -5.836,-0.346 -7.228,-3.408c-1.393,-3.062 -0.415,-6.507 2.182,-7.688Z" style="fill:#fff;"/></g></svg>