<?xml version="1.0" encoding="UTF-8" standalone="no"?><!DOCTYPE svg PUBLIC "-//W3C//DTD SVG 1.1//EN" "http://www.w3.org/Graphics/SVG/1.1/DTD/svg11.dtd"><svg width="100%" height="100%" viewBox="0 0 256 256" version="1.1" xmlns="http://www.w3.org/2000/svg" xmlns:xlink="http://www.w3.org/1999/xlink" xml:space="preserve" xmlns:serif="http://www.serif.com/" style="fill-rule:evenodd;clip-rule:evenodd;stroke-linecap:round;stroke-linejoin:round;stroke-miterlimit:1.5;"><g id="Cancel"><path d="M127.438,73.566c27.81,-27.484 51.754,-49.457 56.833,-50.149c11.087,-1.509 38.146,21.967 44.037,36.316l0,0.001c2.311,4.116 3.515,12.897 1.804,18.171c-1.404,4.328 -21.898,25.965 -47.837,51.728c21.507,22.707 39.165,42.319 44.961,50.412l0.011,0.013c4.634,5.527 4.148,11.026 4.148,13.36c-0,11.824 -31.821,44.409 -46.703,38.404c-5.648,-2.279 -29.231,-23.676 -56.561,-49.961c-27.98,26.227 -52.243,47.66 -57.946,49.961c-14.883,6.005 -41.584,-25.292 -44.762,-36.681c-1.203,-4.312 -1.292,-10.366 1.008,-13.3l0.001,-0.002c4.138,-6.732 23.555,-28.371 47.478,-53.588c-25.839,-26.247 -46.379,-48.274 -48.089,-52.504c-1.22,-3.02 -1.749,-12.764 1.612,-17.893l0.004,-0.006c7.304,-14.423 32.555,-35.876 43.169,-34.431c5.079,0.692 29.022,22.665 56.832,50.149Z" style="fill:none;stroke:#af2525;stroke-width:16.27px;"/><path d="M70.606,32.302c11.515,1.568 126.009,111.224 156.641,147.756c4.634,5.527 4.148,11.026 4.148,13.36c-0,11.824 -31.821,44.409 -46.703,38.404c-14.883,-6.005 -154.295,-144.754 -158.871,-156.075c-1.22,-3.02 -1.749,-12.764 1.612,-17.893c9.242,-14.101 33.45,-26.875 43.173,-25.552Z" style="fill:#f03e3e;"/><path d="M184.271,32.302c-12.083,1.646 -134.191,119.368 -157.84,149.539c-2.3,2.934 -2.211,8.988 -1.008,13.3c3.178,11.389 29.879,42.686 44.762,36.681c14.882,-6.005 156.159,-142.302 159.927,-153.917c1.711,-5.274 0.507,-14.055 -1.804,-18.171c-8.073,-14.378 -33.729,-28.835 -44.037,-27.432Z" style="fill:#f03e3e;"/><path d="M70.606,23.417c13.258,1.806 155.051,148.615 158.586,159.898c3.534,11.284 -29.618,45.627 -44.5,39.622c-14.883,-6.005 -154.295,-144.754 -158.871,-156.076c-4.575,-11.321 31.527,-45.249 44.785,-43.444Z" style="fill:#fa5252;"/><path d="M184.271,23.417c-13.258,1.806 -155.051,148.615 -158.586,159.898c-3.534,11.284 29.617,45.627 44.5,39.622c14.882,-6.005 154.295,-144.754 158.87,-156.076c4.576,-11.321 -31.526,-45.249 -44.784,-43.444Z" style="fill:#fa5252;"/><path d="M203.895,36.233c9.455,7.716 14.079,17.719 10.321,22.324c-3.758,4.605 -14.485,2.08 -23.94,-5.636c-9.455,-7.715 -14.079,-17.719 -10.321,-22.324c3.758,-4.605 14.485,-2.08 23.94,5.636Z" style="fill:#fff;"/><path d="M200.897,157.253c8.388,7.808 13.491,15.983 11.387,18.243c-2.104,2.26 -10.622,-2.245 -19.01,-10.053c-8.389,-7.808 -13.491,-15.982 -11.387,-18.242c2.104,-2.26 10.622,2.244 19.01,10.052Z" style="fill:#ffc9c9;"/></g></svg>