<?xml version="1.0" encoding="UTF-8" standalone="no"?><!DOCTYPE svg PUBLIC "-//W3C//DTD SVG 1.1//EN" "http://www.w3.org/Graphics/SVG/1.1/DTD/svg11.dtd"><svg width="100%" height="100%" viewBox="0 0 256 256" version="1.1" xmlns="http://www.w3.org/2000/svg" xmlns:xlink="http://www.w3.org/1999/xlink" xml:space="preserve" xmlns:serif="http://www.serif.com/" style="fill-rule:evenodd;clip-rule:evenodd;stroke-linecap:round;stroke-linejoin:round;stroke-miterlimit:1.5;"><g id="Candy---Spiral" serif:id="Candy - Spiral"><circle cx="128" cy="128" r="118.43" style="fill:none;stroke:#00afe3;stroke-width:17.33px;"/><circle cx="128" cy="128" r="118.43" style="fill:#fff;"/><g><circle cx="128" cy="128" r="118.43" style="fill:#c4ffff;"/><clipPath id="_clip1"><circle cx="128" cy="128" r="118.43"/></clipPath><g clip-path="url(#_clip1)"><path id="Spiral" d="M266.057,111.407c-2.901,30.842 -19.438,57.207 -42.683,75.843c-23.215,18.612 -53.307,29.39 -84.02,29.043c-29.114,-0.33 -54.499,-11.734 -72.083,-30.072c-17.56,-18.313 -26.935,-43.729 -24.314,-71.597l0,-0.001c0.926,-9.849 4.202,-19.387 9.22,-28.092c4.97,-8.625 11.82,-16.331 20.06,-22.703c8.326,-6.438 17.793,-11.052 27.665,-13.822c9.834,-2.759 20.121,-3.494 30.176,-2.161c0.022,0.003 0.044,0.005 0.066,0.008c21.785,2.826 37.163,10.64 47.441,20.827c13.396,13.277 17.444,30.385 16.344,42.082c-1.103,11.726 -7.451,21.764 -16.254,28.958c-9.038,7.386 -20.929,11.538 -33.491,11.396c-10.935,-0.124 -20.584,-3.831 -26.923,-10.401c-5.367,-5.562 -7.363,-13.516 -5.437,-22.316c0.753,-3.441 4.109,-4.863 7.132,-5.665c3.184,-0.844 7.929,-1.77 8.169,2.162c1.14,15.751 14.853,27.613 30.604,26.473c15.751,-1.14 27.613,-14.854 26.473,-30.604c-3.165,-37.779 -32.68,-56.117 -63.987,-54.518c-28.073,1.434 -56.081,19.574 -62.218,51.01c-5.583,28.593 3.198,53.672 20.958,71.264c15.719,15.572 38.725,25.568 65.229,25.268c25.175,-0.285 48.718,-9.394 66.493,-24.602c18.833,-16.114 31.475,-38.674 33.301,-64.288c1.618,-22.7 -5.999,-56.049 -32.522,-81.174c-16.733,-15.85 -40.988,-28.956 -75.779,-32.671c-16.278,-1.785 -32.926,-0.24 -48.763,4.592c-15.357,4.686 -29.998,12.273 -42.804,22.648c-12.735,10.316 -23.165,22.742 -30.677,36.486c-7.871,14.4 -12.723,30.14 -13.872,46.257c0,-0.001 0,-0 0,-0c-2.92,40.961 11.815,77.874 38.178,104.151c25.185,25.102 60.868,40.755 101.615,40.294c39.561,-0.447 78.036,-15.105 107.389,-39.749c30.102,-25.272 50.789,-60.719 53.694,-101.484c0.784,-9.488 -6.281,-17.827 -15.769,-18.611c-9.487,-0.784 -17.827,6.282 -18.611,15.769Z" style="fill:#fff;"/><path id="Spiral1" serif:id="Spiral" d="M254.741,114.127c-2.543,27.889 -17.337,51.817 -38.302,68.723c-20.86,16.821 -47.92,26.647 -75.581,26.413c-26.576,-0.225 -49.782,-10.562 -65.879,-27.254c-16.207,-16.805 -24.988,-40.138 -22.649,-65.788l0,-0.001c0.843,-9.244 3.838,-18.221 8.522,-26.402c4.609,-8.049 10.935,-15.28 18.596,-21.238c7.734,-6.016 16.517,-10.374 25.7,-12.978c9.207,-2.612 18.842,-3.366 28.266,-2.144c0.014,0.002 0.029,0.004 0.043,0.006c20.353,2.581 34.706,9.909 44.331,19.396c13.051,12.862 17.01,29.481 15.973,40.848c-1.067,11.706 -7.224,21.826 -15.989,29.03c-8.827,7.254 -20.42,11.452 -32.716,11.348c-11.206,-0.095 -21.072,-3.951 -27.587,-10.664c-5.991,-6.174 -8.537,-14.945 -6.421,-24.745c1.515,-7.018 8.57,-10.012 14.867,-10.209c4.919,-0.153 10.171,1.99 10.55,7.93c0.742,10.248 9.664,17.966 19.912,17.224c10.248,-0.742 17.966,-9.664 17.225,-19.912c-2.344,-28.972 -25.13,-42.87 -49.136,-41.712c-21.796,1.051 -43.606,15.039 -48.44,39.429c-4.495,22.68 2.465,42.591 16.52,56.593c12.618,12.57 31.174,20.518 52.51,20.337c20.503,-0.173 39.677,-7.596 54.188,-19.94c15.291,-13.008 25.544,-31.275 27.081,-52.017c1.374,-18.526 -4.907,-45.712 -26.499,-66.283c-13.825,-13.171 -33.954,-23.943 -62.768,-27.103c-13.474,-1.516 -27.248,-0.235 -40.361,3.725c-12.751,3.851 -24.901,10.144 -35.55,18.721c-10.585,8.525 -19.241,18.826 -25.503,30.206c-6.542,11.887 -10.561,24.899 -11.549,38.221c0,-0 0,-0 0,-0c-2.533,34.168 9.735,64.982 31.669,86.968c21.043,21.094 50.949,34.195 85.094,33.906c33.418,-0.283 65.933,-12.633 90.786,-33.379c25.427,-21.225 42.92,-51.061 45.467,-85.406c0.51,-6.173 -4.088,-11.599 -10.261,-12.109c-6.172,-0.51 -11.598,4.087 -12.109,10.26Z" style="fill:url(#_Linear2);"/><path id="Spiral2" serif:id="Spiral" d="M256.782,114.296c-2.552,28.476 -17.578,52.951 -38.956,70.245c-21.228,17.173 -48.783,27.243 -76.968,27.048c-27.266,-0.189 -51.09,-10.76 -67.633,-27.861c-16.72,-17.285 -25.839,-41.294 -23.471,-67.72l0,-0.001c0.862,-9.615 3.939,-18.964 8.798,-27.48c4.764,-8.35 11.295,-15.868 19.226,-22.057c8.003,-6.245 17.089,-10.789 26.599,-13.502c9.565,-2.729 19.577,-3.542 29.373,-2.287c0.012,0.002 0.024,0.003 0.036,0.004c21.123,2.647 36.01,10.272 46.013,20.1c13.819,13.577 18.011,31.149 16.933,43.168c-1.123,12.53 -7.633,23.404 -17.001,31.128c-9.352,7.71 -21.631,12.222 -34.675,12.132c-12.13,-0.084 -22.798,-4.291 -29.861,-11.547c-6.715,-6.899 -9.693,-16.68 -7.343,-27.651c1.841,-8.592 10.223,-12.621 17.931,-12.874c6.659,-0.219 13.544,2.971 14.07,11.011c0.607,8.379 7.901,14.688 16.279,14.082c8.378,-0.607 14.688,-7.901 14.081,-16.279c-2.132,-26.872 -23.349,-39.669 -45.615,-38.63c-20.38,0.952 -40.822,13.965 -45.377,36.763c-4.296,21.501 2.291,40.389 15.599,53.688c12.052,12.044 29.825,19.596 50.236,19.455c19.754,-0.137 38.23,-7.286 52.229,-19.157c14.703,-12.469 24.562,-30.003 26.069,-49.92c1.353,-17.872 -4.737,-44.083 -25.539,-63.962c-13.436,-12.841 -33.045,-23.281 -61.086,-26.4c-13.107,-1.495 -26.503,-0.251 -39.261,3.581c-12.427,3.732 -24.265,9.857 -34.651,18.196c-10.322,8.287 -18.757,18.315 -24.873,29.389c-6.377,11.545 -10.293,24.192 -11.273,37.142c0,-0 0,-0 0,-0c-2.527,33.39 9.442,63.515 30.846,85.036c20.585,20.698 49.887,33.53 83.341,33.299c32.892,-0.228 64.905,-12.362 89.399,-32.744c25.025,-20.823 42.258,-50.129 44.813,-83.883c0.417,-5.047 -3.342,-9.483 -8.388,-9.9c-5.047,-0.417 -9.483,3.341 -9.9,8.388Z" style="fill:url(#_Linear3);"/><path id="Spiral3" serif:id="Spiral" d="M237.647,172.782c-12.304,13.004 -27.595,23.333 -44.454,30.318c-16.39,6.789 -34.257,10.392 -52.335,10c-11.326,-0.222 -22.061,-2.141 -32.025,-5.395c-15.904,-5.193 -29.756,-13.966 -40.708,-25.324c-18.1,-18.768 -28.209,-44.672 -25.719,-73.33l0,-0c0.897,-10.68 4.212,-21.09 9.551,-30.576c5.194,-9.227 12.306,-17.577 20.999,-24.446c8.765,-6.937 18.721,-12.034 29.171,-15.094c10.606,-3.106 21.721,-4.115 32.616,-2.798c0.004,0 0.008,0.001 0.012,0.001c23.436,2.752 39.933,11.235 51.108,22.039c16.232,15.693 21.19,36.169 20.053,50.186c-1.215,15.108 -8.804,28.35 -19.997,37.77c-10.979,9.239 -25.419,14.833 -40.863,14.895c-15.204,0.124 -28.565,-5.157 -37.568,-14.104c-9.357,-9.299 -13.971,-22.528 -11.024,-37.616c2.785,-14.417 15.954,-22.331 28.822,-23.013c13.361,-0.708 26.53,6.421 27.911,22.542c0.073,1.014 0.956,1.777 1.969,1.704c1.014,-0.073 1.777,-0.956 1.704,-1.97c-1.112,-18.801 -16.207,-27.511 -31.775,-27.099c-15.216,0.403 -30.744,9.688 -34.485,26.624c-3.798,17.363 1.31,32.765 11.917,43.723c10.067,10.4 25.19,16.756 42.529,16.897c17.353,0.071 33.638,-6.089 46.04,-16.393c12.914,-10.729 21.603,-25.946 23.075,-43.278c1.336,-15.869 -4.079,-39.132 -22.42,-56.944c-12.239,-11.887 -30.263,-21.395 -55.98,-24.459c-12.041,-1.461 -24.33,-0.366 -36.053,3.065c-11.493,3.364 -22.441,8.975 -32.079,16.605c-9.572,7.59 -17.397,16.812 -23.1,26.998c-5.916,10.566 -9.554,22.165 -10.52,34.048c0,-0 0,-0 0,-0c-2.443,31.153 8.593,59.373 28.598,79.426c11.951,11.979 27.09,21.052 44.318,26.068c10.599,3.086 21.994,4.607 33.923,4.373c18.632,-0.404 36.906,-4.814 53.452,-12.599c16.687,-7.851 31.584,-19.089 43.337,-32.844Z" style="fill:url(#_Linear4);"/></g><path d="M160.965,31.603c8.467,2.268 14.612,6.827 13.716,10.173c-0.897,3.346 -8.498,4.22 -16.965,1.952c-8.466,-2.269 -14.612,-6.827 -13.716,-10.173c0.897,-3.346 8.499,-4.221 16.965,-1.952Z" style="fill:#fff;"/><path d="M139.003,82.505c4.97,1.332 8.578,4.008 8.052,5.972c-0.527,1.965 -4.989,2.478 -9.96,1.147c-4.97,-1.332 -8.578,-4.008 -8.052,-5.973c0.527,-1.964 4.989,-2.478 9.96,-1.146Z" style="fill:#fff;"/><path d="M126.755,159.256c4.922,1.319 8.494,3.968 7.973,5.913c-0.521,1.946 -4.94,2.454 -9.862,1.135c-4.921,-1.318 -8.494,-3.968 -7.973,-5.913c0.521,-1.945 4.94,-2.454 9.862,-1.135Z" style="fill:#fff;"/><path d="M106.27,207.708c4.604,1.234 7.946,3.712 7.458,5.532c-0.487,1.82 -4.621,2.295 -9.225,1.062c-4.604,-1.234 -7.946,-3.713 -7.459,-5.532c0.488,-1.82 4.622,-2.296 9.226,-1.062Z" style="fill:#fff;"/></g></g><defs><linearGradient id="_Linear2" x1="0" y1="0" x2="1" y2="0" gradientUnits="userSpaceOnUse" gradientTransform="matrix(-67.7984,196.586,-196.586,-67.7984,162.231,31.2914)"><stop offset="0" style="stop-color:#00c9f1;stop-opacity:1"/><stop offset="1" style="stop-color:#009bd8;stop-opacity:1"/></linearGradient><linearGradient id="_Linear3" x1="0" y1="0" x2="1" y2="0" gradientUnits="userSpaceOnUse" gradientTransform="matrix(-66.7735,188.033,-188.033,-66.7735,160.218,37.6408)"><stop offset="0" style="stop-color:#30ebff;stop-opacity:1"/><stop offset="1" style="stop-color:#30b0ec;stop-opacity:1"/></linearGradient><linearGradient id="_Linear4" x1="0" y1="0" x2="1" y2="0" gradientUnits="userSpaceOnUse" gradientTransform="matrix(-54.5309,172.441,-172.441,-54.5309,159.917,37.5322)"><stop offset="0" style="stop-color:#00f9ff;stop-opacity:1"/><stop offset="1" style="stop-color:#00cbff;stop-opacity:1"/></linearGradient></defs></svg>