<?xml version="1.0" encoding="UTF-8" standalone="no"?><!DOCTYPE svg PUBLIC "-//W3C//DTD SVG 1.1//EN" "http://www.w3.org/Graphics/SVG/1.1/DTD/svg11.dtd"><svg width="100%" height="100%" viewBox="0 0 256 256" version="1.1" xmlns="http://www.w3.org/2000/svg" xmlns:xlink="http://www.w3.org/1999/xlink" xml:space="preserve" xmlns:serif="http://www.serif.com/" style="fill-rule:evenodd;clip-rule:evenodd;stroke-linecap:round;stroke-linejoin:round;stroke-miterlimit:1.41421;"><g id="Cat-2" serif:id="Cat 2"><g id="Figure"><path d="M210.075,177.105l0,-0l-10.219,-51.105l-123.974,-0.863l-10.578,52.503l0,-0c-1.315,4.599 -2.011,9.395 -2.011,14.326c0,34.14 33.371,61.857 74.475,61.857c41.103,0 74.474,-27.717 74.474,-61.857c0,-5.123 -0.751,-10.1 -2.167,-14.861Z" style="fill:url(#_Radial1);"/><clipPath id="_clip2"><path d="M210.075,177.105l0,-0l-10.219,-51.105l-123.974,-0.863l-10.578,52.503l0,-0c-1.315,4.599 -2.011,9.395 -2.011,14.326c0,34.14 33.371,61.857 74.475,61.857c41.103,0 74.474,-27.717 74.474,-61.857c0,-5.123 -0.751,-10.1 -2.167,-14.861Z"/></clipPath><g clip-path="url(#_clip2)"><ellipse cx="124.179" cy="181.635" rx="73.749" ry="58.212" style="fill:url(#_Radial3);"/><ellipse cx="107.528" cy="179.151" rx="73.749" ry="30.075" style="fill:url(#_Radial4);"/><path d="M74.516,109.585c-19.03,17.311 -30.409,41.296 -26.919,66.513c4.388,31.7 17.866,50.813 26.221,59.811c12.656,13.632 73.978,49.784 140.126,9.649c6.207,-3.766 11.073,-8.055 14.856,-12.659c-2.346,1.974 -4.963,3.856 -7.875,5.622c-66.148,40.135 -127.47,3.983 -140.126,-9.648c-8.355,-8.999 -21.833,-28.112 -26.221,-59.811c-3.039,-21.959 5.197,-42.984 19.938,-59.477Z" style="fill:#fff;fill-opacity:0.58;"/></g><g><path d="M224.5,111.43l24.404,-7.795" style="fill:none;stroke:#3c2800;stroke-width:2.75px;"/><path d="M222.783,121.626l24.363,2.914" style="fill:none;stroke:#3c2800;stroke-width:2.75px;"/></g><path d="M137.356,16.99c-49.114,-1.133 -96.187,41.276 -91.314,90.028c3.18,31.824 15.331,51.361 22.949,60.624c11.54,14.031 68.365,52.137 132.069,14.152c38.048,-22.688 25.437,-68.32 23.673,-81.496c-7.843,-58.576 -38.262,-82.175 -87.377,-83.308Z" style="fill:url(#_Linear5);"/><clipPath id="_clip6"><path d="M137.356,16.99c-49.114,-1.133 -96.187,41.276 -91.314,90.028c3.18,31.824 15.331,51.361 22.949,60.624c11.54,14.031 68.365,52.137 132.069,14.152c38.048,-22.688 25.437,-68.32 23.673,-81.496c-7.843,-58.576 -38.262,-82.175 -87.377,-83.308Z"/></clipPath><g clip-path="url(#_clip6)"><path d="M251.181,50.278c17.093,33.273 12.245,66.969 -10.819,75.2c-23.063,8.232 -55.665,-12.098 -72.758,-45.371c-17.093,-33.272 -12.246,-66.968 10.818,-75.2c23.064,-8.231 55.666,12.099 72.759,45.371Z" style="fill:url(#_Linear7);"/><path d="M114.635,44.675c41.653,27.982 55.188,74.86 30.205,104.619c-24.983,29.758 -79.083,31.2 -120.736,3.218c-41.654,-27.982 -55.189,-74.859 -30.206,-104.618c24.983,-29.758 79.083,-31.201 120.737,-3.219Z" style="fill:url(#_Linear8);"/><path d="M64.205,46.853c-19.029,17.311 -30.408,41.296 -26.918,66.513c4.388,31.7 17.866,50.813 26.221,59.811c12.656,13.632 73.978,49.784 140.126,9.649c6.207,-3.766 11.073,-8.055 14.856,-12.659c-2.346,1.974 -4.963,3.856 -7.875,5.623c-66.148,40.134 -127.47,3.983 -140.126,-9.649c-8.355,-8.998 -21.833,-28.112 -26.221,-59.811c-3.039,-21.959 5.197,-42.984 19.937,-59.477Z" style="fill:#fff;fill-opacity:0.58;"/></g><g><path d="M116.635,137.918c0.155,-1.857 1.321,-3.61 2.964,-5.192c2.227,-2.145 5.408,-3.874 8.813,-4.938c2.734,-0.854 5.617,-1.296 8.327,-1.015c2.707,0.28 5.241,1.227 7.163,3.188c0.666,0.706 1.779,0.738 2.485,0.073c0.705,-0.666 0.738,-1.779 0.072,-2.485c-4.661,-5.096 -12.392,-5.793 -19.265,-3.661c-4.041,1.254 -7.741,3.494 -10.297,6.123c-2.278,2.342 -3.662,5.022 -3.771,7.689c-0.06,0.968 0.678,1.803 1.646,1.863c0.968,0.06 1.803,-0.677 1.863,-1.645Z" style="fill:#49320c;"/><path d="M218.666,104.127c-2.751,-3.929 -7.631,-4.614 -11.167,-2.431c-2.86,1.766 -4.885,5.462 -4,10.731c0.103,0.693 0.75,1.173 1.443,1.071c0.694,-0.103 1.174,-0.75 1.071,-1.443c-0.498,-3.893 0.937,-6.548 3.038,-7.846c2.38,-1.469 5.608,-1.154 7.562,1.416c0.413,0.567 1.209,0.691 1.775,0.278c0.567,-0.414 0.691,-1.209 0.278,-1.776Z" style="fill:#49320c;"/><g><path d="M196.911,91.596c0.629,-0.614 1.591,-0.564 2.148,0.112l2.727,3.309c0.557,0.676 0.499,1.724 -0.13,2.338c-0.628,0.614 -1.591,0.564 -2.148,-0.112l-2.727,-3.31c-0.557,-0.676 -0.499,-1.723 0.13,-2.337Z" style="fill:#59370b;"/><path d="M209.52,86.723c-0.824,0.06 -1.486,0.778 -1.479,1.602l0.046,4.938c0.008,0.825 0.683,1.446 1.507,1.386c0.824,-0.06 1.487,-0.777 1.479,-1.602l-0.046,-4.938c-0.007,-0.824 -0.683,-1.445 -1.507,-1.386Z" style="fill:#59370b;"/></g><g><path d="M111.209,114.642c0.608,-0.603 1.592,-0.598 2.195,0.01l3.186,3.214c0.603,0.609 0.599,1.592 -0.009,2.195c-0.608,0.603 -1.592,0.599 -2.195,-0.009l-3.186,-3.215c-0.604,-0.608 -0.599,-1.591 0.009,-2.195Z" style="fill:#59370b;"/><path d="M123.967,109.689c-0.853,0.076 -1.484,0.83 -1.409,1.683l0.399,4.509c0.075,0.853 0.829,1.484 1.683,1.409c0.853,-0.076 1.484,-0.83 1.409,-1.683l-0.399,-4.509c-0.076,-0.853 -0.83,-1.484 -1.683,-1.409Z" style="fill:#59370b;"/></g></g><g><path d="M183.504,133.699c-0,-0 0.317,1.118 1.96,6.909c1.643,5.791 -1.528,12.314 -7.077,14.557c-3.914,1.583 -7.973,0.617 -10.601,-2.122" style="fill:none;stroke:#583f09;stroke-width:2.97px;stroke-miterlimit:1.5;"/><path d="M200.347,139.876c-0.213,3.888 -1.963,7.204 -4.747,8.329c-3.946,1.596 -8.484,-1.81 -10.127,-7.601" style="fill:none;stroke:#583f09;stroke-width:2.59px;stroke-miterlimit:1.5;"/></g><path d="M181.029,124.562c1.552,-5.325 6.805,-7.079 9.968,-5.732c3.164,1.347 4.239,5.795 2.687,11.12c-0.349,1.338 -1.031,2.787 -1.911,4.255c-1.768,2.956 -4.73,5.096 -8.122,5.869c-3.392,0.772 -6.88,0.102 -9.566,-1.838c-0.505,-0.434 -0.994,-0.84 -1.412,-1.269c-3.701,-3.571 -4.776,-8.019 -2.687,-11.12c2.089,-3.101 7.342,-4.856 11.043,-1.285Z" style="fill:#f06595;"/><path d="M239.715,6.036c-15.88,-13.176 -69.499,11.091 -71.114,17.492c-0.756,2.998 47.633,51.826 50.273,50.312c19.489,-11.172 41.923,-50.312 20.841,-67.804Z" style="fill:url(#_Linear9);"/><path d="M7.431,67.495c3.105,-20.26 61.522,-28.172 71.835,-23.063c33.807,16.748 12.505,85.514 -17.712,78.715c-18.559,-4.176 -58.517,-26.982 -54.123,-55.652Z" style="fill:url(#_Linear10);"/><g><g><path d="M105.933,156.651l-28.725,10.503" style="fill:none;stroke:#3c2800;stroke-width:3.28px;"/><path d="M117.192,169.793l-20.85,20.576" style="fill:none;stroke:#3c2800;stroke-width:3.28px;"/></g></g><path d="M189.713,31.321c2.075,-10.106 35.304,-19.133 41.775,-12.427c8.951,9.275 -6.918,34.419 -15.878,37.486c-7.062,2.418 -27.302,-18.216 -25.897,-25.059Z" style="fill:#f783ac;"/><path d="M76.361,76.585c-5.178,-11.108 -55.051,-14.244 -54.501,0c0.542,14.058 23.386,36.414 41.989,30.902c11.827,-3.504 17.021,-21.23 12.512,-30.902Z" style="fill:#f06595;"/></g></g><defs><radialGradient id="_Radial1" cx="0" cy="0" r="1" gradientUnits="userSpaceOnUse" gradientTransform="matrix(-85.5183,41.8772,-41.8772,-85.5183,184.569,195.718)"><stop offset="0" style="stop-color:#fff;stop-opacity:1"/><stop offset="1" style="stop-color:#f4e1c7;stop-opacity:1"/></radialGradient><radialGradient id="_Radial3" cx="0" cy="0" r="1" gradientUnits="userSpaceOnUse" gradientTransform="matrix(2.56131e-15,60.7503,-67.1732,5.97371e-15,121.851,176.051)"><stop offset="0" style="stop-color:#e6bb9a;stop-opacity:1"/><stop offset="1" style="stop-color:#e6bb9a;stop-opacity:0"/></radialGradient><radialGradient id="_Radial4" cx="0" cy="0" r="1" gradientUnits="userSpaceOnUse" gradientTransform="matrix(2.56131e-15,31.3868,-67.1732,3.08633e-15,105.2,176.265)"><stop offset="0" style="stop-color:#e6bb9a;stop-opacity:1"/><stop offset="1" style="stop-color:#e6bb9a;stop-opacity:0"/></radialGradient><linearGradient id="_Linear5" x1="0" y1="0" x2="1" y2="0" gradientUnits="userSpaceOnUse" gradientTransform="matrix(-102.282,105.816,-105.816,-102.282,203.904,63.8783)"><stop offset="0" style="stop-color:#fff;stop-opacity:1"/><stop offset="1" style="stop-color:#ebc899;stop-opacity:1"/></linearGradient><linearGradient id="_Linear7" x1="0" y1="0" x2="1" y2="0" gradientUnits="userSpaceOnUse" gradientTransform="matrix(-87.7948,51.2615,-51.2615,-87.7948,217.123,72.3007)"><stop offset="0" style="stop-color:#d0841a;stop-opacity:1"/><stop offset="1" style="stop-color:#ac6400;stop-opacity:1"/></linearGradient><linearGradient id="_Linear8" x1="0" y1="0" x2="1" y2="0" gradientUnits="userSpaceOnUse" gradientTransform="matrix(-72.4077,96.5132,-96.5132,-72.4077,129.427,58.0387)"><stop offset="0" style="stop-color:#f5c03f;stop-opacity:1"/><stop offset="1" style="stop-color:#c37f38;stop-opacity:1"/></linearGradient><linearGradient id="_Linear9" x1="0" y1="0" x2="1" y2="0" gradientUnits="userSpaceOnUse" gradientTransform="matrix(-51.3958,27.7007,-27.7007,-51.3958,244.824,12.2737)"><stop offset="0" style="stop-color:#e09021;stop-opacity:1"/><stop offset="1" style="stop-color:#b17119;stop-opacity:1"/></linearGradient><linearGradient id="_Linear10" x1="0" y1="0" x2="1" y2="0" gradientUnits="userSpaceOnUse" gradientTransform="matrix(-41.7718,65.5117,-65.5117,-41.7718,75.3669,42.5032)"><stop offset="0" style="stop-color:#ffd466;stop-opacity:1"/><stop offset="1" style="stop-color:#e49b1e;stop-opacity:1"/></linearGradient></defs></svg>