<?xml version="1.0" encoding="UTF-8" standalone="no"?><!DOCTYPE svg PUBLIC "-//W3C//DTD SVG 1.1//EN" "http://www.w3.org/Graphics/SVG/1.1/DTD/svg11.dtd"><svg width="100%" height="100%" viewBox="0 0 256 256" version="1.1" xmlns="http://www.w3.org/2000/svg" xmlns:xlink="http://www.w3.org/1999/xlink" xml:space="preserve" xmlns:serif="http://www.serif.com/" style="fill-rule:evenodd;clip-rule:evenodd;stroke-linecap:round;stroke-linejoin:round;stroke-miterlimit:1.5;"><g id="Checkmark"><path d="M185.851,33.416c8.998,-2.184 51.931,30.201 57.518,45.185c5.587,14.984 -107.329,157.437 -118.75,158.68c-11.421,1.242 -110.224,-93.31 -111.608,-103.305c-1.383,-9.994 28.448,-53.113 41.815,-51.444c13.368,1.668 66.825,51.444 66.825,51.444c-0,0 55.202,-98.377 64.2,-100.56Z" style="fill:none;stroke:#2b8a3e;stroke-width:16.52px;"/><path d="M185.851,33.416c8.998,-2.184 51.931,30.201 57.518,45.185c5.587,14.984 -107.329,157.437 -118.75,158.68c-11.421,1.242 -110.224,-93.31 -111.608,-103.305c-1.383,-9.994 28.448,-53.113 41.815,-51.444c13.368,1.668 66.825,51.444 66.825,51.444c-0,0 55.202,-98.377 64.2,-100.56Z" style="fill:#01af2d;"/><clipPath id="_clip1"><path d="M185.851,33.416c8.998,-2.184 51.931,30.201 57.518,45.185c5.587,14.984 -107.329,157.437 -118.75,158.68c-11.421,1.242 -110.224,-93.31 -111.608,-103.305c-1.383,-9.994 28.448,-53.113 41.815,-51.444c13.368,1.668 66.825,51.444 66.825,51.444c-0,0 55.202,-98.377 64.2,-100.56Z"/></clipPath><g clip-path="url(#_clip1)"><path d="M184.398,20.337c8.998,-2.184 47.747,28.338 53.334,43.322c5.587,14.984 -104.054,152.677 -115.475,153.92c-11.422,1.242 -110.78,-88.745 -112.164,-98.739c-1.383,-9.994 26.239,-51.513 39.606,-49.845c13.368,1.669 64.627,36.542 64.627,36.542c-0,0 61.074,-83.017 70.072,-85.2Z" style="fill:#25de00;"/></g><path d="M210.683,62.932c-3.598,4.704 -12.708,3.788 -20.332,-2.043c-7.623,-5.831 -10.891,-14.384 -7.294,-19.087c3.598,-4.704 12.708,-3.788 20.331,2.043c7.624,5.831 10.892,14.384 7.295,19.087Z" style="fill:#fff;"/><path d="M70.503,108.059c-2.657,3.474 -9.146,2.981 -14.481,-1.099c-5.335,-4.081 -7.509,-10.215 -4.852,-13.689c2.658,-3.474 9.147,-2.982 14.482,1.099c5.335,4.081 7.508,10.214 4.851,13.689Z" style="fill:#d3f9d8;"/></g></svg>