<?xml version="1.0" encoding="UTF-8" standalone="no"?><!DOCTYPE svg PUBLIC "-//W3C//DTD SVG 1.1//EN" "http://www.w3.org/Graphics/SVG/1.1/DTD/svg11.dtd"><svg width="100%" height="100%" viewBox="0 0 256 256" version="1.1" xmlns="http://www.w3.org/2000/svg" xmlns:xlink="http://www.w3.org/1999/xlink" xml:space="preserve" xmlns:serif="http://www.serif.com/" style="fill-rule:evenodd;clip-rule:evenodd;stroke-linecap:round;stroke-linejoin:round;stroke-miterlimit:1.5;"><g id="Clock---Indigo" serif:id="Clock - Indigo"><circle cx="128" cy="128" r="126.376" style="fill:#364fc7;"/><circle cx="128" cy="127.055" r="87.908" style="fill:#fff;"/><path d="M48.305,146.144l-14.702,0c-0,-62.763 31.905,-113.719 94.669,-113.719c62.764,-0 100.148,50.956 100.148,113.719l-20.181,0c0,-44.135 -35.832,-79.967 -79.967,-79.967c-44.135,-0 -79.967,35.832 -79.967,79.967Z" style="fill:#6d80d7;fill-opacity:0.15;"/><path d="M128,22.985c57.438,0 104.07,46.632 104.07,104.07c-0,57.437 -46.632,104.069 -104.07,104.069c-57.438,0 -104.07,-46.632 -104.07,-104.069c0,-57.438 46.632,-104.07 104.07,-104.07Zm0,23.985c44.2,0 80.085,35.885 80.085,80.085c-0,44.2 -35.885,80.084 -80.085,80.084c-44.2,0 -80.085,-35.884 -80.085,-80.084c0,-44.2 35.885,-80.085 80.085,-80.085Z" style="fill:#5c7cfa;"/><path d="M128,10.706c64.736,0 117.294,52.558 117.294,117.294c-0,64.736 -52.558,117.294 -117.294,117.294c-64.736,-0 -117.294,-52.558 -117.294,-117.294c0,-64.736 52.558,-117.294 117.294,-117.294Zm0,27.908c49.333,0 89.386,40.053 89.386,89.386c-0,49.333 -40.053,89.386 -89.386,89.386c-49.333,-0 -89.386,-40.053 -89.386,-89.386c0,-49.333 40.053,-89.386 89.386,-89.386Z" style="fill:#91a7ff;"/><path d="M128,22.684c57.604,-0 104.371,46.767 104.371,104.371" style="fill:none;stroke:#bac8ff;stroke-width:16.99px;"/><path d="M72.931,208.047c-9.872,-7 -18.476,-15.673 -25.399,-25.603" style="fill:none;stroke:#bac8ff;stroke-width:10.2px;"/><g><path d="M134.155,60.111c0,-3.398 -2.758,-6.156 -6.155,-6.156c-3.397,0 -6.155,2.758 -6.155,6.156l-0,10.75c-0,3.398 2.758,6.156 6.155,6.156c3.397,-0 6.155,-2.758 6.155,-6.156l0,-10.75Z" style="fill:#868e96;"/><path d="M134.155,183.248c0,-3.397 -2.758,-6.155 -6.155,-6.155c-3.397,-0 -6.155,2.758 -6.155,6.155l-0,10.751c-0,3.397 2.758,6.155 6.155,6.155c3.397,0 6.155,-2.758 6.155,-6.155l0,-10.751Z" style="fill:#868e96;"/></g><g><path d="M194.944,133.21c3.397,-0 6.155,-2.758 6.155,-6.155c0,-3.397 -2.758,-6.155 -6.155,-6.155l-10.751,-0c-3.397,-0 -6.155,2.758 -6.155,6.155c0,3.397 2.758,6.155 6.155,6.155l10.751,-0Z" style="fill:#868e96;"/><path d="M71.807,133.21c3.397,-0 6.155,-2.758 6.155,-6.155c-0,-3.397 -2.758,-6.155 -6.155,-6.155l-10.751,-0c-3.397,-0 -6.155,2.758 -6.155,6.155c-0,3.397 2.758,6.155 6.155,6.155l10.751,-0Z" style="fill:#868e96;"/></g><g><path d="M108.332,97.46c-2.682,-4.645 -8.631,-6.239 -13.277,-3.557c-4.646,2.682 -6.24,8.631 -3.558,13.277l19.408,33.615c2.682,4.646 8.632,6.24 13.277,3.558c4.646,-2.683 6.24,-8.632 3.558,-13.277l-19.408,-33.616Z" style="fill:#dfdfdf;"/><path d="M183.643,110.032c4.646,-2.682 6.24,-8.632 3.558,-13.277c-2.682,-4.646 -8.631,-6.24 -13.277,-3.558l-59.446,34.321c-4.645,2.682 -6.239,8.631 -3.557,13.277c2.682,4.646 8.631,6.24 13.277,3.558l59.445,-34.321Z" style="fill:#dfdfdf;"/></g><g><path d="M116.453,90.116c-2.682,-4.646 -8.632,-6.24 -13.277,-3.558c-4.646,2.682 -6.24,8.631 -3.558,13.277l19.408,33.615c2.682,4.646 8.631,6.24 13.277,3.558c4.646,-2.682 6.24,-8.631 3.558,-13.277l-19.408,-33.615Z" style="fill:#343a40;"/><path d="M191.764,102.687c4.646,-2.682 6.24,-8.631 3.558,-13.277c-2.682,-4.646 -8.632,-6.24 -13.277,-3.558l-59.446,34.321c-4.645,2.682 -6.24,8.632 -3.557,13.277c2.682,4.646 8.631,6.24 13.277,3.558l59.445,-34.321Z" style="fill:#343a40;"/></g><circle cx="120.682" cy="137.442" r="18.667" style="fill:#dfdfdf;"/><circle cx="128" cy="127.055" r="18.667" style="fill:#f76707;"/><circle cx="128" cy="127.055" r="8.292" style="fill:#fd7e14;"/></g></svg>