<?xml version="1.0" encoding="UTF-8" standalone="no"?><!DOCTYPE svg PUBLIC "-//W3C//DTD SVG 1.1//EN" "http://www.w3.org/Graphics/SVG/1.1/DTD/svg11.dtd"><svg width="100%" height="100%" viewBox="0 0 256 256" version="1.1" xmlns="http://www.w3.org/2000/svg" xmlns:xlink="http://www.w3.org/1999/xlink" xml:space="preserve" xmlns:serif="http://www.serif.com/" style="fill-rule:evenodd;clip-rule:evenodd;stroke-linejoin:round;stroke-miterlimit:2;"><g id="Cloverleaf"><path id="Path" d="M101.438,21.487c15.793,-22.762 111.202,0.516 117.057,32.053c5.857,31.538 -38.24,54.453 -38.24,54.453c0,-0 54.197,-9.145 62.395,21.266c8.198,30.412 -5.475,84.585 -33.91,85.94c-23.778,1.132 -47.224,-24.983 -47.224,-24.983c0,-0 14.887,36.946 -6.195,48.209c-21.081,11.264 -92.641,5.06 -96.154,-26.478c-3.514,-31.537 35.592,-63.406 35.592,-63.406c-0,-0 -45.907,38.131 -64.416,24.78c-30.169,-21.764 -25.721,-102.778 18.044,-109.704c27.735,-4.389 51.056,28.607 51.056,28.607c0,-0 -18.132,-41.729 1.995,-70.737Z" style="fill:none;stroke:#235e27;stroke-opacity:0.91;stroke-width:13.33px;"/><path id="Path1" serif:id="Path" d="M101.438,21.487c15.793,-22.762 111.202,0.516 117.057,32.053c5.857,31.538 -38.24,54.453 -38.24,54.453c0,-0 54.197,-9.145 62.395,21.266c8.198,30.412 -5.475,84.585 -33.91,85.94c-23.778,1.132 -47.224,-24.983 -47.224,-24.983c0,-0 14.887,36.946 -6.195,48.209c-21.081,11.264 -92.641,5.06 -96.154,-26.478c-3.514,-31.537 35.592,-63.406 35.592,-63.406c-0,-0 -45.907,38.131 -64.416,24.78c-30.169,-21.764 -25.721,-102.778 18.044,-109.704c27.735,-4.389 51.056,28.607 51.056,28.607c0,-0 -18.132,-41.729 1.995,-70.737Z" style="fill:#5fb951;"/><path id="Path2" serif:id="Path" d="M102.831,118.575c0,11.144 -41.706,47.182 -68.748,27.872c-29.63,-21.158 -5.091,-73.217 15.127,-76.664c15.626,-2.665 53.621,21.728 53.621,48.792Z" style="fill:#85d04a;"/><path id="Path3" serif:id="Path" d="M123.61,149.645c17.321,1.361 45.562,63.138 25.478,79.091c-18.535,14.724 -84.733,-5.365 -77.373,-31.863c6.968,-25.085 32.18,-48.777 51.895,-47.228Z" style="fill:#6ec24d;"/><path id="Path4" serif:id="Path" d="M103.76,101.852c7.124,9.545 10.28,22.289 24.334,25.667c14.055,3.38 33.731,-10.802 41.627,-13.589c-7.896,6.503 -18.983,11.356 -23.047,24.757c-3.949,13.02 8.183,27.735 11.031,39.086c-4.706,-5.776 -13.021,-34.828 -30.192,-39.644c-13.934,-3.909 -24.449,5.067 -30.256,8.551c2.787,-2.091 10.916,-9.291 12.774,-17.188c2.555,-10.858 -3.327,-16.701 -6.271,-27.64Z" style="fill:#36923e;"/><path id="Path5" serif:id="Path" d="M144.444,24.362c13.373,-2.537 58.824,1.908 65.293,33.289c6.468,31.381 -41.304,53.03 -60.014,48.933c-18.71,-4.097 -42.266,-75.205 -5.279,-82.222Z" style="fill:#85d04a;"/><path id="Path6" serif:id="Path" d="M181.956,116.652c13.028,-7.549 47.341,-11.375 53.006,23.732c5.665,35.107 -18.721,40.529 -33.674,34.846c-14.298,-5.435 -60.703,-34.606 -19.332,-58.578Z" style="fill:#85d04a;"/><path id="Path7" serif:id="Path" d="M131.197,167.138c17.452,-3.321 27.76,50.563 10.647,55.948c-20.029,6.302 -38.29,-50.688 -10.647,-55.948Z" style="fill:#85d04a;"/><path id="Ellipse" d="M181.618,60.743c-0,-6.95 4.65,-12.585 10.386,-12.585c5.736,-0 10.386,5.635 10.386,12.585c0,6.951 -4.65,12.585 -10.386,12.585c-5.736,0 -10.386,-5.634 -10.386,-12.585Z" style="fill:#fff;"/><path id="Ellipse1" serif:id="Ellipse" d="M203.968,120.49c1.339,-2.66 5.576,-3.231 9.463,-1.274c3.887,1.957 5.952,5.7 4.612,8.361c-1.339,2.661 -5.576,3.231 -9.463,1.274c-3.887,-1.957 -5.952,-5.7 -4.612,-8.361Z" style="fill:#fff;"/><path id="Ellipse2" serif:id="Ellipse" d="M129.667,184.252c-0,-3.575 3.367,-6.472 7.521,-6.472c4.154,-0 7.521,2.897 7.521,6.472c-0,3.575 -3.367,6.472 -7.521,6.472c-4.154,0 -7.521,-2.897 -7.521,-6.472Z" style="fill:#bce95d;"/><path id="Ellipse3" serif:id="Ellipse" d="M44.786,78.127c0.989,-3.774 8.365,-5.062 16.475,-2.877c8.11,2.185 13.882,7.014 12.893,10.787c-0.989,3.774 -8.365,5.061 -16.475,2.877c-8.109,-2.185 -13.882,-7.014 -12.893,-10.787Z" style="fill:#bce95d;"/></g></svg>