<?xml version="1.0" encoding="UTF-8" standalone="no"?><!DOCTYPE svg PUBLIC "-//W3C//DTD SVG 1.1//EN" "http://www.w3.org/Graphics/SVG/1.1/DTD/svg11.dtd"><svg width="100%" height="100%" viewBox="0 0 256 256" version="1.1" xmlns="http://www.w3.org/2000/svg" xmlns:xlink="http://www.w3.org/1999/xlink" xml:space="preserve" xmlns:serif="http://www.serif.com/" style="fill-rule:evenodd;clip-rule:evenodd;stroke-linejoin:round;stroke-miterlimit:2;"><g id="Coin-x1" serif:id="Coin x1"><path id="Path" d="M25.779,77.318c18.758,-15.346 58.183,-25.462 103.472,-24.631c43.172,0.792 80.436,11.325 99.272,26.179c10.945,7.683 17.498,16.617 18.127,26.103l0.001,0l-0,0.007c0.048,0.719 0.061,1.444 0.04,2.172c-0.016,0.54 -0.051,1.078 -0.105,1.612c-0.137,7.944 -0.475,26.517 -0.808,37.563c-0.167,6.119 -0.335,10.89 -0.478,12.263c-0.787,7.528 -22.879,46.504 -120.439,44.715c-93.073,-1.707 -113.718,-41.725 -115.258,-49.504c-0.575,-2.911 -1.751,-8.792 -2.288,-16.257c-0.029,-0.401 -0.056,-0.805 -0.081,-1.212c-0.181,-2.973 -0.256,-6.175 -0.15,-9.525l0.001,-0.014c0.216,-10.547 1.495,-21.005 2.102,-25.453c0.07,-0.746 0.176,-1.487 0.318,-2.224l0.001,-0.007l0.001,-0c1.541,-7.978 7.289,-15.374 16.272,-21.787Z" style="fill:none;stroke:#b57523;stroke-width:6px;"/><g><path id="Path1" serif:id="Path" d="M10.181,103.083c0,-0 -2.763,13.149 -3.097,23.72c-0.392,12.406 1.689,22.793 2.519,26.994c1.54,7.779 22.185,47.797 115.258,49.504c97.56,1.789 119.652,-37.187 120.439,-44.715c0.503,-4.818 1.308,-51.508 1.308,-51.508l-236.427,-3.995Z" style="fill:url(#_Linear1);"/><path id="Path2" serif:id="Path" d="M10.298,99.105c0,-0 -2.116,42.934 -0.578,50.713c1.54,7.779 22.185,47.797 115.258,49.504c97.56,1.79 119.652,-37.187 120.439,-44.715c0.503,-4.817 1.234,-49.638 1.234,-49.638l-236.353,-5.864Z" style="fill:url(#_Linear2);"/><path id="Path3" serif:id="Path" d="M9.506,99.105c0,-0 -5.659,36.462 0.214,50.713c3.033,7.356 22.185,47.797 115.258,49.504c11.078,0.204 21.182,-0.119 30.392,-0.862c3.911,-4.406 9.865,-19.174 12.564,-29.631c4.705,-18.224 -4.896,-31.933 -4.896,-31.933l-36.692,-35.454l-116.84,-2.337Z" style="fill:url(#_Linear3);"/><path id="Path4" serif:id="Path" d="M218.864,137.92c3.647,12.798 4.925,26.272 2.045,43.821c0,0 23.125,-11.608 24.741,-27.341l1.001,-49.431c-2.406,-3.227 -27.787,32.951 -27.787,32.951Z" style="fill:#b36f16;fill-opacity:0.37;"/><path id="Ellipse" d="M9.097,102.79c0.837,-28.434 54.701,-50.508 120.312,-49.305c65.61,1.204 118.119,25.229 117.282,53.663c-0.837,28.435 -54.702,50.509 -120.312,49.305c-65.61,-1.203 -118.119,-25.228 -117.282,-53.663Z" style="fill:url(#_Linear4);"/><path id="Ellipse1" serif:id="Ellipse" d="M14.147,97.146c0.756,-25.706 52.29,-45.611 115.104,-44.459c62.815,1.152 113.121,22.925 112.364,48.631c-0.756,25.708 -52.288,45.613 -115.103,44.461c-62.814,-1.152 -113.121,-22.925 -112.365,-48.633Z" style="fill:url(#_Linear5);"/><path id="Ellipse2" serif:id="Ellipse" d="M181.228,69.999c0.744,-1.748 8.69,-1.502 17.187,2.27c8.12,3.604 12.493,6.448 11.754,8.035c-0.738,1.581 -8.447,0.072 -16.57,-3.376c-8.499,-3.607 -13.111,-5.187 -12.371,-6.929Z" style="fill:#fff;"/><path id="Ellipse3" serif:id="Ellipse" d="M215.595,83.944c0.464,-0.977 2.386,-1.087 4.276,-0.253c1.869,0.826 2.996,2.264 2.535,3.219c-0.459,0.953 -2.333,1.079 -4.204,0.276c-1.89,-0.812 -3.068,-2.266 -2.607,-3.242Z" style="fill:#fff;"/><path id="Ellipse4" serif:id="Ellipse" d="M35.436,110.274c0.494,-1.089 4.203,-0.309 8.287,1.745c4.082,2.053 6.993,4.601 6.501,5.691c-0.493,1.091 -4.202,0.31 -8.285,-1.743c-4.083,-2.054 -6.994,-4.603 -6.503,-5.693Z" style="fill:#fff;"/><path id="Path5" serif:id="Path" d="M127.751,68.448c15.69,0.037 31.246,13.837 31.246,13.837c-0,-0 34.47,2.345 35.007,9.479c0.671,8.906 -16.411,12.891 -16.411,12.891c-0,-0 10.437,16.055 -4.505,20.046c-16.702,4.461 -43.4,-4.274 -43.4,-4.274c0,0 -20.574,8.433 -39.797,4.779c-12.7,-2.414 -6.166,-19.942 -6.166,-19.942c-0,0 -21.023,-5.739 -20.247,-14.159c0.62,-6.734 35.071,-8.115 35.071,-8.115c-0,0 13.891,-14.578 29.202,-14.542Z" style="fill:url(#_Linear6);"/><path id="Path6" serif:id="Path" d="M127.416,72.079c12.165,-0.083 23.836,12.059 23.836,12.059c-0,-0 31.71,1.406 34.81,7.98c3.1,6.575 -16.241,11.367 -16.241,11.367c0,0 9.257,14.151 -1.303,18.105c-10.56,3.954 -39.879,-4.335 -39.879,-4.335c-0,-0 -23.928,8.288 -36.013,4.493c-10.356,-3.252 -2.729,-17.199 -2.729,-17.199c0,-0 -20.607,-7.392 -19.452,-12.704c1.155,-5.311 33.246,-6.885 33.246,-6.885c-0,-0 11.324,-12.796 23.725,-12.881Z" style="fill:url(#_Linear7);"/></g></g><defs><linearGradient id="_Linear1" x1="0" y1="0" x2="1" y2="0" gradientUnits="userSpaceOnUse" gradientTransform="matrix(231.22,4.38005,-4.38005,231.22,-31.6937,116.139)"><stop offset="0" style="stop-color:#e8b53f;stop-opacity:1"/><stop offset="0.02" style="stop-color:#e8b53f;stop-opacity:1"/><stop offset="1" style="stop-color:#ac620c;stop-opacity:1"/></linearGradient><linearGradient id="_Linear2" x1="0" y1="0" x2="1" y2="0" gradientUnits="userSpaceOnUse" gradientTransform="matrix(231.22,4.381,-4.381,231.22,-31.5766,112.16)"><stop offset="0" style="stop-color:#ebb644;stop-opacity:1"/><stop offset="0.02" style="stop-color:#ebb644;stop-opacity:1"/><stop offset="1" style="stop-color:#e49839;stop-opacity:1"/></linearGradient><linearGradient id="_Linear3" x1="0" y1="0" x2="1" y2="0" gradientUnits="userSpaceOnUse" gradientTransform="matrix(145.583,12.4387,-12.4387,145.583,-36.6947,142.64)"><stop offset="0" style="stop-color:#f1a93b;stop-opacity:1"/><stop offset="0.2" style="stop-color:#fcf057;stop-opacity:1"/><stop offset="0.29" style="stop-color:#fdf258;stop-opacity:1"/><stop offset="0.53" style="stop-color:#f2ae3d;stop-opacity:1"/><stop offset="1" style="stop-color:#f1a93b;stop-opacity:1"/></linearGradient><linearGradient id="_Linear4" x1="0" y1="0" x2="1" y2="0" gradientUnits="userSpaceOnUse" gradientTransform="matrix(236.929,2.48909,-2.48909,236.929,-32.5074,104.384)"><stop offset="0" style="stop-color:#e19d34;stop-opacity:1"/><stop offset="0.33" style="stop-color:#ffcf38;stop-opacity:1"/><stop offset="0.51" style="stop-color:#e59e3b;stop-opacity:1"/><stop offset="1" style="stop-color:#b36f16;stop-opacity:1"/></linearGradient><linearGradient id="_Linear5" x1="0" y1="0" x2="1" y2="0" gradientUnits="userSpaceOnUse" gradientTransform="matrix(3.46755,-92.5908,92.5908,3.46755,84.85,144.771)"><stop offset="0" style="stop-color:#f4ce4c;stop-opacity:1"/><stop offset="1" style="stop-color:#f8f05a;stop-opacity:1"/></linearGradient><linearGradient id="_Linear6" x1="0" y1="0" x2="1" y2="0" gradientUnits="userSpaceOnUse" gradientTransform="matrix(3.83334,58.0962,-58.0962,3.83334,66.3139,68.1298)"><stop offset="0" style="stop-color:#e28e35;stop-opacity:1"/><stop offset="1" style="stop-color:#f9f45c;stop-opacity:1"/></linearGradient><linearGradient id="_Linear7" x1="0" y1="0" x2="1" y2="0" gradientUnits="userSpaceOnUse" gradientTransform="matrix(3.1145,47.2031,-47.2031,3.1145,51.7726,71.4786)"><stop offset="0" style="stop-color:#ffd850;stop-opacity:1"/><stop offset="1" style="stop-color:#ffc548;stop-opacity:1"/></linearGradient></defs></svg>