<?xml version="1.0" encoding="UTF-8" standalone="no"?><!DOCTYPE svg PUBLIC "-//W3C//DTD SVG 1.1//EN" "http://www.w3.org/Graphics/SVG/1.1/DTD/svg11.dtd"><svg width="100%" height="100%" viewBox="0 0 256 256" version="1.1" xmlns="http://www.w3.org/2000/svg" xmlns:xlink="http://www.w3.org/1999/xlink" xml:space="preserve" xmlns:serif="http://www.serif.com/" style="fill-rule:evenodd;clip-rule:evenodd;stroke-linecap:round;stroke-linejoin:round;stroke-miterlimit:1.5;"><g id="Credits--Border-" serif:id="Credits (Border)"><path d="M245.113,66.365l0.001,-0.001c-2.184,23.077 -2.142,63.821 -0.605,79.979l-135.999,77.667c0,0 -95.476,-54.525 -95.476,-54.525c2.382,-17.36 0.811,-59.259 -1.694,-79.433l11.184,-6.269l-8.978,-5.242c17.164,-3.056 32.792,-9.566 49.189,-17.392l36.877,-20.717l50.379,-28.125l95.122,54.058Z" style="fill:none;stroke:#5f80a1;stroke-width:16.79px;"/><path d="M107.931,146.238l-96.591,-56.186c2.505,20.174 4.076,62.073 1.694,79.433l95.476,54.525c3.997,-17.392 5.2,-57.104 -0.579,-77.772Z" style="fill:#ced4da;"/><path d="M24.013,127.703l83.816,46.899" style="fill:none;stroke:url(#_Linear1);stroke-width:4.52px;"/><path d="M30.267,161.342l85.567,50.248" style="fill:none;stroke:url(#_Linear2);stroke-width:4.52px;"/><path d="M107.441,146.343l137.673,-79.979c-2.184,23.077 -2.142,63.821 -0.605,79.979l-135.999,77.667c-0.998,-17.589 -3.078,-56.072 -1.069,-77.667Z" style="fill:#fff;"/><clipPath id="_clip3"><path d="M107.441,146.343l137.673,-79.979c-2.184,23.077 -2.142,63.821 -0.605,79.979l-135.999,77.667c-0.998,-17.589 -3.078,-56.072 -1.069,-77.667Z"/></clipPath><g clip-path="url(#_clip3)"><path d="M238.922,103.156l-133.411,71.32" style="fill:none;stroke:url(#_Linear4);stroke-width:4.52px;"/><path d="M233.416,140.904l-126.819,66.404" style="fill:none;stroke:url(#_Linear5);stroke-width:4.52px;"/></g><path d="M148.961,12.902l-137.621,77.15l96.077,56.489l136.774,-79.758l-95.23,-53.881Z" style="fill:#3684c3;"/><path d="M149.991,12.307l-50.379,28.125l-36.877,20.717c-16.397,7.826 -32.025,14.336 -49.189,17.392l95.405,55.706c15.83,-1.956 32.145,-8.851 49.672,-17.27l36.614,-21.139l49.877,-29.473l-95.123,-54.058Z" style="fill:#71d2ff;"/><path d="M149.991,12.307l-50.379,28.125l-36.877,20.717c-16.397,7.826 -32.025,14.336 -49.189,17.392l94.283,47.558c13.434,0 30.892,-3.079 48.42,-11.498l38.927,-20.705l49.938,-27.531l-95.123,-54.058Z" style="fill:#45aeff;"/><path d="M95.883,42.648l-37.767,20.681l96.334,55.786l3.545,-1.775l33.451,-19.356l-95.563,-55.336Z" style="fill:#46a0ea;"/><path d="M98.968,40.744l-37.25,20.594l96.902,55.641c15.04,0.148 26.883,-7.815 36.617,-21.141l-96.269,-55.094Z" style="fill:#f4e1c7;"/><path d="M154.45,119.115l3.217,-1.592c-0,0 21.62,-13.019 30.71,-17.83l0.3,78.534l-33.78,19.292l-0.447,-78.404Z" style="fill:#f1f3f5;"/><path d="M158.62,116.979c11.826,-7.25 23.354,-14.198 36.496,-21.21l0.696,78.384l-36.565,20.877l-0.627,-78.051Z" style="fill:#e4ccba;"/><path d="M177.459,105.032c9.011,-5.224 16.508,-9.152 16.73,-8.767c0.222,0.385 -6.913,4.939 -15.924,10.163c-9.011,5.223 -16.508,9.152 -16.73,8.767c-0.222,-0.385 6.913,-4.939 15.924,-10.163Z" style="fill:#fff;"/></g><defs><linearGradient id="_Linear1" x1="0" y1="0" x2="1" y2="0" gradientUnits="userSpaceOnUse" gradientTransform="matrix(-79.816,-44.6616,44.6616,-79.816,106.942,174.106)"><stop offset="0" style="stop-color:#e9ecef;stop-opacity:1"/><stop offset="1" style="stop-color:#e9ecef;stop-opacity:0"/></linearGradient><linearGradient id="_Linear2" x1="0" y1="0" x2="1" y2="0" gradientUnits="userSpaceOnUse" gradientTransform="matrix(-77.3376,-45.4156,45.4156,-77.3376,107.605,206.758)"><stop offset="0" style="stop-color:#e9ecef;stop-opacity:1"/><stop offset="1" style="stop-color:#e9ecef;stop-opacity:0"/></linearGradient><linearGradient id="_Linear4" x1="0" y1="0" x2="1" y2="0" gradientUnits="userSpaceOnUse" gradientTransform="matrix(131.093,-70.0809,70.0809,131.093,107.829,173.237)"><stop offset="0" style="stop-color:#f1f3f5;stop-opacity:1"/><stop offset="1" style="stop-color:#f1f3f5;stop-opacity:0"/></linearGradient><linearGradient id="_Linear5" x1="0" y1="0" x2="1" y2="0" gradientUnits="userSpaceOnUse" gradientTransform="matrix(100.107,-52.4171,52.4171,100.107,133.309,193.321)"><stop offset="0" style="stop-color:#f1f3f5;stop-opacity:1"/><stop offset="1" style="stop-color:#f1f3f5;stop-opacity:0"/></linearGradient></defs></svg>