<?xml version="1.0" encoding="UTF-8" standalone="no"?><!DOCTYPE svg PUBLIC "-//W3C//DTD SVG 1.1//EN" "http://www.w3.org/Graphics/SVG/1.1/DTD/svg11.dtd"><svg width="100%" height="100%" viewBox="0 0 256 256" version="1.1" xmlns="http://www.w3.org/2000/svg" xmlns:xlink="http://www.w3.org/1999/xlink" xml:space="preserve" xmlns:serif="http://www.serif.com/" style="fill-rule:evenodd;clip-rule:evenodd;stroke-linejoin:round;stroke-miterlimit:2;"><g id="Credits"><path id="Path" d="M4.318,109.099l160.626,-12.601l57.825,39.602l-155.807,28.802l-62.644,-55.803Z" style="fill:#5aafd3;"/><path id="Path1" serif:id="Path" d="M7.531,107.299c-0,-0 69.022,0.384 87.003,-0.49c17.98,-0.873 73.622,-12.111 73.622,-12.111l57.826,39.602l-155.807,28.802l-62.644,-55.803Z" style="fill:#65c3ea;"/><path id="Path2" serif:id="Path" d="M71.883,116.3c5.323,-0.059 8.984,6.438 8.984,6.438c0,-0 12.635,-0.072 13.353,2.031c0.871,2.552 -10.217,5.604 -10.217,5.604c0,0 4.891,5.962 1.318,7.272c-3.44,1.261 -14.151,-2.557 -14.151,-2.557c0,0 -10.534,3.233 -13.545,2.358c-3.012,-0.874 1.425,-7.617 1.425,-7.617c0,0 -11.084,-3.602 -9.624,-5.622c1.309,-1.811 13.902,-1.451 13.902,-1.451c-0,0 3.129,-6.397 8.555,-6.456Z" style="fill:#7de4ff;"/><path id="Path3" serif:id="Path" d="M163.433,103.699c4.942,-0.059 8.342,6.438 8.342,6.438c-0,-0 11.732,-0.072 12.399,2.031c0.809,2.552 -9.488,5.604 -9.488,5.604c0,0 4.542,5.963 1.225,7.273c-3.195,1.26 -13.14,-2.557 -13.14,-2.557c-0,-0 -9.782,3.232 -12.579,2.357c-2.796,-0.874 1.324,-7.617 1.324,-7.617c0,0 -10.292,-3.603 -8.937,-5.622c1.216,-1.811 12.909,-1.451 12.909,-1.451c0,0 2.906,-6.397 7.945,-6.456Z" style="fill:#7de4ff;"/><path id="Path4" serif:id="Path" d="M4.318,109.099l-0.389,9.175l1.024,5.902l-1.46,4.352l-0.302,7.089l1.234,5.707l-1.713,5.577l62.644,59.404l1.606,-41.403l-62.644,-55.803Z" style="fill:#e2e2e2;"/><path id="Path5" serif:id="Path" d="M66.962,164.902l155.807,-28.802l-1.134,6.407l1.16,4.336l0.021,8.279l-1.708,3.942l1.726,3.745l0.009,3.59l-157.487,39.906l1.606,-41.403Z" style="fill:#d0d0d0;"/><path id="Path6" serif:id="Path" d="M73.387,172.103l144.563,-28.802l0,3.6l-144.563,28.802l0,-3.6Z" style="fill:#b9b9b9;fill-opacity:0.43;"/><path id="Path7" serif:id="Path" d="M84.631,182.903l125.284,-24.364l-0,3.601l-125.284,24.364l0,-3.601Z" style="fill:#b9b9b9;fill-opacity:0.43;"/><path id="Path8" serif:id="Path" d="M60.422,103.862l56.219,50.403l46.697,-7.364l-56.219,-46.803l-46.697,3.764Z" style="fill-opacity:0.15;"/><path id="Path9" serif:id="Path" d="M63.635,103.862l56.218,50.403l46.697,-7.364l-56.219,-46.803l-46.696,3.764Z" style="fill:#fff;"/><path id="Path10" serif:id="Path" d="M118.794,153.666l0,37.803l46.15,-10.366l-0,-34.202l-46.15,6.765Z" style="fill-opacity:0.19;"/><path id="Path11" serif:id="Path" d="M120.4,153.666l0,37.803l46.15,-10.366l-0,-34.202l-46.15,6.765Z" style="fill:#eaeaea;"/><path id="Path12" serif:id="Path" d="M60.537,168.502l0,3.601l-50.077,-44.762l0,-3.6l50.077,44.761Z" style="fill:#ccc;fill-opacity:0.37;"/><path id="Path13" serif:id="Path" d="M52.506,175.703l0,3.6l-37.771,-33.928l-0,-3.601l37.771,33.929Z" style="fill:#ccc;fill-opacity:0.37;"/><path id="Path14" serif:id="Path" d="M36.443,107.299l-12.85,1.8l56.219,52.203l14.457,-1.8l-57.826,-52.203Z" style="fill-opacity:0.19;"/><path id="Path15" serif:id="Path" d="M221.756,128.548l-0.384,12.914l-119.84,39.602l-20.113,-19.762l140.337,-32.754Z" style="fill-opacity:0.1;"/><path id="Path16" serif:id="Path" d="M33.231,67.696l160.625,-12.601l57.826,39.603l-155.807,28.802l-62.644,-55.804Z" style="fill:#5aafd3;"/><path id="Path17" serif:id="Path" d="M34.837,62.296c0,-0 69.023,0.384 87.003,-0.489c17.98,-0.874 73.623,-12.112 73.623,-12.112l57.825,39.602l-155.807,28.802l-62.644,-55.803Z" style="fill:#65c3ea;"/><path id="Path18" serif:id="Path" d="M100.796,74.897c5.323,-0.058 8.984,6.438 8.984,6.438c-0,-0 12.635,-0.071 13.352,2.031c0.872,2.552 -10.217,5.604 -10.217,5.604c0,0 4.891,5.963 1.319,7.273c-3.44,1.261 -14.151,-2.557 -14.151,-2.557c0,-0 -10.534,3.232 -13.546,2.357c-3.012,-0.873 1.426,-7.617 1.426,-7.617c-0,0 -11.084,-3.602 -9.624,-5.622c1.309,-1.811 13.902,-1.45 13.902,-1.45c-0,-0 3.129,-6.398 8.555,-6.457Z" style="fill:#7de4ff;"/><path id="Path19" serif:id="Path" d="M192.345,62.296c4.943,-0.058 8.342,6.438 8.342,6.438c0,0 11.733,-0.071 12.399,2.032c0.809,2.552 -9.487,5.604 -9.487,5.604c0,0 4.542,5.962 1.224,7.272c-3.194,1.26 -13.14,-2.557 -13.14,-2.557c0,-0 -9.782,3.232 -12.578,2.358c-2.797,-0.875 1.324,-7.618 1.324,-7.618c-0,0 -10.293,-3.602 -8.937,-5.622c1.216,-1.811 12.909,-1.45 12.909,-1.45c-0,0 2.905,-6.398 7.944,-6.457Z" style="fill:#7de4ff;"/><path id="Path20" serif:id="Path" d="M33.231,67.696l-0.39,9.176l1.024,5.902l-1.46,4.352l-0.301,7.089l1.234,5.707l-1.713,5.577l62.644,59.403l1.606,-41.402l-62.644,-55.804Z" style="fill:#e2e2e2;"/><path id="Path21" serif:id="Path" d="M95.875,123.5l155.807,-28.802l-1.134,6.406l1.16,4.336l0.02,8.279l-1.708,3.942l1.727,3.745l0.009,3.591l-157.487,39.905l1.606,-41.402Z" style="fill:#d0d0d0;"/><path id="Path22" serif:id="Path" d="M102.3,130.7l144.563,-28.802l-0,3.601l-144.563,28.801l-0,-3.6Z" style="fill:#b9b9b9;fill-opacity:0.43;"/><path id="Path23" serif:id="Path" d="M113.544,141.501l125.284,-24.364l-0,3.6l-125.284,24.364l-0,-3.6Z" style="fill:#b9b9b9;fill-opacity:0.43;"/><path id="Path24" serif:id="Path" d="M89.335,62.459l56.219,50.403l46.696,-7.363l-56.219,-46.803l-46.696,3.763Z" style="fill-opacity:0.15;"/><path id="Path25" serif:id="Path" d="M92.547,62.459l56.219,50.403l46.697,-7.363l-56.219,-46.803l-46.697,3.763Z" style="fill:#fff;"/><path id="Path26" serif:id="Path" d="M147.707,112.264l-0,37.802l46.149,-10.365l0,-34.202l-46.149,6.765Z" style="fill-opacity:0.19;"/><path id="Path27" serif:id="Path" d="M149.313,112.264l-0,37.802l46.15,-10.365l-0,-34.202l-46.15,6.765Z" style="fill:#eaeaea;"/><path id="Path28" serif:id="Path" d="M89.45,127.1l-0,3.6l-50.077,-44.761l-0,-3.601l50.077,44.762Z" style="fill:#ccc;fill-opacity:0.37;"/><path id="Path29" serif:id="Path" d="M81.419,134.3l-0,3.601l-37.772,-33.929l0,-3.601l37.772,33.929Z" style="fill:#ccc;fill-opacity:0.37;"/></g></svg>