<?xml version="1.0" encoding="UTF-8" standalone="no"?><!DOCTYPE svg PUBLIC "-//W3C//DTD SVG 1.1//EN" "http://www.w3.org/Graphics/SVG/1.1/DTD/svg11.dtd"><svg width="100%" height="100%" viewBox="0 0 256 256" version="1.1" xmlns="http://www.w3.org/2000/svg" xmlns:xlink="http://www.w3.org/1999/xlink" xml:space="preserve" xmlns:serif="http://www.serif.com/" style="fill-rule:evenodd;clip-rule:evenodd;stroke-linejoin:round;stroke-miterlimit:2;"><g id="Credits"><path id="Path" d="M7.123,109.528l156.983,-12.316l56.514,38.705l-152.273,28.149l-61.224,-54.538Z" style="fill:#5aafd3;"/><path id="Path1" serif:id="Path" d="M10.263,107.768c-0,0 67.457,0.376 85.03,-0.478c17.572,-0.854 71.952,-11.837 71.952,-11.837l56.515,38.704l-152.274,28.149l-61.223,-54.538Z" style="fill:#65c3ea;"/><path id="Path2" serif:id="Path" d="M73.156,116.565c5.202,-0.057 8.78,6.292 8.78,6.292c0,0 12.349,-0.07 13.05,1.985c0.851,2.494 -9.985,5.477 -9.985,5.477c-0,0 4.78,5.827 1.288,7.107c-3.362,1.233 -13.83,-2.498 -13.83,-2.498c0,-0 -10.295,3.158 -13.238,2.304c-2.944,-0.854 1.393,-7.444 1.393,-7.444c0,-0 -10.833,-3.521 -9.406,-5.495c1.279,-1.77 13.587,-1.418 13.587,-1.418c-0,0 3.058,-6.252 8.361,-6.31Z" style="fill:#7de4ff;"/><path id="Path3" serif:id="Path" d="M162.629,104.25c4.831,-0.057 8.153,6.292 8.153,6.292c0,-0 11.466,-0.07 12.118,1.985c0.79,2.494 -9.272,5.477 -9.272,5.477c-0,0 4.438,5.828 1.196,7.108c-3.122,1.231 -12.842,-2.499 -12.842,-2.499c0,-0 -9.56,3.158 -12.293,2.304c-2.733,-0.855 1.294,-7.445 1.294,-7.445c0,0 -10.059,-3.521 -8.734,-5.494c1.188,-1.77 12.616,-1.418 12.616,-1.418c-0,0 2.84,-6.252 7.764,-6.31Z" style="fill:#7de4ff;"/><path id="Path4" serif:id="Path" d="M7.123,109.528l-0.381,8.967l1.001,5.768l-1.427,4.253l-0.294,6.929l1.206,5.577l-1.675,5.45l61.223,58.057l1.571,-40.463l-61.224,-54.538Z" style="fill:#e2e2e2;"/><path id="Path5" serif:id="Path" d="M68.347,164.066l152.273,-28.149l-1.109,6.261l1.134,4.237l0.021,8.092l-1.67,3.852l1.687,3.66l0.009,3.509l-153.916,39.001l1.571,-40.463Z" style="fill:#d0d0d0;"/><path id="Path6" serif:id="Path" d="M74.626,171.103l141.284,-28.149l0,3.518l-141.284,28.149l-0,-3.518Z" style="fill:#b9b9b9;fill-opacity:0.43;"/><path id="Path7" serif:id="Path" d="M85.615,181.658l122.442,-23.811l0,3.519l-122.442,23.811l-0,-3.519Z" style="fill:#b9b9b9;fill-opacity:0.43;"/><path id="Path8" serif:id="Path" d="M61.955,104.409l54.944,49.26l45.637,-7.197l-54.944,-45.741l-45.637,3.678Z" style="fill-opacity:0.15;"/><path id="Path9" serif:id="Path" d="M65.094,104.409l54.944,49.26l45.638,-7.197l-54.944,-45.741l-45.638,3.678Z" style="fill:#fff;"/><path id="Path10" serif:id="Path" d="M119.003,153.084l-0,36.945l45.103,-10.13l-0,-33.427l-45.103,6.612Z" style="fill-opacity:0.19;"/><path id="Path11" serif:id="Path" d="M120.572,153.084l0,36.945l45.104,-10.13l-0,-33.427l-45.104,6.612Z" style="fill:#eaeaea;"/><path id="Path12" serif:id="Path" d="M62.067,167.584l0,3.519l-48.941,-43.747l-0,-3.518l48.941,43.746Z" style="fill:#ccc;fill-opacity:0.37;"/><path id="Path13" serif:id="Path" d="M54.218,174.621l0,3.519l-36.915,-33.159l0,-3.519l36.915,33.159Z" style="fill:#ccc;fill-opacity:0.37;"/><path id="Path14" serif:id="Path" d="M38.52,107.768l-12.559,1.76l54.944,51.019l14.129,-1.759l-56.514,-51.02Z" style="fill-opacity:0.19;"/><path id="Path15" serif:id="Path" d="M219.63,128.536l-0.375,12.62l-117.123,38.705l-19.657,-19.314l137.155,-32.011Z" style="fill-opacity:0.1;"/><path id="Path16" serif:id="Path" d="M35.38,69.064l156.983,-12.315l56.514,38.704l-152.273,28.149l-61.224,-54.538Z" style="fill:#5aafd3;"/><path id="Path17" serif:id="Path" d="M36.95,63.786c-0,-0 67.457,0.375 85.03,-0.478c17.572,-0.854 71.953,-11.837 71.953,-11.837l56.514,38.704l-152.274,28.149l-61.223,-54.538Z" style="fill:#65c3ea;"/><path id="Path18" serif:id="Path" d="M101.413,76.102c5.202,-0.058 8.78,6.291 8.78,6.291c-0,0 12.348,-0.07 13.05,1.986c0.851,2.493 -9.985,5.476 -9.985,5.476c-0,0 4.78,5.828 1.288,7.108c-3.362,1.232 -13.83,-2.499 -13.83,-2.499c0,-0 -10.295,3.159 -13.239,2.304c-2.943,-0.854 1.394,-7.444 1.394,-7.444c-0,-0 -10.833,-3.521 -9.406,-5.495c1.279,-1.769 13.587,-1.417 13.587,-1.417c-0,-0 3.058,-6.253 8.361,-6.31Z" style="fill:#7de4ff;"/><path id="Path19" serif:id="Path" d="M190.886,63.786c4.83,-0.057 8.153,6.292 8.153,6.292c-0,0 11.466,-0.07 12.117,1.986c0.791,2.494 -9.271,5.477 -9.271,5.477c-0,0 4.438,5.827 1.196,7.107c-3.122,1.232 -12.842,-2.499 -12.842,-2.499c-0,-0 -9.56,3.158 -12.293,2.304c-2.733,-0.854 1.294,-7.444 1.294,-7.444c-0,-0 -10.059,-3.521 -8.735,-5.495c1.189,-1.77 12.617,-1.417 12.617,-1.417c-0,-0 2.839,-6.253 7.764,-6.311Z" style="fill:#7de4ff;"/><path id="Path20" serif:id="Path" d="M35.38,69.064l-0.381,8.967l1.001,5.769l-1.427,4.253l-0.294,6.928l1.206,5.578l-1.674,5.45l61.223,58.057l1.57,-40.464l-61.224,-54.538Z" style="fill:#e2e2e2;"/><path id="Path21" serif:id="Path" d="M96.604,123.602l152.273,-28.149l-1.109,6.261l1.134,4.238l0.02,8.091l-1.669,3.853l1.688,3.66l0.008,3.509l-153.915,39.001l1.57,-40.464Z" style="fill:#d0d0d0;"/><path id="Path22" serif:id="Path" d="M102.883,130.639l141.284,-28.149l0,3.519l-141.284,28.148l-0,-3.518Z" style="fill:#b9b9b9;fill-opacity:0.43;"/><path id="Path23" serif:id="Path" d="M113.871,141.195l122.443,-23.811l0,3.518l-122.443,23.811l0,-3.518Z" style="fill:#b9b9b9;fill-opacity:0.43;"/><path id="Path24" serif:id="Path" d="M90.212,63.946l54.944,49.26l45.637,-7.197l-54.944,-45.742l-45.637,3.679Z" style="fill-opacity:0.15;"/><path id="Path25" serif:id="Path" d="M93.351,63.946l54.944,49.26l45.638,-7.197l-54.944,-45.742l-45.638,3.679Z" style="fill:#fff;"/><path id="Path26" serif:id="Path" d="M147.26,112.621l-0,36.945l45.103,-10.13l-0,-33.427l-45.103,6.612Z" style="fill-opacity:0.19;"/><path id="Path27" serif:id="Path" d="M148.83,112.621l-0,36.945l45.103,-10.13l-0,-33.427l-45.103,6.612Z" style="fill:#eaeaea;"/><path id="Path28" serif:id="Path" d="M90.324,127.12l-0,3.519l-48.941,-43.746l-0,-3.519l48.941,43.746Z" style="fill:#ccc;fill-opacity:0.37;"/><path id="Path29" serif:id="Path" d="M82.475,134.157l0,3.519l-36.915,-33.159l0,-3.519l36.915,33.159Z" style="fill:#ccc;fill-opacity:0.37;"/></g></svg>