<?xml version="1.0" encoding="UTF-8" standalone="no"?><!DOCTYPE svg PUBLIC "-//W3C//DTD SVG 1.1//EN" "http://www.w3.org/Graphics/SVG/1.1/DTD/svg11.dtd"><svg width="100%" height="100%" viewBox="0 0 256 256" version="1.1" xmlns="http://www.w3.org/2000/svg" xmlns:xlink="http://www.w3.org/1999/xlink" xml:space="preserve" xmlns:serif="http://www.serif.com/" style="fill-rule:evenodd;clip-rule:evenodd;stroke-linejoin:round;stroke-miterlimit:2;"><g id="Crown"><path id="Path" d="M44.16,110.179c4.981,1.94 10.226,4.067 15.25,6.149c1.966,-8.023 4.18,-16.226 6.251,-22.01c-5.292,-1.375 -9.2,-6.185 -9.2,-11.909c-0,-6.795 5.508,-12.303 12.303,-12.303c6.795,0 12.303,5.508 12.303,12.303c-0,3.005 -1.077,5.758 -2.867,7.895c5.36,3.598 12.492,9.223 19.38,14.908c6.033,-11.184 13.443,-24.364 19.83,-34.096c-3.84,-3.01 -6.559,-7.588 -7.113,-12.948c-1.059,-10.25 6.834,-20.729 16.416,-21.702c9.582,-0.973 20.128,7.229 21.187,17.481c0.586,5.673 -2.048,11.167 -6.141,15.108c7.293,10.138 16.176,24.907 23.104,36.896c7.073,-6.265 14.658,-12.713 20.403,-16.906c-1.621,-2.084 -2.586,-4.703 -2.586,-7.547c-0,-6.795 5.508,-12.303 12.303,-12.303c6.794,0 12.302,5.508 12.302,12.303c0,5.379 -3.451,9.951 -8.261,11.623c2.016,5.29 4.184,12.363 6.175,19.431c2.137,-0.972 4.298,-1.944 6.446,-2.895c-0.048,-0.315 -0.09,-0.634 -0.123,-0.956c-1.059,-10.251 6.834,-20.729 16.416,-21.702c9.582,-0.974 20.128,7.229 21.187,17.481c1.06,10.251 -8.396,19.919 -17.978,20.892c-1.929,0.196 -3.834,0.053 -5.655,-0.384c-1.867,3.86 -3.538,7.776 -5.036,11.701c8.958,4.58 12.755,19.075 8.473,34.119c-3.795,13.335 -12.766,22.984 -21.748,24.46c-0.984,7.518 -1.68,13.12 -2.637,15.777c-3.971,11.026 -141.379,11.117 -144.226,1.959c-0.752,-2.422 -2.09,-8.858 -4.146,-17.658c-10.234,1.355 -21.527,-9.132 -25.912,-24.538c-4.211,-14.797 -0.607,-29.063 8.037,-33.886c-1.794,-4.349 -3.712,-8.633 -5.762,-12.773c-1.934,0.922 -3.975,1.526 -6.021,1.734c-9.583,0.973 -18.565,-6.419 -19.625,-16.671c-1.059,-10.25 6.833,-20.729 16.416,-21.702c9.582,-0.973 20.127,7.229 21.187,17.481c0.182,1.76 0.054,3.503 -0.332,5.188Z" style="fill:none;stroke:#b7720b;stroke-width:10px;"/><g><path id="Path1" serif:id="Path" d="M53.478,142.936c0,0 10.95,-54.739 16.535,-56.488c5.588,-1.75 50.656,38.604 50.656,38.604l-67.191,17.884Z" style="fill:#c28100;"/><path id="Path2" serif:id="Path" d="M212.398,140.54c0,-0 -12.687,-54.54 -18.354,-56.11c-5.666,-1.571 -49.614,40.255 -49.614,40.255l67.968,15.855Z" style="fill:#c28100;"/><path id="Ellipse" d="M30.26,170.808c-4.656,-16.358 0.241,-32.066 10.936,-35.086c10.696,-3.02 23.14,7.792 27.796,24.15c4.655,16.358 -0.241,32.066 -10.936,35.086c-10.696,3.02 -23.14,-7.792 -27.796,-24.15Z" style="fill:#3672aa;"/><path id="Ellipse1" serif:id="Ellipse" d="M32.766,170.58c-2.265,-6.92 -1.449,-13.449 1.823,-14.581c3.272,-1.133 7.76,3.56 10.025,10.48c2.265,6.921 1.448,13.449 -1.823,14.581c-3.272,1.133 -7.76,-3.559 -10.025,-10.48Z" style="fill:#4ba1f3;"/><path id="Ellipse2" serif:id="Ellipse" d="M30.944,155.315c-0,-2.516 2.04,-4.556 4.556,-4.556c2.517,-0 4.557,2.04 4.557,4.556c-0,2.517 -2.04,4.557 -4.557,4.557c-2.516,0 -4.556,-2.04 -4.556,-4.557Z" style="fill:#fff;"/><path id="Ellipse3" serif:id="Ellipse" d="M228.929,170.808c4.656,-16.358 -0.24,-32.066 -10.935,-35.086c-10.696,-3.02 -23.14,7.792 -27.796,24.15c-4.656,16.358 0.24,32.066 10.936,35.086c10.695,3.02 23.14,-7.792 27.795,-24.15Z" style="fill:#3672aa;"/><path id="Ellipse4" serif:id="Ellipse" d="M226.423,170.58c2.265,-6.92 1.449,-13.449 -1.822,-14.581c-3.272,-1.133 -7.76,3.56 -10.025,10.48c-2.265,6.921 -1.449,13.449 1.823,14.581c3.271,1.133 7.759,-3.559 10.024,-10.48Z" style="fill:#4ba1f3;"/><path id="Ellipse5" serif:id="Ellipse" d="M228.246,155.315c-0,-2.516 -2.04,-4.556 -4.557,-4.556c-2.516,-0 -4.556,2.04 -4.556,4.556c-0,2.517 2.04,4.557 4.556,4.557c2.517,0 4.557,-2.04 4.557,-4.557Z" style="fill:#fff;"/><path id="Path3" serif:id="Path" d="M204.544,211.045c3.972,-11.026 3.432,-72.751 37.816,-111.907c-4.346,-3.38 -66.084,27.109 -66.084,27.109c-0,0 -37.574,-69.287 -46.323,-69.14c-8.747,0.148 -44.102,70.532 -44.102,70.532c0,0 -61.262,-27.153 -66.437,-24.945c26.85,34.554 38.058,101.152 40.904,110.31c2.847,9.158 140.255,9.067 144.226,-1.959Z" style="fill:#f6d500;"/><path id="Path4" serif:id="Path" d="M128,77.853c10.795,0.72 42.173,64.63 42.173,64.63c0,-0 34.543,-20.188 40.098,-15.13c5.556,5.059 3.789,51.145 -19.845,60.77c-23.634,9.625 -120.129,4.134 -126.89,-4.833c-6.763,-8.967 -27.057,-53.267 -18.011,-58.504c8.658,-5.012 41.864,13.345 46.933,9.113c5.069,-4.231 20.733,-57.034 35.542,-56.046Z" style="fill:#fff;fill-opacity:0.31;"/><path id="Ellipse6" serif:id="Ellipse" d="M62.484,143.821c1.173,-3.173 6.749,-4.152 12.454,-2.187c5.706,1.965 9.38,6.13 8.207,9.303c-1.173,3.172 -6.749,4.151 -12.454,2.186c-5.705,-1.965 -9.379,-6.13 -8.207,-9.302Z" style="fill:#fff;"/><path id="Ellipse7" serif:id="Ellipse" d="M186.964,155.52c3.291,-5.116 8.117,-7.658 10.838,-5.764c2.724,1.897 2.383,7.576 -0.821,12.771c-3.266,5.297 -8.244,8.062 -11.057,6.085c-2.81,-1.975 -2.316,-7.877 1.04,-13.092Z" style="fill:#fff;"/><path id="Ellipse8" serif:id="Ellipse" d="M112.592,98.562c3.813,-9.491 10.592,-15.764 15.141,-14.011c4.551,1.753 5.149,10.867 1.337,20.357c-3.813,9.491 -10.592,15.764 -15.142,14.012c-4.55,-1.753 -5.149,-10.867 -1.336,-20.358Z" style="fill:#fff;"/><path id="Path5" serif:id="Path" d="M64.643,199.247c5.195,-0.629 135.757,-3.235 134.029,5.941c-1.729,9.182 -127.647,11.536 -131.163,6.916c-3.52,-4.627 -8.071,-12.226 -2.866,-12.857Z" style="fill:#fff;fill-opacity:0.31;"/><path id="Ellipse9" serif:id="Ellipse" d="M77.14,205.957c-0.089,-2.579 8.389,-4.681 18.645,-4.692c9.948,-0.011 17.848,1.96 17.915,4.399c0.067,2.438 -7.708,4.528 -17.634,4.676c-10.234,0.152 -18.837,-1.808 -18.926,-4.383Z" style="fill:#fff;"/><path id="Ellipse10" serif:id="Ellipse" d="M131.002,206.036c-0.157,-2.023 2.127,-3.821 5.1,-4.016c2.969,-0.194 5.5,1.285 5.656,3.304c0.157,2.018 -2.12,3.815 -5.088,4.014c-2.972,0.199 -5.511,-1.279 -5.668,-3.302Z" style="fill:#fff;"/><path id="Ellipse11" serif:id="Ellipse" d="M211.522,108.701c-1.059,-10.251 6.834,-20.729 16.416,-21.702c9.582,-0.974 20.128,7.229 21.187,17.481c1.06,10.251 -8.396,19.919 -17.978,20.892c-9.583,0.973 -18.565,-6.419 -19.625,-16.671Z" style="fill:#f5cc00;"/><path id="Ellipse12" serif:id="Ellipse" d="M110.297,58.168c-1.059,-10.25 6.834,-20.729 16.416,-21.702c9.582,-0.973 20.128,7.229 21.187,17.481c1.059,10.251 -8.396,19.919 -17.978,20.892c-9.583,0.973 -18.565,-6.419 -19.625,-16.671Z" style="fill:#f5cc00;"/><path id="Ellipse13" serif:id="Ellipse" d="M6.889,109.212c-1.059,-10.25 6.833,-20.729 16.416,-21.702c9.582,-0.973 20.127,7.229 21.187,17.481c1.06,10.251 -8.396,19.919 -17.978,20.892c-9.583,0.973 -18.565,-6.419 -19.625,-16.671Z" style="fill:#f5cc00;"/><path id="Ellipse14" serif:id="Ellipse" d="M107.951,161.239c-0,-17.113 8.976,-30.985 20.049,-30.985c11.073,-0 20.049,13.872 20.049,30.985c0,17.113 -8.976,30.985 -20.049,30.985c-11.073,0 -20.049,-13.872 -20.049,-30.985Z" style="fill:#f9e24f;"/><path id="Ellipse15" serif:id="Ellipse" d="M107.951,153.948c-0,-17.112 8.976,-30.985 20.049,-30.985c11.073,0 20.049,13.873 20.049,30.985c0,17.113 -8.976,30.986 -20.049,30.986c-11.073,-0 -20.049,-13.873 -20.049,-30.986Z" style="fill:#3672aa;stroke:#0c3457;stroke-width:2px;"/><path id="Ellipse16" serif:id="Ellipse" d="M113.419,145.063c-0,-8.179 5.814,-14.809 12.986,-14.809c7.172,-0 12.987,6.63 12.987,14.809c-0,8.179 -5.815,14.809 -12.987,14.809c-7.172,0 -12.986,-6.63 -12.986,-14.809Z" style="fill:#4ba1f3;"/><path id="Ellipse17" serif:id="Ellipse" d="M119.342,141.19c0,-4.027 3.264,-7.291 7.291,-7.291c4.027,0 7.291,3.264 7.291,7.291c-0,4.026 -3.264,7.29 -7.291,7.29c-4.027,0 -7.291,-3.264 -7.291,-7.29Z" style="fill:#fff;"/><path id="Ellipse18" serif:id="Ellipse" d="M10.894,103.142c0,-5.159 3.979,-9.341 8.886,-9.341c4.907,-0 8.885,4.182 8.885,9.341c0,5.159 -3.978,9.341 -8.885,9.341c-4.907,0 -8.886,-4.182 -8.886,-9.341Z" style="fill:#fbe75c;"/><path id="Ellipse19" serif:id="Ellipse" d="M119.342,49.374c0,-5.159 3.978,-9.341 8.886,-9.341c4.907,-0 8.885,4.182 8.885,9.341c0,5.159 -3.978,9.341 -8.885,9.341c-4.908,-0 -8.886,-4.182 -8.886,-9.341Z" style="fill:#fbe75c;"/><path id="Ellipse20" serif:id="Ellipse" d="M224.145,99.952c-0,-5.159 3.978,-9.341 8.885,-9.341c4.908,0 8.886,4.182 8.886,9.341c-0,5.159 -3.978,9.341 -8.886,9.341c-4.907,0 -8.885,-4.182 -8.885,-9.341Z" style="fill:#fbe75c;"/><path id="Ellipse21" serif:id="Ellipse" d="M18.185,96.307c0,-2.894 2.346,-5.24 5.24,-5.24c2.894,-0 5.24,2.346 5.24,5.24c0,2.894 -2.346,5.24 -5.24,5.24c-2.894,0 -5.24,-2.346 -5.24,-5.24Z" style="fill:#fff;"/><path id="Ellipse22" serif:id="Ellipse" d="M123.899,46.412c0,-2.768 2.244,-5.012 5.012,-5.012c2.769,-0 5.013,2.244 5.013,5.012c-0,2.768 -2.244,5.012 -5.013,5.012c-2.768,0 -5.012,-2.244 -5.012,-5.012Z" style="fill:#fff;"/><path id="Ellipse23" serif:id="Ellipse" d="M223.234,93.801c-0,-2.517 2.04,-4.557 4.556,-4.557c2.517,0 4.557,2.04 4.557,4.557c-0,2.516 -2.04,4.556 -4.557,4.556c-2.516,0 -4.556,-2.04 -4.556,-4.556Z" style="fill:#fff;"/><path id="Ellipse24" serif:id="Ellipse" d="M56.461,82.409c-0,-6.795 5.508,-12.303 12.303,-12.303c6.795,0 12.303,5.508 12.303,12.303c-0,6.795 -5.508,12.303 -12.303,12.303c-6.795,0 -12.303,-5.508 -12.303,-12.303Z" style="fill:#d59b00;"/><path id="Ellipse25" serif:id="Ellipse" d="M62.384,80.131c0,-3.523 2.857,-6.379 6.38,-6.379c3.523,-0 6.379,2.856 6.379,6.379c0,3.523 -2.856,6.379 -6.379,6.379c-3.523,0 -6.38,-2.856 -6.38,-6.379Z" style="fill:#ffb53f;"/><path id="Ellipse26" serif:id="Ellipse" d="M64.663,75.346c-0,-1.635 1.326,-2.961 2.962,-2.961c1.635,-0 2.961,1.326 2.961,2.961c0,1.636 -1.326,2.962 -2.961,2.962c-1.636,0 -2.962,-1.326 -2.962,-2.962Z" style="fill:#fcd163;"/><path id="Ellipse27" serif:id="Ellipse" d="M182.68,81.498c-0,-6.795 5.508,-12.303 12.303,-12.303c6.794,0 12.302,5.508 12.302,12.303c0,6.795 -5.508,12.303 -12.302,12.303c-6.795,-0 -12.303,-5.508 -12.303,-12.303Z" style="fill:#d59b00;"/><path id="Ellipse28" serif:id="Ellipse" d="M188.603,79.22c0,-3.524 2.856,-6.38 6.38,-6.38c3.523,0 6.379,2.856 6.379,6.38c-0,3.523 -2.856,6.379 -6.379,6.379c-3.524,-0 -6.38,-2.856 -6.38,-6.379Z" style="fill:#ffb53f;"/><path id="Ellipse29" serif:id="Ellipse" d="M190.882,74.435c-0,-1.636 1.326,-2.962 2.961,-2.962c1.636,0 2.962,1.326 2.962,2.962c0,1.636 -1.326,2.962 -2.962,2.962c-1.635,-0 -2.961,-1.326 -2.961,-2.962Z" style="fill:#fcd163;"/></g></g></svg>