<?xml version="1.0" encoding="UTF-8" standalone="no"?><!DOCTYPE svg PUBLIC "-//W3C//DTD SVG 1.1//EN" "http://www.w3.org/Graphics/SVG/1.1/DTD/svg11.dtd"><svg width="100%" height="100%" viewBox="0 0 256 256" version="1.1" xmlns="http://www.w3.org/2000/svg" xmlns:xlink="http://www.w3.org/1999/xlink" xml:space="preserve" xmlns:serif="http://www.serif.com/" style="fill-rule:evenodd;clip-rule:evenodd;stroke-linecap:round;stroke-linejoin:round;stroke-miterlimit:1.5;"><g id="Crown--Border-" serif:id="Crown (Border)"><ellipse cx="41.816" cy="171.753" rx="21.088" ry="29.923" style="fill:#339af0;stroke:#1971c2;stroke-width:6.69px;"/><ellipse cx="214.184" cy="171.753" rx="21.088" ry="29.923" style="fill:#339af0;stroke:#1971c2;stroke-width:6.69px;"/><path d="M119.338,73.833c-11,-4.196 -18.824,-14.851 -18.824,-27.319c0,-16.131 13.097,-29.227 29.228,-29.227c16.131,-0 29.228,13.096 29.228,29.227c-0,12.468 -7.824,23.123 -18.824,27.319l40.17,59.324l18.359,-13.744c-5.819,-5.345 -9.467,-13.013 -9.467,-21.527c-0,-16.132 13.096,-29.228 29.228,-29.228c16.131,-0 29.227,13.096 29.227,29.228c0,15.774 -12.524,28.647 -28.162,29.208c-1.685,22.486 -4.162,55.345 -5.821,76.576c-1.546,19.781 -18.049,35.043 -37.89,35.043c-27.99,0 -66.983,0 -94.973,0c-19.841,0 -36.343,-15.262 -37.889,-35.043c-1.66,-21.231 -3.285,-54.09 -4.303,-76.576c-0.352,0.013 -0.706,0.019 -1.061,0.019c-16.131,0 -29.227,-13.096 -29.227,-29.227c-0,-16.132 13.096,-29.228 29.227,-29.228c16.132,-0 29.228,13.096 29.228,29.228c0,7.88 -3.125,15.036 -8.204,20.296l20.386,15.262l40.364,-59.611Z" style="fill:none;stroke:#b7720b;stroke-width:17.33px;"/><circle cx="129.742" cy="46.514" r="29.228" style="fill:#ffe703;"/><path d="M136.498,74.956c-2.17,0.514 -4.431,0.786 -6.756,0.786c-16.131,0 -29.228,-13.096 -29.228,-29.228c0,-16.131 13.097,-29.227 29.228,-29.227c2.325,-0 4.586,0.271 6.756,0.786c-12.879,3.051 -22.473,14.635 -22.473,28.441c0,13.807 9.594,25.391 22.473,28.442Z" style="fill:#ffcc02;"/><circle cx="139.399" cy="41.201" r="11.399" style="fill:#fff;"/><circle cx="218.436" cy="97.886" r="29.228" style="fill:#ffe703;"/><path d="M224.583,126.465c-1.983,0.425 -4.039,0.648 -6.147,0.648c-16.132,0 -29.228,-13.096 -29.228,-29.227c-0,-16.132 13.096,-29.228 29.228,-29.228c2.108,-0 4.164,0.224 6.147,0.649c-13.184,2.826 -23.081,14.556 -23.081,28.579c-0,14.023 9.897,25.752 23.081,28.579Z" style="fill:#ffcc02;"/><circle cx="227.01" cy="92.526" r="11.399" style="fill:#fff;"/><circle cx="37.564" cy="97.886" r="29.228" style="fill:#ffcc02;"/><path d="M80.817,238.713c-19.841,0 -36.343,-15.262 -37.889,-35.043c-2.729,-34.903 -5.364,-101.228 -5.364,-101.228l41.41,31.002l50.768,-74.975l50.574,74.688l41.027,-30.715c0,0 -4.935,66.325 -7.663,101.228c-1.546,19.781 -18.049,35.043 -37.89,35.043c-27.99,0 -66.983,0 -94.973,0Z" style="fill:#ffe703;"/><path d="M135.308,87.387c3.364,-1.942 13.036,8.502 21.585,23.309c8.548,14.807 12.757,28.405 9.393,30.347c-3.364,1.942 -13.035,-8.502 -21.584,-23.309c-8.549,-14.806 -12.758,-28.404 -9.394,-30.347Z" style="fill:#fff;"/><path d="M80.817,238.713c-19.841,0 -36.343,-15.262 -37.889,-35.043c-2.729,-34.903 -5.364,-101.228 -5.364,-101.228l41.41,31.002l29.076,-42.941l72.266,95.263l38.12,-46.127c-0,0 -2.028,29.128 -4.756,64.031c-1.546,19.781 -18.049,35.043 -37.89,35.043c-27.99,0 -66.983,0 -94.973,0Z" style="fill:#ffcc02;"/><g><ellipse cx="131.452" cy="178.514" rx="21.088" ry="29.923" style="fill:#339af0;stroke:#1971c2;stroke-width:6.69px;"/><circle cx="135.947" cy="170.566" r="7.947" style="fill:#fff;"/></g></g></svg>