<?xml version="1.0" encoding="UTF-8" standalone="no"?><!DOCTYPE svg PUBLIC "-//W3C//DTD SVG 1.1//EN" "http://www.w3.org/Graphics/SVG/1.1/DTD/svg11.dtd"><svg width="100%" height="100%" viewBox="0 0 256 256" version="1.1" xmlns="http://www.w3.org/2000/svg" xmlns:xlink="http://www.w3.org/1999/xlink" xml:space="preserve" xmlns:serif="http://www.serif.com/" style="fill-rule:evenodd;clip-rule:evenodd;stroke-linejoin:round;stroke-miterlimit:2;"><g id="Cup--Border-" serif:id="Cup (Border)"><g><path d="M181.516,223.129c-0,-14.925 -12.117,-27.042 -27.042,-27.042l-52.948,0c-14.925,0 -27.042,12.117 -27.042,27.042c0,3.731 3.029,6.76 6.761,6.76l93.51,0c3.732,0 6.761,-3.029 6.761,-6.76Z" style="fill:none;stroke:#b7720b;stroke-width:16.22px;"/><path d="M128,140.058c9.348,0 16.937,33.373 16.937,56.515l-33.874,0c-0,-23.142 7.589,-56.515 16.937,-56.515Z" style="fill:none;stroke:#b7720b;stroke-width:16.22px;"/><path d="M54.927,45.54c-12.765,-3.571 -24.286,-1.313 -32.659,4.718c-8.538,6.15 -14.072,16.347 -14.072,29.364c0,23.276 18.779,47.551 42.055,54.062c12.765,3.571 24.286,1.313 32.659,-4.718c8.538,-6.15 14.072,-16.347 14.072,-29.364c-0,-23.276 -18.779,-47.551 -42.055,-54.062Zm-4.676,16.719c16.144,4.517 29.37,21.198 29.37,37.343c-0,6.694 -2.467,12.113 -6.858,15.276c-4.556,3.282 -10.889,4.03 -17.836,2.087c-16.144,-4.517 -29.37,-21.198 -29.37,-37.343c0,-6.694 2.467,-12.114 6.858,-15.276c4.556,-3.282 10.889,-4.03 17.836,-2.087Z" style="fill:none;stroke:#b7720b;stroke-width:16.22px;"/><path d="M201.073,45.54c-23.276,6.511 -42.055,30.786 -42.055,54.062c0,13.017 5.534,23.214 14.072,29.364c8.373,6.031 19.894,8.289 32.659,4.718c23.276,-6.511 42.055,-30.786 42.055,-54.062c-0,-13.017 -5.534,-23.214 -14.072,-29.364c-8.373,-6.031 -19.894,-8.289 -32.659,-4.718Zm4.676,16.719c6.947,-1.943 13.28,-1.195 17.836,2.087c4.391,3.162 6.858,8.582 6.858,15.276c-0,16.145 -13.226,32.826 -29.37,37.343c-6.947,1.943 -13.28,1.195 -17.836,-2.087c-4.391,-3.163 -6.858,-8.582 -6.858,-15.276c0,-16.145 13.226,-32.826 29.37,-37.343Z" style="fill:none;stroke:#b7720b;stroke-width:16.22px;"/><path d="M191.741,35.275c-0,-5.061 -3.917,-9.164 -8.748,-9.164c-23.302,-0 -86.684,-0 -109.986,-0c-4.831,-0 -8.748,4.103 -8.748,9.164c0,18.297 0,57.612 0,57.612c0,36.854 28.562,66.776 63.741,66.776c35.179,-0 63.741,-29.922 63.741,-66.776l-0,-57.612Z" style="fill:none;stroke:#b7720b;stroke-width:15.86px;"/></g><path d="M181.516,223.129c-0,-14.925 -12.117,-27.042 -27.042,-27.042l-52.948,0c-14.925,0 -27.042,12.117 -27.042,27.042c0,3.731 3.029,6.76 6.761,6.76l93.51,0c3.732,0 6.761,-3.029 6.761,-6.76Z" style="fill:#ffd516;"/><clipPath id="_clip1"><path d="M181.516,223.129c-0,-14.925 -12.117,-27.042 -27.042,-27.042l-52.948,0c-14.925,0 -27.042,12.117 -27.042,27.042c0,3.731 3.029,6.76 6.761,6.76l93.51,0c3.732,0 6.761,-3.029 6.761,-6.76Z"/></clipPath><g clip-path="url(#_clip1)"><path d="M154.863,196.087l-53.726,0c-14.71,0 -26.653,12.117 -26.653,27.042c0,3.731 2.986,6.76 6.663,6.76l17.944,0c-3.677,0 -6.663,-3.029 -6.663,-6.76c0,-14.925 11.943,-27.042 26.653,-27.042l35.782,0Z" style="fill:#f59f00;"/></g><g><path d="M128,140.058c9.348,0 16.937,33.373 16.937,56.515l-33.874,0c-0,-23.142 7.589,-56.515 16.937,-56.515Z" style="fill:#ffd516;"/><clipPath id="_clip2"><path d="M128,140.058c9.348,0 16.937,33.373 16.937,56.515l-33.874,0c-0,-23.142 7.589,-56.515 16.937,-56.515Z"/></clipPath><g clip-path="url(#_clip2)"><path d="M122.479,196.573l-11.416,0c-0,-23.142 7.589,-56.515 16.937,-56.515c2.002,0 3.924,1.531 5.708,4.166c-6.543,9.662 -11.229,34.164 -11.229,52.349Z" style="fill:#f59f00;"/></g></g><g><path d="M54.927,45.54c-12.765,-3.571 -24.286,-1.313 -32.659,4.718c-8.538,6.15 -14.072,16.347 -14.072,29.364c0,23.276 18.779,47.551 42.055,54.062c12.765,3.571 24.286,1.313 32.659,-4.718c8.538,-6.15 14.072,-16.347 14.072,-29.364c-0,-23.276 -18.779,-47.551 -42.055,-54.062Zm-4.676,16.719c16.144,4.517 29.37,21.198 29.37,37.343c-0,6.694 -2.467,12.113 -6.858,15.276c-4.556,3.282 -10.889,4.03 -17.836,2.087c-16.144,-4.517 -29.37,-21.198 -29.37,-37.343c0,-6.694 2.467,-12.114 6.858,-15.276c4.556,-3.282 10.889,-4.03 17.836,-2.087Z" style="fill:#fab005;"/><path d="M201.073,45.54c-23.276,6.511 -42.055,30.786 -42.055,54.062c0,13.017 5.534,23.214 14.072,29.364c8.373,6.031 19.894,8.289 32.659,4.718c23.276,-6.511 42.055,-30.786 42.055,-54.062c-0,-13.017 -5.534,-23.214 -14.072,-29.364c-8.373,-6.031 -19.894,-8.289 -32.659,-4.718Zm4.676,16.719c6.947,-1.943 13.28,-1.195 17.836,2.087c4.391,3.162 6.858,8.582 6.858,15.276c-0,16.145 -13.226,32.826 -29.37,37.343c-6.947,1.943 -13.28,1.195 -17.836,-2.087c-4.391,-3.163 -6.858,-8.582 -6.858,-15.276c0,-16.145 13.226,-32.826 29.37,-37.343Z" style="fill:#ffd516;"/></g><g><path d="M191.741,35.275c-0,-5.061 -3.917,-9.164 -8.748,-9.164c-23.302,-0 -86.684,-0 -109.986,-0c-4.831,-0 -8.748,4.103 -8.748,9.164c0,18.297 0,57.612 0,57.612c0,36.854 28.562,66.776 63.741,66.776c35.179,-0 63.741,-29.922 63.741,-66.776l-0,-57.612Z" style="fill:#ffd516;"/><clipPath id="_clip3"><path d="M191.741,35.275c-0,-5.061 -3.917,-9.164 -8.748,-9.164c-23.302,-0 -86.684,-0 -109.986,-0c-4.831,-0 -8.748,4.103 -8.748,9.164c0,18.297 0,57.612 0,57.612c0,36.854 28.562,66.776 63.741,66.776c35.179,-0 63.741,-29.922 63.741,-66.776l-0,-57.612Z"/></clipPath><g clip-path="url(#_clip3)"><path d="M89.033,26.111l-27.828,-0l0,68.277c0,37.683 24.401,68.277 54.456,68.277c4.809,-0 9.473,-0.784 13.914,-2.253c-23.325,-7.719 -40.542,-34.37 -40.542,-66.024l0,-68.277Z" style="fill:#fab005;"/></g><path d="M183.698,92.887l0,-36.664c0,-2.662 -2.161,-4.823 -4.822,-4.823c-2.662,-0 -4.823,2.161 -4.823,4.823l0,36.664c0,2.661 2.161,4.822 4.823,4.822c2.661,0 4.822,-2.161 4.822,-4.822Z" style="fill:#fff;"/><ellipse cx="177.27" cy="110.093" rx="5.236" ry="5.768" style="fill:#fff;"/><path d="M226.364,52.382c1.333,-1.333 4.243,-0.588 6.494,1.663c2.25,2.251 2.996,5.16 1.663,6.493c-1.333,1.333 -4.242,0.588 -6.493,-1.663c-2.251,-2.251 -2.996,-5.161 -1.664,-6.493Z" style="fill:#fff;"/></g><ellipse cx="137.06" cy="178.186" rx="5.011" ry="9.523" style="fill:#fff;"/><path d="M163.664,204.175c1.903,-1.801 5.092,-1.528 7.117,0.611c2.025,2.139 2.123,5.338 0.22,7.139c-1.903,1.802 -5.092,1.529 -7.117,-0.61c-2.024,-2.139 -2.123,-5.338 -0.22,-7.14Z" style="fill:#fff;"/></g></svg>