<?xml version="1.0" encoding="UTF-8" standalone="no"?><!DOCTYPE svg PUBLIC "-//W3C//DTD SVG 1.1//EN" "http://www.w3.org/Graphics/SVG/1.1/DTD/svg11.dtd"><svg width="100%" height="100%" viewBox="0 0 256 256" version="1.1" xmlns="http://www.w3.org/2000/svg" xmlns:xlink="http://www.w3.org/1999/xlink" xml:space="preserve" xmlns:serif="http://www.serif.com/" style="fill-rule:evenodd;clip-rule:evenodd;stroke-linejoin:round;stroke-miterlimit:2;"><g id="Emoji---Crying" serif:id="Emoji - Crying"><circle cx="128" cy="128" r="123.238" style="fill:#d67931;"/><circle cx="128" cy="127.064" r="112.765" style="fill:url(#_Linear1);"/><circle cx="128" cy="127.064" r="99.523" style="fill:url(#_Linear2);"/><g><path d="M100.541,68.784c-5.441,-0.371 -10.497,0.139 -15.06,1.494c-3.445,1.023 -6.619,2.51 -9.36,4.416c-2.198,1.53 -4.133,3.302 -5.764,5.268c-4.042,4.872 -6.513,10.433 -7.308,16.14c-0.354,1.291 0.407,2.627 1.698,2.982c1.291,0.354 2.627,-0.407 2.982,-1.698c1.322,-3.095 3.444,-5.774 5.933,-8.362c2.226,-2.314 4.955,-4.163 7.928,-5.947c2.183,-1.309 4.494,-2.558 7.05,-3.548c3.589,-1.39 7.502,-2.542 11.901,-2.842c2.18,-0 3.951,-1.771 3.951,-3.951c-0,-2.181 -1.771,-3.952 -3.951,-3.952Z" style="fill:url(#_Linear3);"/><path d="M155.459,76.687c4.399,0.3 8.312,1.452 11.901,2.842c2.556,0.99 4.867,2.239 7.05,3.548c2.973,1.784 5.702,3.633 7.928,5.947c2.489,2.588 4.611,5.267 5.933,8.362c0.355,1.291 1.691,2.052 2.982,1.698c1.291,-0.355 2.052,-1.691 1.698,-2.982c-0.795,-5.707 -3.266,-11.268 -7.308,-16.14c-1.631,-1.966 -3.566,-3.738 -5.764,-5.268c-2.741,-1.906 -5.915,-3.393 -9.36,-4.416c-4.563,-1.355 -9.619,-1.865 -15.06,-1.494c-2.18,0 -3.951,1.771 -3.951,3.952c0,2.18 1.771,3.951 3.951,3.951Z" style="fill:url(#_Linear4);"/></g><g><ellipse cx="178.42" cy="161.036" rx="17.165" ry="13.819" style="fill:#ffaf38;"/><ellipse cx="77.58" cy="161.036" rx="17.165" ry="13.819" style="fill:#ffaf38;"/></g><path d="M187.696,42.469c10.87,6.945 16.779,17.149 13.186,22.772c-3.592,5.622 -15.334,4.547 -26.204,-2.399c-10.871,-6.945 -16.779,-17.149 -13.186,-22.772c3.592,-5.622 15.334,-4.547 26.204,2.399Z" style="fill:#fff;"/><path d="M47.381,172.956c2.161,3.856 2.398,7.838 0.527,8.886c-1.87,1.048 -5.143,-1.231 -7.304,-5.087c-2.161,-3.857 -2.397,-7.838 -0.527,-8.886c1.87,-1.048 5.143,1.231 7.304,5.087Z" style="fill:#fff;"/><g><ellipse cx="89.276" cy="120.474" rx="18.386" ry="19.105" style="fill:url(#_Linear5);"/><ellipse cx="166.724" cy="120.474" rx="18.386" ry="19.105" style="fill:url(#_Linear6);"/></g><path d="M154.74,196.772c1.007,0.575 2.257,0.511 3.2,-0.163c0.944,-0.674 1.409,-1.835 1.192,-2.974c-2.887,-14.559 -15.739,-25.555 -31.139,-25.555c-15.4,-0 -28.251,10.996 -31.126,25.557c-0.215,1.134 0.248,2.29 1.187,2.961c0.94,0.67 2.183,0.734 3.186,0.162c7.182,-3.755 16.653,-6.472 26.753,-6.472c10.1,0 19.571,2.717 26.747,6.484Z" style="fill:url(#_Linear7);"/><g><path d="M91.617,159.875c-0.969,-2.144 -3.122,-3.538 -5.511,-3.569c-2.39,-0.031 -4.578,1.307 -5.602,3.426c-7.6,14.801 -20.148,41.265 -20.324,55.069c-0.173,13.635 10.967,24.848 24.863,25.025c13.895,0.178 25.318,-10.748 25.491,-24.383c0.176,-13.804 -11.693,-40.58 -18.917,-55.568Z" style="fill:#d67931;"/><path d="M91.586,145.752c-0.968,-2.145 -3.121,-3.539 -5.511,-3.57c-2.389,-0.031 -4.578,1.307 -5.601,3.426c-7.6,14.801 -20.148,41.265 -20.324,55.069c-0.174,13.635 10.967,24.849 24.862,25.026c13.896,0.177 25.318,-10.749 25.492,-24.384c0.176,-13.804 -11.693,-40.579 -18.918,-55.567Z" style="fill:#228be6;"/><path d="M89.357,160.059c-0.61,-1.496 -1.968,-2.468 -3.477,-2.487c-1.509,-0.02 -2.892,0.916 -3.541,2.396c-4.811,10.336 -12.757,28.818 -12.88,38.452c-0.121,9.517 6.904,17.334 15.679,17.446c8.774,0.112 15.997,-7.524 16.118,-17.04c0.123,-9.635 -7.35,-28.313 -11.899,-38.767Z" style="fill:url(#_Linear8);"/><path d="M72.136,201.047c3.029,-1.665 7.012,-0.35 8.889,2.935c1.877,3.286 0.942,7.305 -2.087,8.97c-3.029,1.665 -7.011,0.35 -8.888,-2.935c-1.877,-3.286 -0.942,-7.305 2.086,-8.97Z" style="fill:#add9fb;"/></g></g><defs><linearGradient id="_Linear1" x1="0" y1="0" x2="1" y2="0" gradientUnits="userSpaceOnUse" gradientTransform="matrix(-143.526,167.773,-167.773,-143.526,197.788,40.5529)"><stop offset="0" style="stop-color:#ffd43b;stop-opacity:1"/><stop offset="1" style="stop-color:#fab005;stop-opacity:1"/></linearGradient><linearGradient id="_Linear2" x1="0" y1="0" x2="1" y2="0" gradientUnits="userSpaceOnUse" gradientTransform="matrix(-124.224,155.304,-155.304,-124.224,187.168,47.0534)"><stop offset="0" style="stop-color:#ffeeac;stop-opacity:1"/><stop offset="1" style="stop-color:#ffeeac;stop-opacity:0"/></linearGradient><linearGradient id="_Linear3" x1="0" y1="0" x2="1" y2="0" gradientUnits="userSpaceOnUse" gradientTransform="matrix(2.20623e-15,-26.4647,36.0305,1.6205e-15,83.727,99.1705)"><stop offset="0" style="stop-color:#9d5a26;stop-opacity:1"/><stop offset="1" style="stop-color:#622f07;stop-opacity:1"/></linearGradient><linearGradient id="_Linear4" x1="0" y1="0" x2="1" y2="0" gradientUnits="userSpaceOnUse" gradientTransform="matrix(-2.20623e-15,-26.4647,-36.0305,1.6205e-15,172.273,99.1705)"><stop offset="0" style="stop-color:#9d5a26;stop-opacity:1"/><stop offset="1" style="stop-color:#622f07;stop-opacity:1"/></linearGradient><linearGradient id="_Linear5" x1="0" y1="0" x2="1" y2="0" gradientUnits="userSpaceOnUse" gradientTransform="matrix(1.95349e-15,-33.1497,31.903,2.02984e-15,89.2761,139.578)"><stop offset="0" style="stop-color:#9d5a26;stop-opacity:1"/><stop offset="1" style="stop-color:#622f07;stop-opacity:1"/></linearGradient><linearGradient id="_Linear6" x1="0" y1="0" x2="1" y2="0" gradientUnits="userSpaceOnUse" gradientTransform="matrix(1.95349e-15,-33.1497,31.903,2.02984e-15,166.724,139.578)"><stop offset="0" style="stop-color:#9d5a26;stop-opacity:1"/><stop offset="1" style="stop-color:#622f07;stop-opacity:1"/></linearGradient><linearGradient id="_Linear7" x1="0" y1="0" x2="1" y2="0" gradientUnits="userSpaceOnUse" gradientTransform="matrix(1.35988e-15,-22.2085,22.2085,1.35988e-15,127.993,190.288)"><stop offset="0" style="stop-color:#9d5a26;stop-opacity:1"/><stop offset="1" style="stop-color:#622f07;stop-opacity:1"/></linearGradient><linearGradient id="_Linear8" x1="0" y1="0" x2="1" y2="0" gradientUnits="userSpaceOnUse" gradientTransform="matrix(4.57436,-52.2602,52.2602,4.57436,82.8023,210.181)"><stop offset="0" style="stop-color:#49a2ea;stop-opacity:1"/><stop offset="1" style="stop-color:#49a2ea;stop-opacity:0"/></linearGradient></defs></svg>