<?xml version="1.0" encoding="UTF-8" standalone="no"?><!DOCTYPE svg PUBLIC "-//W3C//DTD SVG 1.1//EN" "http://www.w3.org/Graphics/SVG/1.1/DTD/svg11.dtd"><svg width="100%" height="100%" viewBox="0 0 256 256" version="1.1" xmlns="http://www.w3.org/2000/svg" xmlns:xlink="http://www.w3.org/1999/xlink" xml:space="preserve" xmlns:serif="http://www.serif.com/" style="fill-rule:evenodd;clip-rule:evenodd;stroke-linejoin:round;stroke-miterlimit:2;"><g id="Emoji---Happy" serif:id="Emoji - Happy"><circle cx="128" cy="128" r="123.238" style="fill:#d67931;"/><circle cx="128" cy="127.064" r="112.765" style="fill:url(#_Linear1);"/><circle cx="128" cy="127.064" r="99.523" style="fill:url(#_Linear2);"/><g><path d="M156.186,76.62c4.815,-0.579 9.011,-0.129 12.756,0.606c2.9,0.569 5.465,1.475 7.827,2.434c3.635,1.476 6.757,3.099 9.256,4.934c5.149,3.782 7.983,7.412 7.983,7.412c0.611,1.191 2.074,1.663 3.266,1.052c1.191,-0.611 1.663,-2.074 1.052,-3.266c0,0 -2.309,-6.611 -8.735,-13.009c-2.328,-2.317 -5.214,-4.538 -8.724,-6.255c-3.025,-1.479 -6.539,-2.508 -10.416,-2.961c-4.681,-0.546 -9.915,-0.199 -15.718,1.285c-2.144,0.401 -3.559,2.466 -3.158,4.61c0.401,2.144 2.467,3.558 4.611,3.158Z" style="fill:#985623;"/><path d="M99.363,68.852c-5.803,-1.484 -11.037,-1.831 -15.719,-1.285c-3.877,0.453 -7.391,1.482 -10.416,2.961c-3.509,1.717 -6.396,3.938 -8.724,6.255c-6.426,6.398 -8.735,13.009 -8.735,13.009c-0.611,1.192 -0.139,2.655 1.053,3.266c1.191,0.611 2.655,0.139 3.266,-1.052c-0,-0 2.833,-3.63 7.983,-7.412c2.499,-1.835 5.62,-3.458 9.256,-4.934c2.361,-0.959 4.927,-1.865 7.826,-2.434c3.745,-0.735 7.941,-1.185 12.757,-0.606c2.143,0.4 4.209,-1.014 4.61,-3.158c0.401,-2.144 -1.014,-4.209 -3.157,-4.61Z" style="fill:#985623;"/></g><g><ellipse cx="185.778" cy="159.438" rx="17.165" ry="13.819" style="fill:#d6336c;fill-opacity:0.31;"/><ellipse cx="70.222" cy="159.438" rx="17.165" ry="13.819" style="fill:#d6336c;fill-opacity:0.31;"/></g><path d="M101.26,153.93c-1.007,-0.575 -2.257,-0.512 -3.2,0.162c-0.944,0.674 -1.409,1.835 -1.192,2.974c2.887,14.56 15.739,25.555 31.139,25.555c15.4,0 28.251,-10.995 31.126,-25.557c0.215,-1.134 -0.248,-2.29 -1.187,-2.96c-0.94,-0.671 -2.183,-0.735 -3.186,-0.163c-7.182,3.756 -16.653,6.472 -26.753,6.472c-10.1,-0 -19.571,-2.716 -26.747,-6.483Z" style="fill:url(#_Linear3);"/><path d="M187.696,42.469c10.87,6.945 16.779,17.149 13.186,22.772c-3.592,5.622 -15.334,4.547 -26.204,-2.399c-10.871,-6.945 -16.779,-17.149 -13.186,-22.772c3.592,-5.622 15.334,-4.547 26.204,2.399Z" style="fill:#fff;"/><path d="M47.381,172.956c2.161,3.856 2.398,7.838 0.527,8.886c-1.87,1.048 -5.143,-1.231 -7.304,-5.087c-2.161,-3.857 -2.397,-7.838 -0.527,-8.886c1.87,-1.048 5.143,1.231 7.304,5.087Z" style="fill:#fff;"/><g><path d="M113.841,126.643c-3.107,-7.976 -8.341,-13.317 -14.199,-16.234c-3.159,-1.573 -6.601,-2.294 -9.999,-2.272c-3.395,0.023 -6.81,0.784 -9.96,2.367c-5.831,2.932 -11.095,8.202 -14.239,16.139c-1.153,2.263 -0.252,5.037 2.012,6.191c2.263,1.153 5.037,0.252 6.191,-2.012c1.696,-2.621 3.774,-4.528 5.853,-6.142c3.142,-2.438 6.669,-3.258 10.143,-3.234c2.863,0.02 5.742,0.595 8.426,2.261c2.706,1.68 5.419,3.835 7.569,7.115c1.154,2.264 3.928,3.165 6.192,2.012c2.263,-1.154 3.165,-3.928 2.011,-6.191Z" style="fill:url(#_Linear4);"/><path d="M190.556,126.643c-3.107,-7.976 -8.341,-13.317 -14.199,-16.234c-3.16,-1.573 -6.601,-2.294 -10,-2.272c-3.394,0.023 -6.81,0.784 -9.959,2.367c-5.831,2.932 -11.096,8.202 -14.239,16.139c-1.154,2.263 -0.252,5.037 2.011,6.191c2.264,1.153 5.038,0.252 6.192,-2.012c1.696,-2.621 3.774,-4.528 5.853,-6.142c3.141,-2.438 6.669,-3.258 10.142,-3.234c2.864,0.02 5.743,0.595 8.427,2.261c2.705,1.68 5.419,3.835 7.569,7.115c1.154,2.264 3.928,3.165 6.191,2.012c2.264,-1.154 3.165,-3.928 2.012,-6.191Z" style="fill:url(#_Linear5);"/></g></g><defs><linearGradient id="_Linear1" x1="0" y1="0" x2="1" y2="0" gradientUnits="userSpaceOnUse" gradientTransform="matrix(-143.526,167.773,-167.773,-143.526,197.788,40.5529)"><stop offset="0" style="stop-color:#ffd43b;stop-opacity:1"/><stop offset="1" style="stop-color:#fab005;stop-opacity:1"/></linearGradient><linearGradient id="_Linear2" x1="0" y1="0" x2="1" y2="0" gradientUnits="userSpaceOnUse" gradientTransform="matrix(-124.224,155.304,-155.304,-124.224,187.168,47.0534)"><stop offset="0" style="stop-color:#ffeeac;stop-opacity:1"/><stop offset="1" style="stop-color:#ffeeac;stop-opacity:0"/></linearGradient><linearGradient id="_Linear3" x1="0" y1="0" x2="1" y2="0" gradientUnits="userSpaceOnUse" gradientTransform="matrix(-1.35988e-15,22.2085,-22.2085,-1.35988e-15,128.007,160.413)"><stop offset="0" style="stop-color:#9d5a26;stop-opacity:1"/><stop offset="1" style="stop-color:#622f07;stop-opacity:1"/></linearGradient><linearGradient id="_Linear4" x1="0" y1="0" x2="1" y2="0" gradientUnits="userSpaceOnUse" gradientTransform="matrix(-2.6244e-15,-21.8622,-42.8597,1.33867e-15,89.6426,133.336)"><stop offset="0" style="stop-color:#9d5a26;stop-opacity:1"/><stop offset="1" style="stop-color:#622f07;stop-opacity:1"/></linearGradient><linearGradient id="_Linear5" x1="0" y1="0" x2="1" y2="0" gradientUnits="userSpaceOnUse" gradientTransform="matrix(-2.6244e-15,-21.8622,-42.8597,1.33867e-15,166.357,133.336)"><stop offset="0" style="stop-color:#9d5a26;stop-opacity:1"/><stop offset="1" style="stop-color:#622f07;stop-opacity:1"/></linearGradient></defs></svg>