<?xml version="1.0" encoding="UTF-8" standalone="no"?><!DOCTYPE svg PUBLIC "-//W3C//DTD SVG 1.1//EN" "http://www.w3.org/Graphics/SVG/1.1/DTD/svg11.dtd"><svg width="100%" height="100%" viewBox="0 0 256 256" version="1.1" xmlns="http://www.w3.org/2000/svg" xmlns:xlink="http://www.w3.org/1999/xlink" xml:space="preserve" xmlns:serif="http://www.serif.com/" style="fill-rule:evenodd;clip-rule:evenodd;stroke-linejoin:round;stroke-miterlimit:2;"><g id="Emoji---Sad" serif:id="Emoji - Sad"><circle cx="128" cy="128" r="123.25" style="fill:#d67931;"/><circle cx="128" cy="127.064" r="112.775" style="fill:url(#_Linear1);"/><circle cx="128" cy="127.064" r="99.533" style="fill:url(#_Linear2);"/><g><path d="M100.538,68.779c-5.442,-0.372 -10.498,0.138 -15.061,1.493c-3.446,1.023 -6.62,2.511 -9.36,4.417c-2.199,1.53 -4.135,3.302 -5.765,5.268c-4.043,4.873 -6.514,10.434 -7.309,16.142c-0.354,1.291 0.406,2.628 1.698,2.982c1.291,0.354 2.628,-0.407 2.982,-1.698c1.323,-3.095 3.445,-5.774 5.934,-8.362c2.226,-2.315 4.955,-4.164 7.929,-5.948c2.183,-1.309 4.495,-2.559 7.05,-3.549c3.589,-1.39 7.503,-2.542 11.902,-2.842c2.181,0 3.952,-1.771 3.952,-3.952c-0,-2.181 -1.771,-3.951 -3.952,-3.951Z" style="fill:#985623;"/><path d="M155.462,76.682c4.399,0.3 8.313,1.452 11.902,2.842c2.555,0.99 4.867,2.24 7.05,3.549c2.974,1.784 5.703,3.633 7.929,5.948c2.489,2.588 4.611,5.267 5.934,8.362c0.354,1.291 1.691,2.052 2.982,1.698c1.292,-0.354 2.052,-1.691 1.698,-2.982c-0.795,-5.708 -3.266,-11.269 -7.309,-16.142c-1.63,-1.966 -3.566,-3.738 -5.765,-5.268c-2.74,-1.906 -5.914,-3.394 -9.36,-4.417c-4.563,-1.355 -9.619,-1.865 -15.061,-1.493c-2.181,-0 -3.952,1.77 -3.952,3.951c0,2.181 1.771,3.952 3.952,3.952Z" style="fill:#985623;"/></g><g><ellipse cx="178.424" cy="161.04" rx="17.166" ry="13.82" style="fill:#ffaf38;"/><ellipse cx="77.576" cy="161.04" rx="17.166" ry="13.82" style="fill:#ffaf38;"/></g><path d="M187.702,42.46c10.871,6.947 16.78,17.152 13.187,22.775c-3.593,5.623 -15.336,4.548 -26.207,-2.399c-10.871,-6.946 -16.78,-17.151 -13.187,-22.774c3.593,-5.623 15.336,-4.548 26.207,2.398Z" style="fill:#fff;"/><path d="M47.373,172.961c2.162,3.856 2.398,7.838 0.528,8.886c-1.87,1.048 -5.144,-1.231 -7.305,-5.088c-2.161,-3.856 -2.398,-7.838 -0.527,-8.887c1.87,-1.048 5.143,1.232 7.304,5.089Z" style="fill:#fff;"/><path d="M101.779,192.881c3.167,-5.558 7.124,-9.604 11.281,-12.553c4.519,-3.204 9.436,-4.643 14.358,-4.657c4.935,-0.013 9.892,1.364 14.422,4.576c4.16,2.951 8.078,7.055 11.217,12.634c0.999,2.058 3.48,2.917 5.537,1.919c2.057,-0.998 2.917,-3.479 1.919,-5.537c-4.584,-11 -11.709,-18.402 -19.622,-22.345c-4.296,-2.14 -8.892,-3.22 -13.473,-3.225c-6.007,-0.007 -12.065,1.778 -17.465,5.404c-6.328,4.249 -11.865,10.965 -15.629,20.166c-0.998,2.058 -0.139,4.539 1.919,5.537c2.057,0.998 4.538,0.139 5.536,-1.919Z" style="fill:url(#_Linear3);"/><path d="M142.994,121.139c3.107,7.976 8.342,13.318 14.201,16.235c3.159,1.574 6.601,2.295 10,2.272c3.395,-0.023 6.811,-0.783 9.961,-2.367c5.831,-2.932 11.096,-8.203 14.24,-16.14c1.154,-2.264 0.252,-5.038 -2.012,-6.192c-2.264,-1.153 -5.038,-0.252 -6.192,2.012c-1.696,2.621 -3.774,4.529 -5.854,6.143c-3.141,2.438 -6.669,3.258 -10.143,3.234c-2.864,-0.02 -5.743,-0.595 -8.427,-2.261c-2.706,-1.68 -5.42,-3.836 -7.57,-7.116c-1.154,-2.264 -3.928,-3.165 -6.192,-2.012c-2.264,1.154 -3.165,3.928 -2.012,6.192Z" style="fill:url(#_Linear4);"/><path d="M66.272,121.139c3.107,7.976 8.342,13.318 14.201,16.235c3.159,1.574 6.601,2.295 10,2.272c3.395,-0.023 6.811,-0.783 9.961,-2.367c5.831,-2.932 11.096,-8.203 14.24,-16.14c1.154,-2.264 0.252,-5.038 -2.012,-6.192c-2.264,-1.153 -5.038,-0.252 -6.192,2.012c-1.696,2.621 -3.774,4.529 -5.854,6.143c-3.141,2.438 -6.669,3.258 -10.143,3.234c-2.864,-0.02 -5.743,-0.595 -8.427,-2.261c-2.706,-1.68 -5.42,-3.836 -7.57,-7.116c-1.154,-2.264 -3.928,-3.165 -6.192,-2.012c-2.264,1.154 -3.165,3.928 -2.012,6.192Z" style="fill:url(#_Linear5);"/></g><defs><linearGradient id="_Linear1" x1="0" y1="0" x2="1" y2="0" gradientUnits="userSpaceOnUse" gradientTransform="matrix(-143.54,167.789,-167.789,-143.54,197.794,40.5447)"><stop offset="0" style="stop-color:#ffd43b;stop-opacity:1"/><stop offset="1" style="stop-color:#fab005;stop-opacity:1"/></linearGradient><linearGradient id="_Linear2" x1="0" y1="0" x2="1" y2="0" gradientUnits="userSpaceOnUse" gradientTransform="matrix(-124.235,155.319,-155.319,-124.235,187.174,47.0458)"><stop offset="0" style="stop-color:#ffeeac;stop-opacity:1"/><stop offset="1" style="stop-color:#ffeeac;stop-opacity:0"/></linearGradient><linearGradient id="_Linear3" x1="0" y1="0" x2="1" y2="0" gradientUnits="userSpaceOnUse" gradientTransform="matrix(2.32473e-15,-37.9658,37.9658,2.32473e-15,128,201.665)"><stop offset="0" style="stop-color:#9d5a26;stop-opacity:1"/><stop offset="1" style="stop-color:#622f07;stop-opacity:1"/></linearGradient><linearGradient id="_Linear4" x1="0" y1="0" x2="1" y2="0" gradientUnits="userSpaceOnUse" gradientTransform="matrix(2.62465e-15,21.8643,42.8637,-1.3388e-15,167.195,114.445)"><stop offset="0" style="stop-color:#9d5a26;stop-opacity:1"/><stop offset="1" style="stop-color:#622f07;stop-opacity:1"/></linearGradient><linearGradient id="_Linear5" x1="0" y1="0" x2="1" y2="0" gradientUnits="userSpaceOnUse" gradientTransform="matrix(2.62465e-15,21.8643,42.8637,-1.3388e-15,90.4731,114.445)"><stop offset="0" style="stop-color:#9d5a26;stop-opacity:1"/><stop offset="1" style="stop-color:#622f07;stop-opacity:1"/></linearGradient></defs></svg>