<?xml version="1.0" encoding="UTF-8" standalone="no"?><!DOCTYPE svg PUBLIC "-//W3C//DTD SVG 1.1//EN" "http://www.w3.org/Graphics/SVG/1.1/DTD/svg11.dtd"><svg width="100%" height="100%" viewBox="0 0 256 256" version="1.1" xmlns="http://www.w3.org/2000/svg" xmlns:xlink="http://www.w3.org/1999/xlink" xml:space="preserve" xmlns:serif="http://www.serif.com/" style="fill-rule:evenodd;clip-rule:evenodd;stroke-linecap:round;stroke-linejoin:round;stroke-miterlimit:1.5;"><g id="Emoji---Love" serif:id="Emoji - Love"><circle cx="128" cy="128" r="123.25" style="fill:#d67931;"/><circle cx="128" cy="127.064" r="112.775" style="fill:url(#_Linear1);"/><circle cx="128" cy="127.064" r="99.533" style="fill:url(#_Linear2);"/><g><path d="M156.188,76.615c4.817,-0.579 9.013,-0.129 12.758,0.606c2.9,0.569 5.465,1.476 7.827,2.435c3.636,1.476 6.758,3.098 9.257,4.934c5.15,3.782 7.984,7.412 7.984,7.412c0.611,1.192 2.074,1.664 3.266,1.053c1.192,-0.611 1.664,-2.075 1.053,-3.266c-0,-0 -2.309,-6.612 -8.736,-13.01c-2.328,-2.318 -5.215,-4.539 -8.725,-6.256c-3.025,-1.48 -6.54,-2.509 -10.417,-2.961c-4.682,-0.547 -9.916,-0.199 -15.72,1.284c-2.143,0.401 -3.558,2.467 -3.157,4.611c0.401,2.144 2.467,3.559 4.61,3.158Z" style="fill:#985623;"/><path d="M99.36,68.846c-5.804,-1.483 -11.038,-1.831 -15.72,-1.284c-3.877,0.452 -7.391,1.481 -10.417,2.961c-3.51,1.717 -6.397,3.938 -8.725,6.256c-6.427,6.398 -8.736,13.01 -8.736,13.01c-0.61,1.191 -0.139,2.655 1.053,3.266c1.192,0.611 2.655,0.139 3.266,-1.053c0,0 2.834,-3.63 7.984,-7.412c2.499,-1.836 5.621,-3.458 9.257,-4.934c2.362,-0.959 4.928,-1.866 7.827,-2.435c3.746,-0.735 7.942,-1.185 12.758,-0.606c2.144,0.401 4.21,-1.014 4.611,-3.158c0.401,-2.144 -1.014,-4.21 -3.158,-4.611Z" style="fill:#985623;"/></g><g><ellipse cx="185.783" cy="159.441" rx="17.166" ry="13.82" style="fill:#d6336c;fill-opacity:0.31;"/><ellipse cx="70.217" cy="159.441" rx="17.166" ry="13.82" style="fill:#d6336c;fill-opacity:0.31;"/></g><path d="M92.457,156.847c4.186,7.24 10.287,12.481 17.251,15.653c4.878,2.222 10.223,3.345 15.546,3.335c3.995,-0.007 7.993,-0.69 11.788,-1.987c8.458,-2.89 16.041,-8.573 21.009,-16.996c1.284,-1.892 0.79,-4.471 -1.102,-5.755c-1.892,-1.284 -4.471,-0.79 -5.755,1.102c-3.228,4.128 -7.361,6.95 -11.769,8.933c-4.474,2.013 -9.334,2.736 -14.178,2.724c-4.831,-0.011 -9.663,-0.795 -14.125,-2.803c-4.399,-1.979 -8.554,-4.735 -11.801,-8.849c-1.282,-1.894 -3.86,-2.392 -5.754,-1.11c-1.894,1.281 -2.391,3.859 -1.11,5.753Z" style="fill:#985623;"/><path d="M187.702,42.46c10.871,6.947 16.78,17.152 13.187,22.775c-3.593,5.623 -15.336,4.548 -26.207,-2.399c-10.871,-6.946 -16.78,-17.151 -13.187,-22.774c3.593,-5.623 15.336,-4.548 26.207,2.398Z" style="fill:#fff;"/><path d="M47.373,172.961c2.162,3.856 2.398,7.838 0.528,8.886c-1.87,1.048 -5.144,-1.231 -7.305,-5.088c-2.161,-3.856 -2.398,-7.838 -0.527,-8.887c1.87,-1.048 5.143,1.232 7.304,5.089Z" style="fill:#fff;"/><g id="Heart---Pink" serif:id="Heart - Pink"><path d="M83.526,108.335c3.229,-11.564 15.036,-14.727 22.277,-11.318c7.241,3.409 9.915,13.391 6.686,24.956c-1.111,4.493 -3.999,9.463 -7.576,14.235c-6.005,8.048 -16.747,10.927 -25.973,6.96c-5.483,-2.345 -10.468,-5.205 -13.678,-8.541c-8.578,-8.4 -11.253,-18.383 -6.687,-24.956c4.566,-6.572 16.373,-9.736 24.951,-1.336Z" style="fill:#f59f00;stroke:#f59f00;stroke-width:2.82px;"/><g><path d="M82.313,103.809c3.229,-11.565 15.036,-14.728 22.277,-11.319c7.241,3.409 9.915,13.392 6.687,24.956c-1.112,4.494 -4,9.463 -7.577,14.235c-6.005,8.048 -16.747,10.927 -25.973,6.96c-5.483,-2.345 -10.468,-5.205 -13.678,-8.541c-8.578,-8.4 -11.253,-18.382 -6.687,-24.955c4.566,-6.573 16.373,-9.737 24.951,-1.336Z" style="fill:#ff4a77;stroke:#cd205c;stroke-width:2.82px;"/><path id="Ellipse" d="M77.563,105.693c0.181,-1.301 -2.369,-2.875 -5.695,-3.514c-3.327,-0.64 -6.17,-0.103 -6.351,1.198c-0.181,1.302 2.47,1.419 5.797,2.059c3.326,0.639 6.068,1.558 6.249,0.257Z" style="fill:#f7f7f7;"/><path id="Ellipse1" serif:id="Ellipse" d="M107.968,103.842c0.539,-0.406 0.498,-1.486 0.01,-2.308c-0.421,-0.71 -1.069,-1.029 -1.511,-0.786c-0.463,0.254 -0.624,1.076 -0.299,1.933c0.38,1.006 1.229,1.591 1.8,1.161Z" style="fill:#f7f7f7;"/><path id="Ellipse2" serif:id="Ellipse" d="M92.706,96.459c0.221,-1.649 3.534,-2.607 7.175,-1.572c3.659,1.039 6.584,3.453 5.085,4.783c-1.202,1.065 -2.258,-0.277 -5.924,-1.329c-3.647,-1.048 -6.547,-0.303 -6.336,-1.882Z" style="fill:#fff;"/></g></g><g id="Heart---Pink1" serif:id="Heart - Pink"><path d="M170.629,109.019c8.578,-8.401 20.385,-5.237 24.951,1.336c4.566,6.573 1.892,16.555 -6.687,24.956c-3.209,3.335 -8.195,6.195 -13.678,8.539c-9.226,3.968 -19.968,1.09 -25.974,-6.959c-3.576,-4.772 -6.463,-9.741 -7.575,-14.235c-3.229,-11.564 -0.554,-21.546 6.687,-24.956c7.24,-3.409 19.047,-0.245 22.276,11.319Z" style="fill:#f59f00;stroke:#f59f00;stroke-width:2.82px;"/><g><path d="M171.842,104.492c8.578,-8.401 20.385,-5.237 24.951,1.336c4.566,6.573 1.892,16.555 -6.687,24.956c-3.21,3.335 -8.195,6.195 -13.678,8.54c-9.226,3.967 -19.968,1.089 -25.974,-6.959c-3.576,-4.773 -6.464,-9.742 -7.575,-14.236c-3.229,-11.564 -0.554,-21.546 6.686,-24.956c7.241,-3.409 19.048,-0.245 22.277,11.319Z" style="fill:#ff4a77;stroke:#cd205c;stroke-width:2.82px;"/><path id="Ellipse3" serif:id="Ellipse" d="M166.786,103.749c0.807,-1.037 -0.614,-3.674 -3.175,-5.891c-2.561,-2.217 -5.292,-3.174 -6.099,-2.138c-0.808,1.037 1.43,2.465 3.991,4.681c2.561,2.217 4.475,4.384 5.283,3.348Z" style="fill:#f7f7f7;"/><path id="Ellipse4" serif:id="Ellipse" d="M194.043,117.348c0.669,-0.082 1.174,-1.038 1.163,-1.994c-0.01,-0.825 -0.411,-1.425 -0.916,-1.436c-0.528,-0.011 -1.078,0.62 -1.226,1.525c-0.173,1.061 0.27,1.993 0.979,1.905Z" style="fill:#f7f7f7;"/><path id="Ellipse5" serif:id="Ellipse" d="M184.517,103.324c1.016,-1.319 4.364,-0.491 7,2.225c2.649,2.73 3.976,6.283 2.012,6.685c-1.574,0.322 -1.817,-1.368 -4.465,-4.113c-2.635,-2.731 -5.519,-3.536 -4.547,-4.797Z" style="fill:#fff;"/></g></g></g><defs><linearGradient id="_Linear1" x1="0" y1="0" x2="1" y2="0" gradientUnits="userSpaceOnUse" gradientTransform="matrix(-143.54,167.789,-167.789,-143.54,197.794,40.5447)"><stop offset="0" style="stop-color:#ffd43b;stop-opacity:1"/><stop offset="1" style="stop-color:#fab005;stop-opacity:1"/></linearGradient><linearGradient id="_Linear2" x1="0" y1="0" x2="1" y2="0" gradientUnits="userSpaceOnUse" gradientTransform="matrix(-124.235,155.319,-155.319,-124.235,187.174,47.0458)"><stop offset="0" style="stop-color:#ffeeac;stop-opacity:1"/><stop offset="1" style="stop-color:#ffeeac;stop-opacity:0"/></linearGradient></defs></svg>