<?xml version="1.0" encoding="UTF-8" standalone="no"?><!DOCTYPE svg PUBLIC "-//W3C//DTD SVG 1.1//EN" "http://www.w3.org/Graphics/SVG/1.1/DTD/svg11.dtd"><svg width="100%" height="100%" viewBox="0 0 256 256" version="1.1" xmlns="http://www.w3.org/2000/svg" xmlns:xlink="http://www.w3.org/1999/xlink" xml:space="preserve" xmlns:serif="http://www.serif.com/" style="fill-rule:evenodd;clip-rule:evenodd;stroke-linejoin:round;stroke-miterlimit:2;"><g id="Emoji---Smile" serif:id="Emoji - Smile"><circle cx="128" cy="128" r="123.238" style="fill:#d67931;"/><circle cx="128" cy="127.064" r="112.765" style="fill:url(#_Linear1);"/><circle cx="128" cy="127.064" r="99.523" style="fill:url(#_Linear2);"/><g><path d="M156.186,76.62c4.815,-0.579 9.011,-0.129 12.756,0.606c2.9,0.569 5.465,1.475 7.827,2.434c3.635,1.476 6.757,3.099 9.256,4.934c5.149,3.782 7.983,7.412 7.983,7.412c0.611,1.191 2.074,1.663 3.266,1.052c1.191,-0.611 1.663,-2.074 1.052,-3.266c0,0 -2.309,-6.611 -8.735,-13.009c-2.328,-2.317 -5.214,-4.538 -8.724,-6.255c-3.025,-1.479 -6.539,-2.508 -10.416,-2.961c-4.681,-0.546 -9.915,-0.199 -15.718,1.285c-2.144,0.401 -3.559,2.466 -3.158,4.61c0.401,2.144 2.467,3.558 4.611,3.158Z" style="fill:#985623;"/><path d="M99.363,68.852c-5.803,-1.484 -11.037,-1.831 -15.719,-1.285c-3.877,0.453 -7.391,1.482 -10.416,2.961c-3.509,1.717 -6.396,3.938 -8.724,6.255c-6.426,6.398 -8.735,13.009 -8.735,13.009c-0.611,1.192 -0.139,2.655 1.053,3.266c1.191,0.611 2.655,0.139 3.266,-1.052c-0,-0 2.833,-3.63 7.983,-7.412c2.499,-1.835 5.62,-3.458 9.256,-4.934c2.361,-0.959 4.927,-1.865 7.826,-2.434c3.745,-0.735 7.941,-1.185 12.757,-0.606c2.143,0.4 4.209,-1.014 4.61,-3.158c0.401,-2.144 -1.014,-4.209 -3.157,-4.61Z" style="fill:#985623;"/></g><g><ellipse cx="185.778" cy="159.438" rx="17.165" ry="13.819" style="fill:#d6336c;fill-opacity:0.31;"/><ellipse cx="70.222" cy="159.438" rx="17.165" ry="13.819" style="fill:#d6336c;fill-opacity:0.31;"/></g><path d="M95.205,157.83c4.185,7.239 10.285,12.48 17.249,15.652c4.878,2.221 10.222,3.344 15.544,3.334c3.995,-0.007 7.993,-0.69 11.787,-1.987c8.457,-2.889 16.04,-8.572 21.007,-16.994c1.284,-1.892 0.79,-4.471 -1.102,-5.755c-1.892,-1.283 -4.47,-0.79 -5.754,1.102c-3.228,4.127 -7.36,6.95 -11.768,8.933c-4.474,2.012 -9.333,2.735 -14.176,2.723c-4.831,-0.011 -9.662,-0.794 -14.124,-2.802c-4.399,-1.979 -8.554,-4.736 -11.801,-8.849c-1.281,-1.894 -3.858,-2.391 -5.752,-1.11c-1.894,1.281 -2.392,3.859 -1.11,5.753Z" style="fill:#985623;"/><path d="M187.696,42.469c10.87,6.945 16.779,17.149 13.186,22.772c-3.592,5.622 -15.334,4.547 -26.204,-2.399c-10.871,-6.945 -16.779,-17.149 -13.186,-22.772c3.592,-5.622 15.334,-4.547 26.204,2.399Z" style="fill:#fff;"/><path d="M47.381,172.956c2.161,3.856 2.398,7.838 0.527,8.886c-1.87,1.048 -5.143,-1.231 -7.304,-5.087c-2.161,-3.857 -2.397,-7.838 -0.527,-8.886c1.87,-1.048 5.143,1.231 7.304,5.087Z" style="fill:#fff;"/><g><ellipse cx="89.276" cy="120.474" rx="18.386" ry="19.105" style="fill:url(#_Linear3);"/><ellipse cx="166.724" cy="120.474" rx="18.386" ry="19.105" style="fill:url(#_Linear4);"/></g></g><defs><linearGradient id="_Linear1" x1="0" y1="0" x2="1" y2="0" gradientUnits="userSpaceOnUse" gradientTransform="matrix(-143.526,167.773,-167.773,-143.526,197.788,40.5529)"><stop offset="0" style="stop-color:#ffd43b;stop-opacity:1"/><stop offset="1" style="stop-color:#fab005;stop-opacity:1"/></linearGradient><linearGradient id="_Linear2" x1="0" y1="0" x2="1" y2="0" gradientUnits="userSpaceOnUse" gradientTransform="matrix(-124.224,155.304,-155.304,-124.224,187.168,47.0534)"><stop offset="0" style="stop-color:#ffeeac;stop-opacity:1"/><stop offset="1" style="stop-color:#ffeeac;stop-opacity:0"/></linearGradient><linearGradient id="_Linear3" x1="0" y1="0" x2="1" y2="0" gradientUnits="userSpaceOnUse" gradientTransform="matrix(1.95349e-15,-33.1497,31.903,2.02984e-15,89.2761,139.578)"><stop offset="0" style="stop-color:#9d5a26;stop-opacity:1"/><stop offset="1" style="stop-color:#622f07;stop-opacity:1"/></linearGradient><linearGradient id="_Linear4" x1="0" y1="0" x2="1" y2="0" gradientUnits="userSpaceOnUse" gradientTransform="matrix(1.95349e-15,-33.1497,31.903,2.02984e-15,166.724,139.578)"><stop offset="0" style="stop-color:#9d5a26;stop-opacity:1"/><stop offset="1" style="stop-color:#622f07;stop-opacity:1"/></linearGradient></defs></svg>