<?xml version="1.0" encoding="UTF-8" standalone="no"?><!DOCTYPE svg PUBLIC "-//W3C//DTD SVG 1.1//EN" "http://www.w3.org/Graphics/SVG/1.1/DTD/svg11.dtd"><svg width="100%" height="100%" viewBox="0 0 256 256" version="1.1" xmlns="http://www.w3.org/2000/svg" xmlns:xlink="http://www.w3.org/1999/xlink" xml:space="preserve" xmlns:serif="http://www.serif.com/" style="fill-rule:evenodd;clip-rule:evenodd;stroke-linejoin:round;stroke-miterlimit:2;"><g id="Emoji---Shocked" serif:id="Emoji - Shocked"><circle cx="128" cy="128" r="123.238" style="fill:#d67931;"/><circle cx="128" cy="127.064" r="112.765" style="fill:url(#_Linear1);"/><circle cx="128" cy="127.064" r="99.523" style="fill:url(#_Linear2);"/><g><path d="M157.138,64.044c4.816,-0.579 9.012,-0.129 12.757,0.606c2.899,0.569 5.464,1.475 7.826,2.434c3.636,1.476 6.757,3.099 9.256,4.934c5.149,3.782 7.983,7.412 7.983,7.412c0.611,1.191 2.074,1.663 3.266,1.052c1.192,-0.611 1.663,-2.074 1.053,-3.266c-0,0 -2.309,-6.611 -8.736,-13.008c-2.327,-2.317 -5.214,-4.539 -8.724,-6.255c-3.025,-1.48 -6.539,-2.509 -10.416,-2.962c-4.681,-0.546 -9.915,-0.199 -15.718,1.285c-2.143,0.401 -3.558,2.467 -3.157,4.61c0.401,2.144 2.467,3.559 4.61,3.158Z" style="fill:#985623;"/><path d="M100.315,56.276c-5.803,-1.484 -11.037,-1.831 -15.718,-1.285c-3.877,0.453 -7.391,1.482 -10.416,2.962c-3.51,1.716 -6.397,3.938 -8.724,6.255c-6.427,6.397 -8.736,13.008 -8.736,13.008c-0.61,1.192 -0.139,2.655 1.053,3.266c1.192,0.611 2.655,0.139 3.266,-1.052c-0,-0 2.834,-3.63 7.983,-7.412c2.499,-1.835 5.62,-3.458 9.256,-4.934c2.362,-0.959 4.927,-1.865 7.826,-2.434c3.745,-0.735 7.941,-1.185 12.757,-0.606c2.143,0.401 4.209,-1.014 4.61,-3.158c0.401,-2.143 -1.014,-4.209 -3.157,-4.61Z" style="fill:#985623;"/></g><g><ellipse cx="185.783" cy="159.43" rx="17.166" ry="13.82" style="fill:#d6336c;fill-opacity:0.31;"/><ellipse cx="70.217" cy="159.43" rx="17.166" ry="13.82" style="fill:#d6336c;fill-opacity:0.31;"/></g><path d="M189.532,41.45c7.383,4.718 11.396,11.649 8.956,15.468c-2.44,3.819 -10.416,3.089 -17.799,-1.629c-7.384,-4.718 -11.397,-11.649 -8.957,-15.468c2.441,-3.819 10.416,-3.089 17.8,1.629Z" style="fill:#fff;"/><path d="M47.381,172.956c2.161,3.856 2.398,7.838 0.527,8.886c-1.87,1.048 -5.143,-1.231 -7.304,-5.087c-2.161,-3.857 -2.397,-7.838 -0.527,-8.886c1.87,-1.048 5.143,1.231 7.304,5.087Z" style="fill:#fff;"/><g><ellipse cx="89.276" cy="120.474" rx="18.386" ry="19.105" style="fill:url(#_Linear3);"/><ellipse cx="128" cy="179.161" rx="15.329" ry="14.524" style="fill:url(#_Linear4);"/><ellipse cx="166.724" cy="120.474" rx="18.386" ry="19.105" style="fill:url(#_Linear5);"/></g></g><defs><linearGradient id="_Linear1" x1="0" y1="0" x2="1" y2="0" gradientUnits="userSpaceOnUse" gradientTransform="matrix(-143.526,167.773,-167.773,-143.526,197.788,40.5529)"><stop offset="0" style="stop-color:#ffd43b;stop-opacity:1"/><stop offset="1" style="stop-color:#fab005;stop-opacity:1"/></linearGradient><linearGradient id="_Linear2" x1="0" y1="0" x2="1" y2="0" gradientUnits="userSpaceOnUse" gradientTransform="matrix(-124.224,155.304,-155.304,-124.224,187.168,47.0534)"><stop offset="0" style="stop-color:#ffeeac;stop-opacity:1"/><stop offset="1" style="stop-color:#ffeeac;stop-opacity:0"/></linearGradient><linearGradient id="_Linear3" x1="0" y1="0" x2="1" y2="0" gradientUnits="userSpaceOnUse" gradientTransform="matrix(1.95349e-15,-33.1497,31.903,2.02984e-15,89.2761,139.578)"><stop offset="0" style="stop-color:#9d5a26;stop-opacity:1"/><stop offset="1" style="stop-color:#622f07;stop-opacity:1"/></linearGradient><linearGradient id="_Linear4" x1="0" y1="0" x2="1" y2="0" gradientUnits="userSpaceOnUse" gradientTransform="matrix(1.62868e-15,-25.2009,26.5984,1.54311e-15,128,193.685)"><stop offset="0" style="stop-color:#9d5a26;stop-opacity:1"/><stop offset="1" style="stop-color:#622f07;stop-opacity:1"/></linearGradient><linearGradient id="_Linear5" x1="0" y1="0" x2="1" y2="0" gradientUnits="userSpaceOnUse" gradientTransform="matrix(1.95349e-15,-33.1497,31.903,2.02984e-15,166.724,139.578)"><stop offset="0" style="stop-color:#9d5a26;stop-opacity:1"/><stop offset="1" style="stop-color:#622f07;stop-opacity:1"/></linearGradient></defs></svg>