<?xml version="1.0" encoding="UTF-8" standalone="no"?><!DOCTYPE svg PUBLIC "-//W3C//DTD SVG 1.1//EN" "http://www.w3.org/Graphics/SVG/1.1/DTD/svg11.dtd"><svg width="100%" height="100%" viewBox="0 0 256 256" version="1.1" xmlns="http://www.w3.org/2000/svg" xmlns:xlink="http://www.w3.org/1999/xlink" xml:space="preserve" xmlns:serif="http://www.serif.com/" style="fill-rule:evenodd;clip-rule:evenodd;stroke-linejoin:round;stroke-miterlimit:2;"><g id="Emoji---Fear" serif:id="Emoji - Fear"><circle cx="128" cy="128" r="123.238" style="fill:url(#_Linear1);"/><circle cx="128" cy="127.064" r="112.765" style="fill:url(#_Linear2);"/><clipPath id="_clip3"><circle cx="128" cy="127.064" r="112.765"/></clipPath><g clip-path="url(#_clip3)"><rect x="8.202" y="4.762" width="239.597" height="123.238" style="fill:url(#_Linear4);"/></g><circle cx="128" cy="127.064" r="99.523" style="fill:url(#_Linear5);"/><clipPath id="_clip6"><circle cx="128" cy="127.064" r="99.523"/></clipPath><g clip-path="url(#_clip6)"><rect x="8.202" y="4.762" width="239.597" height="123.238" style="fill:url(#_Linear7);"/></g><g><path d="M150.759,63.022c2.399,4.898 5.369,9.021 8.824,12.296c2.608,2.471 5.483,4.477 8.505,5.897c2.424,1.139 4.926,1.929 7.443,2.358c6.241,1.064 12.292,0.424 17.632,-1.741c1.296,-0.339 2.072,-1.666 1.733,-2.961c-0.338,-1.296 -1.665,-2.073 -2.961,-1.734c-3.341,0.402 -6.722,-0.096 -10.208,-0.958c-3.117,-0.77 -6.083,-2.209 -9.114,-3.892c-2.226,-1.236 -4.463,-2.613 -6.598,-4.331c-2.998,-2.413 -5.952,-5.226 -8.412,-8.885c-1.09,-1.889 -3.509,-2.537 -5.397,-1.447c-1.889,1.091 -2.537,3.509 -1.447,5.398Z" style="fill:url(#_Linear8);"/><path d="M98.397,59.071c-2.46,3.659 -5.414,6.472 -8.412,8.885c-2.135,1.718 -4.372,3.095 -6.598,4.331c-3.031,1.683 -5.997,3.122 -9.114,3.892c-3.486,0.862 -6.867,1.36 -10.208,0.958c-1.296,-0.339 -2.623,0.438 -2.961,1.734c-0.339,1.295 0.437,2.622 1.733,2.961c5.34,2.165 11.391,2.805 17.632,1.741c2.517,-0.429 5.019,-1.219 7.443,-2.358c3.022,-1.42 5.897,-3.426 8.505,-5.897c3.455,-3.275 6.425,-7.398 8.824,-12.296c1.09,-1.889 0.442,-4.307 -1.447,-5.398c-1.888,-1.09 -4.307,-0.442 -5.397,1.447Z" style="fill:url(#_Linear9);"/></g><g><ellipse cx="178.42" cy="161.036" rx="17.165" ry="13.819" style="fill:#ffaf38;"/><ellipse cx="77.58" cy="161.036" rx="17.165" ry="13.819" style="fill:#ffaf38;"/></g><path d="M187.696,42.469c10.87,6.945 16.779,17.149 13.186,22.772c-3.592,5.622 -15.334,4.547 -26.204,-2.399c-10.871,-6.945 -16.779,-17.149 -13.186,-22.772c3.592,-5.622 15.334,-4.547 26.204,2.399Z" style="fill:#fff;"/><path d="M47.381,172.956c2.161,3.856 2.398,7.838 0.527,8.886c-1.87,1.048 -5.143,-1.231 -7.304,-5.087c-2.161,-3.857 -2.397,-7.838 -0.527,-8.886c1.87,-1.048 5.143,1.231 7.304,5.087Z" style="fill:#fff;"/><g><ellipse cx="89.276" cy="122.306" rx="18.386" ry="19.105" style="fill:url(#_Linear10);"/><ellipse cx="166.724" cy="122.306" rx="18.386" ry="19.105" style="fill:url(#_Linear11);"/></g><path d="M128,160.535c14.441,0 22.991,5.441 28.012,11.311c1.815,2.131 2.063,5.183 0.616,7.578c-1.447,2.396 -4.264,3.597 -6.995,2.983c-5.958,-1.217 -13.471,-2.307 -21.633,-2.307c-8.162,0 -15.675,1.09 -21.625,2.346c-2.747,0.619 -5.582,-0.59 -7.038,-3c-1.456,-2.411 -1.206,-5.483 0.62,-7.626c5.052,-5.844 13.602,-11.285 28.043,-11.285Z" style="fill:url(#_Linear12);"/></g><defs><linearGradient id="_Linear1" x1="0" y1="0" x2="1" y2="0" gradientUnits="userSpaceOnUse" gradientTransform="matrix(8.07388e-15,131.856,-131.856,8.07388e-15,128,4.9684)"><stop offset="0" style="stop-color:#1864ab;stop-opacity:1"/><stop offset="1" style="stop-color:#d67931;stop-opacity:1"/></linearGradient><linearGradient id="_Linear2" x1="0" y1="0" x2="1" y2="0" gradientUnits="userSpaceOnUse" gradientTransform="matrix(-143.526,167.773,-167.773,-143.526,197.788,40.5529)"><stop offset="0" style="stop-color:#ffd43b;stop-opacity:1"/><stop offset="1" style="stop-color:#fab005;stop-opacity:1"/></linearGradient><linearGradient id="_Linear4" x1="0" y1="0" x2="1" y2="0" gradientUnits="userSpaceOnUse" gradientTransform="matrix(5.92178e-15,105.511,-96.71,6.4607e-15,128,21.4673)"><stop offset="0" style="stop-color:#1971c2;stop-opacity:1"/><stop offset="1" style="stop-color:#1971c2;stop-opacity:0"/></linearGradient><linearGradient id="_Linear5" x1="0" y1="0" x2="1" y2="0" gradientUnits="userSpaceOnUse" gradientTransform="matrix(-124.224,155.304,-155.304,-124.224,187.168,47.0534)"><stop offset="0" style="stop-color:#ffeeac;stop-opacity:1"/><stop offset="1" style="stop-color:#ffeeac;stop-opacity:0"/></linearGradient><linearGradient id="_Linear7" x1="0" y1="0" x2="1" y2="0" gradientUnits="userSpaceOnUse" gradientTransform="matrix(5.92178e-15,105.511,-96.71,6.4607e-15,128,21.4673)"><stop offset="0" style="stop-color:#339af0;stop-opacity:1"/><stop offset="1" style="stop-color:#339af0;stop-opacity:0"/></linearGradient><linearGradient id="_Linear8" x1="0" y1="0" x2="1" y2="0" gradientUnits="userSpaceOnUse" gradientTransform="matrix(-22.9191,13.2324,-18.0153,-31.2033,185.482,62.3899)"><stop offset="0" style="stop-color:#9d5a26;stop-opacity:1"/><stop offset="1" style="stop-color:#622f07;stop-opacity:1"/></linearGradient><linearGradient id="_Linear9" x1="0" y1="0" x2="1" y2="0" gradientUnits="userSpaceOnUse" gradientTransform="matrix(22.9191,13.2324,18.0153,-31.2033,70.5184,62.3899)"><stop offset="0" style="stop-color:#9d5a26;stop-opacity:1"/><stop offset="1" style="stop-color:#622f07;stop-opacity:1"/></linearGradient><linearGradient id="_Linear10" x1="0" y1="0" x2="1" y2="0" gradientUnits="userSpaceOnUse" gradientTransform="matrix(1.95349e-15,-33.1497,31.903,2.02984e-15,89.2761,141.411)"><stop offset="0" style="stop-color:#9d5a26;stop-opacity:1"/><stop offset="1" style="stop-color:#622f07;stop-opacity:1"/></linearGradient><linearGradient id="_Linear11" x1="0" y1="0" x2="1" y2="0" gradientUnits="userSpaceOnUse" gradientTransform="matrix(1.95349e-15,-33.1497,31.903,2.02984e-15,166.724,141.411)"><stop offset="0" style="stop-color:#9d5a26;stop-opacity:1"/><stop offset="1" style="stop-color:#622f07;stop-opacity:1"/></linearGradient><linearGradient id="_Linear12" x1="0" y1="0" x2="1" y2="0" gradientUnits="userSpaceOnUse" gradientTransform="matrix(3.71176e-15,-22.2479,60.6176,1.36229e-15,128,186.179)"><stop offset="0" style="stop-color:#9d5a26;stop-opacity:1"/><stop offset="1" style="stop-color:#622f07;stop-opacity:1"/></linearGradient></defs></svg>