<?xml version="1.0" encoding="UTF-8" standalone="no"?><!DOCTYPE svg PUBLIC "-//W3C//DTD SVG 1.1//EN" "http://www.w3.org/Graphics/SVG/1.1/DTD/svg11.dtd"><svg width="100%" height="100%" viewBox="0 0 256 256" version="1.1" xmlns="http://www.w3.org/2000/svg" xmlns:xlink="http://www.w3.org/1999/xlink" xml:space="preserve" xmlns:serif="http://www.serif.com/" style="fill-rule:evenodd;clip-rule:evenodd;stroke-linejoin:round;stroke-miterlimit:2;"><g id="Firecracker-x1" serif:id="Firecracker x1"><path id="Layer-2" serif:id="Layer 2" d="M123.458,192.394c29.138,-0 60.094,-7.87 57.509,25.744c-0.998,12.974 -23.657,23.737 -52.796,23.737c-29.138,0 -50.904,-10.854 -52.795,-23.737c-4.201,-28.624 18.943,-25.744 48.082,-25.744Z" style="fill:#a52331;"/><path id="Layer-3" serif:id="Layer 3" d="M133.705,189.092c23.761,-0 49.004,-7.869 46.896,25.744c-0.814,12.975 -19.291,23.738 -43.052,23.738c-23.761,-0 -41.51,-10.855 -43.051,-23.738c-3.426,-28.623 15.447,-25.744 39.207,-25.744Z" style="fill:#df3841;fill-opacity:0.51;"/><path id="Layer-4" serif:id="Layer 4" d="M128.012,183.547c29.05,0 52.636,11.002 52.636,24.554c-0,13.551 -23.586,24.553 -52.636,24.553c-29.051,-0 -52.636,-11.002 -52.636,-24.553c0,-13.552 23.585,-24.554 52.636,-24.554Z" style="fill:#d1343d;"/><path id="Layer-5" serif:id="Layer 5" d="M79.752,66.643l97.856,0l0,138.181l-0.044,0c0.03,0.33 0.044,0.66 0.044,0.992c0,12.756 -21.924,23.112 -48.928,23.112c-27.004,-0 -48.928,-10.356 -48.928,-23.112c0,-0.332 0.015,-0.663 0.045,-0.992l-0.045,0l0,-138.181Z" style="fill:#a52331;"/><path id="Layer-6" serif:id="Layer 6" d="M99.44,99.055c53.059,8.421 77.203,-28.607 77.203,-28.607l-2.263,57.162l0,78.157l-0.037,-0c0.025,0.263 0.037,0.527 0.037,0.792c0,10.186 -18.124,18.456 -40.448,18.456c-22.323,-0 -40.447,-8.27 -40.447,-18.456c-0,-0.266 -3.329,-108.977 5.955,-107.504Z" style="fill:#d1343d;"/><path id="Layer-7" serif:id="Layer 7" d="M174.009,201.899l-0.044,-0c0.029,0.329 0.044,0.66 0.044,0.991c0,8.476 -11.577,16.357 -25.996,20.379c0,-0 -3.489,-100.81 -0.516,-124.301c1.155,-9.13 28.892,-28.71 28.892,-28.71l-2.38,131.641Z" style="fill:#ff5569;fill-opacity:0.69;"/><path id="Layer-8" serif:id="Layer 8" d="M123.778,45.701c28.1,-0 57.952,-7.589 55.459,24.826c-0.962,12.513 -22.814,21.478 -50.914,21.478c-28.1,-0 -49.09,-9.054 -50.913,-21.478c-4.052,-27.603 18.268,-24.826 46.368,-24.826Z" style="fill:#f14b5c;"/><path id="Layer-9" serif:id="Layer 9" d="M126.72,48.05c25.417,0 52.42,-7.075 50.164,23.146c-0.87,11.666 -20.635,20.024 -46.052,20.024c-25.417,-0 -44.403,-8.441 -46.052,-20.024c-3.665,-25.734 16.524,-23.146 41.94,-23.146Z" style="fill:#ff7583;"/><path id="Layer-10" serif:id="Layer 10" d="M177.608,157.884l0,22.768c-9.416,8.709 -26.12,16.317 -46.422,20.517c-20.938,4.333 -39.403,3.695 -51.434,-0.959l0,-16.273c11.903,3.258 28.447,3.304 46.916,-0.518c24.123,-4.991 43.166,-14.792 50.94,-25.535Zm0,-35.51l0,22.377c-9.568,8.344 -25.831,15.588 -45.455,19.648c-21.507,4.45 -40.405,3.656 -52.401,-1.348l0,-16.159c11.965,3.527 28.909,3.683 47.883,-0.243c23.176,-4.796 41.663,-14.03 49.973,-24.275Zm0,-39.466l0,23.28c-9.212,9.093 -26.373,17.092 -47.39,21.441c-20.384,4.218 -38.424,3.724 -50.466,-0.599l0,-16.379c11.824,3.003 27.975,2.946 45.948,-0.773c25.193,-5.212 44.846,-15.67 51.908,-26.97Z" style="fill:#fff;fill-opacity:0.62;"/><path id="Layer-11" serif:id="Layer 11" d="M146.929,177.7c14.319,-5.267 25.248,-12.311 30.679,-19.816l0,22.768c-6.846,6.333 -17.546,12.082 -30.679,16.364l-0,-19.316Zm-0,-36.419c13.98,-5.011 24.841,-11.71 30.679,-18.907l0,22.377c-7.043,6.142 -17.712,11.687 -30.679,15.806l-0,-19.276Zm-0,-37.482c14.743,-5.565 25.762,-13.024 30.679,-20.891l0,23.28c-6.624,6.538 -17.358,12.511 -30.679,16.968l-0,-19.357Z" style="fill:#fff;"/><path id="Layer-12" serif:id="Layer 12" d="M128.169,37.17c28.016,-0 50.76,10.61 50.76,23.678c0,13.068 -22.744,23.678 -50.76,23.678c-28.015,0 -50.759,-10.61 -50.759,-23.678c-0,-13.068 22.744,-23.678 50.759,-23.678Z" style="fill:url(#_Linear1);"/><path id="Layer-13" serif:id="Layer 13" d="M127.001,57.538c0,-0 -35.332,3.765 -36.139,8.067c-0.806,4.303 37.214,-1.478 43.132,-3.227c10.473,-3.096 -6.993,-4.84 -6.993,-4.84Z" style="fill:#a52331;fill-opacity:0.81;"/><path id="Layer-14" serif:id="Layer 14" d="M134.089,60.274c0,-0.041 0.702,-9.665 0.702,-15.091c0,-17.141 -2.248,-31.144 -7.746,-31.058c-6.866,0.107 -0.827,12.551 -1.33,31.058c-0.145,5.321 -0.846,14.963 -0.846,15.091c0,1.36 2.066,2.464 4.61,2.464c2.545,-0 4.61,-1.104 4.61,-2.464Z" style="fill:#a07231;"/><path id="Layer-15" serif:id="Layer 15" d="M133.69,59.248c-0,-0.037 0.123,-8.818 0.255,-13.766c0.47,-17.586 -2.324,-28.25 -4.324,-28.172c-2.497,0.098 1.206,11.29 1.023,28.172c-0.052,4.854 -0.307,13.649 -0.307,13.766c-0,1.24 0.751,2.247 1.676,2.247c0.926,0 1.677,-1.007 1.677,-2.247Z" style="fill:#cf9e2b;"/><path id="Layer-16" serif:id="Layer 16" d="M164.855,91.899c4.676,0 8.472,14.153 8.472,31.584c0,17.432 -3.796,31.584 -8.472,31.584c-4.676,0 -8.473,-14.152 -8.473,-31.584c0,-17.431 3.797,-31.584 8.473,-31.584Z" style="fill:#fff;fill-opacity:0.45;"/><path id="Layer-17" serif:id="Layer 17" d="M159.104,81.471c3.771,-1.38 7.159,-1.61 7.56,-0.513c0.401,1.097 -2.334,3.108 -6.105,4.488c-3.771,1.38 -7.159,1.61 -7.56,0.513c-0.401,-1.096 2.334,-3.107 6.105,-4.488Z" style="fill:#f79ba5;"/><path id="Layer-18" serif:id="Layer 18" d="M130.821,22.697c1.137,-0.058 2.485,4.211 2.758,9.539c0.272,5.329 0.25,9.668 -0.887,9.726c-1.136,0.058 -1.232,-4.017 -1.504,-9.345c-0.273,-5.329 -1.504,-9.862 -0.367,-9.92Z" style="fill:#ffed7f;"/></g><defs><linearGradient id="_Linear1" x1="0" y1="0" x2="1" y2="0" gradientUnits="userSpaceOnUse" gradientTransform="matrix(-70.1027,-44.9887,44.9887,-70.1027,171.698,91.4328)"><stop offset="0" style="stop-color:#ad2633;stop-opacity:1"/><stop offset="1" style="stop-color:#d1343d;stop-opacity:1"/></linearGradient></defs></svg>