<?xml version="1.0" encoding="UTF-8" standalone="no"?><!DOCTYPE svg PUBLIC "-//W3C//DTD SVG 1.1//EN" "http://www.w3.org/Graphics/SVG/1.1/DTD/svg11.dtd"><svg width="100%" height="100%" viewBox="0 0 256 256" version="1.1" xmlns="http://www.w3.org/2000/svg" xmlns:xlink="http://www.w3.org/1999/xlink" xml:space="preserve" xmlns:serif="http://www.serif.com/" style="fill-rule:evenodd;clip-rule:evenodd;stroke-linejoin:round;stroke-miterlimit:2;"><g id="Firecracker"><g id="Layer-20" serif:id="Layer 20"><path id="Layer-3" serif:id="Layer 3" d="M160.096,178.587c28.547,5.843 60.452,4.341 51.179,36.753c-3.58,12.511 -27.936,18.512 -56.483,12.669c-28.547,-5.843 -47.694,-20.842 -46.963,-33.842c1.624,-28.885 23.72,-21.423 52.267,-15.58Z" style="fill:#a52331;"/><path id="Layer-4" serif:id="Layer 4" d="M196.172,201.248c8.004,1.639 17.2,-0.006 13.53,14.308c-1.416,5.525 -8.588,8.881 -16.592,7.243c-8.004,-1.638 -13.027,-7.531 -12.412,-13.179c1.366,-12.55 7.47,-10.01 15.474,-8.372Z" style="fill:#c32e3a;"/><path id="Layer-5" serif:id="Layer 5" d="M166.332,170.833c28.46,5.826 49.36,21.333 46.643,34.609c-2.717,13.277 -28.03,19.326 -56.49,13.501c-28.461,-5.825 -49.361,-21.333 -46.644,-34.609c2.718,-13.277 28.03,-19.326 56.491,-13.501Z" style="fill:#d1343d;"/><path id="Layer-6" serif:id="Layer 6" d="M142.494,46.627l95.868,19.622l-8.082,39.49l-19.626,95.884l-0.043,-0.009c-0.037,0.329 -0.089,0.656 -0.156,0.981c-2.557,12.497 -26.112,18.246 -52.568,12.831c-26.456,-5.414 -45.858,-19.956 -43.3,-32.453c0.066,-0.326 0.147,-0.646 0.242,-0.963l-0.043,-0.009l27.708,-135.374Z" style="fill:#a52331;"/><path id="Layer-7" serif:id="Layer 7" d="M155.282,82.328c50.293,18.889 81.372,-12.546 81.372,-12.546l-13.679,55.548l-15.672,76.569l-0.036,-0.007c-0.029,0.262 -0.07,0.523 -0.123,0.783c-2.043,9.979 -21.457,14.447 -43.327,9.971c-21.87,-4.476 -37.968,-16.213 -35.926,-26.192c0.054,-0.26 18.591,-107.431 27.391,-104.126Z" style="fill:#d1343d;"/><path id="Layer-8" serif:id="Layer 8" d="M207.715,198.035l-0.044,-0.009c-0.037,0.329 -0.088,0.656 -0.155,0.981c-1.699,8.304 -14.622,13.703 -29.554,14.752c-0,0 16.796,-99.462 24.419,-121.88c2.962,-8.713 34.062,-22.334 34.062,-22.334l-28.728,128.49Z" style="fill:#ff5569;fill-opacity:0.69;"/><path id="Layer-9" serif:id="Layer 9" d="M189.824,34.938c27.529,5.634 58.297,4.186 49.355,35.442c-3.452,12.066 -26.657,16.467 -54.186,10.833c-27.53,-5.635 -46.278,-18.714 -45.573,-31.251c1.566,-27.855 22.875,-20.659 50.404,-15.024Z" style="fill:#f14b5c;"/><path id="Layer-10" serif:id="Layer 10" d="M192.236,37.83c24.901,5.096 52.773,3.579 44.504,32.734c-3.192,11.254 -24.231,15.479 -49.132,10.383c-24.901,-5.097 -41.809,-17.173 -41.102,-28.852c1.57,-25.946 20.829,-19.362 45.73,-14.265Z" style="fill:#ff7583;"/><path id="Layer-11" serif:id="Layer 11" d="M220.067,155.636l-4.566,22.306c-10.971,6.644 -28.861,10.748 -49.593,10.792c-21.382,0.046 -39.343,-4.281 -50.197,-11.253l3.263,-15.943c11.007,5.579 27.207,8.941 46.066,8.9c24.634,-0.053 45.256,-5.836 55.027,-14.802Zm7.12,-34.789l-4.487,21.923c-11.047,6.256 -28.432,10.091 -48.472,10.135c-21.962,0.047 -40.317,-4.521 -51.066,-11.829l3.24,-15.831c11.015,5.855 27.583,9.405 46.959,9.364c23.667,-0.051 43.63,-5.391 53.826,-13.762Zm7.914,-38.664l-4.668,22.808c-10.849,7.06 -29.265,11.456 -50.727,11.502c-20.816,0.045 -38.391,-4.056 -49.321,-10.706l3.284,-16.046c10.982,5.313 26.816,8.496 45.17,8.456c25.726,-0.055 47.077,-6.36 56.262,-16.014Z" style="fill:#fff;fill-opacity:0.62;"/><path id="Layer-12" serif:id="Layer 12" d="M186.037,168.898c15.084,-2.288 27.204,-6.998 34.03,-13.262l-4.566,22.306c-7.977,4.831 -19.612,8.319 -33.337,9.88l3.873,-18.924Zm7.302,-35.679c14.702,-2.106 26.686,-6.491 33.848,-12.372l-4.487,21.923c-8.131,4.605 -19.696,7.898 -33.226,9.333l3.865,-18.884Zm7.516,-36.721c15.56,-2.496 27.851,-7.594 34.246,-14.315l-4.668,22.808c-7.801,5.077 -19.514,8.776 -33.459,10.471l3.881,-18.964Z" style="fill:#fff;"/><path id="Layer-13" serif:id="Layer 13" d="M195.837,27.46c27.447,5.618 47.602,20.573 44.981,33.376c-2.62,12.803 -27.03,18.637 -54.476,13.019c-27.447,-5.617 -47.602,-20.573 -44.981,-33.376c2.62,-12.802 27.03,-18.636 54.476,-13.019Z" style="fill:url(#_Linear1);"/><path id="Layer-14" serif:id="Layer 14" d="M190.609,47.181c-0,-0 -35.37,-3.397 -37.023,0.657c-1.652,4.053 36.754,6.014 42.903,5.486c10.881,-0.933 -5.88,-6.143 -5.88,-6.143Z" style="fill:#a52331;fill-opacity:0.81;"/><path id="Layer-15" serif:id="Layer 15" d="M197.004,51.283c0.008,-0.04 2.626,-9.328 3.714,-14.644c3.437,-16.793 4.042,-30.962 -1.362,-31.981c-6.747,-1.272 -3.326,12.13 -7.53,30.161c-1.209,5.184 -3.829,14.489 -3.855,14.615c-0.272,1.332 1.53,2.828 4.023,3.338c2.492,0.51 4.737,-0.157 5.01,-1.489Z" style="fill:#a07231;"/><path id="Layer-16" serif:id="Layer 16" d="M196.819,50.197c0.007,-0.036 1.889,-8.614 3.01,-13.435c3.986,-17.134 3.388,-28.142 1.413,-28.466c-2.466,-0.405 -1.082,11.302 -4.647,27.804c-1.025,4.745 -3.038,13.311 -3.062,13.425c-0.248,1.215 0.286,2.352 1.192,2.538c0.907,0.185 1.845,-0.651 2.094,-1.866Z" style="fill:#cf9e2b;"/><path id="Layer-17" serif:id="Layer 17" d="M220.803,88.435c4.581,0.937 5.463,15.563 1.967,32.641c-3.495,17.078 -10.052,30.181 -14.633,29.244c-4.581,-0.938 -5.462,-15.564 -1.967,-32.642c3.495,-17.077 10.052,-30.181 14.633,-29.243Z" style="fill:#fff;fill-opacity:0.45;"/><path id="Layer-18" serif:id="Layer 18" d="M217.261,77.065c3.971,-0.596 7.335,-0.142 7.509,1.014c0.173,1.155 -2.91,2.576 -6.881,3.172c-3.971,0.596 -7.336,0.142 -7.51,-1.013c-0.173,-1.155 2.91,-2.577 6.882,-3.173Z" style="fill:#f79ba5;"/><path id="Layer-19" serif:id="Layer 19" d="M201.337,13.813c1.125,0.171 1.591,4.624 0.789,9.899c-0.801,5.275 -1.693,9.521 -2.818,9.35c-1.126,-0.171 -0.402,-4.182 0.4,-9.457c0.801,-5.275 0.504,-9.963 1.629,-9.792Z" style="fill:#ffed7f;"/></g><g id="Layer-38" serif:id="Layer 38"><path id="Layer-22" serif:id="Layer 22" d="M87.751,184.323c28.495,-6.086 57.125,-20.247 61.617,13.165c1.734,12.897 -18.177,28.155 -46.673,34.241c-28.496,6.086 -52.049,0.017 -56.589,-12.187c-10.086,-27.115 13.149,-29.133 41.645,-35.219Z" style="fill:#a52331;"/><path id="Layer-23" serif:id="Layer 23" d="M90.357,174.721c28.409,-6.068 53.772,-0.234 56.603,13.018c2.83,13.252 -17.937,28.938 -46.347,35.005c-28.41,6.068 -53.773,0.235 -56.603,-13.018c-2.83,-13.252 17.937,-28.938 46.347,-35.005Z" style="fill:#d1343d;"/><path id="Layer-24" serif:id="Layer 24" d="M18.745,70.475l95.698,-20.439l8.418,39.42l20.442,95.714l-0.043,0.009c0.098,0.316 0.181,0.636 0.251,0.961c2.664,12.474 -16.614,27.181 -43.022,32.821c-26.409,5.64 -50.012,0.092 -52.676,-12.383c-0.07,-0.325 -0.124,-0.651 -0.164,-0.979l-0.044,0.009l-28.86,-135.133Z" style="fill:#a52331;"/><path id="Layer-25" serif:id="Layer 25" d="M44.768,98.06c53.647,-2.847 69.525,-44.102 69.525,-44.102l9.726,56.374l16.324,76.434l-0.036,0.007c0.079,0.252 0.146,0.508 0.202,0.767c2.127,9.962 -13.87,21.835 -35.701,26.497c-21.832,4.663 -41.283,0.361 -43.411,-9.601c-0.055,-0.259 -26.016,-105.878 -16.629,-106.376Z" style="fill:#d1343d;"/><path id="Layer-26" serif:id="Layer 26" d="M139.173,183.06l-0.044,0.01c0.098,0.316 0.181,0.636 0.251,0.96c1.77,8.289 -7.906,18.414 -21.167,25.359c0,-0 -24.467,-97.858 -26.467,-121.452c-0.777,-9.17 22.259,-34.111 22.259,-34.111l25.168,129.234Z" style="fill:#ff5569;fill-opacity:0.69;"/><path id="Layer-27" serif:id="Layer 27" d="M57.425,40.799c27.48,-5.869 55.089,-19.526 59.421,12.696c1.673,12.437 -17.824,25.768 -45.304,31.637c-27.481,5.869 -49.899,1.399 -54.277,-10.37c-9.727,-26.148 12.68,-28.094 40.16,-33.963Z" style="fill:#f14b5c;"/><path id="Layer-28" serif:id="Layer 28" d="M60.794,42.482c24.856,-5.309 49.785,-17.867 53.891,12.158c1.586,11.59 -15.998,23.892 -40.854,29.201c-24.856,5.308 -45.186,1.019 -49.219,-9.964c-8.958,-24.401 11.325,-26.086 36.182,-31.395Z" style="fill:#ff7583;"/><path id="Layer-29" serif:id="Layer 29" d="M133.499,139.265l4.756,22.266c-7.39,10.484 -22.137,21.412 -41.114,29.76c-19.571,8.61 -37.762,11.843 -50.499,9.804l-3.399,-15.914c12.32,0.701 28.509,-2.71 45.772,-10.305c22.549,-9.919 39.125,-23.481 44.484,-35.611Zm-7.416,-34.727l4.673,21.883c-7.615,10.159 -22.005,20.639 -40.349,28.709c-20.103,8.844 -38.75,12.014 -51.527,9.626l-3.375,-15.803c12.438,0.951 29.041,-2.436 46.777,-10.238c21.663,-9.53 37.813,-22.422 43.801,-34.177Zm-8.243,-38.596l4.862,22.767c-7.11,10.816 -22.222,22.223 -41.867,30.866c-19.054,8.382 -36.799,11.668 -49.478,9.954l-3.421,-16.017c12.19,0.467 27.973,-2.962 44.773,-10.352c23.549,-10.36 40.584,-24.692 45.131,-37.218Z" style="fill:#fff;fill-opacity:0.62;"/><path id="Layer-30" serif:id="Layer 30" d="M107.635,165.051c12.903,-8.141 22.12,-17.313 25.864,-25.786l4.756,22.266c-5.373,7.623 -14.636,15.48 -26.586,22.41l-4.034,-18.89Zm-7.607,-35.615c12.626,-7.821 21.848,-16.64 26.055,-24.898l4.673,21.883c-5.605,7.478 -14.88,15.129 -26.702,21.865l-4.026,-18.85Zm-7.828,-36.656c13.255,-8.521 22.474,-18.117 25.64,-26.838l4.862,22.767c-5.113,7.778 -14.362,15.86 -26.459,23.001l-4.043,-18.93Z" style="fill:#fff;"/><path id="Layer-31" serif:id="Layer 31" d="M59.938,31.539c27.397,-5.852 51.856,-0.226 54.586,12.554c2.729,12.78 -17.298,27.906 -44.695,33.758c-27.397,5.851 -51.856,0.226 -54.586,-12.554c-2.729,-12.781 17.298,-27.907 44.695,-33.758Z" style="fill:url(#_Linear2);"/><path id="Layer-32" serif:id="Layer 32" d="M63.05,51.702c-0,-0 -33.767,11.061 -33.657,15.437c0.11,4.376 36.084,-9.218 41.506,-12.165c9.596,-5.215 -7.849,-3.272 -7.849,-3.272Z" style="fill:#a52331;fill-opacity:0.81;"/><path id="Layer-33" serif:id="Layer 33" d="M70.553,52.897c-0.009,-0.04 -1.332,-9.598 -2.466,-14.905c-3.58,-16.763 -8.703,-29.987 -14.062,-28.755c-6.692,1.539 1.813,12.447 5.186,30.651c0.97,5.234 2.299,14.81 2.325,14.935c0.284,1.33 2.535,1.978 5.023,1.446c2.488,-0.531 4.278,-2.042 3.994,-3.372Z" style="fill:#a07231;"/><path id="Layer-34" serif:id="Layer 34" d="M69.948,51.977c-0.008,-0.036 -1.721,-8.649 -2.625,-13.515c-3.214,-17.297 -8.174,-27.142 -10.113,-26.648c-2.422,0.617 3.537,10.789 6.884,27.337c0.963,4.758 2.55,13.412 2.575,13.526c0.259,1.213 1.204,2.041 2.109,1.848c0.905,-0.193 1.429,-1.335 1.17,-2.548Z" style="fill:#cf9e2b;"/><path id="Layer-35" serif:id="Layer 35" d="M107.245,77.399c4.573,-0.976 11.242,12.071 14.882,29.118c3.641,17.047 2.885,31.68 -1.688,32.657c-4.573,0.977 -11.242,-12.071 -14.883,-29.118c-3.64,-17.047 -2.884,-31.68 1.689,-32.657Z" style="fill:#fff;fill-opacity:0.45;"/><path id="Layer-36" serif:id="Layer 36" d="M99.443,68.402c3.4,-2.137 6.665,-3.069 7.286,-2.08c0.622,0.988 -1.633,3.526 -5.033,5.664c-3.399,2.137 -6.664,3.069 -7.286,2.08c-0.621,-0.988 1.634,-3.526 5.033,-5.664Z" style="fill:#fff;"/><path id="Layer-37" serif:id="Layer 37" d="M59.508,16.832c1.1,-0.295 3.31,3.598 4.69,8.752c1.379,5.155 2.264,9.402 1.164,9.696c-1.099,0.295 -2.044,-3.67 -3.423,-8.824c-1.379,-5.155 -3.53,-9.33 -2.431,-9.624Z" style="fill:#ffed7f;"/></g><path id="Layer-39" serif:id="Layer 39" d="M86.698,54.132c-19.721,7.787 -17.627,23.968 -17.627,30.62c0,6.652 0.321,14.723 0.321,14.723l-3.228,121.585c-0,-0 -9.743,12.279 13.696,13.29c23.438,1.011 105.671,-4.375 105.671,-4.375c-0,-0 0.163,-11.176 0.163,-23.035c0,-11.859 -9.015,-100.893 -4.377,-127.675c0.695,-4.015 -5.768,-27.731 -41.913,-28.702c-36.146,-0.971 -39.117,-1.796 -52.706,3.569Z" style="fill-opacity:0.16;"/><g id="Layer-58" serif:id="Layer 58"><path id="Layer-41" serif:id="Layer 41" d="M121.56,201.943c29.139,0 60.095,-7.869 57.509,25.744c-0.998,12.975 -23.657,23.738 -52.795,23.738c-29.139,0 -50.904,-10.855 -52.795,-23.738c-4.201,-28.623 18.943,-25.744 48.081,-25.744Z" style="fill:#a52331;"/><path id="Layer-42" serif:id="Layer 42" d="M131.808,198.642c23.761,-0 49.004,-7.869 46.895,25.744c-0.813,12.975 -19.29,23.738 -43.051,23.738c-23.761,-0 -41.51,-10.855 -43.052,-23.738c-3.425,-28.623 15.447,-25.744 39.208,-25.744Z" style="fill:#df3841;fill-opacity:0.51;"/><path id="Layer-43" serif:id="Layer 43" d="M126.114,193.097c29.051,0 52.636,11.002 52.636,24.553c0,13.552 -23.585,24.554 -52.636,24.554c-29.05,-0 -52.635,-11.002 -52.635,-24.554c-0,-13.551 23.585,-24.553 52.635,-24.553Z" style="fill:#d1343d;"/><path id="Layer-44" serif:id="Layer 44" d="M77.855,76.193l97.856,0l0,138.181l-0.045,0c0.03,0.329 0.045,0.66 0.045,0.992c0,12.756 -21.924,23.112 -48.928,23.112c-27.004,-0 -48.928,-10.356 -48.928,-23.112c-0,-0.332 0.015,-0.663 0.044,-0.992l-0.044,0l-0,-138.181Z" style="fill:#a52331;"/><path id="Layer-45" serif:id="Layer 45" d="M97.543,108.605c53.059,8.421 77.203,-28.608 77.203,-28.608l-2.263,57.163l-0,78.157l-0.037,-0c0.024,0.263 0.037,0.526 0.037,0.792c-0,10.186 -18.124,18.456 -40.448,18.456c-22.324,-0 -40.448,-8.27 -40.448,-18.456c0,-0.266 -3.328,-108.977 5.956,-107.504Z" style="fill:#d1343d;"/><path id="Layer-46" serif:id="Layer 46" d="M172.112,211.448l-0.045,0c0.03,0.33 0.045,0.66 0.045,0.992c-0,8.476 -11.577,16.356 -25.996,20.379c-0,-0 -3.489,-100.81 -0.517,-124.302c1.156,-9.129 28.893,-28.709 28.893,-28.709l-2.38,131.64Z" style="fill:#ff5569;fill-opacity:0.69;"/><path id="Layer-47" serif:id="Layer 47" d="M121.88,55.251c28.1,-0 57.953,-7.589 55.46,24.826c-0.963,12.513 -22.814,21.478 -50.914,21.478c-28.1,-0 -49.09,-9.054 -50.914,-21.478c-4.051,-27.603 18.268,-24.826 46.368,-24.826Z" style="fill:#f14b5c;"/><path id="Layer-48" serif:id="Layer 48" d="M124.823,57.6c25.417,0 52.419,-7.075 50.164,23.146c-0.871,11.666 -20.635,20.024 -46.052,20.024c-25.417,-0 -44.403,-8.441 -46.052,-20.024c-3.665,-25.734 16.523,-23.146 41.94,-23.146Z" style="fill:#ff7583;"/><path id="Layer-49" serif:id="Layer 49" d="M175.711,167.434l0,22.768c-9.417,8.709 -26.121,16.316 -46.423,20.517c-20.937,4.333 -39.402,3.695 -51.433,-0.959l-0,-16.273c11.902,3.258 28.447,3.303 46.915,-0.518c24.123,-4.991 43.166,-14.792 50.941,-25.535Zm0,-35.51l0,22.376c-9.569,8.345 -25.831,15.588 -45.455,19.649c-21.507,4.45 -40.405,3.656 -52.401,-1.349l-0,-16.159c11.965,3.528 28.908,3.684 47.883,-0.242c23.176,-4.796 41.663,-14.03 49.973,-24.275Zm0,-39.466l0,23.28c-9.213,9.093 -26.373,17.092 -47.39,21.441c-20.384,4.217 -38.425,3.724 -50.466,-0.599l-0,-16.379c11.823,3.003 27.975,2.946 45.948,-0.773c25.193,-5.212 44.845,-15.67 51.908,-26.97Z" style="fill:#fff;fill-opacity:0.62;"/><path id="Layer-50" serif:id="Layer 50" d="M145.031,187.25c14.319,-5.267 25.249,-12.311 30.68,-19.816l0,22.768c-6.847,6.333 -17.546,12.082 -30.68,16.364l0,-19.316Zm0,-36.419c13.981,-5.011 24.842,-11.71 30.68,-18.907l0,22.376c-7.043,6.143 -17.712,11.688 -30.68,15.807l0,-19.276Zm0,-37.482c14.743,-5.565 25.763,-13.024 30.68,-20.891l0,23.28c-6.624,6.538 -17.358,12.511 -30.68,16.968l0,-19.357Z" style="fill:#fff;"/><path id="Layer-51" serif:id="Layer 51" d="M126.272,46.72c28.015,-0 50.76,10.609 50.76,23.678c-0,13.068 -22.745,23.678 -50.76,23.678c-28.015,0 -50.76,-10.61 -50.76,-23.678c0,-13.069 22.745,-23.678 50.76,-23.678Z" style="fill:url(#_Linear3);"/><path id="Layer-52" serif:id="Layer 52" d="M125.104,67.088c-0,-0 -35.333,3.765 -36.139,8.067c-0.806,4.303 37.213,-1.478 43.132,-3.227c10.473,-3.096 -6.993,-4.84 -6.993,-4.84Z" style="fill:#a52331;fill-opacity:0.81;"/><path id="Layer-53" serif:id="Layer 53" d="M132.192,69.824c-0,-0.041 0.702,-9.665 0.702,-15.091c-0,-17.141 -2.248,-31.144 -7.747,-31.058c-6.865,0.107 -0.826,12.55 -1.329,31.058c-0.145,5.321 -0.846,14.963 -0.846,15.091c-0,1.36 2.066,2.464 4.61,2.464c2.544,-0 4.61,-1.104 4.61,-2.464Z" style="fill:#a07231;"/><path id="Layer-54" serif:id="Layer 54" d="M131.792,68.798c0,-0.037 0.124,-8.818 0.256,-13.766c0.469,-17.586 -2.324,-28.25 -4.324,-28.172c-2.497,0.098 1.206,11.29 1.023,28.172c-0.053,4.854 -0.308,13.649 -0.308,13.766c0,1.24 0.751,2.247 1.677,2.247c0.925,0 1.676,-1.007 1.676,-2.247Z" style="fill:#cf9e2b;"/><path id="Layer-55" serif:id="Layer 55" d="M162.957,101.449c4.676,0 8.473,14.153 8.473,31.584c-0,17.432 -3.797,31.584 -8.473,31.584c-4.676,0 -8.472,-14.152 -8.472,-31.584c0,-17.431 3.796,-31.584 8.472,-31.584Z" style="fill:#fff;fill-opacity:0.45;"/><path id="Layer-56" serif:id="Layer 56" d="M157.207,91.021c3.771,-1.38 7.158,-1.61 7.56,-0.513c0.401,1.097 -2.335,3.108 -6.106,4.488c-3.771,1.38 -7.158,1.61 -7.559,0.513c-0.402,-1.097 2.334,-3.108 6.105,-4.488Z" style="fill:#f79ba5;"/><path id="Layer-57" serif:id="Layer 57" d="M128.924,32.247c1.136,-0.058 2.485,4.21 2.757,9.539c0.273,5.329 0.251,9.668 -0.886,9.726c-1.137,0.058 -1.232,-4.017 -1.504,-9.346c-0.273,-5.328 -1.504,-9.861 -0.367,-9.919Z" style="fill:#ffed7f;"/></g></g><defs><linearGradient id="_Linear1" x1="0" y1="0" x2="1" y2="0" gradientUnits="userSpaceOnUse" gradientTransform="matrix(-59.8015,-58.2719,58.2719,-59.8015,227.673,89.4197)"><stop offset="0" style="stop-color:#ad2633;stop-opacity:1"/><stop offset="1" style="stop-color:#d1343d;stop-opacity:1"/></linearGradient><linearGradient id="_Linear2" x1="0" y1="0" x2="1" y2="0" gradientUnits="userSpaceOnUse" gradientTransform="matrix(-77.8274,-29.3073,29.3073,-77.8274,113.777,75.4899)"><stop offset="0" style="stop-color:#ad2633;stop-opacity:1"/><stop offset="1" style="stop-color:#d1343d;stop-opacity:1"/></linearGradient><linearGradient id="_Linear3" x1="0" y1="0" x2="1" y2="0" gradientUnits="userSpaceOnUse" gradientTransform="matrix(-70.1027,-44.9887,44.9887,-70.1027,169.801,100.983)"><stop offset="0" style="stop-color:#ad2633;stop-opacity:1"/><stop offset="1" style="stop-color:#d1343d;stop-opacity:1"/></linearGradient></defs></svg>