<?xml version="1.0" encoding="UTF-8" standalone="no"?><!DOCTYPE svg PUBLIC "-//W3C//DTD SVG 1.1//EN" "http://www.w3.org/Graphics/SVG/1.1/DTD/svg11.dtd"><svg width="100%" height="100%" viewBox="0 0 256 256" version="1.1" xmlns="http://www.w3.org/2000/svg" xmlns:xlink="http://www.w3.org/1999/xlink" xml:space="preserve" xmlns:serif="http://www.serif.com/" style="fill-rule:evenodd;clip-rule:evenodd;stroke-linecap:round;stroke-linejoin:round;stroke-miterlimit:1.5;"><g id="Friends"><g><path d="M120.351,41.66c-14.079,1.488 -24.163,7.205 -30.956,15.586c-9.391,2.593 -14.858,12.97 -14.858,12.97c-0.4,0.775 -0.345,1.706 0.145,2.428c0.49,0.721 1.336,1.116 2.203,1.028l4.212,-0.424c-1.984,6.484 -2.914,13.651 -2.914,21.188c0,0.804 0.408,1.554 1.083,1.992c0.674,0.438 1.525,0.505 2.26,0.178c30.887,-13.765 61.774,-14.213 92.66,-0.012c0.736,0.338 1.593,0.279 2.275,-0.158c0.681,-0.437 1.093,-1.191 1.093,-2c0,-3.855 -0.242,-7.613 -0.745,-11.231c0,-0 6.28,0.632 6.28,0.632c0.949,0.096 1.862,-0.385 2.321,-1.221c0.458,-0.836 0.373,-1.865 -0.217,-2.613c-0,-0 -6.024,-7.582 -12.106,-11.156c-5.643,-14.008 -16.827,-24.199 -35.224,-26.877c1.259,-1.518 2.487,-2.657 3.727,-4.005c0.642,-0.698 0.807,-1.712 0.42,-2.578c-0.388,-0.867 -1.254,-1.419 -2.203,-1.405c0,-0 -11.152,0.161 -19.456,7.678Zm1.035,2.285c7.684,-7.434 18.455,-7.588 18.455,-7.588c-2.057,2.237 -4.069,3.942 -6.242,7.522c20.103,1.635 31.971,11.992 37.589,26.628c5.979,3.154 12.139,10.966 12.139,10.966l-9.356,-0.942c0.818,4.419 1.208,9.084 1.208,13.905c-31.54,-14.502 -63.08,-14.056 -94.62,-0c0,-8.647 1.253,-16.792 3.989,-23.923l-7.901,0.795c0,0 5.17,-9.988 14.107,-11.953c6.56,-8.435 16.536,-14.098 30.632,-15.41Z" style="fill:#6c2f05;"/><g><path d="M154.003,147.845c-0,-14.424 -11.71,-26.134 -26.134,-26.134c-14.424,0 -26.134,11.71 -26.134,26.134c0,-0 0,24.461 0,29.419c0,1.689 0.671,3.31 1.866,4.505c1.195,1.195 2.816,1.866 4.505,1.866c10.051,-0 29.475,-0 39.525,-0c1.69,-0 3.311,-0.671 4.506,-1.866c1.195,-1.195 1.866,-2.816 1.866,-4.505c-0,-4.958 -0,-29.419 -0,-29.419Z" style="fill:#70a446;"/><clipPath id="_clip1"><path d="M154.003,147.845c-0,-14.424 -11.71,-26.134 -26.134,-26.134c-14.424,0 -26.134,11.71 -26.134,26.134c0,-0 0,24.461 0,29.419c0,1.689 0.671,3.31 1.866,4.505c1.195,1.195 2.816,1.866 4.505,1.866c10.051,-0 29.475,-0 39.525,-0c1.69,-0 3.311,-0.671 4.506,-1.866c1.195,-1.195 1.866,-2.816 1.866,-4.505c-0,-4.958 -0,-29.419 -0,-29.419Z"/></clipPath><g clip-path="url(#_clip1)"><path d="M129.39,128.901c-19.755,8.006 -15.077,28.24 -15.077,59.68l-17.641,0c-0.937,-4.351 -24.987,-80.45 32.718,-59.68Z" style="fill:#5a8834;"/><path d="M127.869,128.901c19.755,8.006 15.077,28.24 15.077,59.68l17.641,0c0.936,-4.351 24.986,-80.45 -32.718,-59.68Z" style="fill:#7ec246;"/></g><path d="M154.003,147.845c-0,-14.424 -11.71,-26.134 -26.134,-26.134c-14.424,0 -26.134,11.71 -26.134,26.134c0,-0 0,24.461 0,29.419c0,1.689 0.671,3.31 1.866,4.505c1.195,1.195 2.816,1.866 4.505,1.866c10.051,-0 29.475,-0 39.525,-0c1.69,-0 3.311,-0.671 4.506,-1.866c1.195,-1.195 1.866,-2.816 1.866,-4.505c-0,-4.958 -0,-29.419 -0,-29.419Z" style="fill:none;stroke:#3a5d28;stroke-width:2.96px;"/><circle cx="64.914" cy="139.253" r="8.743" style="fill:url(#_Radial2);stroke:#6c2f05;stroke-width:2.18px;"/><circle cx="190.823" cy="139.253" r="8.743" style="fill:url(#_Radial3);stroke:#6c2f05;stroke-width:2.18px;"/><path d="M116.509,126.814c-16.169,2.236 -30.637,2.454 -43.963,1.317c-2.899,-0.275 -5.78,0.685 -7.935,2.644c-2.155,1.96 -3.383,4.737 -3.383,7.649c-0.023,0.001 -0.023,0.001 -0.023,0.002c-0,3.155 1.264,6.178 3.51,8.394c2.245,2.216 5.285,3.439 8.44,3.397c10.852,-0.126 19.95,-0.918 32.469,-3.377" style="fill:#5a8834;stroke:#3a5d28;stroke-width:2.32px;"/><path d="M139.87,126.814c16.151,2.234 30.605,2.454 43.918,1.321c2.911,-0.276 5.803,0.688 7.966,2.656c2.163,1.967 3.396,4.756 3.396,7.68c0.024,0 0.024,0 0.024,0c0,3.142 -1.273,6.15 -3.528,8.338c-2.255,2.187 -5.3,3.368 -8.44,3.273c-11.566,-0.361 -21.612,-1.559 -32.118,-3.419" style="fill:#7ec246;stroke:#3a5d28;stroke-width:2.32px;"/><path d="M148.163,166.017l-0,-15.741" style="fill:none;stroke:#a1dd6f;stroke-width:4.04px;"/><path d="M183.933,136.039c-19.339,1.147 -35.77,-2.425 -35.77,-2.425" style="fill:none;stroke:#a1dd6f;stroke-width:4.04px;"/><ellipse cx="127.197" cy="127.169" rx="15.61" ry="9.704" style="fill:#7ec246;"/><ellipse cx="127.197" cy="127.169" rx="10.806" ry="6.717" style="fill:#4a7834;"/></g><circle cx="90.052" cy="101.276" r="11.665" style="fill:none;stroke:#6c2f05;stroke-width:4.75px;"/><circle cx="165.686" cy="101.276" r="11.665" style="fill:none;stroke:#6c2f05;stroke-width:4.75px;"/><path d="M127.869,65.175c20.791,-0 37.671,18.111 37.671,35.927c-0,17.816 -16.88,28.632 -37.671,28.632c-20.791,-0 -37.671,-10.816 -37.671,-28.632c-0,-17.816 16.88,-35.927 37.671,-35.927Z" style="fill:none;stroke:#6c2f05;stroke-width:4.75px;"/><g><g><circle cx="90.052" cy="101.276" r="11.665" style="fill:#e28363;"/><circle cx="165.686" cy="101.276" r="11.665" style="fill:#e28363;"/><path d="M167.801,98.556c0,-0 0.93,1.609 0.7,4.026c-0.119,1.243 -0.503,2.669 -1.426,4.202c-0.115,0.16 -0.078,0.383 0.082,0.498c0.16,0.115 0.383,0.078 0.497,-0.082c1.289,-1.514 1.954,-3.016 2.309,-4.357c0.795,-3.008 -0.113,-5.236 -0.113,-5.236c-0.262,-0.565 -0.934,-0.812 -1.499,-0.55c-0.565,0.262 -0.812,0.934 -0.55,1.499Z" style="fill:#763f33;"/><path d="M174.279,99.751c0.162,-1.231 -0.688,-2.64 -2.384,-3.411c-0.776,-0.353 -1.742,-0.52 -2.864,-0.437c-0.64,0.047 -1.335,0.191 -2.056,0.472c-0.585,0.228 -1.185,0.552 -1.797,0.968c-0.606,0.413 -1.218,0.904 -1.838,1.51c-0.753,0.736 -1.49,1.599 -2.26,2.638c-0.122,0.125 -0.119,0.326 0.006,0.448c0.125,0.122 0.326,0.12 0.448,-0.006c0.8,-0.621 1.556,-1.116 2.281,-1.571c0.842,-0.527 1.624,-0.923 2.358,-1.26c0.561,-0.258 1.09,-0.447 1.584,-0.621c0.562,-0.199 1.075,-0.359 1.56,-0.455c0.834,-0.164 1.55,-0.209 2.17,-0.07c0.524,0.118 0.974,0.275 1.321,0.542c0.466,0.359 0.793,0.78 0.872,1.26c0.002,0.165 0.138,0.297 0.303,0.295c0.165,-0.002 0.298,-0.137 0.296,-0.302Z" style="fill:#763f33;"/><path d="M85.888,97.607c0,-0 -0.909,2.228 -0.113,5.236c0.355,1.341 1.019,2.843 2.308,4.357c0.115,0.16 0.338,0.197 0.498,0.082c0.16,-0.115 0.196,-0.338 0.081,-0.498c-0.922,-1.533 -1.306,-2.959 -1.425,-4.202c-0.23,-2.417 0.7,-4.026 0.7,-4.026c0.262,-0.565 0.015,-1.237 -0.55,-1.499c-0.565,-0.262 -1.237,-0.015 -1.499,0.55Z" style="fill:#763f33;"/><path d="M82.058,99.758c0.079,-0.48 0.406,-0.901 0.872,-1.26c0.347,-0.267 0.797,-0.424 1.321,-0.542c0.62,-0.139 1.336,-0.094 2.17,0.07c0.485,0.096 0.998,0.256 1.56,0.455c0.494,0.174 1.023,0.363 1.584,0.621c0.734,0.337 1.516,0.733 2.357,1.26c0.726,0.455 1.482,0.95 2.282,1.571c0.122,0.126 0.323,0.128 0.448,0.006c0.125,-0.122 0.128,-0.323 0.006,-0.448c-0.77,-1.039 -1.507,-1.902 -2.26,-2.638c-0.62,-0.606 -1.232,-1.097 -1.838,-1.51c-0.612,-0.416 -1.212,-0.74 -1.797,-0.968c-0.721,-0.281 -1.416,-0.425 -2.056,-0.472c-1.122,-0.083 -2.088,0.084 -2.864,0.437c-1.696,0.771 -2.546,2.18 -2.384,3.411c-0.002,0.165 0.131,0.3 0.296,0.302c0.165,0.002 0.301,-0.13 0.303,-0.295Z" style="fill:#763f33;"/></g><path d="M127.869,65.175c20.791,-0 37.671,18.111 37.671,35.927c-0,17.816 -16.88,28.632 -37.671,28.632c-20.791,-0 -37.671,-10.816 -37.671,-28.632c-0,-17.816 16.88,-35.927 37.671,-35.927Z" style="fill:url(#_Radial4);"/><path d="M127.869,56.757l44.365,33.941c0,-0 -4.136,6.44 -7.677,5.187c-24.359,-8.621 -48.719,-8.415 -73.078,0c-3.64,1.258 -9.309,-2.154 -9.309,-2.154l45.699,-36.974Z" style="fill:#c76352;"/><path d="M127.869,43.653c34.144,0 47.31,22.755 47.31,50.783c-31.54,-14.502 -63.08,-14.056 -94.62,-0c0,-28.028 13.166,-50.783 47.31,-50.783Z" style="fill:#ad4a09;"/><path d="M90.534,103.024l-0.961,-15.805l7.695,-0.989l-6.734,16.794Z" style="fill:#211105;"/><g><path d="M109.326,95.673l7.772,5.732l-7.772,1.66" style="fill:none;stroke:#331f0f;stroke-width:3.09px;"/><path d="M145.369,95.673l-7.773,5.732l7.773,1.66" style="fill:none;stroke:#331f0f;stroke-width:3.09px;"/></g><g><path d="M122.239,89.399l-7.696,-6.319" style="fill:none;stroke:#4e270c;stroke-width:3.58px;"/><path d="M132.8,89.399l7.696,-6.319" style="fill:none;stroke:#4e270c;stroke-width:3.58px;"/></g><path d="M144.468,49.728c-11.218,6.645 -22.772,7.331 -35.148,-0c-7.28,4.077 -12.531,9.14 -14.987,14.466c20.077,-4.715 44.85,-6.084 67.334,0c-1.741,-6.05 -8.149,-11.095 -17.199,-14.466Z" style="fill:#d35d0e;"/><g><g><path d="M126.202,49.728l0,19.316c0,0.92 0.747,1.667 1.667,1.667c0.92,0 1.667,-0.747 1.667,-1.667l-0,-19.316c-0,-0.92 -0.747,-1.667 -1.667,-1.667c-0.92,0 -1.667,0.747 -1.667,1.667Z" style="fill:#ad4a09;"/><path d="M116.464,48.519c-5.876,5.581 -10.478,12.256 -14.051,19.813c-0.393,0.832 -0.037,1.826 0.795,2.219c0.832,0.393 1.826,0.037 2.219,-0.794c3.393,-7.176 7.752,-13.522 13.333,-18.821c0.667,-0.633 0.694,-1.689 0.06,-2.356c-0.633,-0.667 -1.689,-0.694 -2.356,-0.061Z" style="fill:#ad4a09;"/><path d="M136.978,50.936c5.581,5.299 9.94,11.645 13.333,18.821c0.393,0.831 1.387,1.187 2.219,0.794c0.832,-0.393 1.188,-1.387 0.794,-2.219c-3.572,-7.557 -8.174,-14.232 -14.05,-19.813c-0.667,-0.633 -1.723,-0.606 -2.357,0.061c-0.633,0.667 -0.606,1.723 0.061,2.356Z" style="fill:#ad4a09;"/></g></g></g><g><path d="M128.221,75.906l2.005,8.439l-4.01,-0l2.005,-8.439Z" style="fill:#c76352;"/><path d="M156.775,81.162l3.18,7.967l-4.011,-1.405l0.831,-6.562Z" style="fill:#c76352;"/><path d="M99.205,81.474l-2.944,7.343l4.01,-0.667l-1.066,-6.676Z" style="fill:#c76352;"/><path d="M90.534,103.024l-0.961,-15.805l7.695,-0.989l-6.734,16.794Z" style="fill:#ad4a09;"/><path d="M165.527,103.024l0.961,-15.805l-7.695,-0.989l6.734,16.794Z" style="fill:#ad4a09;"/><ellipse cx="105.405" cy="112.032" rx="7.139" ry="5.723" style="fill:#c92a2a;fill-opacity:0.2;"/><ellipse cx="148.622" cy="112.412" rx="7.139" ry="5.723" style="fill:#c92a2a;fill-opacity:0.2;"/><path d="M120.324,110.319c-0.039,-0.456 0.112,-0.908 0.416,-1.246c0.304,-0.338 0.733,-0.53 1.183,-0.53c2.799,-0.007 8.387,-0.007 11.185,-0.007c0.452,-0.001 0.884,0.193 1.189,0.532c0.306,0.339 0.457,0.794 0.418,1.252c-0.529,5.799 -3.552,10.254 -7.199,10.254c-3.647,0 -6.671,-4.455 -7.192,-10.255Z" style="fill:#641e1e;"/><clipPath id="_clip5"><path d="M120.324,110.319c-0.039,-0.456 0.112,-0.908 0.416,-1.246c0.304,-0.338 0.733,-0.53 1.183,-0.53c2.799,-0.007 8.387,-0.007 11.185,-0.007c0.452,-0.001 0.884,0.193 1.189,0.532c0.306,0.339 0.457,0.794 0.418,1.252c-0.529,5.799 -3.552,10.254 -7.199,10.254c-3.647,0 -6.671,-4.455 -7.192,-10.255Z"/></clipPath><g clip-path="url(#_clip5)"><ellipse cx="127.516" cy="120.574" rx="5.162" ry="4.476" style="fill:#a83333;"/></g><path d="M121.26,44.067c7.693,-7.555 18.581,-7.71 18.581,-7.71c-2.728,2.967 -5.375,4.998 -8.426,11.705c0,-0 -10.155,-2.509 -10.155,-3.995Z" style="fill:#ad4a09;"/><path d="M167.359,69.237c6.823,0.637 15.968,12.236 15.968,12.236l-14.35,-1.444c0,-0 -2.904,-10.049 -1.618,-10.792Z" style="fill:#ad4a09;"/><path d="M92.615,59.072c-10.075,0.852 -15.968,12.236 -15.968,12.236l14.35,-1.444c-0,-0 2.905,-10.049 1.618,-10.792Z" style="fill:#ad4a09;"/></g></g><g><path d="M216.84,73.495c32.981,8.837 39.808,34.224 32.554,61.297c-26.712,-22.171 -57.293,-29.903 -91.396,-24.489c7.255,-27.073 25.861,-45.645 58.842,-36.808Z" style="fill:none;stroke:#af5b00;stroke-width:4.75px;"/><path d="M156.928,120.4c-4.649,10.267 -10.897,18.392 -18.599,24.568c12.629,6.302 22.689,-0.72 22.689,-0.72c-0,0 -3.324,5.909 -7.682,13.654c9.886,2.649 20.926,-3.305 20.926,-3.305l4.007,11.954l16.788,-35.934l-38.129,-10.217Z" style="fill:none;stroke:#af5b00;stroke-width:4.75px;"/><path d="M247.052,144.549c-1.107,11.216 0.241,21.376 3.823,30.576c-14.087,-0.857 -19.288,-11.968 -19.288,-11.968c-0,0 -0.076,6.779 -0.175,15.666c-9.886,-2.649 -16.47,-13.326 -16.47,-13.326l-9.446,8.349l3.428,-39.514l38.128,10.217Z" style="fill:none;stroke:#af5b00;stroke-width:4.75px;"/><path d="M156.928,120.4c-4.649,10.267 -10.897,18.392 -18.599,24.568c12.629,6.302 22.689,-0.72 22.689,-0.72c-0,0 -3.324,5.909 -7.682,13.654c9.886,2.649 20.926,-3.305 20.926,-3.305l4.007,11.954l16.788,-35.934l-38.129,-10.217Z" style="fill:#f59f00;"/><path d="M247.052,144.549c-1.107,11.216 0.241,21.376 3.823,30.576c-14.087,-0.857 -19.288,-11.968 -19.288,-11.968c-0,0 -0.076,6.779 -0.175,15.666c-9.886,-2.649 -16.47,-13.326 -16.47,-13.326l-9.446,8.349l3.428,-39.514l38.128,10.217Z" style="fill:#f59f00;"/><path d="M168.417,108.099c6.219,1.666 9.915,8.068 8.249,14.287c-1.667,6.219 -8.069,9.915 -14.288,8.249c-6.218,-1.666 -9.915,-8.068 -8.248,-14.287c1.666,-6.219 8.068,-9.915 14.287,-8.249Z" style="fill:none;stroke:#994130;stroke-width:4.75px;"/><path d="M241.473,127.674c6.219,1.667 9.915,8.069 8.249,14.288c-1.667,6.219 -8.068,9.915 -14.287,8.248c-6.219,-1.666 -9.916,-8.068 -8.249,-14.287c1.666,-6.219 8.068,-9.915 14.287,-8.249Z" style="fill:none;stroke:#994130;stroke-width:4.75px;"/><path d="M211.269,94.284c20.083,5.381 31.7,27.244 27.089,44.453c-4.611,17.208 -23.715,23.287 -43.798,17.906c-20.082,-5.381 -33.588,-20.198 -28.977,-37.406c4.611,-17.209 25.604,-30.334 45.686,-24.953Z" style="fill:none;stroke:#994130;stroke-width:4.75px;"/><g><path d="M215.116,180.901c3.733,-13.932 -4.547,-28.274 -18.479,-32.008c-13.932,-3.733 -28.274,4.548 -32.008,18.48c0,-0 -1.563,5.836 -2.846,10.625c-0.438,1.632 -0.209,3.371 0.636,4.835c0.845,1.463 2.237,2.531 3.869,2.968c9.708,2.601 28.47,7.629 38.178,10.23c1.632,0.437 3.371,0.208 4.835,-0.637c1.463,-0.844 2.531,-2.236 2.968,-3.868c1.283,-4.789 2.847,-10.625 2.847,-10.625Z" style="fill:#ff6b6b;"/><clipPath id="_clip6"><path d="M215.116,180.901c3.733,-13.932 -4.547,-28.274 -18.479,-32.008c-13.932,-3.733 -28.274,4.548 -32.008,18.48c0,-0 -1.563,5.836 -2.846,10.625c-0.438,1.632 -0.209,3.371 0.636,4.835c0.845,1.463 2.237,2.531 3.869,2.968c9.708,2.601 28.47,7.629 38.178,10.23c1.632,0.437 3.371,0.208 4.835,-0.637c1.463,-0.844 2.531,-2.236 2.968,-3.868c1.283,-4.789 2.847,-10.625 2.847,-10.625Z"/></clipPath><g clip-path="url(#_clip6)"><path d="M200.564,152.593c-21.154,2.621 -18.569,11.051 -26.707,41.42l-17.04,-4.566c0.222,-4.445 -6.615,-71.852 43.747,-36.854Z" style="fill:#fa5252;"/><path d="M192.137,150.334c17.009,12.847 10.556,18.856 2.418,49.225l17.041,4.566c2.03,-3.961 41.655,-58.918 -19.459,-53.791Z" style="fill:#ff8787;"/></g><path d="M215.116,180.901c3.733,-13.932 -4.547,-28.274 -18.479,-32.008c-13.932,-3.733 -28.274,4.548 -32.008,18.48c0,-0 -1.563,5.836 -2.846,10.625c-0.438,1.632 -0.209,3.371 0.636,4.835c0.845,1.463 2.237,2.531 3.869,2.968c9.708,2.601 28.47,7.629 38.178,10.23c1.632,0.437 3.371,0.208 4.835,-0.637c1.463,-0.844 2.531,-2.236 2.968,-3.868c1.283,-4.789 2.847,-10.625 2.847,-10.625Z" style="fill:none;stroke:#c92a2a;stroke-width:2.68px;"/><path d="M193.184,161.778c1.127,0.302 1.797,1.462 1.495,2.588c-0.302,1.127 -1.462,1.797 -2.589,1.495c-1.127,-0.302 -1.796,-1.462 -1.494,-2.589c0.302,-1.127 1.462,-1.796 2.588,-1.494Z" style="fill:#ffe3e3;"/><path d="M191.348,168.632c1.127,0.302 1.797,1.462 1.495,2.589c-0.302,1.127 -1.462,1.796 -2.589,1.494c-1.127,-0.302 -1.797,-1.462 -1.495,-2.588c0.302,-1.127 1.462,-1.797 2.589,-1.495Z" style="fill:#ffe3e3;"/><path d="M208.091,182.453c0.824,-3.076 1.829,-6.825 1.829,-6.825c0.853,-3.183 0.729,-6.399 -0.186,-9.33" style="fill:none;stroke:#ffe3e3;stroke-width:4.03px;"/><path d="M192.327,144.284c3.848,2.222 4.944,7.536 2.447,11.861c-2.497,4.325 -7.647,6.033 -11.495,3.811c-3.848,-2.221 -4.944,-7.536 -2.447,-11.861c2.497,-4.324 7.648,-6.032 11.495,-3.811Z" style="fill:#c92a2a;"/><path d="M199.359,147.104c4.291,-1.15 8.825,1.833 10.117,6.657c1.293,4.823 -1.142,9.673 -5.434,10.823c-4.291,1.15 -8.824,-1.833 -10.117,-6.656c-1.292,-4.824 1.142,-9.674 5.434,-10.824Z" style="fill:#c92a2a;"/></g><g><g><path d="M168.417,108.099c6.219,1.666 9.915,8.068 8.249,14.287c-1.667,6.219 -8.069,9.915 -14.288,8.249c-6.218,-1.666 -9.915,-8.068 -8.248,-14.287c1.666,-6.219 8.068,-9.915 14.287,-8.249Z" style="fill:#feb8a3;"/><path d="M241.473,127.674c6.219,1.667 9.915,8.069 8.249,14.288c-1.667,6.219 -8.068,9.915 -14.287,8.248c-6.219,-1.666 -9.916,-8.068 -8.249,-14.287c1.666,-6.219 8.068,-9.915 14.287,-8.249Z" style="fill:#feb8a3;"/><path d="M241.201,136.863c0,-0 0.482,1.795 -0.366,4.069c-0.436,1.17 -1.176,2.448 -2.464,3.69c-0.153,0.125 -0.175,0.35 -0.051,0.502c0.125,0.153 0.35,0.175 0.502,0.051c1.637,-1.13 2.668,-2.408 3.358,-3.612c1.547,-2.7 1.246,-5.087 1.246,-5.087c-0.107,-0.614 -0.692,-1.025 -1.306,-0.919c-0.614,0.107 -1.025,0.692 -0.919,1.306Z" style="fill:#b16d4d;"/><path d="M247.149,139.693c0.475,-1.146 0.019,-2.727 -1.42,-3.911c-0.659,-0.542 -1.548,-0.953 -2.653,-1.164c-0.63,-0.12 -1.339,-0.16 -2.108,-0.076c-0.624,0.069 -1.288,0.226 -1.987,0.47c-0.691,0.242 -1.41,0.558 -2.166,0.983c-0.918,0.516 -1.853,1.159 -2.865,1.963c-0.151,0.089 -0.2,0.284 -0.111,0.434c0.09,0.151 0.284,0.2 0.435,0.111c0.933,-0.393 1.791,-0.676 2.61,-0.927c0.949,-0.292 1.807,-0.472 2.604,-0.608c0.608,-0.103 1.168,-0.149 1.69,-0.19c0.594,-0.046 1.131,-0.068 1.624,-0.035c0.849,0.057 1.552,0.199 2.115,0.494c0.475,0.25 0.869,0.517 1.136,0.866c0.357,0.467 0.563,0.958 0.516,1.442c-0.041,0.16 0.056,0.323 0.216,0.364c0.16,0.041 0.323,-0.056 0.364,-0.216Z" style="fill:#b16d4d;"/><path d="M162.325,114.745c0,0 -1.454,1.917 -1.464,5.029c-0.005,1.387 0.248,3.01 1.102,4.806c0.069,0.184 0.275,0.277 0.459,0.207c0.184,-0.069 0.277,-0.275 0.208,-0.459c-0.494,-1.72 -0.497,-3.197 -0.289,-4.428c0.403,-2.394 1.717,-3.708 1.717,-3.708c0.399,-0.478 0.335,-1.19 -0.143,-1.59c-0.478,-0.399 -1.19,-0.335 -1.59,0.143Z" style="fill:#b16d4d;"/><path d="M158.068,115.831c0.201,-0.442 0.626,-0.765 1.169,-0.991c0.405,-0.168 0.88,-0.203 1.416,-0.181c0.635,0.026 1.315,0.254 2.079,0.629c0.443,0.218 0.897,0.506 1.389,0.843c0.431,0.296 0.894,0.616 1.368,1.01c0.622,0.516 1.275,1.1 1.952,1.827c0.583,0.627 1.185,1.302 1.797,2.109c0.085,0.152 0.279,0.207 0.431,0.121c0.153,-0.086 0.207,-0.279 0.122,-0.431c-0.475,-1.203 -0.964,-2.227 -1.501,-3.133c-0.441,-0.746 -0.906,-1.379 -1.384,-1.934c-0.483,-0.561 -0.979,-1.029 -1.486,-1.401c-0.623,-0.458 -1.257,-0.777 -1.863,-0.988c-1.062,-0.37 -2.038,-0.458 -2.88,-0.319c-1.838,0.306 -3.023,1.447 -3.185,2.677c-0.045,0.159 0.048,0.325 0.207,0.37c0.159,0.044 0.325,-0.049 0.369,-0.208Z" style="fill:#b16d4d;"/></g><path d="M211.269,94.284c20.083,5.381 31.7,27.244 27.089,44.453c-4.611,17.208 -23.715,23.287 -43.798,17.906c-20.082,-5.381 -33.588,-20.198 -28.977,-37.406c4.611,-17.209 25.604,-30.334 45.686,-24.953Z" style="fill:url(#_Radial7);"/><path d="M211.551,93.233l35.966,37.187c0,-0 -5.662,5.15 -8.758,3.023c-21.298,-14.632 -44.88,-20.738 -70.588,-18.914c-3.841,0.273 -8.434,-4.49 -8.434,-4.49l51.814,-16.806Z" style="fill:#ffb39f;"/><path d="M216.84,73.495c32.981,8.837 39.808,34.224 32.554,61.297c-26.712,-22.171 -57.293,-29.903 -91.396,-24.489c7.255,-27.073 25.861,-45.645 58.842,-36.808Z" style="fill:#f59f00;"/><path d="M232.278,84.628c-13.573,3.825 -25.825,1.313 -36.683,-9.829c-8.742,2.236 -15.645,6.071 -19.703,10.965c22.278,0.674 48.517,6.168 70.275,18.83c-0.119,-6.826 -5.39,-13.903 -13.889,-19.966Z" style="fill:#fcca31;"/><g><path d="M213.012,79.398l-4.999,18.658c-0.238,0.889 0.29,1.803 1.178,2.041c0.889,0.238 1.803,-0.29 2.041,-1.178l5,-18.659c0.238,-0.888 -0.29,-1.803 -1.179,-2.041c-0.888,-0.238 -1.803,0.29 -2.041,1.179Z" style="fill:#f59f00;"/><path d="M203.919,75.71c-7.121,3.869 -13.293,9.126 -18.7,15.501c-0.595,0.702 -0.509,1.754 0.193,2.349c0.701,0.595 1.754,0.509 2.349,-0.193c5.134,-6.053 10.988,-11.054 17.749,-14.728c0.808,-0.439 1.108,-1.452 0.669,-2.26c-0.439,-0.809 -1.452,-1.108 -2.26,-0.669Z" style="fill:#f59f00;"/><path d="M223.108,83.354c4.019,6.563 6.588,13.82 8.007,21.63c0.165,0.905 1.033,1.506 1.938,1.342c0.905,-0.165 1.506,-1.033 1.342,-1.938c-1.495,-8.225 -4.212,-15.863 -8.444,-22.775c-0.48,-0.784 -1.507,-1.031 -2.292,-0.551c-0.784,0.481 -1.031,1.508 -0.551,2.292Z" style="fill:#f59f00;"/></g><path d="M165.411,121.18l3.162,-15.515l7.689,1.037l-10.851,14.478Z" style="fill:#211105;"/><g><path d="M183.568,124.852c2.86,-2.967 5.694,-2.208 6.688,1.792" style="fill:none;stroke:#331f0f;stroke-width:2.97px;"/><path d="M213.212,132.795c2.86,-2.967 5.694,-2.207 6.688,1.793" style="fill:none;stroke:#331f0f;stroke-width:2.97px;"/><g><path d="M219.002,117.729l6.47,5.586" style="fill:none;stroke:#994130;stroke-width:3.58px;"/><path d="M193.733,110.958l-8.397,1.602" style="fill:none;stroke:#994130;stroke-width:3.58px;"/></g></g></g><g><path d="M208.832,104.74l-0.247,8.671l-3.874,-1.038l4.121,-7.633Z" style="fill:#ffb39f;"/><path d="M235.052,117.207l1.01,8.519l-3.51,-2.395l2.5,-6.124Z" style="fill:#ffb39f;"/><path d="M179.364,102.609l-4.745,6.33l4.047,0.394l0.698,-6.724Z" style="fill:#ffb39f;"/></g><g><path d="M165.411,121.18l3.162,-15.515l7.689,1.037l-10.851,14.478Z" style="fill:#f59f00;"/><path d="M237.849,140.589l5.019,-15.017l-7.178,-2.946l2.159,17.963Z" style="fill:#f59f00;"/></g><g><path d="M178.925,128.202c3.806,1.02 6.232,4.325 5.414,7.376c-0.817,3.05 -4.571,4.699 -8.377,3.679c-3.806,-1.019 -6.232,-4.324 -5.414,-7.375c0.817,-3.051 4.571,-4.7 8.377,-3.68Z" style="fill:#ff9a93;"/><path d="M220.571,139.754c3.805,1.02 6.232,4.325 5.414,7.376c-0.817,3.051 -4.571,4.699 -8.377,3.68c-3.806,-1.02 -6.232,-4.325 -5.415,-7.376c0.818,-3.05 4.572,-4.699 8.378,-3.68Z" style="fill:#ff9a93;"/></g><path d="M193.459,135.221c2.55,4.417 7.675,5.79 12.092,3.24" style="fill:none;stroke:#ba3939;stroke-width:2.24px;"/></g><g><path d="M97.977,111.244c-5.618,-20.966 -27.2,-33.427 -48.166,-27.809l-15.421,4.132c-20.966,5.618 -33.426,27.2 -27.808,48.166c5.617,20.966 27.2,33.426 48.166,27.809l15.42,-4.132c20.966,-5.618 33.427,-27.201 27.809,-48.166Z" style="fill:none;stroke:#391c17;stroke-width:4.75px;"/><path d="M39.16,74.527c32.981,-8.837 51.587,9.735 58.842,36.808c-18.354,-3.135 -53.112,9.996 -72.04,-3.943c0.969,21.241 -6.918,18.353 -19.356,28.432c-7.254,-27.072 -0.427,-52.459 32.554,-61.297Z" style="fill:none;stroke:#391c17;stroke-width:4.75px;"/><path d="M97.977,111.244c-5.618,-20.966 -27.2,-33.427 -48.166,-27.809l-15.421,4.132c-20.966,5.618 -33.426,27.2 -27.808,48.166c5.617,20.966 27.2,33.426 48.166,27.809l15.42,-4.132c20.966,-5.618 33.427,-27.201 27.809,-48.166Z" style="fill:#623027;"/><path d="M14.527,128.707c6.219,-1.667 12.621,2.029 14.287,8.248c1.667,6.219 -2.03,12.621 -8.249,14.288c-6.219,1.666 -12.62,-2.03 -14.287,-8.249c-1.666,-6.219 2.03,-12.621 8.249,-14.287Z" style="fill:none;stroke:#763f33;stroke-width:4.75px;"/><path d="M87.583,109.131c6.219,-1.666 12.621,2.03 14.287,8.249c1.667,6.219 -2.03,12.621 -8.248,14.287c-6.219,1.667 -12.621,-2.029 -14.288,-8.248c-1.666,-6.219 2.03,-12.621 8.249,-14.288Z" style="fill:none;stroke:#763f33;stroke-width:4.75px;"/><g><path d="M91.371,168.405c-3.734,-13.932 -18.076,-22.212 -32.008,-18.479c-13.932,3.733 -22.212,18.075 -18.479,32.007c-0,-0 1.564,5.836 2.847,10.625c0.437,1.632 1.505,3.024 2.968,3.869c1.464,0.845 3.203,1.074 4.835,0.636c9.708,-2.601 28.47,-7.628 38.178,-10.23c1.632,-0.437 3.024,-1.505 3.869,-2.968c0.845,-1.464 1.074,-3.203 0.636,-4.835c-1.283,-4.788 -2.846,-10.625 -2.846,-10.625Z" style="fill:#228be6;"/><clipPath id="_clip8"><path d="M91.371,168.405c-3.734,-13.932 -18.076,-22.212 -32.008,-18.479c-13.932,3.733 -22.212,18.075 -18.479,32.007c-0,-0 1.564,5.836 2.847,10.625c0.437,1.632 1.505,3.024 2.968,3.869c1.464,0.845 3.203,1.074 4.835,0.636c9.708,-2.601 28.47,-7.628 38.178,-10.23c1.632,-0.437 3.024,-1.505 3.869,-2.968c0.845,-1.464 1.074,-3.203 0.636,-4.835c-1.283,-4.788 -2.846,-10.625 -2.846,-10.625Z"/></clipPath><g clip-path="url(#_clip8)"><path d="M64.239,151.266c-17.01,12.847 -10.556,18.855 -2.419,49.225l-17.04,4.566c-2.031,-3.961 -41.655,-58.918 19.459,-53.791Z" style="fill:#1c7ed6;"/><path d="M55.811,153.524c21.154,2.621 18.57,11.051 26.707,41.421l17.04,-4.566c-0.221,-4.446 6.616,-71.852 -43.747,-36.855Z" style="fill:#4dabf7;"/></g><path d="M91.371,168.405c-3.734,-13.932 -18.076,-22.212 -32.008,-18.479c-13.932,3.733 -22.212,18.075 -18.479,32.007c-0,-0 1.564,5.836 2.847,10.625c0.437,1.632 1.505,3.024 2.968,3.869c1.464,0.845 3.203,1.074 4.835,0.636c9.708,-2.601 28.47,-7.628 38.178,-10.23c1.632,-0.437 3.024,-1.505 3.869,-2.968c0.845,-1.464 1.074,-3.203 0.636,-4.835c-1.283,-4.788 -2.846,-10.625 -2.846,-10.625Z" style="fill:none;stroke:#165d9b;stroke-width:2.96px;"/><path d="M88.526,175.834c-0.824,-3.075 -1.829,-6.824 -1.829,-6.824c-1.216,-4.54 -3.999,-8.246 -7.61,-10.692c-0.921,-0.623 -2.174,-0.382 -2.797,0.538c-0.623,0.92 -0.382,2.173 0.538,2.796c2.837,1.922 5.023,4.833 5.979,8.4c0,0 1.005,3.749 1.829,6.825c0.287,1.073 1.392,1.711 2.466,1.424c1.073,-0.288 1.711,-1.393 1.424,-2.467Z" style="fill:#74c0fc;"/><path d="M57.671,146.207c7.45,-1.996 14.644,0.658 16.055,5.924c1.411,5.266 -3.492,11.162 -10.942,13.158c-7.45,1.996 -14.644,-0.658 -16.055,-5.924c-1.411,-5.266 3.492,-11.162 10.942,-13.158Z" style="fill:#4dabf7;"/><path d="M57.942,147.218c5.434,-1.456 10.749,0.735 11.862,4.889c1.113,4.155 -2.394,8.71 -7.828,10.166c-5.434,1.456 -10.749,-0.735 -11.862,-4.89c-1.113,-4.154 2.394,-8.709 7.828,-10.165Z" style="fill:#1864ab;"/></g><path d="M44.731,95.316c20.082,-5.381 41.075,7.744 45.686,24.953c4.611,17.208 -8.895,32.025 -28.977,37.406c-20.083,5.381 -39.187,-0.698 -43.798,-17.906c-4.611,-17.209 7.006,-39.072 27.089,-44.453Z" style="fill:none;stroke:#763f33;stroke-width:4.75px;"/><g><g><path d="M14.527,128.707c6.219,-1.667 12.621,2.029 14.287,8.248c1.667,6.219 -2.03,12.621 -8.249,14.288c-6.219,1.666 -12.62,-2.03 -14.287,-8.249c-1.666,-6.219 2.03,-12.621 8.249,-14.287Z" style="fill:#cb6948;"/><path d="M87.583,109.131c6.219,-1.666 12.621,2.03 14.287,8.249c1.667,6.219 -2.03,12.621 -8.248,14.287c-6.219,1.667 -12.621,-2.029 -14.288,-8.248c-1.666,-6.219 2.03,-12.621 8.249,-14.288Z" style="fill:#cb6948;"/><path d="M91.942,117.224c-0,0 1.314,1.314 1.717,3.708c0.208,1.231 0.205,2.708 -0.289,4.428c-0.069,0.184 0.024,0.39 0.208,0.46c0.184,0.069 0.39,-0.024 0.459,-0.208c0.854,-1.796 1.107,-3.419 1.102,-4.806c-0.01,-3.112 -1.464,-5.029 -1.464,-5.029c-0.4,-0.478 -1.112,-0.542 -1.59,-0.143c-0.478,0.4 -0.542,1.112 -0.143,1.59Z" style="fill:#793426;"/><path d="M98.508,116.702c-0.162,-1.23 -1.347,-2.372 -3.185,-2.677c-0.842,-0.14 -1.818,-0.052 -2.88,0.319c-0.606,0.21 -1.24,0.53 -1.863,0.988c-0.507,0.372 -1.003,0.839 -1.486,1.4c-0.478,0.555 -0.943,1.188 -1.384,1.934c-0.537,0.906 -1.026,1.931 -1.501,3.133c-0.085,0.152 -0.031,0.346 0.122,0.431c0.152,0.086 0.346,0.031 0.431,-0.121c0.612,-0.807 1.214,-1.481 1.797,-2.108c0.677,-0.727 1.33,-1.312 1.952,-1.828c0.474,-0.394 0.937,-0.714 1.368,-1.01c0.492,-0.337 0.946,-0.625 1.389,-0.842c0.764,-0.375 1.444,-0.604 2.079,-0.63c0.536,-0.022 1.011,0.013 1.416,0.182c0.543,0.226 0.968,0.548 1.169,0.991c0.044,0.159 0.21,0.251 0.369,0.207c0.159,-0.045 0.252,-0.21 0.207,-0.369Z" style="fill:#793426;"/><path d="M12.574,137.508c0,0 -0.301,2.388 1.246,5.087c0.69,1.204 1.721,2.483 3.358,3.612c0.152,0.124 0.377,0.102 0.502,-0.05c0.124,-0.153 0.102,-0.378 -0.051,-0.502c-1.288,-1.243 -2.028,-2.521 -2.464,-3.69c-0.848,-2.275 -0.366,-4.07 -0.366,-4.07c0.106,-0.614 -0.305,-1.199 -0.919,-1.306c-0.614,-0.106 -1.199,0.305 -1.306,0.919Z" style="fill:#793426;"/><path d="M9.431,140.577c-0.047,-0.483 0.159,-0.975 0.516,-1.442c0.267,-0.349 0.661,-0.616 1.136,-0.865c0.563,-0.296 1.266,-0.438 2.115,-0.495c0.493,-0.033 1.03,-0.011 1.624,0.035c0.522,0.041 1.082,0.087 1.69,0.191c0.797,0.136 1.655,0.316 2.604,0.607c0.819,0.251 1.677,0.534 2.61,0.927c0.151,0.089 0.345,0.04 0.435,-0.11c0.089,-0.151 0.04,-0.345 -0.111,-0.435c-1.012,-0.804 -1.947,-1.447 -2.865,-1.963c-0.756,-0.425 -1.475,-0.741 -2.166,-0.982c-0.699,-0.244 -1.363,-0.401 -1.987,-0.47c-0.769,-0.085 -1.478,-0.045 -2.108,0.075c-1.105,0.211 -1.994,0.622 -2.653,1.164c-1.439,1.184 -1.895,2.765 -1.42,3.911c0.041,0.16 0.204,0.257 0.364,0.216c0.16,-0.041 0.257,-0.204 0.216,-0.364Z" style="fill:#793426;"/></g><path d="M44.731,95.316c20.082,-5.381 41.075,7.744 45.686,24.953c4.611,17.208 -8.895,32.025 -28.977,37.406c-20.083,5.381 -39.187,-0.698 -43.798,-17.906c-4.611,-17.209 7.006,-39.072 27.089,-44.453Z" style="fill:url(#_Radial9);"/><path d="M24.289,100.344l69.901,8.143c0,-0 -2.329,7.291 -6.073,6.997c-17.274,-1.356 -45.807,12.194 -60.098,-1.219c-0.61,11.166 -3.456,15.378 -10.49,20.133c-3.19,2.157 -9.549,0.328 -9.549,0.328l16.309,-34.382Z" style="fill:#a54f40;"/><path d="M39.16,74.527c32.981,-8.837 51.587,9.735 58.842,36.808c-18.354,-3.135 -53.112,9.996 -72.04,-3.943c0.969,21.241 -6.918,18.353 -19.356,28.432c-7.254,-27.072 -0.427,-52.459 32.554,-61.297Z" style="fill:#623027;"/><path d="M56.465,75.508c-9.291,9.987 -20.599,13.791 -34.985,9.374c-6.096,6.233 -9.895,12.963 -10.837,19.224c18.654,-10.317 42.926,-18.365 67.021,-17.958c-3.439,-5.904 -11.24,-9.505 -21.199,-10.64Z" style="fill:#873e2f;"/><g><path d="M38.712,80.26l4.999,18.659c0.238,0.888 1.153,1.416 2.041,1.178c0.889,-0.238 1.417,-1.152 1.179,-2.041l-5,-18.658c-0.238,-0.889 -1.152,-1.417 -2.041,-1.179c-0.888,0.238 -1.416,1.153 -1.178,2.041Z" style="fill:#623027;"/><path d="M28.993,81.613c-4.232,6.912 -6.949,14.55 -8.444,22.775c-0.165,0.905 0.436,1.773 1.341,1.938c0.905,0.164 1.774,-0.437 1.938,-1.342c1.42,-7.81 3.989,-15.067 8.007,-21.63c0.481,-0.784 0.234,-1.811 -0.551,-2.292c-0.784,-0.48 -1.811,-0.233 -2.291,0.551Z" style="fill:#623027;"/><path d="M49.433,78.639c6.762,3.674 12.615,8.675 17.75,14.728c0.595,0.702 1.647,0.788 2.349,0.193c0.701,-0.595 0.788,-1.647 0.193,-2.349c-5.407,-6.375 -11.579,-11.632 -18.7,-15.501c-0.808,-0.439 -1.821,-0.14 -2.26,0.669c-0.439,0.808 -0.14,1.821 0.668,2.26Z" style="fill:#623027;"/></g><path d="M18.464,141.538l-5.019,-15.017l7.177,-2.947l-2.158,17.964Z" style="fill:#211105;"/><path d="M33.678,140.863c3.806,-1.02 7.56,0.629 8.377,3.679c0.818,3.051 -1.608,6.356 -5.414,7.376c-3.806,1.02 -7.56,-0.629 -8.377,-3.68c-0.818,-3.051 1.608,-6.356 5.414,-7.375Z" style="fill:#c92a2a;fill-opacity:0.27;"/><path d="M75.521,130.044c3.806,-1.02 7.559,0.629 8.377,3.68c0.817,3.051 -1.609,6.356 -5.415,7.375c-3.806,1.02 -7.559,-0.629 -8.377,-3.679c-0.817,-3.051 1.609,-6.356 5.415,-7.376Z" style="fill:#c92a2a;fill-opacity:0.27;"/><path d="M49.253,139.711c-0.228,-0.064 -0.474,0.008 -0.632,0.184c-0.158,0.177 -0.202,0.429 -0.112,0.649c1.526,3.341 5.285,5.2 8.948,4.219c3.662,-0.981 5.988,-4.471 5.625,-8.126c-0.032,-0.23 -0.192,-0.421 -0.412,-0.493c-0.22,-0.073 -0.463,-0.014 -0.625,0.152c-1.45,1.366 -3.542,2.651 -5.972,3.302c-2.43,0.651 -4.885,0.584 -6.82,0.113Z" style="fill:#641e1e;"/><clipPath id="_clip10"><path d="M49.253,139.711c-0.228,-0.064 -0.474,0.008 -0.632,0.184c-0.158,0.177 -0.202,0.429 -0.112,0.649c1.526,3.341 5.285,5.2 8.948,4.219c3.662,-0.981 5.988,-4.471 5.625,-8.126c-0.032,-0.23 -0.192,-0.421 -0.412,-0.493c-0.22,-0.073 -0.463,-0.014 -0.625,0.152c-1.45,1.366 -3.542,2.651 -5.972,3.302c-2.43,0.651 -4.885,0.584 -6.82,0.113Z"/></clipPath><g clip-path="url(#_clip10)"><path d="M56.842,142.588c2.751,-0.737 5.505,0.602 6.144,2.988c0.639,2.386 -1.076,4.922 -3.828,5.659c-2.751,0.738 -5.505,-0.601 -6.144,-2.987c-0.639,-2.386 1.076,-4.922 3.828,-5.66Z" style="fill:#a83333;"/></g><g><path d="M37.406,127.859c2.222,-0.595 4.643,1.224 5.403,4.059c0.76,2.835 -0.428,5.621 -2.65,6.216c-2.222,0.595 -4.643,-1.223 -5.402,-4.059c-0.76,-2.835 0.427,-5.62 2.649,-6.216Z" style="fill:#331f0f;"/><path d="M67.345,119.837c2.222,-0.595 4.643,1.223 5.403,4.059c0.76,2.835 -0.428,5.62 -2.65,6.216c-2.222,0.595 -4.643,-1.223 -5.402,-4.059c-0.76,-2.835 0.427,-5.62 2.649,-6.216Z" style="fill:#331f0f;"/></g><g><path d="M30.077,120.165l6.95,-3.795" style="fill:none;stroke:#2d1612;stroke-width:3.58px;"/><path d="M70.213,109.411l-7.917,0.188" style="fill:none;stroke:#2d1612;stroke-width:3.58px;"/></g></g><path d="M18.464,141.538l-5.019,-15.017l7.177,-2.947l-2.158,17.964Z" style="fill:#623027;"/><path d="M90.902,122.128l-3.162,-15.514l-7.689,1.036l10.851,14.478Z" style="fill:#623027;"/></g></g><defs><radialGradient id="_Radial2" cx="0" cy="0" r="1" gradientUnits="userSpaceOnUse" gradientTransform="matrix(4.58744e-16,8.74322,-7.49186,5.35368e-16,64.9145,139.253)"><stop offset="0" style="stop-color:#ffd2b1;stop-opacity:1"/><stop offset="1" style="stop-color:#e28262;stop-opacity:1"/></radialGradient><radialGradient id="_Radial3" cx="0" cy="0" r="1" gradientUnits="userSpaceOnUse" gradientTransform="matrix(4.58744e-16,8.74322,-7.49186,5.35368e-16,190.823,139.253)"><stop offset="0" style="stop-color:#ffd2b1;stop-opacity:1"/><stop offset="1" style="stop-color:#e28262;stop-opacity:1"/></radialGradient><radialGradient id="_Radial4" cx="0" cy="0" r="1" gradientUnits="userSpaceOnUse" gradientTransform="matrix(-1.82619e-16,32.2794,-32.2794,7.87369e-16,127.869,97.4544)"><stop offset="0" style="stop-color:#ffd2b1;stop-opacity:1"/><stop offset="1" style="stop-color:#e28262;stop-opacity:1"/></radialGradient><radialGradient id="_Radial7" cx="0" cy="0" r="1" gradientUnits="userSpaceOnUse" gradientTransform="matrix(-11.0974,41.416,-41.416,-11.0974,205.658,115.227)"><stop offset="0" style="stop-color:#ffedd2;stop-opacity:1"/><stop offset="1" style="stop-color:#feb8a3;stop-opacity:1"/></radialGradient><radialGradient id="_Radial9" cx="0" cy="0" r="1" gradientUnits="userSpaceOnUse" gradientTransform="matrix(8.35453,31.1795,-31.1795,8.35453,53.0851,126.496)"><stop offset="0" style="stop-color:#ffa778;stop-opacity:1"/><stop offset="1" style="stop-color:#cb6948;stop-opacity:1"/></radialGradient></defs></svg>