<?xml version="1.0" encoding="UTF-8" standalone="no"?><!DOCTYPE svg PUBLIC "-//W3C//DTD SVG 1.1//EN" "http://www.w3.org/Graphics/SVG/1.1/DTD/svg11.dtd"><svg width="100%" height="100%" viewBox="0 0 256 256" version="1.1" xmlns="http://www.w3.org/2000/svg" xmlns:xlink="http://www.w3.org/1999/xlink" xml:space="preserve" xmlns:serif="http://www.serif.com/" style="fill-rule:evenodd;clip-rule:evenodd;stroke-linejoin:round;stroke-miterlimit:2;"><g id="Gem---Yellow" serif:id="Gem - Yellow"><path id="Path" d="M212.121,55.164c14.581,9.145 23.434,25.146 23.434,42.358c-0,19.184 -0,44.672 -0,64.07c-0,17.753 -9.413,34.174 -24.732,43.145c-16.806,9.843 -38.948,22.812 -55.752,32.653c-15.311,8.967 -34.229,9.148 -49.709,0.474c-17.743,-9.942 -41.488,-23.246 -59.357,-33.259c-15.785,-8.844 -25.56,-25.526 -25.56,-43.619l0,-62.738c0,-17.622 9.276,-33.942 24.416,-42.959c17.679,-10.529 41.548,-24.744 59.638,-35.517c16.119,-9.6 36.256,-9.368 52.151,0.6c16.982,10.652 39.008,24.466 55.471,34.792Z" style="fill:none;stroke:#c87400;stroke-width:17.33px;"/><path id="Path1" serif:id="Path" d="M212.121,55.164c14.581,9.145 23.434,25.146 23.434,42.358c-0,19.184 -0,44.672 -0,64.07c-0,17.753 -9.413,34.174 -24.732,43.145c-16.806,9.843 -38.948,22.812 -55.752,32.653c-15.311,8.967 -34.229,9.148 -49.709,0.474c-17.743,-9.942 -41.488,-23.246 -59.357,-33.259c-15.785,-8.844 -25.56,-25.526 -25.56,-43.619l0,-62.738c0,-17.622 9.276,-33.942 24.416,-42.959c17.679,-10.529 41.548,-24.744 59.638,-35.517c16.119,-9.6 36.256,-9.368 52.151,0.6c16.982,10.652 39.008,24.466 55.471,34.792Z" style="fill:#d48b1f;"/><clipPath id="_clip1"><path id="Path2" serif:id="Path" d="M212.121,55.164c14.581,9.145 23.434,25.146 23.434,42.358c-0,19.184 -0,44.672 -0,64.07c-0,17.753 -9.413,34.174 -24.732,43.145c-16.806,9.843 -38.948,22.812 -55.752,32.653c-15.311,8.967 -34.229,9.148 -49.709,0.474c-17.743,-9.942 -41.488,-23.246 -59.357,-33.259c-15.785,-8.844 -25.56,-25.526 -25.56,-43.619l0,-62.738c0,-17.622 9.276,-33.942 24.416,-42.959c17.679,-10.529 41.548,-24.744 59.638,-35.517c16.119,-9.6 36.256,-9.368 52.151,0.6c16.982,10.652 39.008,24.466 55.471,34.792Z"/></clipPath><g clip-path="url(#_clip1)"><path id="Path3" serif:id="Path" d="M130.505,249.138l-54.64,-72.141l108.037,3.119l-53.397,69.022Z" style="fill:#ff0;"/><path id="Path4" serif:id="Path" d="M126.86,9.298c64.47,7.902 101.375,29.473 102.691,63.216l-54.715,-0.045l-47.976,-63.171Z" style="fill:#ffff5d;"/><path id="Path5" serif:id="Path" d="M26.358,72.114l48.169,2.834l58.061,-64.902c-47.837,4.511 -84.591,25.238 -106.23,62.068Z" style="fill:#ffff5d;"/><path id="Path6" serif:id="Path" d="M130.082,12.73l-57.014,63.048l103.415,-2.074l-46.401,-60.974Z" style="fill:#ffd;"/><path id="Path7" serif:id="Path" d="M229.585,72.179c36.766,42.926 25.283,88.955 0,124.181l-54.041,-123.89l54.041,-0.291Z" style="fill:#ffffb2;"/><path id="Path8" serif:id="Path" d="M126.415,188.244l-53.201,-115.91l102.359,0.136l-49.158,115.774Z" style="fill:#fff;"/><path id="Path9" serif:id="Path" d="M24.551,196.36l51.314,-124.067l-49.487,0.11c-44.348,49.038 -36.405,93.804 -1.827,123.957Z" style="fill:#ffb807;"/><path id="Path10" serif:id="Path" d="M229.744,187.369l-56.907,0.506l-42.198,58.097c54.983,7.336 84.901,-16.013 99.105,-58.603Z" style="fill:#ffd616;"/><path id="Path11" serif:id="Path" d="M229.571,187.89l-103.231,0.127l49.233,-115.547l53.998,115.42Z" style="fill:#ff8;"/><path id="Path12" serif:id="Path" d="M26.095,187.025l58.116,-2.484l45.967,61.02c-49.331,3.042 -89.077,-8.687 -104.083,-58.536Z" style="fill:#ffb807;"/><path id="Path13" serif:id="Path" d="M26.85,187.596l100.01,0.397l-51.1,-115.289l-48.91,114.892Z" style="fill:#ff8;"/></g></g></svg>