<?xml version="1.0" encoding="UTF-8" standalone="no"?><!DOCTYPE svg PUBLIC "-//W3C//DTD SVG 1.1//EN" "http://www.w3.org/Graphics/SVG/1.1/DTD/svg11.dtd"><svg width="100%" height="100%" viewBox="0 0 256 256" version="1.1" xmlns="http://www.w3.org/2000/svg" xmlns:xlink="http://www.w3.org/1999/xlink" xml:space="preserve" xmlns:serif="http://www.serif.com/" style="fill-rule:evenodd;clip-rule:evenodd;stroke-linejoin:round;stroke-miterlimit:2;"><g id="Gem-Triangle---Purple" serif:id="Gem Triangle - Purple"><path id="Path" d="M227.236,101.201c0.49,-10.27 -3.051,-20.326 -9.868,-28.024c-5.24,-5.916 -11.304,-12.763 -15.44,-17.433c-3.254,-3.675 -7.032,-6.85 -11.211,-9.424c-0.994,-0.612 -2.037,-1.255 -3.075,-1.893c-5.737,-3.534 -12.129,-5.871 -18.792,-6.872c-10.229,-1.536 -25.827,-3.879 -35.107,-5.273c-5.116,-0.769 -10.32,-0.738 -15.426,0.089c-8.526,1.382 -22.284,3.612 -31.564,5.116c-6.458,1.046 -12.649,3.351 -18.22,6.782c-1.471,0.905 -2.994,1.843 -4.445,2.737c-5.138,3.164 -9.661,7.233 -13.35,12.008c-4.522,5.854 -10.916,14.131 -15.762,20.404c-4.482,5.802 -6.936,12.915 -6.985,20.247c0,0.001 0,0.001 0,0.002c-0.047,7.114 2.202,14.053 6.414,19.787c13.68,18.624 46.065,62.715 68.42,93.149c5.471,7.449 14.134,11.884 23.377,11.969c9.242,0.084 17.984,-4.193 23.59,-11.542c22.929,-30.052 56.166,-73.617 70.231,-92.053c4.355,-5.707 6.87,-12.604 7.213,-19.775c-0,-0 -0,-0 -0,-0.001Z" style="fill:none;stroke:#80458f;stroke-width:17.33px;"/><path id="Path1" serif:id="Path" d="M227.236,101.201c0.49,-10.27 -3.051,-20.326 -9.868,-28.024c-5.24,-5.916 -11.304,-12.763 -15.44,-17.433c-3.254,-3.675 -7.032,-6.85 -11.211,-9.424c-0.994,-0.612 -2.037,-1.255 -3.075,-1.893c-5.737,-3.534 -12.129,-5.871 -18.792,-6.872c-10.229,-1.536 -25.827,-3.879 -35.107,-5.273c-5.116,-0.769 -10.32,-0.738 -15.426,0.089c-8.526,1.382 -22.284,3.612 -31.564,5.116c-6.458,1.046 -12.649,3.351 -18.22,6.782c-1.471,0.905 -2.994,1.843 -4.445,2.737c-5.138,3.164 -9.661,7.233 -13.35,12.008c-4.522,5.854 -10.916,14.131 -15.762,20.404c-4.482,5.802 -6.936,12.915 -6.985,20.247c0,0.001 0,0.001 0,0.002c-0.047,7.114 2.202,14.053 6.414,19.787c13.68,18.624 46.065,62.715 68.42,93.149c5.471,7.449 14.134,11.884 23.377,11.969c9.242,0.084 17.984,-4.193 23.59,-11.542c22.929,-30.052 56.166,-73.617 70.231,-92.053c4.355,-5.707 6.87,-12.604 7.213,-19.775c-0,-0 -0,-0 -0,-0.001Z" style="fill:#fffdff;"/><clipPath id="_clip1"><path d="M227.236,101.201c0.49,-10.27 -3.051,-20.326 -9.868,-28.024c-5.24,-5.916 -11.304,-12.763 -15.44,-17.433c-3.254,-3.675 -7.032,-6.85 -11.211,-9.424c-0.994,-0.612 -2.037,-1.255 -3.075,-1.893c-5.737,-3.534 -12.129,-5.871 -18.792,-6.872c-10.229,-1.536 -25.827,-3.879 -35.107,-5.273c-5.116,-0.769 -10.32,-0.738 -15.426,0.089c-8.526,1.382 -22.284,3.612 -31.564,5.116c-6.458,1.046 -12.649,3.351 -18.22,6.782c-1.471,0.905 -2.994,1.843 -4.445,2.737c-5.138,3.164 -9.661,7.233 -13.35,12.008c-4.522,5.854 -10.916,14.131 -15.762,20.404c-4.482,5.802 -6.936,12.915 -6.985,20.247c0,0.001 0,0.001 0,0.002c-0.047,7.114 2.202,14.053 6.414,19.787c13.68,18.624 46.065,62.715 68.42,93.149c5.471,7.449 14.134,11.884 23.377,11.969c9.242,0.084 17.984,-4.193 23.59,-11.542c22.929,-30.052 56.166,-73.617 70.231,-92.053c4.355,-5.707 6.87,-12.604 7.213,-19.775c-0,-0 -0,-0 -0,-0.001Z"/></clipPath><g clip-path="url(#_clip1)"><path id="Path2" serif:id="Path" d="M197.02,50.202l-19.362,17.49l-0,-28.62c7.324,0.998 13.778,4.708 19.362,11.13Z" style="fill:#fff3ff;"/><path id="Path3" serif:id="Path" d="M76.971,39.072l1.292,25.441c-8.262,-3.764 -16.168,-7.994 -23.071,-13.537l21.779,-11.904Z" style="fill:#fff3ff;"/><path id="Path4" serif:id="Path" d="M126.023,31.241l52.925,34.862l-1.29,-27.031c-16.331,-4.797 -32.855,-9.115 -51.635,-7.831Z" style="fill:#f9daff;"/><path id="Path5" serif:id="Path" d="M76.971,39.072l1.291,25.441l47.761,-33.391c-15.326,0.205 -31.822,3.202 -49.052,7.95Z" style="fill:#fff;"/><path id="Path6" serif:id="Path" d="M126.023,70.873l-0,-39.751l52.925,34.981l-52.925,4.77Z" style="fill:#fffdff;"/><path id="Path7" serif:id="Path" d="M126.023,31.122l-47.76,33.391l47.76,6.36l-0,-39.751Z" style="fill:#fef;"/><path id="Path8" serif:id="Path" d="M197.02,50.202l-15.49,68.372l-3.872,-52.471l19.362,-15.901Z" style="fill:#f0d4ff;"/><path id="Path9" serif:id="Path" d="M197.02,50.202c13.406,8.461 23.433,20.547 30.975,35.301l-45.174,31.48l14.199,-66.781Z" style="fill:#fffdff;"/><path id="Path10" serif:id="Path" d="M228.001,86.773l-46.471,31.801l-55.507,125.612c34.543,-41.961 70.186,-79.862 101.978,-131.973l-0,-25.44Z" style="fill:#e2adff;"/><path id="Path11" serif:id="Path" d="M177.658,66.103l3.872,52.471l-56.798,-47.701l52.926,-4.77Z" style="fill:#e2adff;"/><path id="Path12" serif:id="Path" d="M78.258,64.512l-6.451,50.881l54.216,-44.627l-47.765,-6.254Z" style="fill:#cea9ff;"/><path id="Path13" serif:id="Path" d="M126.023,126.523l-54.216,-11.13l54.216,-44.627l-0,55.757Z" style="fill:#c959ff;"/><path id="Path14" serif:id="Path" d="M126.023,126.523l55.507,-7.949l-55.507,-47.808l-0,55.757Z" style="fill:#e8b8ff;"/><path id="Path15" serif:id="Path" d="M126.023,126.523l-0,117.663l55.507,-125.612l-55.507,7.949Z" style="fill:#ca59ff;"/><path id="Path16" serif:id="Path" d="M125.987,244.457l-54.18,-129.064l54.216,11.13l-0.036,117.934Z" style="fill:#d279ff;"/><path id="Path17" serif:id="Path" d="M26.628,86.773l45.179,28.62l54.216,128.793c-34.258,-42.693 -68.85,-84.843 -99.395,-133.563l-0,-23.85Z" style="fill:#b54eff;"/><path id="Path18" serif:id="Path" d="M56.982,50.976c-11.077,8.555 -21.215,20.933 -30.354,37.387l45.179,27.03c-3.631,-22.15 -7.31,-44.276 -14.825,-64.417Z" style="fill:#ca59ff;"/><path id="Path19" serif:id="Path" d="M71.807,115.393l6.455,-50.88l-21.28,-13.537l14.825,64.417Z" style="fill:#bb51ff;"/></g></g></svg>