<?xml version="1.0" encoding="UTF-8" standalone="no"?><!DOCTYPE svg PUBLIC "-//W3C//DTD SVG 1.1//EN" "http://www.w3.org/Graphics/SVG/1.1/DTD/svg11.dtd"><svg width="100%" height="100%" viewBox="0 0 256 256" version="1.1" xmlns="http://www.w3.org/2000/svg" xmlns:xlink="http://www.w3.org/1999/xlink" xml:space="preserve" xmlns:serif="http://www.serif.com/" style="fill-rule:evenodd;clip-rule:evenodd;stroke-linejoin:round;stroke-miterlimit:2;"><g id="Gem-Triangle---Yellow" serif:id="Gem Triangle - Yellow"><path id="Path" d="M227.249,101.182c0.487,-10.262 -3.035,-20.312 -9.821,-28.026c-5.191,-5.901 -11.194,-12.726 -15.297,-17.39c-3.245,-3.689 -7.016,-6.879 -11.192,-9.468c-0.948,-0.588 -1.941,-1.204 -2.929,-1.817c-5.756,-3.569 -12.177,-5.931 -18.873,-6.944c-10.123,-1.531 -25.454,-3.849 -34.648,-5.24c-5.149,-0.778 -10.388,-0.748 -15.528,0.091c-8.441,1.377 -21.956,3.582 -31.134,5.08c-6.49,1.059 -12.707,3.388 -18.296,6.853c-1.667,1.033 -3.399,2.107 -5.013,3.108c-4.659,2.889 -8.812,6.525 -12.291,10.761c-4.226,5.146 -10.262,12.495 -15.262,18.584c-5.821,7.087 -8.751,16.11 -8.204,25.265c0,-0 0,0 0,0c0.335,5.605 2.272,10.995 5.581,15.531c12.63,17.311 46.137,63.238 69.123,94.744c5.467,7.494 14.157,11.96 23.433,12.045c9.276,0.084 18.046,-4.224 23.648,-11.617c22.751,-30.023 55.569,-73.33 69.511,-91.728c4.344,-5.733 6.851,-12.646 7.192,-19.831c0,-0 0,-0 0,-0.001Z" style="fill:none;stroke:#c87400;stroke-width:17.33px;"/><path id="Path1" serif:id="Path" d="M227.249,101.182c0.487,-10.262 -3.035,-20.312 -9.821,-28.026c-5.191,-5.901 -11.194,-12.726 -15.297,-17.39c-3.245,-3.689 -7.016,-6.879 -11.192,-9.468c-0.948,-0.588 -1.941,-1.204 -2.929,-1.817c-5.756,-3.569 -12.177,-5.931 -18.873,-6.944c-10.123,-1.531 -25.454,-3.849 -34.648,-5.24c-5.149,-0.778 -10.388,-0.748 -15.528,0.091c-8.441,1.377 -21.956,3.582 -31.134,5.08c-6.49,1.059 -12.707,3.388 -18.296,6.853c-1.667,1.033 -3.399,2.107 -5.013,3.108c-4.659,2.889 -8.812,6.525 -12.291,10.761c-4.226,5.146 -10.262,12.495 -15.262,18.584c-5.821,7.087 -8.751,16.11 -8.204,25.265c0,-0 0,0 0,0c0.335,5.605 2.272,10.995 5.581,15.531c12.63,17.311 46.137,63.238 69.123,94.744c5.467,7.494 14.157,11.96 23.433,12.045c9.276,0.084 18.046,-4.224 23.648,-11.617c22.751,-30.023 55.569,-73.33 69.511,-91.728c4.344,-5.733 6.851,-12.646 7.192,-19.831c0,-0 0,-0 0,-0.001Z" style="fill:#ffd;"/><clipPath id="_clip1"><path d="M227.249,101.182c0.487,-10.262 -3.035,-20.312 -9.821,-28.026c-5.191,-5.901 -11.194,-12.726 -15.297,-17.39c-3.245,-3.689 -7.016,-6.879 -11.192,-9.468c-0.948,-0.588 -1.941,-1.204 -2.929,-1.817c-5.756,-3.569 -12.177,-5.931 -18.873,-6.944c-10.123,-1.531 -25.454,-3.849 -34.648,-5.24c-5.149,-0.778 -10.388,-0.748 -15.528,0.091c-8.441,1.377 -21.956,3.582 -31.134,5.08c-6.49,1.059 -12.707,3.388 -18.296,6.853c-1.667,1.033 -3.399,2.107 -5.013,3.108c-4.659,2.889 -8.812,6.525 -12.291,10.761c-4.226,5.146 -10.262,12.495 -15.262,18.584c-5.821,7.087 -8.751,16.11 -8.204,25.265c0,-0 0,0 0,0c0.335,5.605 2.272,10.995 5.581,15.531c12.63,17.311 46.137,63.238 69.123,94.744c5.467,7.494 14.157,11.96 23.433,12.045c9.276,0.084 18.046,-4.224 23.648,-11.617c22.751,-30.023 55.569,-73.33 69.511,-91.728c4.344,-5.733 6.851,-12.646 7.192,-19.831c0,-0 0,-0 0,-0.001Z"/></clipPath><g clip-path="url(#_clip1)"><path id="Path2" serif:id="Path" d="M197.237,50.203l-19.233,17.49l0,-28.621c9.094,-1.508 14.956,3.268 19.233,11.131Z" style="fill:#ffd;"/><path id="Path3" serif:id="Path" d="M77.996,39.072l1.282,25.441l-22.059,-12.457c4.35,-6.705 10.695,-11.569 20.777,-12.984Z" style="fill:#ff8;"/><path id="Path4" serif:id="Path" d="M129.282,31.122l50.004,34.98l-1.282,-27.03c-17.288,-6.952 -33.258,-8.49 -48.722,-7.95Z" style="fill:#ffffb2;"/><path id="Path5" serif:id="Path" d="M77.996,39.072l1.282,25.441l47.44,-33.391c-17.399,-0.497 -33.71,1.961 -48.722,7.95Z" style="fill:#fff;"/><path id="Path6" serif:id="Path" d="M126.718,70.873l-0,-39.751l52.568,34.98l-52.568,4.771Z" style="fill:#fffff3;"/><path id="Path7" serif:id="Path" d="M126.718,31.122l-47.44,33.391l47.44,6.36l-0,-39.751Z" style="fill:#ffffb2;"/><path id="Path8" serif:id="Path" d="M197.237,50.203l-15.387,68.37l-3.846,-52.471l19.233,-15.899Z" style="fill:#ffff8c;"/><path id="Path9" serif:id="Path" d="M197.237,50.203c13.847,7.765 24.133,19.92 30.771,36.57l-46.158,31.8l15.387,-68.37Z" style="fill:#ffffb2;"/><path id="Path10" serif:id="Path" d="M228.008,86.773l-46.158,31.8l-55.132,125.613c33.013,-40.659 65.835,-80.47 101.29,-131.973l0,-25.44Z" style="fill:#ffff5d;"/><path id="Path11" serif:id="Path" d="M178.004,66.102l3.846,52.471l-56.414,-47.7l52.568,-4.771Z" style="fill:#ffdd5d;"/><path id="Path12" serif:id="Path" d="M77.996,64.513l-5.421,51.08l54.143,-44.72l-48.722,-6.36Z" style="fill:#ffff5d;"/><path id="Path13" serif:id="Path" d="M126.718,126.524l-54.143,-10.931l54.143,-44.837l-0,55.768Z" style="fill:#ffdd5d;"/><path id="Path14" serif:id="Path" d="M126.718,126.524l55.132,-7.951l-55.132,-47.817l-0,55.768Z" style="fill:#ff8;"/><path id="Path15" serif:id="Path" d="M126.718,126.524l-0,117.662l55.132,-125.613l-55.132,7.951Z" style="fill:#ffdd5d;"/><path id="Path16" serif:id="Path" d="M127.224,244.294l-54.357,-128.901l53.851,11.131l0.506,117.77Z" style="fill:#ffff6d;"/><path id="Path17" serif:id="Path" d="M27.349,86.773l45.518,28.62l53.851,128.793c-33.934,-42.634 -68.667,-83.799 -98.726,-133.563l-0.643,-23.85Z" style="fill:#ffb807;"/><path id="Path18" serif:id="Path" d="M57.481,51.792c-12.782,7.667 -22.082,20.672 -30.132,35.594l45.518,28.007l-15.386,-63.601Z" style="fill:#ffff5d;"/><path id="Path19" serif:id="Path" d="M72.858,115.36l6.42,-50.847l-21.797,-12.457l15.377,63.304Z" style="fill:#ffdd5d;"/></g></g></svg>