<?xml version="1.0" encoding="UTF-8" standalone="no"?><!DOCTYPE svg PUBLIC "-//W3C//DTD SVG 1.1//EN" "http://www.w3.org/Graphics/SVG/1.1/DTD/svg11.dtd"><svg width="100%" height="100%" viewBox="0 0 256 256" version="1.1" xmlns="http://www.w3.org/2000/svg" xmlns:xlink="http://www.w3.org/1999/xlink" xml:space="preserve" xmlns:serif="http://www.serif.com/" style="fill-rule:evenodd;clip-rule:evenodd;stroke-linejoin:round;stroke-miterlimit:2;"><g id="Gem-Triangle---Pink" serif:id="Gem Triangle - Pink"><path id="Path" d="M227.235,101.202c0.491,-10.271 -3.05,-20.327 -9.868,-28.024c-5.239,-5.916 -11.304,-12.764 -15.44,-17.434c-3.254,-3.674 -7.031,-6.85 -11.21,-9.423c-0.995,-0.613 -2.038,-1.255 -3.075,-1.894c-5.737,-3.533 -12.129,-5.871 -18.792,-6.871c-10.228,-1.537 -25.826,-3.88 -35.106,-5.274c-5.116,-0.769 -10.32,-0.738 -15.427,0.089c-8.526,1.382 -22.284,3.612 -31.564,5.116c-6.459,1.047 -12.65,3.351 -18.221,6.782c-1.47,0.906 -2.994,1.844 -4.446,2.738c-5.137,3.164 -9.66,7.232 -13.348,12.007c-4.522,5.853 -10.915,14.129 -15.761,20.402c-4.484,5.804 -6.938,12.919 -6.986,20.253c-0,-0 -0,-0 -0,0c-0.047,7.113 2.202,14.051 6.413,19.784c13.679,18.623 46.066,62.715 68.421,93.15c5.472,7.449 14.134,11.884 23.377,11.968c9.243,0.085 17.984,-4.192 23.591,-11.541c22.928,-30.052 56.165,-73.617 70.23,-92.053c4.354,-5.707 6.87,-12.604 7.212,-19.775c0,0 0,0 0,-0Z" style="fill:none;stroke:#b53e68;stroke-width:17.33px;"/><path id="Path1" serif:id="Path" d="M227.235,101.202c0.491,-10.271 -3.05,-20.327 -9.868,-28.024c-5.239,-5.916 -11.304,-12.764 -15.44,-17.434c-3.254,-3.674 -7.031,-6.85 -11.21,-9.423c-0.995,-0.613 -2.038,-1.255 -3.075,-1.894c-5.737,-3.533 -12.129,-5.871 -18.792,-6.871c-10.228,-1.537 -25.826,-3.88 -35.106,-5.274c-5.116,-0.769 -10.32,-0.738 -15.427,0.089c-8.526,1.382 -22.284,3.612 -31.564,5.116c-6.459,1.047 -12.65,3.351 -18.221,6.782c-1.47,0.906 -2.994,1.844 -4.446,2.738c-5.137,3.164 -9.66,7.232 -13.348,12.007c-4.522,5.853 -10.915,14.129 -15.761,20.402c-4.484,5.804 -6.938,12.919 -6.986,20.253c-0,-0 -0,-0 -0,0c-0.047,7.113 2.202,14.051 6.413,19.784c13.679,18.623 46.066,62.715 68.421,93.15c5.472,7.449 14.134,11.884 23.377,11.968c9.243,0.085 17.984,-4.192 23.591,-11.541c22.928,-30.052 56.165,-73.617 70.23,-92.053c4.354,-5.707 6.87,-12.604 7.212,-19.775c0,0 0,0 0,-0Z" style="fill:#ffe5fc;"/><clipPath id="_clip1"><path d="M227.235,101.202c0.491,-10.271 -3.05,-20.327 -9.868,-28.024c-5.239,-5.916 -11.304,-12.764 -15.44,-17.434c-3.254,-3.674 -7.031,-6.85 -11.21,-9.423c-0.995,-0.613 -2.038,-1.255 -3.075,-1.894c-5.737,-3.533 -12.129,-5.871 -18.792,-6.871c-10.228,-1.537 -25.826,-3.88 -35.106,-5.274c-5.116,-0.769 -10.32,-0.738 -15.427,0.089c-8.526,1.382 -22.284,3.612 -31.564,5.116c-6.459,1.047 -12.65,3.351 -18.221,6.782c-1.47,0.906 -2.994,1.844 -4.446,2.738c-5.137,3.164 -9.66,7.232 -13.348,12.007c-4.522,5.853 -10.915,14.129 -15.761,20.402c-4.484,5.804 -6.938,12.919 -6.986,20.253c-0,-0 -0,-0 -0,0c-0.047,7.113 2.202,14.051 6.413,19.784c13.679,18.623 46.066,62.715 68.421,93.15c5.472,7.449 14.134,11.884 23.377,11.968c9.243,0.085 17.984,-4.192 23.591,-11.541c22.928,-30.052 56.165,-73.617 70.23,-92.053c4.354,-5.707 6.87,-12.604 7.212,-19.775c0,0 0,0 0,-0Z"/></clipPath><g clip-path="url(#_clip1)"><path id="Path2" serif:id="Path" d="M197.019,50.202l-19.362,17.491l0,-28.621l19.362,11.13Z" style="fill:#ffe5fc;"/><path id="Path3" serif:id="Path" d="M76.97,39.072l1.291,25.441l-21.472,-14.311l20.181,-11.13Z" style="fill:#ffe9fb;"/><path id="Path4" serif:id="Path" d="M126.232,31.139l51.425,34.964l0,-27.031l-51.425,-7.933Z" style="fill:#ffc0e8;"/><path id="Path5" serif:id="Path" d="M76.97,39.072l1.291,25.441l47.763,-33.391l-49.054,7.95Z" style="fill:#fff;"/><path id="Path6" serif:id="Path" d="M126.024,70.873l-0,-39.751l51.633,34.981l-51.633,4.77Z" style="fill:#ffe5fc;"/><path id="Path7" serif:id="Path" d="M126.024,31.122l-47.763,33.391l47.763,6.36l-0,-39.751Z" style="fill:#ffc0e8;"/><path id="Path8" serif:id="Path" d="M197.019,50.202l-15.57,68.371l-3.792,-52.47l19.362,-15.901Z" style="fill:#ffc0e8;"/><path id="Path9" serif:id="Path" d="M197.019,50.202l30.981,36.571l-46.551,31.8l15.57,-68.371Z" style="fill:#ffe5fc;"/><path id="Path10" serif:id="Path" d="M228,86.773l-46.47,31.8l-55.506,125.613l101.976,-131.973l0,-25.44Z" style="fill:#ff92cd;"/><path id="Path11" serif:id="Path" d="M177.657,66.103l3.792,52.47l-56.717,-47.7l52.925,-4.77Z" style="fill:#ff92cd;"/><path id="Path12" serif:id="Path" d="M78.261,64.513l-6.455,50.88l54.218,-44.642l-47.763,-6.238Z" style="fill:#ff92cd;"/><path id="Path13" serif:id="Path" d="M126.024,126.524l-54.218,-11.131l54.218,-44.642l-0,55.773Z" style="fill:#ff7dbb;"/><path id="Path14" serif:id="Path" d="M126.024,126.524l55.425,-7.951l-55.425,-47.822l-0,55.773Z" style="fill:#fbd;"/><path id="Path15" serif:id="Path" d="M126.024,126.524l-0,117.662l55.506,-125.613l-55.506,7.951Z" style="fill:#ff7dbb;"/><path id="Path16" serif:id="Path" d="M126.03,244.681l-54.224,-129.288l54.218,11.131l0.006,118.157Z" style="fill:#ff4790;"/><path id="Path17" serif:id="Path" d="M26.627,86.773l45.179,28.62l54.218,128.793l-99.397,-133.562l0,-23.851Z" style="fill:#ff7dbb;"/><path id="Path18" serif:id="Path" d="M56.681,50.683l-30.054,36.703l45.179,28.007l-15.125,-64.71Z" style="fill:#ff4790;"/><path id="Path19" serif:id="Path" d="M71.806,115.393l6.455,-50.88l-21.716,-14.156l15.261,65.036Z" style="fill:#ff7dbb;"/></g></g></svg>