<?xml version="1.0" encoding="UTF-8" standalone="no"?><!DOCTYPE svg PUBLIC "-//W3C//DTD SVG 1.1//EN" "http://www.w3.org/Graphics/SVG/1.1/DTD/svg11.dtd"><svg width="100%" height="100%" viewBox="0 0 256 256" version="1.1" xmlns="http://www.w3.org/2000/svg" xmlns:xlink="http://www.w3.org/1999/xlink" xml:space="preserve" xmlns:serif="http://www.serif.com/" style="fill-rule:evenodd;clip-rule:evenodd;stroke-linejoin:round;stroke-miterlimit:2;"><g id="Gem---Purple" serif:id="Gem - Purple"><path id="Path" d="M212.121,55.164c14.581,9.145 23.434,25.146 23.434,42.358c-0,19.184 -0,44.672 -0,64.07c-0,17.753 -9.413,34.174 -24.732,43.145c-16.806,9.843 -38.948,22.812 -55.752,32.653c-15.311,8.967 -34.229,9.148 -49.709,0.474c-17.743,-9.942 -41.488,-23.246 -59.357,-33.259c-15.785,-8.844 -25.56,-25.526 -25.56,-43.619l0,-62.738c0,-17.622 9.276,-33.942 24.416,-42.959c17.679,-10.529 41.548,-24.744 59.638,-35.517c16.119,-9.6 36.256,-9.368 52.151,0.6c16.982,10.652 39.008,24.466 55.471,34.792Z" style="fill:none;stroke:#80458f;stroke-width:17.33px;"/><path id="Path1" serif:id="Path" d="M212.121,55.164c14.581,9.145 23.434,25.146 23.434,42.358c-0,19.184 -0,44.672 -0,64.07c-0,17.753 -9.413,34.174 -24.732,43.145c-16.806,9.843 -38.948,22.812 -55.752,32.653c-15.311,8.967 -34.229,9.148 -49.709,0.474c-17.743,-9.942 -41.488,-23.246 -59.357,-33.259c-15.785,-8.844 -25.56,-25.526 -25.56,-43.619l0,-62.738c0,-17.622 9.276,-33.942 24.416,-42.959c17.679,-10.529 41.548,-24.744 59.638,-35.517c16.119,-9.6 36.256,-9.368 52.151,0.6c16.982,10.652 39.008,24.466 55.471,34.792Z" style="fill:#865dc7;"/><clipPath id="_clip1"><path id="Path2" serif:id="Path" d="M212.121,55.164c14.581,9.145 23.434,25.146 23.434,42.358c-0,19.184 -0,44.672 -0,64.07c-0,17.753 -9.413,34.174 -24.732,43.145c-16.806,9.843 -38.948,22.812 -55.752,32.653c-15.311,8.967 -34.229,9.148 -49.709,0.474c-17.743,-9.942 -41.488,-23.246 -59.357,-33.259c-15.785,-8.844 -25.56,-25.526 -25.56,-43.619l0,-62.738c0,-17.622 9.276,-33.942 24.416,-42.959c17.679,-10.529 41.548,-24.744 59.638,-35.517c16.119,-9.6 36.256,-9.368 52.151,0.6c16.982,10.652 39.008,24.466 55.471,34.792Z"/></clipPath><g clip-path="url(#_clip1)"><path id="Path3" serif:id="Path" d="M130.639,244.548l-50.154,-65.869l103.417,1.437l-53.263,64.432Z" style="fill:#c381e9;"/><path id="Path4" serif:id="Path" d="M127.443,9.45c49.018,-19.056 84.602,4.065 102.108,63.064l-54.715,-0.045l-47.393,-63.019Z" style="fill:#dba3f6;"/><path id="Path5" serif:id="Path" d="M26.358,72.114c-1.614,11.913 27.471,4.77 48.169,2.834l58.828,-64.952c-61.559,-11.77 -103.254,3.958 -106.997,62.118Z" style="fill:#dba3f6;"/><path id="Path6" serif:id="Path" d="M130.082,12.73l-54.241,59.604l100.642,1.37l-46.401,-60.974Z" style="fill:#ffcffc;"/><path id="Path7" serif:id="Path" d="M229.585,72.179c48.945,49.007 37.828,86.645 -1.194,116.529l-52.847,-116.238l54.041,-0.291Z" style="fill:#ffcffc;"/><path id="Path8" serif:id="Path" d="M126.415,188.244l-53.201,-115.91l102.33,0.136l-49.129,115.774Z" style="fill:#fff;"/><path id="Path9" serif:id="Path" d="M27.705,186.933l48.16,-114.64l-49.487,0.11c-40.882,39.346 -31.1,76.85 1.327,114.53Z" style="fill:#c959ff;"/><path id="Path10" serif:id="Path" d="M230.77,186.848l-57.933,1.027l-43.598,58.433c51.102,16.538 92.286,7.571 101.531,-59.46Z" style="fill:#b77ae1;"/><path id="Path11" serif:id="Path" d="M228.857,187.221c-33.537,0.794 -67.784,0.997 -102.517,0.796l49.204,-115.547l53.313,114.751Z" style="fill:#eabdff;"/><path id="Path12" serif:id="Path" d="M26.095,187.025l59.286,-3.393l46.208,61.948c-48.303,5.197 -82.943,-16.994 -105.494,-58.555Z" style="fill:#c959ff;"/><path id="Path13" serif:id="Path" d="M27.705,186.933l99.155,1.06l-51.019,-115.659l-48.136,114.599Z" style="fill:#d49fef;"/></g></g></svg>