<?xml version="1.0" encoding="UTF-8" standalone="no"?><!DOCTYPE svg PUBLIC "-//W3C//DTD SVG 1.1//EN" "http://www.w3.org/Graphics/SVG/1.1/DTD/svg11.dtd"><svg width="100%" height="100%" viewBox="0 0 256 256" version="1.1" xmlns="http://www.w3.org/2000/svg" xmlns:xlink="http://www.w3.org/1999/xlink" xml:space="preserve" xmlns:serif="http://www.serif.com/" style="fill-rule:evenodd;clip-rule:evenodd;stroke-linejoin:round;stroke-miterlimit:2;"><g id="Gem-Triangle---Blue" serif:id="Gem Triangle - Blue"><path id="Path" d="M227.249,101.183c0.487,-10.263 -3.035,-20.312 -9.82,-28.026c-5.192,-5.902 -11.195,-12.726 -15.298,-17.39c-3.245,-3.689 -7.017,-6.88 -11.192,-9.469c-0.949,-0.588 -1.941,-1.204 -2.929,-1.816c-5.756,-3.569 -12.177,-5.932 -18.873,-6.945c-10.123,-1.531 -25.454,-3.849 -34.648,-5.24c-5.149,-0.778 -10.388,-0.748 -15.528,0.091c-8.441,1.377 -21.956,3.582 -31.134,5.08c-6.49,1.059 -12.707,3.388 -18.296,6.853c-1.667,1.034 -3.4,2.108 -5.013,3.109c-4.66,2.889 -8.812,6.524 -12.291,10.761c-4.226,5.145 -10.261,12.494 -15.262,18.583c-5.821,7.087 -8.751,16.111 -8.204,25.265c0,0 0,0.001 0,0.001c0.335,5.604 2.272,10.995 5.581,15.53c12.63,17.311 46.137,63.238 69.123,94.744c5.467,7.494 14.157,11.96 23.433,12.045c9.276,0.084 18.046,-4.224 23.648,-11.617c22.751,-30.022 55.569,-73.329 69.511,-91.727c4.344,-5.733 6.851,-12.647 7.192,-19.832c0,0 0,-0 0,-0Z" style="fill:none;stroke:#2776bb;stroke-width:17.33px;"/><path id="Path1" serif:id="Path" d="M227.249,101.183c0.487,-10.263 -3.035,-20.312 -9.82,-28.026c-5.192,-5.902 -11.195,-12.726 -15.298,-17.39c-3.245,-3.689 -7.017,-6.88 -11.192,-9.469c-0.949,-0.588 -1.941,-1.204 -2.929,-1.816c-5.756,-3.569 -12.177,-5.932 -18.873,-6.945c-10.123,-1.531 -25.454,-3.849 -34.648,-5.24c-5.149,-0.778 -10.388,-0.748 -15.528,0.091c-8.441,1.377 -21.956,3.582 -31.134,5.08c-6.49,1.059 -12.707,3.388 -18.296,6.853c-1.667,1.034 -3.4,2.108 -5.013,3.109c-4.66,2.889 -8.812,6.524 -12.291,10.761c-4.226,5.145 -10.261,12.494 -15.262,18.583c-5.821,7.087 -8.751,16.111 -8.204,25.265c0,0 0,0.001 0,0.001c0.335,5.604 2.272,10.995 5.581,15.53c12.63,17.311 46.137,63.238 69.123,94.744c5.467,7.494 14.157,11.96 23.433,12.045c9.276,0.084 18.046,-4.224 23.648,-11.617c22.751,-30.022 55.569,-73.329 69.511,-91.727c4.344,-5.733 6.851,-12.647 7.192,-19.832c0,0 0,-0 0,-0Z" style="fill:#c6ffff;"/><clipPath id="_clip1"><path d="M227.249,101.183c0.487,-10.263 -3.035,-20.312 -9.82,-28.026c-5.192,-5.902 -11.195,-12.726 -15.298,-17.39c-3.245,-3.689 -7.017,-6.88 -11.192,-9.469c-0.949,-0.588 -1.941,-1.204 -2.929,-1.816c-5.756,-3.569 -12.177,-5.932 -18.873,-6.945c-10.123,-1.531 -25.454,-3.849 -34.648,-5.24c-5.149,-0.778 -10.388,-0.748 -15.528,0.091c-8.441,1.377 -21.956,3.582 -31.134,5.08c-6.49,1.059 -12.707,3.388 -18.296,6.853c-1.667,1.034 -3.4,2.108 -5.013,3.109c-4.66,2.889 -8.812,6.524 -12.291,10.761c-4.226,5.145 -10.261,12.494 -15.262,18.583c-5.821,7.087 -8.751,16.111 -8.204,25.265c0,0 0,0.001 0,0.001c0.335,5.604 2.272,10.995 5.581,15.53c12.63,17.311 46.137,63.238 69.123,94.744c5.467,7.494 14.157,11.96 23.433,12.045c9.276,0.084 18.046,-4.224 23.648,-11.617c22.751,-30.022 55.569,-73.329 69.511,-91.727c4.344,-5.733 6.851,-12.647 7.192,-19.832c0,0 0,-0 0,-0Z"/></clipPath><g clip-path="url(#_clip1)"><path id="Path2" serif:id="Path" d="M197.236,50.203l-19.232,17.49l0,-28.621c8.501,0.23 14.911,3.94 19.232,11.131Z" style="fill:#b9ffff;"/><path id="Path3" serif:id="Path" d="M77.996,39.072l1.282,25.441l-22.059,-12.457c5.311,-7.171 12.151,-11.65 20.777,-12.984Z" style="fill:#b9ffff;"/><path id="Path4" serif:id="Path" d="M127.765,31.235l51.521,34.868l-1.282,-27.031c-18.7,-7.378 -34.852,-8.539 -50.239,-7.837Z" style="fill:#8bffff;"/><path id="Path5" serif:id="Path" d="M77.996,39.072l1.282,25.441l47.44,-33.391c-16.755,-0.459 -33.354,0.027 -48.722,7.95Z" style="fill:#fff;"/><path id="Path6" serif:id="Path" d="M126.718,70.873l-0,-39.751l52.568,34.981l-52.568,4.77Z" style="fill:#c6ffff;"/><path id="Path7" serif:id="Path" d="M126.718,31.122l-47.44,33.391l47.44,6.36l-0,-39.751Z" style="fill:#acffff;"/><path id="Path8" serif:id="Path" d="M197.236,50.203l-14.794,67.97l-4.438,-52.07l19.232,-15.9Z" style="fill:#5bffff;"/><path id="Path9" serif:id="Path" d="M197.236,50.203c21.831,6.945 30.336,19.93 30.772,36.57l-45.566,31.4l14.794,-67.97Z" style="fill:#c6ffff;"/><path id="Path10" serif:id="Path" d="M228.008,86.773l-46.157,31.801l-55.133,125.612c33.688,-41.768 67.31,-81.611 101.29,-131.972l0,-25.441Z" style="fill:#4effff;"/><path id="Path11" serif:id="Path" d="M178.004,66.103l4.438,52.07l-57.006,-47.3l52.568,-4.77Z" style="fill:#2ff;"/><path id="Path12" serif:id="Path" d="M77.996,64.513l-5.151,50.906l53.873,-44.662l-48.722,-6.244Z" style="fill:#14d8ff;"/><path id="Path13" serif:id="Path" d="M126.718,126.524l-53.873,-11.13l53.873,-44.637l-0,55.767Z" style="fill:#0ef4ff;"/><path id="Path14" serif:id="Path" d="M126.718,126.524l55.724,-8.351l-55.724,-47.416l-0,55.767Z" style="fill:#5bffff;"/><path id="Path15" serif:id="Path" d="M126.718,126.524l-0,117.662l55.724,-126.013l-55.724,8.351Z" style="fill:#0dedff;"/><path id="Path16" serif:id="Path" d="M126.682,244.585l-53.815,-129.191l53.851,11.13l-0.036,118.061Z" style="fill:#0dd1ff;"/><path id="Path17" serif:id="Path" d="M27.349,86.773l45.518,28.621l53.851,128.792c-34.353,-42.499 -68.464,-85.337 -98.726,-133.562l-0.643,-23.851Z" style="fill:#0dadfc;"/><path id="Path18" serif:id="Path" d="M57.481,51.793c-14.3,6.743 -23.022,20.626 -30.132,36.57l45.518,27.031l-15.386,-63.601Z" style="fill:#0dd1ff;"/><path id="Path19" serif:id="Path" d="M72.867,115.394l6.411,-50.881l-21.797,-12.457l15.386,63.338Z" style="fill:#0dc7ff;"/></g></g></svg>