<?xml version="1.0" encoding="UTF-8" standalone="no"?><!DOCTYPE svg PUBLIC "-//W3C//DTD SVG 1.1//EN" "http://www.w3.org/Graphics/SVG/1.1/DTD/svg11.dtd"><svg width="100%" height="100%" viewBox="0 0 256 256" version="1.1" xmlns="http://www.w3.org/2000/svg" xmlns:xlink="http://www.w3.org/1999/xlink" xml:space="preserve" xmlns:serif="http://www.serif.com/" style="fill-rule:evenodd;clip-rule:evenodd;stroke-linejoin:round;stroke-miterlimit:2;"><g id="Gem---Blue" serif:id="Gem - Blue"><path id="Path" d="M212.121,55.164c14.581,9.145 23.434,25.146 23.434,42.358c-0,19.184 -0,44.672 -0,64.07c-0,17.753 -9.413,34.174 -24.732,43.145c-16.806,9.843 -38.948,22.812 -55.752,32.653c-15.311,8.967 -34.229,9.148 -49.709,0.474c-17.743,-9.942 -41.488,-23.246 -59.357,-33.259c-15.785,-8.844 -25.56,-25.526 -25.56,-43.619l0,-62.738c0,-17.622 9.276,-33.942 24.416,-42.959c17.679,-10.529 41.548,-24.744 59.638,-35.517c16.119,-9.6 36.256,-9.368 52.151,0.6c16.982,10.652 39.008,24.466 55.471,34.792Z" style="fill:none;stroke:#2776bb;stroke-width:17.33px;"/><path id="Path1" serif:id="Path" d="M212.121,55.164c14.581,9.145 23.434,25.146 23.434,42.358c-0,19.184 -0,44.672 -0,64.07c-0,17.753 -9.413,34.174 -24.732,43.145c-16.806,9.843 -38.948,22.812 -55.752,32.653c-15.311,8.967 -34.229,9.148 -49.709,0.474c-17.743,-9.942 -41.488,-23.246 -59.357,-33.259c-15.785,-8.844 -25.56,-25.526 -25.56,-43.619l0,-62.738c0,-17.622 9.276,-33.942 24.416,-42.959c17.679,-10.529 41.548,-24.744 59.638,-35.517c16.119,-9.6 36.256,-9.368 52.151,0.6c16.982,10.652 39.008,24.466 55.471,34.792Z" style="fill:#0884c1;"/><clipPath id="_clip1"><path id="Path2" serif:id="Path" d="M212.121,55.164c14.581,9.145 23.434,25.146 23.434,42.358c-0,19.184 -0,44.672 -0,64.07c-0,17.753 -9.413,34.174 -24.732,43.145c-16.806,9.843 -38.948,22.812 -55.752,32.653c-15.311,8.967 -34.229,9.148 -49.709,0.474c-17.743,-9.942 -41.488,-23.246 -59.357,-33.259c-15.785,-8.844 -25.56,-25.526 -25.56,-43.619l0,-62.738c0,-17.622 9.276,-33.942 24.416,-42.959c17.679,-10.529 41.548,-24.744 59.638,-35.517c16.119,-9.6 36.256,-9.368 52.151,0.6c16.982,10.652 39.008,24.466 55.471,34.792Z"/></clipPath><g clip-path="url(#_clip1)"><path id="Path3" serif:id="Path" d="M130.639,244.498l-51.446,-65.79l104.709,1.408l-53.263,64.382Z" style="fill:#4dffff;"/><path id="Path4" serif:id="Path" d="M130.302,12.731c60.166,-12.764 78.788,24.619 99.249,59.783l-54.715,-0.045l-44.534,-59.738Z" style="fill:#0dedff;"/><path id="Path5" serif:id="Path" d="M26.358,72.114l48.169,2.834l55.774,-62.217c-69.131,-16.545 -82.007,26.193 -103.943,59.383Z" style="fill:#4dffff;"/><path id="Path6" serif:id="Path" d="M130.302,12.73l-57.234,63.048l103.415,-2.074l-46.181,-60.974Z" style="fill:#c6ffff;"/><path id="Path7" serif:id="Path" d="M229.585,72.179c55.754,51.449 30.754,86.448 -0.973,117.373l-53.096,-117.082l54.069,-0.291Z" style="fill:#c6ffff;"/><path id="Path8" serif:id="Path" d="M126.415,188.244l-53.201,-115.91l102.302,0.136l-49.101,115.774Z" style="fill:#fff;"/><path id="Path9" serif:id="Path" d="M26.095,189.552l50.095,-117.216l-53.817,-1.07c-105.999,42.44 -74.256,82.828 3.722,118.286Z" style="fill:#0dadfc;"/><path id="Path10" serif:id="Path" d="M229.744,187.369l-56.907,0.506l-43.985,58.629c56.617,20.186 88.831,-4.273 100.892,-59.135Z" style="fill:#0dd1ff;"/><path id="Path11" serif:id="Path" d="M229.571,187.89l-103.231,0.127l49.176,-115.547l54.055,115.42Z" style="fill:#8bffff;"/><path id="Path12" serif:id="Path" d="M26.095,187.025l58.116,-2.484l48.377,61.661c-46.883,0.929 -93.572,-3.148 -106.493,-59.177Z" style="fill:#0dadfc;"/><path id="Path13" serif:id="Path" d="M26.85,187.596l100.01,0.397l-50.67,-115.657l-49.34,115.26Z" style="fill:#62e4ff;"/></g></g></svg>