<?xml version="1.0" encoding="UTF-8" standalone="no"?><!DOCTYPE svg PUBLIC "-//W3C//DTD SVG 1.1//EN" "http://www.w3.org/Graphics/SVG/1.1/DTD/svg11.dtd"><svg width="100%" height="100%" viewBox="0 0 256 256" version="1.1" xmlns="http://www.w3.org/2000/svg" xmlns:xlink="http://www.w3.org/1999/xlink" xml:space="preserve" xmlns:serif="http://www.serif.com/" style="fill-rule:evenodd;clip-rule:evenodd;stroke-linejoin:round;stroke-miterlimit:2;"><g id="Gem---Green" serif:id="Gem - Green"><path id="Path" d="M212.121,55.164c14.581,9.145 23.434,25.146 23.434,42.358c-0,19.184 -0,44.672 -0,64.07c-0,17.753 -9.413,34.174 -24.732,43.145c-16.806,9.843 -38.948,22.812 -55.752,32.653c-15.311,8.967 -34.229,9.148 -49.709,0.474c-17.743,-9.942 -41.488,-23.246 -59.357,-33.259c-15.785,-8.844 -25.56,-25.526 -25.56,-43.619l0,-62.738c0,-17.622 9.276,-33.942 24.416,-42.959c17.679,-10.529 41.548,-24.744 59.638,-35.517c16.119,-9.6 36.256,-9.368 52.151,0.6c16.982,10.652 39.008,24.466 55.471,34.792Z" style="fill:none;stroke:#2e793d;stroke-width:17.33px;"/><path id="Path1" serif:id="Path" d="M212.121,55.164c14.581,9.145 23.434,25.146 23.434,42.358c-0,19.184 -0,44.672 -0,64.07c-0,17.753 -9.413,34.174 -24.732,43.145c-16.806,9.843 -38.948,22.812 -55.752,32.653c-15.311,8.967 -34.229,9.148 -49.709,0.474c-17.743,-9.942 -41.488,-23.246 -59.357,-33.259c-15.785,-8.844 -25.56,-25.526 -25.56,-43.619l0,-62.738c0,-17.622 9.276,-33.942 24.416,-42.959c17.679,-10.529 41.548,-24.744 59.638,-35.517c16.119,-9.6 36.256,-9.368 52.151,0.6c16.982,10.652 39.008,24.466 55.471,34.792Z" style="fill:#368e2c;"/><clipPath id="_clip1"><path id="Path2" serif:id="Path" d="M212.121,55.164c14.581,9.145 23.434,25.146 23.434,42.358c-0,19.184 -0,44.672 -0,64.07c-0,17.753 -9.413,34.174 -24.732,43.145c-16.806,9.843 -38.948,22.812 -55.752,32.653c-15.311,8.967 -34.229,9.148 -49.709,0.474c-17.743,-9.942 -41.488,-23.246 -59.357,-33.259c-15.785,-8.844 -25.56,-25.526 -25.56,-43.619l0,-62.738c0,-17.622 9.276,-33.942 24.416,-42.959c17.679,-10.529 41.548,-24.744 59.638,-35.517c16.119,-9.6 36.256,-9.368 52.151,0.6c16.982,10.652 39.008,24.466 55.471,34.792Z"/></clipPath><g clip-path="url(#_clip1)"><path id="Path3" serif:id="Path" d="M130.165,245.914l-49.68,-67.235l103.417,1.437l-53.737,65.798Z" style="fill:#61cc27;"/><path id="Path4" serif:id="Path" d="M130.135,12.66c59.514,-16.217 89.008,8.732 99.416,59.854l-54.715,-0.045l-44.701,-59.809Z" style="fill:#c1ef71;"/><path id="Path5" serif:id="Path" d="M26.358,72.114l48.169,2.834l55.491,-62.288c-66.744,-12.426 -94.451,14.249 -103.66,59.454Z" style="fill:#c1ef71;"/><path id="Path6" serif:id="Path" d="M130.081,12.589l-57.013,63.189l103.415,-2.074l-46.402,-61.115Z" style="fill:#e4ff9f;"/><path id="Path7" serif:id="Path" d="M229.585,72.179c31.505,47.317 23.945,83.541 -0.127,115.074l-53.921,-114.919l54.048,-0.155Z" style="fill:#e4ff9f;"/><path id="Path8" serif:id="Path" d="M126.415,188.244l-53.201,-115.91l102.341,-0l-49.14,115.91Z" style="fill:#fff;"/><path id="Path9" serif:id="Path" d="M26.523,187.649l49.645,-115.356l-49.79,0.11c-27.723,45.306 -23.974,82.803 0.145,115.246Z" style="fill:#39962e;"/><path id="Path10" serif:id="Path" d="M229.744,187.369l-56.907,0.506l-42.198,58.097c50.965,11.13 79.52,-16.066 99.105,-58.603Z" style="fill:#44b736;"/><path id="Path11" serif:id="Path" d="M230.205,188.218l-103.865,-0.201l49.215,-115.724l54.65,115.925Z" style="fill:#84ee57;"/><path id="Path12" serif:id="Path" d="M26.095,187.025l58.116,-2.484l45.967,61.02c-57.338,6.837 -92.614,-12 -104.083,-58.536Z" style="fill:#39962e;"/><path id="Path13" serif:id="Path" d="M26.095,188.218l100.765,-0.225l-50.692,-115.7l-50.073,115.925Z" style="fill:#7cdc51;"/></g></g></svg>