<?xml version="1.0" encoding="UTF-8" standalone="no"?><!DOCTYPE svg PUBLIC "-//W3C//DTD SVG 1.1//EN" "http://www.w3.org/Graphics/SVG/1.1/DTD/svg11.dtd"><svg width="100%" height="100%" viewBox="0 0 256 256" version="1.1" xmlns="http://www.w3.org/2000/svg" xmlns:xlink="http://www.w3.org/1999/xlink" xml:space="preserve" xmlns:serif="http://www.serif.com/" style="fill-rule:evenodd;clip-rule:evenodd;stroke-linejoin:round;stroke-miterlimit:2;"><g id="Gem-Triangle---Green" serif:id="Gem Triangle - Green"><path id="Path" d="M227.243,101.198c0.491,-10.271 -3.05,-20.327 -9.868,-28.025c-5.24,-5.917 -11.305,-12.765 -15.442,-17.436c-3.254,-3.674 -7.031,-6.849 -11.211,-9.423c-0.995,-0.613 -2.038,-1.256 -3.076,-1.895c-5.737,-3.533 -12.129,-5.87 -18.792,-6.871c-10.23,-1.537 -25.83,-3.88 -35.111,-5.274c-5.116,-0.769 -10.32,-0.739 -15.426,0.089c-8.527,1.382 -22.287,3.612 -31.568,5.116c-6.459,1.047 -12.649,3.351 -18.221,6.783c-1.471,0.906 -2.995,1.844 -4.447,2.739c-5.138,3.164 -9.66,7.231 -13.348,12.006c-4.522,5.854 -10.917,14.132 -15.764,20.405c-4.483,5.804 -6.937,12.919 -6.986,20.252c0,0.001 0,0.001 0,0.001c-0.047,7.114 2.202,14.053 6.414,19.787c13.681,18.626 46.071,62.722 68.428,93.159c5.471,7.45 14.134,11.885 23.377,11.969c9.242,0.084 17.984,-4.193 23.59,-11.541c22.931,-30.055 56.172,-73.626 70.239,-92.063c4.354,-5.708 6.87,-12.605 7.212,-19.776c0,-0.001 0,-0.001 0,-0.002Z" style="fill:none;stroke:#2e793d;stroke-width:17.33px;"/><path id="Path1" serif:id="Path" d="M227.243,101.198c0.491,-10.271 -3.05,-20.327 -9.868,-28.025c-5.24,-5.917 -11.305,-12.765 -15.442,-17.436c-3.254,-3.674 -7.031,-6.849 -11.211,-9.423c-0.995,-0.613 -2.038,-1.256 -3.076,-1.895c-5.737,-3.533 -12.129,-5.87 -18.792,-6.871c-10.23,-1.537 -25.83,-3.88 -35.111,-5.274c-5.116,-0.769 -10.32,-0.739 -15.426,0.089c-8.527,1.382 -22.287,3.612 -31.568,5.116c-6.459,1.047 -12.649,3.351 -18.221,6.783c-1.471,0.906 -2.995,1.844 -4.447,2.739c-5.138,3.164 -9.66,7.231 -13.348,12.006c-4.522,5.854 -10.917,14.132 -15.764,20.405c-4.483,5.804 -6.937,12.919 -6.986,20.252c0,0.001 0,0.001 0,0.001c-0.047,7.114 2.202,14.053 6.414,19.787c13.681,18.626 46.071,62.722 68.428,93.159c5.471,7.45 14.134,11.885 23.377,11.969c9.242,0.084 17.984,-4.193 23.59,-11.541c22.931,-30.055 56.172,-73.626 70.239,-92.063c4.354,-5.708 6.87,-12.605 7.212,-19.776c0,-0.001 0,-0.001 0,-0.002Z" style="fill:#c1ef71;"/><clipPath id="_clip1"><path d="M227.243,101.198c0.491,-10.271 -3.05,-20.327 -9.868,-28.025c-5.24,-5.917 -11.305,-12.765 -15.442,-17.436c-3.254,-3.674 -7.031,-6.849 -11.211,-9.423c-0.995,-0.613 -2.038,-1.256 -3.076,-1.895c-5.737,-3.533 -12.129,-5.87 -18.792,-6.871c-10.23,-1.537 -25.83,-3.88 -35.111,-5.274c-5.116,-0.769 -10.32,-0.739 -15.426,0.089c-8.527,1.382 -22.287,3.612 -31.568,5.116c-6.459,1.047 -12.649,3.351 -18.221,6.783c-1.471,0.906 -2.995,1.844 -4.447,2.739c-5.138,3.164 -9.66,7.231 -13.348,12.006c-4.522,5.854 -10.917,14.132 -15.764,20.405c-4.483,5.804 -6.937,12.919 -6.986,20.252c0,0.001 0,0.001 0,0.001c-0.047,7.114 2.202,14.053 6.414,19.787c13.681,18.626 46.071,62.722 68.428,93.159c5.471,7.45 14.134,11.885 23.377,11.969c9.242,0.084 17.984,-4.193 23.59,-11.541c22.931,-30.055 56.172,-73.626 70.239,-92.063c4.354,-5.708 6.87,-12.605 7.212,-19.776c0,-0.001 0,-0.001 0,-0.002Z"/></clipPath><g clip-path="url(#_clip1)"><path id="Path2" serif:id="Path" d="M197.026,50.196l-19.365,15.908l-0,-27.039c9.057,0.242 15.68,3.729 19.365,11.131Z" style="fill:#c1ef71;"/><path id="Path3" serif:id="Path" d="M76.966,39.065l1.291,25.442l-23.192,-12.771c6.45,-7.658 13.676,-12.179 21.901,-12.671Z" style="fill:#c1ef71;"/><path id="Path4" serif:id="Path" d="M128.605,31.114l49.056,34.99l-0,-27.039c-13.842,-4.804 -28.937,-8.534 -49.056,-7.951Z" style="fill:#e4ff9f;"/><path id="Path5" serif:id="Path" d="M76.966,39.065l1.291,25.442l47.766,-33.393c-18.065,-0.647 -34.252,2.321 -49.057,7.951Z" style="fill:#fff;"/><path id="Path6" serif:id="Path" d="M126.023,70.868l-0,-39.754l51.638,34.99l-51.638,4.764Z" style="fill:#c1ef71;"/><path id="Path7" serif:id="Path" d="M126.023,31.114l-47.766,33.393l47.766,6.235l-0,-39.628Z" style="fill:#e4ff9f;"/><path id="Path8" serif:id="Path" d="M197.026,50.196l-15.492,68.376l-3.873,-52.475l19.365,-15.901Z" style="fill:#e4ff9f;"/><path id="Path9" serif:id="Path" d="M197.026,50.196c15.575,7.782 23.875,21.343 30.074,36.573l-45.566,31.803l15.492,-68.376Z" style="fill:#c1ef71;"/><path id="Path10" serif:id="Path" d="M227.1,86.769l-45.566,31.803l-55.511,125.622c33.109,-39.613 66.164,-78.82 101.077,-131.983l0,-25.442Z" style="fill:#84ee57;"/><path id="Path11" serif:id="Path" d="M177.661,66.097l3.873,52.475l-56.802,-47.704l52.929,-4.771Z" style="fill:#84ee57;"/><path id="Path12" serif:id="Path" d="M78.257,64.507l-6.479,50.933l54.245,-44.698l-47.766,-6.235Z" style="fill:#84ee57;"/><path id="Path13" serif:id="Path" d="M126.023,126.523l-54.22,-11.132l54.22,-44.649l-0,55.781Z" style="fill:#44b736;"/><path id="Path14" serif:id="Path" d="M126.023,126.523l55.511,-7.951l-55.511,-47.83l-0,55.781Z" style="fill:#82de51;"/><path id="Path15" serif:id="Path" d="M126.023,126.523l-0,117.671l55.511,-125.622l-55.511,7.951Z" style="fill:#44b736;"/><path id="Path16" serif:id="Path" d="M126.531,245.558l-54.728,-130.167l54.22,11.132l0.508,119.035Z" style="fill:#39962e;"/><path id="Path17" serif:id="Path" d="M26.62,86.769l45.183,28.622l54.22,128.803c-34.067,-41.953 -69.138,-81.138 -99.403,-133.573l-0,-23.852Z" style="fill:#44b736;"/><path id="Path18" serif:id="Path" d="M56.311,51.786c-6.609,3.238 -17.477,17.513 -29.886,35.783l45.378,27.822l-15.492,-63.605Z" style="fill:#39962e;"/><path id="Path19" serif:id="Path" d="M71.803,115.391l6.454,-50.884l-23.464,-13.423l17.01,64.307Z" style="fill:#44b736;"/></g></g></svg>