<?xml version="1.0" encoding="UTF-8" standalone="no"?><!DOCTYPE svg PUBLIC "-//W3C//DTD SVG 1.1//EN" "http://www.w3.org/Graphics/SVG/1.1/DTD/svg11.dtd"><svg width="100%" height="100%" viewBox="0 0 256 256" version="1.1" xmlns="http://www.w3.org/2000/svg" xmlns:xlink="http://www.w3.org/1999/xlink" xml:space="preserve" xmlns:serif="http://www.serif.com/" style="fill-rule:evenodd;clip-rule:evenodd;stroke-linejoin:round;stroke-miterlimit:2;"><g id="Gem---Pink" serif:id="Gem - Pink"><path id="Path" d="M212.121,55.164c14.581,9.145 23.434,25.146 23.434,42.358c-0,19.184 -0,44.672 -0,64.07c-0,17.753 -9.413,34.174 -24.732,43.145c-16.806,9.843 -38.948,22.812 -55.752,32.653c-15.311,8.967 -34.229,9.148 -49.709,0.474c-17.743,-9.942 -41.488,-23.246 -59.357,-33.259c-15.785,-8.844 -25.56,-25.526 -25.56,-43.619l0,-62.738c0,-17.622 9.276,-33.942 24.416,-42.959c17.679,-10.529 41.548,-24.744 59.638,-35.517c16.119,-9.6 36.256,-9.368 52.151,0.6c16.982,10.652 39.008,24.466 55.471,34.792Z" style="fill:none;stroke:#b53e68;stroke-width:17.33px;"/><path id="Path1" serif:id="Path" d="M212.121,55.164c14.581,9.145 23.434,25.146 23.434,42.358c-0,19.184 -0,44.672 -0,64.07c-0,17.753 -9.413,34.174 -24.732,43.145c-16.806,9.843 -38.948,22.812 -55.752,32.653c-15.311,8.967 -34.229,9.148 -49.709,0.474c-17.743,-9.942 -41.488,-23.246 -59.357,-33.259c-15.785,-8.844 -25.56,-25.526 -25.56,-43.619l0,-62.738c0,-17.622 9.276,-33.942 24.416,-42.959c17.679,-10.529 41.548,-24.744 59.638,-35.517c16.119,-9.6 36.256,-9.368 52.151,0.6c16.982,10.652 39.008,24.466 55.471,34.792Z" style="fill:#b43362;"/><clipPath id="_clip1"><path id="Path2" serif:id="Path" d="M212.121,55.164c14.581,9.145 23.434,25.146 23.434,42.358c-0,19.184 -0,44.672 -0,64.07c-0,17.753 -9.413,34.174 -24.732,43.145c-16.806,9.843 -38.948,22.812 -55.752,32.653c-15.311,8.967 -34.229,9.148 -49.709,0.474c-17.743,-9.942 -41.488,-23.246 -59.357,-33.259c-15.785,-8.844 -25.56,-25.526 -25.56,-43.619l0,-62.738c0,-17.622 9.276,-33.942 24.416,-42.959c17.679,-10.529 41.548,-24.744 59.638,-35.517c16.119,-9.6 36.256,-9.368 52.151,0.6c16.982,10.652 39.008,24.466 55.471,34.792Z"/></clipPath><g clip-path="url(#_clip1)"><path id="Path3" serif:id="Path" d="M130.639,244.296l-50.154,-65.617l103.417,1.437l-53.263,64.18Z" style="fill:#ff92cd;"/><path id="Path4" serif:id="Path" d="M130.301,12.731c70.789,-14.345 87.343,20.607 99.25,59.783l-54.715,-0.045l-44.535,-59.738Z" style="fill:#ffc0e8;"/><path id="Path5" serif:id="Path" d="M26.358,72.114l48.169,2.834l55.775,-62.218c-75.368,-11.421 -86.287,26.564 -103.944,59.384Z" style="fill:#ffc0e8;"/><path id="Path6" serif:id="Path" d="M130.302,12.73l-54.455,59.604c32.843,11.862 66.277,10.591 100.132,-0l-45.677,-59.604Z" style="fill:#ffe5fc;"/><path id="Path7" serif:id="Path" d="M229.585,72.179c32.099,45.975 21.819,81.907 -0.127,115.074l-53.451,-114.859l53.578,-0.215Z" style="fill:#ffe5fc;"/><path id="Path8" serif:id="Path" d="M126.415,188.244l-53.201,-115.91l102.765,-0l-49.564,115.91Z" style="fill:#fff;"/><path id="Path9" serif:id="Path" d="M26.523,187.649l49.342,-115.356l-49.487,0.11c-44.266,44.232 -29.557,80.723 0.145,115.246Z" style="fill:#ff4790;"/><path id="Path10" serif:id="Path" d="M229.744,187.369l-56.907,0.506l-43.566,58.214c58.859,16.225 88.382,-10.184 100.473,-58.72Z" style="fill:#ff6eae;"/><path id="Path11" serif:id="Path" d="M230.832,188.702l-104.492,-0.685l49.657,-115.724l54.835,116.409Z" style="fill:#ffa9cd;"/><path id="Path12" serif:id="Path" d="M26.095,187.025l59.925,-4.149l45.743,62.802c-52.42,7.597 -97.463,1.371 -105.668,-58.653Z" style="fill:#ff4790;"/><path id="Path13" serif:id="Path" d="M26.095,187.253l100.765,0.74l-51.013,-115.659l-49.752,114.919Z" style="fill:#ff7dbb;"/></g></g></svg>