<?xml version="1.0" encoding="UTF-8" standalone="no"?><!DOCTYPE svg PUBLIC "-//W3C//DTD SVG 1.1//EN" "http://www.w3.org/Graphics/SVG/1.1/DTD/svg11.dtd"><svg width="100%" height="100%" viewBox="0 0 256 256" version="1.1" xmlns="http://www.w3.org/2000/svg" xmlns:xlink="http://www.w3.org/1999/xlink" xml:space="preserve" xmlns:serif="http://www.serif.com/" style="fill-rule:evenodd;clip-rule:evenodd;stroke-linejoin:round;stroke-miterlimit:2;"><g id="Ghost-Head" serif:id="Ghost Head"><g><path id="Ellipse" d="M10.493,129.863c-0,-62.596 46.296,-117.948 110.464,-117.948c64.169,-0 124.154,60.22 124.548,126.995c0.44,74.627 -59.059,105.175 -123.227,105.175c-64.169,0 -111.785,-51.625 -111.785,-114.222Z" style="fill:none;stroke:#6c747d;stroke-width:17.33px;"/><path id="Ellipse1" serif:id="Ellipse" d="M10.493,129.863c-0,-62.596 46.296,-117.948 110.464,-117.948c64.169,-0 124.154,60.22 124.548,126.995c0.44,74.627 -59.059,105.175 -123.227,105.175c-64.169,0 -111.785,-51.625 -111.785,-114.222Z" style="fill:url(#_Linear1);"/><path id="Ellipse2" serif:id="Ellipse" d="M16.376,125.839c-0,-52.708 40.487,-98.78 103.333,-99.317c60.024,-0.512 116.138,50.708 116.507,106.935c0.412,62.838 -49.868,93.741 -115.272,88.561c-59.84,-4.739 -104.568,-43.47 -104.568,-96.179Z" style="fill:url(#_Linear2);"/><path d="M187.927,40.975c11.956,8.857 22.798,23.781 18.738,29.26c-4.059,5.479 -21.493,-0.548 -33.449,-9.406c-11.955,-8.858 -13.933,-17.214 -9.874,-22.693c4.06,-5.479 12.63,-6.019 24.585,2.839Z" style="fill:#fff;"/><path d="M68.752,201.208c2.918,1.625 4.433,4.476 3.382,6.363c-1.051,1.887 -4.273,2.1 -7.19,0.474c-2.918,-1.625 -4.434,-4.476 -3.383,-6.363c1.052,-1.887 4.274,-2.1 7.191,-0.474Z" style="fill:#fff;"/></g><path d="M92.325,88.814c19.597,5.251 30.597,27.843 24.548,50.419c-6.049,22.577 -26.871,36.642 -46.469,31.391c-19.598,-5.251 -30.598,-27.844 -24.549,-50.42c6.05,-22.576 26.872,-36.641 46.47,-31.39Z" style="fill:#343a40;"/><path d="M161.422,88.814c-19.598,5.251 -30.597,27.843 -24.548,50.419c6.049,22.577 26.871,36.642 46.469,31.391c19.598,-5.251 30.598,-27.844 24.548,-50.42c-6.049,-22.576 -26.871,-36.641 -46.469,-31.39Z" style="fill:#343a40;"/><circle cx="126.297" cy="189.885" r="13.009" style="fill:#343a40;"/></g><defs><linearGradient id="_Linear1" x1="0" y1="0" x2="1" y2="0" gradientUnits="userSpaceOnUse" gradientTransform="matrix(-134.771,187.259,-187.259,-134.771,190.382,36.8938)"><stop offset="0" style="stop-color:#e3e7eb;stop-opacity:1"/><stop offset="1" style="stop-color:#a7b7c7;stop-opacity:1"/></linearGradient><linearGradient id="_Linear2" x1="0" y1="0" x2="1" y2="0" gradientUnits="userSpaceOnUse" gradientTransform="matrix(-113.916,163.13,-163.13,-113.916,178.375,41.4305)"><stop offset="0" style="stop-color:#eef3f8;stop-opacity:1"/><stop offset="1" style="stop-color:#cbd2d9;stop-opacity:1"/></linearGradient></defs></svg>