<?xml version="1.0" encoding="UTF-8" standalone="no"?><!DOCTYPE svg PUBLIC "-//W3C//DTD SVG 1.1//EN" "http://www.w3.org/Graphics/SVG/1.1/DTD/svg11.dtd"><svg width="100%" height="100%" viewBox="0 0 256 256" version="1.1" xmlns="http://www.w3.org/2000/svg" xmlns:xlink="http://www.w3.org/1999/xlink" xml:space="preserve" xmlns:serif="http://www.serif.com/" style="fill-rule:evenodd;clip-rule:evenodd;stroke-linecap:round;stroke-linejoin:round;stroke-miterlimit:1.5;"><g id="Gift---White--Border-" serif:id="Gift - White (Border)"><g><path d="M107.692,59.91c0.579,-1.731 2.214,-2.98 4.139,-2.98l38.592,-0c1.924,-0 3.56,1.249 4.139,2.98l65.052,-0c9.922,-0 17.978,8.055 17.978,17.978l-0,35.955c-0,8.318 -5.661,15.324 -13.336,17.372l-0,75.067c-0,18.228 -14.799,33.026 -33.026,33.026l-36.444,-0l0,2.236c0,2.409 -1.955,4.364 -4.363,4.364l-38.592,-0c-2.408,-0 -4.364,-1.955 -4.364,-4.364l0,-2.236l-42.697,-0c-18.227,-0 -33.026,-14.798 -33.026,-33.026l0,-75.067c-7.675,-2.048 -13.336,-9.054 -13.336,-17.372l0,-35.955c0,-9.923 8.056,-17.978 17.978,-17.978l71.306,-0Z" style="fill:none;stroke:#917e8a;stroke-width:17.33px;"/><path d="M128,42.284l-21.181,-21.181c-12.309,-12.309 -31.056,-14.298 -45.447,-5.965l-0.044,0.024l-0.107,0.063l-0.122,0.072l-0.052,0.031c-2.674,1.577 -5.193,3.513 -7.489,5.809c-14.682,14.682 -14.682,38.521 0,53.203c0,0 45.128,45.129 45.128,45.129c8.031,8.031 18.802,11.669 29.314,10.914c10.512,0.755 21.283,-2.883 29.314,-10.914c-0,-0 45.128,-45.129 45.128,-45.129c14.682,-14.682 14.682,-38.521 -0,-53.203c-2.296,-2.296 -4.815,-4.232 -7.489,-5.809l-0.052,-0.031l-0.122,-0.072l-0.107,-0.063l-0.044,-0.024c-14.391,-8.333 -33.138,-6.344 -45.447,5.965l-21.181,21.181Zm59.865,-6.608c-5.644,1.4 -10.991,4.304 -15.399,8.713l-21.181,21.18l0.663,0.663c2.068,2.068 3.846,4.319 5.331,6.7l21.878,-21.877c4.403,-4.404 7.306,-9.743 8.708,-15.379Zm-119.73,-0c1.402,5.636 4.305,10.975 8.708,15.379l21.878,21.877c1.485,-2.381 3.263,-4.632 5.331,-6.7l0.663,-0.663l-21.181,-21.18c-4.408,-4.409 -9.755,-7.313 -15.399,-8.713Z" style="fill:none;stroke:#b73386;stroke-width:17.33px;"/></g><g><path d="M224.256,107.205l-192.512,-0l0,99.077c0,18.228 14.799,33.026 33.026,33.026l126.46,-0c18.227,-0 33.026,-14.798 33.026,-33.026l-0,-99.077Z" style="fill:#efebee;"/><rect x="31.744" y="113.145" width="192.511" height="36.58" style="fill:#dcd5d5;"/></g><g><g><path d="M45.164,34.033c-0.324,0.833 -0.125,1.779 0.507,2.412c0.633,0.632 1.579,0.831 2.412,0.506c11.869,-4.618 25.874,-2.139 35.451,7.438c0,-0 45.128,45.128 45.128,45.128c9.577,9.577 12.056,23.582 7.438,35.451c-0.324,0.833 -0.126,1.78 0.507,2.412c0.632,0.632 1.578,0.831 2.411,0.507c4.712,-1.833 9.128,-4.65 12.93,-8.452c14.682,-14.682 14.682,-38.521 -0,-53.203c-0,-0 -45.129,-45.129 -45.129,-45.129c-14.682,-14.681 -38.521,-14.681 -53.203,0c-3.802,3.802 -6.619,8.218 -8.452,12.93Z" style="fill:#dd4ba7;"/><path d="M69.406,15.604c0.324,-0.833 0.125,-1.779 -0.507,-2.412c-0.632,-0.632 -1.578,-0.831 -2.411,-0.507c-4.712,1.833 -9.128,4.65 -12.93,8.452c-14.682,14.682 -14.682,38.521 0,53.203c0,0 45.128,45.129 45.128,45.129c14.682,14.682 38.522,14.682 53.204,-0c3.802,-3.802 6.618,-8.218 8.451,-12.93c0.325,-0.833 0.126,-1.779 -0.507,-2.411c-0.632,-0.633 -1.578,-0.831 -2.411,-0.507c-11.87,4.618 -25.874,2.139 -35.451,-7.438c-0,0 -45.129,-45.128 -45.129,-45.128c-9.577,-9.577 -12.056,-23.582 -7.437,-35.451Z" style="fill:#f47fc9;"/></g><g><path d="M207.917,36.951c0.833,0.325 1.779,0.126 2.412,-0.506c0.632,-0.633 0.831,-1.579 0.507,-2.412c-1.833,-4.712 -4.65,-9.128 -8.452,-12.93c-14.682,-14.681 -38.521,-14.681 -53.203,0c-0,0 -45.129,45.129 -45.129,45.129c-14.682,14.682 -14.682,38.521 0,53.203c3.802,3.802 8.218,6.619 12.93,8.452c0.833,0.324 1.779,0.125 2.411,-0.507c0.633,-0.632 0.831,-1.579 0.507,-2.412c-4.618,-11.869 -2.139,-25.874 7.438,-35.451c-0,0 45.128,-45.128 45.128,-45.128c9.577,-9.577 23.582,-12.056 35.451,-7.438Z" style="fill:#dd4ba7;"/><path d="M189.512,12.685c-0.833,-0.324 -1.779,-0.125 -2.411,0.507c-0.632,0.633 -0.831,1.579 -0.507,2.412c4.619,11.869 2.14,25.874 -7.437,35.451c-0,0 -45.129,45.128 -45.129,45.128c-9.577,9.577 -23.581,12.056 -35.451,7.438c-0.833,-0.324 -1.779,-0.126 -2.411,0.507c-0.633,0.632 -0.832,1.578 -0.507,2.411c1.833,4.712 4.649,9.128 8.451,12.93c14.682,14.682 38.522,14.682 53.204,-0c-0,-0 45.128,-45.129 45.128,-45.129c14.682,-14.682 14.682,-38.521 -0,-53.203c-3.802,-3.802 -8.218,-6.619 -12.93,-8.452Z" style="fill:#f47fc9;"/></g></g><g><path d="M237.592,113.843c-0,9.923 -8.056,17.978 -17.978,17.978l-183.228,0c-9.922,0 -17.978,-8.055 -17.978,-17.978l0,-35.955c0,-9.923 8.056,-17.978 17.978,-17.978l183.228,-0c9.922,-0 17.978,8.055 17.978,17.978l-0,35.955Z" style="fill:#efebee;"/><path d="M231.086,90.333c0,7.104 -5.767,12.871 -12.871,12.871l-43.613,0l0,-38.311l43.613,-0c7.104,-0 12.871,5.767 12.871,12.871l0,12.569Z" style="fill:#fff;"/><path d="M217.099,207.936c-0,13.288 -10.788,24.076 -24.076,24.076l-4.433,-0l-0,-76.336l28.509,0l-0,52.26Z" style="fill:#fff;"/><path d="M45.437,90.333c0,7.104 5.768,12.871 12.872,12.871l29.342,0l0,-38.311l-29.342,-0c-7.104,-0 -12.872,5.767 -12.872,12.871l0,12.569Z" style="fill:#fff;"/><rect x="98.781" y="131.58" width="64.691" height="107.728" style="fill:#dcd5d5;"/><rect x="98.781" y="131.58" width="64.691" height="18.145" style="fill:#c5baba;"/><rect x="98.781" y="59.962" width="64.691" height="71.768" style="fill:#dcd5d5;"/><path d="M154.786,61.294c0,-2.409 -1.955,-4.364 -4.363,-4.364l-38.592,-0c-2.408,-0 -4.364,1.955 -4.364,4.364l0,180.25c0,2.409 1.956,4.364 4.364,4.364l38.592,-0c2.408,-0 4.363,-1.955 4.363,-4.364l0,-180.25Z" style="fill:#f47fc9;"/><ellipse cx="131.127" cy="57.749" rx="21.107" ry="2.662" style="fill:#ff9de2;"/><path d="M199.969,26.664c2.845,-0.763 6.204,2.533 7.495,7.355c1.292,4.821 0.032,9.354 -2.813,10.117c-2.845,0.762 -6.203,-2.534 -7.495,-7.355c-1.292,-4.822 -0.031,-9.355 2.813,-10.117Z" style="fill:#fff;"/><rect x="107.467" y="132.032" width="47.319" height="17.693" style="fill:#e649a7;"/><path d="M102.758,60.412l-0,180.111c-0,1.84 1.493,3.334 3.333,3.334c1.84,-0 3.333,-1.494 3.333,-3.334l0,-180.111c0,-1.84 -1.493,-3.334 -3.333,-3.334c-1.84,0 -3.333,1.494 -3.333,3.334Z" style="fill:#b73386;"/><path d="M152.829,60.412l0,180.111c0,1.84 1.494,3.334 3.334,3.334c1.839,-0 3.333,-1.494 3.333,-3.334l-0,-180.111c-0,-1.84 -1.494,-3.334 -3.333,-3.334c-1.84,0 -3.334,1.494 -3.334,3.334Z" style="fill:#b73386;"/></g></g></svg>