<?xml version="1.0" encoding="UTF-8" standalone="no"?><!DOCTYPE svg PUBLIC "-//W3C//DTD SVG 1.1//EN" "http://www.w3.org/Graphics/SVG/1.1/DTD/svg11.dtd"><svg width="100%" height="100%" viewBox="0 0 256 256" version="1.1" xmlns="http://www.w3.org/2000/svg" xmlns:xlink="http://www.w3.org/1999/xlink" xml:space="preserve" xmlns:serif="http://www.serif.com/" style="fill-rule:evenodd;clip-rule:evenodd;stroke-linejoin:round;stroke-miterlimit:2;"><g id="Gift"><path id="Path" d="M13.817,90.617c-0.319,-1.587 107.625,-61.937 111.969,-61.397c4.345,0.539 116.659,44.676 116.116,48.452c-0.543,3.775 -104.81,66.343 -109.155,66.343c-4.344,-0 -117.844,-48.004 -118.93,-53.398Z" style="fill:#fff;"/><path id="Path1" serif:id="Path" d="M46.401,210.358c-0,-0 -24.729,-80.211 -20.927,-78.593c3.801,1.618 107.273,41.376 108.902,44.612c1.629,3.237 1.629,71.198 0,74.434c-1.629,3.236 -85.26,-37.756 -87.975,-40.453Z" style="fill:#ededed;"/><path id="Path2" serif:id="Path" d="M228.869,122.979c-1.629,3.776 -13.576,86.84 -16.292,88.997c-2.715,2.157 -75.485,40.993 -78.201,38.835c-2.715,-2.157 -1.629,-80.906 1.629,-80.906c3.259,-0 94.493,-50.701 92.864,-46.926Z" style="fill:#ccc;"/><path id="Path3" serif:id="Path" d="M13.817,90.617c-0.543,2.697 4.888,38.295 8.146,42.071c3.258,3.776 107.526,44.768 110.784,45.308c3.258,0.539 4.122,-27.758 1.389,-34.765c-2.715,-1.618 -119.776,-55.311 -120.319,-52.614Z" style="fill:#ededed;"/><path id="Path4" serif:id="Path" d="M134.376,177.996c0,-0 -0.643,-16.108 0,-34.745c0.109,-3.15 106.608,-69.008 107.694,-65.232c1.086,3.775 -3.969,37.948 -6.684,41.724c-2.716,3.775 -98.294,56.634 -101.01,58.253Z" style="fill:#ccc;"/><path id="Path5" serif:id="Path" d="M197.322,57.077l-105.304,67.52l-36.527,-16.181l105.248,-65.902l36.583,14.563Z" style="fill:#eb89bb;"/><path id="Path6" serif:id="Path" d="M55.584,66.786l112.39,55.641l34.828,-18.865l-114.783,-53.104l-32.435,16.328Z" style="fill:#fa8ac9;"/><path id="Path7" serif:id="Path" d="M55.404,108.416l15.435,114.934l26.066,13.469l-4.887,-112.222l-36.614,-16.181Z" style="fill:#d26fad;"/><path id="Path8" serif:id="Path" d="M166.96,122.979l-0,114.887l26.067,-14.563l9.775,-121.359l-35.842,21.035Z" style="fill:#9a5085;"/><path id="Path9" serif:id="Path" d="M128.3,216.097c1.59,0.351 2.003,27.534 -0.44,28.242c-2.444,0.707 -20.675,-6.845 -20.573,-9.98c0.101,-3.135 15.514,-19.475 21.013,-18.262Z" style="fill:#fff;fill-opacity:0.41;"/><path id="Path10" serif:id="Path" d="M127.86,148.869c1.289,0.99 -0,22.654 -0,22.654c-0,0 -15.17,-3.71 -13.744,-6.036c1.426,-2.326 11.504,-18.337 13.744,-16.618Z" style="fill:#fcfffe;"/><path id="Path11" serif:id="Path" d="M35.513,90.046c-0,-0 0.296,11.214 28.214,18.196c8.336,2.085 56.449,-15.276 56.449,-15.276c0,-0 7.832,1.862 11.176,1.862c3.344,-0 9.313,-1.862 9.313,-1.862c0,-0 46.523,25.559 67.054,9.31c20.531,-16.25 -55.878,-39.102 -55.878,-39.102l-57.741,5.586l-58.587,21.286Z" style="fill:#a65787;"/><path id="Path12" serif:id="Path" d="M121.821,51.814c0,0 -51.314,-60.636 -84.841,-43.879c-33.527,16.758 -9.933,45.929 -9.933,45.929c-0,0 -5.588,34.757 13.658,47.17c19.247,12.413 77.609,-15.516 77.609,-15.516l3.507,-33.704Z" style="fill:#eb89bb;"/><path id="Path13" serif:id="Path" d="M120.022,54.339c0,-0 -44.005,-57.521 -80.099,-44.452c-20.194,7.312 -6.149,35.482 -6.149,35.482c0,0 -5.33,6.173 -4.461,24.294c1.628,33.924 40.349,26.412 40.349,26.412l48.509,-24.85l1.851,-16.886Z" style="fill:#fda7ce;"/><path id="Path14" serif:id="Path" d="M117.322,53.443c-0,0 -18.662,-14.105 -25.393,-5.508c-7.546,9.64 24.588,30.701 24.588,30.701l0.805,-25.193Z" style="fill:#d26fad;"/><path id="Path15" serif:id="Path" d="M117.806,80.602c-0,0 -49.224,-30.933 -78.004,-12.519c-11.273,14.236 9.751,49.074 78.385,19.593c2.774,-1.192 0.155,-6.538 -0.381,-7.074Z" style="fill:#d26fad;"/><path id="Path16" serif:id="Path" d="M66.161,63.174c-0,0 40.215,12.738 42.84,18.62c2.624,5.882 -7.874,14.134 -7.874,14.134l19.812,-7.702c-0,0 3.767,-17.096 -54.778,-25.052Z" style="fill:#a65787;"/><path id="Path17" serif:id="Path" d="M139.625,53.211c-0,-0 51.031,-62.033 84.558,-45.276c33.527,16.758 9.934,45.929 9.934,45.929c-0,0 5.588,34.757 -13.659,47.17c-19.247,12.413 -77.609,-15.516 -77.609,-15.516l-3.224,-32.307Z" style="fill:#eb89bb;"/><path id="Path18" serif:id="Path" d="M139.229,55.714c0,-0 50.559,-61.298 84.274,-42.995c23.846,12.947 2.612,35.483 2.612,35.483c0,-0 5.33,6.172 4.461,24.293c-1.628,33.924 -40.348,26.412 -40.348,26.412l-48.113,-22.784l-2.886,-20.409Z" style="fill:#fda7ce;"/><path id="Path19" serif:id="Path" d="M142.271,53.256c-0,0 18.661,-14.105 25.392,-5.508c7.547,9.64 -24.588,30.701 -24.588,30.701l-0.804,-25.193Z" style="fill:#d26fad;"/><path id="Path20" serif:id="Path" d="M143.358,80.602c-0,0 49.223,-30.933 78.003,-12.519c11.273,14.236 -7.575,49.624 -76.209,20.143c-2.774,-1.192 -2.331,-7.088 -1.794,-7.624Z" style="fill:#d26fad;"/><path id="Path21" serif:id="Path" d="M193.629,63.174c-0,0 -40.215,12.738 -42.84,18.62c-2.625,5.882 7.874,14.134 7.874,14.134l-19.812,-7.702c0,0 -3.767,-17.096 54.778,-25.052Z" style="fill:#a65787;"/><path id="Ellipse" d="M110.863,66.071c0,-10.798 8.756,-19.551 19.558,-19.551c10.801,0 19.405,9.135 19.405,19.933c0,10.798 -3.175,18.02 -19.503,17.57c-17.23,-0.476 -19.46,-7.154 -19.46,-17.952Z" style="fill:#d26fad;"/><path id="Ellipse1" serif:id="Ellipse" d="M119.437,61.047c-0,-7.198 3.686,-12.665 11.915,-12.665c8.23,0 14.846,5.917 14.846,13.116c-0,7.198 -8.1,9.009 -16.329,9.009c-8.23,0 -10.432,-2.262 -10.432,-9.46Z" style="fill:#f5b7d7;"/><path id="Ellipse2" serif:id="Ellipse" d="M122.039,55.83c0,-2.057 2.085,-3.724 4.656,-3.724c2.572,0 4.657,1.667 4.657,3.724c0,2.057 -2.085,3.724 -4.657,3.724c-2.571,0 -4.656,-1.667 -4.656,-3.724Z" style="fill:#fff;"/><path id="Ellipse3" serif:id="Ellipse" d="M38.535,21.558c0.977,-5.34 9.289,-8.882 18.567,-7.911c9.277,0.971 16.006,6.087 15.03,11.428c-0.977,5.34 -9.289,8.882 -18.567,7.911c-9.278,-0.971 -16.007,-6.087 -15.03,-11.428Z" style="fill:#fff;"/><path id="Ellipse4" serif:id="Ellipse" d="M225.119,19.947c-0.977,-5.34 -9.289,-8.882 -18.567,-7.912c-9.278,0.971 -16.007,6.088 -15.03,11.428c0.976,5.341 9.289,8.883 18.567,7.912c9.277,-0.971 16.006,-6.088 15.03,-11.428Z" style="fill:#fff;"/><path id="Path22" serif:id="Path" d="M227.24,126.215l-1.63,12.946l-91.234,50.161l-106.42,-43.689l-2.735,-9.709l107.526,42.072l94.493,-51.781Z" style="fill-opacity:0.15;"/></g></svg>