<?xml version="1.0" encoding="UTF-8" standalone="no"?><!DOCTYPE svg PUBLIC "-//W3C//DTD SVG 1.1//EN" "http://www.w3.org/Graphics/SVG/1.1/DTD/svg11.dtd"><svg width="100%" height="100%" viewBox="0 0 256 256" version="1.1" xmlns="http://www.w3.org/2000/svg" xmlns:xlink="http://www.w3.org/1999/xlink" xml:space="preserve" xmlns:serif="http://www.serif.com/" style="fill-rule:evenodd;clip-rule:evenodd;stroke-linecap:round;stroke-linejoin:round;stroke-miterlimit:1.5;"><g id="Girl"><path d="M127.352,20.734c64.106,0 88.824,42.723 88.824,95.344c-59.216,-27.226 -118.432,-26.389 -177.648,0c0,-52.621 24.718,-95.344 88.824,-95.344Z" style="fill:none;stroke:#af5b00;stroke-width:8.92px;"/><path d="M41.494,134.91c-3.443,20.879 -10.824,38.65 -21.791,53.593c25.964,5.291 40.796,-12.33 40.796,-12.33c-0,-0 -3.157,12.33 -7.296,28.494c19.216,0 36.344,-16.164 36.344,-16.164l13.074,19.733l12.984,-73.326l-74.111,0Z" style="fill:none;stroke:#af5b00;stroke-width:8.92px;"/><path d="M216.67,134.91c3.444,20.879 10.825,38.65 21.792,53.593c-25.965,5.291 -40.796,-12.33 -40.796,-12.33c-0,-0 3.157,12.33 7.296,28.494c-19.217,0 -36.344,-16.164 -36.344,-16.164l-13.075,19.733l-12.984,-73.326l74.111,0Z" style="fill:none;stroke:#af5b00;stroke-width:8.92px;"/><path d="M41.494,134.91c-3.443,20.879 -10.824,38.65 -21.791,53.593c25.964,5.291 40.796,-12.33 40.796,-12.33c-0,-0 -3.157,12.33 -7.296,28.494c19.216,0 36.344,-16.164 36.344,-16.164l13.074,19.733l12.984,-73.326l-74.111,0Z" style="fill:#f59f00;"/><path d="M216.67,134.91c3.444,20.879 10.825,38.65 21.792,53.593c-25.965,5.291 -40.796,-12.33 -40.796,-12.33c-0,-0 3.157,12.33 7.296,28.494c-19.217,0 -36.344,-16.164 -36.344,-16.164l-13.075,19.733l-12.984,-73.326l74.111,0Z" style="fill:#f59f00;"/><circle cx="56.352" cy="128.921" r="21.902" style="fill:none;stroke:#994130;stroke-width:8.92px;"/><circle cx="198.353" cy="128.921" r="21.902" style="fill:none;stroke:#994130;stroke-width:8.92px;"/><g><path d="M176.117,216.354c-0,-27.08 -21.986,-49.066 -49.067,-49.066c-27.08,-0 -49.066,21.986 -49.066,49.066l-0,20.652c-0,3.173 1.26,6.216 3.504,8.459c2.243,2.243 5.286,3.504 8.458,3.504c18.871,-0 55.338,-0 74.208,-0c3.173,-0 6.215,-1.261 8.459,-3.504c2.243,-2.243 3.504,-5.286 3.504,-8.459c-0,-9.307 -0,-20.652 -0,-20.652Z" style="fill:#ff6b6b;"/><clipPath id="_clip1"><path d="M176.117,216.354c-0,-27.08 -21.986,-49.066 -49.067,-49.066c-27.08,-0 -49.066,21.986 -49.066,49.066l-0,20.652c-0,3.173 1.26,6.216 3.504,8.459c2.243,2.243 5.286,3.504 8.458,3.504c18.871,-0 55.338,-0 74.208,-0c3.173,-0 6.215,-1.261 8.459,-3.504c2.243,-2.243 3.504,-5.286 3.504,-8.459c-0,-9.307 -0,-20.652 -0,-20.652Z"/></clipPath><g clip-path="url(#_clip1)"><path d="M135.971,172.088c-37.091,15.033 -28.307,29.065 -28.307,88.095l-33.122,-0c-1.758,-8.17 -46.912,-127.09 61.429,-88.095Z" style="fill:#fa5252;"/><path d="M119.589,172.088c37.09,15.033 28.307,29.065 28.307,88.095l33.121,-0c1.759,-8.17 46.912,-127.09 -61.428,-88.095Z" style="fill:#ff8787;"/></g><path d="M176.117,216.354c-0,-27.08 -21.986,-49.066 -49.067,-49.066c-27.08,-0 -49.066,21.986 -49.066,49.066l-0,20.652c-0,3.173 1.26,6.216 3.504,8.459c2.243,2.243 5.286,3.504 8.458,3.504c18.871,-0 55.338,-0 74.208,-0c3.173,-0 6.215,-1.261 8.459,-3.504c2.243,-2.243 3.504,-5.286 3.504,-8.459c-0,-9.307 -0,-20.652 -0,-20.652Z" style="fill:none;stroke:#c92a2a;stroke-width:5.04px;"/><circle cx="127.05" cy="196.3" r="3.969" style="fill:#ffe3e3;"/><circle cx="127.05" cy="209.623" r="3.969" style="fill:#ffe3e3;"/><path d="M167.911,222.583c0,-5.979 0,-13.265 0,-13.265c0,-6.931 -2.002,-13.397 -5.457,-18.853c-1.117,-1.762 -3.454,-2.287 -5.217,-1.171c-1.763,1.117 -2.288,3.454 -1.171,5.217c2.714,4.285 4.284,9.364 4.284,14.807c0,-0 0,7.286 0,13.265c0,2.086 1.694,3.78 3.781,3.78c2.086,0 3.78,-1.694 3.78,-3.78Z" style="fill:#ffa8a8;"/><path d="M116.995,161.023c8.057,2.159 12.628,11.265 10.202,20.321c-2.427,9.057 -10.939,14.657 -18.996,12.498c-8.057,-2.159 -12.628,-11.265 -10.201,-20.321c2.426,-9.057 10.938,-14.657 18.995,-12.498Z" style="fill:#c92a2a;"/><path d="M131.117,162.72c7.224,-4.17 16.895,-0.964 21.583,7.156c4.688,8.12 2.629,18.098 -4.595,22.269c-7.224,4.17 -16.895,0.964 -21.583,-7.156c-4.688,-8.12 -2.629,-18.098 4.595,-22.269Z" style="fill:#c92a2a;"/></g><g><path d="M127.352,61.142c39.036,-0 70.728,34.004 70.728,67.453c-0,33.448 -31.692,53.756 -70.728,53.756c-39.035,-0 -70.727,-20.308 -70.727,-53.756c-0,-33.449 31.692,-67.453 70.727,-67.453Z" style="fill:none;stroke:#994130;stroke-width:8.92px;"/><g><g><circle cx="56.352" cy="128.921" r="21.902" style="fill:#feb8a3;"/><circle cx="198.353" cy="128.921" r="21.902" style="fill:#feb8a3;"/><path d="M202.325,123.814c0,0 1.745,3.022 1.313,7.559c-0.222,2.333 -0.944,5.011 -2.676,7.89c-0.215,0.3 -0.147,0.718 0.153,0.934c0.3,0.216 0.719,0.147 0.935,-0.153c2.42,-2.843 3.668,-5.662 4.334,-8.18c1.493,-5.648 -0.213,-9.832 -0.213,-9.832c-0.492,-1.061 -1.753,-1.523 -2.814,-1.031c-1.061,0.491 -1.524,1.752 -1.032,2.813Z" style="fill:#b16d4d;"/><path d="M214.487,126.057c0.304,-2.309 -1.291,-4.955 -4.476,-6.403c-1.458,-0.662 -3.271,-0.976 -5.378,-0.821c-1.2,0.089 -2.505,0.359 -3.859,0.887c-1.098,0.428 -2.225,1.036 -3.374,1.818c-1.137,0.774 -2.287,1.697 -3.451,2.834c-1.414,1.382 -2.797,3.003 -4.243,4.953c-0.229,0.235 -0.224,0.612 0.011,0.841c0.235,0.229 0.612,0.225 0.841,-0.011c1.502,-1.166 2.921,-2.096 4.284,-2.95c1.58,-0.989 3.048,-1.732 4.427,-2.366c1.052,-0.484 2.046,-0.839 2.973,-1.166c1.055,-0.372 2.018,-0.674 2.928,-0.853c1.567,-0.309 2.911,-0.393 4.075,-0.131c0.983,0.221 1.828,0.514 2.481,1.017c0.875,0.674 1.488,1.465 1.637,2.365c0.004,0.31 0.259,0.559 0.569,0.555c0.31,-0.004 0.558,-0.259 0.555,-0.569Z" style="fill:#b16d4d;"/><path d="M48.534,122.032c-0,0 -1.707,4.184 -0.213,9.832c0.666,2.518 1.914,5.337 4.334,8.18c0.216,0.3 0.634,0.369 0.934,0.153c0.3,-0.216 0.369,-0.634 0.153,-0.934c-1.732,-2.879 -2.453,-5.557 -2.676,-7.89c-0.432,-4.537 1.313,-7.559 1.313,-7.559c0.492,-1.061 0.03,-2.322 -1.032,-2.813c-1.061,-0.492 -2.322,-0.03 -2.813,1.031Z" style="fill:#b16d4d;"/><path d="M41.342,126.071c0.149,-0.9 0.762,-1.691 1.637,-2.365c0.653,-0.503 1.497,-0.796 2.481,-1.017c1.164,-0.262 2.508,-0.178 4.074,0.131c0.91,0.179 1.874,0.481 2.929,0.853c0.927,0.327 1.921,0.682 2.973,1.166c1.378,0.634 2.847,1.377 4.427,2.366c1.363,0.854 2.782,1.784 4.283,2.95c0.229,0.236 0.606,0.24 0.842,0.011c0.235,-0.229 0.239,-0.606 0.01,-0.841c-1.445,-1.95 -2.829,-3.571 -4.243,-4.953c-1.163,-1.137 -2.313,-2.06 -3.45,-2.834c-1.149,-0.782 -2.276,-1.39 -3.375,-1.818c-1.353,-0.528 -2.658,-0.798 -3.859,-0.887c-2.106,-0.155 -3.92,0.159 -5.377,0.821c-3.185,1.448 -4.78,4.094 -4.476,6.403c-0.004,0.31 0.245,0.565 0.555,0.569c0.31,0.004 0.565,-0.245 0.569,-0.555Z" style="fill:#b16d4d;"/></g><path d="M127.352,61.142c39.036,-0 70.728,34.004 70.728,67.453c-0,33.448 -31.692,53.756 -70.728,53.756c-39.035,-0 -70.727,-20.308 -70.727,-53.756c-0,-33.449 31.692,-67.453 70.727,-67.453Z" style="fill:url(#_Radial2);"/><path d="M127.352,59.099l83.296,49.962c0,-0 -7.766,12.092 -14.414,9.739c-45.734,-16.186 -91.469,-15.8 -137.204,-0c-6.834,2.361 -17.477,-4.045 -17.477,-4.045l85.799,-55.656Z" style="fill:#ffb39f;"/><path d="M127.352,20.734c64.106,0 88.824,42.723 88.824,95.344c-59.216,-27.226 -118.432,-26.389 -177.648,0c0,-52.621 24.718,-95.344 88.824,-95.344Z" style="fill:#f59f00;"/><path d="M163.962,32.237c-22.755,13.533 -49.399,16.115 -74.505,1.185c-13.622,5.744 -25.421,18.613 -30.403,29.459c40.729,-9.602 90.985,-12.389 136.597,0c-6.251,-15.417 -20.206,-26.43 -31.689,-30.644Z" style="fill:#fcca31;"/><g><g><path d="M124.223,35.366l0,36.267c0,1.727 1.402,3.129 3.129,3.129c1.727,0 3.129,-1.402 3.129,-3.129l0,-36.267c0,-1.727 -1.402,-3.129 -3.129,-3.129c-1.727,0 -3.129,1.402 -3.129,3.129Z" style="fill:#f59f00;"/><path d="M105.94,33.097c-11.034,10.477 -19.673,23.01 -26.38,37.199c-0.738,1.561 -0.07,3.428 1.491,4.166c1.562,0.738 3.428,0.07 4.167,-1.491c6.369,-13.473 14.554,-25.387 25.031,-35.336c1.253,-1.189 1.304,-3.171 0.115,-4.424c-1.19,-1.252 -3.172,-1.303 -4.424,-0.114Z" style="fill:#f59f00;"/><path d="M144.455,37.635c10.477,9.949 18.663,21.863 25.032,35.336c0.738,1.561 2.605,2.229 4.166,1.491c1.562,-0.738 2.23,-2.605 1.492,-4.166c-6.708,-14.189 -15.347,-26.722 -26.38,-37.199c-1.253,-1.189 -3.235,-1.138 -4.424,0.114c-1.189,1.253 -1.138,3.235 0.114,4.424Z" style="fill:#f59f00;"/></g></g><path d="M57.257,132.202l-1.805,-29.672l14.447,-1.857l-12.642,31.529Z" style="fill:#211105;"/><g><path d="M91.969,130.04c3.745,-6.772 9.255,-6.772 13,-0" style="fill:none;stroke:#331f0f;stroke-width:5.58px;"/><path d="M149.589,130.04c3.745,-6.772 9.254,-6.772 12.999,-0" style="fill:none;stroke:#331f0f;stroke-width:5.58px;"/><g><path d="M152.768,99.903l14.449,6.985" style="fill:none;stroke:#994130;stroke-width:6.72px;"/><path d="M103.652,99.903l-14.449,6.985" style="fill:none;stroke:#994130;stroke-width:6.72px;"/></g></g><g><ellipse cx="85.176" cy="149.115" rx="13.404" ry="10.744" style="fill:#ff9a93;"/><ellipse cx="166.316" cy="149.828" rx="13.404" ry="10.744" style="fill:#ff9a93;"/></g><path d="M114.944,144.037c6.772,6.771 16.733,6.771 23.504,-0" style="fill:none;stroke:#ba3939;stroke-width:4.2px;"/><g><path d="M128.014,81.288l3.764,15.845l-7.529,-0l3.765,-15.845Z" style="fill:#ffb39f;"/><path d="M181.622,91.157l5.971,14.959l-7.529,-2.639l1.558,-12.32Z" style="fill:#ffb39f;"/><path d="M73.536,91.743l-5.528,13.787l7.529,-1.254l-2.001,-12.533Z" style="fill:#ffb39f;"/></g><g><path d="M57.257,132.202l-1.805,-29.672l14.447,-1.857l-12.642,31.529Z" style="fill:#f59f00;"/><path d="M198.056,132.202l1.804,-29.672l-14.447,-1.857l12.643,31.529Z" style="fill:#f59f00;"/></g></g></g></g><defs><radialGradient id="_Radial2" cx="0" cy="0" r="1" gradientUnits="userSpaceOnUse" gradientTransform="matrix(2.11329e-14,80.5016,-80.5016,4.46566e-15,127.352,101.849)"><stop offset="0" style="stop-color:#ffedd2;stop-opacity:1"/><stop offset="1" style="stop-color:#feb8a3;stop-opacity:1"/></radialGradient></defs></svg>