<?xml version="1.0" encoding="UTF-8" standalone="no"?><!DOCTYPE svg PUBLIC "-//W3C//DTD SVG 1.1//EN" "http://www.w3.org/Graphics/SVG/1.1/DTD/svg11.dtd"><svg width="100%" height="100%" viewBox="0 0 256 256" version="1.1" xmlns="http://www.w3.org/2000/svg" xmlns:xlink="http://www.w3.org/1999/xlink" xml:space="preserve" xmlns:serif="http://www.serif.com/" style="fill-rule:evenodd;clip-rule:evenodd;stroke-linecap:round;stroke-linejoin:round;stroke-miterlimit:1.5;"><g id="Hammer"><g><g><path d="M148,145.323c-14.348,-0.306 -27.182,-0.15 -39.798,0.072l-1.919,31.636c-0.053,28.322 46.716,25.349 43.537,0.082l-1.82,-31.79Z" style="fill:none;stroke:#763f33;stroke-width:8.67px;"/><path d="M149.82,177.031c0,16.52 -43.537,16.521 -43.537,-0c0,-0 -8.822,47.917 -5.795,58.091c5.485,18.434 49.626,18.434 55.111,-0c3.027,-10.174 -5.779,-58.091 -5.779,-58.091Z" style="fill:none;stroke:#a01d3a;stroke-width:8.91px;"/><path d="M128.054,7.053c12.099,-0 21.922,9.823 21.922,21.922c0,12.099 -43.843,12.099 -43.843,-0c-0,-12.099 9.822,-21.922 21.921,-21.922Z" style="fill:none;stroke:#b4722c;stroke-width:8.91px;"/><path d="M45.319,36.475c0.078,-4.771 2.076,-9.309 5.544,-12.586c3.467,-3.278 8.11,-5.018 12.878,-4.827c37.072,1.424 74.144,1.432 111.216,-0.389c5.014,-0.254 9.901,1.632 13.444,5.19c5.242,5.261 13.032,13.082 18.21,18.28c3.432,3.446 5.296,8.152 5.155,13.013c-0.657,23.354 -0.743,46.103 -0.283,68.271c0.11,4.829 -1.757,9.494 -5.168,12.913c-3.411,3.42 -8.071,5.298 -12.9,5.2c-37.178,-0.765 -74.356,-1.184 -111.535,0.108c-5.012,0.182 -9.866,-1.77 -13.358,-5.371c-5.512,-5.683 -13.928,-14.363 -19.299,-19.902c-3.274,-3.377 -5.071,-7.916 -4.994,-12.619c0.233,-14.409 0.758,-46.764 1.09,-67.281Z" style="fill:none;stroke:#868e96;stroke-width:8.91px;"/></g><g><g><path d="M148,145.323c-14.348,-0.306 -27.182,-0.15 -39.798,0.072l-1.919,31.636c-0.053,28.322 46.716,25.349 43.537,0.082l-1.82,-31.79Z" style="fill:#a85c4d;"/><path d="M146.637,146.591c-3.993,1.985 -8.557,3.073 -12.814,3.473c-3.421,0.328 -6.063,3.017 -6.186,6.295c-0.21,5.563 -0.516,13.724 -0.73,19.445c-0.074,1.965 0.779,3.857 2.324,5.158c1.546,1.3 3.62,1.871 5.654,1.556c3.705,-0.565 7.111,-1.874 9.541,-3.772c1.869,-1.473 2.934,-3.74 2.873,-6.119c-0.177,-7.074 -0.662,-26.036 -0.662,-26.036Z" style="fill:url(#_Linear1);"/><path d="M149.82,177.031c0,16.52 -43.537,16.521 -43.537,-0c0,-0 -8.822,47.917 -5.795,58.091c5.485,18.434 49.626,18.434 55.111,-0c3.027,-10.174 -5.779,-58.091 -5.779,-58.091Z" style="fill:#ca2549;"/><path d="M147.716,187.72c-0,-0 8.516,40.76 3.766,48.956c-2.122,3.663 -6.356,5.711 -10.33,6.856c-2.134,0.632 -4.442,0.219 -6.226,-1.113c-1.784,-1.332 -2.834,-3.428 -2.834,-5.654c-0.028,-9.901 -0.028,-26.402 -0.028,-35.986c0.001,-3.716 2.559,-6.943 6.176,-7.791c3.396,-0.816 6.866,-2.675 9.476,-5.268Z" style="fill:#e63866;"/><path d="M149.819,177.031c0.065,0.378 0.099,0.761 0.099,1.149c-0,6.652 -9.798,12.052 -21.867,12.052c-12.068,-0 -21.866,-5.4 -21.866,-12.052c-0,-0.388 0.033,-0.771 0.098,-1.149c1.052,5.048 10.403,10.495 21.768,10.495c11.365,-0 20.716,-5.447 21.768,-10.495Z" style="fill:#e16989;"/></g><path d="M45.319,36.475c0.078,-4.771 2.076,-9.309 5.544,-12.586c3.467,-3.278 8.11,-5.018 12.878,-4.827c37.072,1.424 74.144,1.432 111.216,-0.389c5.014,-0.254 9.901,1.632 13.444,5.19c5.242,5.261 13.032,13.082 18.21,18.28c3.432,3.446 5.296,8.152 5.155,13.013c-0.657,23.354 -0.743,46.103 -0.283,68.271c0.11,4.829 -1.757,9.494 -5.168,12.913c-3.411,3.42 -8.071,5.298 -12.9,5.2c-37.178,-0.765 -74.356,-1.184 -111.535,0.108c-5.012,0.182 -9.866,-1.77 -13.358,-5.371c-5.512,-5.683 -13.928,-14.363 -19.299,-19.902c-3.274,-3.377 -5.071,-7.916 -4.994,-12.619c0.233,-14.409 0.758,-46.764 1.09,-67.281Z" style="fill:url(#_Linear2);"/><clipPath id="_clip3"><path d="M45.319,36.475c0.078,-4.771 2.076,-9.309 5.544,-12.586c3.467,-3.278 8.11,-5.018 12.878,-4.827c37.072,1.424 74.144,1.432 111.216,-0.389c5.014,-0.254 9.901,1.632 13.444,5.19c5.242,5.261 13.032,13.082 18.21,18.28c3.432,3.446 5.296,8.152 5.155,13.013c-0.657,23.354 -0.743,46.103 -0.283,68.271c0.11,4.829 -1.757,9.494 -5.168,12.913c-3.411,3.42 -8.071,5.298 -12.9,5.2c-37.178,-0.765 -74.356,-1.184 -111.535,0.108c-5.012,0.182 -9.866,-1.77 -13.358,-5.371c-5.512,-5.683 -13.928,-14.363 -19.299,-19.902c-3.274,-3.377 -5.071,-7.916 -4.994,-12.619c0.233,-14.409 0.758,-46.764 1.09,-67.281Z"/></clipPath><g clip-path="url(#_clip3)"><path d="M211.999,64.057c-0,-3.745 -1.573,-7.326 -4.351,-9.903c-2.778,-2.577 -6.517,-3.925 -10.34,-3.726c-37.216,1.854 -74.432,1.895 -111.648,-0.123c-3.024,-0.171 -5.986,0.885 -8.189,2.919c-2.202,2.034 -3.451,4.866 -3.451,7.829c-0.002,18.389 -0.002,54.181 -0.002,71.311c0,2.541 1.032,4.979 2.87,6.776c1.837,1.798 4.329,2.807 6.927,2.807l128.184,0l-0,-77.89Z" style="fill:#bdc5cd;"/><path id="Path" d="M70.37,108.134l107.694,-3.853l-107.849,9.184l0.155,-5.331Z" style="fill:#d0d9e4;"/><path id="Path1" serif:id="Path" d="M70.565,104.281l107.499,0l-107.655,5.33l0.156,-5.33Z" style="fill:#a2aab2;"/><path id="Path2" serif:id="Path" d="M214.947,73.649l-61.573,5.641l61.75,0.257l-0.177,-5.898Z" style="fill:#d0d9e4;"/><path id="Path3" serif:id="Path" d="M214.543,70.122l-64.539,9.53l65.302,-3.95l-0.763,-5.58Z" style="fill:#a2aab2;"/><path id="Path4" serif:id="Path" d="M216.689,118.072l-30.547,4.279l30.032,-0l0.515,-4.279Z" style="fill:#d0d9e4;"/><path id="Path5" serif:id="Path" d="M143.009,67.938l-61.613,-0l30.806,3.402l30.807,-3.402Z" style="fill:#d0d9e4;"/><path id="Path6" serif:id="Path" d="M216.698,114.664l-30.556,7.687l30.233,-2.947l0.323,-4.74Z" style="fill:#a2aab2;"/><path id="Path7" serif:id="Path" d="M112.202,64.741l-30.806,3.197l61.613,-0l-30.807,-3.197Z" style="fill:#a2aab2;"/><path d="M200.421,38.881c1.193,1.133 1.587,2.873 1,4.411c-0.587,1.537 -2.041,2.571 -3.686,2.62c-39.027,1.158 -77.914,1.679 -116.679,1.645c-2.185,-0.002 -4.278,-0.873 -5.82,-2.42c-3.165,-3.179 -8.936,-8.972 -14.131,-14.188c-1.816,-1.823 -2.356,-4.56 -1.369,-6.936c0.987,-2.377 3.308,-3.925 5.881,-3.925c31.564,-0 101.834,-0 113.412,-0c1.046,-0 2.052,0.402 2.81,1.123c3.186,3.028 12.148,11.551 18.582,17.67Z" style="fill:#e9ecef;"/><path d="M44.11,31.224c-0,-2.396 1.453,-4.552 3.673,-5.452c2.22,-0.9 4.765,-0.363 6.432,1.357c4.918,5.072 10.619,10.952 14.638,15.097c3.313,3.416 5.165,7.988 5.165,12.747c0,16.822 0,57.874 0,76.939c0,1.656 -1.004,3.147 -2.539,3.769c-1.535,0.622 -3.293,0.251 -4.446,-0.938c-8.839,-9.116 -22.923,-23.642 -22.923,-23.642c-0,-0 -0,-53.407 -0,-79.877Z" style="fill:#8b949e;"/><path id="Path8" serif:id="Path" d="M42.637,38.72l24.113,24.224l-23.871,-19.501l-0.242,-4.723Z" style="fill:#9ea7b0;"/><path id="Path9" serif:id="Path" d="M42.721,34.661l23.994,28.245l-23.965,-24.102l-0.029,-4.143Z" style="fill:#818b94;"/><path id="Path10" serif:id="Path" d="M74.018,109.28l-12,-14.994l-8.386,-9.435l20.386,28.271l0,-3.842Z" style="fill:#9ea7b0;"/><path id="Path11" serif:id="Path" d="M73.997,104.083l-20.365,-19.232l20.386,24.429l-0.021,-5.197Z" style="fill:#818b94;"/><path id="Path12" serif:id="Path" d="M41.468,92.748l14.196,15.834l-13.681,-11.556l-0.515,-4.278Z" style="fill:#9ea7b0;"/><path id="Path13" serif:id="Path" d="M41.459,89.34l15.014,19.803l-14.692,-15.063l-0.322,-4.74Z" style="fill:#818b94;"/></g><ellipse cx="146.294" cy="232.627" rx="3.184" ry="4.275" style="fill:#fff;"/><ellipse cx="130.503" cy="215.668" rx="6.703" ry="9.074" style="fill:#e63866;"/><path d="M141.649,154.626c1.93,-0.075 3.649,3.801 3.836,8.65c0.188,4.848 -1.227,8.845 -3.157,8.92c-1.93,0.074 -3.649,-3.801 -3.837,-8.65c-0.187,-4.848 1.228,-8.845 3.158,-8.92Z" style="fill:#e7bb99;"/><g><ellipse cx="95.054" cy="82.975" rx="1.308" ry="1.873" style="fill:#afb9c3;"/><ellipse cx="160.38" cy="62.288" rx="3.376" ry="1.873" style="fill:#afb9c3;"/><ellipse cx="172.48" cy="89.545" rx="3.376" ry="3.064" style="fill:#afb9c3;"/><ellipse cx="133.056" cy="89.527" rx="2.064" ry="1.873" style="fill:#cdd3d9;"/><ellipse cx="110.119" cy="124.929" rx="2.064" ry="1.873" style="fill:#cdd3d9;"/><ellipse cx="192.273" cy="98.665" rx="2.064" ry="1.873" style="fill:#cdd3d9;"/><ellipse cx="134.723" cy="121.146" rx="2.526" ry="2.567" style="fill:#afb9c3;"/><path d="M52.283,62.979c0.633,0.502 1.147,1.929 1.147,3.185c0,1.256 -0.514,1.868 -1.147,1.367c-0.633,-0.502 -1.146,-1.929 -1.146,-3.185c-0,-1.256 0.513,-1.868 1.146,-1.367Z" style="fill:#afb9c3;"/><path d="M61.369,78.815c0.674,0.535 1.222,2.056 1.222,3.395c0,1.339 -0.548,1.992 -1.222,1.457c-0.675,-0.534 -1.223,-2.056 -1.223,-3.395c0,-1.339 0.548,-1.992 1.223,-1.457Z" style="fill:#727c85;"/><path d="M51.614,88.217c0.369,0.293 0.669,1.125 0.669,1.859c0,0.733 -0.3,1.09 -0.669,0.798c-0.369,-0.293 -0.669,-1.126 -0.669,-1.859c-0,-0.733 0.3,-1.091 0.669,-0.798Z" style="fill:#727c85;"/><path d="M59.106,114.868c0.633,0.464 1.147,1.86 1.147,3.116c-0,1.256 -0.514,1.899 -1.147,1.435c-0.633,-0.463 -1.147,-1.86 -1.147,-3.116c0,-1.256 0.514,-1.899 1.147,-1.435Z" style="fill:#afb9c3;"/></g><g><ellipse cx="116.024" cy="30.896" rx="33.952" ry="9.626" style="fill:#bdc5cd;"/><g><path d="M128.054,7.053c12.099,-0 21.922,9.823 21.922,21.922c0,12.099 -43.843,12.099 -43.843,-0c-0,-12.099 9.822,-21.922 21.921,-21.922Z" style="fill:#f08c00;"/><path id="Ellipse" d="M144.647,24.267c2.253,-5.085 -1.906,-11.509 -9.287,-14.35c-7.379,-2.841 -15.186,-1.024 -17.44,4.057c-2.254,5.083 1.899,11.508 9.279,14.352c7.383,2.844 15.195,1.027 17.448,-4.059Z" style="fill:#fcc419;"/><path id="Ellipse1" serif:id="Ellipse" d="M143.841,19.816c1.035,-1.909 -0.925,-4.969 -4.378,-6.835c-3.452,-1.865 -7.09,-1.831 -8.126,0.076c-1.035,1.908 0.924,4.968 4.376,6.834c3.454,1.867 7.093,1.833 8.128,-0.075Z" style="fill:#fff;"/><path id="Ellipse2" serif:id="Ellipse" d="M114.672,23.898c0.471,-0.867 0.154,-1.949 -0.709,-2.415c-0.863,-0.467 -1.944,-0.142 -2.415,0.725c-0.472,0.868 -0.154,1.949 0.709,2.416c0.863,0.467 1.944,0.142 2.415,-0.726Z" style="fill:#fff;"/></g></g></g></g></g><defs><linearGradient id="_Linear1" x1="0" y1="0" x2="1" y2="0" gradientUnits="userSpaceOnUse" gradientTransform="matrix(-37.823,4.27543,-4.27543,-37.823,147.074,163.738)"><stop offset="0" style="stop-color:#db8b6d;stop-opacity:1"/><stop offset="1" style="stop-color:#db8b6d;stop-opacity:0"/></linearGradient><linearGradient id="_Linear2" x1="0" y1="0" x2="1" y2="0" gradientUnits="userSpaceOnUse" gradientTransform="matrix(7.72408e-15,51.5133,-48.5192,-1.32259e-15,74.0183,65.528)"><stop offset="0" style="stop-color:#fff;stop-opacity:1"/><stop offset="1" style="stop-color:#8b949e;stop-opacity:1"/></linearGradient></defs></svg>