<?xml version="1.0" encoding="UTF-8" standalone="no"?><!DOCTYPE svg PUBLIC "-//W3C//DTD SVG 1.1//EN" "http://www.w3.org/Graphics/SVG/1.1/DTD/svg11.dtd"><svg width="100%" height="100%" viewBox="0 0 256 256" version="1.1" xmlns="http://www.w3.org/2000/svg" xmlns:xlink="http://www.w3.org/1999/xlink" xml:space="preserve" xmlns:serif="http://www.serif.com/" style="fill-rule:evenodd;clip-rule:evenodd;stroke-linejoin:round;stroke-miterlimit:2;"><g id="Hammer--Bold-" serif:id="Hammer (Bold)"><path id="Layer-2" serif:id="Layer 2" d="M239.849,134.098c-51.719,-56.605 -46.457,-3.07 -73.665,26.901c-25.455,28.04 -91.309,30.493 -24.135,75.154c15.898,10.57 47.001,1.071 74.113,-27.165c27.113,-28.236 36.591,-60.767 23.687,-74.89Z" style="fill:#3c8db6;"/><path id="Layer-3" serif:id="Layer 3" d="M184.167,151.013c12.01,-13.228 2.495,-12.217 -17.185,9.461c-25.456,28.04 -91.309,30.493 -24.135,75.155c12.069,8.024 32.902,4.482 54.099,-10.045c-14.78,6.139 -28.155,6.407 -36.914,0.584c-67.174,-44.662 -1.32,-47.115 24.135,-75.155Z" style="fill:#2b769b;"/><path id="Layer-4" serif:id="Layer 4" d="M219.472,117.32c-13.404,-13.635 -46.865,-2.51 -74.675,24.828c-27.81,27.339 -39.505,60.605 -26.101,74.24c13.404,13.635 46.865,2.51 74.674,-24.829c27.81,-27.338 39.506,-60.604 26.102,-74.239Z" style="fill:#b4f7ff;"/><path id="Layer-5" serif:id="Layer 5" d="M216.012,113.902c-13.792,-13.243 -46.918,-1.158 -73.928,26.972c-27.01,28.129 -37.741,61.718 -23.949,74.961c13.792,13.243 46.918,1.157 73.927,-26.972c27.01,-28.129 37.742,-61.718 23.95,-74.961Z" style="fill:url(#_Linear1);"/><path id="Layer-6" serif:id="Layer 6" d="M69.125,148.2c10.586,-10.587 25.651,-10.587 36.237,-0l3.224,3.223c10.586,10.587 8.001,23.527 -2.585,34.114c-0,-0 -32.557,44.645 -46.741,53.574c-13.409,8.442 -27.776,10.587 -38.362,0l-3.224,-3.223c-10.586,-10.587 -7.951,-24.812 0,-38.363c8.575,-14.614 51.451,-49.325 51.451,-49.325Z" style="fill:url(#_Linear2);"/><path id="Layer-7" serif:id="Layer 7" d="M19.468,197.227c1.985,-2.113 27.003,-32.097 31.357,-26.669c25.05,31.228 3.439,46.651 -6.98,52.501c-4.41,2.475 -20.224,9.567 -26.57,3.221l-1.932,-1.933c-6.346,-6.345 -1.156,-21.501 4.125,-27.12Z" style="fill:#ffe4a5;fill-opacity:0.44;"/><path id="Layer-8" serif:id="Layer 8" d="M99.909,194.02c3.928,-5.161 6.436,-8.601 6.436,-8.601c10.586,-10.586 13.172,-23.527 2.585,-34.113l-3.223,-3.223c-2.209,-2.209 -4.612,-3.957 -7.129,-5.243c0.372,0.336 0.739,0.686 1.1,1.047l3.224,3.224c10.586,10.586 8.001,23.527 -2.585,34.113c-0,0 -1.152,1.58 -3.117,4.204l-28.633,-32.134c-0.837,-0.939 -1.789,-1.715 -2.817,-2.324c-3.651,3.022 -7.079,6.969 -13.904,12.983c6.811,15.415 24.667,31.35 24.956,43.158c0.288,11.808 -16.271,23.31 -23.226,27.688c-10.754,6.77 -22.125,9.49 -31.667,4.84c10.518,9.849 24.566,7.621 37.696,-0.645c8.05,-5.068 22.019,-21.642 32.595,-35.029c4.183,-4.283 6.014,-7.268 7.709,-9.945Z" style="fill:#d9943d;"/><path id="Layer-9" serif:id="Layer 9" d="M49.831,177.596c-2.708,-2.401 -12.421,4.123 -21.676,14.56c-9.254,10.437 -14.569,20.861 -11.861,23.262c2.709,2.402 7.743,-8.915 16.998,-19.352c9.255,-10.438 19.247,-16.068 16.539,-18.47Z" style="fill:#fff;"/><path id="Layer-10" serif:id="Layer 10" d="M52.634,148.373c4.65,-4.65 12.2,-4.65 16.85,-0l37.995,37.995c4.65,4.65 4.65,12.2 0,16.85c-4.65,4.65 -12.147,2.792 -16.85,0c-14.506,-8.609 -30.039,-25.102 -37.995,-37.995c-2.873,-4.654 -4.65,-12.2 -0,-16.85Z" style="fill:url(#_Linear3);"/><path id="Layer-11" serif:id="Layer 11" d="M54.615,149.359c4.214,-5.048 11.354,-6.043 15.933,-2.219l37.421,31.24c4.58,3.823 4.877,11.026 0.662,16.074c-4.214,5.048 -11.376,4.263 -15.933,2.219c-14.056,-6.302 -29.391,-19.989 -37.421,-31.24c-2.899,-4.062 -4.877,-11.026 -0.662,-16.074Z" style="fill:#fff6b0;"/><path id="Layer-12" serif:id="Layer 12" d="M108.341,202.259c3.768,-4.677 3.481,-11.549 -0.862,-15.891l-37.995,-37.995c-2.612,-2.612 -6.138,-3.757 -9.552,-3.435c0.503,2.946 1.722,5.897 3.21,8.253c9.876,15.627 28.433,35.382 42.371,47.083c0.849,0.713 1.804,1.385 2.828,1.985Z" style="fill:#fbb84c;fill-opacity:0.44;"/><path id="Layer-13" serif:id="Layer 13" d="M53.934,151.293c-1.869,1.94 -2.394,4.472 -1.171,5.65c1.223,1.179 3.733,0.561 5.603,-1.379c1.869,-1.94 2.394,-4.472 1.171,-5.65c-1.223,-1.179 -3.733,-0.561 -5.603,1.379Z" style="fill:#fff;"/><path id="Layer-14" serif:id="Layer 14" d="M203.938,115.553c-6.089,-14.24 -51.885,-67.918 -76.744,-66.796c-24.859,1.122 -71.25,47.867 -72.411,73.529c-1.161,25.662 48.688,71.479 65.447,80.445c14.253,7.625 39.881,0.754 62.981,-23.303c23.1,-24.057 27.082,-49.011 20.727,-63.875Z" style="fill:#f14b5e;"/><path id="Layer-15" serif:id="Layer 15" d="M101.394,59.432c-22.43,15.653 -45.827,44.307 -46.647,62.437c-1.161,25.662 48.689,71.479 65.447,80.445c12.826,6.862 34.862,1.985 55.978,-16.589c-17.851,12.101 -35.23,14.668 -46.052,8.878c-16.758,-8.966 -66.607,-54.782 -65.447,-80.444c0.699,-15.453 17.798,-38.55 36.721,-54.727Z" style="fill:#d13444;"/><path id="Layer-16" serif:id="Layer 16" d="M122.965,44.65c10.966,-1.115 68.526,43.365 75.82,72.312c6.473,25.687 -30.393,71.073 -57.27,55.727c-25.28,-14.433 -68.89,-61.406 -68.89,-61.406c-0,0 21.254,-63.676 50.34,-66.633Z" style="fill:#fff;fill-opacity:0.22;"/><path id="Layer-17" serif:id="Layer 17" d="M144.92,57.702c9.91,6.62 47.639,29.11 50.689,55.442c3.05,26.332 -25.709,30.503 -38.962,15.693c-18.233,-20.374 -44.233,-43.349 -44.233,-43.349c-0,-0 22.597,-34.405 32.506,-27.786Z" style="fill:#fff;fill-opacity:0.35;"/><path id="Layer-18" serif:id="Layer 18" d="M138.181,35.299c-51.719,-56.605 -46.456,-3.07 -73.665,26.901c-25.455,28.04 -91.309,30.493 -24.134,75.155c15.897,10.569 47.001,1.07 74.113,-27.166c27.112,-28.235 36.59,-60.766 23.686,-74.89Z" style="fill:#3c8db6;"/><path id="Layer-19" serif:id="Layer 19" d="M81.679,52.191c12.01,-13.229 2.495,-12.218 -17.185,9.461c-25.455,28.04 -91.309,30.493 -24.135,75.154c12.069,8.025 32.902,4.482 54.099,-10.044c-14.78,6.138 -28.154,6.407 -36.913,0.583c-67.175,-44.661 -1.321,-47.114 24.134,-75.154Z" style="fill:#2b769b;"/><path id="Layer-20" serif:id="Layer 20" d="M140.365,50.119c-0.606,-7.238 -15.028,-19.754 -14.561,-14.483c1.55,17.506 -13.365,31.853 -13.137,40.534c0.163,6.178 10.003,15.784 14.505,11.549c4.617,-4.342 14.568,-21.19 13.193,-37.6Z" style="fill:#5caad2;"/><path id="Layer-21" serif:id="Layer 21" d="M243.658,148.214c-0.606,-7.238 -15.028,-19.754 -14.561,-14.482c1.55,17.505 -13.365,31.853 -13.137,40.534c0.163,6.178 10.003,15.783 14.505,11.549c4.617,-4.342 14.568,-21.19 13.193,-37.601Z" style="fill:#5caad2;"/><path id="Layer-22" serif:id="Layer 22" d="M117.484,16.794c-13.585,-13.456 -46.894,-1.885 -74.337,25.821c-27.443,27.707 -38.695,61.126 -25.11,74.581c13.585,13.456 46.894,1.885 74.337,-25.822c27.443,-27.706 38.695,-61.125 25.11,-74.58Z" style="fill:#b4f7ff;"/><path id="Layer-23" serif:id="Layer 23" d="M114.344,15.103c-13.792,-13.243 -46.918,-1.157 -73.928,26.972c-27.009,28.129 -37.741,61.718 -23.949,74.961c13.792,13.243 46.918,1.158 73.928,-26.972c27.01,-28.129 37.741,-61.718 23.949,-74.961Z" style="fill:url(#_Linear4);"/><path id="Layer-24" serif:id="Layer 24" d="M119.491,31.82c-2.4,-0.929 -4.348,7.588 -8.62,18.622c-4.273,11.034 -10.163,20.49 -7.763,21.42c2.4,0.929 8.717,-7.332 12.99,-18.366c4.273,-11.034 5.793,-20.747 3.393,-21.676Z" style="fill:#fff;"/><path id="Layer-25" serif:id="Layer 25" d="M220.626,132.432c-2.367,-1.01 -4.602,7.436 -9.244,18.32c-4.643,10.884 -10.849,20.136 -8.481,21.146c2.367,1.009 8.96,-7.033 13.602,-17.917c4.642,-10.884 6.49,-20.539 4.123,-21.549Z" style="fill:#fff;"/><path id="Layer-26" serif:id="Layer 26" d="M154.942,155.982c-5.412,-0.854 -10.174,0.784 -10.627,3.655c-0.454,2.872 3.573,5.897 8.985,6.751c5.412,0.854 10.174,-0.784 10.627,-3.655c0.454,-2.872 -3.573,-5.897 -8.985,-6.751Z" style="fill:#ff97a1;"/><path id="Layer-27" serif:id="Layer 27" d="M172.803,84.427c-9.898,-10.256 -20.903,-15.438 -22.666,-13.736c-1.763,1.701 7.843,7.253 17.741,17.51c9.898,10.256 16.363,21.358 18.127,19.656c1.763,-1.702 -3.304,-13.174 -13.202,-23.43Z" style="fill:#fafafa;"/><path id="Layer-28" serif:id="Layer 28" d="M187.255,112.647c-0.997,0.151 -1.603,1.615 -1.353,3.266c0.251,1.651 1.264,2.869 2.261,2.718c0.997,-0.151 1.603,-1.615 1.353,-3.266c-0.251,-1.651 -1.264,-2.869 -2.261,-2.718Z" style="fill:#fafafa;"/></g><defs><linearGradient id="_Linear1" x1="0" y1="0" x2="1" y2="0" gradientUnits="userSpaceOnUse" gradientTransform="matrix(-67.0433,5.17214,5.17214,67.0433,215.356,158.432)"><stop offset="0" style="stop-color:#c0f6fd;stop-opacity:1"/><stop offset="1" style="stop-color:#7af1ff;stop-opacity:1"/></linearGradient><linearGradient id="_Linear2" x1="0" y1="0" x2="1" y2="0" gradientUnits="userSpaceOnUse" gradientTransform="matrix(-28.2588,-26.9366,-26.9366,28.2588,66.1174,217.923)"><stop offset="0" style="stop-color:#f9af4a;stop-opacity:1"/><stop offset="1" style="stop-color:#ffc950;stop-opacity:1"/></linearGradient><linearGradient id="_Linear3" x1="0" y1="0" x2="1" y2="0" gradientUnits="userSpaceOnUse" gradientTransform="matrix(29.839,29.9713,29.9713,-29.839,58.9172,160.483)"><stop offset="0" style="stop-color:#fff49a;stop-opacity:1"/><stop offset="1" style="stop-color:#ffef68;stop-opacity:1"/></linearGradient><linearGradient id="_Linear4" x1="0" y1="0" x2="1" y2="0" gradientUnits="userSpaceOnUse" gradientTransform="matrix(-67.0433,5.17214,5.17214,67.0433,113.688,59.6338)"><stop offset="0" style="stop-color:#c0f6fd;stop-opacity:1"/><stop offset="1" style="stop-color:#7af1ff;stop-opacity:1"/></linearGradient></defs></svg>