<?xml version="1.0" encoding="UTF-8" standalone="no"?><!DOCTYPE svg PUBLIC "-//W3C//DTD SVG 1.1//EN" "http://www.w3.org/Graphics/SVG/1.1/DTD/svg11.dtd"><svg width="100%" height="100%" viewBox="0 0 256 256" version="1.1" xmlns="http://www.w3.org/2000/svg" xmlns:xlink="http://www.w3.org/1999/xlink" xml:space="preserve" xmlns:serif="http://www.serif.com/" style="fill-rule:evenodd;clip-rule:evenodd;stroke-linejoin:round;stroke-miterlimit:2;"><g id="Hand---Peace-Sign---Left" serif:id="Hand - Peace Sign - Left"><path d="M146.87,122.802c3.482,-6.29 7.212,-12.762 11.196,-19.341c11.467,-18.94 24.838,-38.779 40.334,-57.673c5.996,-7.918 17.292,-9.479 25.21,-3.484c7.918,5.996 9.479,17.292 3.484,25.21c-12.896,18.481 -23.754,37.688 -32.943,55.923c-11.302,22.428 -19.801,43.407 -25.939,59.88c-4.945,11.841 -18.572,17.441 -30.413,12.497c-11.842,-4.945 -17.441,-18.572 -12.497,-30.413c2.635,-5.68 5.59,-11.869 8.873,-18.445c-3.293,1.662 -7.03,2.563 -10.972,2.475c-12.829,-0.287 -23.011,-10.936 -22.724,-23.764c0.906,-12.396 2.224,-26.018 5.163,-43.309c2.83,-16.652 6.98,-36.688 13.585,-62.435c1.978,-9.733 11.486,-16.029 21.219,-14.051c9.733,1.978 16.029,11.486 14.051,21.219c-3.014,19.966 -4.895,36.32 -6.105,50.286c-1.623,18.74 -1.788,32.913 -1.522,45.425Z" style="fill:#ffc6a2;"/><clipPath id="_clip1"><path d="M146.87,122.802c3.482,-6.29 7.212,-12.762 11.196,-19.341c11.467,-18.94 24.838,-38.779 40.334,-57.673c5.996,-7.918 17.292,-9.479 25.21,-3.484c7.918,5.996 9.479,17.292 3.484,25.21c-12.896,18.481 -23.754,37.688 -32.943,55.923c-11.302,22.428 -19.801,43.407 -25.939,59.88c-4.945,11.841 -18.572,17.441 -30.413,12.497c-11.842,-4.945 -17.441,-18.572 -12.497,-30.413c2.635,-5.68 5.59,-11.869 8.873,-18.445c-3.293,1.662 -7.03,2.563 -10.972,2.475c-12.829,-0.287 -23.011,-10.936 -22.724,-23.764c0.906,-12.396 2.224,-26.018 5.163,-43.309c2.83,-16.652 6.98,-36.688 13.585,-62.435c1.978,-9.733 11.486,-16.029 21.219,-14.051c9.733,1.978 16.029,11.486 14.051,21.219c-3.014,19.966 -4.895,36.32 -6.105,50.286c-1.623,18.74 -1.788,32.913 -1.522,45.425Z"/></clipPath><g clip-path="url(#_clip1)"><path d="M99.21,145.334c-1.952,0.482 -3.998,0.717 -6.103,0.67c-12.829,-0.287 -23.011,-10.935 -22.724,-23.764c0.906,-12.395 2.224,-26.018 5.163,-43.309c2.83,-16.652 10.955,-47.923 17.561,-73.669c1.978,-9.733 11.485,-16.029 21.218,-14.051c9.733,1.978 16.03,11.485 14.052,21.218c-3.015,19.967 -8.731,47.568 -10.081,61.521c-3.971,41.033 8.482,49.852 18.348,43.366c9.392,-6.175 13.467,-70.694 28.963,-89.588c5.995,-7.918 26.483,-5.995 34.401,0c7.918,5.996 9.479,17.292 3.484,25.21c-12.897,18.48 -19.505,26.036 -28.694,44.271c-11.301,22.427 -19.8,43.407 -25.939,59.88c-4.944,11.841 -18.572,17.44 -30.413,12.496c-3.022,-1.261 -14.856,-10.185 -19.236,-24.251Z" style="fill:#dd8e70;"/></g><path d="M146.87,122.802c3.482,-6.29 7.212,-12.762 11.196,-19.341c11.467,-18.94 24.838,-38.779 40.334,-57.673c5.996,-7.918 17.292,-9.479 25.21,-3.484c7.918,5.996 9.479,17.292 3.484,25.21c-12.896,18.481 -23.754,37.688 -32.943,55.923c-11.302,22.428 -19.801,43.407 -25.939,59.88c-4.945,11.841 -18.572,17.441 -30.413,12.497c-11.842,-4.945 -17.441,-18.572 -12.497,-30.413c2.635,-5.68 5.59,-11.869 8.873,-18.445c-3.293,1.662 -7.03,2.563 -10.972,2.475c-12.829,-0.287 -23.011,-10.936 -22.724,-23.764c0.906,-12.396 2.224,-26.018 5.163,-43.309c2.83,-16.652 6.98,-36.688 13.585,-62.435c1.978,-9.733 11.486,-16.029 21.219,-14.051c9.733,1.978 16.029,11.486 14.051,21.219c-3.014,19.966 -4.895,36.32 -6.105,50.286c-1.623,18.74 -1.788,32.913 -1.522,45.425Z" style="fill:none;stroke:#763f33;stroke-width:4.77px;"/><path d="M91.498,98.885c-5.896,-1.59 -22.528,-1.9 -27.117,18.435c-18.516,-14.074 -35.162,-1.183 -33.307,23.082c-0,0 -33.523,90.709 60.424,107.578c88.889,15.962 89.723,-48.124 70.921,-80.751c-7.726,-13.409 -11.763,-21.969 -35.035,-38.251c-8.037,-5.623 -18.714,-10.292 -22.923,-6.749c-0,-12.922 -6.466,-21.591 -12.963,-23.344Z" style="fill:#ffc6a2;"/><clipPath id="_clip2"><path d="M91.498,98.885c-5.896,-1.59 -22.528,-1.9 -27.117,18.435c-18.516,-14.074 -35.162,-1.183 -33.307,23.082c-0,0 -33.523,90.709 60.424,107.578c88.889,15.962 89.723,-48.124 70.921,-80.751c-7.726,-13.409 -11.763,-21.969 -35.035,-38.251c-8.037,-5.623 -18.714,-10.292 -22.923,-6.749c-0,-12.922 -6.466,-21.591 -12.963,-23.344Z"/></clipPath><g clip-path="url(#_clip2)"><path d="M154.861,149.436c18.778,29.095 -16.317,101.055 -84.367,92.854c49.52,73.91 130.803,48.49 130.803,48.49l23.87,-108.437l-70.306,-32.907Z" style="fill:#dd8e70;"/><path d="M85.235,194.49c10.325,13.315 17.494,15.457 33.842,9.26c-7.779,-7.572 -3.145,-32.659 0,-37.219c-23.282,-11.549 -23.966,-31.968 -23.966,-31.968c-0,0 4.484,26 -4.702,31.968c-6.375,4.141 -11.788,2.143 -15.227,-0.287c-6.523,-8.687 -10.201,-22.252 -10.201,-22.252c0,-0 4.485,26 -4.702,31.967c-11.047,7.176 -19.204,-4.08 -19.204,-4.08c-0,0 6.587,45.717 44.16,22.611Z" style="fill:#dd8e70;"/><path d="M181.977,184.756c0,-0 -61.064,-84.802 -82.622,-58.569c-16.158,19.66 19.027,41.94 19.027,41.94c-7.207,13.259 -8.871,25.453 0,35.623" style="fill:none;stroke:#763f33;stroke-width:4.77px;stroke-linecap:round;stroke-miterlimit:1.5;"/><path d="M110.251,161.963c-6.437,22.97 -18.5,22.706 -32.653,13.816c-12.609,33.617 -47.045,3.604 -47.045,-41.198" style="fill:none;stroke:#763f33;stroke-width:4.77px;stroke-linecap:round;stroke-miterlimit:1.5;"/><path d="M64.144,105.025c-1.292,20.98 0.787,49.145 13.454,70.754" style="fill:none;stroke:#763f33;stroke-width:4.77px;stroke-linecap:round;stroke-miterlimit:1.5;"/></g><path d="M91.498,98.885c-5.896,-1.59 -22.528,-1.9 -27.117,18.435c-18.516,-14.074 -35.162,-1.183 -33.307,23.082c-0,0 -33.523,90.709 60.424,107.578c88.889,15.962 89.723,-48.124 70.921,-80.751c-7.726,-13.409 -11.763,-21.969 -35.035,-38.251c-8.037,-5.623 -18.714,-10.292 -22.923,-6.749c-0,-12.922 -6.466,-21.591 -12.963,-23.344Z" style="fill:none;stroke:#763f33;stroke-width:4.77px;stroke-linecap:round;stroke-miterlimit:1.5;"/></g></svg>