<?xml version="1.0" encoding="UTF-8" standalone="no"?><!DOCTYPE svg PUBLIC "-//W3C//DTD SVG 1.1//EN" "http://www.w3.org/Graphics/SVG/1.1/DTD/svg11.dtd"><svg width="100%" height="100%" viewBox="0 0 256 256" version="1.1" xmlns="http://www.w3.org/2000/svg" xmlns:xlink="http://www.w3.org/1999/xlink" xml:space="preserve" xmlns:serif="http://www.serif.com/" style="fill-rule:evenodd;clip-rule:evenodd;stroke-linejoin:round;stroke-miterlimit:2;"><g id="Hand"><path id="Path" d="M107.32,94.362c-5.446,-16.907 -33.668,-88.472 -64.934,-73.089c-62.657,30.827 28.968,113.726 28.968,113.726c0,0 -26.02,25.473 8.411,61.492c21.992,23.006 85.677,57.713 126.444,30.314c25.317,-17.015 33.51,-55.083 27.375,-95.762c-6.225,-41.287 -23.978,-60.581 -45.138,-60.581c-9.957,0 -19.029,3.52 -25.842,9.537c-8.247,-8.464 -19.521,-12.769 -30.668,-10.508c-12.266,2.487 -21.301,12.295 -24.616,24.871Z" style="fill:none;stroke:#b47145;stroke-width:17.33px;"/><path id="Path1" serif:id="Path" d="M107.32,94.362c-5.446,-16.907 -33.668,-88.472 -64.934,-73.089c-62.657,30.827 28.968,113.726 28.968,113.726c0,0 -26.02,25.473 8.411,61.492c21.992,23.006 85.677,57.713 126.444,30.314c25.317,-17.015 33.51,-55.083 27.375,-95.762c-6.225,-41.287 -23.978,-60.581 -45.138,-60.581c-9.957,0 -19.029,3.52 -25.842,9.537c-8.247,-8.464 -19.521,-12.769 -30.668,-10.508c-12.266,2.487 -21.301,12.295 -24.616,24.871Z" style="fill:#ffdab2;"/><clipPath id="_clip1"><path id="Path2" serif:id="Path" d="M107.32,94.362c-5.446,-16.907 -33.668,-88.472 -64.934,-73.089c-62.657,30.827 28.968,113.726 28.968,113.726c0,0 -26.02,25.473 8.411,61.492c21.992,23.006 85.677,57.713 126.444,30.314c25.317,-17.015 33.51,-55.083 27.375,-95.762c-6.225,-41.287 -23.978,-60.581 -45.138,-60.581c-9.957,0 -19.029,3.52 -25.842,9.537c-8.247,-8.464 -19.521,-12.769 -30.668,-10.508c-12.266,2.487 -21.301,12.295 -24.616,24.871Z"/></clipPath><g clip-path="url(#_clip1)"><path id="Path3" serif:id="Path" d="M36.647,23.212c-54.855,32.054 19.884,112.917 19.884,112.917c0,-0 -17.116,31.501 17.315,67.52c21.992,23.006 92.517,51.003 133.284,23.604c0.917,-0.616 1.808,-1.268 2.677,-1.96c-40.826,23.766 -95.86,-14.679 -117.307,-37.115c-34.431,-36.019 -17.314,-57.064 -17.314,-57.064c-0,0 -81.385,-74.233 -38.539,-107.902Z" style="fill:#cd7531;fill-opacity:0.2;"/><path id="Path4" serif:id="Path" d="M244.392,39.442c-8.248,-8.464 -170.275,-33.407 -202.933,-19.156c-6.77,2.954 -17.743,11.371 -19.827,20.866c3.212,-7.18 9.129,-13.009 19.685,-18.203c31.266,-15.383 61.556,60.517 67.002,77.424c-2.923,-25.114 39.287,-37.832 54.124,-16.125c50.834,-28.756 72.935,51.128 64.864,125.06c56.429,-64.419 23.897,-175.882 17.085,-169.866Z" style="fill:#fff5ba;fill-opacity:0.74;"/></g><path id="Path5" serif:id="Path" d="M71.778,47.478c-3.111,-10.779 -12.388,-20.145 -25.959,-18.383c-13.57,1.762 -18.465,25.042 -9.761,37.47c8.704,12.429 37.99,-11.223 35.72,-19.087Z" style="fill:#dc8c5a;fill-opacity:0.59;"/><path id="Path6" serif:id="Path" d="M68.862,42.964c-2.827,-7.421 -10.956,-19.276 -24.758,-14.198c-13.123,4.828 -16.436,18.117 -7.074,31.846c7.907,11.595 34.999,-9.338 31.832,-17.648Z" style="fill:#fff0e1;"/><path id="Ellipse" d="M196.108,212.249c0,-3.218 2.573,-5.827 5.747,-5.827c3.174,0 5.747,2.609 5.747,5.827c0,3.218 -2.573,5.827 -5.747,5.827c-3.174,-0 -5.747,-2.609 -5.747,-5.827Z" style="fill:#ffecd7;fill-opacity:0.34;"/><path id="Ellipse1" serif:id="Ellipse" d="M129.062,160.778c0,-1.609 1.287,-2.913 2.874,-2.913c1.586,0 2.873,1.304 2.873,2.913c0,1.61 -1.287,2.914 -2.873,2.914c-1.587,-0 -2.874,-1.304 -2.874,-2.914Z" style="fill:#e5b388;"/><path id="Ellipse2" serif:id="Ellipse" d="M169.29,130.673c-0,-1.073 0.857,-1.942 1.916,-1.942c1.057,-0 1.915,0.869 1.915,1.942c0,1.073 -0.858,1.942 -1.915,1.942c-1.059,0 -1.916,-0.869 -1.916,-1.942Z" style="fill:#e5b388;"/><path id="Ellipse3" serif:id="Ellipse" d="M167.374,184.086c0,-1.609 1.287,-2.914 2.874,-2.914c1.587,0 2.873,1.305 2.873,2.914c0,1.609 -1.286,2.913 -2.873,2.913c-1.587,0 -2.874,-1.304 -2.874,-2.913Z" style="fill:#e5b388;"/><path id="Ellipse4" serif:id="Ellipse" d="M213.349,165.634c0,-17.163 -4.661,-31.076 -0.958,-31.076c3.703,-0 8.62,13.913 8.62,31.076c0,17.164 -4.917,31.077 -8.62,31.077c-3.703,-0 0.958,-13.913 0.958,-31.077Z" style="fill:#ffeddd;"/><path id="Ellipse5" serif:id="Ellipse" d="M205.687,119.019c-0,-2.145 1.715,-3.884 3.831,-3.884c2.116,-0 3.831,1.739 3.831,3.884c0,2.146 -1.715,3.885 -3.831,3.885c-2.116,-0 -3.831,-1.739 -3.831,-3.885Z" style="fill:#ffeddd;"/><path id="Path7" serif:id="Path" d="M75.185,131.114c-0,-0 9.566,8.646 13.763,31.569c-6.873,-12.195 -18.29,-27.491 -18.29,-27.491l4.527,-4.078Z" style="fill:#ebc7a2;"/><path id="Path8" serif:id="Path" d="M62.556,128.644c0,0 17.84,8.149 27.004,35.443c-6.873,-12.195 -23.745,-26.474 -23.745,-26.474l-3.259,-8.969Z" style="fill:#b47145;"/></g></svg>