<?xml version="1.0" encoding="UTF-8" standalone="no"?><!DOCTYPE svg PUBLIC "-//W3C//DTD SVG 1.1//EN" "http://www.w3.org/Graphics/SVG/1.1/DTD/svg11.dtd"><svg width="100%" height="100%" viewBox="0 0 256 256" version="1.1" xmlns="http://www.w3.org/2000/svg" xmlns:xlink="http://www.w3.org/1999/xlink" xml:space="preserve" xmlns:serif="http://www.serif.com/" style="fill-rule:evenodd;clip-rule:evenodd;stroke-linejoin:round;stroke-miterlimit:2;"><g id="Heart--Big-" serif:id="Heart (Big)"><path id="Ellipse" d="M1.37,101.135c-9.267,-65.034 75.488,-114.665 127.269,-40.45c58.872,-74.311 131.591,-26.494 126.432,37.401c-4.732,58.604 -68.817,134.628 -126.434,134.949c-55.07,0.306 -118.897,-73.165 -127.267,-131.9Z" style="fill:#dd2364;"/><path id="Ellipse1" serif:id="Ellipse" d="M10.083,100.727c-8.269,-57.477 64.756,-105.239 118.554,-27.876c55.07,-70.943 121.99,-35.622 117.776,24.431c-4.12,58.698 -67.765,125.159 -118.731,125.159c-52.206,0 -110.129,-69.804 -117.599,-121.714Z" style="fill:#ff4a77;"/><path id="Path" d="M44.269,52.196c38.149,-36.287 83.731,29.232 83.731,29.232c-0,-0 50.501,-66.585 91.658,-34.186c53.493,42.108 -11.856,120.165 -78.281,128.321c-66.425,8.156 -136.817,-85.596 -97.108,-123.367Z" style="fill:#ff6593;fill-opacity:0.61;"/><path id="Ellipse2" serif:id="Ellipse" d="M44.468,147.246c2.962,-2.389 9.635,0.818 14.853,7.079c5.149,6.18 6.966,13.051 4.108,15.427c-2.868,2.385 -9.411,-0.615 -14.665,-6.782c-5.323,-6.248 -7.271,-13.325 -4.296,-15.724Z" style="fill:#ff6593;"/><path id="Ellipse3" serif:id="Ellipse" d="M108.442,59.357c1.98,-4.682 -5.975,-13.117 -17.767,-18.838c-11.792,-5.722 -22.957,-6.564 -24.937,-1.881c-1.98,4.682 7.812,7.778 19.605,13.499c11.793,5.722 21.119,11.903 23.099,7.22Z" style="fill:#f7f7f7;"/><path id="Ellipse4" serif:id="Ellipse" d="M238.096,83.68c2.42,-0.977 3.35,-5.057 2.35,-8.617c-0.864,-3.077 -2.964,-4.917 -4.863,-4.451c-1.984,0.487 -3.408,3.397 -3.054,6.926c0.417,4.141 3.004,7.179 5.567,6.142Z" style="fill:#f7f7f7;"/><path id="Ellipse5" serif:id="Ellipse" d="M188.445,40.801c2.477,-5.946 15.818,-6.206 28.394,1.308c12.636,7.549 21.151,19.501 14.215,22.969c-5.561,2.78 -8.162,-3.294 -20.809,-10.9c-12.585,-7.569 -24.17,-7.69 -21.8,-13.377Z" style="fill:#fff;"/></g></svg>