<?xml version="1.0" encoding="UTF-8" standalone="no"?><!DOCTYPE svg PUBLIC "-//W3C//DTD SVG 1.1//EN" "http://www.w3.org/Graphics/SVG/1.1/DTD/svg11.dtd"><svg width="100%" height="100%" viewBox="0 0 256 256" version="1.1" xmlns="http://www.w3.org/2000/svg" xmlns:xlink="http://www.w3.org/1999/xlink" xml:space="preserve" xmlns:serif="http://www.serif.com/" style="fill-rule:evenodd;clip-rule:evenodd;stroke-linecap:round;stroke-linejoin:round;stroke-miterlimit:1.5;"><path id="Heart---Broken" serif:id="Heart - Broken" d="M168.856,31.014c26.532,-37.991 46.953,-12.891 70.702,8.77c25.334,23.106 25.334,69.316 0,115.527c-10.64,20.796 -31.314,41.592 -54.358,59.892c-16.014,12.667 -24.073,17.966 -43.28,15.667l-11.92,-28.356l20.026,-43.031l-24.412,-53.229l43.242,-75.24Zm-70.042,75.275l24.412,53.229l-20.026,43.031l11.92,28.356c-13.85,-1.257 -31.152,-6.554 -42.669,-15.661c-23.04,-18.305 -43.714,-39.102 -54.354,-59.898c-25.333,-46.21 -25.333,-92.421 -0,-115.526c25.333,-23.105 98.596,-51.215 123.929,-5.004l-43.212,71.473Z" style="fill:none;"/><clipPath id="_clip1"><path id="Heart---Broken1" serif:id="Heart - Broken" d="M168.856,31.014c26.532,-37.991 46.953,-12.891 70.702,8.77c25.334,23.106 25.334,69.316 0,115.527c-10.64,20.796 -31.314,41.592 -54.358,59.892c-16.014,12.667 -24.073,17.966 -43.28,15.667l-11.92,-28.356l20.026,-43.031l-24.412,-53.229l43.242,-75.24Zm-70.042,75.275l24.412,53.229l-20.026,43.031l11.92,28.356c-13.85,-1.257 -31.152,-6.554 -42.669,-15.661c-23.04,-18.305 -43.714,-39.102 -54.354,-59.898c-25.333,-46.21 -25.333,-92.421 -0,-115.526c25.333,-23.105 98.596,-51.215 123.929,-5.004l-43.212,71.473Z"/></clipPath><g clip-path="url(#_clip1)"><g id="Heart---Broken2" serif:id="Heart - Broken"><g><path d="M128,68.607c25.418,-42.98 76.254,-42.98 101.672,-21.49c25.419,21.49 25.419,64.47 -0,107.45c-9.304,16.855 -26.252,33.711 -45.758,49.03c-32.789,25.868 -79.041,25.869 -111.831,0.002c-19.504,-15.321 -36.452,-32.177 -45.756,-49.032c-25.418,-42.98 -25.418,-85.96 0,-107.45c25.419,-21.49 76.255,-21.49 101.673,21.49Z" style="fill:#ff4a77;stroke:#cd205c;stroke-width:11.72px;"/><path id="Path" d="M46.763,65.517c35.892,-34.14 78.776,27.502 78.776,27.502c-0,-0 47.512,-62.645 86.234,-32.163c50.327,39.616 -11.155,113.054 -73.649,120.728c-62.494,7.673 -128.721,-80.531 -91.361,-116.067Z" style="fill:#ff6593;fill-opacity:0.61;"/><path id="Ellipse" d="M46.95,154.942c2.787,-2.247 9.065,0.769 13.974,6.66c4.845,5.815 6.554,12.279 3.865,14.514c-2.699,2.244 -8.854,-0.579 -13.797,-6.381c-5.008,-5.878 -6.841,-12.536 -4.042,-14.793Z" style="fill:#ff6593;"/><path id="Ellipse1" serif:id="Ellipse" d="M106.888,71.064c2.127,-5.032 -6.422,-14.097 -19.096,-20.247c-12.674,-6.149 -24.673,-7.054 -26.801,-2.021c-2.128,5.032 8.396,8.359 21.071,14.509c12.674,6.149 22.698,12.792 24.826,7.759Z" style="fill:#f7f7f7;"/><path id="Ellipse2" serif:id="Ellipse" d="M231.024,96.357c2.601,-1.05 3.601,-5.435 2.525,-9.262c-0.928,-3.306 -3.185,-5.284 -5.226,-4.783c-2.133,0.523 -3.663,3.651 -3.282,7.444c0.447,4.45 3.228,7.715 5.983,6.601Z" style="fill:#f7f7f7;"/><path id="Ellipse3" serif:id="Ellipse" d="M177.66,50.271c2.662,-6.39 17.001,-6.669 30.517,1.406c13.582,8.114 22.733,20.959 15.278,24.687c-5.976,2.988 -8.773,-3.541 -22.365,-11.715c-13.526,-8.135 -25.977,-8.265 -23.43,-14.378Z" style="fill:#fff;"/></g></g></g></svg>