<?xml version="1.0" encoding="UTF-8" standalone="no"?><!DOCTYPE svg PUBLIC "-//W3C//DTD SVG 1.1//EN" "http://www.w3.org/Graphics/SVG/1.1/DTD/svg11.dtd"><svg width="100%" height="100%" viewBox="0 0 256 256" version="1.1" xmlns="http://www.w3.org/2000/svg" xmlns:xlink="http://www.w3.org/1999/xlink" xml:space="preserve" xmlns:serif="http://www.serif.com/" style="fill-rule:evenodd;clip-rule:evenodd;stroke-linecap:round;stroke-linejoin:round;stroke-miterlimit:1.5;"><g id="Heart--Big----Red" serif:id="Heart (Big) - Red"><path id="Ellipse" d="M10.083,100.727c-8.269,-57.477 64.756,-105.239 118.554,-27.876c55.07,-70.943 121.99,-35.622 117.776,24.431c-4.12,58.698 -67.765,125.159 -118.731,125.159c-52.206,0 -110.129,-69.804 -117.599,-121.714Z" style="fill:#ff2b39;stroke:#bf232d;stroke-width:13.33px;"/><path id="Ellipse1" serif:id="Ellipse" d="M10.083,100.727c-8.269,-57.477 64.756,-105.239 118.554,-27.876c55.07,-70.943 121.99,-35.622 117.776,24.431c-4.12,58.698 -67.765,125.159 -118.731,125.159c-52.206,0 -110.129,-69.804 -117.599,-121.714Z" style="fill:#ff2b39;"/><path id="Path" d="M44.105,55.633c37.609,-35.28 82.544,28.42 82.544,28.42c-0,0 49.784,-64.737 90.358,-33.237c52.733,40.94 -11.689,116.831 -77.171,124.761c-65.483,7.93 -134.877,-83.221 -95.731,-119.944Z" style="fill:#ff4980;fill-opacity:0.61;"/><path id="Ellipse2" serif:id="Ellipse" d="M44.468,147.246c2.962,-2.389 9.635,0.818 14.853,7.079c5.149,6.18 6.966,13.051 4.108,15.427c-2.868,2.385 -9.411,-0.615 -14.665,-6.782c-5.323,-6.248 -7.271,-13.325 -4.296,-15.724Z" style="fill:#ff4980;fill-opacity:0.61;"/><path id="Ellipse3" serif:id="Ellipse" d="M106.428,61.727c1.98,-4.683 -5.974,-13.117 -17.767,-18.839c-11.792,-5.721 -22.956,-6.563 -24.936,-1.881c-1.98,4.683 7.812,7.778 19.605,13.5c11.792,5.721 21.119,11.902 23.098,7.22Z" style="fill:#f7f7f7;"/><path id="Ellipse4" serif:id="Ellipse" d="M234.594,86.795c2.42,-0.977 3.35,-5.057 2.35,-8.617c-0.864,-3.076 -2.964,-4.917 -4.863,-4.451c-1.984,0.487 -3.408,3.397 -3.054,6.926c0.417,4.141 3.004,7.179 5.567,6.142Z" style="fill:#f7f7f7;"/><path id="Ellipse5" serif:id="Ellipse" d="M184.943,43.916c2.477,-5.946 15.819,-6.206 28.394,1.308c12.637,7.55 21.151,19.501 14.215,22.969c-5.561,2.78 -8.162,-3.294 -20.809,-10.9c-12.585,-7.569 -24.17,-7.69 -21.8,-13.377Z" style="fill:#fff;"/></g></svg>