<?xml version="1.0" encoding="UTF-8" standalone="no"?><!DOCTYPE svg PUBLIC "-//W3C//DTD SVG 1.1//EN" "http://www.w3.org/Graphics/SVG/1.1/DTD/svg11.dtd"><svg width="100%" height="100%" viewBox="0 0 256 256" version="1.1" xmlns="http://www.w3.org/2000/svg" xmlns:xlink="http://www.w3.org/1999/xlink" xml:space="preserve" xmlns:serif="http://www.serif.com/" style="fill-rule:evenodd;clip-rule:evenodd;stroke-linejoin:round;stroke-miterlimit:2;"><g id="Hourglass"><path id="Path" d="M49.665,240.784c1.837,7.361 35.316,14.466 78.881,14.466c43.565,0 75.908,-4.983 77.944,-12.181c2.036,-7.197 3.329,-21.731 1.067,-23.991c-7.301,-1.105 -151.208,-6.46 -158.639,-0.97c-3.231,6.137 -1.09,15.315 0.747,22.676Z" style="fill:#9c664d;"/><path id="Ellipse" d="M49.665,219.481c0,-6.563 35.316,-11.883 78.881,-11.883c43.565,0 78.881,5.32 78.881,11.883c-0,6.562 -35.316,14.466 -78.881,14.466c-43.565,-0 -78.881,-7.904 -78.881,-14.466Z" style="fill:#e19469;"/><path id="Ellipse1" serif:id="Ellipse" d="M53.878,220.166c0,-4.164 31.963,-7.54 71.391,-7.54c39.428,-0 72.795,-2.794 72.795,1.371c0,4.164 -33.133,15.081 -72.562,15.081c-39.427,0 -71.624,-4.747 -71.624,-8.912Z" style="fill:#78422a;fill-opacity:0.35;"/><path id="Path1" serif:id="Path" d="M60.432,35.763c0,0 -6.086,35.647 14.512,57.127c14.507,15.127 35.578,25.592 33.706,35.646c-1.872,10.054 -42.133,24.222 -48.218,63.982c-3.528,23.047 -1.873,26.049 -1.873,26.049c0,-0 25.28,9.14 69.753,9.14c44.472,0 70.768,-9.597 70.768,-9.597c0,-0 1.656,-3.002 -1.872,-26.049c-6.086,-39.76 -46.346,-53.928 -48.218,-63.982c-1.872,-10.054 19.198,-20.518 33.705,-35.647c20.599,-21.479 14.513,-57.125 14.513,-57.125l-68.816,1.828l-0,0.434l-67.96,-1.806Z" style="fill:#b1e3f3;"/><path id="Path2" serif:id="Path" d="M68.858,39.42c0,-0 -6.085,26.506 12.64,47.529c18.726,21.022 36.983,25.592 35.578,42.044c-1.172,13.731 -42.014,26.579 -49.622,65.81c-1.593,8.214 -0.937,12.339 0.468,16.452c1.037,3.038 11.704,9.597 57.58,9.597c45.879,-0 64.089,-5.027 64.112,-10.968c0.024,-5.942 0.467,-5.426 -0.314,-13.71c-3.744,-39.76 -47.514,-53.45 -48.685,-67.181c-1.406,-16.452 16.853,-21.022 35.578,-42.044c18.725,-21.023 12.694,-33.509 7.827,-35.647c-9.363,-4.113 -57.58,-0.457 -85.201,-3.656c-27.62,-3.199 -29.961,-8.226 -29.961,-8.226Z" style="fill:#def0f7;"/><path id="Path3" serif:id="Path" d="M49.197,33.936c1.013,6.539 35.316,14.466 78.88,14.466c43.565,-0 76.734,-6.101 77.946,-12.181c1.211,-6.081 3.101,-15.757 1.211,-24.49c-8.772,-4.186 -153.426,-6.447 -157.993,-0.646c-1.895,3.242 -1.057,16.311 -0.044,22.851Z" style="fill:#9c664d;"/><path id="Ellipse2" serif:id="Ellipse" d="M49.197,12.632c0,-6.562 35.316,-11.882 78.88,-11.882c43.565,-0 78.881,5.32 78.881,11.882c0,6.563 -35.316,14.466 -78.881,14.466c-43.564,0 -78.88,-7.903 -78.88,-14.466Z" style="fill:#e19469;"/><path id="Ellipse3" serif:id="Ellipse" d="M184.488,67.526c0,-2.146 1.152,-3.885 2.575,-3.885c1.422,0 2.575,1.739 2.575,3.885c-0,2.145 -1.153,3.884 -2.575,3.884c-1.423,0 -2.575,-1.739 -2.575,-3.884Z" style="fill:#fff;"/><path id="Ellipse4" serif:id="Ellipse" d="M72.694,171.592c5.661,-8.162 12.911,-12.996 16.263,-10.857c3.371,2.152 1.57,10.563 -4.09,18.851c-5.715,8.37 -13.138,13.36 -16.51,11.081c-3.35,-2.264 -1.378,-10.832 4.337,-19.075Z" style="fill:#fff;"/><path id="Path4" serif:id="Path" d="M85.885,85.284c53.527,48.698 39.682,48.467 43.062,48.668c4.514,0.269 -10.931,1.252 43.079,-48.413c1.008,-4.72 -84.649,-4.956 -86.141,-0.255Z" style="fill:#f5d34e;"/><path id="Path5" serif:id="Path" d="M98.26,75.699c-0,0 -14.757,1.639 -12.389,9.105c1.285,4.05 82.667,4.653 85.807,0.547c3.141,-4.106 -1.968,-9.108 -9.109,-10.016c-7.141,-0.908 -64.309,0.364 -64.309,0.364Z" style="fill:#f5d34e;"/><path id="Path6" serif:id="Path" d="M145.001,80.098c0,-0 -3.473,30.814 -9.171,33.045c-5.698,2.232 -16.801,-3.875 -16.801,-3.875l11.631,14.21c0,0 38.617,-35.431 36.106,-42.125c-2.511,-6.694 -21.765,-1.255 -21.765,-1.255Z" style="fill:#f2ad3d;"/><path id="Ellipse5" serif:id="Ellipse" d="M90.597,78.263c-0,-3.568 17.647,-6.46 39.417,-6.46c21.77,0 39.418,2.892 39.418,6.46c-0,3.567 -17.648,6.459 -39.418,6.459c-21.77,0 -39.417,-2.892 -39.417,-6.459Z" style="fill:#faff9f;"/><path id="Path7" serif:id="Path" d="M67.334,211.326c2.417,5.991 29.18,10.02 65.911,10.335c36.732,0.316 57.103,-4.958 59.449,-9.043c2.346,-4.085 -30.664,-51.137 -64.286,-50.526c-23.941,0.435 -66.462,35.877 -61.074,49.234Z" style="fill:#f5d34e;"/><rect id="Path8" serif:id="Path" x="128.076" y="128.646" width="2.585" height="34.881" style="fill:#f5d34e;"/><path id="Path9" serif:id="Path" d="M135.947,167.388c2.385,-0.996 16.096,3.303 33.69,19.011c17.594,15.708 20.84,21.609 20.473,24.927c-0.368,3.318 -28.388,10.423 -32.31,9.043c-3.921,-1.38 -27.125,-50.779 -21.853,-52.981Z" style="fill:#f2ad3d;"/><path id="Path10" serif:id="Path" d="M115.152,171.278c-2.418,-0.912 -43.398,23.812 -45.498,35.761c-2.1,11.95 70.949,12.787 76.618,10.864c5.668,-1.923 -40.123,-12.508 -40.167,-18.204c-0.044,-5.696 15.274,-26.072 9.047,-28.421Z" style="fill:#faff9f;"/><path id="Path11" serif:id="Path" d="M93.181,84.722c-0.055,1.291 20.238,22.263 23.263,23.254c3.026,0.991 -3.811,-19.738 -6.461,-20.67c-2.651,-0.932 -16.64,-6.305 -16.802,-2.584Z" style="fill:#faff9f;"/><path id="Ellipse6" serif:id="Ellipse" d="M86.074,191.302c5.353,-5.351 11.523,-7.554 13.703,-5.011c2.099,2.447 -0.307,8.414 -5.303,13.408c-4.996,4.995 -10.965,7.399 -13.414,5.301c-2.544,-2.179 -0.34,-8.347 5.014,-13.698Z" style="fill:#fff;"/><path id="Ellipse7" serif:id="Ellipse" d="M104.813,76.325c-0,-1.07 3.761,-1.938 8.4,-1.938c4.64,0 8.401,0.868 8.401,1.938c-0,1.07 -3.761,1.938 -8.401,1.938c-4.639,-0 -8.4,-0.868 -8.4,-1.938Z" style="fill:#fff;"/><path id="Ellipse8" serif:id="Ellipse" d="M104.813,94.411c-2.141,-1.784 -3.299,-3.808 -2.585,-4.521c0.714,-0.714 3.028,0.154 5.17,1.938c2.141,1.783 3.298,3.807 2.585,4.521c-0.714,0.713 -3.029,-0.154 -5.17,-1.938Z" style="fill:#fff;"/><path id="Ellipse9" serif:id="Ellipse" d="M65.083,69.324c-3.834,-9.114 -3.606,-17.735 0.428,-19.45c4.035,-1.716 10.491,4.068 14.505,13.11c4.112,9.264 4.1,18.391 -0.117,20.179c-4.217,1.788 -10.888,-4.502 -14.816,-13.839Z" style="fill:#fff;"/><path id="Path12" serif:id="Path" d="M68.024,50.605c0,-0 -3.935,14.724 8.357,31.533c12.292,16.809 39.461,37.993 38.771,40.048c0.147,-9.116 -20.59,-27.804 -23.263,-42.632c-2.673,-14.827 0.044,-26.233 0.044,-26.233l-23.909,-2.716Z" style="fill:#fff;fill-opacity:0.38;"/><path id="Path13" serif:id="Path" d="M117.737,129.938c-0,-0 -30.694,26.586 -37.758,35.82c-5.67,7.411 -15.758,24.986 -15.23,46.86c2.189,2.026 37.479,9.043 37.479,9.043c0,0 -3.802,-30.382 0.573,-46.126c5.434,-19.554 14.113,-43.938 14.936,-45.597Z" style="fill:#fff;fill-opacity:0.38;"/><path id="Ellipse10" serif:id="Ellipse" d="M67.592,22.853c0.078,-1.745 5.622,-2.24 12.082,-1.165c6.15,1.024 10.923,3.113 10.923,4.72c-0,1.618 -4.828,2.248 -11.052,1.361c-6.542,-0.933 -12.031,-3.158 -11.953,-4.916Z" style="fill:#9c664d;"/><path id="Ellipse11" serif:id="Ellipse" d="M104.813,41.444c-0,-1.07 2.025,-1.938 4.523,-1.938c2.498,0 4.523,0.868 4.523,1.938c0,1.071 -2.025,1.938 -4.523,1.938c-2.498,-0 -4.523,-0.867 -4.523,-1.938Z" style="fill:#e19469;"/><path id="Ellipse12" serif:id="Ellipse" d="M72.508,239.481c-0.222,-2.506 7.669,-3.517 17.623,-2.176c9.944,1.34 17.657,4.45 17.251,6.868c-0.391,2.333 -8.251,3.152 -17.579,1.899c-9.336,-1.253 -17.08,-4.171 -17.295,-6.591Z" style="fill:#e19469;fill-opacity:0.48;"/><path id="Ellipse13" serif:id="Ellipse" d="M59.585,31.489c-0.223,-2.507 7.668,-3.518 17.623,-2.176c9.943,1.34 17.656,4.449 17.251,6.867c-0.391,2.333 -8.252,3.152 -17.579,1.9c-9.337,-1.254 -17.081,-4.172 -17.295,-6.591Z" style="fill:#e19469;"/><path id="Ellipse14" serif:id="Ellipse" d="M177.186,242.977c-0,-1.07 1.736,-1.937 3.877,-1.937c2.141,-0 3.877,0.867 3.877,1.937c0,1.07 -1.736,1.938 -3.877,1.938c-2.141,0 -3.877,-0.868 -3.877,-1.938Z" style="fill:#e19469;"/><path id="Ellipse15" serif:id="Ellipse" d="M152.631,24.65c-0,-1.784 3.182,-3.23 7.108,-3.23c3.926,0 7.108,1.446 7.108,3.23c-0,1.783 -3.182,3.229 -7.108,3.229c-3.926,0 -7.108,-1.446 -7.108,-3.229Z" style="fill:#e19469;"/><path id="Ellipse16" serif:id="Ellipse" d="M143.584,233.288c0,-1.427 3.761,-2.584 8.401,-2.584c4.639,0 8.4,1.157 8.4,2.584c0,1.427 -3.761,2.584 -8.4,2.584c-4.64,-0 -8.401,-1.157 -8.401,-2.584Z" style="fill:#e19469;"/><path id="Ellipse17" serif:id="Ellipse" d="M160.385,12.377c0,-1.427 4.629,-2.584 10.339,-2.584c5.71,0 10.339,1.157 10.339,2.584c-0,1.427 -4.629,2.584 -10.339,2.584c-5.71,-0 -10.339,-1.157 -10.339,-2.584Z" style="fill:#9c664d;fill-opacity:0.49;"/><path id="Ellipse18" serif:id="Ellipse" d="M106.105,8.501c0,-0.713 2.315,-1.292 5.17,-1.292c2.855,0 5.169,0.579 5.169,1.292c0,0.714 -2.314,1.292 -5.169,1.292c-2.855,0 -5.17,-0.578 -5.17,-1.292Z" style="fill:#9c664d;fill-opacity:0.49;"/><path id="Ellipse19" serif:id="Ellipse" d="M134.538,14.315c-0,-1.071 2.025,-1.938 4.523,-1.938c2.498,-0 4.523,0.867 4.523,1.938c0,1.07 -2.025,1.938 -4.523,1.938c-2.498,-0 -4.523,-0.868 -4.523,-1.938Z" style="fill:#9c664d;fill-opacity:0.49;"/></g></svg>