<?xml version="1.0" encoding="UTF-8" standalone="no"?><!DOCTYPE svg PUBLIC "-//W3C//DTD SVG 1.1//EN" "http://www.w3.org/Graphics/SVG/1.1/DTD/svg11.dtd"><svg width="100%" height="100%" viewBox="0 0 256 256" version="1.1" xmlns="http://www.w3.org/2000/svg" xmlns:xlink="http://www.w3.org/1999/xlink" xml:space="preserve" xmlns:serif="http://www.serif.com/" style="fill-rule:evenodd;clip-rule:evenodd;stroke-linejoin:round;stroke-miterlimit:2;"><g id="Key---Gold" serif:id="Key - Gold"><path id="Composite-Path" serif:id="Composite Path" d="M98.597,68.774c0.731,-15.775 14.051,-27.857 29.751,-26.987c15.7,0.87 27.835,14.363 27.104,30.139c-0.731,15.775 -14.051,27.857 -29.751,26.987c-15.701,-0.87 -27.835,-14.363 -27.104,-30.139Zm-40.276,10.041c-1.787,38.561 27.875,71.545 66.254,73.672c38.379,2.127 70.939,-27.408 72.726,-65.969c1.787,-38.562 -27.876,-71.545 -66.254,-73.672c-38.379,-2.127 -70.939,27.408 -72.726,65.969Z" style="fill:#b25900;"/><path id="Path" d="M106.982,142.929c0,-0 -20.705,73.51 -9.001,93.524c11.704,20.014 43.587,19.304 51.434,1.785c7.846,-17.52 -3.087,-92.376 -7.534,-92.509c-4.446,-0.133 -33.202,-4.287 -34.899,-2.8Z" style="fill:#b25900;"/><path id="Path1" serif:id="Path" d="M103.993,157.108c-0,-0 -25.913,-7.164 -29.85,-3.809c-3.936,3.355 -7.049,19.672 -4.66,22.469c2.389,2.797 26.943,5.661 31.617,3.267c4.673,-2.393 3.069,-20.572 2.893,-21.927Z" style="fill:#b25900;"/><path id="Path2" serif:id="Path" d="M85.411,177.589c0,0 -2.214,15.316 0.104,17.278c2.318,1.963 5.211,1.682 7.22,0.401c2.008,-1.281 3.708,-22.018 1.092,-23.576c-2.616,-1.558 -8.332,1.85 -8.416,5.897Z" style="fill:#b25900;"/><path id="Path3" serif:id="Path" d="M97.331,193.704c-3.616,-0.946 -23.649,-4.975 -24.367,-1.35c-0.717,3.624 -3.517,18.572 0.02,19.092c3.538,0.519 22.568,3.375 24.325,2.257c1.757,-1.118 3.638,-19.052 0.022,-19.999Z" style="fill:#b25900;"/><path id="Composite-Path1" serif:id="Composite Path" d="M98.597,68.774c0.731,-15.775 14.051,-27.857 29.751,-26.987c15.7,0.87 27.835,14.363 27.104,30.139c-0.731,15.775 -14.051,27.857 -29.751,26.987c-15.701,-0.87 -27.835,-14.363 -27.104,-30.139Zm-39.898,1.88c-1.787,38.561 27.876,71.545 66.254,73.672c38.379,2.127 70.939,-27.408 72.726,-65.969c1.787,-38.562 -27.876,-71.545 -66.254,-73.672c-38.379,-2.127 -70.939,27.408 -72.726,65.969Z" style="fill:#e4a62d;"/><path id="Composite-Path2" serif:id="Composite Path" d="M98.597,68.774c0.731,-15.775 14.051,-27.857 29.751,-26.987c15.7,0.87 27.835,14.363 27.104,30.139c-0.731,15.775 -14.051,27.857 -29.751,26.987c-15.701,-0.87 -27.835,-14.363 -27.104,-30.139Zm-33.37,-2.304c-1.579,34.055 24.819,63.194 58.961,65.086c34.142,1.893 63.098,-24.179 64.676,-58.233c1.579,-34.054 -24.819,-63.194 -58.961,-65.086c-34.142,-1.892 -63.098,24.179 -64.676,58.233Z" style="fill:#f8d547;"/><path id="Ellipse" d="M76.264,41.944c-3.122,-3.97 0.721,-12.067 8.584,-18.086c7.862,-6.019 16.766,-7.68 19.887,-3.71c3.122,3.97 -4.274,9.233 -12.137,15.252c-7.862,6.019 -13.213,10.514 -16.334,6.544Z" style="fill:#fff;"/><path id="Ellipse1" serif:id="Ellipse" d="M151.954,101.563c2.325,-2.579 5.46,-3.552 7.122,-2.223c1.709,1.367 1.306,4.714 -1.027,7.535c-2.427,2.935 -5.884,4.048 -7.584,2.425c-1.649,-1.573 -0.924,-5.06 1.489,-7.737Z" style="fill:#fff;"/><path id="Path4" serif:id="Path" d="M98.386,73.308c-0.73,15.775 11.404,29.269 27.105,30.139c15.7,0.87 29.02,-11.213 29.751,-26.988c0.035,-0.763 0.039,-1.521 0.015,-2.272c-1.832,14.652 -14.615,25.554 -29.556,24.726c-14.941,-0.828 -26.652,-13.088 -27.12,-27.867c-0.093,0.745 -0.159,1.499 -0.195,2.262Z" style="fill:#fff;"/><path id="Path5" serif:id="Path" d="M98.597,68.774c-0.069,1.481 -0.023,2.944 0.127,4.376c4.094,-11.51 15.32,-19.429 28.133,-18.718c14.227,0.788 25.525,11.939 26.977,25.763c0.922,-2.594 1.484,-5.368 1.618,-8.269c0.731,-15.776 -11.404,-29.269 -27.104,-30.139c-15.7,-0.87 -29.02,11.212 -29.751,26.987Z" style="fill:#222;"/><path id="Path6" serif:id="Path" d="M111.255,137.91c3.701,-2.572 25.859,-11.269 31.088,3.849c5.229,15.117 11.113,80.922 2.984,92.309c-7.631,10.689 -39.639,8.557 -46.163,-11.147c-5.817,-17.568 4.571,-79.786 12.091,-85.011Z" style="fill:#e4a62d;"/><path id="Path7" serif:id="Path" d="M115.971,142.919c2.076,-1.733 17.159,-1.052 21.533,3.921c4.373,4.973 9.999,61.825 5.621,73.948c-4.379,12.123 -23.196,11.405 -29.866,0.163c-6.67,-11.243 -2.473,-73.705 2.712,-78.032Z" style="fill:#f8d547;"/><path id="Ellipse2" serif:id="Ellipse" d="M134.415,213.487c0.244,-5.259 2.866,-9.387 5.856,-9.221c2.991,0.166 5.217,4.563 4.974,9.821c-0.244,5.258 -2.866,9.387 -5.856,9.221c-2.991,-0.166 -5.218,-4.563 -4.974,-9.821Z" style="fill:#fff;"/><path id="Path8" serif:id="Path" d="M103.566,156.777c-0,0 -25.979,-6.995 -28.795,-3.414c-2.815,3.581 -4.911,15.604 -1.826,17.655c3.084,2.051 26.247,3.867 29.005,2.845c2.759,-1.023 1.616,-17.086 1.616,-17.086Z" style="fill:#e4a62d;"/><path id="Path9" serif:id="Path" d="M97.373,192.798c-1.79,-0.262 -18.68,-2.877 -21.659,-1.201c-2.98,1.676 -3.475,13.619 -0.715,15.415c2.761,1.796 23.237,3.775 26.594,2.305c3.358,-1.47 0.659,-15.808 -4.22,-16.519Z" style="fill:#e4a62d;"/><path id="Ellipse3" serif:id="Ellipse" d="M78.171,158.097c0.069,-1.502 2.146,-2.608 4.638,-2.47c2.493,0.138 4.456,1.468 4.387,2.97c-0.07,1.503 -2.146,2.608 -4.639,2.47c-2.492,-0.138 -4.456,-1.468 -4.386,-2.97Z" style="fill:#fff;"/><path id="Ellipse4" serif:id="Ellipse" d="M76.49,194.367c0.047,-1.001 1.094,-1.757 2.341,-1.688c1.246,0.069 2.218,0.937 2.171,1.938c-0.046,1.002 -1.094,1.758 -2.34,1.689c-1.246,-0.069 -2.218,-0.937 -2.172,-1.939Z" style="fill:#fff;"/><path id="Path10" serif:id="Path" d="M90.217,171.492c0,-0 -2.791,24.183 -2.036,24.432c0.753,0.25 13.105,1.568 13.578,-0.156c0.473,-1.725 3.566,-23.844 1.135,-24.483c-2.431,-0.638 -11.792,-0.482 -12.677,0.207Z" style="fill:#e4a62d;"/><path id="Ellipse5" serif:id="Ellipse" d="M112.013,19.43c0.097,-2.075 1.847,-3.664 3.911,-3.55c2.063,0.114 3.657,1.889 3.561,3.965c-0.096,2.075 -1.846,3.664 -3.91,3.55c-2.063,-0.115 -3.658,-1.889 -3.562,-3.965Z" style="fill:#fff;"/><path id="Path11" serif:id="Path" d="M98.012,66.63c0,1.094 0.061,2.173 0.178,3.235c1.607,-14.555 13.934,-25.874 28.903,-25.874c14.969,-0 27.296,11.319 28.903,25.874c0.117,-1.062 0.177,-2.141 0.177,-3.235c0,-16.076 -13.019,-29.108 -29.08,-29.108c-16.061,0 -29.081,13.032 -29.081,29.108Z" style="fill:#e4a62d;"/></g></svg>