<?xml version="1.0" encoding="UTF-8" standalone="no"?><!DOCTYPE svg PUBLIC "-//W3C//DTD SVG 1.1//EN" "http://www.w3.org/Graphics/SVG/1.1/DTD/svg11.dtd"><svg width="100%" height="100%" viewBox="0 0 256 256" version="1.1" xmlns="http://www.w3.org/2000/svg" xmlns:xlink="http://www.w3.org/1999/xlink" xml:space="preserve" xmlns:serif="http://www.serif.com/" style="fill-rule:evenodd;clip-rule:evenodd;stroke-linejoin:round;stroke-miterlimit:2;"><g id="Key---Sliver" serif:id="Key - Sliver"><path id="Composite-Path" serif:id="Composite Path" d="M98.456,68.563c0.57,-15.82 13.777,-28.126 29.499,-27.5c15.722,0.626 28.024,13.949 27.478,29.77c-0.547,15.834 -13.755,28.171 -29.501,27.544c-15.746,-0.627 -28.047,-13.981 -27.476,-29.814Zm-40.249,10.7c-1.439,38.75 28.639,71.466 67.185,73.002c38.545,1.536 70.843,-28.696 72.137,-67.452c1.292,-38.677 -28.793,-71.211 -67.194,-72.741c-38.402,-1.53 -70.693,28.52 -72.128,67.191Z" style="fill:#5b626a;"/><path id="Path" d="M107.632,142.92c0,0 -20.045,74.463 -8.07,94.511c11.987,20.068 44.071,18.84 51.762,0.984c7.685,-17.839 -4.176,-93.164 -8.639,-93.227c-4.463,-0.064 -33.366,-3.791 -35.053,-2.268Z" style="fill:#5b626a;"/><path id="Path1" serif:id="Path" d="M104.78,157.244c0,0 -26.085,-6.805 -30.004,-3.365c-3.92,3.442 -6.892,19.935 -4.465,22.716c2.427,2.783 27.122,5.283 31.792,2.795c4.67,-2.488 2.868,-20.783 2.677,-22.146Z" style="fill:#5b626a;"/><path id="Path2" serif:id="Path" d="M86.328,178.18c0,-0 -2.072,15.486 0.277,17.43c2.35,1.944 5.254,1.614 7.26,0.289c2.005,-1.325 3.501,-22.269 0.858,-23.798c-2.644,-1.529 -8.35,1.997 -8.395,6.079Z" style="fill:#5b626a;"/><path id="Path3" serif:id="Path" d="M98.468,194.248c-3.644,-0.897 -23.814,-4.645 -24.5,-0.976c-0.687,3.67 -3.358,18.809 0.204,19.277c3.562,0.469 22.724,3.052 24.479,1.894c1.756,-1.158 3.461,-19.297 -0.183,-20.195Z" style="fill:#5b626a;"/><path id="Composite-Path1" serif:id="Composite Path" d="M98.456,68.563c0.57,-15.82 13.777,-28.126 29.499,-27.5c15.722,0.626 28.024,13.949 27.478,29.77c-0.547,15.834 -13.755,28.171 -29.501,27.544c-15.746,-0.627 -28.047,-13.981 -27.476,-29.814Zm-39.946,2.509c-1.437,38.734 28.635,71.436 67.172,72.971c38.537,1.535 70.827,-28.683 72.121,-67.422c1.291,-38.66 -28.787,-71.181 -67.181,-72.71c-38.393,-1.529 -70.677,28.507 -72.112,67.161Z" style="fill:#bbc7db;"/><path id="Composite-Path2" serif:id="Composite Path" d="M98.456,68.563c0.57,-15.82 13.777,-28.126 29.499,-27.5c15.722,0.626 28.024,13.949 27.478,29.77c-0.547,15.834 -13.755,28.171 -29.501,27.544c-15.746,-0.627 -28.047,-13.981 -27.476,-29.814Zm-33.446,-1.788c-1.263,34.195 25.492,63.066 59.763,64.431c34.272,1.366 62.987,-25.296 64.138,-59.495c1.148,-34.137 -25.613,-62.867 -59.771,-64.227c-34.158,-1.361 -62.869,25.159 -64.13,59.291Z" style="fill:#d7e2e9;"/><path id="Ellipse" d="M75.828,42.032c-3.162,-3.926 0.606,-12.088 8.413,-18.232c7.805,-6.141 16.694,-7.94 19.858,-4.019c3.164,3.921 -4.181,9.301 -11.987,15.446c-7.809,6.147 -13.12,10.731 -16.284,6.805Z" style="fill:#fff;"/><path id="Ellipse1" serif:id="Ellipse" d="M152.276,100.626c2.299,-2.626 5.43,-3.652 7.111,-2.344c1.73,1.346 1.366,4.713 -0.94,7.583c-2.398,2.986 -5.851,4.159 -7.573,2.556c-1.671,-1.555 -0.985,-5.069 1.402,-7.795Z" style="fill:#fff;"/><path id="Path4" serif:id="Path" d="M98.292,73.112c-0.571,15.837 11.732,29.194 27.479,29.821c15.748,0.628 28.958,-11.713 29.505,-27.551c0.026,-0.765 0.022,-1.524 -0.011,-2.277c-1.663,14.726 -14.348,25.869 -29.333,25.272c-14.985,-0.597 -26.848,-12.719 -27.468,-27.535c-0.086,0.748 -0.145,1.505 -0.172,2.27Z" style="fill:#fff;"/><path id="Path5" serif:id="Path" d="M98.456,68.563c-0.054,1.486 0.007,2.951 0.173,4.385c3.981,-11.602 15.138,-19.711 27.973,-19.2c14.251,0.568 25.691,11.565 27.307,25.403c0.894,-2.616 1.424,-5.407 1.524,-8.318c0.546,-15.821 -11.756,-29.144 -27.478,-29.77c-15.722,-0.626 -28.929,11.68 -29.499,27.5Z" style="fill:#222;"/><path id="Path6" serif:id="Path" d="M111.867,137.802c3.685,-2.646 25.818,-11.742 31.236,3.383c5.422,15.137 12.103,81.436 4.061,93.078c-7.553,10.935 -39.783,9.289 -46.552,-10.535c-6.029,-17.656 3.764,-80.549 11.255,-85.926Z" style="fill:#bbc7db;"/><path id="Path7" serif:id="Path" d="M116.652,142.769c2.065,-1.777 17.208,-1.33 21.652,3.606c4.446,4.938 10.753,62.18 6.491,74.497c-4.264,12.326 -23.198,11.9 -30.029,0.64c-6.826,-11.253 -3.27,-74.306 1.886,-78.743Z" style="fill:#e4eeef;fill-opacity:0.69;"/><path id="Ellipse2" serif:id="Ellipse" d="M135.955,213.634c0.186,-5.316 2.775,-9.526 5.783,-9.406c3.007,0.119 5.296,4.524 5.112,9.84c-0.184,5.317 -2.773,9.531 -5.782,9.411c-3.009,-0.12 -5.298,-4.528 -5.113,-9.845Z" style="fill:#fff;"/><path id="Path8" serif:id="Path" d="M104.349,156.918c-0,-0 -26.151,-6.634 -28.942,-2.984c-2.793,3.652 -4.782,15.8 -1.664,17.818c3.118,2.019 26.401,3.483 29.161,2.409c2.76,-1.075 1.445,-17.243 1.445,-17.243Z" style="fill:#bbc7db;"/><path id="Path9" serif:id="Path" d="M98.501,193.332c-1.802,-0.235 -18.8,-2.606 -21.778,-0.867c-2.977,1.738 -3.36,13.804 -0.568,15.574c2.792,1.77 22.384,3.124 25.745,1.586c3.36,-1.538 1.511,-15.652 -3.399,-16.293Z" style="fill:#bbc7db;"/><path id="Ellipse3" serif:id="Ellipse" d="M78.866,158.649c0.055,-1.515 2.129,-2.662 4.633,-2.562c2.503,0.1 4.488,1.408 4.433,2.923c-0.055,1.514 -2.129,2.661 -4.632,2.562c-2.504,-0.1 -4.489,-1.409 -4.434,-2.923Z" style="fill:#fff;"/><path id="Ellipse4" serif:id="Ellipse" d="M77.53,195.248c0.037,-1.011 1.083,-1.791 2.336,-1.741c1.253,0.05 2.239,0.91 2.202,1.922c-0.037,1.012 -1.082,1.791 -2.335,1.742c-1.253,-0.05 -2.24,-0.911 -2.203,-1.923Z" style="fill:#fff;"/><path id="Path10" serif:id="Path" d="M91.096,171.956c-0,0 -2.561,24.438 -1.801,24.678c0.759,0.24 13.187,1.375 13.645,-0.374c0.457,-1.748 3.333,-24.107 0.885,-24.713c-2.449,-0.605 -11.848,-0.299 -12.729,0.409Z" style="fill:#bbc7db;"/><path id="Ellipse5" serif:id="Ellipse" d="M111.371,18.95c0.074,-2.076 1.808,-3.692 3.873,-3.61c2.065,0.082 3.679,1.832 3.605,3.908c-0.074,2.077 -1.808,3.694 -3.873,3.611c-2.065,-0.082 -3.679,-1.832 -3.605,-3.909Z" style="fill:#fff;"/><path id="Path11" serif:id="Path" d="M96.931,67.296c0,1.093 0.061,2.172 0.178,3.234c1.607,-14.554 13.934,-25.874 28.903,-25.874c14.968,0 27.295,11.32 28.902,25.874c0.118,-1.062 0.178,-2.141 0.178,-3.234c0,-16.076 -13.019,-29.108 -29.08,-29.108c-16.061,-0 -29.081,13.032 -29.081,29.108Z" style="fill:#bbc7db;"/></g></svg>