<?xml version="1.0" encoding="UTF-8" standalone="no"?><!DOCTYPE svg PUBLIC "-//W3C//DTD SVG 1.1//EN" "http://www.w3.org/Graphics/SVG/1.1/DTD/svg11.dtd"><svg width="100%" height="100%" viewBox="0 0 256 256" version="1.1" xmlns="http://www.w3.org/2000/svg" xmlns:xlink="http://www.w3.org/1999/xlink" xml:space="preserve" xmlns:serif="http://www.serif.com/" style="fill-rule:evenodd;clip-rule:evenodd;stroke-linejoin:round;stroke-miterlimit:2;"><g id="Leaf"><g><path id="Layer-2" serif:id="Layer 2" d="M120.485,8.506c1.385,-6.047 29.244,46.758 31.871,85.584c2.626,38.825 -113.196,125.565 -127.867,121.183c-14.672,-4.383 -28.849,-68.708 -5.912,-104.972c35.431,-56.02 91.009,-54.205 101.908,-101.795Z" style="fill:#36923e;"/><path id="Layer-3" serif:id="Layer 3" d="M146.395,63.121c3.5,11.349 6.163,23.173 6.89,33.925c2.627,38.825 -113.195,125.565 -127.867,121.183c-3.546,-1.06 -7.063,-5.62 -10.034,-12.441c-4.172,-24.326 3.13,-66.245 33.666,-98.157c24.868,-25.988 62.63,-36.66 97.345,-44.51Z" style="fill-opacity:0.13;"/><g id="Leaf1" serif:id="Leaf"><path id="Layer-5" serif:id="Layer 5" d="M239.218,58.768c23.045,-20.033 27.621,260.941 -212.656,171.47c-16.87,-6.282 -15.59,-73.246 32.124,-115.452c53.097,-46.969 151.167,-30.491 180.532,-56.018Z" style="fill:#5bb54f;"/><path id="Layer-6" serif:id="Layer 6" d="M227.208,77.23c7.358,-7.045 0.157,75.186 -49.671,117.076c-49.827,41.889 -136.897,20.588 -140.29,-2.464c-3.394,-23.053 19.821,-84.542 80.606,-96.754c60.786,-12.212 82.358,7.988 109.355,-17.858Z" style="fill:#85d04a;"/><path id="Layer-7" serif:id="Layer 7" d="M54.133,118.39c-33.93,41.773 -33.326,95.993 -18.276,101.63c87.061,32.606 141.975,16.297 175.513,-16.803c-32.335,39.632 -89.175,62.818 -184.785,27.01c-16.313,-6.109 -15.654,-69.289 27.548,-111.837Z" style="fill:#36923e;"/><path id="Layer-8" serif:id="Layer 8" d="M23.899,219.398c0,0 15.732,-47.826 65.821,-67.319c50.088,-19.493 60.968,-17.194 84.769,-29.057c23.802,-11.864 31.684,-22.379 31.684,-22.379c-0,0 -20.039,34.278 -79.946,48.957c-36.947,9.053 -74.916,38.262 -90.137,67.644c-8.214,15.857 -13.505,12.227 -12.191,2.154Z" style="fill:#36923e;"/><path id="Layer-9" serif:id="Layer 9" d="M145.284,100.538c-15.218,4.864 -50.605,40.08 -57.66,58.838c7.23,2.299 18.412,-8.353 18.412,-8.353c-0,0 24.942,-43.832 39.248,-50.485Z" style="fill:#36923e;"/><path id="Layer-10" serif:id="Layer 10" d="M146.671,136.39c-0,-0 40.222,1.951 61.512,15.368c-19.83,-5.713 -44.927,-10.26 -80.353,-5.296c-38.849,5.444 18.841,-10.072 18.841,-10.072Z" style="fill:#36923e;"/><path id="Layer-11" serif:id="Layer 11" d="M83.149,163.949c-0,-0 40.646,5.98 51.075,16.686c-9.539,-4.276 -40.999,-10.407 -71.591,0.033c-30.592,10.44 20.516,-16.719 20.516,-16.719Z" style="fill:#36923e;"/><path id="Layer-12" serif:id="Layer 12" d="M106.839,101.266c10.276,0.25 -17.778,34.681 -25.736,36.943c-7.958,2.263 -29.169,9.781 -29.753,2.555c-0.583,-7.227 34.57,-40.006 55.489,-39.498Z" style="fill:#9ee368;"/><path id="Layer-13" serif:id="Layer 13" d="M193.254,165.224c11.384,7.366 -19.64,60.122 -45.012,51.948c-25.373,-8.175 -14.716,-28.218 1.347,-32.307c16.063,-4.089 34.579,-25.52 43.665,-19.641Z" style="fill:#9ee368;"/><path id="Layer-14" serif:id="Layer 14" d="M88.185,192.714c14.344,-2.115 15.66,21.139 4.673,24.533c-10.988,3.394 -29.274,-2.849 -24.969,-11.391c4.305,-8.541 8.178,-11.355 20.296,-13.142Z" style="fill:#9ee368;"/><path id="Layer-15" serif:id="Layer 15" d="M235.198,81.334c8.593,0.18 2.229,39.612 -10.44,38.697c-12.67,-0.915 5.292,-38.806 10.44,-38.697Z" style="fill:#9ee368;"/></g><path id="Layer-17" serif:id="Layer 17" d="M31.301,98.563c8.113,-9.703 17.748,-14.475 20.47,-12.2c2.721,2.276 -4.54,10.267 -12.652,19.97c-8.113,9.704 -12.035,14.423 -14.757,12.148c-2.721,-2.276 -1.174,-10.214 6.939,-19.918Z" style="fill:#5bb54f;"/><path id="Layer-18" serif:id="Layer 18" d="M199.49,169.929c3.824,2.679 3.437,9.839 -0.864,15.978c-4.301,6.14 -10.897,8.949 -14.721,6.27c-3.824,-2.679 -3.437,-9.838 0.864,-15.977c4.301,-6.14 10.897,-8.949 14.721,-6.271Z" style="fill:#fff;"/><path id="Layer-19" serif:id="Layer 19" d="M214.479,137.794c2.402,0 4.353,1.95 4.353,4.353c-0,2.402 -1.951,4.353 -4.353,4.353c-2.402,-0 -4.353,-1.951 -4.353,-4.353c0,-2.403 1.951,-4.353 4.353,-4.353Z" style="fill:#fff;"/><path id="Layer-20" serif:id="Layer 20" d="M18.986,128.166c2.187,0.59 3.19,3.935 2.238,7.466c-0.952,3.53 -3.501,5.917 -5.688,5.327c-2.187,-0.59 -3.19,-3.935 -2.238,-7.465c0.953,-3.53 3.501,-5.918 5.688,-5.328Z" style="fill:#5bb54f;"/></g></g></svg>