<?xml version="1.0" encoding="UTF-8" standalone="no"?><!DOCTYPE svg PUBLIC "-//W3C//DTD SVG 1.1//EN" "http://www.w3.org/Graphics/SVG/1.1/DTD/svg11.dtd"><svg width="100%" height="100%" viewBox="0 0 256 256" version="1.1" xmlns="http://www.w3.org/2000/svg" xmlns:xlink="http://www.w3.org/1999/xlink" xml:space="preserve" xmlns:serif="http://www.serif.com/" style="fill-rule:evenodd;clip-rule:evenodd;stroke-linejoin:round;stroke-miterlimit:2;"><g id="Leaf--Border-" serif:id="Leaf (Border)"><g><path id="Layer-2" serif:id="Layer 2" d="M113.304,31.474c2.878,-3.817 7.535,-5.861 12.293,-5.397c4.758,0.465 8.931,3.371 11.017,7.673c16.044,32.406 17.145,59.392 17.145,59.392c2.537,37.501 -109.335,121.283 -123.506,117.05c-14.171,-4.233 -27.864,-66.365 -5.71,-101.392c27.989,-44.252 68.992,-51.141 88.761,-77.326Z" style="fill:none;stroke:#235d26;stroke-width:17.33px;"/><path id="Layer-5" serif:id="Layer 5" d="M221.984,56.527c3.519,-2.028 7.766,-2.358 11.557,-0.898c3.79,1.46 6.719,4.553 7.969,8.418c8.597,58.65 -11.035,221.245 -210.999,146.785c-16.294,-6.067 -12.987,-68.521 31.028,-111.514c48.056,-46.941 123.606,-24.994 160.445,-42.791Z" style="fill:none;stroke:#235d26;stroke-width:17.33px;"/><path id="Layer-21" serif:id="Layer 2" d="M113.304,31.474c2.878,-3.817 7.535,-5.861 12.293,-5.397c4.758,0.465 8.931,3.371 11.017,7.673c16.044,32.406 17.145,59.392 17.145,59.392c2.537,37.501 -109.335,121.283 -123.506,117.05c-14.171,-4.233 -27.864,-66.365 -5.71,-101.392c27.989,-44.252 68.992,-51.141 88.761,-77.326Z" style="fill:#2ca334;"/></g><g id="Leaf"><path id="Layer-51" serif:id="Layer 5" d="M221.984,56.527c3.519,-2.028 7.766,-2.358 11.557,-0.898c3.79,1.46 6.719,4.553 7.969,8.418c8.597,58.65 -11.035,221.245 -210.999,146.785c-16.294,-6.067 -12.987,-68.521 31.028,-111.514c48.056,-46.941 123.606,-24.994 160.445,-42.791Z" style="fill:#4eca3a;"/><path id="Layer-6" serif:id="Layer 6" d="M207.059,69.828c4.303,-1.195 8.917,-0.263 12.419,2.508c3.502,2.771 5.471,7.047 5.298,11.509c-0.862,28.685 -9.851,59.841 -48.439,92.281c-48.128,40.46 -132.228,19.886 -135.506,-2.38c-3.278,-22.267 19.145,-81.658 77.858,-93.454c48.174,-9.679 64.404,-3.475 88.37,-10.464Z" style="fill:#85d941;"/><path d="M40.663,201.715c4.723,-15.998 13.496,-27.953 24.906,-37.577c18.551,-15.648 43.476,-25.477 69.017,-36.183c36.423,-15.268 74.036,-32.033 97.098,-68.339c-24.986,34.272 -63.033,48.438 -99.839,61.164c-27.322,9.447 -53.841,18.253 -74.212,33.314c-14.211,10.508 -25.369,24.056 -32.163,42.601c-1.385,4.193 0.894,8.721 5.087,10.106c4.192,1.386 8.72,-0.894 10.106,-5.086Z" style="fill:#2ca334;"/><path d="M131.603,127.038c-0,-0 2.17,-16.286 11.669,-31.227c5.669,-8.917 13.865,-17.304 25.672,-21.632c-12.595,3.159 -21.867,10.965 -28.658,19.504c-11.808,14.847 -15.889,31.99 -15.889,31.99c-0.376,1.988 0.932,3.908 2.921,4.285c1.988,0.377 3.908,-0.932 4.285,-2.92Z" style="fill:#2ca334;"/><path d="M60.404,156.908c-0,0 -1.588,-12.334 2.682,-25.811c2.462,-7.769 6.779,-15.837 14.341,-22.26c-8.657,5.547 -14.149,13.284 -17.754,20.921c-6.593,13.964 -6.59,27.569 -6.59,27.569c0.115,2.02 1.849,3.567 3.87,3.451c2.02,-0.115 3.567,-1.85 3.451,-3.87Z" style="fill:#2ca334;"/><path d="M121.729,133.269c-0,-0 17.696,-5.137 42.152,-0.574c12.226,2.28 26.055,6.929 40.251,15.733c-13.623,-10.119 -27.246,-15.959 -39.428,-19.307c-25.51,-7.009 -44.729,-2.973 -44.729,-2.973c-1.965,0.484 -3.167,2.472 -2.683,4.437c0.484,1.965 2.472,3.168 4.437,2.684Z" style="fill:#2ca334;"/><path d="M56.538,167.911c0,0 20.937,-0.407 44.656,6.222c13.824,3.864 28.536,10.076 40.674,20.098c-11.471,-11.12 -25.873,-18.561 -39.547,-23.587c-23.956,-8.804 -45.628,-10.065 -45.628,-10.065c-2.024,-0.042 -3.701,1.566 -3.743,3.589c-0.043,2.023 1.565,3.7 3.588,3.743Z" style="fill:#2ca334;"/><path id="Layer-7" serif:id="Layer 7" d="M57.142,102.799c-32.773,40.348 -32.19,92.719 -17.653,98.164c84.091,31.494 139.165,21.968 171.559,-10.003c-31.232,38.28 -88.166,54.449 -180.515,19.862c-15.756,-5.901 -15.12,-66.926 26.609,-108.023Z" style="fill:#2ca334;"/><path d="M198.278,127.756c8.742,-16.136 20.284,-26.828 25.758,-23.863c5.474,2.966 2.82,18.474 -5.922,34.61c-8.742,16.135 -20.284,26.828 -25.757,23.862c-5.474,-2.966 -2.821,-18.474 5.921,-34.609Z" style="fill:#fff;"/><path d="M175.913,170.506c3.444,-2.888 7.672,-3.525 9.436,-1.421c1.764,2.103 0.399,6.156 -3.045,9.044c-3.445,2.888 -7.673,3.525 -9.437,1.421c-1.763,-2.103 -0.399,-6.156 3.046,-9.044Z" style="fill:#fff;"/></g></g></svg>