<?xml version="1.0" encoding="UTF-8" standalone="no"?><!DOCTYPE svg PUBLIC "-//W3C//DTD SVG 1.1//EN" "http://www.w3.org/Graphics/SVG/1.1/DTD/svg11.dtd"><svg width="100%" height="100%" viewBox="0 0 256 256" version="1.1" xmlns="http://www.w3.org/2000/svg" xmlns:xlink="http://www.w3.org/1999/xlink" xml:space="preserve" xmlns:serif="http://www.serif.com/" style="fill-rule:evenodd;clip-rule:evenodd;stroke-linejoin:round;stroke-miterlimit:2;"><g id="Lens"><path id="Layer-2" serif:id="Layer 2" d="M73.661,43.717c35.812,-29.999 71.66,-48.559 107.826,13.592c19.431,33.392 8.909,78.761 -29.612,103.691c-38.521,24.93 -83.436,14.76 -109.977,-13.35c-44.86,-47.511 -8.356,-70.326 31.763,-103.933Z" style="fill:url(#_Linear1);"/><path id="Layer-3" serif:id="Layer 3" d="M130.997,171.021c-0.22,-0.285 -0.422,-0.586 -0.605,-0.902c-3.4,-5.878 1.131,-14.868 10.112,-20.064c8.982,-5.196 19.035,-4.642 22.435,1.236c0.175,0.303 0.329,0.614 0.463,0.932c-3.512,3.138 -7.356,6.077 -11.527,8.777c-6.805,4.404 -13.81,7.713 -20.878,10.021Z" style="fill:#b7833c;"/><path id="Layer-4" serif:id="Layer 4" d="M59.8,26.156c38.52,-24.93 86.835,-18.84 107.825,13.593c20.99,32.432 6.757,79.003 -31.763,103.933c-38.521,24.931 -86.836,18.84 -107.826,-13.592c-20.99,-32.433 -6.757,-79.004 31.764,-103.934Z" style="fill:url(#_Linear2);"/><path id="Layer-5" serif:id="Layer 5" d="M69.937,31.264c33.039,-18.239 72.008,-11.047 86.967,16.051c14.96,27.099 0.281,63.907 -32.758,82.146c-33.039,18.239 -72.007,11.047 -86.967,-16.051c-14.96,-27.099 -0.281,-63.907 32.758,-82.146Z" style="fill:#fff;"/><path id="Layer-6" serif:id="Layer 6" d="M71.599,34.016c33.039,-18.239 71.873,-11.292 86.666,15.505c14.793,26.796 -0.021,63.36 -33.06,81.599c-33.039,18.239 -71.872,11.292 -86.665,-15.505c-14.793,-26.796 0.02,-63.36 33.059,-81.599Z" style="fill:#6ec4d0;"/><path id="Layer-7" serif:id="Layer 7" d="M73.848,36.835c30.155,-16.647 65.605,-10.293 79.115,14.18c13.51,24.473 -0.003,57.856 -30.157,74.503c-30.154,16.647 -65.605,10.293 -79.115,-14.18c-13.51,-24.473 0.003,-57.857 30.157,-74.503Z" style="fill:url(#_Linear3);"/><path id="Layer-8" serif:id="Layer 8" d="M169.295,141.234c-2.946,-3.76 -9.616,-4.736 -14.441,-3.093c-5.458,1.86 -15.197,9.412 -18.305,14.249c-2.759,4.292 -3.289,11.011 -0.343,14.771l1.386,1.769c2.946,3.759 11.255,7.561 15.015,4.615l19.464,-15.251c3.76,-2.946 1.556,-11.532 -1.39,-15.292l-1.386,-1.768Z" style="fill:url(#_Linear4);"/><path id="Layer-9" serif:id="Layer 9" d="M197.054,155.649c-8.407,-9.294 -19.017,-7.618 -27.666,-4.883c-8.649,2.736 -20.738,13.153 -24.229,21.296c-3.491,8.143 -5.123,18.266 3.284,27.56c0,-0 43.842,61.143 68.523,41.776c5.018,-3.938 9.671,-8.979 14.595,-13.035c24.612,-20.273 -34.507,-72.714 -34.507,-72.714Z" style="fill:url(#_Linear5);"/><path id="Layer-10" serif:id="Layer 10" d="M204.315,211.366c10.933,-9.327 24.642,-11.234 30.595,-4.257c5.952,6.978 1.909,20.215 -9.025,29.542c-10.933,9.327 -24.642,11.235 -30.595,4.257c-5.952,-6.977 -1.908,-20.215 9.025,-29.542Z" style="fill:#b7833c;"/><path id="Layer-11" serif:id="Layer 11" d="M82.438,17.723c11.112,-3.526 22.377,-4.072 21.978,-1.237c-0.487,3.454 -9.335,1.876 -20.447,5.402c-11.113,3.526 -18.763,10.805 -19.821,7.375c-0.8,-2.592 7.178,-8.014 18.29,-11.54Z" style="fill:#fff;"/><path id="Layer-12" serif:id="Layer 12" d="M93.473,30.496c11.956,-3.537 22.929,-2.129 24.487,3.141c1.559,5.27 -6.882,12.42 -18.838,15.957c-11.956,3.537 -22.928,2.129 -24.487,-3.141c-1.559,-5.27 6.882,-12.42 18.838,-15.957Z" style="fill:#fff;"/><path id="Layer-13" serif:id="Layer 13" d="M69.49,123.432c4.183,1.339 7.107,3.903 6.525,5.724c-0.583,1.82 -4.452,2.211 -8.636,0.872c-4.183,-1.339 -7.107,-3.904 -6.525,-5.724c0.583,-1.82 4.452,-2.211 8.636,-0.872Z" style="fill:#fff;"/><path id="Layer-14" serif:id="Layer 14" d="M54.986,119.04c0.847,-0.271 1.755,0.196 2.026,1.043c0.272,0.846 -0.195,1.754 -1.042,2.026c-0.847,0.271 -1.755,-0.196 -2.026,-1.042c-0.272,-0.847 0.196,-1.755 1.042,-2.027Z" style="fill:#fff;"/><path id="Layer-15" serif:id="Layer 15" d="M129.296,33.228c3.92,1.281 6.525,4.087 5.815,6.261c-0.711,2.174 -4.47,2.899 -8.39,1.618c-3.92,-1.281 -6.526,-4.086 -5.815,-6.26c0.71,-2.175 4.47,-2.9 8.39,-1.619Z" style="fill:#fff;"/><path id="Layer-16" serif:id="Layer 16" d="M109.176,14.748c1.032,-0.342 2.147,0.219 2.488,1.251c0.341,1.031 -0.219,2.146 -1.251,2.487c-1.032,0.341 -2.146,-0.219 -2.488,-1.251c-0.341,-1.032 0.22,-2.146 1.251,-2.487Z" style="fill:#fff;"/><path id="Layer-17" serif:id="Layer 17" d="M55.857,142.766c0.602,-1.282 3.074,-1.391 5.515,-0.244c2.441,1.147 3.934,3.12 3.332,4.402c-0.603,1.282 -3.074,1.392 -5.516,0.245c-2.441,-1.148 -3.934,-3.12 -3.331,-4.403Z" style="fill:#fff;"/><path id="Layer-18" serif:id="Layer 18" d="M181.01,154.017c2.059,-1.825 12.359,6.425 22.988,18.412c10.629,11.987 17.587,23.201 15.528,25.026c-2.059,1.826 -8.928,-10.208 -19.557,-22.195c-10.628,-11.987 -21.018,-19.417 -18.959,-21.243Z" style="fill:#fff;"/><path id="Layer-19" serif:id="Layer 19" d="M163.243,143.214c1.89,1.961 2.42,4.521 1.184,5.712c-1.236,1.191 -3.774,0.567 -5.664,-1.395c-1.89,-1.961 -2.421,-4.52 -1.184,-5.711c1.236,-1.192 3.774,-0.567 5.664,1.394Z" style="fill:#fff;"/><path id="Layer-20" serif:id="Layer 20" d="M209.981,209.483c7.528,-5.412 16.797,-5.413 20.687,-0.003c3.89,5.41 0.936,14.196 -6.592,19.608c-7.527,5.412 -16.797,5.414 -20.686,0.003c-3.89,-5.41 -0.936,-14.196 6.591,-19.608Z" style="fill:#c8934a;"/></g><defs><linearGradient id="_Linear1" x1="0" y1="0" x2="1" y2="0" gradientUnits="userSpaceOnUse" gradientTransform="matrix(38.9019,-76.4348,76.4348,38.9019,123.584,159.514)"><stop offset="0" style="stop-color:#f9af4a;stop-opacity:1"/><stop offset="1" style="stop-color:#ffc950;stop-opacity:1"/></linearGradient><linearGradient id="_Linear2" x1="0" y1="0" x2="1" y2="0" gradientUnits="userSpaceOnUse" gradientTransform="matrix(-44.2398,118.573,-118.573,-44.2398,139.654,26.2209)"><stop offset="0" style="stop-color:#fff49a;stop-opacity:1"/><stop offset="1" style="stop-color:#ffef68;stop-opacity:1"/></linearGradient><linearGradient id="_Linear3" x1="0" y1="0" x2="1" y2="0" gradientUnits="userSpaceOnUse" gradientTransform="matrix(7.02662,71.8557,-71.8557,7.02662,94.0533,33.6133)"><stop offset="0" style="stop-color:#fff;stop-opacity:0.96"/><stop offset="1" style="stop-color:#fff;stop-opacity:0"/></linearGradient><linearGradient id="_Linear4" x1="0" y1="0" x2="1" y2="0" gradientUnits="userSpaceOnUse" gradientTransform="matrix(-8.28398,25.3114,-25.3114,-8.28398,157.685,139.283)"><stop offset="0" style="stop-color:#fff49a;stop-opacity:1"/><stop offset="1" style="stop-color:#ffef68;stop-opacity:1"/></linearGradient><linearGradient id="_Linear5" x1="0" y1="0" x2="1" y2="0" gradientUnits="userSpaceOnUse" gradientTransform="matrix(22.8482,-60.8425,60.8425,22.8482,173.022,222.678)"><stop offset="0" style="stop-color:#f9af4a;stop-opacity:1"/><stop offset="1" style="stop-color:#ffc950;stop-opacity:1"/></linearGradient></defs></svg>