<?xml version="1.0" encoding="UTF-8" standalone="no"?><!DOCTYPE svg PUBLIC "-//W3C//DTD SVG 1.1//EN" "http://www.w3.org/Graphics/SVG/1.1/DTD/svg11.dtd"><svg width="100%" height="100%" viewBox="0 0 256 256" version="1.1" xmlns="http://www.w3.org/2000/svg" xmlns:xlink="http://www.w3.org/1999/xlink" xml:space="preserve" xmlns:serif="http://www.serif.com/" style="fill-rule:evenodd;clip-rule:evenodd;stroke-linejoin:round;stroke-miterlimit:2;"><g id="Lock---Gold" serif:id="Lock - Gold"><path id="Path" d="M42.565,114.431c15.307,-15.178 164.351,-18.361 173.481,3.711c9.092,21.976 2.184,108.607 -12.344,122.296c-13.299,12.532 -128.528,14.199 -147.8,0.733c-16.744,-11.698 -27.817,-112.383 -13.337,-126.74Z" style="fill:url(#_Linear1);"/><path id="Path1" serif:id="Path" d="M66.548,124.713c-3.374,-0.358 -3.488,54.751 -1.677,72.095c1.806,17.289 6.242,35.132 12.914,43.325c6.659,8.176 70.327,11.478 115.04,-1.014c5.49,-1.533 2.076,-100.896 1.544,-105.343c-0.532,-4.45 -46.5,-0.438 -127.821,-9.063Z" style="fill:#f8d547;"/><path id="Ellipse" d="M41.725,116.066c0.159,-8.992 39.6,-15.665 87.913,-14.893c48.115,0.768 86.723,8.634 86.415,17.558c-0.31,8.907 -39.3,15.552 -87.266,14.852c-48.162,-0.704 -87.222,-8.541 -87.062,-17.517Z" style="fill:#ffef6f;"/><path id="Path2" serif:id="Path" d="M211.838,120.253c-0,-0 -19.369,7.747 -29.594,11.115c1.191,49.044 -7.027,114.105 -7.027,114.105c-0,-0 19.078,-2.306 27.857,-10.11c8.788,-7.81 20.385,-68.073 8.764,-115.11Z" style="fill:#ffef6f;"/><path id="Ellipse1" serif:id="Ellipse" d="M175.917,190.037c-1.472,-4.126 0.817,-8.447 5.116,-9.647c4.297,-1.201 8.97,1.174 10.438,5.302c1.465,4.125 -0.826,8.437 -5.119,9.636c-4.291,1.199 -8.963,-1.168 -10.435,-5.291Z" style="fill:#fff;"/><path id="Ellipse2" serif:id="Ellipse" d="M168.171,153.382c1.009,-8.625 11.268,-14.522 22.901,-13.161c11.625,1.36 20.195,9.449 19.157,18.058c-1.037,8.597 -11.27,14.469 -22.865,13.126c-11.605,-1.345 -20.203,-9.409 -19.193,-18.023Z" style="fill:#fff;"/><path id="Ellipse3" serif:id="Ellipse" d="M157.537,128.344c0.692,-4.194 8.309,-6.425 17.005,-4.982c8.688,1.442 15.155,6.004 14.452,10.188c-0.703,4.181 -8.298,6.408 -16.975,4.975c-8.686,-1.433 -15.174,-5.991 -14.482,-10.181Z" style="fill:#ffef6f;"/><path id="Ellipse4" serif:id="Ellipse" d="M65.769,115.193c0.231,-0.673 13.021,-3.718 28.886,-3.093c16.025,0.631 28.518,-6.145 28.846,-0.461c0.333,5.75 -16.114,15.907 -32.488,15.153c-16.209,-0.746 -27.06,-6.293 -25.244,-11.599Z" style="fill:#b5a728;fill-opacity:0.35;"/><path id="Ellipse5" serif:id="Ellipse" d="M137.945,110.247c0.404,-0.625 17.434,0.343 30.032,2.043c15.603,2.104 25.163,3.594 25.308,4.931c0.605,5.595 -16.058,12.691 -32.066,8.933c-16.265,-3.818 -26.486,-10.94 -23.274,-15.907Z" style="fill:#b5a728;fill-opacity:0.35;"/><path id="Path3" serif:id="Path" d="M75.057,113.495c-2.095,-12.749 -34.135,-102.73 55.293,-107.864c74.91,-4.302 75.74,59.97 63.394,104.452c-6.511,23.462 -40.724,11.543 -39.773,0.499c0.953,-11.065 16.022,-73.579 -17.167,-67.866c-44.126,7.596 -21.521,57.328 -20.376,66.043c2.371,18.064 -39.28,17.455 -41.371,4.736Z" style="fill:url(#_Linear2);"/><path id="Composite-Path" serif:id="Composite Path" d="M166.367,112.65c0.965,-11.051 16.212,-73.46 -16.907,-67.788c15.981,11.218 0.9,53.858 0.917,64.689c0.017,10.485 15.163,14.26 26.41,13.538c-6.238,-2.472 -10.783,-6.288 -10.42,-10.439Zm-91.31,0.845c0.974,5.927 10.544,9.226 20.236,9.234c-4.132,-1.563 -6.532,-4.125 -7.618,-7.145c-3.118,-8.663 -33.966,-102.631 55.357,-107.769c5.827,-0.335 11.699,0.59 16.658,1.046c-8.097,-2.136 -18.139,-3.874 -29.34,-3.23c-89.428,5.134 -57.388,95.115 -55.293,107.864Z" style="fill:#8b9eb4;"/><path id="Composite-Path1" serif:id="Composite Path" d="M178.429,120.11c5.926,-1.081 11.177,-4.741 13.305,-12.41c11.639,-41.946 7.376,-100.891 -55.157,-99.231c-18.486,0.491 -30.022,8.867 -39.013,16.048c7.838,-3.607 11.49,-8.116 23.677,-8.816c70.717,-4.06 71.593,56.469 59.995,98.383c-0.659,2.381 -1.617,4.376 -2.807,6.026Zm-71.329,-1.426c7.067,-1.655 12.49,-5.615 11.618,-12.257c-0.867,-6.588 -17.1,-39.614 -1.135,-55.556c-31.508,11.273 -10.4,54.288 -9.382,61.96c0.299,2.256 -0.127,4.201 -1.101,5.853Z" style="fill:#fff;"/><path id="Ellipse6" serif:id="Ellipse" d="M132.851,16.977c1.413,-3.809 12.122,-3.938 23.902,-0.293c11.76,3.64 20.125,9.664 18.704,13.457c-1.421,3.791 -12.084,3.929 -23.836,0.305c-11.77,-3.631 -20.183,-9.662 -18.77,-13.469Z" style="fill:#fff;"/><path id="Ellipse7" serif:id="Ellipse" d="M172.065,41.97c0.452,-2.742 3.326,-4.538 6.418,-4.009c3.089,0.527 5.225,3.178 4.77,5.918c-0.454,2.739 -3.326,4.532 -6.414,4.006c-3.088,-0.526 -5.227,-3.174 -4.774,-5.915Z" style="fill:#fff;"/><path id="Ellipse8" serif:id="Ellipse" d="M90.993,107.368c0.493,-3.106 3.716,-5.155 7.2,-4.575c3.482,0.579 5.901,3.566 5.405,6.669c-0.495,3.101 -3.715,5.147 -7.194,4.57c-3.48,-0.577 -5.903,-3.559 -5.411,-6.664Z" style="fill:#fff;"/><path id="Ellipse9" serif:id="Ellipse" d="M171.448,114.984c0.256,-1.546 1.708,-2.591 3.243,-2.335c1.535,0.255 2.57,1.715 2.313,3.26c-0.257,1.544 -1.71,2.589 -3.243,2.334c-1.534,-0.255 -2.57,-1.714 -2.313,-3.259Z" style="fill:#fff;"/><path id="Path4" serif:id="Path" d="M105.586,185.134c1.553,7.923 7.703,13.764 15.454,15.749c-3.51,8.03 -8.861,20.572 -8.706,22.079c0.23,2.235 25.687,0.921 28.207,-0.651c1.649,-1.028 -2.519,-13.496 -5.601,-21.999c10.976,-3.657 17.989,-14.321 15.941,-24.996c-2.212,-11.542 -14.169,-18.713 -26.702,-15.996c-12.533,2.717 -20.855,14.284 -18.593,25.814Z" style="fill:#fbff9b;"/><path id="Path5" serif:id="Path" d="M112.931,185.989c1.549,7.921 7.693,13.761 15.441,15.746c-3.514,8.027 -8.872,20.566 -8.718,22.073c0.229,2.235 25.68,0.92 28.2,-0.651c1.65,-1.028 -2.51,-13.493 -5.586,-21.994c10.976,-3.655 17.993,-14.318 15.954,-24.99c-2.204,-11.539 -14.153,-18.708 -26.685,-15.992c-12.53,2.717 -20.858,14.281 -18.606,25.808Z" style="fill:#1d2831;"/><path id="Path6" serif:id="Path" d="M119.085,185.672c1.542,7.92 7.68,13.758 15.424,15.744c-3.518,8.025 -8.881,20.562 -8.728,22.069c0.227,2.234 25.667,0.919 28.186,-0.651c1.65,-1.028 -2.499,-13.49 -5.569,-21.989c10.973,-3.656 17.994,-14.316 15.962,-24.986c-2.196,-11.536 -14.136,-18.705 -26.663,-15.989c-12.526,2.715 -20.857,14.278 -18.612,25.802Z" style="fill:#1a2229;fill-opacity:0.26;"/></g><defs><linearGradient id="_Linear1" x1="0" y1="0" x2="1" y2="0" gradientUnits="userSpaceOnUse" gradientTransform="matrix(171.981,-11.7067,11.7067,171.981,29.2962,160.272)"><stop offset="0" style="stop-color:#ff9326;stop-opacity:1"/><stop offset="0.01" style="stop-color:#ff9326;stop-opacity:1"/><stop offset="0.91" style="stop-color:#f8d547;stop-opacity:1"/><stop offset="1" style="stop-color:#f8d547;stop-opacity:1"/></linearGradient><linearGradient id="_Linear2" x1="0" y1="0" x2="1" y2="0" gradientUnits="userSpaceOnUse" gradientTransform="matrix(12.0053,-240.722,240.722,12.0053,128.975,241.979)"><stop offset="0" style="stop-color:#8b9eb6;stop-opacity:1"/><stop offset="0.04" style="stop-color:#8b9eb6;stop-opacity:1"/><stop offset="1" style="stop-color:#dceeed;stop-opacity:1"/></linearGradient></defs></svg>