<?xml version="1.0" encoding="UTF-8" standalone="no"?><!DOCTYPE svg PUBLIC "-//W3C//DTD SVG 1.1//EN" "http://www.w3.org/Graphics/SVG/1.1/DTD/svg11.dtd"><svg width="100%" height="100%" viewBox="0 0 256 256" version="1.1" xmlns="http://www.w3.org/2000/svg" xmlns:xlink="http://www.w3.org/1999/xlink" xml:space="preserve" xmlns:serif="http://www.serif.com/" style="fill-rule:evenodd;clip-rule:evenodd;stroke-linejoin:round;stroke-miterlimit:2;"><g id="Lock---Sliver" serif:id="Lock - Sliver"><path id="Path" d="M43.109,112.964c15.484,-14.787 164.167,-16.462 173.145,5.367c8.959,21.785 1.528,107.718 -13.162,121.227c-13.463,12.381 -129.333,12.838 -148.506,-0.811c-16.63,-11.841 -26.145,-111.777 -11.477,-125.783Z" style="fill:url(#_Linear1);"/><path id="Path1" serif:id="Path" d="M66.891,123.334c-3.362,-0.387 -4.247,54.102 -2.677,71.335c1.571,17.209 5.774,35.029 12.362,43.27c6.58,8.232 70.535,12.198 115.592,0.188c5.529,-1.473 2.816,-100.184 2.316,-104.582c-0.499,-4.399 -46.473,-0.896 -127.593,-10.211Z" style="fill:#e4eeef;"/><path id="Ellipse" d="M42.246,114.566c0.295,-8.852 39.713,-15.031 87.886,-13.799c47.999,1.228 86.486,9.353 86.123,18.144c-0.363,8.786 -39.384,14.958 -87.314,13.79c-48.104,-1.172 -86.989,-9.29 -86.695,-18.135Z" style="fill:#c8d0d8;"/><path id="Path2" serif:id="Path" d="M217.302,122.022c-0,-0 -25.001,10.366 -34.919,9.024c0.807,48.553 -6.125,110.235 -6.125,110.235c0,-0 15.736,-0.793 24.617,-8.492c8.882,-7.699 17.964,-31.407 16.427,-110.767Z" style="fill:#ecf7f8;"/><path id="Ellipse1" serif:id="Ellipse" d="M180.575,188.579c-1.442,-4.112 0.886,-8.377 5.202,-9.525c4.317,-1.147 8.982,1.257 10.422,5.369c1.441,4.111 -0.888,8.372 -5.201,9.519c-4.313,1.148 -8.98,-1.252 -10.423,-5.363Z" style="fill:#fff;"/><path id="Ellipse2" serif:id="Ellipse" d="M173.115,152.166c1.082,-8.52 11.388,-14.246 23.011,-12.785c11.616,1.46 20.14,9.544 19.047,18.053c-1.091,8.506 -11.379,14.222 -22.985,12.773c-11.612,-1.45 -20.155,-9.526 -19.073,-18.041Z" style="fill:#fff;"/><path id="Ellipse3" serif:id="Ellipse" d="M157.717,127.815c0.729,-4.13 8.358,-6.255 17.033,-4.745c8.67,1.508 15.097,6.074 14.362,10.198c-0.733,4.122 -8.346,6.247 -17.01,4.745c-8.67,-1.503 -15.113,-6.068 -14.385,-10.198Z" style="fill:#c8d0d8;"/><path id="Ellipse4" serif:id="Ellipse" d="M66.246,113.943c3.372,-4.689 13.041,-3.533 28.861,-2.762c15.984,0.779 28.524,-5.771 28.791,-0.17c0.269,5.668 -16.266,15.521 -32.61,14.615c-16.173,-0.897 -28.413,-6.994 -25.042,-11.683Z" style="fill:#5d6a78;fill-opacity:0.11;"/><path id="Ellipse5" serif:id="Ellipse" d="M137.65,112.886c4.358,-6.053 21.09,-7.367 33.652,-5.569c15.563,2.228 22.084,8.562 22.219,9.882c0.563,5.523 -16.141,12.36 -32.105,8.493c-16.211,-3.927 -28.124,-6.754 -23.766,-12.806Z" style="fill:#5d6a78;fill-opacity:0.11;"/><path id="Path3" serif:id="Path" d="M75.536,112.362c-1.92,-12.569 -32.511,-100.971 56.303,-105.137c74.409,-3.491 74.814,59.342 62.193,102.943c-6.68,23.077 -40.764,10.976 -39.713,0.102c1.054,-10.884 16.615,-72.051 -16.447,-66.78c-43.973,7.011 -22.046,56.026 -21.002,64.615c2.167,17.826 -39.417,16.813 -41.334,4.257Z" style="fill:url(#_Linear2);"/><path id="Composite-Path" serif:id="Composite Path" d="M166.677,112.429c1.058,-10.874 16.758,-71.952 -16.237,-66.72c15.802,11.135 0.387,52.848 0.302,63.509c-0.082,10.332 15.012,14.205 26.254,13.604c-6.211,-2.5 -10.718,-6.306 -10.319,-10.393Zm-91.141,-0.067c0.893,5.849 10.4,9.196 20.077,9.299c-4.105,-1.582 -6.468,-4.13 -7.515,-7.117c-2.999,-8.561 -32.417,-100.9 56.309,-105.071c5.789,-0.272 11.611,0.684 16.53,1.175c-8.02,-2.157 -17.972,-3.945 -29.098,-3.423c-88.814,4.166 -58.223,92.568 -56.303,105.137Z" style="fill:#939ba9;"/><path id="Composite-Path1" serif:id="Composite Path" d="M178.66,119.9c5.928,-1.007 11.2,-4.564 13.382,-12.098c11.903,-41.112 13.12,-98.186 -57.125,-94.906c-18.341,0.857 -27.344,7.816 -36.36,14.74c7.829,-3.448 12.021,-10.112 24.131,-10.68c70.277,-3.295 70.711,55.926 58.823,97.032c-0.676,2.341 -1.649,4.297 -2.851,5.912Zm-71.212,-2.11c7.073,-1.561 12.531,-5.409 11.734,-11.959c-0.792,-6.491 -16.586,-39.082 -0.515,-54.545c-31.485,10.738 -10.979,53.184 -10.052,60.748c0.272,2.226 -0.176,4.138 -1.167,5.756Z" style="fill:#fff;"/><path id="Ellipse6" serif:id="Ellipse" d="M134.205,18.311c1.442,-3.702 12.079,-3.728 23.746,-0.061c11.652,3.662 19.917,9.622 18.473,13.314c-1.444,3.691 -12.048,3.725 -23.699,0.072c-11.665,-3.657 -19.962,-9.624 -18.52,-13.325Z" style="fill:#fff;"/><path id="Ellipse7" serif:id="Ellipse" d="M172.954,43.096c0.472,-2.678 3.345,-4.407 6.416,-3.861c3.069,0.546 5.173,3.158 4.699,5.835c-0.473,2.676 -3.344,4.403 -6.413,3.859c-3.069,-0.545 -5.174,-3.156 -4.702,-5.833Z" style="fill:#fff;"/><path id="Path4" serif:id="Path" d="M105.151,183.493c1.463,7.882 7.558,13.748 15.307,15.801c-3.609,7.949 -9.121,20.38 -8.983,21.883c0.205,2.229 25.774,1.183 28.319,-0.357c1.667,-1.007 -2.391,-13.463 -5.394,-21.952c11.042,-3.522 18.173,-14.042 16.224,-24.654c-2.106,-11.46 -13.999,-18.68 -26.567,-16.117c-12.568,2.563 -21.033,13.938 -18.906,25.396Z" style="fill:#fff;"/><path id="Path5" serif:id="Path" d="M112.5,184.417c1.46,7.881 7.554,13.746 15.3,15.798c-3.61,7.948 -9.125,20.378 -8.987,21.88c0.205,2.23 25.769,1.183 28.315,-0.356c1.666,-1.008 -2.387,-13.462 -5.388,-21.949c11.041,-3.522 18.174,-14.041 16.227,-24.651c-2.101,-11.459 -13.992,-18.678 -26.558,-16.115c-12.566,2.563 -21.032,13.936 -18.909,25.393Z" style="fill:#141b21;"/><path id="Path6" serif:id="Path" d="M118.667,184.165c1.458,7.88 7.546,13.743 15.288,15.796c-3.61,7.946 -9.126,20.373 -8.989,21.876c0.205,2.229 25.758,1.182 28.303,-0.357c1.666,-1.008 -2.381,-13.459 -5.379,-21.944c11.037,-3.521 18.17,-14.038 16.228,-24.647c-2.097,-11.456 -13.981,-18.674 -26.541,-16.112c-12.563,2.563 -21.028,13.934 -18.91,25.388Z" style="fill:#263540;fill-opacity:0.26;"/></g><defs><linearGradient id="_Linear1" x1="0" y1="0" x2="1" y2="0" gradientUnits="userSpaceOnUse" gradientTransform="matrix(171.981,-9.38223,9.38223,171.981,46.5361,159.126)"><stop offset="0" style="stop-color:#939cab;stop-opacity:1"/><stop offset="0.01" style="stop-color:#939cab;stop-opacity:1"/><stop offset="0.91" style="stop-color:#ced7dd;stop-opacity:1"/><stop offset="1" style="stop-color:#ced7dd;stop-opacity:1"/></linearGradient><linearGradient id="_Linear2" x1="0" y1="0" x2="1" y2="0" gradientUnits="userSpaceOnUse" gradientTransform="matrix(14.9003,-237.955,237.955,14.9003,145.036,241.936)"><stop offset="0" style="stop-color:#c0c8cf;stop-opacity:1"/><stop offset="0.04" style="stop-color:#c0c8cf;stop-opacity:1"/><stop offset="1" style="stop-color:#e5eeef;stop-opacity:1"/></linearGradient></defs></svg>