<?xml version="1.0" encoding="UTF-8" standalone="no"?><!DOCTYPE svg PUBLIC "-//W3C//DTD SVG 1.1//EN" "http://www.w3.org/Graphics/SVG/1.1/DTD/svg11.dtd"><svg width="100%" height="100%" viewBox="0 0 256 256" version="1.1" xmlns="http://www.w3.org/2000/svg" xmlns:xlink="http://www.w3.org/1999/xlink" xml:space="preserve" xmlns:serif="http://www.serif.com/" style="fill-rule:evenodd;clip-rule:evenodd;stroke-linejoin:round;stroke-miterlimit:2;"><g id="Magic"><g><g><path d="M154.182,117.343l-52.364,-0l-0,107.737c-0,14.45 11.732,26.182 26.182,26.182c14.45,0 26.182,-11.732 26.182,-26.182l0,-107.737Z" style="fill:#343434;"/><path d="M148.752,123.973l-24.769,0l-0,101.763c-0,6.836 5.549,12.385 12.384,12.385c6.836,0 12.385,-5.549 12.385,-12.385l0,-101.763Z" style="fill:#3f454b;"/><path d="M146.952,135.18c0,-2.415 -1.96,-4.375 -4.375,-4.375c-2.415,-0 -4.375,1.96 -4.375,4.375l-0,85.481c-0,2.415 1.96,4.375 4.375,4.375c2.415,0 4.375,-1.96 4.375,-4.375l0,-85.481Z" style="fill:#586169;"/><path d="M154.182,117.343l-52.364,-0l-0,-14.992c-0,-14.45 11.732,-26.182 26.182,-26.182c14.45,-0 26.182,11.732 26.182,26.182l0,14.992Z" style="fill:#a2abb4;"/><path d="M149.96,115.042l-43.92,-0l-0,-13.593c-0,-12.121 9.84,-21.961 21.96,-21.961c12.12,0 21.96,9.84 21.96,21.961l0,13.593Z" style="fill:#c6cdd4;"/><path d="M149.947,114.975l-38.334,0l0,-15.879c0,-10.579 8.589,-19.167 19.167,-19.167c10.579,-0 19.167,8.588 19.167,19.167l0,15.879Z" style="fill:#d0dae4;"/><path d="M126.822,84.829c1.887,-3.269 7.079,-3.809 11.587,-1.206c4.508,2.602 6.636,7.369 4.749,10.637c-1.887,3.268 -7.079,3.809 -11.587,1.206c-4.508,-2.603 -6.636,-7.369 -4.749,-10.637Z" style="fill:#fff;"/></g><path d="M128,5.582c6.744,0 11.01,13.759 11.01,13.759c0,0 14.404,-0.194 16.489,6.22c2.084,6.414 -9.684,14.723 -9.684,14.723c0,0 4.636,13.639 -0.82,17.603c-5.456,3.965 -16.995,-4.659 -16.995,-4.659c0,-0 -11.539,8.624 -16.995,4.659c-5.456,-3.964 -0.82,-17.603 -0.82,-17.603c-0,0 -11.768,-8.309 -9.684,-14.723c2.085,-6.414 16.489,-6.22 16.489,-6.22c-0,0 4.266,-13.759 11.01,-13.759Z" style="fill:#fff;"/><g><path d="M49.876,112.85c4.971,0 8.116,10.142 8.116,10.142c-0,-0 10.616,-0.144 12.153,4.584c1.536,4.728 -7.138,10.853 -7.138,10.853c0,-0 3.417,10.053 -0.604,12.975c-4.022,2.922 -12.527,-3.435 -12.527,-3.435c-0,0 -8.505,6.357 -12.527,3.435c-4.022,-2.922 -0.604,-12.975 -0.604,-12.975c-0,-0 -8.674,-6.125 -7.138,-10.853c1.536,-4.728 12.153,-4.584 12.153,-4.584c0,-0 3.145,-10.142 8.116,-10.142Z" style="fill:#fff;"/><path d="M206.124,112.85c4.971,0 8.116,10.142 8.116,10.142c-0,-0 10.617,-0.144 12.153,4.584c1.536,4.728 -7.138,10.853 -7.138,10.853c0,-0 3.418,10.053 -0.604,12.975c-4.022,2.922 -12.527,-3.435 -12.527,-3.435c0,0 -8.505,6.357 -12.527,3.435c-4.021,-2.922 -0.604,-12.975 -0.604,-12.975c-0,-0 -8.674,-6.125 -7.138,-10.853c1.537,-4.728 12.153,-4.584 12.153,-4.584c0,-0 3.145,-10.142 8.116,-10.142Z" style="fill:#fff;"/></g></g></g></svg>