<?xml version="1.0" encoding="UTF-8" standalone="no"?><!DOCTYPE svg PUBLIC "-//W3C//DTD SVG 1.1//EN" "http://www.w3.org/Graphics/SVG/1.1/DTD/svg11.dtd"><svg width="100%" height="100%" viewBox="0 0 256 256" version="1.1" xmlns="http://www.w3.org/2000/svg" xmlns:xlink="http://www.w3.org/1999/xlink" xml:space="preserve" xmlns:serif="http://www.serif.com/" style="fill-rule:evenodd;clip-rule:evenodd;stroke-linejoin:round;stroke-miterlimit:2;"><g id="Magnet"><path id="Path" d="M23.472,42.369l43.774,-12.707c0,0 35.985,-18.887 81.41,17.734c45.52,36.698 67.907,64.589 67.907,64.589l-23.425,4.928l-18.913,38.43c0,0 -44.907,-74.488 -71.051,-77.077c-34.184,-3.385 -35.548,16.235 -20.943,28.035c11.913,9.625 44.546,26.321 44.546,26.321l-39.88,8.387l-13.348,42.955c0,-0 -61.422,-51.691 -65.315,-76.075c-2.885,-18.07 -6.496,-38.053 15.238,-65.52Z" style="fill:url(#_Linear1);"/><path id="Path1" serif:id="Path" d="M36.6,93.62c0,-0 -6.474,14.522 -8.32,23.432c-1.844,8.908 -2.101,17.732 -2.101,17.732l18.804,20.378c-0,-0 5.029,-9.02 8.661,-17.244c3.634,-8.227 7.9,-20.213 7.9,-20.213c0,-0 -23.89,-19.16 -24.944,-24.085Z" style="fill:#b9314b;"/><path id="Path2" serif:id="Path" d="M45.428,154.658l23.007,21.445l18.649,-34.664l-26.804,-23.734l-14.852,36.953Z" style="fill:#b1284a;"/><path id="Composite-Path" serif:id="Composite Path" d="M119.256,86.196c25.182,19.736 54.969,69.147 54.969,69.147l2.097,-4.263c-11.558,-17.765 -37.25,-54.73 -57.066,-64.884Zm6.075,46.729l1.446,-0.303c0,0 -18.86,-9.648 -33.135,-18.502c8.515,6.061 22.395,13.805 31.689,18.805Zm-101.859,-90.756c-21.734,27.468 -18.123,47.65 -15.238,65.72c3.893,24.384 64.908,75.384 64.908,75.384l0.825,-0.662c-16.641,-14.808 -54.573,-50.366 -57.606,-69.365c-2.885,-18.072 -6.956,-38.879 14.791,-66.347l44.257,-11.88c-0,0 28.768,-15.087 67.334,7.878c-42.597,-30.502 -75.497,-13.235 -75.497,-13.235l-43.774,12.507Z" style="fill:#65102b;fill-opacity:0.36;"/><path id="Path3" serif:id="Path" d="M63.86,24.18c-0,-0 -47.715,5.648 -46.292,35.437c1.421,29.769 71.536,82.407 71.536,82.407l41.951,-7.633c-0,0 -81.578,-64.402 -54.701,-78.301c26.935,-13.928 52.443,-1.045 72.836,15.714c20.412,16.775 47.29,49.752 50.563,47.83c3.275,-1.922 18.722,-9.189 18.722,-9.189c-0,0 -65.646,-105.275 -154.615,-86.265Z" style="fill:url(#_Linear2);"/><path id="Path4" serif:id="Path" d="M131.7,94.859l15.091,-24.62c-0,-0 12.8,8.952 22.412,19.232c9.615,10.284 25.245,26.184 25.245,26.184l-23.443,31.857c0,-0 -20.66,-33.913 -39.305,-52.653Z" style="fill:#e13d5b;fill-opacity:0.66;"/><path id="Path5" serif:id="Path" d="M130.25,130.814c3.114,0.789 52.294,38.04 52.26,45.479c-0.035,7.437 -21.792,45.667 -21.792,45.667c-0,0 -33.847,12.836 -36.193,12.128c-2.346,-0.708 -54.996,-46.232 -54.574,-48.321c0.421,-2.089 12.851,-46.27 14.97,-47.562c2.118,-1.293 42.216,-8.179 45.329,-7.391Z" style="fill:#ababab;"/><path id="Path6" serif:id="Path" d="M88.834,139.742c-0,0 46.588,43.13 50.362,44.581c3.775,1.45 35.414,-3.735 41.419,-8.788c-3.161,-8.212 -46.178,-41.246 -49.945,-42.401c-3.768,-1.154 -41.836,6.608 -41.836,6.608Z" style="fill:#ddd;"/><path id="Path7" serif:id="Path" d="M89.164,159.749c7.989,-6.304 21.768,4.655 20.173,13.246c-1.595,8.587 -23.028,13.493 -26.555,5.55c-2.771,-6.237 -1.817,-12.326 6.382,-18.796Z" style="fill:#bbb;"/><path id="Path8" serif:id="Path" d="M140.318,185.265c0,-0 -16.502,44.634 -15.115,45.319c1.386,0.684 30.393,-6.407 34.769,-10.056c3.507,-2.926 22.136,-40.45 21,-43.69c-1.137,-3.24 -40.654,8.427 -40.654,8.427Z" style="fill:#bbb;"/><path id="Path9" serif:id="Path" d="M193.311,114.707c-0,0 23.819,-7.032 28.219,-5.339c4.401,1.693 28.56,39.832 28.417,45.101c-0.142,5.269 -21.272,39.503 -21.272,39.503l-26.423,6.663c-0,-0 -30.595,-43.254 -30.718,-45.894c-0.123,-2.639 21.777,-40.034 21.777,-40.034Z" style="fill:#ababab;"/><path id="Path10" serif:id="Path" d="M194.827,115.655c-0.13,1.114 24.076,-4.793 26.376,-4.19c2.3,0.604 28.614,39.79 27.105,42.397c-1.508,2.606 -23.88,8.334 -25.051,7.006c-1.172,-1.327 -28.302,-46.327 -28.43,-45.213Z" style="fill:#ddd;"/><path id="Path11" serif:id="Path" d="M190.262,134.876c6.764,-0.965 14.506,7.624 11.932,15.03c-2.574,7.403 -15.343,8.407 -18.573,1.664c-2.264,-4.727 -2.248,-15.428 6.641,-16.694Z" style="fill:#bbb;"/><path id="Path12" serif:id="Path" d="M183.767,70.696c-0,-0 -38.152,-2.007 -36.366,-0.767c1.787,1.24 27.468,25.119 27.468,25.119l32.756,1.758c0,-0 -17.863,-23.809 -23.858,-26.11Z" style="fill:#ed7886;"/><path id="Path13" serif:id="Path" d="M223.819,163.786c-1.193,2.569 -19.328,34.867 -19.328,34.867l24.23,-7.042l19.353,-34.457c0,-0 -5.685,3.6 -24.255,6.632Z" style="fill:#bbb;"/><path id="Path14" serif:id="Path" d="M81.433,86.6l-43.459,6.211l22.447,23.928c0,-0 33.776,-9.313 36.617,-12.939c-12.405,-12.231 -15.605,-17.2 -15.605,-17.2Z" style="fill:#ed7886;fill-opacity:0.45;"/><path id="Composite-Path1" serif:id="Composite Path" d="M134.905,61.585c5.73,3.365 11.195,7.34 16.334,11.563c20.414,16.777 41.843,40.95 40.556,41.221l0.758,0.068c-8.957,-11.242 -16.881,-24.315 -31.429,-36.269c-8.022,-6.592 -16.836,-12.583 -26.219,-16.583Zm-62.716,-37.204c-13.368,1.939 -53.218,6.512 -51.795,36.302c1.421,29.771 65.461,77.477 65.461,77.477l-0.112,-0.277c-17.848,-14.289 -56.769,-46.151 -58.394,-75.968c-1.623,-29.787 46.246,-34.714 46.246,-34.714c25.351,-5.412 50.978,2.595 71.591,12.068c-28.377,-17.229 -59.616,-16.829 -72.997,-14.888Z" style="fill:#ed7886;"/></g><defs><linearGradient id="_Linear1" x1="0" y1="0" x2="1" y2="0" gradientUnits="userSpaceOnUse" gradientTransform="matrix(50.9849,-105.881,105.881,50.9849,73.8393,142.401)"><stop offset="0" style="stop-color:#981a43;stop-opacity:1"/><stop offset="0.01" style="stop-color:#981a43;stop-opacity:1"/><stop offset="0.98" style="stop-color:#851539;stop-opacity:1"/><stop offset="1" style="stop-color:#851539;stop-opacity:1"/></linearGradient><linearGradient id="_Linear2" x1="0" y1="0" x2="1" y2="0" gradientUnits="userSpaceOnUse" gradientTransform="matrix(116.527,117.39,-117.39,116.527,71.3013,21.7277)"><stop offset="0" style="stop-color:#c1334e;stop-opacity:1"/><stop offset="0.02" style="stop-color:#c1334e;stop-opacity:1"/><stop offset="1" style="stop-color:#e13d5b;stop-opacity:1"/></linearGradient></defs></svg>