<?xml version="1.0" encoding="UTF-8" standalone="no"?><!DOCTYPE svg PUBLIC "-//W3C//DTD SVG 1.1//EN" "http://www.w3.org/Graphics/SVG/1.1/DTD/svg11.dtd"><svg width="100%" height="100%" viewBox="0 0 256 256" version="1.1" xmlns="http://www.w3.org/2000/svg" xmlns:xlink="http://www.w3.org/1999/xlink" xml:space="preserve" xmlns:serif="http://www.serif.com/" style="fill-rule:evenodd;clip-rule:evenodd;stroke-linejoin:round;stroke-miterlimit:2;"><g id="Mail"><path d="M229.66,62.97c-12.105,-19.145 -176.48,-27.34 -201.811,-2.67c-9.951,9.69 -18.891,105.021 -2.871,131.562c16.02,26.541 196.039,24.59 207.29,0c11.252,-24.59 9.496,-109.746 -2.608,-128.892Z" style="fill:#e6e6e6;stroke:#727b84;stroke-width:17.33px;"/><g><path d="M229.66,62.97c-12.105,-19.145 -176.48,-27.34 -201.811,-2.67c-9.951,9.69 -18.891,105.021 -2.871,131.562c16.02,26.541 196.039,24.59 207.29,0c11.252,-24.59 9.496,-109.746 -2.608,-128.892Z" style="fill:#e6e6e6;"/><clipPath id="_clip1"><path d="M229.66,62.97c-12.105,-19.145 -176.48,-27.34 -201.811,-2.67c-9.951,9.69 -18.891,105.021 -2.871,131.562c16.02,26.541 196.039,24.59 207.29,0c11.252,-24.59 9.496,-109.746 -2.608,-128.892Z"/></clipPath><g clip-path="url(#_clip1)"><path id="Path" d="M207.392,184.748c17.004,-17.986 6.028,-94.419 1.201,-88.196c-4.827,6.223 -64.296,66.217 -75.081,63.079c-10.786,-3.139 -86.49,-73.572 -90.543,-71.878c-4.052,1.694 -9.098,104.443 -1.363,106.415c54.411,13.869 148.782,8.566 165.786,-9.42Z" style="fill:#eee;"/><path id="Path1" serif:id="Path" d="M225.924,65.393c-0,-0 -64.608,111.145 -98.333,111.145c-33.725,-0 -99.742,-113.568 -99.742,-113.568c-0,0 81.664,80.121 93.783,82.419c12.119,2.297 104.292,-79.996 104.292,-79.996Z" style="fill:#c1c1c1;"/><path id="Path2" serif:id="Path" d="M231.603,60.316c-0,-0 -59.208,99.446 -101.579,99.446c-42.371,-0 -113.125,-97.825 -106.637,-103.416c7.764,-6.69 119.342,-32.586 208.216,3.97Z" style="fill:#727b84;"/><path id="Path3" serif:id="Path" d="M228.341,59.799c-0,0 -58.738,76.942 -97.934,76.942c-39.195,0 -108.253,-76.139 -101.229,-80.614c18.53,-11.808 118.984,-60.154 199.163,3.672Z" style="fill:#fff;"/><clipPath id="_clip2"><path d="M228.341,59.799c-0,0 -58.738,76.942 -97.934,76.942c-39.195,0 -108.253,-76.139 -101.229,-80.614c18.53,-11.808 118.984,-60.154 199.163,3.672Z"/></clipPath><g clip-path="url(#_clip2)"><path id="Path4" serif:id="Path" d="M212.794,85.38c0,-0 -150.198,-33.462 -160.78,-13.745c-5.62,10.471 50.947,67.969 79.768,67.969c28.821,-0 81.012,-54.224 81.012,-54.224Z" style="fill:#eee;"/></g></g></g></g></svg>