<?xml version="1.0" encoding="UTF-8" standalone="no"?><!DOCTYPE svg PUBLIC "-//W3C//DTD SVG 1.1//EN" "http://www.w3.org/Graphics/SVG/1.1/DTD/svg11.dtd"><svg width="100%" height="100%" viewBox="0 0 256 256" version="1.1" xmlns="http://www.w3.org/2000/svg" xmlns:xlink="http://www.w3.org/1999/xlink" xml:space="preserve" xmlns:serif="http://www.serif.com/" style="fill-rule:evenodd;clip-rule:evenodd;stroke-linecap:round;stroke-linejoin:round;stroke-miterlimit:1.5;"><g id="Mobile"><path d="M207.549,40.051c0,-15.517 -12.598,-28.116 -28.116,-28.116l-102.866,0c-15.518,0 -28.116,12.599 -28.116,28.116l-0,175.898c-0,15.517 12.598,28.116 28.116,28.116l102.866,-0c15.518,-0 28.116,-12.599 28.116,-28.116l0,-175.898Z" style="fill:none;stroke:#212529;stroke-width:17.33px;"/><path d="M207.549,40.051c0,-15.517 -12.598,-28.116 -28.116,-28.116l-102.866,0c-15.518,0 -28.116,12.599 -28.116,28.116l-0,175.898c-0,15.517 12.598,28.116 28.116,28.116l102.866,-0c15.518,-0 28.116,-12.599 28.116,-28.116l0,-175.898Z" style="fill:#3e464d;"/><path d="M199.938,38.024c-0,-10.576 -8.586,-19.162 -19.163,-19.162l-105.55,-0c-5.247,-0 -9.061,2.487 -12.523,5.908c-3.517,3.475 137.236,133.921 137.236,133.921l-0,-120.667Z" style="fill:#586069;"/><circle cx="128" cy="217.809" r="12.249" style="fill:#56606a;"/><path d="M119.341,209.145c4.78,-4.78 12.542,-4.78 17.323,0c4.78,4.781 4.78,12.543 -0,17.323l-17.323,-17.323Z" style="fill:url(#_Linear1);"/><path d="M182.974,43.861c-0,-3.557 -2.888,-6.444 -6.445,-6.444l-97.058,-0c-3.557,-0 -6.445,2.887 -6.445,6.444l0,143.836c0,3.557 2.888,6.444 6.445,6.444l97.058,0c3.557,0 6.445,-2.887 6.445,-6.444l-0,-143.836Z" style="fill:#15aabf;"/><clipPath id="_clip2"><path d="M182.974,43.861c-0,-3.557 -2.888,-6.444 -6.445,-6.444l-97.058,-0c-3.557,-0 -6.445,2.887 -6.445,6.444l0,143.836c0,3.557 2.888,6.444 6.445,6.444l97.058,0c3.557,0 6.445,-2.887 6.445,-6.444l-0,-143.836Z"/></clipPath><g clip-path="url(#_clip2)"><path d="M73.026,37.417l110.258,105.301l-0,-105.301l-110.258,-0Z" style="fill:#fff;fill-opacity:0.38;"/></g><path d="M198.088,76.265l0,-37.124c0.639,-10.179 -7.069,-18.444 -17.255,-18.444l-31.29,0" style="fill:none;stroke:url(#_Linear3);stroke-width:3.61px;"/></g><defs><linearGradient id="_Linear1" x1="0" y1="0" x2="1" y2="0" gradientUnits="userSpaceOnUse" gradientTransform="matrix(-8.10734,9.18223,-9.18223,-8.10734,136.107,208.622)"><stop offset="0" style="stop-color:#687480;stop-opacity:1"/><stop offset="1" style="stop-color:#687480;stop-opacity:0"/></linearGradient><linearGradient id="_Linear3" x1="0" y1="0" x2="1" y2="0" gradientUnits="userSpaceOnUse" gradientTransform="matrix(48.545,53.1193,-53.1193,48.545,149.543,20.697)"><stop offset="0" style="stop-color:#8e97a0;stop-opacity:0"/><stop offset="0.5" style="stop-color:#8e97a0;stop-opacity:1"/><stop offset="1" style="stop-color:#8e97a0;stop-opacity:0"/></linearGradient></defs></svg>