<?xml version="1.0" encoding="UTF-8" standalone="no"?><!DOCTYPE svg PUBLIC "-//W3C//DTD SVG 1.1//EN" "http://www.w3.org/Graphics/SVG/1.1/DTD/svg11.dtd"><svg width="100%" height="100%" viewBox="0 0 256 256" version="1.1" xmlns="http://www.w3.org/2000/svg" xmlns:xlink="http://www.w3.org/1999/xlink" xml:space="preserve" xmlns:serif="http://www.serif.com/" style="fill-rule:evenodd;clip-rule:evenodd;stroke-linecap:round;stroke-linejoin:round;stroke-miterlimit:1.5;"><g id="Boy-Girl"><path d="M215.874,115.901c0,-40.752 -33.085,-73.838 -73.837,-73.838l-29.974,0c-40.752,0 -73.837,33.086 -73.837,73.838c0,40.752 33.085,73.837 73.837,73.837l29.974,0c40.752,0 73.837,-33.085 73.837,-73.837Z" style="fill:none;stroke:#391c17;stroke-width:8.92px;"/><path d="M127.05,20.734c64.106,0 88.824,42.723 88.824,95.344c-31.762,-14.603 -101.175,-7.68 -128.728,-42.157c-8.566,38.992 -21.466,29.923 -48.92,42.157c0,-52.621 24.718,-95.344 88.824,-95.344Z" style="fill:none;stroke:#391c17;stroke-width:8.92px;"/><path d="M215.874,115.901c0,-40.752 -33.085,-73.838 -73.837,-73.838l-29.974,0c-40.752,0 -73.837,33.086 -73.837,73.838c0,40.752 33.085,73.837 73.837,73.837l29.974,0c40.752,0 73.837,-33.085 73.837,-73.837Z" style="fill:#623027;"/><circle cx="56.05" cy="128.921" r="21.902" style="fill:none;stroke:#763f33;stroke-width:8.92px;"/><circle cx="198.051" cy="128.921" r="21.902" style="fill:none;stroke:#763f33;stroke-width:8.92px;"/><g><path d="M176.117,216.354c-0,-27.08 -21.986,-49.066 -49.067,-49.066c-27.08,-0 -49.066,21.986 -49.066,49.066c-0,0 -0,11.345 -0,20.652c-0,3.173 1.26,6.216 3.504,8.459c2.243,2.243 5.286,3.504 8.458,3.504c18.871,-0 55.338,-0 74.208,-0c3.173,-0 6.215,-1.261 8.459,-3.504c2.243,-2.243 3.504,-5.286 3.504,-8.459c-0,-9.307 -0,-20.652 -0,-20.652Z" style="fill:#228be6;"/><clipPath id="_clip1"><path d="M176.117,216.354c-0,-27.08 -21.986,-49.066 -49.067,-49.066c-27.08,-0 -49.066,21.986 -49.066,49.066c-0,0 -0,11.345 -0,20.652c-0,3.173 1.26,6.216 3.504,8.459c2.243,2.243 5.286,3.504 8.458,3.504c18.871,-0 55.338,-0 74.208,-0c3.173,-0 6.215,-1.261 8.459,-3.504c2.243,-2.243 3.504,-5.286 3.504,-8.459c-0,-9.307 -0,-20.652 -0,-20.652Z"/></clipPath><g clip-path="url(#_clip1)"><path d="M135.241,172.088c-37.09,15.033 -28.307,29.065 -28.307,88.095l-33.121,-0c-1.759,-8.17 -46.912,-127.09 61.428,-88.095Z" style="fill:#1c7ed6;"/><path d="M118.86,172.088c37.09,15.033 28.306,29.065 28.306,88.095l33.122,-0c1.758,-8.17 46.912,-127.09 -61.428,-88.095Z" style="fill:#4dabf7;"/></g><path d="M176.117,216.354c-0,-27.08 -21.986,-49.066 -49.067,-49.066c-27.08,-0 -49.066,21.986 -49.066,49.066c-0,0 -0,11.345 -0,20.652c-0,3.173 1.26,6.216 3.504,8.459c2.243,2.243 5.286,3.504 8.458,3.504c18.871,-0 55.338,-0 74.208,-0c3.173,-0 6.215,-1.261 8.459,-3.504c2.243,-2.243 3.504,-5.286 3.504,-8.459c-0,-9.307 -0,-20.652 -0,-20.652Z" style="fill:none;stroke:#165d9b;stroke-width:5.01px;"/><path d="M167.347,228.445c0,-5.978 0,-13.265 0,-13.265c0,-8.824 -3.245,-16.897 -8.606,-23.088c-1.366,-1.578 -3.755,-1.75 -5.333,-0.384c-1.577,1.366 -1.749,3.756 -0.383,5.333c4.212,4.864 6.761,11.206 6.761,18.139c0,0 0,7.287 0,13.265c0,2.087 1.694,3.781 3.781,3.781c2.086,-0 3.78,-1.694 3.78,-3.781Z" style="fill:#74c0fc;"/><ellipse cx="125.789" cy="178.267" rx="26.237" ry="18.545" style="fill:#4dabf7;"/><ellipse cx="125.789" cy="176.318" rx="19.136" ry="14.631" style="fill:#1864ab;"/></g><g><path d="M127.05,61.142c39.036,-0 70.728,34.004 70.728,67.453c-0,33.448 -31.692,53.756 -70.728,53.756c-39.035,-0 -70.727,-20.308 -70.727,-53.756c-0,-33.449 31.692,-67.453 70.727,-67.453Z" style="fill:none;stroke:#763f33;stroke-width:8.92px;"/><g><g><circle cx="56.05" cy="128.921" r="21.902" style="fill:#cb6948;"/><circle cx="198.051" cy="128.921" r="21.902" style="fill:#cb6948;"/><path d="M202.023,123.814c0,0 1.745,3.022 1.313,7.559c-0.222,2.333 -0.944,5.011 -2.676,7.89c-0.215,0.3 -0.147,0.718 0.153,0.934c0.3,0.216 0.719,0.147 0.935,-0.153c2.419,-2.843 3.668,-5.662 4.333,-8.18c1.494,-5.648 -0.212,-9.832 -0.212,-9.832c-0.492,-1.061 -1.753,-1.523 -2.814,-1.031c-1.061,0.491 -1.524,1.752 -1.032,2.813Z" style="fill:#793426;"/><path d="M214.185,126.057c0.304,-2.309 -1.291,-4.955 -4.476,-6.403c-1.458,-0.662 -3.271,-0.976 -5.378,-0.821c-1.2,0.089 -2.505,0.359 -3.859,0.887c-1.098,0.428 -2.225,1.036 -3.374,1.818c-1.137,0.774 -2.287,1.697 -3.451,2.834c-1.414,1.382 -2.797,3.003 -4.243,4.953c-0.229,0.235 -0.224,0.612 0.011,0.841c0.235,0.229 0.612,0.225 0.841,-0.011c1.502,-1.166 2.921,-2.096 4.284,-2.95c1.58,-0.989 3.048,-1.732 4.427,-2.366c1.052,-0.484 2.046,-0.839 2.973,-1.166c1.055,-0.372 2.018,-0.674 2.928,-0.853c1.566,-0.309 2.911,-0.393 4.075,-0.131c0.983,0.221 1.828,0.514 2.481,1.017c0.875,0.674 1.488,1.465 1.637,2.365c0.004,0.31 0.258,0.559 0.569,0.555c0.31,-0.004 0.558,-0.259 0.555,-0.569Z" style="fill:#793426;"/><path d="M48.232,122.032c-0,0 -1.707,4.184 -0.213,9.832c0.666,2.518 1.914,5.337 4.334,8.18c0.216,0.3 0.634,0.369 0.934,0.153c0.3,-0.216 0.369,-0.634 0.153,-0.934c-1.732,-2.879 -2.454,-5.557 -2.676,-7.89c-0.432,-4.537 1.313,-7.559 1.313,-7.559c0.492,-1.061 0.03,-2.322 -1.032,-2.813c-1.061,-0.492 -2.322,-0.03 -2.813,1.031Z" style="fill:#793426;"/><path d="M41.04,126.071c0.149,-0.9 0.762,-1.691 1.637,-2.365c0.652,-0.503 1.497,-0.796 2.481,-1.017c1.163,-0.262 2.508,-0.178 4.074,0.131c0.91,0.179 1.874,0.481 2.929,0.853c0.926,0.327 1.921,0.682 2.973,1.166c1.378,0.634 2.847,1.377 4.427,2.366c1.362,0.854 2.782,1.784 4.283,2.95c0.229,0.236 0.606,0.24 0.841,0.011c0.236,-0.229 0.24,-0.606 0.011,-0.841c-1.445,-1.95 -2.829,-3.571 -4.243,-4.953c-1.163,-1.137 -2.313,-2.06 -3.45,-2.834c-1.149,-0.782 -2.276,-1.39 -3.375,-1.818c-1.353,-0.528 -2.658,-0.798 -3.859,-0.887c-2.107,-0.155 -3.92,0.159 -5.377,0.821c-3.186,1.448 -4.78,4.094 -4.476,6.403c-0.004,0.31 0.245,0.565 0.555,0.569c0.31,0.004 0.565,-0.245 0.569,-0.555Z" style="fill:#793426;"/></g><path d="M127.05,61.142c39.036,-0 70.728,34.004 70.728,67.453c-0,33.448 -31.692,53.756 -70.728,53.756c-39.035,-0 -70.727,-20.308 -70.727,-53.756c-0,-33.449 31.692,-67.453 70.727,-67.453Z" style="fill:url(#_Radial2);"/><path d="M87.536,60.328l122.81,48.733c0,-0 -7.766,12.092 -14.414,9.739c-30.667,-10.854 -88.997,-0.146 -108.396,-31.414c-6.534,19.953 -13.741,26.209 -28.808,31.414c-6.834,2.361 -17.477,-4.045 -17.477,-4.045l46.285,-54.427Z" style="fill:#a54f40;"/><path d="M127.05,20.734c64.106,0 88.824,42.723 88.824,95.344c-31.762,-14.603 -101.175,-7.68 -128.728,-42.157c-8.566,38.992 -21.466,29.923 -48.92,42.157c0,-52.621 24.718,-95.344 88.824,-95.344Z" style="fill:#623027;"/><path d="M161.333,29.795c-23.352,14.631 -46.878,17.647 -72.643,1.505c-14.495,5.565 -26.617,18.618 -31.73,30.345c41.798,-10.381 93.372,-13.395 140.18,-0c-3.847,-10.54 -21.997,-26.547 -35.807,-31.85Z" style="fill:#873d2e;"/><g><g><path d="M123.921,30.535l0,36.267c0,1.727 1.402,3.129 3.129,3.129c1.727,0 3.129,-1.402 3.129,-3.129l0,-36.267c0,-1.727 -1.402,-3.129 -3.129,-3.129c-1.727,0 -3.129,1.402 -3.129,3.129Z" style="fill:#623027;"/><path d="M105.638,28.266c-11.034,10.478 -19.673,23.01 -26.38,37.199c-0.739,1.561 -0.07,3.428 1.491,4.166c1.561,0.738 3.428,0.07 4.167,-1.491c6.369,-13.473 14.554,-25.387 25.031,-35.336c1.253,-1.189 1.304,-3.171 0.115,-4.423c-1.19,-1.253 -3.172,-1.304 -4.424,-0.115Z" style="fill:#623027;"/><path d="M144.153,32.804c10.477,9.949 18.662,21.863 25.032,35.336c0.738,1.561 2.605,2.229 4.166,1.491c1.562,-0.738 2.23,-2.605 1.492,-4.166c-6.708,-14.189 -15.347,-26.721 -26.38,-37.199c-1.253,-1.189 -3.235,-1.138 -4.424,0.115c-1.189,1.252 -1.138,3.234 0.114,4.423Z" style="fill:#623027;"/></g></g><path d="M56.954,132.202l-1.804,-29.672l14.447,-1.857l-12.643,31.529Z" style="fill:#211105;"/><ellipse cx="84.874" cy="149.115" rx="13.404" ry="10.744" style="fill:#c92a2a;fill-opacity:0.27;"/><ellipse cx="166.014" cy="149.828" rx="13.404" ry="10.744" style="fill:#c92a2a;fill-opacity:0.27;"/><path d="M113.679,143.851c-0.384,-0.227 -0.863,-0.217 -1.236,0.027c-0.372,0.244 -0.574,0.679 -0.519,1.121c1.144,6.801 7.058,12 14.177,12c7.119,-0 13.034,-5.199 14.152,-12.003c0.052,-0.432 -0.145,-0.857 -0.509,-1.095c-0.364,-0.239 -0.832,-0.249 -1.207,-0.028c-3.294,1.773 -7.712,3.087 -12.436,3.087c-4.723,-0 -9.142,-1.314 -12.422,-3.109Z" style="fill:#641e1e;"/><clipPath id="_clip3"><path d="M113.679,143.851c-0.384,-0.227 -0.863,-0.217 -1.236,0.027c-0.372,0.244 -0.574,0.679 -0.519,1.121c1.144,6.801 7.058,12 14.177,12c7.119,-0 13.034,-5.199 14.152,-12.003c0.052,-0.432 -0.145,-0.857 -0.509,-1.095c-0.364,-0.239 -0.832,-0.249 -1.207,-0.028c-3.294,1.773 -7.712,3.087 -12.436,3.087c-4.723,-0 -9.142,-1.314 -12.422,-3.109Z"/></clipPath><g clip-path="url(#_clip3)"><ellipse cx="126.596" cy="158.447" rx="9.603" ry="8.183" style="fill:#a83333;"/></g><g><ellipse cx="97.953" cy="126.586" rx="7.826" ry="9.985" style="fill:#331f0f;"/><ellipse cx="156.147" cy="126.586" rx="7.826" ry="9.985" style="fill:#331f0f;"/></g><g><path d="M88.4,99.086l14.449,-3.506" style="fill:none;stroke:#2d1612;stroke-width:6.72px;"/><path d="M166.414,99.086l-14.448,-3.506" style="fill:none;stroke:#2d1612;stroke-width:6.72px;"/></g><path d="M56.954,132.202l-1.804,-29.672l14.447,-1.857l-12.643,31.529Z" style="fill:#623027;"/><path d="M197.754,132.202l1.804,-29.672l-14.447,-1.857l12.643,31.529Z" style="fill:#623027;"/></g></g></g><defs><radialGradient id="_Radial2" cx="0" cy="0" r="1" gradientUnits="userSpaceOnUse" gradientTransform="matrix(-2.63624e-14,60.6046,-60.6046,3.71096e-15,127.05,121.746)"><stop offset="0" style="stop-color:#ffa778;stop-opacity:1"/><stop offset="1" style="stop-color:#cb6948;stop-opacity:1"/></radialGradient></defs></svg>