<?xml version="1.0" encoding="UTF-8" standalone="no"?><!DOCTYPE svg PUBLIC "-//W3C//DTD SVG 1.1//EN" "http://www.w3.org/Graphics/SVG/1.1/DTD/svg11.dtd"><svg width="100%" height="100%" viewBox="0 0 256 256" version="1.1" xmlns="http://www.w3.org/2000/svg" xmlns:xlink="http://www.w3.org/1999/xlink" xml:space="preserve" xmlns:serif="http://www.serif.com/" style="fill-rule:evenodd;clip-rule:evenodd;stroke-linecap:round;stroke-linejoin:round;stroke-miterlimit:1.5;"><g id="Package---Signed" serif:id="Package - Signed"><path id="Package----Border" serif:id="Package  - Border" d="M13.976,89.846c-0.762,-11.778 5.448,-22.911 15.872,-28.449c21.273,-11.302 57.099,-30.338 76.279,-40.528c8.228,-4.372 18.019,-4.675 26.502,-0.822c22.159,10.066 66.408,30.167 91.853,41.726c11.523,5.234 18.525,17.131 17.507,29.746c-1.806,22.387 -4.62,57.276 -6.226,77.185c-0.775,9.604 -6.112,18.252 -14.349,23.25c-18.177,11.03 -50.911,30.894 -69.757,42.331c-8.957,5.435 -20.1,5.808 -29.4,0.983c-22.489,-11.668 -64.742,-33.59 -87.267,-45.277c-9.334,-4.842 -15.454,-14.215 -16.133,-24.709c-1.311,-20.263 -3.503,-54.145 -4.881,-75.436Z" style="fill:none;stroke:#b75416;stroke-width:17.35px;"/><path id="Package-" serif:id="Package " d="M13.976,89.846c-0.762,-11.778 5.448,-22.911 15.872,-28.449c21.273,-11.302 57.099,-30.338 76.279,-40.528c8.228,-4.372 18.019,-4.675 26.502,-0.822c22.159,10.066 66.408,30.167 91.853,41.726c11.523,5.234 18.525,17.131 17.507,29.746c-1.806,22.387 -4.62,57.276 -6.226,77.185c-0.775,9.604 -6.112,18.252 -14.349,23.25c-18.177,11.03 -50.911,30.894 -69.757,42.331c-8.957,5.435 -20.1,5.808 -29.4,0.983c-22.489,-11.668 -64.742,-33.59 -87.267,-45.277c-9.334,-4.842 -15.454,-14.215 -16.133,-24.709c-1.311,-20.263 -3.503,-54.145 -4.881,-75.436Z" style="fill:#d07813;"/><clipPath id="_clip1"><path d="M13.976,89.846c-0.762,-11.778 5.448,-22.911 15.872,-28.449c21.273,-11.302 57.099,-30.338 76.279,-40.528c8.228,-4.372 18.019,-4.675 26.502,-0.822c22.159,10.066 66.408,30.167 91.853,41.726c11.523,5.234 18.525,17.131 17.507,29.746c-1.806,22.387 -4.62,57.276 -6.226,77.185c-0.775,9.604 -6.112,18.252 -14.349,23.25c-18.177,11.03 -50.911,30.894 -69.757,42.331c-8.957,5.435 -20.1,5.808 -29.4,0.983c-22.489,-11.668 -64.742,-33.59 -87.267,-45.277c-9.334,-4.842 -15.454,-14.215 -16.133,-24.709c-1.311,-20.263 -3.503,-54.145 -4.881,-75.436Z"/></clipPath><g clip-path="url(#_clip1)"><g><path d="M137.233,156.421c0,-13.103 -7.3,-25.114 -18.93,-31.148c-34.838,-18.075 -105.579,-54.777 -105.579,-54.777l-0,107.943l124.509,64.599l0,-86.617Z" style="fill:#d07813;"/><path d="M94.424,112.884l-38.891,-20.178c-5.151,42.08 -4.044,78.338 -0,107.943l38.891,20.178c-2.072,-34.7 -5.665,-70.946 0,-107.943Z" style="fill:#b75416;"/><path d="M153.937,124.958c-10.373,6.295 -23.277,6.726 -34.048,1.138c-24.224,-12.568 -67.842,-35.198 -91.266,-47.351c-3.102,-1.61 -5.056,-4.807 -5.073,-8.302c-0.017,-3.495 1.905,-6.712 4.992,-8.352c29.652,-15.755 90.634,-48.155 90.634,-48.155c-0,-0 78.481,35.651 110.826,50.344c2.68,1.217 4.466,3.817 4.641,6.755c0.175,2.937 -1.29,5.731 -3.806,7.257c-19.256,11.685 -55.607,33.745 -76.9,46.666Z" style="fill:#ffc94c;"/><path d="M192.962,93.456c19.926,-11.859 38.187,-17.47 40.754,-12.523c2.567,4.948 -11.527,18.592 -31.452,30.452c-19.926,11.859 -38.187,17.47 -40.754,12.523c-2.567,-4.948 11.526,-18.593 31.452,-30.452Z" style="fill:#ffec99;"/><path d="M94.534,51.868l99.704,51.49" style="fill:none;stroke:#ea9a21;stroke-width:3.61px;"/><path d="M94.534,50.002l99.704,51.49" style="fill:none;stroke:#f8f9fa;stroke-width:3.61px;"/><path d="M94.424,112.884l-38.891,-20.178c40.194,-31.013 76.034,-52.34 108.65,-63.246l36.694,18.825l-106.453,64.599Z" style="fill:#ea9a21;"/><path d="M94.424,112.884l-38.891,-20.178c40.194,-31.013 76.034,-52.34 108.65,-63.246l36.694,18.825c-40.821,16.663 -77.088,37.481 -106.453,64.599Z" style="fill:#f8833a;"/><path d="M137.233,154.275c0,-11.909 6.217,-22.953 16.398,-29.131c20.764,-12.601 56.198,-34.103 75.858,-46.034c2.886,-1.751 6.492,-1.81 9.434,-0.154c2.942,1.656 4.762,4.769 4.762,8.145c0,30.271 0,91.338 0,91.338c0,0 -87.205,52.919 -103.757,62.964c-0.548,0.332 -1.233,0.343 -1.791,0.029c-0.558,-0.314 -0.904,-0.905 -0.904,-1.546c0,-12.464 0,-58.925 0,-85.611Z" style="fill:#ea9a21;"/></g></g><path d="M193.95,101.952l-0,36.392" style="fill:none;stroke:#d07813;stroke-width:4.82px;"/><path d="M193.95,101.952c4.274,10.008 6.108,20.593 5.693,31.708" style="fill:none;stroke:#f4e1c7;stroke-width:4.82px;"/><path d="M216.652,126.604c0.069,-6.738 -3.953,-9.854 -8.977,-6.954l-18.205,10.511c-5.024,2.901 -9.159,10.726 -9.228,17.465l-0.461,44.864c-0.069,6.739 3.954,9.855 8.978,6.954l18.205,-10.511c5.024,-2.9 9.159,-10.726 9.228,-17.464l0.46,-44.865Z" style="fill:#d07813;"/><path d="M217.57,123.767c-0.663,-6.007 -5.028,-8.591 -9.74,-5.768l-17.077,10.23c-4.712,2.823 -8,9.991 -7.336,15.998l5.202,47.102c0.664,6.007 5.028,8.591 9.741,5.768l17.076,-10.23c4.713,-2.823 8,-9.991 7.337,-15.998l-5.203,-47.102Z" style="fill:#e9ecef;stroke:#ced4da;stroke-width:2.34px;"/><path d="M210.832,130.162c-0.214,-1.944 -1.482,-2.702 -2.829,-1.691l-12.836,9.634c-1.347,1.011 -2.266,3.41 -2.051,5.355c0.215,1.944 1.482,2.702 2.829,1.691l12.836,-9.634c1.347,-1.011 2.266,-3.411 2.051,-5.355Z" style="fill:#ced4da;"/><path d="M215.481,163.617c-0.215,-1.944 -1.483,-2.702 -2.83,-1.691l-12.836,9.634c-1.346,1.011 -2.265,3.41 -2.051,5.355c0.215,1.944 1.483,2.702 2.83,1.691l12.836,-9.634c1.346,-1.011 2.266,-3.41 2.051,-5.355Z" style="fill:#ced4da;"/><path d="M215.481,145.168c-0.215,-1.945 -1.483,-2.703 -2.83,-1.692l-18.961,14.232c-1.347,1.011 -2.266,3.41 -2.051,5.355c0.215,1.944 1.482,2.702 2.829,1.691l18.962,-14.232c1.346,-1.011 2.266,-3.41 2.051,-5.354Z" style="fill:#ced4da;"/></g></svg>