<?xml version="1.0" encoding="UTF-8" standalone="no"?><!DOCTYPE svg PUBLIC "-//W3C//DTD SVG 1.1//EN" "http://www.w3.org/Graphics/SVG/1.1/DTD/svg11.dtd"><svg width="100%" height="100%" viewBox="0 0 256 256" version="1.1" xmlns="http://www.w3.org/2000/svg" xmlns:xlink="http://www.w3.org/1999/xlink" xml:space="preserve" xmlns:serif="http://www.serif.com/" style="fill-rule:evenodd;clip-rule:evenodd;stroke-linecap:round;stroke-linejoin:round;stroke-miterlimit:1.5;"><g id="Package"><path id="Package----Border" serif:id="Package  - Border" d="M13.848,89.798c-0.762,-11.771 5.445,-22.896 15.861,-28.43c21.259,-11.295 57.062,-30.318 76.229,-40.502c8.222,-4.368 18.006,-4.672 26.483,-0.821c22.144,10.059 66.364,30.147 91.792,41.698c11.515,5.23 18.512,17.12 17.495,29.726c-1.805,22.372 -4.617,57.238 -6.222,77.133c-0.775,9.597 -6.108,18.24 -14.34,23.235c-18.164,11.022 -50.876,30.873 -69.71,42.302c-8.95,5.432 -20.086,5.804 -29.379,0.982c-22.474,-11.66 -64.699,-33.567 -87.209,-45.246c-9.328,-4.839 -15.443,-14.206 -16.122,-24.692c-1.31,-20.25 -3.501,-54.109 -4.878,-75.385Z" style="fill:none;stroke:#b75416;stroke-width:17.33px;"/><path id="Package-" serif:id="Package " d="M13.848,89.798c-0.762,-11.771 5.445,-22.896 15.861,-28.43c21.259,-11.295 57.062,-30.318 76.229,-40.502c8.222,-4.368 18.006,-4.672 26.483,-0.821c22.144,10.059 66.364,30.147 91.792,41.698c11.515,5.23 18.512,17.12 17.495,29.726c-1.805,22.372 -4.617,57.238 -6.222,77.133c-0.775,9.597 -6.108,18.24 -14.34,23.235c-18.164,11.022 -50.876,30.873 -69.71,42.302c-8.95,5.432 -20.086,5.804 -29.379,0.982c-22.474,-11.66 -64.699,-33.567 -87.209,-45.246c-9.328,-4.839 -15.443,-14.206 -16.122,-24.692c-1.31,-20.25 -3.501,-54.109 -4.878,-75.385Z" style="fill:#d07813;"/><clipPath id="_clip1"><path d="M13.848,89.798c-0.762,-11.771 5.445,-22.896 15.861,-28.43c21.259,-11.295 57.062,-30.318 76.229,-40.502c8.222,-4.368 18.006,-4.672 26.483,-0.821c22.144,10.059 66.364,30.147 91.792,41.698c11.515,5.23 18.512,17.12 17.495,29.726c-1.805,22.372 -4.617,57.238 -6.222,77.133c-0.775,9.597 -6.108,18.24 -14.34,23.235c-18.164,11.022 -50.876,30.873 -69.71,42.302c-8.95,5.432 -20.086,5.804 -29.379,0.982c-22.474,-11.66 -64.699,-33.567 -87.209,-45.246c-9.328,-4.839 -15.443,-14.206 -16.122,-24.692c-1.31,-20.25 -3.501,-54.109 -4.878,-75.385Z"/></clipPath><g clip-path="url(#_clip1)"><g><path d="M137.023,156.327c-0,-13.093 -7.295,-25.097 -18.918,-31.127c-34.815,-18.063 -105.508,-54.74 -105.508,-54.74l-0,107.871l124.426,64.555l-0,-86.559Z" style="fill:#d07813;"/><path d="M94.243,112.82l-38.866,-20.165c-5.233,36.066 -4.11,73.522 -0,107.871l38.866,20.164c-3.293,-37.687 -7.125,-74.507 -0,-107.87Z" style="fill:#b75416;"/><path d="M153.716,124.885c-10.367,6.291 -23.262,6.722 -34.026,1.138c-24.207,-12.56 -67.796,-35.175 -91.204,-47.319c-3.101,-1.609 -5.053,-4.804 -5.07,-8.297c-0.018,-3.493 1.904,-6.707 4.988,-8.346c29.633,-15.744 90.573,-48.123 90.573,-48.123c0,0 78.429,35.627 110.752,50.31c2.678,1.217 4.463,3.815 4.638,6.75c0.175,2.936 -1.289,5.728 -3.803,7.253c-19.243,11.678 -55.57,33.722 -76.848,46.634Z" style="fill:#ffc94c;"/><path d="M94.243,112.82l-38.866,-20.165c40.168,-30.992 75.983,-52.305 108.577,-63.203l36.669,18.813c-40.793,16.651 -77.035,37.455 -106.38,64.555Z" style="fill:#f8833a;"/><path d="M193.974,92.655c20.607,-12.265 39.421,-18.208 41.986,-13.264c2.565,4.944 -12.083,18.916 -32.691,31.181c-20.607,12.265 -39.421,18.208 -41.986,13.264c-2.565,-4.944 12.083,-18.916 32.691,-31.181Z" style="fill:#ffec99;"/><path d="M137.023,154.183c-0,-11.901 6.212,-22.938 16.386,-29.112c20.751,-12.592 56.161,-34.08 75.808,-46.002c2.884,-1.75 6.487,-1.809 9.427,-0.155c2.94,1.655 4.759,4.767 4.759,8.14c0,30.251 0,91.277 0,91.277c0,-0 -87.146,52.883 -103.688,62.921c-0.547,0.332 -1.231,0.343 -1.789,0.029c-0.558,-0.314 -0.903,-0.905 -0.903,-1.545c-0,-12.455 -0,-58.886 -0,-85.553Z" style="fill:#ea9a21;"/></g></g></g></svg>