<?xml version="1.0" encoding="UTF-8" standalone="no"?><!DOCTYPE svg PUBLIC "-//W3C//DTD SVG 1.1//EN" "http://www.w3.org/Graphics/SVG/1.1/DTD/svg11.dtd"><svg width="100%" height="100%" viewBox="0 0 256 256" version="1.1" xmlns="http://www.w3.org/2000/svg" xmlns:xlink="http://www.w3.org/1999/xlink" xml:space="preserve" xmlns:serif="http://www.serif.com/" style="fill-rule:evenodd;clip-rule:evenodd;stroke-linejoin:round;stroke-miterlimit:2;"><g id="Paper"><path id="Layer-2" serif:id="Layer 2" d="M7.627,133.044c-0,-0 3.131,-25.098 4.476,-26.065c1.345,-0.967 143.105,76.374 144.072,76.374c0.967,-0 85.685,-89.973 88.673,-88.292c2.989,1.682 1.304,21.789 -0.672,25.068c-1.976,3.28 -75.274,92.189 -87.598,91.222c-12.324,-0.967 -135.865,-58.926 -148.951,-78.307Z" style="fill:#bcbcbc;"/><path id="Layer-3" serif:id="Layer 3" d="M154.58,183.7c0,0 -107.061,-51.157 -120.866,-56.626c-3.455,-1.369 103.171,60.026 103.171,60.026c0,0 -26.343,-7.591 -85.104,-40.029c-4.578,-1.418 61.392,42.254 61.392,42.254c-0,-0 -78.788,-37.339 -79.24,-36.888c-0.967,0.967 110.88,61.875 123.919,59.226c13.038,-2.648 90.521,-91.53 90.521,-94.432c0,-2.901 -0.999,-22.956 -0.999,-22.956c0,0 -86.779,89.546 -92.794,89.425Z" style="fill:#9c9c9c;"/><path id="Layer-4" serif:id="Layer 4" d="M121.329,45.743l125.854,48.621c0,-0 -82.575,89.967 -92.874,89.345c-8.52,-0.514 -142.668,-75.277 -142.668,-76.622c0,-1.345 68.763,-18.107 109.688,-61.344Z" style="fill:#e0e0e0;"/><path id="Layer-5" serif:id="Layer 5" d="M122.569,44.253c-0,-0 -43.757,44.37 -108.853,39.419c-1.012,9.042 133.717,96.568 155.464,86.85c21.747,-9.717 75.851,-73.66 77.786,-75.681c1.934,-2.022 -124.397,-50.588 -124.397,-50.588Z" style="fill:#fff;"/></g></svg>