<?xml version="1.0" encoding="UTF-8" standalone="no"?><!DOCTYPE svg PUBLIC "-//W3C//DTD SVG 1.1//EN" "http://www.w3.org/Graphics/SVG/1.1/DTD/svg11.dtd"><svg width="100%" height="100%" viewBox="0 0 256 256" version="1.1" xmlns="http://www.w3.org/2000/svg" xmlns:xlink="http://www.w3.org/1999/xlink" xml:space="preserve" xmlns:serif="http://www.serif.com/" style="fill-rule:evenodd;clip-rule:evenodd;stroke-linecap:round;stroke-linejoin:round;stroke-miterlimit:1.5;"><g id="Pen"><path d="M59.774,224.776l-39.381,10.783l10.852,-39.312l19.187,-56.308l-0,-0.017l112.681,-112.681c9.066,-9.066 23.788,-9.066 32.854,0l32.854,32.854c4.498,4.498 6.764,10.387 6.799,16.288l0.001,0.139l-0.001,0.139c-0.035,5.901 -2.301,11.79 -6.799,16.288l-112.681,112.681l-0.001,0l-56.365,19.146Zm-9.43,-51.867l-0.012,-0.012l0.012,0.012Z" style="fill:none;stroke:#007486;stroke-width:12px;"/><g><path d="M163.113,27.241c9.066,-9.066 23.788,-9.066 32.854,0l32.854,32.854c9.066,9.066 9.066,23.788 -0,32.854l-112.681,112.681l-33.114,0.184l-32.777,-33l0.183,-32.892l112.681,-112.681Z" style="fill:#0088a6;"/><path d="M125.065,65.289l32.799,32.799l-91.226,91.226l-16.386,-16.503l0.188,-32.897l74.625,-74.625Z" style="fill:url(#_Linear1);"/><path d="M163.113,27.241c9.066,-9.066 23.788,-9.066 32.854,0l32.854,32.854c9.066,9.066 9.066,23.788 -0,32.854l-18.907,18.907l-65.708,-65.708l18.907,-18.907Z" style="fill:url(#_Linear2);"/><path d="M161.873,28.481c7.013,-7.013 13.351,-5.978 17.892,-1.437l16.454,16.455c4.541,4.541 5.576,10.878 -1.437,17.891l-17.667,17.667l-32.909,-32.909l17.667,-17.667Z" style="fill:#ced4da;"/><path d="M144.206,46.148l65.708,65.708l-19.141,19.141l-65.708,-65.708l19.141,-19.141Z" style="fill:url(#_Linear3);"/><path d="M177.005,78.947l32.909,32.909l-19.141,19.141l-32.909,-32.909l19.141,-19.141Z" style="fill:#ced4da;"/><path d="M31.245,196.247c8.694,10.458 18.131,20.053 28.529,28.529l-39.381,10.783l10.852,-39.312Z" style="fill:url(#_Linear4);"/><path d="M31.245,196.247l13.061,14.616l-23.927,24.682l10.866,-39.298Z" style="fill:#3ad1e5;"/><path d="M30.883,201.46l9.155,8.87l-16.977,20.867l7.822,-29.737Z" style="fill:#5cd9ea;"/><path d="M116.14,205.63c-0,-0 -22.267,-1.363 -33.114,0.184c0,0 2.485,-30.83 0.213,-33.101c-2.163,-2.163 -30.208,-0.015 -32.895,0.196l-0.05,-0.051c2.832,-11.058 1.788,-21.999 0.167,-32.924l-0.021,0.062l0,-0.082l-19.195,56.333c8.115,10.503 17.544,20.068 28.529,28.529l56.366,-19.146Z" style="fill:url(#_Linear5);"/><path d="M31.245,196.247c1.691,3.425 9.896,11.968 12.916,14.758l39.064,-38.306c-4.836,-2.023 -18.245,-1.148 -32.929,0.158c2.061,-10.542 2.645,-21.307 -0.205,-32.594l-18.846,55.984Z" style="fill:#ffd09d;"/><path d="M121.562,68.793l-70.467,70.467c1.653,1.653 18.003,-12.014 37.726,-31.737c19.723,-19.723 34.394,-37.077 32.741,-38.73Z" style="fill:#52cad9;"/><path d="M165.069,28.099c3.122,-3.122 8.191,-3.122 11.313,-0l9.056,9.056c3.121,3.122 3.121,8.191 -0,11.312l-11.582,11.582c-3.121,3.121 -8.19,3.121 -11.312,-0l-9.056,-9.056c-3.122,-3.122 -3.122,-8.191 -0,-11.313l11.581,-11.581Z" style="fill:url(#_Linear6);"/><path d="M139.451,53.717c2.35,-2.35 6.165,-2.35 8.515,0l11.853,11.853c2.35,2.35 2.35,6.166 0,8.516l-6.817,6.817c-2.349,2.349 -6.165,2.349 -8.515,-0l-11.853,-11.853c-2.35,-2.35 -2.35,-6.166 -0,-8.516l6.817,-6.817Z" style="fill:url(#_Linear7);"/><path d="M174.564,27.545c2.384,2.384 2.384,6.254 0,8.638l-12.238,12.238c-2.384,2.384 -6.254,2.384 -8.638,0c-2.383,-2.383 -2.383,-6.254 0,-8.637l12.239,-12.239c2.383,-2.383 6.254,-2.383 8.637,0Z" style="fill:#f1f3f5;"/><path d="M148.457,53.652c2.384,2.384 2.384,6.254 0,8.638l-4.507,4.507c-2.384,2.383 -6.254,2.383 -8.637,-0c-2.384,-2.384 -2.384,-6.254 -0,-8.638l4.507,-4.507c2.383,-2.383 6.253,-2.383 8.637,0Z" style="fill:#fff;"/><path d="M127.578,74.531c2.384,2.384 2.384,6.254 0,8.638l-57.203,57.202c-2.383,2.384 -6.254,2.384 -8.637,0c-2.384,-2.383 -2.384,-6.254 -0,-8.637l57.203,-57.203c2.383,-2.384 6.254,-2.384 8.637,0Z" style="fill:#c5f6fa;"/></g></g><defs><linearGradient id="_Linear1" x1="0" y1="0" x2="1" y2="0" gradientUnits="userSpaceOnUse" gradientTransform="matrix(31.6308,31.6308,31.6308,-31.6308,95.2418,95.1124)"><stop offset="0" style="stop-color:#00bedc;stop-opacity:1"/><stop offset="1" style="stop-color:#009bba;stop-opacity:1"/></linearGradient><linearGradient id="_Linear2" x1="0" y1="0" x2="1" y2="0" gradientUnits="userSpaceOnUse" gradientTransform="matrix(64.301,64.301,64.301,-64.301,165.069,28.0988)"><stop offset="0" style="stop-color:#ced4da;stop-opacity:1"/><stop offset="1" style="stop-color:#adb5bd;stop-opacity:1"/></linearGradient><linearGradient id="_Linear3" x1="0" y1="0" x2="1" y2="0" gradientUnits="userSpaceOnUse" gradientTransform="matrix(32.7987,32.7987,32.7987,-32.7987,134.636,55.7187)"><stop offset="0" style="stop-color:#e9ecef;stop-opacity:1"/><stop offset="1" style="stop-color:#dee2e6;stop-opacity:1"/></linearGradient><linearGradient id="_Linear4" x1="0" y1="0" x2="1" y2="0" gradientUnits="userSpaceOnUse" gradientTransform="matrix(17.7563,17.7563,5.6126,-5.6126,28.3326,209.734)"><stop offset="0" style="stop-color:#00bedc;stop-opacity:1"/><stop offset="1" style="stop-color:#009bba;stop-opacity:1"/></linearGradient><linearGradient id="_Linear5" x1="0" y1="0" x2="1" y2="0" gradientUnits="userSpaceOnUse" gradientTransform="matrix(44.2185,44.2185,44.2185,-44.2185,38.7145,174.986)"><stop offset="0" style="stop-color:#e7b27a;stop-opacity:1"/><stop offset="1" style="stop-color:#e3a262;stop-opacity:1"/></linearGradient><linearGradient id="_Linear6" x1="0" y1="0" x2="1" y2="0" gradientUnits="userSpaceOnUse" gradientTransform="matrix(20.3686,20.3686,25.7647,-25.7647,162.184,30.9839)"><stop offset="0" style="stop-color:#dee2e6;stop-opacity:1"/><stop offset="1" style="stop-color:#dee2e6;stop-opacity:0"/></linearGradient><linearGradient id="_Linear7" x1="0" y1="0" x2="1" y2="0" gradientUnits="userSpaceOnUse" gradientTransform="matrix(20.3686,20.3686,27.9924,-27.9924,136.042,57.1255)"><stop offset="0" style="stop-color:#f8f9fa;stop-opacity:1"/><stop offset="1" style="stop-color:#f8f9fa;stop-opacity:0"/></linearGradient></defs></svg>