<?xml version="1.0" encoding="UTF-8" standalone="no"?><!DOCTYPE svg PUBLIC "-//W3C//DTD SVG 1.1//EN" "http://www.w3.org/Graphics/SVG/1.1/DTD/svg11.dtd"><svg width="100%" height="100%" viewBox="0 0 256 256" version="1.1" xmlns="http://www.w3.org/2000/svg" xmlns:xlink="http://www.w3.org/1999/xlink" xml:space="preserve" xmlns:serif="http://www.serif.com/" style="fill-rule:evenodd;clip-rule:evenodd;stroke-linejoin:round;stroke-miterlimit:2;"><g id="Potion---Purple" serif:id="Potion - Purple"><g id="Border"><path id="Path" d="M98.599,39.064c-0,0 -7.918,-17.099 -2.313,-27.687c5.075,-9.589 61.121,-9.416 64.185,0.055c3.75,11.591 -3.588,27.632 -3.588,27.632l-58.284,0Z" style="fill:#88929b;"/><path id="Path1" serif:id="Path" d="M101.201,37.341l53.198,-0c7.186,-0 11.276,9.192 11.276,14.65c0,5.457 -4.09,14.65 -11.276,14.65l-53.198,-0c-7.186,-0 -11.276,-7.469 -11.276,-14.65c0,-7.182 4.09,-14.65 11.276,-14.65Z" style="fill:#88929b;"/><path id="Path2" serif:id="Path" d="M98.375,72.843c0,0 -61.824,6.041 -60.654,70.876c1.171,64.836 33.934,106.688 86.27,108.003c1.122,0.028 5.339,0.028 6.461,-0c52.337,-1.315 86.657,-43.167 87.827,-108.003c1.17,-64.835 -62.211,-70.876 -62.211,-70.876l0,-19.991l-57.693,0l0,19.991Z" style="fill:#88929b;"/><rect id="Path3" serif:id="Path" x="95.997" y="63.193" width="63.318" height="20.682" style="fill:#88929b;"/></g><g id="Potion"><path id="Path4" serif:id="Path" d="M104.074,43.379c-1.944,-2.499 -10.543,-25.898 -3.154,-31.386c7.389,-5.489 49.921,-6.997 55.283,-0.328c5.361,6.669 -3.164,28.722 -4.387,31.714c-1.224,2.992 -45.797,2.498 -47.742,-0Z" style="fill:url(#_Linear1);"/><path id="Path5" serif:id="Path" d="M107.592,14.36c4.29,-2.207 24.079,-2.396 27.124,-0.678c3.045,1.718 0.963,18.606 -7.062,20.955c-8.025,2.347 -12.111,3.152 -17.466,0.268c-5.355,-2.885 -6.885,-18.338 -2.596,-20.545Z" style="fill:#d7b886;"/><path id="Ellipse" d="M142.071,15.387c0,-1.653 1.581,-2.993 3.531,-2.993c1.95,-0 3.532,1.34 3.532,2.993c-0,1.653 -1.582,2.994 -3.532,2.994c-1.95,-0 -3.531,-1.341 -3.531,-2.994Z" style="fill:#503925;"/><path id="Ellipse1" serif:id="Ellipse" d="M148.615,28.978c-0,-0.827 0.79,-1.497 1.765,-1.497c0.975,-0 1.766,0.67 1.766,1.497c-0,0.826 -0.791,1.497 -1.766,1.497c-0.975,-0 -1.765,-0.671 -1.765,-1.497Z" style="fill:#503925;"/><path id="Ellipse2" serif:id="Ellipse" d="M135.945,32.19c0,-1.653 1.581,-2.994 3.531,-2.994c1.95,0 3.531,1.341 3.531,2.994c0,1.653 -1.581,2.993 -3.531,2.993c-1.95,0 -3.531,-1.34 -3.531,-2.993Z" style="fill:#6a3f20;"/><path id="Ellipse3" serif:id="Ellipse" d="M110.188,21.494c-0,-1.653 1.581,-2.993 3.531,-2.993c1.95,-0 3.531,1.34 3.531,2.993c0,1.653 -1.581,2.994 -3.531,2.994c-1.95,-0 -3.531,-1.341 -3.531,-2.994Z" style="fill:#936e40;"/><path id="Ellipse4" serif:id="Ellipse" d="M117.25,31.971c0,-0.826 0.791,-1.496 1.766,-1.496c0.975,-0 1.766,0.67 1.766,1.496c-0,0.827 -0.791,1.497 -1.766,1.497c-0.975,0 -1.766,-0.67 -1.766,-1.497Z" style="fill:#936e40;"/><path id="Ellipse5" serif:id="Ellipse" d="M127.844,19.997c0,-0.826 0.791,-1.496 1.766,-1.496c0.975,-0 1.766,0.67 1.766,1.496c-0,0.827 -0.791,1.497 -1.766,1.497c-0.975,0 -1.766,-0.67 -1.766,-1.497Z" style="fill:#936e40;"/><path id="Path6" serif:id="Path" d="M100.333,76.982c0,-0 -60.09,5.729 -58.98,67.217c1.109,61.488 33.648,102.164 83.267,103.411c1.063,0.027 5.062,0.027 6.125,0c49.619,-1.247 82.158,-41.923 83.267,-103.411c1.11,-61.488 -58.981,-67.217 -58.981,-67.217l0,-18.959l-54.698,-0l0,18.959Z" style="fill:url(#_Linear2);"/><path id="Rectangle" d="M106.405,39.064l43.368,0c7.186,0 13.011,5.787 13.011,12.927c-0,7.139 -5.825,12.926 -13.011,12.926l-43.368,-0c-7.186,-0 -13.01,-5.787 -13.01,-12.926c-0,-7.14 5.824,-12.927 13.01,-12.927Z" style="fill:url(#_Linear3);"/><path id="Path7" serif:id="Path" d="M108.267,62.893c-0,0 2.52,13.296 3.779,14.698c1.26,1.401 32.268,3.448 33.354,1.803c1.086,-1.644 3.422,-16.501 3.422,-16.501c-0,0 -5.633,2.193 -23.094,2.193c-17.461,0 -17.461,-2.193 -17.461,-2.193Z" style="fill:#956d48;fill-opacity:0.37;"/><path id="Ellipse6" serif:id="Ellipse" d="M121.311,68.571c0,-0.996 0.83,-1.804 1.853,-1.804c1.024,0 1.853,0.808 1.853,1.804c0,0.996 -0.829,1.804 -1.853,1.804c-1.023,-0 -1.853,-0.808 -1.853,-1.804Z" style="fill:#6a3f19;fill-opacity:0.37;"/><path id="Ellipse7" serif:id="Ellipse" d="M125.017,75.787c0,-0.997 0.83,-1.804 1.853,-1.804c1.024,-0 1.853,0.807 1.853,1.804c0,0.996 -0.829,1.804 -1.853,1.804c-1.023,-0 -1.853,-0.808 -1.853,-1.804Z" style="fill:#6a3f19;fill-opacity:0.37;"/><path id="Ellipse8" serif:id="Ellipse" d="M113.899,72.179c0,-0.996 0.83,-1.804 1.853,-1.804c1.024,-0 1.853,0.808 1.853,1.804c0,0.996 -0.829,1.804 -1.853,1.804c-1.023,-0 -1.853,-0.808 -1.853,-1.804Z" style="fill:#6a3f19;fill-opacity:0.37;"/><path id="Ellipse9" serif:id="Ellipse" d="M98.599,50.267c-0,-3.331 9.708,-6.032 21.684,-6.032c11.976,-0 21.684,2.701 21.684,6.032c-0,3.332 -9.708,6.032 -21.684,6.032c-11.976,0 -21.684,-2.7 -21.684,-6.032Z" style="fill:#fff;"/><path id="Color" d="M58.688,138.144c-2.977,0.414 -11.539,91.933 66.634,91.933c78.271,0 71.191,-89.449 71.191,-89.449c-0,0 -131.245,-3.4 -137.825,-2.484Z" style="fill:#b272c0;"/><path id="Color-copy" serif:id="Color copy" d="M58.688,138.144c-2.977,0.414 -11.539,91.933 66.634,91.933c78.271,0 71.191,-89.449 71.191,-89.449c-0,0 -131.245,-3.4 -137.825,-2.484Z" style="fill:#b272c0;"/><path id="Path8" serif:id="Path" d="M163.229,143.409c-0,0 9.081,65.466 -34.191,86.34c74.792,-2.831 70.944,-90.844 70.944,-90.844l-36.753,4.504Z" style="fill:#9c64a8;"/><path id="Ellipse10" serif:id="Ellipse" d="M57.944,139.134c-0,-4.013 31.829,-7.265 71.094,-7.265c39.265,-0 71.094,3.252 71.094,7.265c0,4.012 -31.829,7.265 -71.094,7.265c-39.265,-0 -71.094,-3.253 -71.094,-7.265Z" style="fill:url(#_Linear4);"/></g><g id="Points"><path id="Ellipse11" serif:id="Ellipse" d="M83.315,162.841c0,-2.149 1.81,-3.891 4.043,-3.891c2.233,-0 4.043,1.742 4.043,3.891c0,2.149 -1.81,3.891 -4.043,3.891c-2.233,-0 -4.043,-1.742 -4.043,-3.891Z" style="fill:#fff;fill-opacity:0.3;"/><path id="Ellipse12" serif:id="Ellipse" d="M141.531,170.193c0,-1.228 0.776,-2.224 1.733,-2.224c0.957,0 1.733,0.996 1.733,2.224c-0,1.227 -0.776,2.223 -1.733,2.223c-0.957,-0 -1.733,-0.996 -1.733,-2.223Z" style="fill:#fff;fill-opacity:0.3;"/><path id="Ellipse13" serif:id="Ellipse" d="M122.244,200.465c-0,-3.985 3.318,-7.216 7.411,-7.216c4.094,0 7.412,3.231 7.412,7.216c0,3.984 -3.318,7.215 -7.412,7.215c-4.093,0 -7.411,-3.231 -7.411,-7.215Z" style="fill:#fff;fill-opacity:0.3;"/><path id="Ellipse14" serif:id="Ellipse" d="M171.566,189.646c0,-0.921 0.776,-1.667 1.733,-1.667c0.957,-0 1.732,0.746 1.732,1.667c0,0.921 -0.775,1.667 -1.732,1.667c-0.957,0 -1.733,-0.746 -1.733,-1.667Z" style="fill:#fff;fill-opacity:0.3;"/><path id="Ellipse15" serif:id="Ellipse" d="M168.345,158.024c-0,-3.487 2.904,-6.314 6.485,-6.314c3.582,0 6.486,2.827 6.486,6.314c-0,3.486 -2.904,6.313 -6.486,6.313c-3.581,0 -6.485,-2.827 -6.485,-6.313Z" style="fill:#fff;fill-opacity:0.3;"/><path id="Ellipse16" serif:id="Ellipse" d="M108.031,176.307c0,-0.921 0.776,-1.668 1.733,-1.668c0.957,0 1.733,0.747 1.733,1.668c-0,0.92 -0.776,1.667 -1.733,1.667c-0.957,-0 -1.733,-0.747 -1.733,-1.667Z" style="fill:#fff;fill-opacity:0.3;"/><path id="Ellipse17" serif:id="Ellipse" d="M74.531,197.427c0,-0.921 0.776,-1.667 1.733,-1.667c0.957,-0 1.732,0.746 1.732,1.667c0,0.921 -0.775,1.668 -1.732,1.668c-0.957,-0 -1.733,-0.747 -1.733,-1.668Z" style="fill:url(#_Linear5);"/><path id="Ellipse18" serif:id="Ellipse" d="M159.076,211.62c-0,-0.614 0.517,-1.111 1.155,-1.111c0.638,-0 1.155,0.497 1.155,1.111c0,0.614 -0.517,1.112 -1.155,1.112c-0.638,-0 -1.155,-0.498 -1.155,-1.112Z" style="fill:#fff;fill-opacity:0.3;"/></g><g id="Lights"><path id="Ellipse19" serif:id="Ellipse" d="M66.506,173.499c-4.311,-9.519 -1.981,-19.55 5.204,-22.406c7.186,-2.856 16.506,2.546 20.817,12.065c4.312,9.519 1.982,19.55 -5.204,22.405c-7.186,2.856 -16.505,-2.545 -20.817,-12.064Z" style="fill:#fff;"/><path id="Ellipse20" serif:id="Ellipse" d="M91.66,200.213c-0,-2.379 1.941,-4.308 4.337,-4.308c2.395,-0 4.336,1.929 4.336,4.308c0,2.38 -1.941,4.309 -4.336,4.309c-2.396,0 -4.337,-1.929 -4.337,-4.309Z" style="fill:#fff;"/><path id="Path9" serif:id="Path" d="M100.646,86.459c0,0 -51.559,4.948 -50.607,58.045c0.952,53.098 18.012,89.83 60.587,90.907c0.912,0.023 4.343,0.023 5.255,-0c3.439,-0.087 6.782,-0.393 10.023,-0.916c-36.885,-5.949 -49.686,-41.182 -50.561,-89.991c-0.952,-53.097 50.606,-58.045 50.606,-58.045l0.008,-21.605l-25.304,0l-0.007,21.605Z" style="fill:#fff;fill-opacity:0.32;"/><path id="Ellipse21" serif:id="Ellipse" d="M181.769,175.9c1.948,-2.959 4.715,-4.236 6.18,-2.85c1.465,1.385 1.073,4.907 -0.876,7.867c-1.948,2.96 -4.715,4.236 -6.18,2.851c-1.465,-1.386 -1.072,-4.908 0.876,-7.868Z" style="fill:#fff;"/></g></g><defs><linearGradient id="_Linear1" x1="0" y1="0" x2="1" y2="0" gradientUnits="userSpaceOnUse" gradientTransform="matrix(56.6679,-0.635256,0.635256,56.6679,109.56,18.587)"><stop offset="0" style="stop-color:#b18155;stop-opacity:1"/><stop offset="0.46" style="stop-color:#956d48;stop-opacity:1"/><stop offset="0.96" style="stop-color:#715236;stop-opacity:1"/><stop offset="1" style="stop-color:#715236;stop-opacity:1"/></linearGradient><linearGradient id="_Linear2" x1="0" y1="0" x2="1" y2="0" gradientUnits="userSpaceOnUse" gradientTransform="matrix(137.622,3.44743,-3.44743,137.622,75.0574,134.67)"><stop offset="0" style="stop-color:#fff;stop-opacity:1"/><stop offset="1" style="stop-color:#9dc0d5;stop-opacity:1"/></linearGradient><linearGradient id="_Linear3" x1="0" y1="0" x2="1" y2="0" gradientUnits="userSpaceOnUse" gradientTransform="matrix(58.6917,2.53652,-2.53652,58.6917,106.721,45.7409)"><stop offset="0" style="stop-color:#fff;stop-opacity:1"/><stop offset="1" style="stop-color:#9dc0d5;stop-opacity:1"/></linearGradient><linearGradient id="_Linear4" x1="0" y1="0" x2="1" y2="0" gradientUnits="userSpaceOnUse" gradientTransform="matrix(137.622,-3.44305,3.44305,137.622,70.6522,136.003)"><stop offset="0" style="stop-color:#dfbbe9;stop-opacity:1"/><stop offset="0.98" style="stop-color:#c7a7d1;stop-opacity:1"/><stop offset="1" style="stop-color:#c7a7d1;stop-opacity:1"/></linearGradient><linearGradient id="_Linear5" x1="0" y1="0" x2="1" y2="0" gradientUnits="userSpaceOnUse" gradientTransform="matrix(4.57504e-07,2.69847,-2.69847,4.57504e-07,88.4104,192.607)"><stop offset="0" style="stop-color:#fff;stop-opacity:0.3"/><stop offset="1" style="stop-color:#c7a7d4;stop-opacity:0.3"/></linearGradient></defs></svg>