<?xml version="1.0" encoding="UTF-8" standalone="no"?><!DOCTYPE svg PUBLIC "-//W3C//DTD SVG 1.1//EN" "http://www.w3.org/Graphics/SVG/1.1/DTD/svg11.dtd"><svg width="100%" height="100%" viewBox="0 0 256 256" version="1.1" xmlns="http://www.w3.org/2000/svg" xmlns:xlink="http://www.w3.org/1999/xlink" xml:space="preserve" xmlns:serif="http://www.serif.com/" style="fill-rule:evenodd;clip-rule:evenodd;stroke-linecap:round;stroke-linejoin:round;stroke-miterlimit:1.5;"><g id="Ranking"><path d="M244.529,161.659c0.801,-6.078 -1.057,-12.207 -5.099,-16.816c-4.042,-4.61 -9.875,-7.253 -16.005,-7.253l-26.606,-0c-11.538,-0 -20.976,9.191 -21.28,20.725c-0.391,14.846 -0.918,34.8 -1.316,49.895c-0.151,5.741 2.024,11.3 6.031,15.414c4.007,4.114 9.506,6.434 15.249,6.434c6.972,0 14.618,0 21.342,0c10.681,0 19.708,-7.915 21.104,-18.504c1.891,-14.336 4.525,-34.315 6.58,-49.895Z" style="fill:none;stroke:#744941;stroke-width:17.33px;"/><path d="M169.165,47.864c0.172,-5.753 -1.993,-11.331 -6.002,-15.461c-4.009,-4.13 -9.519,-6.461 -15.275,-6.461c-12.314,-0 -27.632,-0 -39.946,-0c-5.755,-0 -11.266,2.331 -15.275,6.461c-4.008,4.13 -6.174,9.708 -6.002,15.461c1.185,39.667 3.669,122.826 4.825,161.543c0.344,11.504 9.768,20.651 21.277,20.651c9.516,0 20.781,0 30.296,0c11.509,0 20.934,-9.147 21.277,-20.651c1.157,-38.717 3.64,-121.876 4.825,-161.543Z" style="fill:none;stroke:#744941;stroke-width:17.33px;"/><path d="M78.168,105.696c-0.386,-11.471 -9.797,-20.57 -21.275,-20.57c-8.003,-0 -17.21,-0 -25.443,-0c-5.955,-0 -11.639,2.495 -15.67,6.879c-4.031,4.384 -6.041,10.257 -5.541,16.192c2.381,28.304 6.376,75.793 8.611,102.359c0.927,11.026 10.147,19.502 21.212,19.502l20.276,0c5.769,0 11.292,-2.342 15.303,-6.49c4.01,-4.148 6.165,-9.746 5.971,-15.512c-0.935,-27.795 -2.532,-75.261 -3.444,-102.36Z" style="fill:none;stroke:#744941;stroke-width:17.33px;"/><g><path d="M244.529,161.659c0.801,-6.078 -1.057,-12.207 -5.099,-16.816c-4.042,-4.61 -9.875,-7.253 -16.005,-7.253l-26.606,-0c-11.538,-0 -20.976,9.191 -21.28,20.725c-0.391,14.846 -0.918,34.8 -1.316,49.895c-0.151,5.741 2.024,11.3 6.031,15.414c4.007,4.114 9.506,6.434 15.249,6.434c6.972,0 14.618,0 21.342,0c10.681,0 19.708,-7.915 21.104,-18.504c1.891,-14.336 4.525,-34.315 6.58,-49.895Z" style="fill:#5c7cfa;"/><path d="M235.439,166.826c0.821,-4.974 -0.586,-10.057 -3.848,-13.901c-3.262,-3.843 -8.048,-6.059 -13.089,-6.059c-0.001,-0 -0.002,-0 -0.003,-0c-8.684,-0 -15.803,6.888 -16.089,15.567c-0.418,12.661 -1.004,30.429 -1.419,43.024c-0.133,4.017 1.37,7.916 4.165,10.805c2.795,2.889 6.643,4.52 10.663,4.52c0.001,-0 0.002,-0 0.003,-0c6.182,-0 11.455,-4.475 12.461,-10.575c1.861,-11.277 4.851,-29.403 7.156,-43.381Z" style="fill:#748ffc;"/><path d="M229.332,145.087c2.903,-1.57 7.071,0.008 9.303,3.523c2.232,3.514 1.687,7.642 -1.215,9.213c-2.903,1.57 -7.071,-0.008 -9.303,-3.523c-2.232,-3.514 -1.687,-7.642 1.215,-9.213Z" style="fill:#fff;"/></g><g><path d="M169.165,47.864c0.172,-5.753 -1.993,-11.331 -6.002,-15.461c-4.009,-4.13 -9.519,-6.461 -15.275,-6.461c-12.314,-0 -27.632,-0 -39.946,-0c-5.755,-0 -11.266,2.331 -15.275,6.461c-4.008,4.13 -6.174,9.708 -6.002,15.461c1.185,39.667 3.669,122.826 4.825,161.543c0.344,11.504 9.768,20.651 21.277,20.651c9.516,0 20.781,0 30.296,0c11.509,0 20.934,-9.147 21.277,-20.651c1.157,-38.717 3.64,-121.876 4.825,-161.543Z" style="fill:#fa0;"/><path d="M159.653,56.973c0.189,-5.764 -1.968,-11.358 -5.978,-15.502c-4.01,-4.144 -9.53,-6.484 -15.297,-6.484c-1.333,0 -2.674,0 -4.007,0c-5.767,0 -11.287,2.34 -15.297,6.484c-4.01,4.144 -6.168,9.738 -5.978,15.502c1.219,37.15 3.665,111.635 4.787,145.818c0.327,9.976 8.509,17.893 18.49,17.893c0.001,0 0.002,0 0.003,0c9.981,0 18.162,-7.917 18.49,-17.893c1.122,-34.183 3.568,-108.668 4.787,-145.818Z" style="fill:#ffc800;"/><path d="M150.732,33.94c2.903,-1.57 7.071,0.008 9.303,3.523c2.232,3.514 1.687,7.643 -1.215,9.213c-2.902,1.57 -7.071,-0.008 -9.303,-3.522c-2.232,-3.515 -1.687,-7.643 1.215,-9.214Z" style="fill:#fff;"/></g><g><path d="M78.168,105.696c-0.386,-11.471 -9.797,-20.57 -21.275,-20.57c-8.003,-0 -17.21,-0 -25.443,-0c-5.955,-0 -11.639,2.495 -15.67,6.879c-4.031,4.384 -6.041,10.257 -5.541,16.192c2.381,28.304 6.376,75.793 8.611,102.359c0.927,11.026 10.147,19.502 21.212,19.502l20.276,0c5.769,0 11.292,-2.342 15.303,-6.49c4.01,-4.148 6.165,-9.746 5.971,-15.512c-0.935,-27.795 -2.532,-75.261 -3.444,-102.36Z" style="fill:#e64980;"/><path d="M67.649,107.951c-0.314,-8.477 -7.277,-15.186 -15.759,-15.186l-0.003,0c-4.659,0 -9.102,1.962 -12.241,5.405c-3.139,3.443 -4.682,8.049 -4.252,12.688c2.555,27.558 7.347,79.254 9.464,102.091c0.596,6.426 5.987,11.341 12.441,11.341l0.001,0c3.838,0 7.511,-1.561 10.175,-4.325c2.663,-2.764 4.087,-6.493 3.945,-10.328c-0.932,-25.13 -2.825,-76.196 -3.771,-101.686Z" style="fill:#f06595;"/><path d="M58.323,91.409c2.902,-1.57 7.071,0.008 9.302,3.523c2.232,3.514 1.688,7.643 -1.215,9.213c-2.902,1.57 -7.07,-0.008 -9.302,-3.523c-2.232,-3.514 -1.688,-7.642 1.215,-9.213Z" style="fill:#fff;"/></g></g></svg>