<?xml version="1.0" encoding="UTF-8" standalone="no"?><!DOCTYPE svg PUBLIC "-//W3C//DTD SVG 1.1//EN" "http://www.w3.org/Graphics/SVG/1.1/DTD/svg11.dtd"><svg width="100%" height="100%" viewBox="0 0 256 256" version="1.1" xmlns="http://www.w3.org/2000/svg" xmlns:xlink="http://www.w3.org/1999/xlink" xml:space="preserve" xmlns:serif="http://www.serif.com/" style="fill-rule:evenodd;clip-rule:evenodd;stroke-linejoin:round;stroke-miterlimit:2;"><g id="Rocket"><g id="Layer-7" serif:id="Layer 7"><path id="Layer-3" serif:id="Layer 3" d="M239.68,249.267c13.224,5.288 -0.663,-74.302 -44.018,-100.129c-43.356,-25.828 -30.24,58.43 -16.039,65.964c26.854,2.539 50.543,30.36 60.057,34.165Z" style="fill:#9e77b3;"/><path id="Layer-4" serif:id="Layer 4" d="M174.573,209.255l16.528,-44.051c-0,0 29.043,30.337 24.317,65.965c-10.322,-7.558 -22.681,-14.827 -35.795,-16.067c-1.733,-0.919 -3.45,-2.982 -5.05,-5.847Z" style="fill-opacity:0.11;"/><path id="Layer-5" serif:id="Layer 5" d="M198.646,155.394c0.424,-1.545 2.438,-1.41 5.507,0.678c6.282,4.274 16.983,16.733 27.496,39.711c8.198,17.919 10.024,38.235 9.757,43.097c-0.315,5.736 -4.227,-18.091 -14.623,-41.309c-10.396,-23.218 -29.05,-38.847 -28.137,-42.177Z" style="fill:#dfa3e1;"/><path id="Layer-6" serif:id="Layer 6" d="M208.301,161.926c0.938,-0.577 6.776,5.477 12.081,13.681c5.306,8.204 8.083,15.472 7.144,16.049c-0.938,0.577 -5.029,-6.425 -10.334,-14.629c-5.306,-8.204 -9.83,-14.524 -8.891,-15.101Z" style="fill:#fff;fill-opacity:0.6;"/></g><g id="Layer-13" serif:id="Layer 13"><path id="Layer-9" serif:id="Layer 9" d="M16.32,249.267c-13.224,5.288 0.663,-74.302 44.018,-100.129c43.356,-25.828 30.24,58.43 16.039,65.964c-26.854,2.539 -50.543,30.36 -60.057,34.165Z" style="fill:#9e77b3;"/><path id="Layer-10" serif:id="Layer 10" d="M81.427,209.255l-16.528,-44.051c0,0 -29.043,30.337 -24.317,65.965c10.322,-7.558 22.681,-14.827 35.795,-16.067c1.733,-0.919 3.45,-2.982 5.05,-5.847Z" style="fill-opacity:0.11;"/><path id="Layer-11" serif:id="Layer 11" d="M57.354,155.394c-0.424,-1.545 -2.438,-1.41 -5.507,0.678c-6.282,4.274 -16.983,16.733 -27.496,39.711c-8.198,17.919 -10.024,38.235 -9.757,43.097c0.315,5.736 4.227,-18.091 14.623,-41.309c10.396,-23.218 29.05,-38.847 28.137,-42.177Z" style="fill:#dfa3e1;"/><path id="Layer-12" serif:id="Layer 12" d="M47.699,161.926c-0.938,-0.577 -6.776,5.477 -12.081,13.681c-5.306,8.204 -8.083,15.472 -7.144,16.049c0.938,0.577 5.029,-6.425 10.334,-14.629c5.306,-8.204 9.83,-14.524 8.891,-15.101Z" style="fill:#fff;fill-opacity:0.6;"/></g><path id="Layer-14" serif:id="Layer 14" d="M131.104,5.055c19.823,0.359 101.564,85.454 49.98,210.773c-8.404,20.416 -91.261,25.826 -103.692,-1.709c-54.314,-120.31 31.625,-209.463 53.712,-209.064Z" style="fill:#e8e8e8;"/><path id="Layer-15" serif:id="Layer 15" d="M175.496,70.374c21.414,12.165 27.565,82.736 11.399,110.877c-16.167,28.142 -89.033,25.895 -100.289,6.663c-18.954,-32.386 -14.414,-93.058 1.114,-109.766c15.529,-16.707 76.824,-13.996 87.776,-7.774Z" style="fill:#fff;fill-opacity:0.5;"/><path id="Layer-16" serif:id="Layer 16" d="M128.31,232.981c-12.962,0.024 -25.884,-1.826 -35.662,-5.935c9.923,-22.476 33.147,-63.377 33.147,-63.377l2.515,69.312Z" style="fill:#e0e0e0;"/><path id="Layer-17" serif:id="Layer 17" d="M166.335,72.817c9.618,-2.396 20.478,7.299 24.236,21.637c3.758,14.337 -1,27.923 -10.618,30.318c-9.619,2.396 -20.479,-7.299 -24.236,-21.636c-3.758,-14.338 1,-27.923 10.618,-30.319Z" style="fill:#fff;"/><path id="Layer-18" serif:id="Layer 18" d="M81.764,51.58c17.204,-29.776 39.572,-47.095 49.397,-46.918c8.844,0.159 29.923,16.97 46.149,46.561c-14.579,3.764 -31.049,5.885 -48.478,5.885c-16.869,-0 -32.84,-1.987 -47.068,-5.528Z" style="fill:#9e77b3;"/><path id="Layer-19" serif:id="Layer 19" d="M177.359,50.771c3.506,0.896 3.81,5.268 2.651,6.444c-15.982,4.214 -32.042,6.102 -51.147,6.102c-18.493,0 -34.224,-1.653 -49.821,-5.618c-1.687,-2.827 0.822,-7.029 2.874,-6.548c14.755,3.463 30.229,5.003 47.436,5.003c17.546,0 33.026,-1.791 48.007,-5.383Z" style="fill:#ffe383;"/><path id="Layer-20" serif:id="Layer 20" d="M126.502,75.99c21.473,-0 38.906,16.995 38.906,37.928c-0,20.933 -17.433,37.928 -38.906,37.928c-21.473,-0 -38.906,-16.995 -38.906,-37.928c-0,-20.933 17.433,-37.928 38.906,-37.928Z" style="fill:#e1e1e1;fill-opacity:0.63;"/><path id="Layer-21" serif:id="Layer 21" d="M130.027,70.709c20.772,0 37.636,16.441 37.636,36.69c0,20.25 -16.864,36.69 -37.636,36.69c-20.772,0 -37.636,-16.44 -37.636,-36.69c0,-20.249 16.864,-36.69 37.636,-36.69Z" style="fill:#f8f8f8;"/><path id="Layer-22" serif:id="Layer 22" d="M130.027,77.777c17.28,0 31.308,13.273 31.308,29.622c0,16.349 -14.028,29.622 -31.308,29.622c-17.279,0 -31.308,-13.273 -31.308,-29.622c0,-16.349 14.029,-29.622 31.308,-29.622Z" style="fill:#dcdcdc;fill-opacity:0.29;"/><path id="Layer-23" serif:id="Layer 23" d="M130.027,79.504c16.036,-0 29.054,12.499 29.054,27.895c0,15.396 -13.018,27.896 -29.054,27.896c-16.035,-0 -29.053,-12.5 -29.053,-27.896c-0,-15.396 13.018,-27.895 29.053,-27.895Z" style="fill:#69b3e2;"/><path id="Layer-24" serif:id="Layer 24" d="M139.803,84.37c11.945,4.093 18.943,14.904 15.618,24.126c-3.325,9.222 -15.723,13.386 -27.668,9.292c-11.945,-4.093 -18.943,-14.903 -15.618,-24.125c3.325,-9.222 15.723,-13.386 27.668,-9.293Z" style="fill:#96d2f2;fill-opacity:0.71;"/><path id="Layer-25" serif:id="Layer 25" d="M136.655,89.821c3.199,-2.045 8.27,-0.027 11.319,4.505c3.048,4.531 2.925,9.87 -0.273,11.915c-3.199,2.045 -8.271,0.027 -11.319,-4.505c-3.048,-4.531 -2.926,-9.87 0.273,-11.915Z" style="fill:#fff;"/><path id="Layer-26" serif:id="Layer 26" d="M110.403,116.715c1.078,-0.641 2.632,-0.02 3.469,1.386c0.837,1.406 0.642,3.069 -0.436,3.71c-1.078,0.641 -2.632,0.02 -3.469,-1.386c-0.837,-1.406 -0.641,-3.069 0.436,-3.71Z" style="fill:#fff;"/><path id="Layer-27" serif:id="Layer 27" d="M128.894,159.743c5.945,-0 10.771,20.659 10.771,46.106c-0,25.447 -4.826,46.106 -10.771,46.106c-5.944,-0 -10.77,-20.659 -10.77,-46.106c-0,-25.447 4.826,-46.106 10.77,-46.106Z" style="fill:#9e77b3;"/><path id="Layer-28" serif:id="Layer 28" d="M118.043,194.495c0.375,23.993 5.046,42.985 10.746,42.985c5.085,0 9.351,-15.117 10.479,-35.417c0.016,1.031 0.024,2.072 0.024,3.121c0,25.446 -4.826,46.106 -10.77,46.106c-5.945,-0 -10.771,-20.66 -10.771,-46.106c0,-3.68 0.101,-7.259 0.292,-10.689Z" style="fill-opacity:0.11;"/><path id="Layer-29" serif:id="Layer 29" d="M159.756,87.92c6.519,9.021 6.179,22.297 4.593,23.383c-1.587,1.087 -0.117,-11.215 -7.543,-21.518c-7.426,-10.304 -18.611,-12.737 -17.024,-13.824c1.587,-1.087 13.219,2.613 19.974,11.959Z" style="fill:#fff;"/><path id="Layer-30" serif:id="Layer 30" d="M135.794,74.207c1.034,0.27 1.737,0.987 1.568,1.601c-0.169,0.614 -1.145,0.893 -2.179,0.623c-1.034,-0.271 -1.737,-0.988 -1.568,-1.602c0.169,-0.613 1.145,-0.892 2.179,-0.622Z" style="fill:#fff;"/><path id="Layer-31" serif:id="Layer 31" d="M105.299,20.355c10.543,-10.654 20.293,-16.412 25.929,-16.309c5.115,0.094 14.308,5.859 24.296,16.533c-7.582,1.101 -15.794,1.703 -24.367,1.703c-9.138,0 -17.866,-0.684 -25.858,-1.927Z" style="fill:#ffe383;"/><path id="Layer-32" serif:id="Layer 32" d="M133.898,6.69c4.968,-0.395 16.455,9.554 15.505,11.586c-0.949,2.033 -25.263,3.001 -25.12,-1.931c0.143,-4.932 5.46,-9.324 9.615,-9.655Z" style="fill:#fffcb6;fill-opacity:0.52;"/><path id="Layer-33" serif:id="Layer 33" d="M152.133,23.963c7.832,1.724 20.24,16.693 17.66,24.215c-1.125,3.282 -45.117,6.535 -46.582,-0.531c-1.465,-7.066 0.807,-18.231 8.528,-21.23c4.13,-1.604 15.599,-3.51 20.394,-2.454Z" style="fill:#dfa3e1;"/><path id="Layer-34" serif:id="Layer 34" d="M138.601,9.618c0.21,-2.669 8.285,2.797 6.104,5.36c-2.181,2.564 -6.38,-1.852 -6.104,-5.36Z" style="fill:#fff;"/><path id="Layer-35" serif:id="Layer 35" d="M173.885,52.61c5.933,-1.977 7.752,3.471 3.208,4.394c-31.653,6.427 -54.818,3.927 -53.301,2.281c2.471,-2.683 34.036,-1.325 50.093,-6.675Z" style="fill:#fffcb6;fill-opacity:0.52;"/><path id="Layer-36" serif:id="Layer 36" d="M168.968,53.749c2.84,-0.567 5.349,-0.061 5.599,1.129c0.25,1.19 -1.853,2.617 -4.693,3.184c-2.84,0.567 -5.349,0.062 -5.599,-1.128c-0.25,-1.191 1.852,-2.617 4.693,-3.185Z" style="fill:#fff;"/><path id="Layer-37" serif:id="Layer 37" d="M153.836,26.536c2.745,-3.233 21.705,15.891 10.424,19.314c-11.985,3.637 -15.12,-13.782 -10.424,-19.314Z" style="fill:#fff;"/><path id="Layer-38" serif:id="Layer 38" d="M176.859,201.447c3.418,0.411 -0.35,10.168 -6.09,15.561c-5.74,5.393 -23.663,7.024 -23.683,0.421c-0.021,-6.602 23.412,-16.747 29.773,-15.982Z" style="fill:#fff;fill-opacity:0.5;"/><path id="Layer-39" serif:id="Layer 39" d="M129.43,163.516c2.975,-0 5.39,13.394 5.39,29.893c-0,16.498 -2.415,29.893 -5.39,29.893c-2.974,-0 -5.389,-13.395 -5.389,-29.893c-0,-16.499 2.415,-29.893 5.389,-29.893Z" style="fill:#dfa3e1;"/><path id="Layer-40" serif:id="Layer 40" d="M129.447,164.996c1.064,0 1.927,4.465 1.927,9.965c-0,5.499 -0.863,9.964 -1.927,9.964c-1.063,-0 -1.926,-4.465 -1.926,-9.964c-0,-5.5 0.863,-9.965 1.926,-9.965Z" style="fill:#fff;fill-opacity:0.6;"/></g></svg>