<?xml version="1.0" encoding="UTF-8" standalone="no"?><!DOCTYPE svg PUBLIC "-//W3C//DTD SVG 1.1//EN" "http://www.w3.org/Graphics/SVG/1.1/DTD/svg11.dtd"><svg width="100%" height="100%" viewBox="0 0 256 256" version="1.1" xmlns="http://www.w3.org/2000/svg" xmlns:xlink="http://www.w3.org/1999/xlink" xml:space="preserve" xmlns:serif="http://www.serif.com/" style="fill-rule:evenodd;clip-rule:evenodd;stroke-linejoin:round;stroke-miterlimit:2;"><g id="Sea-Star" serif:id="Sea Star"><path id="Layer-2" serif:id="Layer 2" d="M121.567,41.206c18.731,-2.22 41.216,50.721 41.216,50.721c-0,-0 95.424,-10.075 91.073,15.688c-4.388,25.983 -69.709,47.11 -69.709,47.11c-0.949,-2.935 36.932,75.038 18.8,83.015c-18.36,8.078 -75.659,-55.229 -75.659,-55.229c-0,0 -60.639,65.922 -76.943,52.06c-17.092,-14.532 24.313,-87.086 25.308,-83.849c-0,-0 -87.742,-27.436 -71.693,-47.283c11.159,-13.799 91.158,-9.305 91.158,-9.305c-0,-0 7.146,-50.641 26.449,-52.928Z" style="fill:#d8aa60;"/><path id="Layer-3" serif:id="Layer 3" d="M120.355,17.6c18.731,-2.22 41.547,67.418 41.547,67.418c0,-0 85.959,-1.204 90.057,17.466c4.099,18.67 -68.692,45.332 -68.692,45.332c-0,-0 38.047,79.97 18.799,84.501c-19.247,4.531 -75.658,-56.715 -75.658,-56.715c-0,0 -62.268,65.289 -77.687,55.318c-15.418,-9.971 26.052,-87.107 26.052,-87.107c-0,-0 -80.042,-25.662 -71.09,-41.288c8.953,-15.627 90.554,-15.3 90.554,-15.3c0,-0 6.815,-67.338 26.118,-69.625Z" style="fill:#ffd56c;"/><path id="Layer-4" serif:id="Layer 4" d="M126.023,23.172c11.566,4.01 25.741,45.377 28.618,58.071c1.848,8.152 -25.494,18.323 -32.402,15.442c-6.909,-2.881 -7.517,-77.43 3.784,-73.513Z" style="fill:#fff3a8;fill-opacity:0.71;"/><path id="Layer-5" serif:id="Layer 5" d="M16.474,103.788c6.262,-11.816 57.667,-12.248 69.538,-13.044c7.624,-0.511 10.145,31.022 5.976,37.991c-4.169,6.968 -81.633,-13.401 -75.514,-24.947Z" style="fill:#fff3a8;fill-opacity:0.71;"/><path id="Layer-6" serif:id="Layer 6" d="M239.196,97.598c-6.197,-11.487 -57.608,-9.207 -69.476,-9.377c-7.622,-0.109 -10.318,31.562 -6.187,38.311c4.132,6.75 81.72,-17.709 75.663,-28.934Z" style="fill:#fff3a8;fill-opacity:0.71;"/><path id="Layer-7" serif:id="Layer 7" d="M199.82,217.368c5.1,-12.424 -13.24,-46.632 -17.042,-55.02c-2.441,-5.388 -23.013,15.083 -25.848,22.725c-2.836,7.641 37.907,44.435 42.89,32.295Z" style="fill:#fff3a8;fill-opacity:0.71;"/><path id="Layer-8" serif:id="Layer 8" d="M123.28,22.539c2.163,-0.182 3.988,1.229 4.073,3.148c0.085,1.918 -1.602,3.624 -3.766,3.806c-2.163,0.182 -3.988,-1.228 -4.073,-3.147c-0.085,-1.919 1.602,-3.625 3.766,-3.807Z" style="fill:#fff;"/><path id="Layer-9" serif:id="Layer 9" d="M124.086,37.156c2.844,-0.144 5.185,1.652 5.225,4.008c0.04,2.356 -2.237,4.385 -5.081,4.529c-2.843,0.143 -5.184,-1.653 -5.224,-4.009c-0.04,-2.355 2.237,-4.385 5.08,-4.528Z" style="fill:#fff;"/><path id="Layer-10" serif:id="Layer 10" d="M125.161,54.824c3.979,-0.361 7.341,2.012 7.504,5.296c0.163,3.284 -2.935,6.243 -6.913,6.604c-3.979,0.361 -7.342,-2.012 -7.504,-5.296c-0.163,-3.284 2.935,-6.243 6.913,-6.604Z" style="fill:#fff4d2;"/><path id="Layer-11" serif:id="Layer 11" d="M126.535,76.346c5.195,-0.629 9.693,2.633 10.038,7.279c0.345,4.645 -3.592,8.927 -8.787,9.555c-5.195,0.628 -9.693,-2.633 -10.038,-7.279c-0.345,-4.645 3.592,-8.927 8.787,-9.555Z" style="fill:#ffefbc;"/><path id="Layer-12" serif:id="Layer 12" d="M235.301,106.776c0.289,2.372 -0.872,4.547 -2.591,4.856c-1.719,0.308 -3.35,-1.368 -3.639,-3.739c-0.289,-2.372 0.872,-4.548 2.591,-4.856c1.719,-0.308 3.35,1.367 3.639,3.739Z" style="fill:#fff;"/><path id="Layer-13" serif:id="Layer 13" d="M220.334,108.724c0.294,3.128 -1.183,5.918 -3.298,6.225c-2.114,0.306 -4.07,-1.984 -4.364,-5.113c-0.294,-3.128 1.183,-5.917 3.298,-6.224c2.114,-0.307 4.07,1.984 4.364,5.112Z" style="fill:#fff;"/><path id="Layer-14" serif:id="Layer 14" d="M204.964,110.764c0.555,4.359 -1.381,8.342 -4.322,8.889c-2.941,0.547 -5.78,-2.548 -6.335,-6.908c-0.556,-4.359 1.381,-8.342 4.322,-8.888c2.941,-0.547 5.779,2.548 6.335,6.907Z" style="fill:#fff4d2;"/><path id="Layer-15" serif:id="Layer 15" d="M182.687,115.46c0.867,5.674 -1.802,11.012 -5.956,11.912c-4.154,0.9 -8.23,-2.976 -9.096,-8.65c-0.867,-5.674 1.802,-11.012 5.956,-11.912c4.154,-0.9 8.23,2.976 9.096,8.65Z" style="fill:#ffefbc;"/><path id="Layer-16" serif:id="Layer 16" d="M195.553,218.822c-1.759,1.454 -4.009,1.39 -5.021,-0.143c-1.012,-1.532 -0.406,-3.956 1.353,-5.41c1.759,-1.454 4.009,-1.39 5.021,0.142c1.012,1.533 0.406,3.957 -1.353,5.411Z" style="fill:#fff;"/><path id="Layer-17" serif:id="Layer 17" d="M187.326,205.12c-2.359,1.832 -5.239,1.761 -6.426,-0.159c-1.187,-1.92 -0.236,-4.967 2.123,-6.799c2.359,-1.832 5.239,-1.76 6.426,0.16c1.187,1.92 0.236,4.966 -2.123,6.798Z" style="fill:#fff;"/><path id="Layer-18" serif:id="Layer 18" d="M178.846,191.069c-3.222,2.695 -7.257,2.763 -9.004,0.151c-1.747,-2.611 -0.549,-6.92 2.673,-9.615c3.223,-2.695 7.257,-2.763 9.004,-0.152c1.747,2.612 0.549,6.92 -2.673,9.616Z" style="fill:#fff4d2;"/><path id="Layer-19" serif:id="Layer 19" d="M165.172,171.561c-4.131,3.649 -9.571,3.668 -12.14,0.043c-2.57,-3.626 -1.302,-9.531 2.828,-13.18c4.131,-3.649 9.571,-3.668 12.14,-0.043c2.57,3.626 1.302,9.532 -2.828,13.18Z" style="fill:#ffefbc;"/><path id="Layer-20" serif:id="Layer 20" d="M60.767,217.615c-1.742,-1.376 -2.318,-3.774 -1.286,-5.352c1.031,-1.577 3.282,-1.741 5.024,-0.364c1.741,1.376 2.317,3.775 1.286,5.352c-1.032,1.577 -3.283,1.741 -5.024,0.364Z" style="fill:#ffefbc;fill-opacity:0.56;"/><path id="Layer-21" serif:id="Layer 21" d="M70.222,204.38c-2.234,-1.885 -2.981,-4.951 -1.665,-6.842c1.315,-1.891 4.197,-1.896 6.431,-0.011c2.235,1.885 2.981,4.951 1.666,6.842c-1.315,1.891 -4.197,1.896 -6.432,0.011Z" style="fill:#ffefbc;fill-opacity:0.56;"/><path id="Layer-22" serif:id="Layer 22" d="M79.907,190.762c-3.218,-2.511 -4.408,-6.751 -2.656,-9.463c1.752,-2.711 5.787,-2.874 9.004,-0.364c3.218,2.511 4.408,6.751 2.656,9.463c-1.752,2.712 -5.787,2.875 -9.004,0.364Z" style="fill:#ffefbc;fill-opacity:0.89;"/><path id="Layer-23" serif:id="Layer 23" d="M92.818,169.846c-4.291,-3.154 -5.833,-8.895 -3.441,-12.811c2.392,-3.917 7.817,-4.536 12.108,-1.382c4.291,3.154 5.833,8.895 3.441,12.812c-2.392,3.917 -7.817,4.536 -12.108,1.381Z" style="fill:#ffefbc;fill-opacity:0.89;"/><path id="Layer-24" serif:id="Layer 24" d="M23.396,106.006c0.309,-2.386 1.954,-4.143 3.671,-3.92c1.717,0.223 2.86,2.342 2.552,4.729c-0.309,2.386 -1.954,4.143 -3.671,3.92c-1.717,-0.223 -2.86,-2.342 -2.552,-4.729Z" style="fill:#fff;"/><path id="Layer-25" serif:id="Layer 25" d="M38.163,108.66c0.491,-3.121 2.589,-5.376 4.683,-5.032c2.094,0.344 3.396,3.158 2.905,6.279c-0.49,3.122 -2.588,5.377 -4.682,5.033c-2.094,-0.345 -3.396,-3.158 -2.906,-6.28Z" style="fill:#fff;"/><path id="Layer-26" serif:id="Layer 26" d="M53.338,111.347c0.545,-4.394 3.375,-7.666 6.317,-7.304c2.943,0.363 4.889,4.224 4.344,8.618c-0.544,4.394 -3.375,7.666 -6.317,7.304c-2.942,-0.363 -4.889,-4.224 -4.344,-8.618Z" style="fill:#fff4d2;"/><path id="Layer-27" serif:id="Layer 27" d="M75.76,113.556c0.572,-5.763 4.436,-10.126 8.623,-9.738c4.187,0.388 7.122,5.381 6.55,11.144c-0.572,5.763 -4.436,10.126 -8.623,9.738c-4.187,-0.388 -7.122,-5.382 -6.55,-11.144Z" style="fill:#ffefbc;"/><path id="Layer-28" serif:id="Layer 28" d="M134.685,35.743c2.429,-1.184 8.267,8.136 13.03,20.798c4.763,12.663 6.658,23.904 4.229,25.088c-2.429,1.183 -8.268,-8.137 -13.03,-20.799c-4.763,-12.663 -6.658,-23.904 -4.229,-25.087Z" style="fill:#fff;"/><path id="Layer-29" serif:id="Layer 29" d="M208.056,92.382c14.044,1.018 25.262,4.061 25.036,6.79c-0.226,2.729 -11.812,4.118 -25.856,3.1c-14.045,-1.018 -25.263,-4.06 -25.037,-6.789c0.227,-2.729 11.813,-4.119 25.857,-3.101Z" style="fill:#fff;"/><path id="Layer-30" serif:id="Layer 30" d="M155.422,82.927c1.989,0.448 3.233,2.614 2.775,4.834c-0.458,2.22 -2.445,3.658 -4.434,3.21c-1.989,-0.449 -3.233,-2.615 -2.775,-4.834c0.458,-2.22 2.444,-3.658 4.434,-3.21Z" style="fill:#fff;"/><path id="Layer-31" serif:id="Layer 31" d="M127.092,103.001c16.514,-1.074 30.27,10.198 30.699,25.157c0.429,14.958 -12.629,27.974 -29.143,29.048c-16.514,1.074 -30.27,-10.198 -30.699,-25.156c-0.429,-14.959 12.629,-27.975 29.143,-29.049Z" style="fill:#fffcf4;"/><path id="Layer-32" serif:id="Layer 32" d="M113.38,123.3c1.77,-0.158 3.279,1.199 3.368,3.028c0.089,1.829 -1.276,3.443 -3.045,3.601c-1.77,0.159 -3.28,-1.198 -3.369,-3.027c-0.089,-1.83 1.276,-3.443 3.046,-3.602Z" style="fill:#393939;"/><path id="Layer-33" serif:id="Layer 33" d="M140.681,121.023c1.77,-0.159 3.279,1.198 3.368,3.027c0.089,1.83 -1.276,3.443 -3.046,3.602c-1.77,0.158 -3.279,-1.199 -3.368,-3.028c-0.089,-1.829 1.276,-3.443 3.046,-3.601Z" style="fill:#393939;"/><path id="Layer-34" serif:id="Layer 34" d="M110.601,132.192c2.827,-0.253 5.188,0.903 5.27,2.579c0.081,1.677 -2.148,3.243 -4.975,3.496c-2.827,0.253 -5.188,-0.903 -5.27,-2.579c-0.081,-1.676 2.148,-3.243 4.975,-3.496Z" style="fill:#ffa19e;"/><path id="Layer-35" serif:id="Layer 35" d="M145.877,129.201c2.827,-0.253 5.188,0.902 5.27,2.579c0.081,1.676 -2.148,3.242 -4.975,3.495c-2.827,0.253 -5.189,-0.902 -5.27,-2.578c-0.082,-1.677 2.147,-3.243 4.975,-3.496Z" style="fill:#ffa19e;"/></g></svg>