<?xml version="1.0" encoding="UTF-8" standalone="no"?><!DOCTYPE svg PUBLIC "-//W3C//DTD SVG 1.1//EN" "http://www.w3.org/Graphics/SVG/1.1/DTD/svg11.dtd"><svg width="100%" height="100%" viewBox="0 0 256 256" version="1.1" xmlns="http://www.w3.org/2000/svg" xmlns:xlink="http://www.w3.org/1999/xlink" xml:space="preserve" xmlns:serif="http://www.serif.com/" style="fill-rule:evenodd;clip-rule:evenodd;stroke-linejoin:round;stroke-miterlimit:2;"><g id="Settings---Tool" serif:id="Settings - Tool"><path id="Layer-2" serif:id="Layer 2" d="M98.83,17.12c25.179,-13.121 50.414,-10.768 75.813,32.88c18.731,32.189 8.588,75.924 -28.545,99.956c-37.133,24.032 -80.43,14.228 -106.015,-12.869c-31.265,-33.113 -21.532,-53.782 0.876,-74.935l17.417,22.09c6.264,7.945 17.8,9.31 25.745,3.046l28.791,-22.7c7.945,-6.264 9.31,-17.8 3.046,-25.745l-17.128,-21.723Z" style="fill:#8a8a8a;"/><path id="Layer-3" serif:id="Layer 3" d="M90.542,6.607c28.327,-5.265 56.269,4.107 70.739,26.465c20.234,31.264 6.514,76.158 -30.619,100.19c-37.133,24.032 -83.708,18.161 -103.942,-13.103c-13.875,-21.439 -11.784,-49.287 2.875,-72.421l28.781,36.504c6.264,7.945 17.8,9.31 25.745,3.046l28.791,-22.7c7.945,-6.264 9.31,-17.8 3.046,-25.745l-25.416,-32.236Z" style="fill:#e1e1e1;"/><path id="Layer-4" serif:id="Layer 4" d="M149.445,87.74l81.584,104.877c12.222,15.712 9.389,38.39 -6.322,50.612c-15.711,12.222 -38.39,9.389 -50.612,-6.322l-81.584,-104.877l56.934,-44.29Zm47.422,119.701c5.352,-4.164 13.077,-3.199 17.24,2.153c4.163,5.352 3.198,13.077 -2.154,17.24c-5.352,4.163 -13.076,3.198 -17.24,-2.154c-4.163,-5.351 -3.198,-13.076 2.154,-17.239Z" style="fill:#8a8a8a;"/><path id="Layer-5" serif:id="Layer 5" d="M140.399,76.432l81.584,104.877c12.222,15.711 9.389,38.389 -6.322,50.611c-15.711,12.222 -38.39,9.389 -50.612,-6.322l-81.584,-104.877l56.934,-44.289Zm47.422,119.7c5.352,-4.163 13.077,-3.198 17.24,2.154c4.163,5.351 3.198,13.076 -2.154,17.239c-5.351,4.163 -13.076,3.198 -17.239,-2.153c-4.164,-5.352 -3.199,-13.077 2.153,-17.24Z" style="fill:#e1e1e1;"/><path id="Layer-6" serif:id="Layer 6" d="M143.808,77.672l78.175,103.637c12.222,15.711 9.389,38.389 -6.322,50.611c-5.391,4.194 -11.603,6.616 -17.931,7.352c1.045,-0.998 2.858,-2.102 5.62,-3.322c23.903,-10.557 19.142,-31.261 15.055,-44.456c-4.087,-13.195 -48.909,-59.015 -59.452,-69.737c-16.729,-17.014 -32.064,-33.791 -32.064,-33.791c7.413,-5.088 12.719,-7.842 16.919,-10.294Z" style="fill:#ebebeb;"/><path id="Layer-7" serif:id="Layer 7" d="M179.325,225.293c1.822,1.89 2.333,4.357 1.142,5.506c-1.192,1.148 -3.639,0.546 -5.46,-1.345c-1.822,-1.89 -2.334,-4.357 -1.142,-5.506c1.192,-1.148 3.638,-0.546 5.46,1.345Z" style="fill:#fff;"/><path id="Layer-8" serif:id="Layer 8" d="M90.337,6.344c28.409,-2.436 57.065,2.722 72.554,32.168c26.401,50.192 -71.804,118.985 -83.268,51.387c1.579,-0.636 3.095,-1.505 4.498,-2.611l28.791,-22.7c7.945,-6.264 9.31,-17.8 3.046,-25.745l-25.621,-32.499Z" style="fill:#ebebeb;"/><path id="Layer-9" serif:id="Layer 9" d="M135.875,16.249c9.732,5.619 17.443,13.284 15.165,14.842c-2.776,1.898 -7.403,-5.426 -17.136,-11.045c-9.732,-5.619 -19.887,-6.334 -18.133,-9.317c1.326,-2.255 10.371,-0.099 20.104,5.52Z" style="fill:#fff;"/><path id="Layer-10" serif:id="Layer 10" d="M104.938,8.972c0.994,-0.329 2.069,0.211 2.397,1.206c0.329,0.994 -0.211,2.069 -1.205,2.398c-0.995,0.328 -2.069,-0.212 -2.398,-1.206c-0.329,-0.995 0.211,-2.069 1.206,-2.398Z" style="fill:#fff;"/><path id="Layer-11" serif:id="Layer 11" d="M53.539,132.379c0.581,-1.236 2.963,-1.342 5.316,-0.236c2.354,1.106 3.793,3.008 3.212,4.244c-0.581,1.236 -2.963,1.342 -5.317,0.236c-2.353,-1.106 -3.792,-3.008 -3.211,-4.244Z" style="fill:#fff;"/><path id="Layer-12" serif:id="Layer 12" d="M146.49,44.44c6.144,0 11.133,7.454 11.133,16.636c-0,9.181 -4.989,16.635 -11.133,16.635c-6.145,0 -11.134,-7.454 -11.134,-16.635c0,-9.182 4.989,-16.636 11.134,-16.636Z" style="fill:#fff;"/></g></svg>