<?xml version="1.0" encoding="UTF-8" standalone="no"?><!DOCTYPE svg PUBLIC "-//W3C//DTD SVG 1.1//EN" "http://www.w3.org/Graphics/SVG/1.1/DTD/svg11.dtd"><svg width="100%" height="100%" viewBox="0 0 256 256" version="1.1" xmlns="http://www.w3.org/2000/svg" xmlns:xlink="http://www.w3.org/1999/xlink" xml:space="preserve" xmlns:serif="http://www.serif.com/" style="fill-rule:evenodd;clip-rule:evenodd;stroke-linejoin:round;stroke-miterlimit:2;"><g id="Settings"><path id="Composite-Path" serif:id="Composite Path" d="M46.829,138.608c-0.139,0.117 -0.481,0.396 -0.759,0.549c-1.115,0.612 -2.695,1.102 -4.528,1.529c-9.548,2.225 -25.442,2.387 -25.442,2.387l-2.283,0.026l-0.129,2.279c-0,0 -0.643,11.32 -0.013,22.76c0.459,8.349 7.891,27.619 16.642,38.913c4.111,5.306 8.624,8.812 12.741,9.292c4.447,0.519 10.03,-1.49 15.443,-4.586c6.421,-3.673 12.651,-8.78 16.309,-11.99c6.057,5.331 12.908,9.854 20.36,13.379c-0.722,0.838 -1.378,1.932 -1.636,3.713c-1.185,8.175 -0.62,21.698 -0.011,27.214c0.194,1.755 1.2,3.374 3.055,4.714c2.009,1.45 5.182,2.631 9.065,3.471c14.031,3.036 37.753,1.932 44.146,-0.918l0,-0c2.311,-1.03 4.183,-3.699 5.361,-7.473c2.202,-7.054 2.402,-18.234 2.404,-25.135c0,0.002 0.117,-1.04 0.117,-1.04c10.413,-2.852 18.836,-7.046 26.966,-13.344c2.716,2.798 7.566,7.527 12.83,11.413c4.62,3.411 9.583,6.127 13.781,6.653l-0,-0c1.734,0.217 3.66,-0.172 5.687,-1.16c2.516,-1.226 5.265,-3.419 8.03,-6.24c10.196,-10.405 20.837,-29.495 22.194,-35.44c0.591,-2.587 1.71,-13.063 0.808,-20.403c-0.465,-3.778 -1.619,-6.771 -3.21,-8.123c-4.685,-3.98 -12.241,-3.801 -19.224,-2.633c-3.714,0.621 -7.232,1.464 -9.88,1.799c-0.348,0.044 -0.677,0.079 -0.987,0.101c0.198,-2.168 0.305,-4.363 0.318,-6.582l-0,0c0.03,-5.26 -0.469,-10.418 -1.452,-15.427c5.09,-1.19 15.237,-3.917 22.345,-8.079c4.148,-2.428 7.255,-5.414 8.319,-8.704l0,-0c0.892,-2.76 1.778,-11.308 1.293,-19.582c-0.331,-5.656 -1.326,-11.172 -3.234,-14.73c-3.984,-7.432 -10.614,-10.491 -16.076,-12.426c-1.64,-0.58 -3.158,-1.055 -4.421,-1.54c-0.898,-0.345 -1.648,-0.635 -2.091,-1.073c-1.041,-1.029 -2.511,-1.552 -4.384,-1.414c-1.828,0.135 -4.204,0.974 -6.839,2.354c-7.975,4.18 -18.87,13.386 -23.774,17.693c-6.381,-5.277 -10.908,-7.61 -18.944,-10.68l-0,0.001c0.594,-7.123 0.584,-26.575 -0.555,-41.056c-0.567,-7.225 -1.455,-13.242 -2.603,-16.052c-1.524,-3.731 -6.189,-6.546 -12.732,-8.102c-13.368,-3.179 -34.765,-1.868 -45.832,0.813c-2.069,0.501 -3.829,1.878 -5.207,4.077c-1.636,2.61 -2.76,6.523 -3.397,11.206c-2.099,15.419 0.816,39.587 3.015,49.075c-8.375,2.468 -14.736,3.425 -21.488,8.356c-3.976,-3.208 -14.089,-11.186 -22.094,-15.977c-2.565,-1.536 -4.931,-2.75 -6.842,-3.428c-1.645,-0.584 -3.045,-0.777 -4.081,-0.643c-1.92,0.247 -7.316,0.27 -13.299,1.717c-6.383,1.544 -13.35,4.688 -17.893,11.094c-3.379,4.763 -4.831,12.747 -5.01,20.183c-0.178,7.452 0.925,14.312 2.182,16.775l0,0c1.811,3.548 6.165,6.872 11.509,9.623c9.066,4.67 20.925,7.92 25.498,9.077l-0.068,11.744Zm53.277,5.459l0,0c0.039,-6.752 3.545,-14.209 9.083,-19.944c5.532,-5.73 13.133,-9.759 21.536,-9.508c8.439,0.252 16.036,4.759 21.54,10.843c5.507,6.087 8.961,13.775 8.922,20.552c-0.077,13.409 -13.917,23.563 -30.62,23.064c-16.773,-0.501 -30.539,-11.542 -30.461,-25.007Z" style="fill:#626e75;"/><path id="Composite-Path1" serif:id="Composite Path" d="M97.663,121.916c0.084,-14.623 14.919,-32.424 33.135,-31.88c18.218,0.544 32.916,19.228 32.832,33.851c-0.084,14.623 -14.92,26.036 -33.136,25.492c-18.217,-0.544 -32.916,-12.839 -32.831,-27.463Zm61.232,-75.258c1.174,-5.841 4.589,-24.957 0.939,-33.89c-4.337,-10.618 -38.432,-9.539 -53.849,-5.804c-12.44,3.014 -5.676,28.456 -2.601,38.167c-9.84,3.119 -18.811,8.009 -26.496,14.293c-2.444,-2.01 -26.402,-21.551 -32.666,-20.743c-6.603,0.851 -37.593,35.585 -32.156,46.235c5.437,10.651 37.285,17.895 37.285,17.895c-0,-0 -0.046,8.043 -0.08,13.894c-0.036,6.309 1.421,13.585 1.421,13.585c-0,0 -34.512,4.043 -34.578,15.577c-0.067,11.535 15.138,44.502 27.227,45.912c10.069,1.174 26.327,-12.748 31.479,-17.432c6.988,6.478 15.146,11.819 24.132,15.69c-1.149,6.851 -3.828,24.127 -3,31.631c1.045,9.471 46.135,8.72 54.954,4.788c6.987,-3.115 4.413,-23.626 3.042,-32.018c11.578,-2.959 22.093,-8.328 30.917,-15.53c3.225,3.462 17.038,17.735 26.686,18.944c10.989,1.377 32.078,-32.603 33.226,-40.959c1.023,-7.453 -26.771,-23.276 -32.792,-26.61c0.35,-2.852 0.538,-5.754 0.556,-8.701c0.034,-5.915 -0.624,-11.697 -1.902,-17.273c4.53,-0.942 28.197,-6.287 31.232,-15.675c3.359,-10.388 -18.455,-41.454 -23.922,-46.862c-4.868,-4.814 -28.183,15.592 -33.24,20.128c-7.512,-6.469 -16.242,-11.675 -25.814,-15.242Z" style="fill:#e6e6e6;stroke:#626e75;stroke-width:4.67px;"/><path id="Ellipse" d="M218.427,51.144c0.009,-1.448 1.246,-2.584 2.764,-2.539c1.518,0.045 2.741,1.256 2.733,2.704c-0.008,1.447 -1.245,2.584 -2.763,2.539c-1.518,-0.045 -2.742,-1.256 -2.734,-2.704Z"/><path id="Ellipse1" serif:id="Ellipse" d="M45.788,50.183c0.008,-1.448 1.246,-2.585 2.764,-2.54c1.518,0.046 2.742,1.256 2.733,2.704c-0.008,1.448 -1.245,2.585 -2.763,2.54c-1.518,-0.046 -2.742,-1.256 -2.734,-2.704Z"/><path id="Ellipse2" serif:id="Ellipse" d="M90.862,82.108c-1.9,-3.337 4.526,-10.223 14.397,-15.415c9.926,-5.222 19.614,-6.777 21.595,-3.437c1.987,3.351 -4.55,10.328 -14.557,15.548c-9.951,5.19 -19.527,6.653 -21.435,3.304Z"/><path id="Ellipse3" serif:id="Ellipse" d="M116.945,86.802c-0.909,-1.564 0.279,-3.83 2.655,-5.065c2.379,-1.236 5.052,-0.973 5.97,0.592c0.92,1.567 -0.272,3.842 -2.659,5.078c-2.386,1.234 -5.055,0.962 -5.966,-0.605Z"/><path id="Composite-Path2" serif:id="Composite Path" d="M97.663,121.916c0.084,-14.623 14.919,-32.424 33.135,-31.88c18.218,0.544 32.916,19.228 32.832,33.851c-0.084,14.623 -14.92,26.036 -33.136,25.492c-18.217,-0.544 -32.916,-12.839 -32.831,-27.463Zm61.232,-75.258c1.174,-5.841 4.589,-24.957 0.939,-33.89c-4.337,-10.618 -38.432,-9.539 -53.849,-5.804c-12.44,3.014 -5.676,28.456 -2.601,38.167c-9.84,3.119 -18.811,8.009 -26.496,14.293c-2.444,-2.01 -26.402,-21.551 -32.666,-20.743c-6.603,0.851 -37.593,35.585 -32.156,46.235c5.437,10.651 37.285,17.895 37.285,17.895c-0,-0 -0.046,8.043 -0.08,13.894c-0.036,6.309 1.421,13.585 1.421,13.585c-0,0 -34.512,4.043 -34.578,15.577c-0.067,11.535 15.138,44.502 27.227,45.912c10.069,1.174 26.327,-12.748 31.479,-17.432c6.988,6.478 15.146,11.819 24.132,15.69c-1.149,6.851 -3.828,24.127 -3,31.631c1.045,9.471 46.135,8.72 54.954,4.788c6.987,-3.115 4.413,-23.626 3.042,-32.018c11.578,-2.959 22.093,-8.328 30.917,-15.53c3.225,3.462 17.038,17.735 26.686,18.944c10.989,1.377 32.078,-32.603 33.226,-40.959c1.023,-7.453 -26.771,-23.276 -32.792,-26.61c0.35,-2.852 0.538,-5.754 0.556,-8.701c0.034,-5.915 -0.624,-11.697 -1.902,-17.273c4.53,-0.942 28.197,-6.287 31.232,-15.675c3.359,-10.388 -18.455,-41.454 -23.922,-46.862c-4.868,-4.814 -28.183,15.592 -33.24,20.128c-7.512,-6.469 -16.242,-11.675 -25.814,-15.242Z" style="fill:#e6e6e6;"/><clipPath id="_clip1"><path id="Composite-Path3" serif:id="Composite Path" d="M97.663,121.916c0.084,-14.623 14.919,-32.424 33.135,-31.88c18.218,0.544 32.916,19.228 32.832,33.851c-0.084,14.623 -14.92,26.036 -33.136,25.492c-18.217,-0.544 -32.916,-12.839 -32.831,-27.463Zm61.232,-75.258c1.174,-5.841 4.589,-24.957 0.939,-33.89c-4.337,-10.618 -38.432,-9.539 -53.849,-5.804c-12.44,3.014 -5.676,28.456 -2.601,38.167c-9.84,3.119 -18.811,8.009 -26.496,14.293c-2.444,-2.01 -26.402,-21.551 -32.666,-20.743c-6.603,0.851 -37.593,35.585 -32.156,46.235c5.437,10.651 37.285,17.895 37.285,17.895c-0,-0 -0.046,8.043 -0.08,13.894c-0.036,6.309 1.421,13.585 1.421,13.585c-0,0 -34.512,4.043 -34.578,15.577c-0.067,11.535 15.138,44.502 27.227,45.912c10.069,1.174 26.327,-12.748 31.479,-17.432c6.988,6.478 15.146,11.819 24.132,15.69c-1.149,6.851 -3.828,24.127 -3,31.631c1.045,9.471 46.135,8.72 54.954,4.788c6.987,-3.115 4.413,-23.626 3.042,-32.018c11.578,-2.959 22.093,-8.328 30.917,-15.53c3.225,3.462 17.038,17.735 26.686,18.944c10.989,1.377 32.078,-32.603 33.226,-40.959c1.023,-7.453 -26.771,-23.276 -32.792,-26.61c0.35,-2.852 0.538,-5.754 0.556,-8.701c0.034,-5.915 -0.624,-11.697 -1.902,-17.273c4.53,-0.942 28.197,-6.287 31.232,-15.675c3.359,-10.388 -18.455,-41.454 -23.922,-46.862c-4.868,-4.814 -28.183,15.592 -33.24,20.128c-7.512,-6.469 -16.242,-11.675 -25.814,-15.242Z"/></clipPath><g clip-path="url(#_clip1)"><path id="Composite-Path4" serif:id="Composite Path" d="M163.564,125.458c-1.094,13.861 -15.512,24.446 -33.07,23.921c-17.559,-0.524 -31.849,-11.967 -32.783,-25.888c-0.041,0.52 -0.064,1.043 -0.066,1.571c-0.085,14.624 14.614,26.919 32.831,27.463c18.217,0.544 33.052,-10.869 33.136,-25.492c0.003,-0.528 -0.014,-1.053 -0.048,-1.575Zm79.144,-37.277c1.858,-11.224 -18.435,-44.252 -23.741,-49.5c-4.868,-4.814 -29.201,18.683 -34.258,23.219c-7.37,-6.347 -16.454,-11.682 -25.814,-15.242c-0.212,1.175 -0.334,3.218 -0.269,4.396c9.573,3.567 18.554,7.523 26.064,13.992c5.058,-4.536 26.028,-23.202 30.895,-18.388c4.865,4.813 25.633,28.728 27.123,41.523Zm1.795,69.991c0.13,-0.474 0.222,-0.903 0.274,-1.279c1.009,-7.34 -25.937,-22.798 -32.504,-26.449c-0.082,1.001 -0.185,1.996 -0.306,2.985c5.556,3.076 29.651,16.788 32.536,24.743Zm-88.968,55.593c0.178,-5.54 -0.863,-14.79 -1.509,-19.344l-1.583,0.429c0.623,3.814 2.982,12.865 3.092,18.915Zm-56.589,-23.724c-1.143,7.187 -3.333,22.279 -3.135,29.439c0.278,-8.491 4.643,-23.289 5.568,-28.808l-2.433,-0.631Zm-48.254,-59.751c-0,0 -34.512,4.043 -34.578,15.577c-0.004,0.592 0.032,1.241 0.107,1.939c2.179,-10.628 35.322,-14.252 35.322,-14.252l-0.851,-3.264Zm50.57,-92.64c-9.493,3.128 -16.921,15.68 -24.374,21.774c-2.444,-2.01 -27.65,-23.87 -33.914,-23.062c-6.308,0.814 -33.622,34.866 -31.424,46.987c2.074,-13.705 28.34,-39.343 34.16,-40.093c6.263,-0.808 28.716,17.304 31.161,19.313c7.684,-6.283 18.885,-11.535 28.726,-14.653c-0.267,-0.843 -4.027,-9.211 -4.335,-10.266Zm60.076,-26.68c-5.808,-11.173 -44.858,-8.808 -59.251,-5.485c-10.425,2.406 -3.141,22.072 -1.623,28.754c-0.474,-6.203 -1.968,-23.135 5.133,-24.887c15.663,-3.867 55.394,-7.045 55.741,19.191c0.388,-1.1 3.703,-10.448 -0,-17.573Z" style="fill:#fff;"/></g><path id="Ellipse4" serif:id="Ellipse" d="M209.546,49.929c0.008,-1.447 1.245,-2.584 2.763,-2.539c1.519,0.045 2.742,1.256 2.735,2.704c-0.009,1.448 -1.246,2.584 -2.764,2.539c-1.519,-0.045 -2.743,-1.256 -2.734,-2.704Z" style="fill:#f8f8f4;"/><path id="Ellipse5" serif:id="Ellipse" d="M44.016,53.809c-2.142,-2.164 -2.484,-5.206 -0.764,-6.795c1.721,-1.59 4.853,-1.125 6.996,1.038c2.143,2.164 2.485,5.206 0.764,6.795c-1.721,1.59 -4.853,1.125 -6.996,-1.038Z" style="fill:#f8f8f4;"/><path id="Path" d="M97.081,117.017c0,-0 -5.278,-26.307 25.652,-31.057c34.129,-5.243 39.87,25.943 39.87,25.943c-0,0 -8.81,-23.869 -35.558,-22.078c-26.747,1.792 -29.964,27.192 -29.964,27.192Z" style="fill:#fff;"/><path id="Ellipse6" serif:id="Ellipse" d="M96.385,78.606c-0,-2.755 2.704,-4.988 6.041,-4.988c3.336,-0 6.041,2.233 6.041,4.988c-0,2.755 -2.705,4.989 -6.041,4.989c-3.337,-0 -6.041,-2.234 -6.041,-4.989Z" style="fill:#fff;"/><path id="Ellipse7" serif:id="Ellipse" d="M77.002,74.366c-1.807,-3.994 3.715,-10.248 12.334,-13.967c8.619,-3.719 17.072,-3.496 18.879,0.499c1.808,3.995 -3.715,10.248 -12.334,13.967c-8.619,3.719 -17.071,3.496 -18.879,-0.499Z" style="fill:#fff;"/><path id="Path1" serif:id="Path" d="M136.442,44.48c2.142,4.34 15.462,7.156 27.189,12.585c8.144,3.77 15.233,10.787 18.475,12.186c7.91,3.415 28.464,-20.847 37.25,-13.46c8.786,7.388 -30.307,26.921 -25.808,37.78c4.498,10.86 14.389,33.353 -1.007,37.912c-15.397,4.558 -16.582,-32.495 -35.241,-43.399c-18.658,-10.904 -57.79,-12.281 -62.426,7.483c-4.635,19.764 6.015,34.24 -1.51,43.898c-7.525,9.657 -30.716,7.072 -30.716,-31.315c-0,-20.858 -41.006,-9.69 -43.751,-29.57c-1.047,-7.582 43.345,-1.547 53.011,-9.329c9.666,-7.781 19.223,-11.718 32.671,-18.321c9.901,-4.86 -6.598,-29.256 0,-35.175c5.975,-5.359 18.238,1.123 31.863,28.725Z" style="fill:#fff;fill-opacity:0.36;"/></g></svg>