<?xml version="1.0" encoding="UTF-8" standalone="no"?><!DOCTYPE svg PUBLIC "-//W3C//DTD SVG 1.1//EN" "http://www.w3.org/Graphics/SVG/1.1/DTD/svg11.dtd"><svg width="100%" height="100%" viewBox="0 0 256 256" version="1.1" xmlns="http://www.w3.org/2000/svg" xmlns:xlink="http://www.w3.org/1999/xlink" xml:space="preserve" xmlns:serif="http://www.serif.com/" style="fill-rule:evenodd;clip-rule:evenodd;stroke-linejoin:round;stroke-miterlimit:2;"><g id="Shell"><path id="Layer-3" serif:id="Layer 3" d="M108.984,18.306c45.584,-14.658 175.807,67.971 136.613,163.396c-39.195,95.425 -233.43,61.58 -242.017,-23.027c-6.766,-66.672 67.781,-102.531 82.145,-110.883c14.364,-8.352 9.036,-24.912 23.259,-29.486Z" style="fill:#fea9a6;"/><path id="Layer-4" serif:id="Layer 4" d="M39.274,79.182c-15.031,19.126 -26.234,43.172 -23.399,71.107c4.558,44.907 66.781,80.086 130.033,88.945c-65.188,2.682 -137.059,-29.797 -142.206,-80.519c-3.523,-34.705 14.987,-61.06 35.572,-79.533Z" style="fill-opacity:0.08;"/><path id="Layer-5" serif:id="Layer 5" d="M113.593,27.101c19.791,-6.68 106.993,13.474 124.934,104.834c14.919,75.969 -174.076,51.179 -178.413,-6.716c-2.674,-35.701 33.028,-61.464 39.876,-74.144c6.849,-12.679 2.713,-20.299 13.603,-23.974Z" style="fill:#fff;fill-opacity:0.23;"/><path id="Layer-6" serif:id="Layer 6" d="M116.763,26.897c3.546,1.617 4.082,8.546 1.195,15.463c-2.886,6.917 -8.109,11.219 -11.656,9.602c-3.547,-1.618 -4.082,-8.546 -1.196,-15.463c2.887,-6.917 8.11,-11.22 11.657,-9.602Z" style="fill:#fff;"/><path id="Layer-7" serif:id="Layer 7" d="M87.147,61.009c-2.617,-2.975 -13.885,1.242 -9.369,8.651c4.516,7.41 23.024,18.2 54.985,18.2c31.962,-0 51.038,-19.843 52.132,-24.515c1.094,-4.672 -4.135,-11.634 -10.89,-6.163c-6.754,5.472 -11.009,17.924 -42.936,17.725c-18.442,-0.115 -36.266,-5.193 -43.922,-13.898Z" style="fill:#fdddbb;"/><path id="Layer-8" serif:id="Layer 8" d="M61.539,87.434c4.749,3.293 30.697,25.816 70.189,24.158c39.492,-1.659 61.074,-17.315 66.461,-21.394c7.607,-5.76 16.274,1.201 7.189,11.321c-9.084,10.12 -42.021,23.34 -74.179,22.961c-48.379,-0.57 -71.248,-19.064 -77.907,-26.787c-6.658,-7.722 -0.132,-16.068 8.247,-10.259Z" style="fill:#fdddbb;"/><path id="Layer-9" serif:id="Layer 9" d="M34.192,123.6c9.554,5.975 56.205,35.376 102.433,33.725c62.195,-2.221 86.203,-30.433 90.359,-34.396c4.155,-3.962 17.739,1.889 7.092,12.568c-23.299,23.366 -56.929,34.116 -97.996,35.774c-41.068,1.659 -99.606,-25.267 -108.633,-33.333c-9.026,-8.067 -4.609,-21.437 6.745,-14.338Z" style="fill:#fdddbb;"/><path id="Layer-10" serif:id="Layer 10" d="M42.599,172.377c9.738,4.6 53.492,35.375 97.488,33.725c59.194,-2.221 82.042,-30.433 85.997,-34.396c3.956,-3.963 16.884,1.889 6.75,12.567c-22.174,23.367 -54.18,34.116 -93.266,35.775c-39.085,1.658 -93.592,-27.604 -102.566,-35.153c-8.275,-6.961 -0.991,-15.63 5.597,-12.518Z" style="fill:#fdddbb;"/><path id="Layer-11" serif:id="Layer 11" d="M158.945,49.414c13.421,-9.534 39.594,6.225 58.409,35.169c18.815,28.945 23.193,60.185 9.771,69.72c-13.421,9.534 -39.594,-6.225 -58.409,-35.17c-18.815,-28.945 -23.193,-60.185 -9.771,-69.719Z" style="fill:#fff;fill-opacity:0.23;"/><path id="Layer-12" serif:id="Layer 12" d="M205.103,79.833c5.379,-3.287 17.352,7.649 26.719,24.405c9.367,16.756 12.604,33.028 7.225,36.314c-5.379,3.286 -17.352,-7.649 -26.719,-24.405c-9.367,-16.756 -12.604,-33.028 -7.225,-36.314Z" style="fill:#fff;"/><path id="Layer-13" serif:id="Layer 13" d="M235.545,153.218c3.213,-0 5.821,2.726 5.821,6.084c-0,3.358 -2.608,6.084 -5.821,6.084c-3.212,0 -5.82,-2.726 -5.82,-6.084c0,-3.358 2.608,-6.084 5.82,-6.084Z" style="fill:#fff;"/></g></svg>