<?xml version="1.0" encoding="UTF-8" standalone="no"?><!DOCTYPE svg PUBLIC "-//W3C//DTD SVG 1.1//EN" "http://www.w3.org/Graphics/SVG/1.1/DTD/svg11.dtd"><svg width="100%" height="100%" viewBox="0 0 256 256" version="1.1" xmlns="http://www.w3.org/2000/svg" xmlns:xlink="http://www.w3.org/1999/xlink" xml:space="preserve" xmlns:serif="http://www.serif.com/" style="fill-rule:evenodd;clip-rule:evenodd;stroke-linecap:round;stroke-linejoin:round;stroke-miterlimit:1.5;"><g id="Shield"><g><path d="M121.264,9.87c3.988,-2.829 9.352,-2.733 13.236,0.238c30.759,23.32 64.725,35.531 99.96,43.341c5.244,1.155 8.923,5.879 8.758,11.246c-1.782,38.583 -15.11,183.493 -115.223,183.493c-100.057,-0 -113.426,-144.745 -115.213,-183.427c-0.167,-5.38 3.531,-10.111 8.792,-11.249c35.35,-7.764 68.729,-21.833 99.69,-43.642Z" style="fill:none;stroke:#6f7880;stroke-width:13.33px;"/><path d="M121.264,9.87c3.988,-2.829 9.352,-2.733 13.236,0.238c30.759,23.32 64.725,35.531 99.96,43.341c5.244,1.155 8.923,5.879 8.758,11.246c-1.782,38.583 -15.11,183.493 -115.223,183.493c-100.057,-0 -113.426,-144.745 -115.213,-183.427c-0.167,-5.38 3.531,-10.111 8.792,-11.249c35.35,-7.764 68.729,-21.833 99.69,-43.642Z" style="fill:#ced4da;"/><clipPath id="_clip1"><path d="M121.264,9.87c3.988,-2.829 9.352,-2.733 13.236,0.238c30.759,23.32 64.725,35.531 99.96,43.341c5.244,1.155 8.923,5.879 8.758,11.246c-1.782,38.583 -15.11,183.493 -115.223,183.493c-100.057,-0 -113.426,-144.745 -115.213,-183.427c-0.167,-5.38 3.531,-10.111 8.792,-11.249c35.35,-7.764 68.729,-21.833 99.69,-43.642Z"/></clipPath><g clip-path="url(#_clip1)"><path d="M227.067,-59.569c44.261,15.098 71.376,53.208 60.513,85.051c-10.862,31.843 -55.615,45.437 -99.875,30.339c-44.261,-15.099 -71.376,-53.209 -60.513,-85.052c10.862,-31.842 55.615,-45.437 99.875,-30.338Z" style="fill:#fff;"/><path d="M146.806,130.097c24.432,24.431 28.715,59.82 9.558,78.976c-19.156,19.157 -54.544,14.874 -78.976,-9.558c-24.432,-24.431 -28.715,-59.82 -9.558,-78.976c19.157,-19.157 54.545,-14.874 78.976,9.558Z" style="fill:#fff;"/><path d="M127.995,-26.874l-127.538,-0l0,79.546l127.538,63.516l-0,-143.062Z" style="fill:url(#_Linear2);"/><path d="M127.995,277.912l-127.538,-14.663l0,-210.577l127.538,63.516l-0,161.724Z" style="fill:url(#_Linear3);"/></g><path d="M127.995,42.986c24.079,19.81 51.227,28.979 79.391,34.63c-0,-0 -0,132.563 -79.391,132.563c-79.392,-0 -79.392,-132.563 -79.392,-132.563c28.406,-5.33 55.029,-16.365 79.392,-34.63Z" style="fill:#fab005;stroke:#e67700;stroke-width:6.79px;"/><path d="M127.995,65.991c17.452,14.358 37.13,21.004 57.543,25.1c-0,0 -0,96.083 -57.543,96.083c-57.543,-0 -57.543,-96.083 -57.543,-96.083c20.588,-3.863 39.884,-11.861 57.543,-25.1Z" style="fill:#fcc419;"/><clipPath id="_clip4"><path d="M127.995,65.991c17.452,14.358 37.13,21.004 57.543,25.1c-0,0 -0,96.083 -57.543,96.083c-57.543,-0 -57.543,-96.083 -57.543,-96.083c20.588,-3.863 39.884,-11.861 57.543,-25.1Z"/></clipPath><g clip-path="url(#_clip4)"><path id="Ellipse" d="M192.316,103.681c4.419,-11.479 -6.606,-29.726 -24.416,-40.667c-17.594,-10.808 -35.274,-10.445 -39.693,0.724c-4.433,11.203 6.071,29.223 23.664,40.34c17.811,11.254 36.012,11.118 40.445,-0.397Z" style="fill:#ffd43b;"/></g><path id="Ellipse1" serif:id="Ellipse" d="M103.945,146.033c-5.759,-7.831 -13.717,-10.886 -17.881,-6.905c-4.194,4.008 -3.048,13.709 2.666,21.755c5.804,8.174 14.035,11.446 18.274,7.219c4.208,-4.196 2.79,-14.116 -3.059,-22.069Z" style="fill:#ffd43b;"/><path id="Ellipse2" serif:id="Ellipse" d="M151.204,91.132c1.709,-2.932 -2.642,-8.572 -9.829,-12.648c-7.307,-4.144 -14.711,-5.073 -16.418,-2.022c-1.702,3.038 2.936,8.804 10.242,12.829c7.186,3.959 14.303,4.762 16.005,1.841Z" style="fill:#fff;"/><path id="Ellipse3" serif:id="Ellipse" d="M166.454,101.951c0.946,-1.583 0.435,-3.586 -1.148,-4.474c-1.588,-0.891 -3.649,-0.318 -4.595,1.28c-0.945,1.594 -0.415,3.597 1.173,4.474c1.584,0.873 3.626,0.301 4.57,-1.28Z" style="fill:#fff;"/><path id="Ellipse4" serif:id="Ellipse" d="M104.432,153.46c1.407,-0.849 0.95,-4.064 -1.019,-7.179c-1.968,-3.115 -4.703,-4.952 -6.109,-4.102c-1.406,0.849 -0.95,4.063 1.018,7.179c1.969,3.115 4.704,4.952 6.11,4.102Z" style="fill:#fff;"/></g></g><defs><linearGradient id="_Linear2" x1="0" y1="0" x2="1" y2="0" gradientUnits="userSpaceOnUse" gradientTransform="matrix(-88.598,37.3818,-37.3818,-88.598,127.995,24.6029)"><stop offset="0" style="stop-color:#afb7bf;stop-opacity:1"/><stop offset="1" style="stop-color:#afb7bf;stop-opacity:0"/></linearGradient><linearGradient id="_Linear3" x1="0" y1="0" x2="1" y2="0" gradientUnits="userSpaceOnUse" gradientTransform="matrix(1.0493e-14,171.363,-171.363,1.0493e-14,19.1562,61.9847)"><stop offset="0" style="stop-color:#9ea8b2;stop-opacity:1"/><stop offset="1" style="stop-color:#9ea8b2;stop-opacity:0"/></linearGradient></defs></svg>