<?xml version="1.0" encoding="UTF-8" standalone="no"?><!DOCTYPE svg PUBLIC "-//W3C//DTD SVG 1.1//EN" "http://www.w3.org/Graphics/SVG/1.1/DTD/svg11.dtd"><svg width="100%" height="100%" viewBox="0 0 256 256" version="1.1" xmlns="http://www.w3.org/2000/svg" xmlns:xlink="http://www.w3.org/1999/xlink" xml:space="preserve" xmlns:serif="http://www.serif.com/" style="fill-rule:evenodd;clip-rule:evenodd;stroke-linecap:round;stroke-linejoin:round;stroke-miterlimit:1.5;"><g id="Shop--Border-" serif:id="Shop (Border)"><g id="Shop"><g id="Shop1" serif:id="Shop"><path d="M216.111,142.554c-0,-17.71 -14.379,-32.089 -32.09,-32.089l-112.042,-0c-17.711,-0 -32.09,14.379 -32.09,32.089l0,64.179c0,17.71 14.379,32.089 32.09,32.089l112.042,0c17.711,0 32.09,-14.379 32.09,-32.089l-0,-64.179Z" style="fill:#ced4da;stroke:#646e77;stroke-width:7.08px;"/><path d="M209.395,133.655c0,-14.571 -11.829,-26.4 -26.4,-26.4l-109.99,-0c-14.571,-0 -26.4,11.829 -26.4,26.4l-0,72.23c-0,14.571 11.829,26.4 26.4,26.4l109.99,0c14.571,0 26.4,-11.829 26.4,-26.4l0,-72.23Z" style="fill:#e9ecef;"/><g><path d="M188.335,89.006c0,-4.747 -3.854,-8.601 -8.601,-8.601l-103.468,0c-4.747,0 -8.601,3.854 -8.601,8.601l-0,111.155c-0,4.747 3.854,8.601 8.601,8.601l103.468,0c4.747,0 8.601,-3.854 8.601,-8.601l0,-111.155Z" style="fill:#1c7ed6;stroke:#1864ab;stroke-width:2.53px;stroke-linecap:butt;stroke-miterlimit:2;"/><path d="M180.615,88.617l-105.23,0l0,108.879c0,0.81 0.29,1.587 0.807,2.16c0.517,0.572 1.219,0.894 1.95,0.894c14.819,0 84.897,0 99.716,0c0.731,0 1.433,-0.322 1.95,-0.894c0.517,-0.573 0.807,-1.35 0.807,-2.16c-0,-17.946 -0,-108.879 -0,-108.879Z" style="fill:#3a9ae9;"/><path d="M180.615,88.617c-0,0 -79.469,84.532 -100.287,106.675c-0.812,0.864 -1.068,2.187 -0.648,3.344c0.42,1.157 1.432,1.914 2.557,1.914c20.68,0 81.886,0 95.621,0c0.731,0 1.433,-0.322 1.95,-0.894c0.517,-0.573 0.807,-1.35 0.807,-2.16c-0,-17.946 -0,-108.879 -0,-108.879Z" style="fill:#4dabf7;"/></g><path d="M150.87,153.748c-0.389,12.409 -10.488,22.364 -22.87,22.364c-12.382,0 -22.481,-9.955 -22.87,-22.364l-0.012,-0c0,12.754 -10.253,23.108 -22.881,23.108c-12.629,0 -22.882,-10.354 -22.882,-23.108l-0.012,-0c-0.389,12.409 -10.487,22.364 -22.87,22.364l0,-83.502l183.054,-0l-0,83.502c-12.383,0 -22.481,-9.955 -22.87,-22.364l-0.012,-0c0,12.754 -10.253,23.108 -22.882,23.108c-12.628,0 -22.881,-10.354 -22.881,-23.108l-0.012,-0Z" style="fill:#002748;fill-opacity:0.35;"/><path d="M204.463,39.701c0,-12.431 -10.092,-22.523 -22.523,-22.523l-107.88,-0c-12.431,-0 -22.523,10.092 -22.523,22.523l-0,22.523l152.926,0l0,-22.523Z" style="fill:#f7acc6;stroke:#bd245c;stroke-width:7.08px;stroke-linecap:butt;stroke-miterlimit:2;"/><g><path d="M151.726,123.315c-0.403,13.108 -10.88,23.622 -23.726,23.622c-12.846,0 -23.323,-10.514 -23.726,-23.622l-0.012,0c-0,13.472 -10.637,24.409 -23.739,24.409c-13.101,-0 -23.738,-10.937 -23.738,-24.409l-0.012,0c-0.404,13.108 -10.881,23.622 -23.727,23.622c-12.846,0 -23.322,-10.514 -23.726,-23.622l17.24,-49.855c3.054,-8.826 11.179,-14.721 20.29,-14.721l162.312,-0c9.111,-0 17.236,5.895 20.29,14.721l17.228,49.855c-0.404,13.108 -10.88,23.622 -23.726,23.622c-12.846,0 -23.323,-10.514 -23.727,-23.622l-0.012,0c0,13.472 -10.637,24.409 -23.738,24.409c-13.102,-0 -23.739,-10.937 -23.739,-24.409l-0.012,0Z" style="fill:none;stroke:#9b1e4c;stroke-width:17.33px;"/><g><path d="M9.32,123.315l47.465,-0.786c-0,13.471 -10.637,24.408 -23.739,24.408c-12.845,0 -23.322,-10.514 -23.726,-23.622Z" style="fill:#e31150;"/><ellipse cx="128" cy="122.529" rx="23.738" ry="24.408" style="fill:#e31150;"/><path d="M199.215,122.529l47.465,0.786c-0.404,13.108 -10.881,23.622 -23.726,23.622c-13.102,0 -23.739,-10.937 -23.739,-24.408Z" style="fill:#e31150;"/><ellipse cx="80.523" cy="123.315" rx="23.738" ry="24.408" style="fill:#ced4da;"/><ellipse cx="175.477" cy="123.315" rx="23.738" ry="24.408" style="fill:#ced4da;"/></g><g><path d="M91.275,58.739c-0,-0 -26.761,-0 -44.425,-0c-9.111,-0 -17.236,5.895 -20.29,14.721c-6.595,19.058 -17.24,49.855 -17.24,49.855l59.609,0l22.346,-64.576Z" style="fill:#f0336c;"/><path d="M119.464,58.739l-47.525,-0l-15.202,64.576l47.525,0l15.202,-64.576Z" style="fill:#f8f9fa;"/><path d="M108.7,58.739l38.737,-0l4.301,64.576l-47.476,0l4.438,-64.576Z" style="fill:#f0336c;"/><path d="M173.802,58.739l35.36,-0c9.111,-0 17.236,5.895 20.29,14.721c6.595,19.058 17.228,49.855 17.228,49.855l-50.532,0l-22.346,-64.576Z" style="fill:#f0336c;"/><path d="M147.437,58.739l36.563,-0l15.203,64.576l-47.477,0l-4.289,-64.576Z" style="fill:#f8f9fa;"/><ellipse cx="32.721" cy="123.315" rx="16.551" ry="0.86" style="fill:#f783ac;"/><ellipse cx="128.006" cy="123.315" rx="16.551" ry="0.86" style="fill:#f783ac;"/><ellipse cx="225.54" cy="123.315" rx="16.551" ry="0.86" style="fill:#f783ac;"/><ellipse cx="176.688" cy="123.315" rx="16.551" ry="0.86" style="fill:#fff;"/><ellipse cx="79.312" cy="123.315" rx="16.551" ry="0.86" style="fill:#fff;"/></g><path d="M210.236,58.739l-164.688,-0c-8.419,0.679 -13.845,5.093 -17.62,11.567l200.156,-0c-3.664,-6.507 -9.364,-10.653 -17.848,-11.567Z" style="fill:#343a40;fill-opacity:0.18;"/></g><g><path d="M227.442,48.556c-0,-4.887 -3.968,-8.855 -8.855,-8.855l-181.174,0c-4.887,0 -8.855,3.968 -8.855,8.855c0,4.887 3.968,8.854 8.855,8.854l181.174,0c4.887,0 8.855,-3.967 8.855,-8.854Z" style="fill:#dee2e6;stroke:#4b6e90;stroke-width:3.86px;"/><path d="M222.545,48.556c-0,-3.467 -2.815,-6.281 -6.281,-6.281l-122.279,0c-3.466,0 -6.281,2.814 -6.281,6.281c0,3.466 2.815,6.28 6.281,6.28l122.279,0c3.466,0 6.281,-2.814 6.281,-6.28Z" style="fill:#fff;"/><path d="M186.774,28.573c0,-2.554 -2.074,-4.628 -4.628,-4.628l-46.478,-0c-2.554,-0 -4.628,2.074 -4.628,4.628c-0,2.555 2.074,4.629 4.628,4.629l46.478,-0c2.554,-0 4.628,-2.074 4.628,-4.629Z" style="fill:#ffdeeb;"/></g></g></g></g></svg>