<?xml version="1.0" encoding="UTF-8" standalone="no"?><!DOCTYPE svg PUBLIC "-//W3C//DTD SVG 1.1//EN" "http://www.w3.org/Graphics/SVG/1.1/DTD/svg11.dtd"><svg width="100%" height="100%" viewBox="0 0 256 256" version="1.1" xmlns="http://www.w3.org/2000/svg" xmlns:xlink="http://www.w3.org/1999/xlink" xml:space="preserve" xmlns:serif="http://www.serif.com/" style="fill-rule:evenodd;clip-rule:evenodd;stroke-linejoin:round;stroke-miterlimit:2;"><g id="Skull"><path id="Path" d="M1.575,108.876c-8.689,46.371 5.461,76.079 61.771,87.216c-4.352,10.427 -19.389,33.754 -8.731,46.266c8.566,10.055 40.801,10.266 43.462,9.187c3.888,-2.236 7.777,-19.564 12.081,-29.066c0,6.749 -4.304,27.389 2.825,30.743c7.129,3.353 39.532,3.353 42.125,1.676c2.592,-1.676 -0.661,-15.661 1.879,-19.876c2.638,5.791 -0.318,14.855 6.811,18.209c7.128,3.354 37.323,4.462 41.86,-6.717c3.702,-9.125 -9.433,-39.848 -14.386,-50.832c55.122,-11.043 71.662,-39.332 63.583,-86.806c-9.052,-53.195 -59.078,-109.711 -129.015,-108.867c-75.481,0.911 -114.326,55.821 -124.265,108.867Z" style="fill:url(#_Linear1);"/><path id="Path1" serif:id="Path" d="M63.486,189.491c-4.284,10.231 -15.511,39.395 -7.534,46.734c9.721,8.942 31.04,10.022 33.7,8.942c3.889,-2.235 7.777,-19.563 12.081,-29.065c0,6.749 -4.304,27.389 2.824,30.743c7.129,3.353 39.534,3.353 42.126,1.677c2.592,-1.677 1.65,-33.687 2.966,-39.331c2.638,5.791 1.571,34.859 8.699,38.212c7.129,3.354 32.605,2.89 37.141,-8.289c3.537,-8.717 -6.547,-36.127 -11.93,-48.225c47.551,-9.984 55.709,-33.842 59.453,-48.931c11.757,-47.388 -34.246,-141.589 -124.924,-133.554c-80.248,7.111 -111.429,71.09 -111.429,119.824c0,32.687 18.183,52.233 56.827,61.263Z" style="fill:#eee;fill-opacity:0.79;"/><path id="Path2" serif:id="Path" d="M113.97,19.328c76.662,8.496 114.944,39.03 119.576,100.914c4.633,61.885 -39.36,58.832 -48.415,56.243c-9.057,-2.59 -12.803,-2.446 -18.772,-6.138c11.719,12.066 14.789,24.948 17.352,39.328c2.564,14.38 -1.062,42.633 -17.655,38.689c-6.479,-1.541 -13.782,-13.014 -15.68,-46.584c-5.941,18.914 -8.363,24.6 -16.725,34.545c-8.301,9.871 -38.155,22.507 -33.973,-15.702c-12.544,12.562 -24.192,30.188 -27.18,10.991c-6.271,-40.303 5.217,-53.366 16.726,-61.239c-0.286,-3.222 -48.699,22.971 -71.532,-25.503c-13.514,-28.69 19.617,-134.04 96.278,-125.544Z" style="fill:#dbdbdb;"/><path id="Path3" serif:id="Path" d="M6.961,128.222c0,46.441 29.595,60.382 71.288,60.382c-42.201,-5.591 -59.775,-16.115 -59.775,-60.382c0,-46.44 25.792,-101.59 102.141,-108.367c1.506,-0.134 3,-0.239 4.48,-0.313c-5.155,-0.268 -10.488,-0.176 -15.993,0.313c-76.349,6.777 -102.141,61.927 -102.141,108.367Z" style="fill:#eee;"/><path id="Ellipse" d="M43.385,63.89c-5.032,-10.097 4.429,-29.265 28.376,-40.72c23.87,-11.418 53.047,-10.793 57.927,-0.696c4.866,10.068 -10.37,27.437 -34.087,38.855c-23.795,11.455 -47.198,12.628 -52.216,2.561Z" style="fill:#eee;"/><path id="Path4" serif:id="Path" d="M91.031,86.742c30.717,14.824 18.964,51.199 -8.65,64.105c-27.613,12.906 -55.837,2.467 -54.655,-20.783c1.181,-23.25 29.976,-59.406 63.305,-43.322Z" style="fill:#5a5a5a;"/><path id="Path5" serif:id="Path" d="M91.289,100.052c22.388,10.847 13.815,37.476 -6.315,46.928c-20.131,9.451 -40.702,1.815 -39.837,-15.205c0.865,-17.02 21.86,-43.491 46.152,-31.723Z" style="fill:#0f0f0f;"/><path id="Path6" serif:id="Path" d="M168.803,88.908c24.851,-7.865 63.92,35.402 50.565,57.609c-13.354,22.206 -63.499,6.919 -71.061,-15.162c-2.662,-7.774 -4.357,-34.584 20.496,-42.447Z" style="fill:#5a5a5a;"/><path id="Path7" serif:id="Path" d="M169.529,99.801c19.942,-6.336 51.281,28.496 40.562,46.378c-10.718,17.883 -50.949,5.581 -57.012,-12.197c-2.134,-6.259 -3.491,-27.846 16.45,-34.181Z" style="fill:#0f0f0f;"/><path id="Path8" serif:id="Path" d="M127.809,109.844c-5.78,0.651 -12.486,23.655 -9.553,24.896c2.921,1.236 15.895,-2.46 17.67,-4.486c1.788,-2.041 1.826,-21.529 -8.117,-20.41Z" style="fill:#eee;"/><path id="Path9" serif:id="Path" d="M89.652,169.15c-0,-0 -14.042,23.29 -16.851,43.039c-2.807,19.75 8.426,32.978 8.426,32.978c0,0 -26.26,-0.876 -28.516,-15.091c-2.808,-17.7 7.714,-41.303 7.714,-41.303l29.227,-19.623Z" style="fill:#eee;"/><path id="Path10" serif:id="Path" d="M125.411,141.576c5.166,0.344 25.239,37.495 17.473,44.606c-7.405,6.781 -12.295,-4.525 -16.178,-3.233c-3.883,1.293 -8.414,7.112 -17.473,3.233c-9.061,-3.879 6.471,-45.253 16.178,-44.606Z" style="fill:#0f0f0f;"/><path id="Path11" serif:id="Path" d="M125.411,140.929c-8.912,-0.593 -22.735,34.237 -17.926,42.945c2.912,-13.231 11.64,-30.434 17.926,-30.015c3.555,0.236 14.164,17.896 17.911,31.207c6.522,-8.131 -12.849,-43.8 -17.911,-44.137Z" style="fill:#5a5a5a;"/><path id="Path12" serif:id="Path" d="M101.965,217.22c0,-0 -0.891,21.275 5.751,26.271c6.643,4.995 18.707,6.225 18.707,6.225c-0,-0 -24.726,-0.236 -25.095,-4.375c-1.067,-11.973 0.637,-28.121 0.637,-28.121Z" style="fill:#e7e7e7;"/><path id="Path13" serif:id="Path" d="M149.916,209.421c-0.534,0 2.275,34.209 7.137,37.982c4.744,3.684 20.737,1.03 20.737,1.03c-0,-0 -12.631,-0.469 -16.319,-4.302c-6.318,-6.568 -11.021,-34.71 -11.555,-34.71Z" style="fill:#e7e7e7;"/><path id="Ellipse1" serif:id="Ellipse" d="M53.194,62.47c-1.147,-1.877 0.318,-5.027 3.244,-7.124c2.946,-2.112 6.452,-2.498 7.869,-0.778c1.484,1.803 0.109,5.185 -3.116,7.458c-3.202,2.257 -6.795,2.41 -7.997,0.444Z" style="fill:#f8f8f8;"/><path id="Ellipse2" serif:id="Ellipse" d="M57.896,217.5c0.716,-6.02 2.601,-10.775 4.213,-10.621c1.611,0.154 2.336,5.16 1.62,11.179c-0.716,6.02 -2.602,10.775 -4.213,10.62c-1.61,-0.154 -2.336,-5.159 -1.62,-11.178Z" style="fill:#fff;"/><path id="Ellipse3" serif:id="Ellipse" d="M164.611,237.67c-0,-1.389 1.016,-2.515 2.268,-2.515c1.252,-0 2.268,1.126 2.268,2.515c-0,1.39 -1.016,2.516 -2.268,2.516c-1.252,-0 -2.268,-1.126 -2.268,-2.516Z" style="fill:#fff;"/><path id="Ellipse4" serif:id="Ellipse" d="M187.326,58.605c0,-1.785 1.449,-3.232 3.236,-3.232c1.787,0 3.236,1.447 3.236,3.232c-0,1.786 -1.449,3.233 -3.236,3.233c-1.787,-0 -3.236,-1.447 -3.236,-3.233Z" style="fill:#919191;"/><path id="Ellipse5" serif:id="Ellipse" d="M142.238,69.818c-0,-0.714 0.58,-1.293 1.294,-1.293c0.715,0 1.295,0.579 1.295,1.293c-0,0.714 -0.58,1.293 -1.295,1.293c-0.714,0 -1.294,-0.579 -1.294,-1.293Z" style="fill:#919191;"/><path id="Ellipse6" serif:id="Ellipse" d="M155.207,33.28c-0,-1.964 1.594,-3.556 3.56,-3.556c1.965,-0 3.559,1.592 3.559,3.556c-0,1.963 -1.594,3.555 -3.559,3.555c-1.966,0 -3.56,-1.592 -3.56,-3.555Z" style="fill:#919191;"/><path id="Ellipse7" serif:id="Ellipse" d="M71.839,43.092c-2.616,-4.94 4.511,-13.541 15.595,-19.023c10.73,-5.308 21.116,-5.658 23.494,-0.953c2.367,4.683 -3.992,12.827 -14.491,18.365c-10.841,5.72 -21.995,6.528 -24.598,1.611Z" style="fill:#fff;"/><path id="Ellipse8" serif:id="Ellipse" d="M227.399,126.816c-0,-5.241 2.321,-9.489 5.186,-9.489c2.863,-0 5.185,4.248 5.185,9.489c0,5.241 -2.322,9.49 -5.185,9.49c-2.865,-0 -5.186,-4.249 -5.186,-9.49Z" style="fill:#fff;"/><path id="Ellipse9" serif:id="Ellipse" d="M108.12,235.516c0,-4.288 2.322,-7.764 5.186,-7.764c2.865,-0 5.186,3.476 5.186,7.764c0,4.288 -2.321,7.764 -5.186,7.764c-2.864,0 -5.186,-3.476 -5.186,-7.764Z" style="fill:#fff;"/></g><defs><linearGradient id="_Linear1" x1="0" y1="0" x2="1" y2="0" gradientUnits="userSpaceOnUse" gradientTransform="matrix(214.091,147.739,-147.739,214.091,13.1722,55.1956)"><stop offset="0" style="stop-color:#dbdbdb;stop-opacity:1"/><stop offset="1" style="stop-color:#5a5a5a;stop-opacity:1"/></linearGradient></defs></svg>