<?xml version="1.0" encoding="UTF-8" standalone="no"?><!DOCTYPE svg PUBLIC "-//W3C//DTD SVG 1.1//EN" "http://www.w3.org/Graphics/SVG/1.1/DTD/svg11.dtd"><svg width="100%" height="100%" viewBox="0 0 256 256" version="1.1" xmlns="http://www.w3.org/2000/svg" xmlns:xlink="http://www.w3.org/1999/xlink" xml:space="preserve" xmlns:serif="http://www.serif.com/" style="fill-rule:evenodd;clip-rule:evenodd;stroke-linejoin:round;stroke-miterlimit:2;"><g id="Speech-Bubble---Left" serif:id="Speech Bubble - Left"><path id="Ellipse" d="M252.135,119.927c-0,-66.911 -56.425,-119.196 -124.185,-119.196c-67.761,-0 -126.829,36.902 -123.986,126.753c2.523,79.731 62.367,114.537 130.128,114.537c67.761,-0 118.043,-55.183 118.043,-122.094Z" style="fill:#68727c;"/><path d="M80.828,254.64c-1.615,0.807 -3.285,0.84 -4.587,0.088c-1.301,-0.751 -2.109,-2.214 -2.216,-4.016c-1.159,-19.401 -4.287,-71.758 -4.287,-71.758l75.377,43.519c-0,-0 -46.907,23.47 -64.287,32.167Z" style="fill:#68727c;"/><path id="Ellipse1" serif:id="Ellipse" d="M246.17,119.107c0,-63.608 -53.684,-112.43 -118.121,-112.43c-64.436,-0 -124.085,43.046 -117.873,121.623c5.976,75.597 59.305,106.874 123.742,106.874c64.437,0 112.252,-52.459 112.252,-116.067Z" style="fill:#e2ecf6;"/><path d="M84.533,245.576c-1.07,0.536 -2.178,0.557 -3.042,0.059c-0.863,-0.499 -1.399,-1.469 -1.47,-2.664c-0.769,-12.868 -2.843,-47.597 -2.843,-47.597l49.997,28.866c0,-0 -31.113,15.568 -42.642,21.336Z" style="fill:#e2ecf6;"/><path id="Ellipse2" serif:id="Ellipse" d="M233.242,121.71c0,-52.21 -42.819,-105.193 -105.07,-105.725c-59.456,-0.508 -107.242,49.958 -107.607,105.653c-0.408,62.244 50.62,100.142 115.405,95.011c59.274,-4.695 97.272,-42.728 97.272,-94.939Z" style="fill:#fff;"/></g></svg>