<?xml version="1.0" encoding="UTF-8" standalone="no"?><!DOCTYPE svg PUBLIC "-//W3C//DTD SVG 1.1//EN" "http://www.w3.org/Graphics/SVG/1.1/DTD/svg11.dtd"><svg width="100%" height="100%" viewBox="0 0 256 256" version="1.1" xmlns="http://www.w3.org/2000/svg" xmlns:xlink="http://www.w3.org/1999/xlink" xml:space="preserve" xmlns:serif="http://www.serif.com/" style="fill-rule:evenodd;clip-rule:evenodd;stroke-linejoin:round;stroke-miterlimit:2;"><g id="Speech-Bubble---Right" serif:id="Speech Bubble - Right"><path id="Ellipse" d="M-0,130.055c-0,-69.022 50.43,-130.055 120.328,-130.055c69.899,-0 135.24,66.401 135.669,140.03c0.48,82.286 -64.332,115.97 -134.23,115.97c-69.899,0 -121.767,-56.924 -121.767,-125.945Z" style="fill:#68727c;"/><path d="M239.183,248.718c1.799,0.48 3.493,0.164 4.652,-0.866c1.158,-1.031 1.669,-2.677 1.403,-4.519c-2.871,-19.842 -10.617,-73.39 -10.617,-73.39l-67.088,59.667c0,0 52.278,13.942 71.65,19.108Z" style="fill:#68727c;"/><path id="Ellipse1" serif:id="Ellipse" d="M6.153,129.209c-0,-65.615 47.956,-123.635 114.426,-123.635c66.469,-0 128.605,63.123 129.013,133.118c0.456,78.224 -61.176,110.245 -127.646,110.245c-66.469,0 -115.793,-54.113 -115.793,-119.728Z" style="fill:#e2ecf6;"/><path id="Ellipse2" serif:id="Ellipse" d="M14.244,124.036c-0,-53.858 41.37,-100.933 105.585,-101.481c61.332,-0.524 118.669,51.812 119.046,109.265c0.421,64.207 -50.955,95.784 -117.784,90.491c-61.144,-4.843 -106.847,-44.418 -106.847,-98.275Z" style="fill:#fff;"/><path d="M233.551,240.333c1.193,0.318 2.317,0.109 3.086,-0.574c0.768,-0.684 1.107,-1.776 0.93,-2.998c-1.904,-13.161 -7.042,-48.68 -7.042,-48.68l-44.499,39.578c-0,-0 34.676,9.247 47.525,12.674Z" style="fill:#e2ecf6;"/></g></svg>