<?xml version="1.0" encoding="UTF-8" standalone="no"?><!DOCTYPE svg PUBLIC "-//W3C//DTD SVG 1.1//EN" "http://www.w3.org/Graphics/SVG/1.1/DTD/svg11.dtd"><svg width="100%" height="100%" viewBox="0 0 256 256" version="1.1" xmlns="http://www.w3.org/2000/svg" xmlns:xlink="http://www.w3.org/1999/xlink" xml:space="preserve" xmlns:serif="http://www.serif.com/" style="fill-rule:evenodd;clip-rule:evenodd;stroke-linejoin:round;stroke-miterlimit:2;"><g id="Spider"><path id="Layer-2" serif:id="Layer 2" d="M127.897,61.067c34.98,-0 57.543,27.114 63.38,50.724c4.525,18.307 2.239,62.422 -63.38,62.355c-67.662,-0.069 -67.36,-46.843 -63.379,-62.355c5.638,-21.972 28.399,-50.724 63.379,-50.724Z" style="fill:#161616;"/><g id="Leg"><path id="Layer-4" serif:id="Layer 4" d="M171.073,87.035c0,0 14.86,-24.127 35.906,-21.146c21.047,2.981 49.936,24.029 42.899,28.319c-4.003,2.441 -42.626,-16.221 -49.559,-12.762c-14.152,7.06 -14.495,16.123 -14.495,16.123l-14.751,-10.534Z" style="fill:#161616;"/><path id="Layer-5" serif:id="Layer 5" d="M188.684,73.202c4.011,-2.812 7.906,-4.125 8.693,-2.93c0.787,1.195 -1.829,4.449 -5.839,7.261c-4.01,2.812 -7.905,4.124 -8.693,2.929c-0.787,-1.195 1.829,-4.448 5.839,-7.26Z" style="fill:#2f2e2e;"/></g><g id="Leg1" serif:id="Leg"><path id="Layer-8" serif:id="Layer 8" d="M177.37,115.089c-0,-0 18.966,-20.839 39.103,-13.855c20.136,6.985 44.706,33.229 37.016,36.088c-4.375,1.626 -38.939,-24.15 -46.376,-22.088c-15.181,4.209 -17.159,13.046 -17.159,13.046l-12.584,-13.191Z" style="fill:#161616;"/><path id="Layer-9" serif:id="Layer 9" d="M197.176,104.893c4.448,-1.99 8.512,-2.529 9.07,-1.203c0.557,1.326 -2.603,4.017 -7.051,6.007c-4.449,1.99 -8.513,2.529 -9.07,1.203c-0.557,-1.326 2.602,-4.017 7.051,-6.007Z" style="fill:#2f2e2e;"/></g><g id="Leg2" serif:id="Leg"><path id="Layer-12" serif:id="Layer 12" d="M177.528,132.865c-0,-0 26.978,-6.523 39.999,10.793c13.022,17.317 19.401,53.205 11.462,51.194c-4.516,-1.144 -19.469,-42.35 -26.769,-44.88c-14.901,-5.165 -21.291,1.065 -21.291,1.065l-3.401,-18.172Z" style="fill:#161616;"/><path id="Layer-13" serif:id="Layer 13" d="M199.494,135.685c4.772,0.883 8.446,2.755 8.199,4.178c-0.248,1.422 -4.323,1.859 -9.096,0.976c-4.773,-0.884 -8.446,-2.756 -8.199,-4.178c0.248,-1.423 4.323,-1.86 9.096,-0.976Z" style="fill:#2f2e2e;"/></g><g id="Leg3" serif:id="Leg"><path id="Layer-16" serif:id="Layer 16" d="M84.927,86.784c-0,0 -14.86,-24.127 -35.906,-21.146c-21.047,2.981 -49.936,24.029 -42.899,28.319c4.003,2.441 42.626,-16.221 49.559,-12.762c14.152,7.06 14.495,16.123 14.495,16.123l14.751,-10.534Z" style="fill:#161616;"/><path id="Layer-17" serif:id="Layer 17" d="M67.316,72.951c-4.011,-2.812 -7.906,-4.125 -8.693,-2.93c-0.787,1.195 1.829,4.449 5.839,7.261c4.01,2.812 7.905,4.124 8.693,2.929c0.787,-1.195 -1.829,-4.448 -5.839,-7.26Z" style="fill:#2f2e2e;"/></g><g id="Leg4" serif:id="Leg"><path id="Layer-20" serif:id="Layer 20" d="M78.63,114.838c0,-0 -18.966,-20.839 -39.103,-13.855c-20.136,6.985 -44.706,33.229 -37.016,36.088c4.375,1.626 38.939,-24.15 46.376,-22.088c15.181,4.209 17.159,13.046 17.159,13.046l12.584,-13.191Z" style="fill:#161616;"/><path id="Layer-21" serif:id="Layer 21" d="M58.824,104.642c-4.448,-1.99 -8.512,-2.529 -9.07,-1.203c-0.557,1.326 2.603,4.018 7.051,6.007c4.449,1.99 8.513,2.529 9.07,1.203c0.557,-1.326 -2.602,-4.017 -7.051,-6.007Z" style="fill:#2f2e2e;"/></g><g id="Leg5" serif:id="Leg"><path id="Layer-24" serif:id="Layer 24" d="M78.472,132.614c0,-0 -26.978,-6.523 -39.999,10.793c-13.022,17.317 -19.401,53.205 -11.462,51.194c4.516,-1.144 19.469,-42.35 26.769,-44.88c14.901,-5.165 21.291,1.065 21.291,1.065l3.401,-18.172Z" style="fill:#161616;"/><path id="Layer-25" serif:id="Layer 25" d="M56.506,135.434c-4.772,0.883 -8.446,2.755 -8.199,4.178c0.248,1.422 4.323,1.86 9.096,0.976c4.773,-0.884 8.446,-2.756 8.199,-4.178c-0.248,-1.423 -4.323,-1.86 -9.096,-0.976Z" style="fill:#2f2e2e;"/></g><path id="Layer-27" serif:id="Layer 27" d="M128.461,66.203c26.841,0 48.633,16.542 48.633,36.917c-0,20.375 -21.792,36.917 -48.633,36.917c-26.84,0 -48.632,-16.542 -48.632,-36.917c0,-20.375 21.792,-36.917 48.632,-36.917Z" style="fill:#272727;"/><path id="Layer-28" serif:id="Layer 28" d="M169.423,142.818c3.232,0 5.856,2.358 5.856,5.263c-0,2.904 -2.624,5.262 -5.856,5.262c-3.232,0 -5.856,-2.358 -5.856,-5.262c-0,-2.905 2.624,-5.263 5.856,-5.263Z" style="fill:#ff86a8;"/><path id="Layer-29" serif:id="Layer 29" d="M87.285,142.818c3.232,0 5.856,2.358 5.856,5.263c0,2.904 -2.624,5.262 -5.856,5.262c-3.232,0 -5.856,-2.358 -5.856,-5.262c0,-2.905 2.624,-5.263 5.856,-5.263Z" style="fill:#ff86a8;"/><g id="Layer-32" serif:id="Layer 32"><path id="Layer-31" serif:id="Layer 31" d="M100.174,121.186c4.415,1.658 6.682,7.044 5.06,12.019c-1.623,4.975 -6.526,7.668 -10.941,6.01c-4.415,-1.659 -6.682,-7.045 -5.059,-12.02c1.622,-4.975 6.525,-7.668 10.94,-6.009Z" style="fill:#fff;"/></g><g id="Layer-35" serif:id="Layer 35"><path id="Layer-34" serif:id="Layer 34" d="M158.367,121.043c-4.406,1.402 -6.894,6.649 -5.552,11.709c1.342,5.06 6.009,8.029 10.415,6.628c4.407,-1.402 6.895,-6.649 5.553,-11.709c-1.342,-5.06 -6.009,-8.029 -10.416,-6.628Z" style="fill:#fff;"/></g><path id="Layer-36" serif:id="Layer 36" d="M149.481,68.554c8.389,3.279 14.297,8.4 13.185,11.429c-1.113,3.028 -8.827,2.825 -17.216,-0.454c-8.389,-3.279 -14.297,-8.4 -13.185,-11.428c1.113,-3.029 8.827,-2.826 17.216,0.453Z" style="fill:#5b5b5b;"/><path id="Layer-37" serif:id="Layer 37" d="M127.494,65.751c1.07,-0 1.939,0.897 1.939,2.001c0,1.104 -0.869,2.001 -1.939,2.001c-1.071,-0 -1.94,-0.897 -1.94,-2.001c0,-1.104 0.869,-2.001 1.94,-2.001Z" style="fill:#383838;"/><path id="Layer-38" serif:id="Layer 38" d="M164.16,92.359c1.441,-0 2.611,1.201 2.611,2.681c-0,1.48 -1.17,2.682 -2.611,2.682c-1.442,-0 -2.612,-1.202 -2.612,-2.682c0,-1.48 1.17,-2.681 2.612,-2.681Z" style="fill:#383838;"/><path id="Layer-39" serif:id="Layer 39" d="M149.863,86.998c2.41,-0 4.367,1.297 4.367,2.895c0,1.598 -1.957,2.895 -4.367,2.895c-2.41,0 -4.367,-1.297 -4.367,-2.895c0,-1.598 1.957,-2.895 4.367,-2.895Z" style="fill:#383838;"/><path id="Layer-40" serif:id="Layer 40" d="M168.641,82.942c1.478,0.787 2.305,2.173 1.845,3.093c-0.46,0.92 -2.034,1.028 -3.512,0.241c-1.478,-0.787 -2.305,-2.173 -1.845,-3.092c0.461,-0.92 2.034,-1.028 3.512,-0.242Z" style="fill:#5b5b5b;"/><path id="Layer-41" serif:id="Layer 41" d="M89.477,157.234c3.307,2.538 5.27,5.599 4.381,6.831c-0.888,1.232 -4.294,0.171 -7.601,-2.368c-3.306,-2.539 -5.27,-5.6 -4.381,-6.832c0.888,-1.231 4.294,-0.17 7.601,2.369Z" style="fill:#333;fill-opacity:0.49;"/></g></svg>