<?xml version="1.0" encoding="UTF-8" standalone="no"?><!DOCTYPE svg PUBLIC "-//W3C//DTD SVG 1.1//EN" "http://www.w3.org/Graphics/SVG/1.1/DTD/svg11.dtd"><svg width="100%" height="100%" viewBox="0 0 256 256" version="1.1" xmlns="http://www.w3.org/2000/svg" xmlns:xlink="http://www.w3.org/1999/xlink" xml:space="preserve" xmlns:serif="http://www.serif.com/" style="fill-rule:evenodd;clip-rule:evenodd;stroke-linejoin:round;stroke-miterlimit:2;"><g id="Strawberry"><path id="Ellipse" d="M24.955,183.265c-22.7,-51.715 10.741,-110.002 61.481,-133.04c51.022,-23.165 120.755,-5.595 143.451,46.79c22.64,52.257 -2.255,129.787 -53.29,152.3c-50.757,22.391 -128.996,-14.46 -151.642,-66.05Z" style="fill:#ae3640;"/><path id="Ellipse1" serif:id="Ellipse" d="M67.735,147.747c-0,-51.921 36.705,-94.01 81.983,-94.01c45.28,0 81.984,42.089 81.984,94.01c0,51.92 -36.704,94.009 -81.984,94.009c-45.278,0 -81.983,-42.089 -81.983,-94.009Z" style="fill:#d63657;"/><path id="Ellipse2" serif:id="Ellipse" d="M101.143,145.058c-8.662,-37.971 10.279,-75.696 42.47,-84.098c32.32,-8.435 65.456,15.936 73.85,54.271c8.346,38.116 -10.999,75.424 -43.05,83.499c-31.923,8.042 -64.656,-15.914 -73.27,-53.672Z" style="fill:#ed5c89;"/><path id="Path" d="M228.3,146.53c0.413,-1.548 0.291,-3.049 -0.36,-4.497c-0.909,-1.295 -2.186,-2.09 -3.828,-2.385c-3.555,-0.781 -5.998,0.709 -7.305,4.475c-1.046,3.787 0.359,6.164 4.199,7.145c1.64,0.291 3.238,0.059 4.793,-0.708c1.263,-0.964 2.102,-2.306 2.501,-4.03Z" style="fill:#feeebb;"/><path id="Path1" serif:id="Path" d="M152.283,125.007c3.819,0.627 6.256,-0.951 7.292,-4.739c0.494,-3.999 -1.046,-6.391 -4.61,-7.172c-3.821,-0.629 -6.249,0.953 -7.294,4.739c-0.754,3.979 0.786,6.368 4.612,7.172Z" style="fill:#feeebb;"/><path id="Path2" serif:id="Path" d="M85.241,84.397c0.484,-4.001 -1.048,-6.394 -4.612,-7.179c-3.819,-0.626 -6.248,0.954 -7.293,4.739c-0.399,1.728 -0.143,3.237 0.764,4.531c0.917,1.294 2.194,2.174 3.848,2.646c1.37,0.273 2.818,-0.064 4.359,-1.003c1.54,-0.942 2.522,-2.186 2.934,-3.734Z" style="fill:#feeebb;"/><path id="Path3" serif:id="Path" d="M208.614,87.217c0.484,-3.998 -1.047,-6.39 -4.612,-7.172c-3.833,-0.804 -6.262,0.779 -7.293,4.737c-0.412,1.551 -0.157,3.057 0.764,4.527c0.916,1.294 2.187,2.093 3.826,2.383c1.371,0.274 2.827,0.03 4.381,-0.738c1.542,-0.943 2.522,-2.188 2.934,-3.737Z" style="fill:#feeebb;"/><path id="Path4" serif:id="Path" d="M118.188,163.079c0.413,-1.548 0.293,-3.046 -0.361,-4.5c-0.908,-1.291 -2.185,-2.087 -3.825,-2.38c-1.654,-0.467 -3.243,-0.232 -4.784,0.71c-1.542,0.94 -2.379,2.196 -2.531,3.765c-0.398,1.723 -0.278,3.225 0.361,4.5c0.929,1.47 2.207,2.352 3.847,2.642c1.64,0.296 3.238,0.06 4.793,-0.704c1.263,-0.965 2.103,-2.306 2.5,-4.033Z" style="fill:#feeebb;"/><path id="Path5" serif:id="Path" d="M51.489,163.079c0.413,-1.548 0.293,-3.046 -0.36,-4.5c-0.909,-1.291 -2.186,-2.087 -3.825,-2.38c-1.655,-0.467 -3.244,-0.232 -4.785,0.71c-1.542,0.94 -2.379,2.196 -2.531,3.765c-0.398,1.723 -0.277,3.225 0.361,4.5c0.929,1.47 2.208,2.352 3.847,2.642c1.64,0.296 3.239,0.06 4.793,-0.704c1.263,-0.965 2.103,-2.306 2.5,-4.033Z" style="fill:#feeebb;fill-opacity:0.51;"/><path id="Path6" serif:id="Path" d="M105.758,209.552c0.412,-1.548 0.158,-3.057 -0.762,-4.528c-0.918,-1.293 -2.188,-2.088 -3.828,-2.381c-3.564,-0.782 -5.999,0.71 -7.315,4.477c-0.753,3.979 0.779,6.368 4.613,7.172c1.369,0.271 2.832,0.028 4.381,-0.737c1.541,-0.942 2.514,-2.276 2.911,-4.003Z" style="fill:#feeebb;"/><path id="Path7" serif:id="Path" d="M193.32,193.749c0.414,-1.549 0.292,-3.049 -0.359,-4.497c-0.923,-1.473 -2.207,-2.356 -3.848,-2.648c-3.817,-0.624 -6.248,0.953 -7.294,4.737c-0.398,1.726 -0.143,3.235 0.773,4.53c0.909,1.294 2.194,2.176 3.839,2.644c1.384,0.451 2.847,0.206 4.389,-0.737c1.264,-0.961 2.103,-2.305 2.5,-4.029Z" style="fill:#feeebb;"/><path id="Path8" serif:id="Path" d="M152.591,239.766c0.413,-1.549 0.293,-3.051 -0.359,-4.501c-0.908,-1.293 -2.187,-2.087 -3.826,-2.38c-1.655,-0.471 -3.243,-0.232 -4.785,0.71c-1.541,0.94 -2.379,2.196 -2.531,3.764c-1.037,3.782 0.361,6.167 4.209,7.146c1.639,0.293 3.237,0.057 4.792,-0.711c1.265,-0.958 2.103,-2.302 2.5,-4.028Z" style="fill:#feeebb;"/><path id="Path9" serif:id="Path" d="M100.081,52.045c0,0 68.767,-36.419 94.103,5.536c-7.603,12.723 -37.518,21.795 -37.518,21.795c0,-0 14.369,30.479 9.356,44.488c-19.714,2.185 -53.821,-16 -53.821,-16c-0,-0 -20.488,29.839 -38.908,37.034c-10.43,-12.828 -11.116,-42.732 -11.116,-42.732c-0,0 -27.002,8.393 -32.157,3.294c3.094,-54.046 70.061,-53.415 70.061,-53.415Z" style="fill-opacity:0.22;"/><path id="Path10" serif:id="Path" d="M100.768,41.387c0,-0 69.375,-33.093 92.73,14.082c-7.604,12.722 -36.832,15.36 -36.832,15.36c0,0 14.369,30.479 9.356,44.488c-19.714,2.186 -53.821,-15.999 -53.821,-15.999c-0,-0 -20.488,29.839 -38.908,37.033c-10.43,-12.827 -11.116,-42.731 -11.116,-42.731c-0,-0 -27.002,15.53 -32.157,10.432c-7.083,-64.365 70.748,-62.665 70.748,-62.665Z" style="fill:#326f22;"/><path id="Path11" serif:id="Path" d="M187.316,50.54c-0,-0 -10.304,-21.827 -51.517,-14.082c-47.983,9.017 -68.688,57.679 -62.506,74.254c6.182,16.575 41.687,-19.941 41.687,-19.941c-0,0 42.857,27.808 50.355,21.026c11.677,-10.562 -11.447,-40.968 -11.447,-40.968c-0,0 33.317,-5.122 33.428,-20.289Z" style="fill:#46a843;"/><path id="Ellipse3" serif:id="Ellipse" d="M43.129,92.056c-2.586,-2.896 0.736,-10.283 7.418,-16.499c6.683,-6.216 14.196,-8.909 16.782,-6.012c2.585,2.895 -0.737,10.282 -7.419,16.499c-6.683,6.216 -14.196,8.908 -16.781,6.012Z" style="fill:#5fc95b;"/><path id="Ellipse4" serif:id="Ellipse" d="M151.108,46.615c1.535,-3.933 10.245,-5.209 19.454,-2.849c9.209,2.36 15.43,7.462 13.896,11.395c-1.535,3.934 -10.245,5.209 -19.454,2.849c-9.21,-2.36 -15.431,-7.462 -13.896,-11.395Z" style="fill:#5fc95b;"/><path id="Ellipse5" serif:id="Ellipse" d="M139.199,96.826c-6.483,-9.755 -8.312,-21.285 -3.582,-25.376c4.917,-4.251 14.537,1.467 20.947,12.309c6.041,10.219 6.65,20.743 1.824,23.926c-4.66,3.074 -13.056,-1.632 -19.189,-10.859Z" style="fill:#5fc95b;"/><path id="Ellipse6" serif:id="Ellipse" d="M80.241,102.166c-3.838,-3.146 -2.593,-10.799 2.779,-17.092c5.372,-6.294 12.837,-8.845 16.674,-5.698c3.838,3.147 2.594,10.799 -2.778,17.093c-5.373,6.293 -12.838,8.844 -16.675,5.697Z" style="fill:#5fc95b;"/><path id="Path12" serif:id="Path" d="M110.432,37.591c0,0 1.574,-35.233 -6.111,-37.531c-4.05,-1.211 -38.07,16.238 -36.586,19.492c1.484,3.253 22.233,28.487 22.233,28.487l20.464,-10.448Z" style="fill:#326f22;"/><path id="Path13" serif:id="Path" d="M114.98,42.342c-0,-0 -5.274,-39.381 -11.117,-39.883c-5.842,-0.502 -16.965,6.995 -17.154,12.7c-0.19,5.706 15.47,39.77 19.213,39.39c3.742,-0.38 9.058,-12.207 9.058,-12.207Z" style="fill:#46a843;"/><path id="Ellipse7" serif:id="Ellipse" d="M95.461,23.527c-1.514,-6.987 0.664,-13.214 4.607,-14.023c3.716,-0.762 7.779,3.591 9.295,9.81c1.553,6.364 -0.01,12.8 -3.72,14.321c-3.948,1.619 -8.628,-2.94 -10.182,-10.108Z" style="fill:#5fc95b;"/></g></svg>