<?xml version="1.0" encoding="UTF-8" standalone="no"?><!DOCTYPE svg PUBLIC "-//W3C//DTD SVG 1.1//EN" "http://www.w3.org/Graphics/SVG/1.1/DTD/svg11.dtd"><svg width="100%" height="100%" viewBox="0 0 256 256" version="1.1" xmlns="http://www.w3.org/2000/svg" xmlns:xlink="http://www.w3.org/1999/xlink" xml:space="preserve" xmlns:serif="http://www.serif.com/" style="fill-rule:evenodd;clip-rule:evenodd;stroke-linecap:round;stroke-linejoin:round;stroke-miterlimit:1.5;"><g id="Sword--Border-" serif:id="Sword (Border)"><path d="M101.264,191.226c10.07,-10.07 10.07,-26.421 0,-36.49c-10.069,-10.07 -26.42,-10.07 -36.49,-0l-42.637,42.636c-10.069,10.07 -10.069,26.421 0,36.491c10.07,10.069 26.421,10.069 36.491,-0l42.636,-42.637Z" style="fill:none;stroke:#613d2e;stroke-width:17.01px;"/><g><path d="M101.264,191.226c10.07,-10.07 10.07,-26.421 0,-36.49c-10.069,-10.07 -26.42,-10.07 -36.49,-0l-42.637,42.636c-10.069,10.07 -10.069,26.421 0,36.491c10.07,10.069 26.421,10.069 36.491,-0l42.636,-42.637Z" style="fill:#7f513c;"/><path d="M74.896,210.64c2.217,-2.217 2.217,-5.817 -0,-8.034l-12.052,-12.052c-2.217,-2.217 -5.818,-2.217 -8.035,-0l-19.394,19.394c-5.543,5.543 -5.543,14.544 0,20.087c5.543,5.543 14.543,5.543 20.087,-0l19.394,-19.395Z" style="fill:#9f5f3c;"/><path d="M55.514,219.792c2.241,-2.242 2.241,-5.881 -0,-8.123c-2.242,-2.241 -5.882,-2.241 -8.123,0l-5.406,5.406c-2.241,2.242 -2.241,5.881 0,8.123c2.242,2.241 5.881,2.241 8.123,-0l5.406,-5.406Z" style="fill:#bf7c57;"/></g><path d="M233.21,14.782c2.37,-0.552 4.739,0.072 6.337,1.671c1.599,1.598 2.223,3.967 1.671,6.337c-5.034,21.605 -16.364,70.232 -19.249,82.613c-0.435,1.867 -1.563,3.569 -3.148,4.748c-16.26,12.096 -107.313,79.831 -107.313,79.831l-45.49,-45.49c-0,0 67.735,-91.053 79.831,-107.313c1.179,-1.585 2.881,-2.713 4.748,-3.148c12.381,-2.885 61.008,-14.215 82.613,-19.249Z" style="fill:none;stroke:#616a73;stroke-width:17.01px;"/><path d="M233.21,14.782c2.37,-0.552 4.739,0.072 6.337,1.671c1.599,1.598 2.223,3.967 1.671,6.337c-5.034,21.605 -16.364,70.232 -19.249,82.613c-0.435,1.867 -1.563,3.569 -3.148,4.748c-16.26,12.096 -107.313,79.831 -107.313,79.831l-45.49,-45.49c-0,0 67.735,-91.053 79.831,-107.313c1.179,-1.585 2.881,-2.713 4.748,-3.148c12.381,-2.885 61.008,-14.215 82.613,-19.249Z" style="fill:#dee2e6;"/><clipPath id="_clip1"><path d="M233.21,14.782c2.37,-0.552 4.739,0.072 6.337,1.671c1.599,1.598 2.223,3.967 1.671,6.337c-5.034,21.605 -16.364,70.232 -19.249,82.613c-0.435,1.867 -1.563,3.569 -3.148,4.748c-16.26,12.096 -107.313,79.831 -107.313,79.831l-45.49,-45.49c-0,0 67.735,-91.053 79.831,-107.313c1.179,-1.585 2.881,-2.713 4.748,-3.148c12.381,-2.885 61.008,-14.215 82.613,-19.249Z"/></clipPath><g clip-path="url(#_clip1)"><path d="M256.374,-0.374l-43.487,-43.487l-174.525,174.526l43.486,43.487l174.526,-174.526Z" style="fill:#adb5bd;"/><path d="M243.136,12.918l-30.315,85.746l-113.385,81.396l11.863,11.863l112.095,-82.686l19.742,-96.319Z" style="fill:#fff;"/><path d="M242.244,12.026l-85.745,30.315l-81.397,113.385l-10.759,-10.759l81.582,-113.199l96.319,-19.742Z" style="fill:#868e96;"/></g><g><path d="M94.489,207.584c7.988,7.989 20.959,7.989 28.947,0c7.988,-7.988 7.988,-20.959 0,-28.947l-46.073,-46.073c-7.988,-7.988 -20.959,-7.988 -28.947,-0c-7.989,7.988 -7.989,20.959 -0,28.947l46.073,46.073Z" style="fill:none;stroke:#8f6f22;stroke-width:17.01px;"/><path d="M94.489,207.584c7.988,7.989 20.959,7.989 28.947,0c7.988,-7.988 7.988,-20.959 0,-28.947l-46.073,-46.073c-7.988,-7.988 -20.959,-7.988 -28.947,-0c-7.989,7.988 -7.989,20.959 -0,28.947l46.073,46.073Z" style="fill:#d1a73d;"/><path d="M100.647,203.193c6.252,6.252 16.404,6.252 22.657,-0c6.252,-6.253 6.252,-16.405 -0,-22.657l-32.443,-32.443c-6.252,-6.252 -16.404,-6.252 -22.657,0c-6.252,6.253 -6.252,16.405 0,22.657l32.443,32.443Z" style="fill:#ffd85a;"/><path d="M110.689,193.596c3.056,3.056 8.019,3.056 11.075,-0c3.056,-3.057 3.056,-8.019 -0,-11.075l-16.179,-16.179c-3.056,-3.056 -8.018,-3.056 -11.074,0c-3.056,3.056 -3.056,8.019 -0,11.075l16.178,16.179Z" style="fill:#fff;"/></g></g></svg>