<?xml version="1.0" encoding="UTF-8" standalone="no"?><!DOCTYPE svg PUBLIC "-//W3C//DTD SVG 1.1//EN" "http://www.w3.org/Graphics/SVG/1.1/DTD/svg11.dtd"><svg width="100%" height="100%" viewBox="0 0 256 256" version="1.1" xmlns="http://www.w3.org/2000/svg" xmlns:xlink="http://www.w3.org/1999/xlink" xml:space="preserve" xmlns:serif="http://www.serif.com/" style="fill-rule:evenodd;clip-rule:evenodd;stroke-linejoin:round;stroke-miterlimit:2;"><g id="Clock"><path id="Ellipse" d="M17.262,142.796c0,-59.928 49.579,-108.508 110.738,-108.508c61.159,-0 110.738,48.58 110.738,108.508c-0,59.928 -49.579,108.508 -110.738,108.508c-61.159,-0 -110.738,-48.58 -110.738,-108.508Z" style="fill:#368591;"/><path id="Ellipse1" serif:id="Ellipse" d="M102.19,236.878c0.212,-11.262 16.116,-8.197 38.832,-11.797c22.545,-3.574 34.83,-12.942 40.229,-1.605c5.398,11.337 -20.587,20.848 -35.402,23.534c-5.9,1.069 -43.873,1.13 -43.659,-10.132Z" style="fill:#3f9ba8;"/><path id="Path" d="M128,34.288c-61.12,-0 -110.675,48.516 -110.738,108.392c28.482,13.328 67.048,21.513 109.508,21.513c43.691,0 83.26,-8.665 111.961,-22.685c-0.702,-59.335 -50.01,-107.22 -110.731,-107.22Z" style="fill:#3f9baa;"/><rect id="Path1" serif:id="Path" x="118.917" y="17.684" width="15.586" height="31.18" style="fill:#3f9ba8;"/><path id="Path2" serif:id="Path" d="M104.609,4.696l46.783,0c6.448,0 11.675,5.235 11.675,11.693c-0,6.457 -5.227,11.692 -11.675,11.692l-46.783,0c-6.449,0 -11.676,-5.235 -11.676,-11.692c0,-6.458 5.227,-11.693 11.676,-11.693Z" style="fill:#3f9ba8;"/><path id="Ellipse2" serif:id="Ellipse" d="M100.161,15.288c-0,-3.9 13.138,-7.062 29.345,-7.062c16.206,0 29.344,3.162 29.344,7.062c-0,3.9 -13.138,7.061 -29.344,7.061c-16.207,0 -29.345,-3.161 -29.345,-7.061Z" style="fill:#7cd5e0;"/><path id="Ellipse3" serif:id="Ellipse" d="M136.41,11.757c0,-1.95 4.25,-3.531 9.494,-3.531c5.243,0 9.494,1.581 9.494,3.531c-0,1.95 -4.251,3.531 -9.494,3.531c-5.244,-0 -9.494,-1.581 -9.494,-3.531Z" style="fill:#fff;"/><path id="Path3" serif:id="Path" d="M135.382,58.68c-4.014,-0.472 -7.585,-9.782 -0.936,-14.849c6.649,-5.066 29.901,-1.448 50.153,9.941c20.253,11.389 24.866,26.737 8.613,31.899c-16.252,5.163 -53.814,-26.52 -57.83,-26.991Z" style="fill:#7cd5e0;"/><path id="Ellipse4" serif:id="Ellipse" d="M37.396,142.796c0,-49.033 40.565,-88.78 90.604,-88.78c50.039,0 90.604,39.747 90.604,88.78c-0,49.032 -40.565,88.778 -90.604,88.778c-50.039,0 -90.604,-39.746 -90.604,-88.778Z" style="fill:url(#_Linear1);"/><path id="Path4" serif:id="Path" d="M38.627,145.25c-0,49.032 40.564,88.778 90.603,88.778c50.04,0 90.605,-39.746 90.605,-88.778c-0,-0.821 -0.011,-1.638 -0.033,-2.454c-1.327,47.898 -41.37,86.325 -90.572,86.325c-49.202,-0 -89.244,-38.427 -90.571,-86.325c-0.022,0.816 -0.032,1.633 -0.032,2.454Z" style="fill:#bbb;"/><path id="Ellipse5" serif:id="Ellipse" d="M116.311,210.202c-1.699,-7.115 7.941,-15.354 21.532,-18.403c13.592,-3.049 25.986,0.246 27.685,7.361c1.699,7.115 -7.942,15.355 -21.533,18.404c-13.59,3.049 -25.985,-0.247 -27.684,-7.362Z" style="fill:#fff;"/><path id="Ellipse6" serif:id="Ellipse" d="M50.484,120.638c-0,-34.219 35.255,-61.958 78.746,-61.958c43.492,-0 78.747,27.739 78.747,61.958c0,34.22 -35.255,61.959 -78.747,61.959c-43.491,0 -78.746,-27.739 -78.746,-61.959Z" style="fill:#fff;"/><path id="Ellipse7" serif:id="Ellipse" d="M119.946,69.799c0,-3.268 2.704,-5.918 6.042,-5.918c3.335,-0 6.04,2.65 6.04,5.918c0,3.269 -2.705,5.919 -6.04,5.919c-3.338,-0 -6.042,-2.65 -6.042,-5.919Z" style="fill:#368591;"/><path id="Ellipse8" serif:id="Ellipse" d="M192.43,142.629c0,-3.269 2.704,-5.919 6.04,-5.919c3.337,-0 6.04,2.65 6.04,5.919c0,3.269 -2.703,5.918 -6.04,5.918c-3.336,0 -6.04,-2.649 -6.04,-5.918Z" style="fill:#368591;"/><path id="Ellipse9" serif:id="Ellipse" d="M123.973,211.846c0,-3.269 2.706,-5.918 6.041,-5.918c3.336,-0 6.04,2.649 6.04,5.918c-0,3.269 -2.704,5.918 -6.04,5.918c-3.335,0 -6.041,-2.649 -6.041,-5.918Z" style="fill:#368591;"/><path id="Ellipse10" serif:id="Ellipse" d="M49.534,140.823c0,-3.269 2.703,-5.919 6.04,-5.919c3.336,0 6.04,2.65 6.04,5.919c0,3.269 -2.704,5.918 -6.04,5.918c-3.337,0 -6.04,-2.649 -6.04,-5.918Z" style="fill:#368591;"/><path id="Ellipse11" serif:id="Ellipse" d="M116.317,130.437c6.919,-6.749 18.125,-6.763 25.028,-0.031c6.901,6.732 6.887,17.661 -0.032,24.41c-6.921,6.75 -18.126,6.763 -25.029,0.031c-6.902,-6.732 -6.889,-17.661 0.033,-24.41Z" style="fill:#f14d5a;"/><path id="Path5" serif:id="Path" d="M146.887,69.182c-0.746,-0.306 -5.084,-0.652 -5.341,-0.652c-5.096,-0 -7.394,4.084 -7.394,9.167c0,4.842 3.752,8.814 8.515,9.177c18.573,5.608 33.335,19.875 39.49,38.052c1.532,4.388 4.316,8.595 9.208,8.595c5.098,-0 10.46,-4.12 10.46,-9.202c0,-1.29 -0.898,-4.147 -0.898,-4.147c-8.089,-24.625 -28.436,-43.899 -54.04,-50.99Z" style="fill:#99e026;"/><path id="Path6" serif:id="Path" d="M129.832,138.776c0,-0 62.233,6.054 62.233,8.789c-0,2.735 -61.886,8.859 -61.886,8.859l-0.347,-17.648Z" style="fill:#333;fill-opacity:0.3;"/><path id="Path7" serif:id="Path" d="M135.984,133.868c-0,-0 62.233,6.055 62.233,8.789c-0,2.736 -61.886,8.859 -61.886,8.859l-0.347,-17.648Z" style="fill:#333;"/><path id="Ellipse12" serif:id="Ellipse" d="M73.149,90.652c-0,-1.674 1.391,-3.032 3.105,-3.032c1.714,0 3.104,1.358 3.104,3.032c-0,1.674 -1.39,3.031 -3.104,3.031c-1.714,-0 -3.105,-1.357 -3.105,-3.031Z" style="fill:#368591;"/><path id="Ellipse13" serif:id="Ellipse" d="M72.631,194.253c0,-1.694 1.379,-3.068 3.077,-3.068c1.699,0 3.075,1.374 3.075,3.068c0,1.694 -1.376,3.067 -3.075,3.067c-1.698,-0 -3.077,-1.373 -3.077,-3.067Z" style="fill:#368591;"/><path id="Ellipse14" serif:id="Ellipse" d="M180.782,189.67c0,-1.674 1.39,-3.031 3.104,-3.031c1.716,-0 3.106,1.357 3.106,3.031c-0,1.674 -1.39,3.031 -3.106,3.031c-1.714,0 -3.104,-1.357 -3.104,-3.031Z" style="fill:#368591;"/><path id="Ellipse15" serif:id="Ellipse" d="M209.449,95.328c-2.704,-4.779 -2.802,-9.681 -0.217,-10.948c2.585,-1.268 6.873,1.579 9.577,6.358c2.705,4.779 2.802,9.681 0.218,10.948c-2.585,1.268 -6.873,-1.579 -9.578,-6.358Z" style="fill:#7cd5e0;"/><path id="Ellipse16" serif:id="Ellipse" d="M158.76,48.251c1.36,-2.372 7.695,-1.822 14.15,1.227c6.456,3.049 10.588,7.443 9.229,9.815c-1.36,2.372 -7.695,1.823 -14.15,-1.227c-6.456,-3.049 -10.588,-7.444 -9.229,-9.815Z" style="fill:#fff;"/><path id="Path8" serif:id="Path" d="M125.646,123.855c10.104,-1.282 19.359,5.845 20.658,15.936c1.301,10.107 -5.875,19.329 -16.013,20.581c-10.118,1.249 -19.335,-5.921 -20.602,-15.998c-1.265,-10.061 5.872,-19.239 15.957,-20.519Z" style="fill:#333;fill-rule:nonzero;"/><path id="Path9" serif:id="Path" d="M121.955,152.989c0.802,-0.1 1.536,0.461 1.639,1.255c0.102,0.795 -0.466,1.52 -1.269,1.62c-0.802,0.1 -1.535,-0.462 -1.637,-1.256c-0.102,-0.794 0.465,-1.518 1.267,-1.619Z" style="fill:#fff;fill-opacity:0.59;fill-rule:nonzero;"/><path id="Path10" serif:id="Path" d="M133.5,130.307c-0.978,-0.38 0.613,-1.854 1.919,-1.127c1.888,1.049 5.4,4.589 4.866,5.347c-0.532,0.753 -4.753,-3.432 -6.785,-4.22Z" style="fill:#fff;"/><path id="Ellipse17" serif:id="Ellipse" d="M119.387,141.496c0,-3.727 4.407,-6.748 9.843,-6.748c5.437,-0 9.844,3.021 9.844,6.748c0,3.727 -4.407,6.748 -9.844,6.748c-5.436,-0 -9.843,-3.021 -9.843,-6.748Z" style="fill:#fff;fill-opacity:0.24;"/></g><defs><linearGradient id="_Linear1" x1="0" y1="0" x2="1" y2="0" gradientUnits="userSpaceOnUse" gradientTransform="matrix(3.01816e-05,178.018,-178.018,3.01816e-05,128,53.7863)"><stop offset="0" style="stop-color:#eee;stop-opacity:1"/><stop offset="1" style="stop-color:#ddd;stop-opacity:1"/></linearGradient></defs></svg>