<?xml version="1.0" encoding="UTF-8" standalone="no"?><!DOCTYPE svg PUBLIC "-//W3C//DTD SVG 1.1//EN" "http://www.w3.org/Graphics/SVG/1.1/DTD/svg11.dtd"><svg width="100%" height="100%" viewBox="0 0 256 256" version="1.1" xmlns="http://www.w3.org/2000/svg" xmlns:xlink="http://www.w3.org/1999/xlink" xml:space="preserve" xmlns:serif="http://www.serif.com/" style="fill-rule:evenodd;clip-rule:evenodd;stroke-linejoin:round;stroke-miterlimit:2;"><g id="Toaster"><path id="Ellipse" d="M13.426,219.193c-0,-9.328 6.395,-16.888 14.283,-16.888c7.889,-0 14.283,7.56 14.283,16.888c0,9.327 -6.394,16.888 -14.283,16.888c-7.888,-0 -14.283,-7.561 -14.283,-16.888Z" style="fill:#111;"/><path id="Ellipse1" serif:id="Ellipse" d="M161.453,239.112c0,-9.327 6.395,-16.888 14.283,-16.888c7.889,-0 14.284,7.561 14.284,16.888c-0,9.327 -6.395,16.888 -14.284,16.888c-7.888,0 -14.283,-7.561 -14.283,-16.888Z" style="fill:#111;"/><path id="Ellipse2" serif:id="Ellipse" d="M214.258,202.738c0,-9.327 6.395,-16.888 14.283,-16.888c7.889,-0 14.284,7.561 14.284,16.888c-0,9.327 -6.395,16.888 -14.284,16.888c-7.888,-0 -14.283,-7.561 -14.283,-16.888Z" style="fill:#111;"/><path id="Ellipse3" serif:id="Ellipse" d="M224.721,212.591c-1.673,-2.63 -2.061,-5.538 -0.866,-6.495c1.196,-0.957 3.521,0.4 5.194,3.031c1.674,2.631 2.061,5.539 0.866,6.495c-1.196,0.957 -3.521,-0.4 -5.194,-3.031Z" style="fill:#333;"/><path id="Path" d="M104.32,55.075c-15.57,-0.623 -70.119,19.053 -84.835,39.839c-14.716,20.785 -11.253,102.194 -4.328,116.051c6.925,13.857 143.699,28.58 165.341,23.383c21.641,-5.196 50.262,-20.866 58.053,-35.589c7.791,-14.723 3.606,-92.221 -7.953,-105.713c-17.043,-19.892 -82.995,-36.239 -126.278,-37.971Z" style="fill:#c3cad1;"/><path id="Path1" serif:id="Path" d="M94.979,56.495c-20.767,3.334 -65.056,20.873 -78.091,39.285c-14.147,19.982 -11.495,95.994 -5.116,114.15c-3.972,-28.434 -2.175,-95.649 10.31,-113.284c11.832,-16.711 50.213,-34.242 72.897,-40.151Z" style="fill:#fff;"/><path id="Path2" serif:id="Path" d="M176.169,122.628c13.504,10.839 12.39,105.117 1.028,116.484c-12.985,4.33 -149.055,-11.692 -162.906,-27.281c-13.85,-15.589 -10.388,-109.123 8.657,-114.319c19.044,-5.196 129.822,6.333 153.221,25.116Z" style="fill:#dce3ea;"/><path id="Path3" serif:id="Path" d="M240.228,193.644c2.57,-7.957 0.866,-90.936 -8.657,-95.266c-9.522,-4.33 -53.671,23.383 -54.536,27.714c-0.866,4.33 -4.166,113.02 -0.703,113.02c3.462,-0 56.382,-22.203 63.896,-45.468Z" style="fill:#a3abae;"/><path id="Path4" serif:id="Path" d="M18.133,114.643c8.384,-4.516 118.563,-2.017 141.07,26.563c22.507,28.579 15.019,84.482 5.496,88.812c-9.522,4.33 -140.723,-5.494 -151.111,-17.619c-10.388,-12.124 -6.709,-91.693 4.545,-97.756Z" style="fill:#d3dae1;"/><path id="Path5" serif:id="Path" d="M58.738,81.111c-5.985,-0.954 36.06,-14.777 42.119,-13.911c6.06,0.866 87.134,14.696 86.268,19.026c-0.866,4.33 -17.313,9.527 -21.641,10.393c-4.328,0.866 -97.414,-14.02 -106.746,-15.508Z" style="fill:#616568;"/><path id="Path6" serif:id="Path" d="M75.51,98.161c-9.362,-2.451 -56.391,-2.838 -56.391,-2.838l-1.365,3.921c-0,0 20.045,-3.572 57.756,-1.083Z" style="fill:#fff;"/><path id="Ellipse4" serif:id="Ellipse" d="M18.187,226.987c-1.673,-2.631 -2.061,-5.539 -0.866,-6.495c1.195,-0.957 3.521,0.4 5.194,3.031c1.673,2.631 2.061,5.539 0.866,6.495c-1.196,0.957 -3.521,-0.4 -5.194,-3.031Z" style="fill:#333;"/><path id="Ellipse5" serif:id="Ellipse" d="M167.946,249.505c-1.674,-2.631 -2.061,-5.539 -0.866,-6.496c1.195,-0.957 3.521,0.401 5.194,3.031c1.673,2.631 2.061,5.539 0.865,6.496c-1.195,0.956 -3.52,-0.401 -5.193,-3.031Z" style="fill:#333;"/><path id="Path7" serif:id="Path" d="M72.125,83.827l-1.566,-32.216c-0,0 -29.729,-48.97 38.742,-46.214c98.848,3.978 60.809,60.937 60.809,60.937l-0.571,30.755c0,-0 -3.273,1.028 -5.194,0.866c-1.921,-0.162 -38.251,-5.034 -92.22,-14.128Z" style="fill:#fed993;"/><path id="Path8" serif:id="Path" d="M70.924,52.309c-0,0 -41.321,-62.464 56.795,-50.875c94.237,11.13 52.779,57.971 52.779,57.971l-0.866,32.911l-11.253,6.062l-0.866,-33.776c-0,-0 28.621,-32.147 -22.252,-50.164c-57.105,-20.226 -94.13,-5.148 -74.337,37.871Z" style="fill:#cf965a;"/><path id="Path9" serif:id="Path" d="M180.978,57.244l-12.599,8.224l8.656,1.732l-3.197,28.659l6.66,-4.409l0.48,-34.206Z" style="fill:#bd8851;"/><path id="Path10" serif:id="Path" d="M77.873,77.554c0.112,-2.596 1.264,-24.465 0.433,-25.549c-0.831,-1.083 -22.94,-49.797 43.716,-34.642c55.588,12.64 30.731,47.2 30.731,47.2c-0,0 3.249,28.179 0.866,28.147c-2.383,-0.032 -75.937,-10.686 -75.746,-15.156Z" style="fill:#fee1a2;"/><path id="Path11" serif:id="Path" d="M184.826,26.495c0.797,0.338 7.44,7.958 3.678,18.624c-2.971,8.42 -6.602,12.479 -7.839,14.117c-1.237,1.637 -9.195,6.654 -10.555,5.366c-1.36,-1.288 8.895,-12.316 7.419,-21.051c-1.475,-8.736 -6.359,-13.707 -5.688,-15.323c0.671,-1.617 10.96,-2.591 12.985,-1.733Z" style="fill:#bd8851;"/><path id="Path12" serif:id="Path" d="M83.867,72.733c-1.298,-4.763 1.299,-18.187 -1.298,-24.25c-2.597,-6.062 -16.881,-37.673 29.432,-28.146c55.345,11.384 24.671,37.673 24.671,37.673c0,0 2.597,27.281 1.732,26.848c-0.866,-0.433 -53.238,-7.362 -54.537,-12.125Z" style="fill:#fef3be;fill-opacity:0.44;"/><path id="Path13" serif:id="Path" d="M222.355,126.735c-1.443,0.403 -21.999,11.728 -21.693,12.784c0.307,1.057 -1.492,79.131 2.862,87.554c1.017,0.001 17.119,-10.518 18.525,-11.778c1.406,-1.26 1.75,-88.963 0.306,-88.56Z" style="fill:url(#_Linear1);"/><path id="Path14" serif:id="Path" d="M247.153,152.94c1.129,-0.391 4.014,14.775 2.597,18.187c-1.416,3.411 -16.89,11.828 -24.238,12.124c-7.349,0.297 -25.104,-5.196 -25.104,-5.196l-0,-15.589c-0,0 45.616,-9.136 46.745,-9.526Z" style="fill:url(#_Linear2);"/><path id="Path15" serif:id="Path" d="M200.408,162.466c-0,0 21.56,-13.215 22.507,-12.991c0.947,0.224 23.166,1.325 23.739,3.074c0.573,1.75 -9.035,12.217 -22.792,13.438c-13.758,1.22 -23.454,-3.521 -23.454,-3.521Z" style="fill:#464749;"/><path id="Path16" serif:id="Path" d="M222.049,152.94c1.563,-0.747 22.249,-0.815 21.297,2.001c-0.952,2.816 -13.77,8.288 -19.943,8.958c-6.173,0.671 -22.584,-0.814 -1.354,-10.959Z" style="fill:#5a5b5e;"/><path id="Ellipse6" serif:id="Ellipse" d="M233.303,155.971c-0,-1.196 1.162,-2.166 2.596,-2.166c1.435,0 2.598,0.97 2.598,2.166c-0,1.195 -1.163,2.165 -2.598,2.165c-1.434,-0 -2.596,-0.97 -2.596,-2.165Z" style="fill:#999;"/><path id="Ellipse7" serif:id="Ellipse" d="M215.124,161.6c-0,-0.478 0.387,-0.866 0.865,-0.866c0.478,-0 0.866,0.388 0.866,0.866c0,0.478 -0.388,0.866 -0.866,0.866c-0.478,0 -0.865,-0.388 -0.865,-0.866Z" style="fill:#999;"/><path id="Path17" serif:id="Path" d="M212.527,154.672l-12.119,-0.867l-0,7.795l12.119,-6.928Z" style="fill:#050505;"/><path id="Ellipse8" serif:id="Ellipse" d="M159.722,220.925c1.434,-3.109 3.953,-5.048 5.626,-4.331c1.674,0.718 1.868,3.82 0.433,6.929c-1.434,3.109 -3.953,5.048 -5.626,4.33c-1.674,-0.717 -1.867,-3.819 -0.433,-6.928Z" style="fill:#fff;"/><path id="Ellipse9" serif:id="Ellipse" d="M17.754,123.927c-1.434,-3.588 3.798,-8.822 11.686,-11.692c7.889,-2.87 15.446,-2.288 16.881,1.299c1.434,3.587 -3.798,8.822 -11.687,11.692c-7.888,2.869 -15.446,2.288 -16.88,-1.299Z" style="fill:#fff;"/><path id="Ellipse10" serif:id="Ellipse" d="M77.826,27.929c-1.094,-2.185 2.453,-6.021 7.923,-8.57c5.469,-2.548 10.789,-2.843 11.883,-0.658c1.094,2.184 -2.453,6.02 -7.923,8.569c-5.469,2.548 -10.789,2.843 -11.883,0.659Z" style="fill:#fff;"/><path id="Ellipse11" serif:id="Ellipse" d="M148.466,64.183c-0,-1.82 1.477,-3.296 3.3,-3.296c1.824,0 3.301,1.476 3.301,3.296c0,1.82 -1.477,3.296 -3.301,3.296c-1.823,-0 -3.3,-1.476 -3.3,-3.296Z" style="fill:#fff;"/><path id="Ellipse12" serif:id="Ellipse" d="M107.534,43.089c0,-1.092 0.887,-1.977 1.981,-1.977c1.094,0 1.981,0.885 1.981,1.977c-0,1.093 -0.887,1.978 -1.981,1.978c-1.094,0 -1.981,-0.885 -1.981,-1.978Z" style="fill:#fef3be;"/><path id="Ellipse13" serif:id="Ellipse" d="M90.37,35.839c-0,-0.729 0.591,-1.319 1.32,-1.319c0.729,0 1.32,0.59 1.32,1.319c0,0.728 -0.591,1.318 -1.32,1.318c-0.729,0 -1.32,-0.59 -1.32,-1.318Z" style="fill:#fef3be;"/><path id="Ellipse14" serif:id="Ellipse" d="M94.331,62.865c-0,-1.093 0.886,-1.978 1.981,-1.978c1.093,0 1.98,0.885 1.98,1.978c-0,1.092 -0.887,1.977 -1.98,1.977c-1.095,0 -1.981,-0.885 -1.981,-1.977Z" style="fill:#fef3be;"/><path id="Ellipse15" serif:id="Ellipse" d="M122.058,64.842c0,-1.456 1.183,-2.637 2.641,-2.637c1.459,0 2.641,1.181 2.641,2.637c-0,1.456 -1.182,2.637 -2.641,2.637c-1.458,-0 -2.641,-1.181 -2.641,-2.637Z" style="fill:#fef3be;"/><path id="Ellipse16" serif:id="Ellipse" d="M131.301,39.794c-0,-0.729 0.591,-1.319 1.32,-1.319c0.729,0 1.321,0.59 1.321,1.319c-0,0.728 -0.592,1.318 -1.321,1.318c-0.729,0 -1.32,-0.59 -1.32,-1.318Z" style="fill:#fef3be;"/><path id="Ellipse17" serif:id="Ellipse" d="M91.69,48.363c0,-1.092 0.887,-1.978 1.981,-1.978c1.094,0 1.98,0.886 1.98,1.978c0,1.092 -0.886,1.977 -1.98,1.977c-1.094,0 -1.981,-0.885 -1.981,-1.977Z" style="fill:#feda88;"/><path id="Ellipse18" serif:id="Ellipse" d="M110.175,60.228c0,-1.092 0.887,-1.978 1.981,-1.978c1.094,0 1.98,0.886 1.98,1.978c0,1.092 -0.886,1.977 -1.98,1.977c-1.094,0 -1.981,-0.885 -1.981,-1.977Z" style="fill:#feda88;"/><path id="Ellipse19" serif:id="Ellipse" d="M114.136,31.884c0,-0.729 0.591,-1.319 1.32,-1.319c0.73,0 1.321,0.59 1.321,1.319c-0,0.728 -0.591,1.318 -1.321,1.318c-0.729,0 -1.32,-0.59 -1.32,-1.318Z" style="fill:#feda88;"/><path id="Ellipse20" serif:id="Ellipse" d="M128.66,52.977c0,-0.728 0.591,-1.318 1.321,-1.318c0.729,-0 1.32,0.59 1.32,1.318c-0,0.728 -0.591,1.318 -1.32,1.318c-0.73,0 -1.321,-0.59 -1.321,-1.318Z" style="fill:#feda88;"/><path id="Ellipse21" serif:id="Ellipse" d="M103.573,76.048c0,-1.092 0.887,-1.978 1.981,-1.978c1.094,0 1.98,0.886 1.98,1.978c0,1.092 -0.886,1.977 -1.98,1.977c-1.094,0 -1.981,-0.885 -1.981,-1.977Z" style="fill:#feda88;"/></g><defs><linearGradient id="_Linear1" x1="0" y1="0" x2="1" y2="0" gradientUnits="userSpaceOnUse" gradientTransform="matrix(21.3333,-10.6141,10.6141,21.3333,202.139,145.956)"><stop offset="0" style="stop-color:#5d6265;stop-opacity:1"/><stop offset="1" style="stop-color:#858a8e;stop-opacity:1"/></linearGradient><linearGradient id="_Linear2" x1="0" y1="0" x2="1" y2="0" gradientUnits="userSpaceOnUse" gradientTransform="matrix(48,-4.39344,4.39344,48,200.574,169.047)"><stop offset="0" style="stop-color:#050505;stop-opacity:1"/><stop offset="0.02" style="stop-color:#050505;stop-opacity:1"/><stop offset="0.13" style="stop-color:#050505;stop-opacity:1"/><stop offset="0.48" style="stop-color:#444;stop-opacity:1"/><stop offset="0.66" style="stop-color:#050505;stop-opacity:1"/><stop offset="0.97" style="stop-color:#050505;stop-opacity:1"/><stop offset="1" style="stop-color:#050505;stop-opacity:1"/></linearGradient></defs></svg>