<?xml version="1.0" encoding="UTF-8" standalone="no"?><!DOCTYPE svg PUBLIC "-//W3C//DTD SVG 1.1//EN" "http://www.w3.org/Graphics/SVG/1.1/DTD/svg11.dtd"><svg width="100%" height="100%" viewBox="0 0 256 256" version="1.1" xmlns="http://www.w3.org/2000/svg" xmlns:xlink="http://www.w3.org/1999/xlink" xml:space="preserve" xmlns:serif="http://www.serif.com/" style="fill-rule:evenodd;clip-rule:evenodd;stroke-linejoin:round;stroke-miterlimit:2;"><g id="Witch-Hat" serif:id="Witch Hat"><path d="M54.193,172.921c0,-0 -50.343,-0.534 -51.706,12.226c-1.363,12.761 25.103,40.352 127.063,41.688c65.654,0.861 124.012,-32.684 124.012,-42.81c0,-10.125 -41.953,-11.548 -53.779,-11.548c-11.825,-0 -121.288,15.008 -145.59,0.444Z" style="fill:#222;"/><path d="M54.127,163.485c0,0 28.324,-59.651 33.311,-77.839c4.987,-18.189 0.33,-40.808 39.604,-46.464c39.274,-5.657 110.59,-17.003 115.281,-4.116c4.69,12.887 -54.174,34.256 -54.174,35.733c-0,1.478 5.945,4.335 4.426,8.641c-1.519,4.307 -10.932,9.126 -10.932,9.126c-0,0 10.945,15.2 12.529,36.471c1.584,21.271 -2.059,42.451 -11.274,56.267c-9.215,13.816 -113.311,4.907 -128.771,-17.819Z" style="fill:#222;"/><path d="M230.879,34.382c1.79,1.078 -96.813,22.647 -97.497,25.253c-0.684,2.606 28.765,7.073 28.765,12.285c-0,5.212 -34.198,6.6 -36.214,12.7c-2.017,6.1 28.453,12.197 29.106,19.51c0.654,7.312 -8.67,21.464 -8.67,32.092c0,10.629 -75.466,15.513 -75.466,10.155c-0,-5.358 19.558,-50.214 21.575,-61.225c2.017,-11.011 2.141,-22.983 12.847,-34.784c9.236,-10.181 116.463,-21.461 125.554,-15.986Z" style="fill:#303030;"/><path d="M193.927,142.809c-9.026,7.277 -124.738,6.297 -129.902,-0.797c-15.517,2.135 -22.651,27.325 -16.171,32.417c6.48,5.092 65.862,15.101 100.397,12.495c34.534,-2.606 51.364,-11.812 52.045,-15.779c0.682,-3.968 7.642,-24.31 -6.369,-28.336Z" style="fill:#b82541;"/><path d="M185.313,145.082c4.711,-0.693 7.97,-1.538 9.211,-2.538c14.011,4.025 7.051,24.367 6.37,28.335c-0.682,3.967 -17.511,13.173 -52.046,15.779c-32.949,2.486 -88.519,-6.511 -99.178,-11.765c21.872,4.515 110.238,18.785 134.739,-5.049c1.969,-1.914 9.079,-10.202 0.904,-24.762Z" style="fill:#a31b36;"/><path d="M61.629,147.273c5.549,-4.264 108.506,-4.251 113.479,19.819c3.293,15.933 -56.657,11.775 -87.575,11.578c-51.492,-0.328 -35.918,-23.701 -25.904,-31.397Z" style="fill:#dc3857;"/><g id="Skull"><path d="M137.562,148.598c-0.304,7.667 -4.273,21.896 -25.85,23.471c0.002,0.078 0.003,0.157 0.003,0.235c-0,4.166 -2.476,8.827 -5.649,9.021c-5.76,0.352 -8.342,-5.646 -8.342,-5.646c-0,-0 -2.172,5.324 -6.634,4.644c-4.341,-0.661 -4.017,-5.307 -4.017,-5.307c0,-0 -1.41,4.106 -4.514,2.818c-4.12,-1.71 -1.643,-8.687 -1.598,-9.089c-6.38,-2.244 -8.208,-9.78 -6.51,-18.023l0.107,-0.006c13.482,-0.896 28.553,-4.596 41.953,-4.552c10.861,0.037 22.254,3.031 21.051,2.434Z" style="fill:#b82642;"/><path d="M75.817,164.067c-16.578,-5.831 -2.421,-47.391 24.455,-44.237c16.419,1.926 31.697,8.484 32.154,22.309c0.23,6.968 -2.468,23.545 -25.858,25.253c0.001,0.078 0.002,0.156 0.002,0.235c0,4.166 -2.475,8.826 -5.648,9.02c-5.761,0.353 -8.343,-5.645 -8.343,-5.645c0,-0 -2.171,5.323 -6.633,4.644c-4.342,-0.661 -4.017,-5.308 -4.017,-5.308c-0,0 -1.41,4.107 -4.515,2.818c-4.119,-1.71 -1.643,-8.687 -1.597,-9.089Z" style="fill:#d1d1d1;"/><path d="M96.356,121.753c-12.08,1.329 -19.028,10.232 -20.689,17.232c-2.394,10.09 7.599,10.352 19.522,10.352c11.922,-0 23.683,0.084 23.683,-10.352c-0,-10.436 -10.654,-18.538 -22.516,-17.232Z" style="fill:#f7f7f7;fill-opacity:0.39;"/><path d="M76.033,149.934c2.189,-0.421 4.435,0.647 5.012,3.758c0.577,3.111 -0.502,7.043 -2.692,7.464c-2.19,0.421 -4.781,-2.483 -5.358,-5.594c-0.577,-3.111 0.848,-5.207 3.038,-5.628Z" style="fill:#1b1818;"/><path d="M79.57,150.781c-0.991,-1.032 -2.38,-1.349 -3.747,-1.086c-2.19,0.421 -3.614,2.516 -3.037,5.627c0.461,2.488 2.21,4.844 4.012,5.472c-1.075,-1.207 -1.865,-3.051 -1.98,-4.877c-0.2,-3.162 1.465,-5.056 3.688,-5.189c0.36,-0.022 0.717,-0.005 1.064,0.053Z" style="fill:#403f3f;"/><path d="M103.884,152.808c2.867,0.608 4.39,2.697 3.759,6.031c-0.631,3.334 -4.623,5.781 -7.587,5.525c-2.964,-0.255 -3.745,-4.096 -3.493,-7.448c0.265,-3.517 3.055,-5.012 7.321,-4.108Z" style="fill:#1b1818;"/><path d="M104.898,153.176c-0.364,-0.155 -0.761,-0.278 -1.187,-0.368c-4.267,-0.904 -7.056,0.591 -7.321,4.108c-0.252,3.352 0.528,7.193 3.493,7.448c0.39,0.034 0.798,0.021 1.214,-0.035c-2.06,-1.21 -2.197,-4.618 -1.582,-7.528c0.576,-2.726 2.55,-3.971 5.383,-3.625Z" style="fill:#403f3f;"/><path d="M86.963,159.811c1.455,-0 2.646,2.304 2.646,3.311c-0,1.007 -1.182,1.825 -2.637,1.825c-1.455,-0 -2.636,-0.818 -2.636,-1.825c0,-1.007 1.172,-3.311 2.627,-3.311Z" style="fill:#1b1818;"/><path d="M87.441,159.85c-0.14,-0.043 -0.284,-0.066 -0.43,-0.066c-1.455,-0 -2.627,2.304 -2.627,3.311c0,1.007 1.181,1.825 2.636,1.825c0.641,-0 1.229,-0.159 1.686,-0.422c-0.03,0 -0.06,0.001 -0.09,0.001c-1.455,-0 -2.636,-0.818 -2.636,-1.825c-0,-0.717 0.594,-2.092 1.461,-2.824Z" style="fill:#343434;"/><path d="M116.41,128.284c1.374,-0.654 3.383,0.848 4.483,3.353c1.099,2.505 0.876,5.071 -0.498,5.725c-1.374,0.655 -3.383,-0.848 -4.483,-3.353c-1.099,-2.505 -0.876,-5.07 0.498,-5.725Z" style="fill:#c3c3c3;"/><path d="M107.482,129.606c0.699,-0.333 1.684,0.347 2.198,1.518c0.514,1.171 0.364,2.392 -0.335,2.725c-0.7,0.333 -1.685,-0.347 -2.199,-1.518c-0.514,-1.171 -0.363,-2.392 0.336,-2.725Z" style="fill:#c3c3c3;"/><path d="M114.941,142.627c0.567,-0.27 1.265,0.054 1.559,0.722c0.293,0.669 0.072,1.431 -0.495,1.701c-0.566,0.27 -1.265,-0.054 -1.558,-0.723c-0.294,-0.669 -0.072,-1.431 0.494,-1.7Z" style="fill:#c3c3c3;"/><path d="M77.395,165.657c-0.921,0 -1.67,1.393 -1.67,3.108c0,1.716 0.749,3.108 1.67,3.108c0.922,0 1.67,-1.392 1.67,-3.108c0,-1.715 -0.748,-3.108 -1.67,-3.108Z" style="fill:#f7f7f7;fill-opacity:0.61;"/><path d="M84.827,168.742c-1.144,0.318 -1.781,1.718 -1.42,3.123c0.361,1.406 1.583,2.288 2.727,1.97c1.144,-0.319 1.78,-1.719 1.42,-3.124c-0.361,-1.405 -1.583,-2.288 -2.727,-1.969Z" style="fill:#f7f7f7;fill-opacity:0.61;"/><path d="M96.09,168.199c-1.405,0.962 -1.672,3.129 -0.595,4.836c1.076,1.708 3.092,2.313 4.497,1.351c1.406,-0.962 1.673,-3.128 0.596,-4.836c-1.077,-1.707 -3.092,-2.312 -4.498,-1.351Z" style="fill:#f7f7f7;fill-opacity:0.61;"/><path d="M84.594,126.437c-3.19,2.986 -4.694,6.669 -3.357,8.219c1.338,1.55 5.014,0.383 8.204,-2.603c3.19,-2.987 4.694,-6.67 3.356,-8.219c-1.337,-1.55 -5.013,-0.384 -8.203,2.603Z" style="fill:#f7f7f7;"/></g><path d="M150.292,160.128c7.801,0.436 14.023,2.955 13.886,5.622c-0.137,2.667 -6.583,4.479 -14.384,4.043c-7.801,-0.436 -14.023,-2.955 -13.886,-5.622c0.138,-2.668 6.583,-4.479 14.384,-4.043Z" style="fill:#f96480;"/><path d="M158.287,43.45c10.653,-4.483 -37.778,0.239 -38.814,4.548c-1.037,4.308 26.058,0.819 38.814,-4.548Z" style="fill:#7a7a7a;fill-opacity:0.34;"/><path d="M108.368,61.143c3.196,-4.167 25.979,4.975 24.644,9.652c-1.335,4.678 -28.821,-4.206 -24.644,-9.652Z" style="fill:#7a7a7a;fill-opacity:0.34;"/><path d="M98.987,85.125c3.291,1.879 7.337,7.549 3.741,14.625c-3.596,7.076 -9.237,10.302 -11.181,8.94c-1.944,-1.361 1.014,-27.234 7.44,-23.565Z" style="fill:#7a7a7a;fill-opacity:0.34;"/><path d="M45.24,177.595c1.735,-3.596 -39.264,-0.267 -36.102,7.9c10.179,26.291 101.979,40.199 122.368,30.109c17.114,-8.47 -98.681,-12.277 -86.266,-38.009Z" style="fill:#303030;"/><path d="M87.451,193.789c-4.748,-2.615 24.67,6.126 50.338,5.416c25.668,-0.71 46.674,-11.455 48.634,-7.312c1.961,4.143 -55.908,25.612 -98.972,1.896Z" style="fill:#303030;"/></g></svg>