<?xml version="1.0" encoding="UTF-8" standalone="no"?><!DOCTYPE svg PUBLIC "-//W3C//DTD SVG 1.1//EN" "http://www.w3.org/Graphics/SVG/1.1/DTD/svg11.dtd"><svg width="100%" height="100%" viewBox="0 0 512 512" version="1.1" xmlns="http://www.w3.org/2000/svg" xmlns:xlink="http://www.w3.org/1999/xlink" xml:space="preserve" xmlns:serif="http://www.serif.com/" style="fill-rule:evenodd;clip-rule:evenodd;stroke-linecap:round;stroke-linejoin:round;stroke-miterlimit:1.5;"><g id="None"><path d="M309.712,422.876c7.226,3.772 -113.225,2.653 -111.49,1.833c19.239,-9.1 38.208,-24.941 38.208,-52.025l38.764,0.001c-0,25.346 16.615,40.846 34.518,50.191Z" style="fill:#fff;"/><path d="M135.41,489.271c-2.162,4.98 -1.672,10.713 1.304,15.254c2.976,4.54 8.038,7.277 13.467,7.281c48.473,0.05 163.213,0.139 211.685,0.177c5.433,0.004 10.503,-2.727 13.488,-7.266c2.985,-4.538 3.485,-10.275 1.33,-15.262c-19.769,-45.268 -64.946,-76.944 -117.463,-76.944l-6.442,0c-52.444,0 -97.569,31.589 -117.369,76.76Z" style="fill:#fff;"/><path d="M121.652,232.578c0.137,-77.317 8.179,-151.832 134.162,-151.832c125.982,0 134.024,74.515 134.161,151.832c6.722,-3.717 14.179,-4.99 21.363,-3.061c17.547,4.713 26.855,26.757 20.773,49.197c-6.081,22.439 -25.265,36.831 -42.811,32.119c-5.299,-1.424 -9.847,-4.427 -13.448,-8.547c-0.05,55.582 -84.331,94.975 -120.038,94.975c-35.711,-0 -120.001,-39.401 -120.034,-94.981c-3.6,4.122 -8.15,7.129 -13.452,8.553c-17.547,4.712 -36.73,-9.68 -42.812,-32.119c-6.082,-22.44 3.226,-44.484 20.773,-49.197c7.184,-1.929 14.642,-0.656 21.363,3.061Zm91.599,81.782c8.656,8.655 25.278,12.941 42.155,12.766c16.711,-0.174 33.521,-4.671 42.734,-12.548c1.729,-1.479 1.933,-4.083 0.454,-5.812c-1.479,-1.73 -4.083,-1.933 -5.813,-0.455c-8.051,6.885 -22.856,10.418 -37.461,10.57c-14.441,0.15 -28.832,-2.945 -36.238,-10.351c-1.609,-1.609 -4.222,-1.609 -5.831,-0c-1.608,1.609 -1.608,4.221 0,5.83Zm-77.429,-12.128l-0.017,0.019l0.112,0l-0.094,-0.012l-0.001,-0.007Zm62.015,-78.42c14.493,-0 26.26,11.775 26.26,26.279c0,14.504 -11.767,26.279 -26.26,26.279c-14.494,0 -26.261,-11.775 -26.261,-26.279c0,-14.504 11.767,-26.279 26.261,-26.279Zm115.935,-0c-14.504,-0 -26.279,11.775 -26.279,26.279c-0,14.504 11.775,26.279 26.279,26.279c14.504,0 26.279,-11.775 26.279,-26.279c0,-14.504 -11.775,-26.279 -26.279,-26.279Zm-188.704,10.909l0.009,0.006l-0.001,-0.006l-0.008,-0Z" style="fill:#fff;"/><path d="M250.874,89.996c9.082,-44.852 45.46,-54.803 45.46,-54.803" style="fill:none;stroke:#fff;stroke-width:14.67px;"/><path d="M250.874,89.996c50.387,-46.725 118.302,-15.899 118.302,-15.899" style="fill:none;stroke:#fff;stroke-width:14.67px;"/></g></svg>